<svg enable-background="new 0 0 100 100" fill="#fff" viewBox="0 0 100 100" xmlns="http://www.w3.org/2000/svg"><path d="m-192 0h185v99h-185z"/><path d="m0-36h100v30h-100z"/><text fill="#fff" transform="translate(66 -19.5)"/><text transform="translate(7.166 -24.5)"><tspan fill="#fff" x="0" y="0"/><tspan fill="#fff" x="1.12" y="4.8"/></text><text fill="#fff" transform="translate(-178.5 10.5)"/><path d="m8-14.5h10" fill="#fff" stroke="#fff" stroke-miterlimit="10"/><path d="m-179 16.5h17" fill="#fff" stroke="#fff" stroke-miterlimit="10"/><path d="m-170.802 31.318h8.721v8.642h-8.721z" fill="#fff"/><path d="m-164.455 42.312h4.747v-4.703h-4.747zm5.189.437h-5.63v-5.579h5.63zm-6.955 1.313h8.279v-8.203h-8.279zm8.721.438h-9.163v-9.079h9.163z" fill="#fff"/><path d="m-166.149 44.133-.143-.142 8.279-8.204.142.142z" fill="#fff"/><path d="m-179 58h35v32.5h-35z" fill="none"/><text transform="translate(-179 60.1572)"><tspan fill="#fff" x="0" y="0"/><tspan fill="#fff" x="0" y="5"/><tspan fill="#fff" x="0" y="10"/><tspan fill="#fff" x="0" y="14.5"/><tspan fill="#fff" x="0" y="17.5"/><tspan fill="#fff" x="0" y="22"/><tspan fill="#fff" x="0" y="25"/></text><path d="m-136.5 58h35v32.5h-35z" fill="none"/><text transform="translate(-136.5 60.1572)"><tspan fill="#fff" x="0" y="0"/><tspan fill="#fff" x="0" y="5"/><tspan fill="#fff" x="0" y="8.5"/><tspan fill="#fff" x="0" y="13.5"/><tspan fill="#fff" x="0" y="16.5"/></text><path d="m-94 58h35v32.5h-35z" fill="none"/><text transform="translate(-94 60.1572)"><tspan fill="#fff" x="0" y="0"/><tspan fill="#fff" x="0" y="5"/><tspan fill="#fff" x="0" y="8"/></text><path d="m-50 58h35v32.5h-35z" fill="none"/><text transform="translate(-50 60.1572)"><tspan fill="#fff" x="0" y="0"/><tspan fill="#fff" x="0" y="5"/><tspan fill="#fff" x="0" y="8"/></text><g fill="#fff"><text transform="matrix(1.0074 0 0 1 -125.542 30.5933)"/><text font-family="'Helvetica-Bold'" font-size="5.1462" transform="matrix(1.0074 0 0 1 -41 39)">.</text><path d="m-126.514 34.815h10.261v10.185h-10.261z"/><path d="m-126.477 31.766h.522v2.337h-.522z"/><path d="m-116.812 31.766h.523v2.337h-.523z"/><path d="m-127 32.337h11.233v.572h-11.233z"/><path d="m-83.805 33.844h10.305v10.156h-10.305z"/><path d="m-76.809 28.707h3.308v3.261h-3.308z"/><path d="m-178.5 22.5h30v30h-30z" stroke="#fff" stroke-miterlimit="10"/><path d="m-136.5 22.5h30v30h-30z" stroke="#fff" stroke-miterlimit="10"/><path d="m-93.5 22.5h30v30h-30z" stroke="#fff" stroke-miterlimit="10"/><path d="m-49.5 22.5h30v30h-30z" stroke="#fff" stroke-miterlimit="10"/></g><path d="m0 16v68h100v-68zm86.307 7-36.307 27.553-36.307-27.553zm-79.307 54v-50.161l43 32.897 43-32.896v50.16z"/></svg>