<svg xmlns:dc="http://purl.org/dc/elements/1.1/" style="fill:rgba(42, 74, 84, 0.98);" xmlns:cc="http://creativecommons.org/ns#" xmlns:rdf="http://www.w3.org/1999/02/22-rdf-syntax-ns#" xmlns:svg="http://www.w3.org/2000/svg" xmlns="http://www.w3.org/2000/svg" xmlns:sodipodi="http://sodipodi.sourceforge.net/DTD/sodipodi-0.dtd" xmlns:inkscape="http://www.inkscape.org/namespaces/inkscape" version="1.1" x="0px" y="0px" viewBox="0 0 100 100" ><g transform="translate(0,-952.36218)"><path style="text-indent:0;text-transform:none;direction:ltr;block-progression:tb;baseline-shift:baseline;color:#b3d207;enable-background:accumulate;" d="m 50,973.36216 c -15.9926,0 -29,13.0075 -29,29.00004 0,15.9923 13.0074,29 29,29 15.9926,0 29,-13.0077 29,-29 0,-15.99254 -13.0074,-29.00004 -29,-29.00004 z m 0,4 c 13.8308,0 25,11.16928 25,25.00004 0,13.8305 -11.1692,25 -25,25 -13.8308,0 -25,-11.1695 -25,-25 0,-13.83076 11.1692,-25.00004 25,-25.00004 z m 0,6 c -1.1046,0 -2,0.8954 -2,2 l 0,17.00004 c 0,0.5523 0.2317,1.0443 0.5937,1.4062 l 10.5938,10.625 c 0.7812,0.7811 2.0627,0.7811 2.8438,0 0.7811,-0.7811 0.7811,-2.0627 0,-2.8437 l -10.0313,-10 0,-16.18754 c 0,-1.1046 -0.8954,-2 -2,-2 z" fill="rgba(42, 74, 84, 0.98);" fill-opacity="1" stroke="none" marker="none" visibility="visible" display="inline" overflow="visible"></path></g></svg>