<svg xmlns="http://www.w3.org/2000/svg" xmlns:xlink="http://www.w3.org/1999/xlink" version="1.1" x="0px" y="0px" viewBox="0 0 100 100" enable-background="new 0 0 100 100" xml:space="preserve" style="fill:white;"><g><rect x="-192" width="185" height="99"></rect><rect y="-36" width="100" height="30"></rect><text transform="matrix(1 0 0 1 66 -19.5)" fill="white" font-family="'Helvetica'" font-size="2.4"></text><text transform="matrix(1 0 0 1 7.166 -24.5)"><tspan x="0" y="0" fill="white" font-family="'Helvetica-Bold'" font-size="6.1578"></tspan><tspan x="1.12" y="4.8" fill="white" font-family="'Helvetica-Bold'" font-size="4"></tspan></text><text transform="matrix(1 0 0 1 -178.5 10.5)" fill="white" font-family="'Helvetica-Bold'" font-size="6.1578"></text><line fill="white" stroke="white" stroke-miterlimit="10" x1="8" y1="-14.5" x2="18" y2="-14.5"></line><line fill="white" stroke="white" stroke-miterlimit="10" x1="-179" y1="16.5" x2="-162" y2="16.5"></line><g><g><g><rect x="-170.802" y="31.318" fill="white" width="8.721" height="8.642"></rect><path fill="white" d="M-164.455,42.312h4.747v-4.703h-4.747V42.312z M-159.266,42.749h-5.63V37.17h5.63V42.749      L-159.266,42.749z M-166.221,44.062h8.279v-8.203h-8.279V44.062L-166.221,44.062z M-157.5,44.5h-9.163v-9.079h9.163V44.5      L-157.5,44.5z"></path><polygon fill="white" points="-166.149,44.133 -166.292,43.991 -158.013,35.787 -157.871,35.929     "></polygon></g></g></g><rect x="-179" y="58" fill="none" width="35" height="32.5"></rect><text transform="matrix(1 0 0 1 -179 60.1572)"><tspan x="0" y="0" fill="white" font-family="'Helvetica-Bold'" font-size="3"></tspan><tspan x="0" y="5" fill="white" font-family="'Helvetica'" font-size="2.4"></tspan><tspan x="0" y="10" fill="white" font-family="'Helvetica'" font-size="2.4"></tspan><tspan x="0" y="14.5" fill="white" font-family="'Helvetica'" font-size="2.4"></tspan><tspan x="0" y="17.5" fill="white" font-family="'Helvetica'" font-size="2.4"></tspan><tspan x="0" y="22" fill="white" font-family="'Helvetica-Bold'" font-size="2.4"></tspan><tspan x="0" y="25" fill="white" font-family="'Helvetica-Bold'" font-size="2.4"></tspan></text><rect x="-136.5" y="58" fill="none" width="35" height="32.5"></rect><text transform="matrix(1 0 0 1 -136.5 60.1572)"><tspan x="0" y="0" fill="white" font-family="'Helvetica-Bold'" font-size="3"></tspan><tspan x="0" y="5" fill="white" font-family="'Helvetica'" font-size="2.4"></tspan><tspan x="0" y="8.5" fill="white" font-family="'Helvetica'" font-size="2.4"></tspan><tspan x="0" y="13.5" fill="white" font-family="'Helvetica'" font-size="2.4"></tspan><tspan x="0" y="16.5" fill="white" font-family="'Helvetica'" font-size="2.4"></tspan></text><rect x="-94" y="58" fill="none" width="35" height="32.5"></rect><text transform="matrix(1 0 0 1 -94 60.1572)"><tspan x="0" y="0" fill="white" font-family="'Helvetica-Bold'" font-size="3"></tspan><tspan x="0" y="5" fill="white" font-family="'Helvetica'" font-size="2.4"></tspan><tspan x="0" y="8" fill="white" font-family="'Helvetica'" font-size="2.4"></tspan></text><rect x="-50" y="58" fill="none" width="35" height="32.5"></rect><text transform="matrix(1 0 0 1 -50 60.1572)"><tspan x="0" y="0" fill="white" font-family="'Helvetica-Bold'" font-size="3"></tspan><tspan x="0" y="5" fill="white" font-family="'Helvetica'" font-size="2.4"></tspan><tspan x="0" y="8" fill="white" font-family="'Helvetica'" font-size="2.4"></tspan></text><text transform="matrix(1.0074 0 0 1 -125.542 30.5933)" fill="white" font-family="'Helvetica'" font-size="2.5731"></text><text transform="matrix(1.0074 0 0 1 -41 39)" fill="white" font-family="'Helvetica-Bold'" font-size="5.1462">.</text><rect x="-126.514" y="34.815" fill="white" width="10.261" height="10.185"></rect><rect x="-126.477" y="31.766" fill="white" width="0.522" height="2.337"></rect><rect x="-116.812" y="31.766" fill="white" width="0.523" height="2.337"></rect><rect x="-127" y="32.337" fill="white" width="11.233" height="0.572"></rect><g><rect x="-83.805" y="33.844" fill="white" width="10.305" height="10.156"></rect><rect x="-76.809" y="28.707" fill="white" width="3.308" height="3.261"></rect></g><rect x="-178.5" y="22.5" fill="white" stroke="white" stroke-miterlimit="10" width="30" height="30"></rect><rect x="-136.5" y="22.5" fill="white" stroke="white" stroke-miterlimit="10" width="30" height="30"></rect><rect x="-93.5" y="22.5" fill="white" stroke="white" stroke-miterlimit="10" width="30" height="30"></rect><rect x="-49.5" y="22.5" fill="white" stroke="white" stroke-miterlimit="10" width="30" height="30"></rect></g><g><path d="M0,16v68h100V16H0z M86.307,23L50,50.553L13.693,23H86.307z M7,77V26.839l43,32.897L93,26.84V77H7z"></path></g></svg>