<svg xmlns="http://www.w3.org/2000/svg" xmlns:xlink="http://www.w3.org/1999/xlink" version="1.1" x="0px" y="0px" viewBox="0 0 100 100" enable-background="new 0 0 100 100" xml:space="preserve" style="fill:rgba(42, 74, 84, 0.98);"><path d="M93.124,48.167l-8.218-19.174H69.464v-9.775H6.876v52.05h10.043c-0.019,0.237-0.036,0.475-0.036,0.717  c0,4.852,3.947,8.799,8.798,8.799s8.798-3.947,8.798-8.799c0-0.242-0.017-0.479-0.036-0.717h27.849h7.173h0.111  c-0.02,0.237-0.036,0.475-0.036,0.717c0,4.852,3.947,8.799,8.799,8.799c4.851,0,8.797-3.947,8.797-8.799  c0-0.242-0.017-0.479-0.036-0.717h6.025V48.167z M25.681,75.783c-2.094,0-3.798-1.703-3.798-3.799c0-2.094,1.704-3.797,3.798-3.797  c2.094,0,3.797,1.703,3.797,3.797C29.478,74.08,27.774,75.783,25.681,75.783z M62.291,66.268H32.354  c-1.615-1.882-4.005-3.08-6.673-3.08s-5.058,1.198-6.673,3.08h-7.132v-42.05h52.588v42.05H62.291z M78.338,75.783  c-2.095,0-3.799-1.703-3.799-3.799c0-2.094,1.704-3.797,3.799-3.797c2.094,0,3.797,1.703,3.797,3.797  C82.135,74.08,80.432,75.783,78.338,75.783z M88.124,66.268H85.01c-1.614-1.882-4.004-3.08-6.672-3.08s-5.059,1.198-6.674,3.08h-2.2  V33.992h12.146l6.515,15.201V66.268z"></path></svg>