<svg><defs><font horiz-adv-x="571"><font-face ascent="790" bbox="-97 -199 1055 883" cap-height="667" descent="-210" panose-1="2 0 5 6 3 0 0 2 0 4" underline-position="-113" underline-thickness="20" unicode-range="U+000D-U+FB04" x-height="483"/><missing-glyph d="M33 0v666h265v-666h-265zM66 33h199v600h-199v-600z" horiz-adv-x="364"/><glyph d="M18 437l.00097656 46.001h80v44c0 47.333 11.667 84.166 35 110.499s55.333 39.5 96 39.5c26 0 47.667-5 65-15l-16-41c-12.667 7.33301-27.334 11-44.001 11-56 0-84-35-84-105v-44h98v-46h-98v-437h-52v437h-80zM332.001 599.001c0 10.667 4 19.834 12 27.501s17.333 11.5 28 11.5c11.333 0 20.833-3.83301 28.5-11.5s11.5-16.834 11.5-27.501c0-11.333-4-20.833-12-28.5s-17.333-11.5-28-11.5-20 4-28 12-12 17.333-12 28zM346.001.00097656v483h52v-483h-52z" glyph-name="uniFB01" horiz-adv-x="478" unicode="&#x66;&#x69;"/><glyph d="M18 437l.00097656 46.001h80v44c0 47.333 11.667 84.166 35 110.499s55.333 39.5 96 39.5c26 0 47.667-5 65-15l-16-41c-12.667 7.33301-27.334 11-44.001 11-56 0-84-35-84-105v-44h98v-46h-98v-437h-52v437h-80zM346.001.00097656v667h52v-667h-52z" glyph-name="uniFB02" horiz-adv-x="478" unicode="&#x66;&#x6c;"/><glyph d="M18 437v45.999h80v44c0 46.667 11.667 83.334 35 110.001s55.333 40 96 40c35.333 0 66-11.333 92-34l-25-36c-18 16.667-38.667 25-62 25-56 0-84-35-84-105v-44h98v-46h-98v-437h-52v437h-80zM283 436.999l.00097656 46.001h80v44c0 47.333 11.667 84.166 35 110.499s55.333 39.5 96 39.5c26 0 47.667-5 65-15l-16-41c-12.667 7.33301-27.334 11-44.001 11-56 0-84-35-84-105v-44h98v-46h-98v-437h-52v437h-80zM597.001 599c0 10.667 4 19.834 12 27.501s17.333 11.5 28 11.5c11.333 0 20.833-3.83301 28.5-11.5s11.5-16.834 11.5-27.501c0-11.333-3.83301-20.833-11.5-28.5s-17.167-11.5-28.5-11.5c-10.667 0-20 4-28 12s-12 17.333-12 28zM611.001 0v483h52v-483h-52z" glyph-name="uniFB03" horiz-adv-x="743" unicode="&#x66;&#x66;&#x69;"/><glyph d="M18 437v45.999h80v44c0 46.667 11.667 83.334 35 110.001s55.333 40 96 40c35.333 0 66-11.333 92-34l-25-36c-18 16.667-38.667 25-62 25-56 0-84-35-84-105v-44h98v-46h-98v-437h-52v437h-80zM283 436.999l.00097656 46.001h80v44c0 47.333 11.667 84.166 35 110.499s55.333 39.5 96 39.5c26 0 47.667-5 65-15l-16-41c-12.667 7.33301-27.334 11-44.001 11-56 0-84-35-84-105v-44h98v-46h-98v-437h-52v437h-80zM611.001 0v667h52v-667h-52z" glyph-name="uniFB04" horiz-adv-x="743" unicode="&#x66;&#x66;&#x6c;"/><glyph d="M33 0v666h265v-666h-265zM66 33h199v600h-199v-600z" glyph-name=".notdef" horiz-adv-x="364"/><glyph glyph-name="glyph1" horiz-adv-x="0"/><glyph glyph-name="glyph1" horiz-adv-x="0"/><glyph glyph-name="uni000D" horiz-adv-x="0" unicode="&#xd;"/><glyph glyph-name="space" horiz-adv-x="259" unicode="&#x20;"/><glyph d="M66 35c0 11.333 4.16699 21.333 12.5 30s18.5 13 30.5 13 22.5-4.33301 31.5-13 13.5-18.667 13.5-30c0-12-4.5-22.333-13.5-31s-19.5-13-31.5-13-22.167 4.33301-30.5 13-12.5 19-12.5 31zM76 667h67l-13-493h-41z" glyph-name="exclam" horiz-adv-x="219" unicode="&#x21;"/><glyph d="M58 641c0 10 3.33203 18.5 9.99902 25.5s15.334 10.5 26.001 10.5c10 0 18.5-3.5 25.5-10.5s10.5-15.5 10.5-25.5l-21-214h-30c-14 134-21 205.333-21 214zM186.999 641c0 10 3.5 18.5 10.5 25.5s15.5 10.5 25.5 10.5 18.5-3.5 25.5-10.5 10.5-15.5 10.5-25.5l-21-214h-30c-14 134-21 205.333-21 214z" glyph-name="quotedbl" horiz-adv-x="317" unicode="&#x22;"/><glyph d="M24 186l13 41h112l71 213h-113l12 41h115l61 186h47l-61-186h117l61 186h48l-63-186h111l-11-41h-113l-72-213h115l-12-41h-116l-62-186h-48l64 186h-118l-63-186h-47l62 186h-110zM196 227h116l72 213h-117z" glyph-name="numbersign" horiz-adv-x="579" unicode="&#x23;"/><glyph d="M48 94l37.001 43.002c50-58.667 112.667-90.667 188-96v280c-32.667 9.33301-58.167 17.5-76.5 24.5s-38.833 17.333-61.5 31-39.334 30.667-50.001 51-16 44.5-16 72.5c0 50.667 19.333 92.167 58 124.5s87.334 49.833 146.001 52.5v91h46v-91c80-6.66699 145-37.667 195-93l-38-42c-39.333 47.333-91.666 74.666-156.999 81.999v-252c31.333-8.66699 57.166-17.167 77.499-25.5s41.833-19.833 64.5-34.5 39.667-33.167 51-55.5 17-48.833 17-79.5c0-47.333-16.833-89.333-50.5-126s-86.834-57.334-159.501-62.001v-89h-46v89c-96.667 4.66699-171.667 39.667-225 105zM129.001 503.002c0-32 12.332-56.333 36.999-73s60.334-31.667 107.001-45v240c-42-2-76.5-14.333-103.5-37s-40.5-51-40.5-85zM319 41.002c52.667 4 90.834 19 114.501 45s35.5 55 35.5 87c0 36.667-12.833 64.667-38.5 84s-62.834 36.333-111.501 51v-267z" glyph-name="dollar" horiz-adv-x="584" unicode="&#x24;"/><glyph d="M34 512c0 47.333 14.668 86.666 44.001 117.999s66.666 47 111.999 47c46 0 83.667-15.667 113-47s44-70.666 44-117.999c0-46.667-14.667-85.334-44-116.001s-67-46-113-46-83.5 15.333-112.5 46-43.5 69.334-43.5 116.001zM80.001 512c0-34 10.334-63.167 31.001-87.5s47-36.5 79-36.5 58.5 12.167 79.5 36.5 31.5 53.5 31.5 87.5c0 35.333-10.333 65.166-31 89.499s-47.334 36.5-80.001 36.5c-32 0-58.333-12.167-79-36.5s-31-54.166-31-89.499zM128.002 0l426 667h46l-427-667h-45zM373.002 151c0 47.333 14.667 86.666 44 117.999s67 47 113 47 83.667-15.667 113-47 44-70.666 44-117.999c0-46.667-14.667-85.5-44-116.5s-67-46.5-113-46.5-83.667 15.5-113 46.5-44 69.833-44 116.5zM419.002 151c0-34.667 10.333-64 31-88s47.334-36 80.001-36 59.167 12 79.5 36 30.5 53.333 30.5 88c0 35.333-10.167 65.166-30.5 89.499s-46.833 36.5-79.5 36.5-59.334-12.167-80.001-36.5-31-54.166-31-89.499z" glyph-name="percent" horiz-adv-x="720" unicode="&#x25;"/><glyph d="M42 170c0 48 12.9941 87.168 38.9941 117.501s62.667 58.5 110 84.5c-36.667 58-55 109-55 153 0 43.333 15.333 79.5 46 108.5s68.334 43.5 113.001 43.5c42 0 75.833-11.167 101.5-33.5s38.5-53.166 38.5-92.499c0-19.333-3.66699-37.5-11-54.5s-15.166-30.833-23.499-41.5-22.166-22.834-41.499-36.501-34.166-23.334-44.499-29.001l-52.5-28.5c19.333-26.667 48-61.667 86-105 42-47.333 71.667-80 89-98 32.667 48.667 58 102.667 76 162l48-20c-31.333-78.667-60.666-138-87.999-178 32-33.333 75-74 129-122h-78c-25.333 22-53.666 48.667-84.999 80-54.667-61.333-120-92-196-92-58 0-106 16-144 48s-57 76.667-57 134zM99.9941 173.001c0-43.333 14.3311-77.333 42.998-102s63.334-37 104.001-37c58 0 110.667 27 158 81-49.333 50.667-82.666 86.334-99.999 107.001-39.333 46-69 83.333-89 112-36.667-21.333-65.167-44.333-85.5-69s-30.5-55.334-30.5-92.001zM191.992 524.001c0-36 15.3311-78.335 45.998-127.002 24.667 12.667 43.334 23 56.001 31s27.167 18.333 43.5 31 28 26.334 35 41.001 10.5 31 10.5 49c0 26.667-8.16699 47.334-24.5 62.001s-37.166 22-62.499 22c-28.667 0-53.167-10.333-73.5-31s-30.5-46.667-30.5-78z" glyph-name="ampersand" horiz-adv-x="639" unicode="&#x26;"/><glyph d="M58 641c0 10 3.33203 18.5 9.99902 25.5s15.334 10.5 26.001 10.5c10 0 18.5-3.5 25.5-10.5s10.5-15.5 10.5-25.5l-21-214h-30c-14 134-21 205.333-21 214z" glyph-name="quotesingle" horiz-adv-x="187" unicode="&#x27;"/><glyph d="M46 243c0 160.667 44.333 308 133 442l31-22c-35.333-72.667-61.833-140.667-79.5-204s-26.5-135.333-26.5-216 8.83301-152.667 26.5-216 44.167-131 79.5-203l-31-23c-88.667 134-133 281.333-133 442z" glyph-name="parenleft" horiz-adv-x="227" unicode="&#x28;"/><glyph d="M17-176c35.333 71.333 61.833 138.831 79.5 202.498s26.5 135.834 26.5 216.501c0 81.333-8.83301 153.666-26.5 216.999s-44.167 131-79.5 203l31 22c89.333-135.333 134-282.666 134-441.999s-44.667-306.666-134-441.999z" glyph-name="parenright" horiz-adv-x="227" unicode="&#x29;"/><glyph d="M37 485l104 53-104 53 19 33 98-64-5 117h37l-6-117 99 64 18-33-103-53 103-53-18-33-99 64 6-117h-37l5 117-98-64z" glyph-name="asterisk" horiz-adv-x="335" unicode="&#x2a;"/><glyph d="M29 316v42h197v211h45v-211h196v-42h-196v-217h-45v217h-197z" glyph-name="plus" horiz-adv-x="496" unicode="&#x2b;"/><glyph d="M58-98c16 10.667 29.334 24.833 40.001 42.5s16.667 34.167 18 49.5c-4.66699-.666992-8-1-10-1-12 0-21.833 4-29.5 12s-11.5 18-11.5 30c0 11.333 4.16699 21.333 12.5 30s18.5 13 30.5 13c14 0 26-5.66699 36-17s15-27 15-47c0-26.667-6.83301-52.5-20.5-77.5s-30.834-44.833-51.501-59.5z" glyph-name="comma" horiz-adv-x="219" unicode="&#x2c;"/><glyph d="M30 218v48h240v-48h-240z" glyph-name="hyphen" horiz-adv-x="300" unicode="&#x2d;"/><glyph d="M65 35c0 11.333 4.33301 21.333 13 30s19 13 31 13 22.5-4.33301 31.5-13 13.5-18.667 13.5-30c0-12-4.5-22.5-13.5-31.5s-19.5-13.5-31.5-13.5-22.333 4.5-31 13.5-13 19.5-13 31.5z" glyph-name="period" horiz-adv-x="219" unicode="&#x2e;"/><glyph d="M0-20l237 707h45l-237-707h-45z" glyph-name="slash" horiz-adv-x="282" unicode="&#x2f;"/><glyph d="M58 333c0 42 4.66602 82.498 13.999 121.498s23.166 75.5 41.499 109.5 44 61.333 77 82 71.167 31 114.5 31c42.667 0 80.334-10.333 113.001-31s58.334-48 77.001-82 32.667-70.5 42-109.5 14-79.5 14-121.5c0-41.333-4.66699-81.666-14-120.999s-23.333-76.166-42-110.499-44.334-61.833-77.001-82.5-70.334-31-113.001-31-80.667 10.333-114 31-59.166 48.167-77.499 82.5-32.166 71-41.499 110-14 79.5-14 121.5zM117.999 332.998c0-36.667 3.33301-71.5 10-104.5s16.834-64 30.501-93 33-52.167 58-69.5 54.5-26 88.5-26c33.333 0 62.5 8.66699 87.5 26s44.333 40.5 58 69.5 23.667 60 30 93 9.5 67.833 9.5 104.5-3.16699 71.5-9.5 104.5-16.333 64-30 93-33 52-58 69-54.167 25.5-87.5 25.5c-34 0-63.5-8.5-88.5-25.5s-44.333-40-58-69-23.834-60-30.501-93-10-67.833-10-104.5z" glyph-name="zero" horiz-adv-x="608" unicode="&#x30;"/><glyph d="M26 512l147 155h52v-667h-57v589l-107-114z" glyph-name="one" horiz-adv-x="308" unicode="&#x31;"/><glyph d="M56 0l.00097656 47.001 128 105c32 26.667 66 57 102 91s63.5 63.5 82.5 88.5 34.833 51.167 47.5 78.5 19 53.666 19 78.999c0 44.667-15.167 78.5-45.5 101.5s-65.833 34.5-106.5 34.5c-40 0-75.833-7.83301-107.5-23.5s-56.834-36.834-75.501-63.501l-39 36c24 32 55.333 57.167 94 75.5s81.334 27.5 128.001 27.5c55.333 0 104.166-16 146.499-48s63.5-78.667 63.5-140c0-35.333-8.33301-70.666-25-105.999s-43-72.5-79-111.5-71.167-73.667-105.5-104-80.5-68.833-138.5-115.5h351v-52h-440z" glyph-name="two" horiz-adv-x="582" unicode="&#x32;"/><glyph d="M32 99l39.002 34.001c43.333-62 105.666-93 186.999-93 51.333 0 92.166 12.667 122.499 38s45.5 60 45.5 104c0 45.333-16.5 79.166-49.5 101.499s-76.167 33.5-129.5 33.5c-34.667 0-55.334-.333008-62.001-1v54c6.66699-.666992 27.334-1 62.001-1 48 0 88.167 10.667 120.5 32s48.5 53 48.5 95c0 40-15.333 71.5-46 94.5s-68.667 34.5-114 34.5c-68.667 0-128.334-28.333-179.001-85l-36 36c55.333 67.333 128 101 218 101 60.667 0 111.667-15.667 153-47s62-74.333 62-129c0-31.333-8.33301-59-25-83s-35-41.167-55-51.5-41-17.5-63-21.5c36-4 70.5-20.333 103.5-49s49.5-67.667 49.5-117c0-56-20.167-101.833-60.5-137.5s-95.166-53.5-164.499-53.5c-52 0-97.667 10.5-137 31.5s-69.333 47.5-90 79.5z" glyph-name="three" horiz-adv-x="544" unicode="&#x33;"/><glyph d="M35 182v51l296 434h77v-433h98v-52h-98v-182h-57v182h-316zM94 234h257v376z" glyph-name="four" horiz-adv-x="541" unicode="&#x34;"/><glyph d="M74 97l38 38.001c44.667-63.333 107-95 187-95 48 0 87.833 15.333 119.5 46s47.5 69 47.5 115c0 50-15.5 89.667-46.5 119s-70.833 44-119.5 44c-60.667 0-114.667-21.667-162-65l-43 18v350h385v-52h-328v-261c42.667 41.333 95.667 62 159 62 59.333 0 109.666-18.833 150.999-56.5s62-89.834 62-156.501c0-64.667-21.667-116.667-65-156s-96.666-59-159.999-59c-99.333 0-174.333 36.333-225 109z" glyph-name="five" horiz-adv-x="582" unicode="&#x35;"/><glyph d="M58 333c0 35.333 2.83398 69.166 8.50098 101.499s15.167 63.5 28.5 93.5 29.5 55.833 48.5 77.5 43.167 39 72.5 52 61.666 19.5 96.999 19.5c74.667 0 134.667-28.333 180-85l-34-42c-36.667 50-85.334 75-146.001 75-34.667 0-65.167-8.5-91.5-25.5s-46.833-39.833-61.5-68.5-25.667-59.667-33-93-11-68.666-11-105.999c0-14 .333008-24.333 1-31 16.667 27.333 43 52.666 79 75.999s74.667 35 116 35c63.333 0 115-18.167 155-54.5s60-88.5 60-156.5c0-58-20.333-108-61-150s-95-63-163-63c-34.667 0-66 6.33301-94 19s-51.333 29.667-70 51-34.167 46.833-46.5 76.5-21.166 60.834-26.499 93.501-8 67.667-8 105zM120.001 247c2.66699-34 10-65.667 22-95s31.667-55.333 59-78 60.666-34 99.999-34c52.667 0 93.834 16.5 123.501 49.5s44.5 69.833 44.5 110.5c0 52.667-15.333 92.667-46 120s-71 41-121 41c-36 0-70.5-10.5-103.5-31.5s-59.167-48.5-78.5-82.5z" glyph-name="six" horiz-adv-x="584" unicode="&#x36;"/><glyph d="M33 615v52h437v-40l-285-627h-63l280 615h-369z" glyph-name="seven" horiz-adv-x="502" unicode="&#x37;"/><glyph d="M59 167c0 43.333 15.999 80.501 47.999 111.501s71.333 52.833 118 65.5c-44 12-80.833 31.5-110.5 58.5s-44.5 61.167-44.5 102.5c0 55.333 21.333 97.833 64 127.5s93.334 44.5 152.001 44.5c57.333 0 107.666-14.833 150.999-44.5s65-72.167 65-127.5c0-41.333-14.833-75.5-44.5-102.5s-66.5-46.5-110.5-58.5c46.667-12.667 85.834-34.334 117.501-65.001s47.5-68 47.5-112c0-53.333-21.5-96.5-64.5-129.5s-96.833-49.5-161.5-49.5c-65.333 0-119.5 16.5-162.5 49.5s-64.5 76.167-64.5 129.5zM116.999 171.001c0-39.333 16.501-71 49.501-95s72.833-36 119.5-36c45.333 0 84.833 12.167 118.5 36.5s50.5 55.833 50.5 94.5c0 24-6.66699 45.667-20 65s-30 34.5-50 45.5-38.333 19.5-55 25.5-31.334 9.66699-44.001 11c-12.667-1.33301-27.5-5-44.5-11s-35.333-14.5-55-25.5-36.167-26.167-49.5-45.5-20-41-20-65zM128 499.001c0-21.333 6-40.499 18-57.499s27.667-30.5 47-40.5 36-17.333 50-22 28.333-8.33398 43-11.001c14.667 2.66699 29 6.5 43 11.5s30.667 12.333 50 22 35 23 47 40 18 36.167 18 57.5c0 38.667-15 69.334-45 92.001s-67.667 34-113 34-83-11.333-113-34-45-53.334-45-92.001z" glyph-name="eight" unicode="&#x38;"/><glyph d="M57 465c0 58 20.332 108 60.999 150s95 63 163 63c34.667 0 66-6.33301 94-19s51.333-29.667 70-51 34.167-46.833 46.5-76.5 21.166-60.834 26.499-93.501 8-67.667 8-105c0-35.333-2.83301-69.166-8.5-101.499s-15.167-63.5-28.5-93.5-29.5-55.833-48.5-77.5-43.167-39-72.5-52-61.666-19.5-96.999-19.5c-75.333 0-135 28.333-179 85l33 41c36.667-49.333 85.334-74 146.001-74 35.333 0 66.166 8.5 92.499 25.5s46.833 40 61.5 69 25.5 60 32.5 93 10.5 68.167 10.5 105.5v31c-17.333-27.333-44.166-52.833-80.499-76.5s-74.833-35.5-115.5-35.5c-63.333 0-115 18.333-155 55s-60 89-60 157zM114.999 466c0-52.667 15.333-92.667 46-120s71-41 121-41c36 0 70.5 10.5 103.5 31.5s59.167 48.5 78.5 82.5c-2.66699 34-10 65.667-22 95s-31.667 55.333-59 78-60.666 34-99.999 34c-52.667 0-93.834-16.5-123.501-49.5s-44.5-69.833-44.5-110.5z" glyph-name="nine" horiz-adv-x="584" unicode="&#x39;"/><glyph d="M65 35c0 11.333 4.33301 21.333 13 30s19 13 31 13 22.5-4.33301 31.5-13 13.5-18.667 13.5-30c0-12-4.5-22.5-13.5-31.5s-19.5-13.5-31.5-13.5-22.333 4.5-31 13.5-13 19.5-13 31.5zM65 446c0 12 4.33301 22.333 13 31s19 13 31 13 22.5-4.33301 31.5-13 13.5-19 13.5-31c0-11.333-4.5-21.333-13.5-30s-19.5-13-31.5-13-22.333 4.33301-31 13-13 18.667-13 30z" glyph-name="colon" horiz-adv-x="219" unicode="&#x3a;"/><glyph d="M58-97c16 10.667 29.334 24.835 40.001 42.502s16.667 34.167 18 49.5c-4.66699-.666992-8-1-10-1-12 0-21.833 4-29.5 12s-11.5 18-11.5 30c0 11.333 4.16699 21.333 12.5 30s18.5 13 30.5 13c14 0 26-5.83301 36-17.5s15-27.5 15-47.5c0-26.667-6.83301-52.334-20.5-77.001s-30.834-44.334-51.501-59.001zM65.001 446.001c0 12 4.33301 22.333 13 31s19 13 31 13 22.5-4.33301 31.5-13 13.5-19 13.5-31c0-11.333-4.5-21.333-13.5-30s-19.5-13-31.5-13-22.333 4.33301-31 13-13 18.667-13 30z" glyph-name="semicolon" horiz-adv-x="219" unicode="&#x3b;"/><glyph d="M29 316v37l438 227v-49l-386-197 386-195v-49z" glyph-name="less" horiz-adv-x="496" unicode="&#x3c;"/><glyph d="M29 216v41h438v-41h-438zM29 411v42h438v-42h-438z" glyph-name="equal" horiz-adv-x="496" unicode="&#x3d;"/><glyph d="M29 90v49l386 195-386 197v49l438-227v-37z" glyph-name="greater" horiz-adv-x="496" unicode="&#x3e;"/><glyph d="M22 572c51.333 70 123.002 105 215.002 105 58 0 104.333-14.833 139-44.5s52-66.167 52-109.5c0-28-7-53.333-21-76s-31-41.334-51-56.001-40-28.5-60-41.5-37-27.667-51-44-21-34.166-21-53.499 10-36.333 30-51l-40-25c-27.333 22.667-41 49-41 79 0 24 6.66699 45.667 20 65s29.5 35.666 48.5 48.999l57.5 39.5c19.333 13 35.666 28.667 48.999 47s20 38.833 20 61.5c0 30.667-11.833 56.334-35.5 77.001s-56.5 31-98.5 31c-72.667 0-131.334-30-176.001-90zM179.002 35c0 11.333 4.33301 21.333 13 30s19 13 31 13 22.333-4.33301 31-13 13-18.667 13-30c0-12-4.33301-22.5-13-31.5s-19-13.5-31-13.5-22.333 4.5-31 13.5-13 19.5-13 31.5z" glyph-name="question" horiz-adv-x="464" unicode="&#x3f;"/><glyph d="M35 244c0 70.667 18.498 136.5 55.498 197.5s86 109 147 144 125.833 52.5 194.5 52.5c92.667 0 168.334-30.833 227.001-92.5s88-138.167 88-229.5c0-72-16-128.5-48-169.5s-70-61.5-114-61.5c-26 0-47 8.33301-63 25s-24.333 36.667-25 60l-1 6c-18.667-26-42.667-47.667-72-65s-60-26-92-26c-46 0-83 14.5-111 43.5s-42 67.833-42 116.5c0 69.333 24.5 129 73.5 179s104.167 75 165.5 75c31.333 0 58.333-7.66699 81-23s39-35 49-59l13 65h49l-59-282c-1.33301-8-2-14.333-2-19 0-16.667 4.83301-30 14.5-40s21.5-15 35.5-15c26.667 0 52.667 15.5 78 46.5s38 79.167 38 144.5c0 83.333-26.667 152.333-80 207s-122 82-206 82c-96.667 0-181.167-36.5-253.5-109.5s-108.5-156.833-108.5-251.5c0-80.667 27.333-148.167 82-202.5s123.667-81.5 207-81.5c66 0 128.333 19 187 57l17-25c-65.333-42-134.666-63-207.999-63-90.667 0-166.167 30.167-226.5 90.5s-90.5 134.833-90.5 223.5zM230.998 248c0-36 9.83105-65.333 29.498-88s46.834-34 81.501-34c63.333 0 118 33.667 164 101l32 148c-7.33301 21.333-20.666 40.5-39.999 57.5s-44 25.5-74 25.5c-52.667 0-98-21.5-136-64.5s-57-91.5-57-145.5z" glyph-name="at" horiz-adv-x="783" unicode="&#x40;"/><glyph d="M15 0l273 667h71l273-667h-66l-66 164h-353l-66-164h-66zM166 216h315l-158 390z" glyph-name="A" horiz-adv-x="647" unicode="&#x41;"/><glyph d="M83 0v666.998h274c56 0 100.667-15.333 134-46s50-72 50-124c0-40-11.5-73.833-34.5-101.5s-50.5-44.834-82.5-51.501c35.333-5.33301 65.833-24.166 91.5-56.499s38.5-68.166 38.5-107.499c0-55.333-17-99.166-51-131.499s-80.667-48.5-140-48.5h-280zM140 51.998l214-.00195312c44 0 78.333 11.833 103 35.5s37 55.834 37 96.501c0 36.667-12.333 67.834-37 93.501s-59 38.5-103 38.5h-214v-264zM140 367.996h210c41.333 0 73.5 11.5 96.5 34.5s34.5 52.5 34.5 88.5c0 35.333-11.5 64.833-34.5 88.5s-55.167 35.5-96.5 35.5h-210v-247z" glyph-name="B" horiz-adv-x="614" unicode="&#x42;"/><glyph d="M58 333c0 101.333 32.333 184.168 97 248.501s145 96.5 241 96.5c98.667 0 179.667-39.333 243-118l-48-31c-21.333 29.333-49.333 52.833-84 70.5s-71.667 26.5-111 26.5c-79.333 0-145.5-27.333-198.5-82s-79.5-125-79.5-211c0-85.333 26.5-155.5 79.5-210.5s119.167-82.5 198.5-82.5c39.333 0 76.333 8.83301 111 26.5s62.667 41.167 84 70.5l48-30c-64-79.333-145-119-243-119-96 0-176.333 32.167-241 96.5s-97 147.166-97 248.499z" glyph-name="C" horiz-adv-x="672" unicode="&#x43;"/><glyph d="M83 0v667.001h213c100.667 0 182-32.167 244-96.5s93-143.5 93-237.5c0-94.667-30.833-173.834-92.5-237.501s-143.167-95.5-244.5-95.5h-213zM140 52.001l156-.00097656c85.333 0 152.833 26.667 202.5 80s74.5 120.333 74.5 201-24.667 147.834-74 201.501-117 80.5-203 80.5h-156v-563z" glyph-name="D" horiz-adv-x="692" unicode="&#x44;"/><glyph d="M83 0v667h423v-52h-366v-247h359v-52h-359v-264h366v-52h-423z" glyph-name="E" horiz-adv-x="564" unicode="&#x45;"/><glyph d="M83 0v667h423v-52h-366v-247h359v-52h-359v-316h-57z" glyph-name="F" horiz-adv-x="542" unicode="&#x46;"/><glyph d="M58 333c0 101.333 32.5 184.165 97.5 248.498s145.167 96.5 240.5 96.5c101.333 0 185-38 251-114l-43-31c-24 28.667-54.167 51.334-90.5 68.001s-75.5 25-117.5 25c-79.333 0-145.5-27.333-198.5-82s-79.5-125-79.5-211c0-85.333 26.5-155.666 79.5-210.999s119.167-83 198.5-83c40.667 0 78 8 112 24s62 35 84 57v160h-252v51h309v-233c-66-74-150.333-111-253-111-95.333 0-175.5 32.333-240.5 97s-97.5 147.667-97.5 249z" glyph-name="G" horiz-adv-x="711" unicode="&#x47;"/><glyph d="M83 0v667h57v-298h423v298h58v-667h-58v317h-423v-317h-57z" glyph-name="H" horiz-adv-x="703" unicode="&#x48;"/><glyph d="M83 0v667h57v-667h-57z" glyph-name="I" horiz-adv-x="223" unicode="&#x49;"/><glyph d="M14 70l35 43.001c37.333-48.667 81.666-73 132.999-73 44.667 0 80.334 14.167 107.001 42.5s40 65.166 40 110.499v474h58v-474c0-66.667-19-117.5-57-152.5s-86.333-52.5-145-52.5c-72 0-129 27.333-171 82z" glyph-name="J" horiz-adv-x="470" unicode="&#x4a;"/><glyph d="M83 0v667h57v-365l322 365h73l-284-318 311-349h-73l-275 314-74-81v-233h-57z" glyph-name="K" horiz-adv-x="586" unicode="&#x4b;"/><glyph d="M83 0v667h57v-615h323v-52h-380z" glyph-name="L" horiz-adv-x="504" unicode="&#x4c;"/><glyph d="M83 0v667h85l227-550 226 550h86v-667h-58v589l-243-589h-22l-244 589v-589h-57z" glyph-name="M" horiz-adv-x="790" unicode="&#x4d;"/><glyph d="M83 0v667h58l418-565v565h57v-667h-56l-420 573v-573h-57z" glyph-name="N" horiz-adv-x="699" unicode="&#x4e;"/><glyph d="M58 333c0 99.333 29.833 181.666 89.5 246.999s137.834 98 234.501 98c96 0 174-32.667 234-98s90-147.666 90-246.999-30-181.666-90-246.999-138-98-234-98c-96.667 0-174.834 32.667-234.501 98s-89.5 147.666-89.5 246.999zM118 333c0-85.333 23.998-155.5 71.998-210.5s112-82.5 192-82.5c78.667 0 142.334 27.5 191.001 82.5s73 125.167 73 210.5c0 86-24.167 156.333-72.5 211s-112.166 82-191.499 82c-80 0-144-27.333-192-82s-72-125-72-211z" glyph-name="O" horiz-adv-x="764" unicode="&#x4f;"/><glyph d="M83 0l-.00097656 667.002h250c62 0 111-18.833 147-56.5s54-83.834 54-138.501-18.167-100.834-54.5-138.501-85.166-56.5-146.499-56.5h-193v-277h-57zM139.999 329.002h187c44 0 79.5 13.333 106.5 40s40.5 61 40.5 103-13.5 76.333-40.5 103-62.5 40-106.5 40h-187v-286z" glyph-name="P" unicode="&#x50;"/><glyph d="M58 333c0 99.333 29.833 181.667 89.5 247s137.834 98 234.501 98c96 0 174-32.667 234-98s90-147.666 90-246.999c0-102-31.667-185.667-95-251l70-73-39-36-71 73c-53.333-38.667-116.333-58-189-58-96.667 0-174.834 32.667-234.501 98s-89.5 147.666-89.5 246.999zM118 333.001c0-85.333 24-155.5 72-210.5s112-82.5 192-82.5c57.333 0 107.666 15.333 150.999 46l-103 107 40 37 103-108c48.667 56 73 126.333 73 211 0 86-24.167 156.333-72.5 211s-112.166 82-191.499 82c-80 0-144-27.333-192-82s-72-125-72-211z" glyph-name="Q" horiz-adv-x="764" unicode="&#x51;"/><glyph d="M83 0v666.999h249c58.667 0 107.167-17.667 145.5-53s57.5-82.666 57.5-141.999c0-58-17.833-104-53.5-138s-79.5-52-131.5-54l193-280h-69l-187 276h-147v-276h-57zM140 327.999h187c44 0 79.667 13.5 107 40.5s41 61.5 41 103.5-13.667 76.333-41 103-63 40-107 40h-187v-287z" glyph-name="R" horiz-adv-x="594" unicode="&#x52;"/><glyph d="M46 94l37.0039 43.0029c55.333-64.667 124.666-97 207.999-97 62 0 106.833 13.5 134.5 40.5s41.5 57.833 41.5 92.5c0 26.667-7.33301 49.167-22 67.5s-33.834 32.5-57.501 42.5-49.667 19-78 27-56.666 16.5-84.999 25.5-54.333 19.667-78 32-42.834 29.666-57.501 51.999-22 49.166-22 80.499c0 53.333 21 96.333 63 129s94 49 156 49c95.333 0 170.666-31.333 225.999-94l-38-42c-46.667 56-110.334 84-191.001 84-44.667 0-81.834-11.5-111.501-34.5s-44.5-52.5-44.5-88.5c0-22.667 7.33301-42.167 22-58.5s33.834-29 57.501-38 49.667-17.333 78-25 56.666-16.334 84.999-26.001 54.333-21.167 78-34.5 42.834-32.166 57.501-56.499 22-53.5 22-87.5c0-50.667-19-94.834-57-132.501s-98-56.5-180-56.5c-104.667 0-186 35.333-244 106z" glyph-name="S" horiz-adv-x="581" unicode="&#x53;"/><glyph d="M35 615v52h494v-52h-218v-615h-58v615h-218z" glyph-name="T" horiz-adv-x="564" unicode="&#x54;"/><glyph d="M83 256v411h58v-410c0-68 17.5-121.167 52.5-159.5s84.833-57.5 149.5-57.5c65.333 0 115.333 19 150 57s52 91.333 52 160v410h58v-411c0-84-22.167-149.667-66.5-197s-108.833-71-193.5-71c-84 0-148.333 23.833-193 71.5s-67 113.167-67 196.5z" glyph-name="U" horiz-adv-x="686" unicode="&#x55;"/><glyph d="M15 667h66l242-603 243 603h66l-273-667h-71z" glyph-name="V" horiz-adv-x="647" unicode="&#x56;"/><glyph d="M19 667h64l161-587 164 587h52l163-587 161 587h64l-190-667h-64l-160 573-160-573h-64z" glyph-name="W" horiz-adv-x="867" unicode="&#x57;"/><glyph d="M18 0l269 342-254 325h73l216-283 217 283h72l-253-324 268-343h-71l-233 301-232-301h-72z" glyph-name="X" horiz-adv-x="645" unicode="&#x58;"/><glyph d="M15 667h69l225-328 225 328h69l-265-382v-285h-58v285z" glyph-name="Y" horiz-adv-x="618" unicode="&#x59;"/><glyph d="M50 0v50l402 565h-402v52h474v-49l-402-566h409v-52h-481z" glyph-name="Z" horiz-adv-x="581" unicode="&#x5a;"/><glyph d="M37-190v868h174v-43h-130v-782h130v-43h-174z" glyph-name="bracketleft" horiz-adv-x="228" unicode="&#x5b;"/><glyph d="M0 687h45l237-707h-45z" glyph-name="backslash" horiz-adv-x="282" unicode="&#x5c;"/><glyph d="M17-147h130v782h-130v43h174v-868h-174v43z" glyph-name="bracketright" horiz-adv-x="228" unicode="&#x5d;"/><glyph d="M19 333l174 334h42l174-334h-48l-147 293-147-293h-48z" glyph-name="asciicircum" horiz-adv-x="428" unicode="&#x5e;"/><glyph d="M-3-40h570v-43h-570v43z" glyph-name="underscore" horiz-adv-x="564" unicode="&#x5f;"/><glyph d="M0 700h62l154-144h-44z" glyph-name="grave" horiz-adv-x="216" unicode="&#x60;"/><glyph d="M55 149c0 50 16.832 89.166 50.499 117.499s73.167 42.5 118.5 42.5c68 0 122.667-23 164-69v98c0 34.667-12.333 61.834-37 81.501s-55.667 29.5-93 29.5c-59.333 0-109.666-23.667-150.999-71l-29 36c50 54 112 81 186 81 52 0 94.333-13 127-39s49-64.667 49-116v-340h-52v57c-42-46-96.667-69-164-69-44.667 0-84 14.5-118 43.5s-51 68.167-51 117.5zM109.999 147.999c0-34.667 12.168-63.166 36.501-85.499s56.166-33.5 95.499-33.5c63.333 0 112 22 146 66v106c-34.667 44.667-83.334 67-146.001 67-39.333 0-71.166-11.333-95.499-34s-36.5-51.334-36.5-86.001z" glyph-name="a" horiz-adv-x="521" unicode="&#x61;"/><glyph d="M81 0l.00097656 667h52v-262c42.667 60 98.667 90 168 90 64.667 0 116.834-23.167 156.501-69.5s59.5-107.833 59.5-184.5-19.833-138-59.5-184-91.834-69-156.501-69c-34.667 0-66.834 8.33301-96.501 25s-53.5 38-71.5 64v-77h-52zM133.001 121c14.667-24 36.668-44.334 66.001-61.001s60.333-25 93-25c52.667 0 94 19.333 124 58s45 88 45 148c0 60.667-15 110.334-45 149.001s-71.333 58-124 58c-32 0-62.833-8.66699-92.5-26s-51.834-38-66.501-62v-239z" glyph-name="b" unicode="&#x62;"/><glyph d="M53 242c0 72 21.667 132.166 65 180.499s100 72.5 170 72.5c70.667 0 127.667-27.333 171-82l-36-32c-32.667 44.667-76.667 67-132 67s-99.5-19.5-132.5-58.5-49.5-88.167-49.5-147.5 16.5-108.666 49.5-147.999 77.167-59 132.5-59c54.667 0 98.667 22.667 132 68l36-32c-43.333-55.333-100.333-83-171-83-70 0-126.667 24.333-170 73s-65 109-65 181z" glyph-name="c" horiz-adv-x="494" unicode="&#x63;"/><glyph d="M53 241c0 76 20.002 137.333 60.002 184s92 70 156 70c69.333 0 125.333-30 168-90v262h53v-667h-53v77c-18-26-41.833-47.333-71.5-64s-61.834-25-96.501-25c-64.667 0-116.834 23-156.501 69s-59.5 107.333-59.5 184zM109.002 241c0-60 15.167-109.333 45.5-148s71.5-58 123.5-58c32.667 0 63.667 8.33301 93 25s51.333 37 66 61v239c-14.667 24.667-36.667 45.5-66 62.5s-60.333 25.5-93 25.5c-52 0-93.167-19.5-123.5-58.5s-45.5-88.5-45.5-148.5z" glyph-name="d" unicode="&#x64;"/><glyph d="M53 242c0 70.667 22.166 130.501 66.499 179.501s99.833 73.5 166.5 73.5c70.667 0 126.334-24.5 167.001-73.5s61-109.833 61-182.5v-14h-404c2.66699-54.667 21-100.334 55-137.001s78.667-55 134-55c64 0 116.667 22.333 158 67l27-34c-50-52-113-78-189-78-70.667 0-128.667 23.667-174 71s-68 108.333-68 183zM109.999 266.001h351c-.666992 46.667-16.167 89-46.5 127s-73.5 57-129.5 57c-52.667 0-94.5-18.833-125.5-56.5s-47.5-80.167-49.5-127.5z" glyph-name="e" horiz-adv-x="567" unicode="&#x65;"/><glyph d="M18 437v45.999h80v44c0 46.667 11.667 83.334 35 110.001s55.333 40 96 40c35.333 0 66-11.333 92-34l-25-36c-18 16.667-38.667 25-62 25-56 0-84-35-84-105v-44h98v-46h-98v-437h-52v437h-80z" glyph-name="f" horiz-adv-x="265" unicode="&#x66;"/><glyph d="M53 242c0 76 20 137.165 60 183.498s92 69.5 156 69.5c69.333 0 125.333-30 168-90v78h53v-478c0-69.333-20.167-120.166-60.5-152.499s-92.833-48.5-157.5-48.5c-42 0-77.333 5.16699-106 15.5s-56.667 29.5-84 57.5l30 40c20.667-24.667 43.334-42.167 68.001-52.5s55.334-15.5 92.001-15.5c48 0 87.5 12.833 118.5 38.5s46.5 64.5 46.5 116.5v76c-18-26-41.833-47.5-71.5-64.5s-61.834-25.5-96.501-25.5c-64.667 0-116.834 22.833-156.501 68.5s-59.5 106.834-59.5 183.501zM109 241.998c0-60 15.167-109.167 45.5-147.5s71.5-57.5 123.5-57.5c32.667 0 63.667 8.5 93 25.5s51.333 37.833 66 62.5v235c-14.667 24.667-36.667 45.5-66 62.5s-60.333 25.5-93 25.5c-52 0-93.167-19.333-123.5-58s-45.5-88-45.5-148z" glyph-name="g" horiz-adv-x="570" unicode="&#x67;"/><glyph d="M81 0v667h52v-257c19.333 22.667 45 42.5 77 59.5s64.333 25.5 97 25.5c101.333 0 152-51.667 152-155v-340h-52v329c0 44-10 74.833-30 92.5s-49 26.5-87 26.5c-30 0-59.667-8-89-24s-52-35.667-68-59v-365h-52z" glyph-name="h" horiz-adv-x="540" unicode="&#x68;"/><glyph d="M67 599c0 10.667 4 19.834 12 27.501s17.333 11.5 28 11.5c11.333 0 20.833-3.83301 28.5-11.5s11.5-16.834 11.5-27.501c0-11.333-3.83301-20.833-11.5-28.5s-17.167-11.5-28.5-11.5c-10.667 0-20 4-28 12s-12 17.333-12 28zM81 0v483h52v-483h-52z" glyph-name="i" horiz-adv-x="214" unicode="&#x69;"/><glyph d="M-97-159l23 41c20.667-22 44.334-33 71.001-33 25.333 0 45.666 7.33301 60.999 22s23 37 23 67v545h52v-545c0-44-11.333-77.333-34-100s-55-34-97-34c-37.333 0-70.333 12.333-99 37zM67 599c0 10.667 4 19.834 12 27.501s17.333 11.5 28 11.5c11.333 0 20.833-3.83301 28.5-11.5s11.5-16.834 11.5-27.501c0-11.333-3.83301-20.833-11.5-28.5s-17.167-11.5-28.5-11.5c-10.667 0-20 4-28 12s-12 17.333-12 28z" glyph-name="j" horiz-adv-x="214" unicode="&#x6a;"/><glyph d="M81 0v667h52v-460l285 276h69l-225-218 224-265h-70l-193 230-90-85v-145h-52z" glyph-name="k" horiz-adv-x="505" unicode="&#x6b;"/><glyph d="M81 0v667h52v-667h-52z" glyph-name="l" horiz-adv-x="214" unicode="&#x6c;"/><glyph d="M81 0l.00097656 483h52v-73c12 19.333 33.167 38.333 63.5 57s61.166 28 92.499 28c35.333 0 63.666-8.66699 84.999-26s35.333-39 42-65c14.667 24 37 45.167 67 63.5s61 27.5 93 27.5c88 0 132-49 132-147v-348h-52v338c0 73.333-32.333 110-97 110-25.333 0-51.166-8-77.499-24s-46.5-35.333-60.5-58v-366h-53v338c0 73.333-32.333 110-97 110-24.667 0-50-8.16699-76-24.5s-46.667-35.833-62-58.5v-365h-52z" glyph-name="m" horiz-adv-x="789" unicode="&#x6d;"/><glyph d="M81 0v483h52v-73c19.333 22.667 45 42.5 77 59.5s64.333 25.5 97 25.5c101.333 0 152-52.333 152-157v-338h-52v327c0 44-10 75.167-30 93.5s-49 27.5-87 27.5c-30 0-59.667-8-89-24s-52-35.667-68-59v-365h-52z" glyph-name="n" horiz-adv-x="540" unicode="&#x6e;"/><glyph d="M53 242c0 72 21.333 132.167 64 180.5s98.667 72.5 168 72.5c70 0 126.333-24.167 169-72.5s64-108.5 64-180.5-21.333-132.333-64-181-99-73-169-73c-69.333 0-125.333 24.333-168 73s-64 109-64 181zM109 242c0-56.667 15.833-105.332 47.5-145.999s74.5-61 128.5-61c54.667 0 97.834 20.167 129.501 60.5s47.5 89.166 47.5 146.499c0 56.667-15.833 105.167-47.5 145.5s-74.834 60.5-129.501 60.5c-54 0-96.833-20.167-128.5-60.5s-47.5-88.833-47.5-145.5z" glyph-name="o" unicode="&#x6f;"/><glyph d="M81-184l-.00097656 667h52v-76c18 26 41.833 47.167 71.5 63.5s61.834 24.5 96.501 24.5c64.667 0 116.834-22.833 156.501-68.5s59.5-107.167 59.5-184.5c0-76.667-19.833-138.167-59.5-184.5s-91.834-69.5-156.501-69.5c-69.333 0-125.333 30-168 90v-262h-52zM132.999 123c14.667-24 36.833-44.668 66.5-62.001s60.5-26 92.5-26c52.667 0 94 19.333 124 58s45 88.334 45 149.001c0 60-15 109.333-45 148s-71.333 58-124 58c-32.667 0-63.667-8.33301-93-25s-51.333-37-66-61v-239z" glyph-name="p" horiz-adv-x="567" unicode="&#x70;"/><glyph d="M50 242c0 76.667 19.667 138 59 184s91.333 69 156 69c35.333 0 67.833-8.16699 97.5-24.5s53.5-37.5 71.5-63.5v76h52v-667h-52v262c-42.667-60-99-90-169-90-64 0-115.833 23.167-155.5 69.5s-59.5 107.833-59.5 184.5zM106 242c0-60.667 14.999-110.333 44.999-149s71.333-58 124-58c32 0 62.833 8.66699 92.5 26s51.834 38 66.501 62v239c-14.667 24-36.667 44.333-66 61s-60.333 25-93 25c-52.667 0-94-19.333-124-58s-45-88-45-148z" glyph-name="q" horiz-adv-x="567" unicode="&#x71;"/><glyph d="M81 0l.00097656 483h52v-83c47.333 62 101.666 93 162.999 93v-57c-6 1.33301-14.667 2-26 2-24 0-50-9-78-27s-47.667-37.667-59-59v-352h-52z" glyph-name="r" horiz-adv-x="317" unicode="&#x72;"/><glyph d="M39 64l31 39.001c16.667-20.667 38.667-37.667 66-51s57.333-20 90-20c39.333 0 70.666 9.16699 93.999 27.5s35 41.833 35 70.5c0 24-10.5 43.167-31.5 57.5s-46.333 25-76 32-59.5 14.667-89.5 23-55.5 22.166-76.5 41.499-31.5 45-31.5 77c0 38 15.5 69.833 46.5 95.5s72.833 38.5 125.5 38.5c72.667 0 130.334-23.667 173.001-71l-29-37c-31.333 42.667-79.333 64-144 64-36.667 0-66-8.33301-88-25s-33-37.667-33-63c0-22 10.5-39.333 31.5-52s46.333-22.5 76-29.5 59.5-14.833 89.5-23.5 55.5-23.667 76.5-45 31.5-49 31.5-83c0-41.333-15.667-75.333-47-102s-76-40-134-40c-78 0-140 25.333-186 76z" glyph-name="s" horiz-adv-x="459" unicode="&#x73;"/><glyph d="M11 437l-.00097656 46h80v132h53v-132h98v-46h-98v-336c0-44 16.667-66 50-66 22 0 40 7.66699 54 23l20-40c-21.333-20-48.666-30-81.999-30-63.333 0-95 35-95 105v344h-80z" glyph-name="t" horiz-adv-x="275" unicode="&#x74;"/><glyph d="M81 143l.00097656 340.001h52v-328c0-44.667 10-75.834 30-93.501s49-26.5 87-26.5c30 0 59.5 7.66699 88.5 23s51.833 34.333 68.5 57v368h52v-483h-52v71c-22-24-48.333-43.833-79-59.5s-62.334-23.5-95.001-23.5c-50.667 0-88.667 12.5-114 37.5s-38 64.167-38 117.5z" glyph-name="u" horiz-adv-x="540" unicode="&#x75;"/><glyph d="M7 483h58l176-422 174 422h59l-204-483h-59z" glyph-name="v" horiz-adv-x="481" unicode="&#x76;"/><glyph d="M17 483h56l128-410 136 410h45l136-410 128 410h56l-157-483h-50l-135 413-136-413h-50z" glyph-name="w" horiz-adv-x="719" unicode="&#x77;"/><glyph d="M17 0l191 248-180 235h62l150-199 149 199h62l-180-235 191-248h-62l-160 213-161-213h-62z" glyph-name="x" horiz-adv-x="479" unicode="&#x78;"/><glyph d="M7 483h57.999l176-422 174 422h59l-250-589c-25.333-60-66.666-90-123.999-90-18.667 0-35.667 2.33301-51 7l9 48c12-5.33301 26-8 42-8 32.667 0 57 19.667 73 59l38 86z" glyph-name="y" horiz-adv-x="481" unicode="&#x79;"/><glyph d="M56 0v43l286 394h-286v46h353v-42l-289-395h293v-46h-357z" glyph-name="z" horiz-adv-x="469" unicode="&#x7a;"/><glyph d="M6 224v39.9961c16.667 0 29.5 6.83301 38.5 20.5s13.5 30.5 13.5 50.5v219c0 36 11.333 65.667 34 89s48.667 35 78 35h62v-43h-62c-18.667 0-34.5-7.66699-47.5-23s-19.5-34.666-19.5-57.999v-222c0-45.333-15.333-74.666-46-87.999 30.667-13.333 46-42.666 46-87.999v-222c0-23.333 6.5-42.666 19.5-57.999s28.833-23 47.5-23h62v-43h-62c-29.333 0-55.333 11.5-78 34.5s-34 52.5-34 88.5v220c0 20-4.5 36.833-13.5 50.5s-21.833 20.5-38.5 20.5z" glyph-name="braceleft" horiz-adv-x="249" unicode="&#x7b;"/><glyph d="M83-20v707h43v-707h-43z" glyph-name="bar" horiz-adv-x="208" unicode="&#x7c;"/><glyph d="M17-147l62 .00390625c18.667 0 34.5 7.66699 47.5 23s19.5 34.666 19.5 57.999v222c0 45.333 15.333 74.666 46 87.999-30.667 13.333-46 42.666-46 87.999v222c0 23.333-6.5 42.666-19.5 57.999s-28.833 23-47.5 23h-62v43h62c29.333 0 55.333-11.667 78-35s34-53 34-89v-219c0-20 4.5-36.833 13.5-50.5s21.833-20.5 38.5-20.5v-40c-16.667 0-29.5-6.83301-38.5-20.5s-13.5-30.5-13.5-50.5v-220c0-36-11.333-65.5-34-88.5s-48.667-34.5-78-34.5h-62v43z" glyph-name="braceright" horiz-adv-x="249" unicode="&#x7d;"/><glyph d="M27 433c7.33301 70.667 20.999 127.002 40.999 169.002s51 63 93 63c22.667 0 41.667-6.83301 57-20.5s26.833-30.167 34.5-49.5 14.834-38.5 21.501-57.5 15.167-35.333 25.5-49 23.166-20.5 38.499-20.5c48 0 78.333 66.333 91 199l43-5c-3.33301-33.333-7.66602-62.666-12.999-87.999s-13-49.833-23-73.5-23.167-41.667-39.5-54-35.833-18.5-58.5-18.5-41.667 6.66699-57 20-26.833 29.666-34.5 48.999-14.834 38.666-21.501 57.999-15.167 35.666-25.5 48.999-23.166 20-38.499 20c-48 0-78-65.667-90-197z" glyph-name="asciitilde" horiz-adv-x="499" unicode="&#x7e;"/><glyph glyph-name="uni00A0" horiz-adv-x="259" unicode="&#xa0;"/><glyph d="M66 449c0 11.333 4.16699 21.333 12.5 30s18.5 13 30.5 13 22.5-4.33301 31.5-13 13.5-18.667 13.5-30c0-12-4.5-22.333-13.5-31s-19.5-13-31.5-13-22.167 4.33301-30.5 13-12.5 19-12.5 31zM76-184l13 493h41l14-493h-68z" glyph-name="exclamdown" horiz-adv-x="219" unicode="&#xa1;"/><glyph d="M53 242c0 66 18.667 122.5 56 169.5s86.666 74.167 147.999 81.5v72h45v-70c63.333-3.33301 115.666-30.666 156.999-81.999l-36-32c-31.333 41.333-71.666 63.666-120.999 66.999v-413c48.667 2 89 24.667 121 68l36-32c-40.667-52-93-79.667-157-83v-88h-45v90c-61.333 7.33301-110.666 34.5-147.999 81.5s-56 103.833-56 170.5zM109 242c0-52.667 13.167-97.833 39.5-135.5s62.5-60.5 108.5-68.5v407c-46-8.66699-82.167-31.5-108.5-68.5s-39.5-81.833-39.5-134.5z" glyph-name="cent" horiz-adv-x="494" unicode="&#xa2;"/><glyph d="M18 267l.00195312 42h125c-2 2.66699-8.83301 10.167-20.5 22.5s-19.167 20.666-22.5 24.999l-18 24.5c-8.66699 12-14.667 22.333-18 31s-6.5 19.5-9.5 32.5-4.5 26.5-4.5 40.5c0 52.667 20.667 97.834 62 135.501s92.666 56.5 153.999 56.5c41.333 0 78.833-9.66699 112.5-29s58.834-45.666 75.501-78.999l-46-29c-10 23.333-27.667 43.666-53 60.999s-53.666 26-84.999 26c-44.667 0-82.334-12.833-113.001-38.5s-46-60.5-46-104.5c0-19.333 3.5-38.166 10.5-56.499s14.333-32.5 22-42.5 18.5-23.167 32.5-39.5 24-28.5 30-36.5h151v-42h-126c6.66699-18 10-35.667 10-53 0-54-27-100.667-81-140 16.667 6 34.667 9 54 9 22.667 0 49.167-7.33301 79.5-22s55.166-22 74.499-22c21.333 0 41.333 4.33301 60 13s32 18 40 28l27-47c-32.667-31.333-75.667-47-129-47-31.333 0-62.333 7.83301-93 23.5s-59.334 23.5-86.001 23.5c-28 0-67.333-13.333-118-40l-22 48c46 19.333 81.167 43.5 105.5 72.5s36.5 59.833 36.5 92.5c0 19.333-5.33301 39.666-16 60.999h-155z" glyph-name="sterling" horiz-adv-x="505" unicode="&#xa3;"/><glyph d="M29 565l34.002 33 80-80c40.667 34 90.667 51 150 51s109.666-17 150.999-51l79 79 34-33-80-80c32-42 48-92.333 48-151s-16-108.667-48-150l80-79-34-33-78 77c-40.667-34.667-91.334-52-152.001-52-58.667 0-109 17.667-151 53l-78-78-34 33 79 79c-31.333 42.667-47 92.667-47 150 0 58.667 16 108.667 48 150zM116.002 333c0-52 16-96.333 48-133s75-55 129-55c54.667 0 97.834 18.333 129.501 55s47.5 81 47.5 133c0 51.333-15.833 95.333-47.5 132s-74.834 55-129.501 55c-54 0-97-18.333-129-55s-48-80.667-48-132z" glyph-name="currency" horiz-adv-x="588" unicode="&#xa4;"/><glyph d="M15 667h69l225-328 225 328h69l-236-340h230v-42h-259v-118h259v-41h-259v-126h-58v126h-258v41h258v118h-258v42h229z" glyph-name="yen" horiz-adv-x="618" unicode="&#xa5;"/><glyph d="M83-20v316h43v-316h-43zM83 371v316h43v-316h-43z" glyph-name="brokenbar" horiz-adv-x="208" unicode="&#xa6;"/><glyph d="M39-4l30.999 35.998c38.667-48 90.334-72 155.001-72 38 0 69.167 9 93.5 27s36.5 42.333 36.5 73c0 24.667-10.5 44.334-31.5 59.001s-46.333 25.5-76 32.5-59.5 14.833-89.5 23.5-55.5 22.667-76.5 42-31.5 45-31.5 77c0 34 11.333 61.833 34 83.5s52.334 36.834 89.001 45.501c-40 12-70.5 27.333-91.5 46s-31.5 44-31.5 76c0 36.667 15.333 67.834 46 93.501s72.667 38.5 126 38.5c74.667 0 132-24 172-72l-28-33c-32.667 42.667-80.334 64-143.001 64-36 0-65.333-8.5-88-25.5s-34-39.167-34-66.5c0-22.667 10.5-40.334 31.5-53.001s46.333-22.334 76-29.001 59.5-14.167 89.5-22.5 55.5-23.166 76.5-44.499 31.5-49.333 31.5-84c0-58-32-100.667-96-128 64-24 96-64.333 96-121 0-44.667-16.5-79.667-49.5-105s-76.833-38-131.5-38c-75.333 0-137.333 25.667-186 77zM100.999 296.998c0-14.667 3.83105-27.3301 11.498-37.9971s18.834-19.334 33.501-26.001 29.834-12.334 45.501-17.001 34.167-9.66699 55.5-15c2 0 3.66699-.166992 5-.5s2.83301-.666016 4.5-.999023 3.16699-.833008 4.5-1.5c62 26.667 93 63 93 109 0 15.333-3.5 28.666-10.5 39.999s-17.333 20.833-31 28.5-26.5 13.667-38.5 18-27 8.83301-45 13.5c-47.333-12.667-80.5-27.834-99.5-45.501s-28.5-39.167-28.5-64.5z" glyph-name="section" horiz-adv-x="461" unicode="&#xa7;"/><glyph d="M-8 601c0 10 3.66699 18.667 11 26s16 11 26 11 18.667-3.66699 26-11 11-16 11-26-3.66699-18.667-11-26-16-11-26-11-18.667 3.66699-26 11-11 16-11 26zM196 601c0 10 3.66699 18.667 11 26s16 11 26 11 18.667-3.66699 26-11 11-16 11-26-3.66699-18.667-11-26-16-11-26-11-18.667 3.66699-26 11-11 16-11 26z" glyph-name="dieresis" horiz-adv-x="262" unicode="&#xa8;"/><glyph d="M44 334c0 95.333 33.667 176.664 101 243.997s148.666 101 243.999 101 176.666-33.667 243.999-101 101-148.666 101-243.999-33.667-176.666-101-243.999-148.666-101-243.999-101-176.666 33.833-243.999 101.5-101 148.834-101 243.501zM72 333.998c0-86.667 31-161.167 93-223.5s136.667-93.5 224-93.5 162 31 224 93 93 136.667 93 224-31 162-93 224-136.667 93-224 93-162-31-224-93-93-136.667-93-224zM182 335.998c0 60.667 20.166 111.333 60.499 152s89.5 61 147.5 61c60 0 108.333-21.667 145-65l-23-22c-12.667 17.333-30.167 31.166-52.5 41.499s-45.5 15.5-69.5 15.5c-47.333 0-88.333-17.167-123-51.5s-52-78.5-52-132.5c0-52.667 17.333-96.667 52-132s75.667-53 123-53c24 0 47.333 5.33301 70 16s40.334 24.667 53.001 42l22-22c-38-44-86.333-66-145-66-58 0-107.167 20.833-147.5 62.5s-60.5 92.834-60.5 153.501z" glyph-name="copyright" horiz-adv-x="778" unicode="&#xa9;"/><glyph d="M46 423c0 32 11.166 57.166 33.499 75.499s48.5 27.5 78.5 27.5c45.333 0 82-14.667 110-44v61c0 22-8.33301 39.167-25 51.5s-36.667 18.5-60 18.5c-41.333 0-74.666-16-99.999-48l-22 28c34 36.667 76.333 55 127 55 36 0 65.333-8.66699 88-26s34-43.666 34-78.999v-217h-42v37c-28-30-64.667-45-110-45-30 0-56.167 9.5-78.5 28.5s-33.5 44.5-33.5 76.5zM88.999 422.999c0-22 7.99902-40 23.999-54s36.333-21 61-21c40.667 0 72 14 94 42v65c-21.333 27.333-52.666 41-93.999 41-24.667 0-45-6.83301-61-20.5s-24-31.167-24-52.5z" glyph-name="ordfeminine" horiz-adv-x="375" unicode="&#xaa;"/><glyph d="M30 243l160 177h57l-160-177 160-180h-57zM155 243l160 177h57l-160-177 160-180h-57z" glyph-name="guillemotleft" horiz-adv-x="402" unicode="&#xab;"/><glyph d="M29 411v42h438v-237h-43v195h-395z" glyph-name="logicalnot" horiz-adv-x="499" unicode="&#xac;"/><glyph d="M30 218v48h240v-48h-240z" glyph-name="uni00AD" horiz-adv-x="300" unicode="&#xad;"/><glyph d="M35 465c0 58.667 20.667 108.667 62 150s91.333 62 150 62c59.333 0 109.5-20.5 150.5-61.5s61.5-91.167 61.5-150.5c0-58.667-20.667-108.667-62-150s-91.333-62-150-62-108.667 20.667-150 62-62 91.333-62 150zM62 465c0-50.667 18.167-94.167 54.5-130.5s79.833-54.5 130.5-54.5 94.167 18.167 130.5 54.5 54.5 79.833 54.5 130.5c0 51.333-18 95-54 131s-79.667 54-131 54-95-18-131-54-54-79.667-54-131zM167 343l.00097656 242.999h99c21.333 0 39.166-6.83301 53.499-20.5s21.5-31.5 21.5-53.5c0-23.333-7.5-41.166-22.5-53.499s-28.167-18.5-39.5-18.5l65-97h-38l-63 96h-46v-96h-30zM197.001 467.999h69c10.667 0 20.667 4.33301 30 13s14 19 14 31c0 12.667-4.5 23.5-13.5 32.5s-19.167 13.5-30.5 13.5h-69v-90z" glyph-name="registered" horiz-adv-x="494" unicode="&#xae;"/><glyph d="M0 577v37h363v-37h-363z" glyph-name="macron" horiz-adv-x="363" unicode="&#xaf;"/><glyph d="M25 560c0 32 11.167 59.5 33.5 82.5s49.5 34.5 81.5 34.5c32.667 0 60.334-11.5 83.001-34.5s34-50.5 34-82.5-11.333-59.167-34-81.5-50.334-33.5-83.001-33.5c-32 0-59.167 11.167-81.5 33.5s-33.5 49.5-33.5 81.5zM64 560c0-21.333 7.33301-39.333 22-54s32.667-22 54-22 39.666 7.5 54.999 22.5 23 32.833 23 53.5c0 21.333-7.66699 39.666-23 54.999s-33.666 23-54.999 23c-20.667 0-38.5-7.66699-53.5-23s-22.5-33.666-22.5-54.999z" glyph-name="degree" horiz-adv-x="282" unicode="&#xb0;"/><glyph d="M29 0v41h438v-41h-438zM29 323v41h197v212h45v-212h196v-41h-196v-218h-45v218h-197z" glyph-name="plusminus" horiz-adv-x="496" unicode="&#xb1;"/><glyph d="M52 421l-.00097656 35c81.333 58 140.833 106.167 178.5 144.5s56.5 74.833 56.5 109.5c0 26.667-9 46.5-27 59.5s-40 19.5-66 19.5c-50 0-87.667-17.333-113-52l-27 28c32 41.333 79 62 141 62 36.667 0 68.5-9.66699 95.5-29s40.5-48 40.5-86c0-40-18.167-79.667-54.5-119s-89.166-84-158.499-134h215v-38h-281z" glyph-name="uni00B2" horiz-adv-x="384" unicode="&#xb2;"/><glyph d="M46 479l25.9971 27.9961c28-36.667 67-55 117-55 31.333 0 55.833 6.83301 73.5 20.5s26.5 32.834 26.5 57.501c0 26.667-10.167 46.334-30.5 59.001s-46.833 19-79.5 19c-21.333 0-34-.333008-38-1v39c4.66699-.666992 17.334-1 38.001-1 30.667 0 55.667 5.83301 75 17.5s29 29.834 29 54.501c0 22.667-9.16699 40.334-27.5 53.001s-41.166 19-68.499 19c-43.333 0-80.333-16.667-111-50l-25 27c34.667 40.667 81 61 139 61 40 0 72.833-9.5 98.5-28.5s38.5-44.833 38.5-77.5c0-27.333-9.16699-48.833-27.5-64.5s-38.833-25.167-61.5-28.5c22.667-2 44.334-11.5 65.001-28.5s31-40.5 31-70.5c0-34-13-61.667-39-83s-61-32-105-32c-32.667 0-61.667 6-87 18s-44.333 27.667-57 47z" glyph-name="uni00B3" horiz-adv-x="384" unicode="&#xb3;"/><glyph d="M0 556l154 144h62l-172-144h-44z" glyph-name="acute" horiz-adv-x="216" unicode="&#xb4;"/><glyph d="M81-184v667h52v-328c0-81.333 39.333-122 118-122 29.333 0 58.5 8 87.5 24s51.833 35.333 68.5 58v368h52v-384c0-42.667 16.333-64 49-64 8 0 14.667.666992 20 2l4-46c-8-2-18.333-3-31-3-54 0-85 28.667-93 86-19.333-24.667-43.5-45.167-72.5-61.5s-58.5-24.5-88.5-24.5c-56 0-94 18.667-114 56v-228h-52z" glyph-name="uni00B5" horiz-adv-x="554" unicode="&#xb5;"/><glyph d="M27 495c0 47.333 16.833 87.833 50.5 121.5s74.167 50.5 121.5 50.5h169v-767h-38v730h-93v-730h-38v423c-47.333 0-87.833 16.833-121.5 50.5s-50.5 74.167-50.5 121.5z" glyph-name="paragraph" horiz-adv-x="449" unicode="&#xb6;"/><glyph d="M65 245c0 11.333 4.33301 21.333 13 30s19 13 31 13 22.5-4.33301 31.5-13 13.5-18.667 13.5-30c0-12-4.5-22.333-13.5-31s-19.5-13-31.5-13-22.333 4.33301-31 13-13 19-13 31z" glyph-name="periodcentered" horiz-adv-x="219" unicode="&#xb7;"/><glyph d="M0-160l16.001 31.999c23.333-18.667 50-28 80-28 18.667 0 34.167 4 46.5 12s18.5 19 18.5 33c0 26-13.667 39-41 39-16.667 0-30-5.66699-40-17l-28 16 31 84h38l-26-68c10 8 22.333 12 37 12 19.333 0 35.166-6 47.499-18s18.5-28 18.5-48c0-23.333-9.66699-42.166-29-56.499s-43.333-21.5-72-21.5c-42 0-74.333 9.66699-97 29z" glyph-name="cedilla" horiz-adv-x="198" unicode="&#xb8;"/><glyph d="M17 722l97 99h40v-400h-46v341l-64-69z" glyph-name="uni00B9" horiz-adv-x="214" unicode="&#xb9;"/><glyph d="M44 483c0 46.667 14.667 85.832 44 117.499s67.333 47.5 114 47.5c47.333 0 85.666-15.667 114.999-47s44-70.666 44-117.999c0-46.667-14.667-85.834-44-117.501s-67.666-47.5-114.999-47.5c-46.667 0-84.667 15.833-114 47.5s-44 70.834-44 117.501zM89 482.998c0-36.667 10.167-67.167 30.5-91.5s47.833-36.5 82.5-36.5c35.333 0 63.333 12.167 84 36.5s31 54.833 31 91.5c0 36-10.333 66.167-31 90.5s-48.667 36.5-84 36.5c-34.667 0-62.167-12-82.5-36s-30.5-54.333-30.5-91z" glyph-name="ordmasculine" horiz-adv-x="405" unicode="&#xba;"/><glyph d="M30 63l160 180-160 177h57l160-177-160-180h-57zM155 63l160 180-160 177h57l160-177-160-180h-57z" glyph-name="guillemotright" horiz-adv-x="402" unicode="&#xbb;"/><glyph d="M17 568l97 99h40v-400h-46v341l-64-69zM96 0l426 667h46l-427-667h-45zM401 107v35l179 258h61v-256h60v-37h-60v-107h-44v107h-196zM447 144h150v215z" glyph-name="onequarter" horiz-adv-x="742" unicode="&#xbc;"/><glyph d="M17 568l97 99h40v-400h-46v341l-64-69zM96 0l426 667h46l-427-667h-45zM449 0l-.00097656 35c81.333 58 140.833 106.167 178.5 144.5s56.5 74.833 56.5 109.5c0 26.667-9 46.5-27 59.5s-40 19.5-66 19.5c-50 0-87.667-17.333-113-52l-27 28c32 41.333 79 62 141 62 36.667 0 68.5-9.66699 95.5-29s40.5-48 40.5-86c0-40-18.167-79.667-54.5-119s-89.166-84-158.499-134h215v-38h-281z" glyph-name="onehalf" horiz-adv-x="781" unicode="&#xbd;"/><glyph d="M46 325l25.9971 27.9961c28-36.667 67-55 117-55 31.333 0 55.833 6.83301 73.5 20.5s26.5 32.834 26.5 57.501c0 26.667-10.167 46.334-30.5 59.001s-46.833 19-79.5 19c-21.333 0-34-.333008-38-1v39c4.66699-.666992 17.334-1 38.001-1 30.667 0 55.667 5.83301 75 17.5s29 29.834 29 54.501c0 22.667-9.16699 40.334-27.5 53.001s-41.166 19-68.499 19c-43.333 0-80.333-16.667-111-50l-25 27c34.667 40.667 81 61 139 61 40 0 72.833-9.5 98.5-28.5s38.5-44.833 38.5-77.5c0-27.333-9.16699-48.833-27.5-64.5s-38.833-25.167-61.5-28.5c22.667-2 44.334-11.5 65.001-28.5s31-40.5 31-70.5c0-34-13-61.667-39-83s-61-32-105-32c-32.667 0-61.667 6-87 18s-44.333 27.667-57 47zM212.997-.00390625l426 667h46l-427-667h-45zM517.997 106.996v35l179 258h61v-256h60v-37h-60v-107h-44v107h-196zM563.997 143.996h150v215z" glyph-name="threequarters" horiz-adv-x="859" unicode="&#xbe;"/><glyph d="M36-43c0 28 6.99805 53.335 20.998 76.002s31 41.334 51 56.001l60 42c20 13.333 37 28.166 51 44.499s21 34.166 21 53.499-10 36-30 50l40 25c28-22.667 42-49 42-79 0-24-6.66699-45.667-20-65s-29.666-35.666-48.999-48.999l-58-39.5c-19.333-13-35.666-28.667-48.999-47s-20-38.833-20-61.5c0-30.667 12-56.334 36-77.001s57-31 99-31c40.667 0 74.5 7.66699 101.5 23s51.5 37.666 73.5 66.999l36-37c-51.333-70-123-105-215-105-58 0-104.333 14.833-139 44.5s-52 66.167-52 109.5zM196.998 448.002c0 12 4.33301 22.333 13 31s19 13 31 13 22.5-4.33301 31.5-13 13.5-19 13.5-31c0-11.333-4.5-21.333-13.5-30s-19.5-13-31.5-13-22.333 4.33301-31 13-13 18.667-13 30z" glyph-name="questiondown" horiz-adv-x="393" unicode="&#xbf;"/><glyph d="M15 0l273 667h71l273-667h-66l-66 164h-353l-66-164h-66zM162 867h62l154-144h-44zM166 216h315l-158 390z" glyph-name="Agrave" horiz-adv-x="647" unicode="&#xc0;"/><glyph d="M15 0l273 667h71l273-667h-66l-66 164h-353l-66-164h-66zM166 216h315l-158 390zM270 723l154 144h62l-172-144h-44z" glyph-name="Aacute" horiz-adv-x="647" unicode="&#xc1;"/><glyph d="M15 0l273 667h71l273-667h-66l-66 164h-353l-66-164h-66zM166 216h315l-158 390zM200 723l97 144h54l99-144h-40l-86 113-85-113h-39z" glyph-name="Acircumflex" horiz-adv-x="647" unicode="&#xc2;"/><glyph d="M15 0l273 667h71l273-667h-66l-66 164h-353l-66-164h-66zM166 216h315l-158 390zM170 727c0 38.667 8.16699 70.6689 24.5 96.002s39.166 38 68.499 38c16.667 0 31.167-5.33301 43.5-16s21.333-22.334 27-35.001 13.334-24.334 23.001-35.001 20.167-16 31.5-16c16 0 28.833 8 38.5 24s14.5 40 14.5 72h36c0-39.333-8-71.5-24-96.5s-38.667-37.5-68-37.5c-16.667 0-31.167 5.33301-43.5 16s-21.5 22.5-27.5 35.5-13.833 24.833-23.5 35.5-20.167 16-31.5 16c-16 0-29-8-39-24s-15-40.333-15-73h-35z" glyph-name="Atilde" horiz-adv-x="647" unicode="&#xc3;"/><glyph d="M15 0l273 667h71l273-667h-66l-66 164h-353l-66-164h-66zM166 216h315l-158 390zM185 768c0 10 3.66699 18.667 11 26s16 11 26 11 18.667-3.66699 26-11 11-16 11-26-3.66699-18.667-11-26-16-11-26-11-18.667 3.66699-26 11-11 16-11 26zM389 768c0 10 3.66699 18.667 11 26s16 11 26 11 18.667-3.66699 26-11 11-16 11-26-3.66699-18.667-11-26-16-11-26-11-18.667 3.66699-26 11-11 16-11 26z" glyph-name="Adieresis" horiz-adv-x="647" unicode="&#xc4;"/><glyph d="M15 0l273 667h71l273-667h-66l-66 164h-353l-66-164h-66zM166 216h315l-158 390zM229 787c0 26 9.33301 48.5 28 67.5s41.334 28.5 68.001 28.5c26 0 48.167-9.5 66.5-28.5s27.5-41.5 27.5-67.5c0-26.667-9.16699-49.334-27.5-68.001s-40.5-28-66.5-28c-26.667 0-49.334 9.33301-68.001 28s-28 41.334-28 68.001zM261 787c0-17.333 6.33301-32.333 19-45s27.667-19 45-19 32.166 6.33301 44.499 19 18.5 27.667 18.5 45-6.16699 32.333-18.5 45-27.166 19-44.499 19-32.333-6.33301-45-19-19-27.667-19-45z" glyph-name="Aring" horiz-adv-x="647" unicode="&#xc5;"/><glyph d="M14 0l421 667h444v-52h-365v-247h358v-52h-358v-264h365v-52h-423v164h-274l-102-164h-66zM211 216h245v390z" glyph-name="AE" horiz-adv-x="939" unicode="&#xc6;"/><glyph d="M58 333c0 101.333 32.335 184.168 97.002 248.501s145 96.5 241 96.5c98.667 0 179.667-39.333 243-118l-48-31c-21.333 29.333-49.333 52.833-84 70.5s-71.667 26.5-111 26.5c-79.333 0-145.5-27.333-198.5-82s-79.5-125-79.5-211c0-85.333 26.5-155.5 79.5-210.5s119.167-82.5 198.5-82.5c39.333 0 76.333 8.83301 111 26.5s62.667 41.167 84 70.5l48-30c-62.667-77.333-141.334-117-236.001-119l-15-41c10 8 22.333 12 37 12 19.333 0 35.166-6 47.499-18s18.5-28 18.5-48c0-23.333-9.66699-42.166-29-56.499s-43.333-21.5-72-21.5c-42 0-74.333 9.66699-97 29l16 32c23.333-18.667 50-28 80-28 18.667 0 34.167 4 46.5 12s18.5 19 18.5 33c0 26-13.667 39-41 39-16.667 0-30-5.66699-40-17l-28 16 21 58c-88.667 7.33301-162.167 42.666-220.5 105.999s-87.5 142.666-87.5 237.999z" glyph-name="Ccedilla" horiz-adv-x="672" unicode="&#xc7;"/><glyph d="M83 0v667h423v-52h-366v-247h359v-52h-359v-264h366v-52h-423zM133 867h62l154-144h-44z" glyph-name="Egrave" horiz-adv-x="564" unicode="&#xc8;"/><glyph d="M83 0v667h423v-52h-366v-247h359v-52h-359v-264h366v-52h-423zM240 723l154 144h62l-172-144h-44z" glyph-name="Eacute" horiz-adv-x="564" unicode="&#xc9;"/><glyph d="M83 0v667h423v-52h-366v-247h359v-52h-359v-264h366v-52h-423zM168 723l97 144h54l99-144h-40l-86 113-85-113h-39z" glyph-name="Ecircumflex" horiz-adv-x="564" unicode="&#xca;"/><glyph d="M83 0v667h423v-52h-366v-247h359v-52h-359v-264h366v-52h-423zM154 768c0 10 3.66699 18.667 11 26s16 11 26 11 18.667-3.66699 26-11 11-16 11-26-3.66699-18.667-11-26-16-11-26-11-18.667 3.66699-26 11-11 16-11 26zM358 768c0 10 3.66699 18.667 11 26s16 11 26 11 18.667-3.66699 26-11 11-16 11-26-3.66699-18.667-11-26-16-11-26-11-18.667 3.66699-26 11-11 16-11 26z" glyph-name="Edieresis" horiz-adv-x="564" unicode="&#xcb;"/><glyph d="M-50 867h62l154-144h-44zM83 0v667h57v-667h-57z" glyph-name="Igrave" horiz-adv-x="223" unicode="&#xcc;"/><glyph d="M58 723l154 144h62l-172-144h-44zM83 0v667h57v-667h-57z" glyph-name="Iacute" horiz-adv-x="223" unicode="&#xcd;"/><glyph d="M-12 723l97 144h54l99-144h-40l-86 113-85-113h-39zM83 0v667h57v-667h-57z" glyph-name="Icircumflex" horiz-adv-x="223" unicode="&#xce;"/><glyph d="M-27 768c0 10 3.66699 18.667 11 26s16 11 26 11 18.667-3.66699 26-11 11-16 11-26-3.66699-18.667-11-26-16-11-26-11-18.667 3.66699-26 11-11 16-11 26zM83 0v667h57v-667h-57zM177 768c0 10 3.66699 18.667 11 26s16 11 26 11 18.667-3.66699 26-11 11-16 11-26-3.66699-18.667-11-26-16-11-26-11-18.667 3.66699-26 11-11 16-11 26z" glyph-name="Idieresis" horiz-adv-x="223" unicode="&#xcf;"/><glyph d="M11 309v44.001h102v314h213c100.667 0 182-32.167 244-96.5s93-143.5 93-237.5c0-94.667-30.833-173.834-92.5-237.501s-143.167-95.5-244.5-95.5h-213v309h-102zM170 52.001l156-.00097656c85.333 0 152.833 26.667 202.5 80s74.5 120.333 74.5 201-24.667 147.834-74 201.501-117 80.5-203 80.5h-156v-262h179v-44h-179v-257z" glyph-name="Eth" horiz-adv-x="721" unicode="&#xd0;"/><glyph d="M83 0v667h58l418-565v565h57v-667h-56l-420 573v-573h-57zM195 727c0 38.667 8.16699 70.6689 24.5 96.002s39.166 38 68.499 38c16.667 0 31.167-5.33301 43.5-16s21.333-22.334 27-35.001 13.334-24.334 23.001-35.001 20.167-16 31.5-16c16 0 28.833 8 38.5 24s14.5 40 14.5 72h36c0-39.333-8-71.5-24-96.5s-38.667-37.5-68-37.5c-16.667 0-31.167 5.33301-43.5 16s-21.5 22.5-27.5 35.5-13.833 24.833-23.5 35.5-20.167 16-31.5 16c-16 0-29-8-39-24s-15-40.333-15-73h-35z" glyph-name="Ntilde" horiz-adv-x="699" unicode="&#xd1;"/><glyph d="M58 333c0 99.333 29.833 181.666 89.5 246.999s137.834 98 234.501 98c96 0 174-32.667 234-98s90-147.666 90-246.999-30-181.666-90-246.999-138-98-234-98c-96.667 0-174.834 32.667-234.501 98s-89.5 147.666-89.5 246.999zM118 333c0-85.333 23.998-155.5 71.998-210.5s112-82.5 192-82.5c78.667 0 142.334 27.5 191.001 82.5s73 125.167 73 210.5c0 86-24.167 156.333-72.5 211s-112.166 82-191.499 82c-80 0-144-27.333-192-82s-72-125-72-211zM220.998 867h62l154-144h-44z" glyph-name="Ograve" horiz-adv-x="764" unicode="&#xd2;"/><glyph d="M58 333c0 99.333 29.833 181.666 89.5 246.999s137.834 98 234.501 98c96 0 174-32.667 234-98s90-147.666 90-246.999-30-181.666-90-246.999-138-98-234-98c-96.667 0-174.834 32.667-234.501 98s-89.5 147.666-89.5 246.999zM118 333c0-85.333 23.998-155.5 71.998-210.5s112-82.5 192-82.5c78.667 0 142.334 27.5 191.001 82.5s73 125.167 73 210.5c0 86-24.167 156.333-72.5 211s-112.166 82-191.499 82c-80 0-144-27.333-192-82s-72-125-72-211zM327.998 723l154 144h62l-172-144h-44z" glyph-name="Oacute" horiz-adv-x="764" unicode="&#xd3;"/><glyph d="M58 333c0 99.333 29.833 181.666 89.5 246.999s137.834 98 234.501 98c96 0 174-32.667 234-98s90-147.666 90-246.999-30-181.666-90-246.999-138-98-234-98c-96.667 0-174.834 32.667-234.501 98s-89.5 147.666-89.5 246.999zM118 333c0-85.333 23.998-155.5 71.998-210.5s112-82.5 192-82.5c78.667 0 142.334 27.5 191.001 82.5s73 125.167 73 210.5c0 86-24.167 156.333-72.5 211s-112.166 82-191.499 82c-80 0-144-27.333-192-82s-72-125-72-211zM258.998 723l97 144h54l99-144h-40l-86 113-85-113h-39z" glyph-name="Ocircumflex" horiz-adv-x="764" unicode="&#xd4;"/><glyph d="M58 333c0 99.333 29.833 181.666 89.5 246.999s137.834 98 234.501 98c96 0 174-32.667 234-98s90-147.666 90-246.999-30-181.666-90-246.999-138-98-234-98c-96.667 0-174.834 32.667-234.501 98s-89.5 147.666-89.5 246.999zM118 333c0-85.333 23.998-155.5 71.998-210.5s112-82.5 192-82.5c78.667 0 142.334 27.5 191.001 82.5s73 125.167 73 210.5c0 86-24.167 156.333-72.5 211s-112.166 82-191.499 82c-80 0-144-27.333-192-82s-72-125-72-211zM228.998 727c0 38.667 8.16699 70.6689 24.5 96.002s39.166 38 68.499 38c16.667 0 31.167-5.33301 43.5-16s21.333-22.334 27-35.001 13.334-24.334 23.001-35.001 20.167-16 31.5-16c16 0 28.833 8 38.5 24s14.5 40 14.5 72h36c0-39.333-8-71.5-24-96.5s-38.667-37.5-68-37.5c-16.667 0-31.167 5.33301-43.5 16s-21.5 22.5-27.5 35.5-13.833 24.833-23.5 35.5-20.167 16-31.5 16c-16 0-29-8-39-24s-15-40.333-15-73h-35z" glyph-name="Otilde" horiz-adv-x="764" unicode="&#xd5;"/><glyph d="M58 333c0 99.333 29.833 181.666 89.5 246.999s137.834 98 234.501 98c96 0 174-32.667 234-98s90-147.666 90-246.999-30-181.666-90-246.999-138-98-234-98c-96.667 0-174.834 32.667-234.501 98s-89.5 147.666-89.5 246.999zM118 333c0-85.333 23.998-155.5 71.998-210.5s112-82.5 192-82.5c78.667 0 142.334 27.5 191.001 82.5s73 125.167 73 210.5c0 86-24.167 156.333-72.5 211s-112.166 82-191.499 82c-80 0-144-27.333-192-82s-72-125-72-211zM241.998 768c0 10 3.66699 18.667 11 26s16 11 26 11 18.667-3.66699 26-11 11-16 11-26-3.66699-18.667-11-26-16-11-26-11-18.667 3.66699-26 11-11 16-11 26zM445.998 768c0 10 3.66699 18.667 11 26s16 11 26 11 18.667-3.66699 26-11 11-16 11-26-3.66699-18.667-11-26-16-11-26-11-18.667 3.66699-26 11-11 16-11 26z" glyph-name="Odieresis" horiz-adv-x="764" unicode="&#xd6;"/><glyph d="M67 182l152 152-152 152 30 29 151-152 152 152 29-29-152-152 152-152-29-29-152 152-151-152z" glyph-name="multiply" horiz-adv-x="496" unicode="&#xd7;"/><glyph d="M58 333c0 99.333 29.832 181.664 89.499 246.997s137.834 98 234.501 98c59.333 0 114-14.333 164-43l20 32h52l-36-56c39.333-31.333 69.833-71.166 91.5-119.499s32.5-101.166 32.5-158.499c0-99.333-30-181.666-90-246.999s-138-98-234-98c-62 0-118 14.667-168 44l-20-32h-51l36 56c-38.667 31.333-68.5 71-89.5 119s-31.5 100.667-31.5 158zM117.999 332.998c0-98 30.333-174.667 91-230l308 487c-39.333 24-84.333 36-135 36-80 0-144-27.333-192-82s-72-125-72-211zM242.999 76.998c40-24.667 86.332-37 138.999-37 78.667 0 142.334 27.5 191.001 82.5s73 125.167 73 210.5c0 99.333-31 176.333-93 231z" glyph-name="Oslash" horiz-adv-x="764" unicode="&#xd8;"/><glyph d="M83 256v411h58v-410c0-68 17.5-121.167 52.5-159.5s84.833-57.5 149.5-57.5c65.333 0 115.333 19 150 57s52 91.333 52 160v410h58v-411c0-84-22.167-149.667-66.5-197s-108.833-71-193.5-71c-84 0-148.333 23.833-193 71.5s-67 113.167-67 196.5zM182 867h62l154-144h-44z" glyph-name="Ugrave" horiz-adv-x="686" unicode="&#xd9;"/><glyph d="M83 256v411h58v-410c0-68 17.5-121.167 52.5-159.5s84.833-57.5 149.5-57.5c65.333 0 115.333 19 150 57s52 91.333 52 160v410h58v-411c0-84-22.167-149.667-66.5-197s-108.833-71-193.5-71c-84 0-148.333 23.833-193 71.5s-67 113.167-67 196.5zM289 723l154 144h62l-172-144h-44z" glyph-name="Uacute" horiz-adv-x="686" unicode="&#xda;"/><glyph d="M83 256v411h58v-410c0-68 17.5-121.167 52.5-159.5s84.833-57.5 149.5-57.5c65.333 0 115.333 19 150 57s52 91.333 52 160v410h58v-411c0-84-22.167-149.667-66.5-197s-108.833-71-193.5-71c-84 0-148.333 23.833-193 71.5s-67 113.167-67 196.5zM221 723l97 144h54l99-144h-40l-86 113-85-113h-39z" glyph-name="Ucircumflex" horiz-adv-x="686" unicode="&#xdb;"/><glyph d="M83 256v411h58v-410c0-68 17.5-121.167 52.5-159.5s84.833-57.5 149.5-57.5c65.333 0 115.333 19 150 57s52 91.333 52 160v410h58v-411c0-84-22.167-149.667-66.5-197s-108.833-71-193.5-71c-84 0-148.333 23.833-193 71.5s-67 113.167-67 196.5zM205 768c0 10 3.66699 18.667 11 26s16 11 26 11 18.667-3.66699 26-11 11-16 11-26-3.66699-18.667-11-26-16-11-26-11-18.667 3.66699-26 11-11 16-11 26zM409 768c0 10 3.66699 18.667 11 26s16 11 26 11 18.667-3.66699 26-11 11-16 11-26-3.66699-18.667-11-26-16-11-26-11-18.667 3.66699-26 11-11 16-11 26z" glyph-name="Udieresis" horiz-adv-x="686" unicode="&#xdc;"/><glyph d="M15 667h69l225-328 225 328h69l-265-382v-285h-58v285zM255 723l154 144h62l-172-144h-44z" glyph-name="Yacute" horiz-adv-x="618" unicode="&#xdd;"/><glyph d="M83 0l-.00097656 667h57v-124h193c62 0 111-19 147-57s54-84.333 54-139-18.167-100.667-54.5-138-85.166-56-146.499-56h-193v-153h-57zM139.999 205h186.999c44 0 79.5 13.167 106.5 39.5s40.5 60.5 40.5 102.5-13.667 76.5-41 103.5-62.666 40.5-105.999 40.5h-187v-286z" glyph-name="Thorn" unicode="&#xde;"/><glyph d="M81 0l.00292969 509.001c0 48 16 88 48 120s74 48 126 48c44 0 81.833-10.833 113.5-32.5s47.5-50.167 47.5-85.5c0-20-5.5-37.667-16.5-53s-24.167-28-39.5-38l-46-29c-15.333-9.33301-28.5-20.5-39.5-33.5s-16.5-27.833-16.5-44.5c0-22 10.333-39.167 31-51.5s45.667-21.833 75-28.5 58.5-14.167 87.5-22.5 53.833-23.166 74.5-44.499 31-49 31-83c0-40-15.333-73.833-46-101.5s-75.334-41.5-134.001-41.5c-43.333 0-78.5 6.66699-105.5 20s-52.167 32.333-75.5 57l31 38c36-47.333 86-71 150-71 41.333 0 73.166 9.5 95.499 28.5s33.5 42.167 33.5 69.5c0 24-10.333 43.167-31 57.5s-45.667 25.166-75 32.499-58.5 15.166-87.5 23.499-53.833 22.166-74.5 41.499-31 45-31 77c0 24.667 8.16699 46.667 24.5 66s34.166 34 53.499 44 37.166 22.333 53.499 37 24.5 30 24.5 46c0 22.667-11.167 40.834-33.5 54.501s-47.166 20.5-74.499 20.5c-34 0-62.833-11-86.5-33s-35.5-51.333-35.5-88v-509h-52z" glyph-name="germandbls" horiz-adv-x="578" unicode="&#xdf;"/><glyph d="M55 149c0 50 16.832 89.166 50.499 117.499s73.167 42.5 118.5 42.5c68 0 122.667-23 164-69v98c0 34.667-12.333 61.834-37 81.501s-55.667 29.5-93 29.5c-59.333 0-109.666-23.667-150.999-71l-29 36c50 54 112 81 186 81 52 0 94.333-13 127-39s49-64.667 49-116v-340h-52v57c-42-46-96.667-69-164-69-44.667 0-84 14.5-118 43.5s-51 68.167-51 117.5zM101.999 699.999h62l154-144h-44zM109.999 147.999c0-34.667 12.168-63.166 36.501-85.499s56.166-33.5 95.499-33.5c63.333 0 112 22 146 66v106c-34.667 44.667-83.334 67-146.001 67-39.333 0-71.166-11.333-95.499-34s-36.5-51.334-36.5-86.001z" glyph-name="agrave" horiz-adv-x="521" unicode="&#xe0;"/><glyph d="M55 149c0 50 16.832 89.166 50.499 117.499s73.167 42.5 118.5 42.5c68 0 122.667-23 164-69v98c0 34.667-12.333 61.834-37 81.501s-55.667 29.5-93 29.5c-59.333 0-109.666-23.667-150.999-71l-29 36c50 54 112 81 186 81 52 0 94.333-13 127-39s49-64.667 49-116v-340h-52v57c-42-46-96.667-69-164-69-44.667 0-84 14.5-118 43.5s-51 68.167-51 117.5zM109.999 147.999c0-34.667 12.168-63.166 36.501-85.499s56.166-33.5 95.499-33.5c63.333 0 112 22 146 66v106c-34.667 44.667-83.334 67-146.001 67-39.333 0-71.166-11.333-95.499-34s-36.5-51.334-36.5-86.001zM210 556l154 144h62l-172-144h-44z" glyph-name="aacute" horiz-adv-x="521" unicode="&#xe1;"/><glyph d="M55 149c0 50 16.832 89.166 50.499 117.499s73.167 42.5 118.5 42.5c68 0 122.667-23 164-69v98c0 34.667-12.333 61.834-37 81.501s-55.667 29.5-93 29.5c-59.333 0-109.666-23.667-150.999-71l-29 36c50 54 112 81 186 81 52 0 94.333-13 127-39s49-64.667 49-116v-340h-52v57c-42-46-96.667-69-164-69-44.667 0-84 14.5-118 43.5s-51 68.167-51 117.5zM109.999 147.999c0-34.667 12.168-63.166 36.501-85.499s56.166-33.5 95.499-33.5c63.333 0 112 22 146 66v106c-34.667 44.667-83.334 67-146.001 67-39.333 0-71.166-11.333-95.499-34s-36.5-51.334-36.5-86.001zM140 556l97 144h54l99-144h-40l-86 113-85-113h-39z" glyph-name="acircumflex" horiz-adv-x="521" unicode="&#xe2;"/><glyph d="M55 149c0 50 16.832 89.166 50.499 117.499s73.167 42.5 118.5 42.5c68 0 122.667-23 164-69v98c0 34.667-12.333 61.834-37 81.501s-55.667 29.5-93 29.5c-59.333 0-109.666-23.667-150.999-71l-29 36c50 54 112 81 186 81 52 0 94.333-13 127-39s49-64.667 49-116v-340h-52v57c-42-46-96.667-69-164-69-44.667 0-84 14.5-118 43.5s-51 68.167-51 117.5zM109.999 147.999c0-34.667 12.168-63.166 36.501-85.499s56.166-33.5 95.499-33.5c63.333 0 112 22 146 66v106c-34.667 44.667-83.334 67-146.001 67-39.333 0-71.166-11.333-95.499-34s-36.5-51.334-36.5-86.001zM110 560c0 38.667 8.16699 70.6689 24.5 96.002s39.166 38 68.499 38c16.667 0 31.167-5.33301 43.5-16s21.333-22.334 27-35.001 13.334-24.334 23.001-35.001 20.167-16 31.5-16c16 0 28.833 8 38.5 24s14.5 40 14.5 72h36c0-39.333-8-71.5-24-96.5s-38.667-37.5-68-37.5c-16.667 0-31.167 5.33301-43.5 16s-21.5 22.5-27.5 35.5-13.833 24.833-23.5 35.5-20.167 16-31.5 16c-16 0-29-8-39-24s-15-40.333-15-73h-35z" glyph-name="atilde" horiz-adv-x="521" unicode="&#xe3;"/><glyph d="M55 149c0 50 16.832 89.166 50.499 117.499s73.167 42.5 118.5 42.5c68 0 122.667-23 164-69v98c0 34.667-12.333 61.834-37 81.501s-55.667 29.5-93 29.5c-59.333 0-109.666-23.667-150.999-71l-29 36c50 54 112 81 186 81 52 0 94.333-13 127-39s49-64.667 49-116v-340h-52v57c-42-46-96.667-69-164-69-44.667 0-84 14.5-118 43.5s-51 68.167-51 117.5zM109.999 147.999c0-34.667 12.168-63.166 36.501-85.499s56.166-33.5 95.499-33.5c63.333 0 112 22 146 66v106c-34.667 44.667-83.334 67-146.001 67-39.333 0-71.166-11.333-95.499-34s-36.5-51.334-36.5-86.001zM123 601c0 10 3.66699 18.667 11 26s16 11 26 11 18.667-3.66699 26-11 11-16 11-26-3.66699-18.667-11-26-16-11-26-11-18.667 3.66699-26 11-11 16-11 26zM327 601c0 10 3.66699 18.667 11 26s16 11 26 11 18.667-3.66699 26-11 11-16 11-26-3.66699-18.667-11-26-16-11-26-11-18.667 3.66699-26 11-11 16-11 26z" glyph-name="adieresis" horiz-adv-x="521" unicode="&#xe4;"/><glyph d="M55 149c0 50 16.832 89.166 50.499 117.499s73.167 42.5 118.5 42.5c68 0 122.667-23 164-69v98c0 34.667-12.333 61.834-37 81.501s-55.667 29.5-93 29.5c-59.333 0-109.666-23.667-150.999-71l-29 36c50 54 112 81 186 81 52 0 94.333-13 127-39s49-64.667 49-116v-340h-52v57c-42-46-96.667-69-164-69-44.667 0-84 14.5-118 43.5s-51 68.167-51 117.5zM109.999 147.999c0-34.667 12.168-63.166 36.501-85.499s56.166-33.5 95.499-33.5c63.333 0 112 22 146 66v106c-34.667 44.667-83.334 67-146.001 67-39.333 0-71.166-11.333-95.499-34s-36.5-51.334-36.5-86.001zM167 644c0 26 9.33301 48.5 28 67.5s41.334 28.5 68.001 28.5c26 0 48.167-9.5 66.5-28.5s27.5-41.5 27.5-67.5c0-26.667-9.16699-49.334-27.5-68.001s-40.5-28-66.5-28c-26.667 0-49.334 9.33301-68.001 28s-28 41.334-28 68.001zM199 644c0-17.333 6.33301-32.333 19-45s27.667-19 45-19 32.166 6.33301 44.499 19 18.5 27.667 18.5 45-6.16699 32.333-18.5 45-27.166 19-44.499 19-32.333-6.33301-45-19-19-27.667-19-45z" glyph-name="aring" horiz-adv-x="521" unicode="&#xe5;"/><glyph d="M55 149c0 50 17.335 89.168 52.002 117.501s77 42.5 127 42.5c74 0 133.667-22.333 179-67v96c0 35.333-12.833 62.666-38.5 81.999s-59.834 29-102.501 29c-64.667 0-119.667-23.667-165-71l-29 36c50 54 117.333 81 202 81 42 0 79.167-9.16699 111.5-27.5s51.833-47.5 58.5-87.5c17.333 34 41.5 61.667 72.5 83s66.833 32 107.5 32c67.333 0 119.833-24.333 157.5-73s56.5-109.667 56.5-183v-14h-379c2.66699-54.667 19.667-100.334 51-137.001s72.333-55 123-55c59.333 0 108.666 22.333 147.999 67l27-34c-48-52-106.333-78-175-78-44.667 0-84 11-118 33s-60 54-78 96c-15.333-39.333-40.5-70.666-75.5-93.999s-74.833-35-119.5-35c-56 0-102.167 14.333-138.5 43s-54.5 68-54.5 118zM110.002 151.001c0-34.667 13.167-63 39.5-85s61.166-33 104.499-33c46 0 84 15.167 114 45.5s45 65.5 45 105.5v16c-38 45.333-91 68-159 68-43.333 0-78.166-11-104.499-33s-39.5-50-39.5-84zM465.002 266.001h326c0 47.333-14 89.833-42 127.5s-68.333 56.5-121 56.5c-48.667 0-87.5-19-116.5-57s-44.5-80.333-46.5-127z" glyph-name="ae" horiz-adv-x="897" unicode="&#xe6;"/><glyph d="M53 242c0 72 21.668 132.164 65.001 180.497s100 72.5 170 72.5c70.667 0 127.667-27.333 171-82l-36-32c-32.667 44.667-76.667 67-132 67s-99.5-19.5-132.5-58.5-49.5-88.167-49.5-147.5 16.5-108.666 49.5-147.999 77.167-59 132.5-59c54.667 0 98.667 22.667 132 68l36-32c-40.667-51.333-92.667-78.666-156-81.999l-16-44c10 8 22.333 12 37 12 19.333 0 35.166-6 47.499-18s18.5-28 18.5-48c0-23.333-9.66699-42.166-29-56.499s-43.333-21.5-72-21.5c-42 0-74.333 9.66699-97 29l16 32c23.333-18.667 50-28 80-28 18.667 0 34.167 4 46.5 12s18.5 19 18.5 33c0 26-13.667 39-41 39-16.667 0-30-5.66699-40-17l-28 16 22 60c-64 5.33301-115.5 31.833-154.5 79.5s-58.5 105.5-58.5 173.5z" glyph-name="ccedilla" horiz-adv-x="494" unicode="&#xe7;"/><glyph d="M53 242c0 70.667 22.166 130.501 66.499 179.501s99.833 73.5 166.5 73.5c70.667 0 126.334-24.5 167.001-73.5s61-109.833 61-182.5v-14h-404c2.66699-54.667 21-100.334 55-137.001s78.667-55 134-55c64 0 116.667 22.333 158 67l27-34c-50-52-113-78-189-78-70.667 0-128.667 23.667-174 71s-68 108.333-68 183zM109.999 266.001h351c-.666992 46.667-16.167 89-46.5 127s-73.5 57-129.5 57c-52.667 0-94.5-18.833-125.5-56.5s-47.5-80.167-49.5-127.5zM124.999 700.001h62l154-144h-44z" glyph-name="egrave" horiz-adv-x="567" unicode="&#xe8;"/><glyph d="M53 242c0 70.667 22.166 130.501 66.499 179.501s99.833 73.5 166.5 73.5c70.667 0 126.334-24.5 167.001-73.5s61-109.833 61-182.5v-14h-404c2.66699-54.667 21-100.334 55-137.001s78.667-55 134-55c64 0 116.667 22.333 158 67l27-34c-50-52-113-78-189-78-70.667 0-128.667 23.667-174 71s-68 108.333-68 183zM109.999 266.001h351c-.666992 46.667-16.167 89-46.5 127s-73.5 57-129.5 57c-52.667 0-94.5-18.833-125.5-56.5s-47.5-80.167-49.5-127.5zM231.999 556.001l154 144h62l-172-144h-44z" glyph-name="eacute" horiz-adv-x="567" unicode="&#xe9;"/><glyph d="M53 242c0 70.667 22.166 130.501 66.499 179.501s99.833 73.5 166.5 73.5c70.667 0 126.334-24.5 167.001-73.5s61-109.833 61-182.5v-14h-404c2.66699-54.667 21-100.334 55-137.001s78.667-55 134-55c64 0 116.667 22.333 158 67l27-34c-50-52-113-78-189-78-70.667 0-128.667 23.667-174 71s-68 108.333-68 183zM109.999 266.001h351c-.666992 46.667-16.167 89-46.5 127s-73.5 57-129.5 57c-52.667 0-94.5-18.833-125.5-56.5s-47.5-80.167-49.5-127.5zM162.999 556.001l97 144h54l99-144h-40l-86 113-85-113h-39z" glyph-name="ecircumflex" horiz-adv-x="567" unicode="&#xea;"/><glyph d="M53 242c0 70.667 22.166 130.501 66.499 179.501s99.833 73.5 166.5 73.5c70.667 0 126.334-24.5 167.001-73.5s61-109.833 61-182.5v-14h-404c2.66699-54.667 21-100.334 55-137.001s78.667-55 134-55c64 0 116.667 22.333 158 67l27-34c-50-52-113-78-189-78-70.667 0-128.667 23.667-174 71s-68 108.333-68 183zM109.999 266.001h351c-.666992 46.667-16.167 89-46.5 127s-73.5 57-129.5 57c-52.667 0-94.5-18.833-125.5-56.5s-47.5-80.167-49.5-127.5zM147.999 601.001c0 10 3.66699 18.667 11 26s16 11 26 11 18.667-3.66699 26-11 11-16 11-26-3.66699-18.667-11-26-16-11-26-11-18.667 3.66699-26 11-11 16-11 26zM351.999 601.001c0 10 3.66699 18.667 11 26s16 11 26 11 18.667-3.66699 26-11 11-16 11-26-3.66699-18.667-11-26-16-11-26-11-18.667 3.66699-26 11-11 16-11 26z" glyph-name="edieresis" horiz-adv-x="567" unicode="&#xeb;"/><glyph d="M-55 700h62l154-144h-44zM81 0v483h52v-483h-52z" glyph-name="igrave" horiz-adv-x="214" unicode="&#xec;"/><glyph d="M53 556l154 144h62l-172-144h-44zM81 0v483h52v-483h-52z" glyph-name="iacute" horiz-adv-x="214" unicode="&#xed;"/><glyph d="M-18 556l97 144h54l99-144h-40l-86 113-85-113h-39zM81 0v483h52v-483h-52z" glyph-name="icircumflex" horiz-adv-x="214" unicode="&#xee;"/><glyph d="M-32 601c0 10 3.66699 18.667 11 26s16 11 26 11 18.667-3.66699 26-11 11-16 11-26-3.66699-18.667-11-26-16-11-26-11-18.667 3.66699-26 11-11 16-11 26zM81 0v483h52v-483h-52zM172 601c0 10 3.66699 18.667 11 26s16 11 26 11 18.667-3.66699 26-11 11-16 11-26-3.66699-18.667-11-26-16-11-26-11-18.667 3.66699-26 11-11 16-11 26z" glyph-name="idieresis" horiz-adv-x="214" unicode="&#xef;"/><glyph d="M53 238c0 71.333 20.668 130.667 62.001 178s95 71 161 71c64 0 116.333-29 157-87-38.667 63.333-92.334 121-161.001 173l-142-63-14 34 121 53-81 53 30 44c41.333-25.333 77.333-49.333 108-72l109 48 14-33-91-40c128-108 192-225.667 192-353 0-74-21.333-135.167-64-183.5s-99-72.5-169-72.5c-68.667 0-124.5 23.667-167.5 71s-64.5 107-64.5 179zM109.001 238.001c0-56 15.833-103.833 47.5-143.5s74.5-59.5 128.5-59.5c54.667 0 97.834 19.833 129.501 59.5s47.5 87.5 47.5 143.5c0 55.333-15.833 102.833-47.5 142.5s-74.834 59.5-129.501 59.5c-54 0-96.833-19.833-128.5-59.5s-47.5-87.167-47.5-142.5z" glyph-name="eth" unicode="&#xf0;"/><glyph d="M81 0v483h52v-73c19.333 22.667 45 42.5 77 59.5s64.333 25.5 97 25.5c101.333 0 152-52.333 152-157v-338h-52v327c0 44-10 75.167-30 93.5s-49 27.5-87 27.5c-30 0-59.667-8-89-24s-52-35.667-68-59v-365h-52zM117 560c0 38.667 8.16699 70.6689 24.5 96.002s39.166 38 68.499 38c16.667 0 31.167-5.33301 43.5-16s21.333-22.334 27-35.001 13.334-24.334 23.001-35.001 20.167-16 31.5-16c16 0 28.833 8 38.5 24s14.5 40 14.5 72h36c0-39.333-8-71.5-24-96.5s-38.667-37.5-68-37.5c-16.667 0-31.167 5.33301-43.5 16s-21.5 22.5-27.5 35.5-13.833 24.833-23.5 35.5-20.167 16-31.5 16c-16 0-29-8-39-24s-15-40.333-15-73h-35z" glyph-name="ntilde" horiz-adv-x="540" unicode="&#xf1;"/><glyph d="M53 242c0 72 21.333 132.167 64 180.5s98.667 72.5 168 72.5c70 0 126.333-24.167 169-72.5s64-108.5 64-180.5-21.333-132.333-64-181-99-73-169-73c-69.333 0-125.333 24.333-168 73s-64 109-64 181zM109 242c0-56.667 15.833-105.332 47.5-145.999s74.5-61 128.5-61c54.667 0 97.834 20.167 129.501 60.5s47.5 89.166 47.5 146.499c0 56.667-15.833 105.167-47.5 145.5s-74.834 60.5-129.501 60.5c-54 0-96.833-20.167-128.5-60.5s-47.5-88.833-47.5-145.5zM124 700.002h62l154-144h-44z" glyph-name="ograve" unicode="&#xf2;"/><glyph d="M53 242c0 72 21.333 132.167 64 180.5s98.667 72.5 168 72.5c70 0 126.333-24.167 169-72.5s64-108.5 64-180.5-21.333-132.333-64-181-99-73-169-73c-69.333 0-125.333 24.333-168 73s-64 109-64 181zM109 242c0-56.667 15.833-105.332 47.5-145.999s74.5-61 128.5-61c54.667 0 97.834 20.167 129.501 60.5s47.5 89.166 47.5 146.499c0 56.667-15.833 105.167-47.5 145.5s-74.834 60.5-129.501 60.5c-54 0-96.833-20.167-128.5-60.5s-47.5-88.833-47.5-145.5zM232 556.002l154 144h62l-172-144h-44z" glyph-name="oacute" unicode="&#xf3;"/><glyph d="M53 242c0 72 21.333 132.167 64 180.5s98.667 72.5 168 72.5c70 0 126.333-24.167 169-72.5s64-108.5 64-180.5-21.333-132.333-64-181-99-73-169-73c-69.333 0-125.333 24.333-168 73s-64 109-64 181zM109 242c0-56.667 15.833-105.332 47.5-145.999s74.5-61 128.5-61c54.667 0 97.834 20.167 129.501 60.5s47.5 89.166 47.5 146.499c0 56.667-15.833 105.167-47.5 145.5s-74.834 60.5-129.501 60.5c-54 0-96.833-20.167-128.5-60.5s-47.5-88.833-47.5-145.5zM162 556.002l97 144h54l99-144h-40l-86 113-85-113h-39z" glyph-name="ocircumflex" unicode="&#xf4;"/><glyph d="M53 242c0 72 21.333 132.167 64 180.5s98.667 72.5 168 72.5c70 0 126.333-24.167 169-72.5s64-108.5 64-180.5-21.333-132.333-64-181-99-73-169-73c-69.333 0-125.333 24.333-168 73s-64 109-64 181zM109 242c0-56.667 15.833-105.332 47.5-145.999s74.5-61 128.5-61c54.667 0 97.834 20.167 129.501 60.5s47.5 89.166 47.5 146.499c0 56.667-15.833 105.167-47.5 145.5s-74.834 60.5-129.501 60.5c-54 0-96.833-20.167-128.5-60.5s-47.5-88.833-47.5-145.5zM132 560.002c0 38.667 8.16699 70.6689 24.5 96.002s39.166 38 68.499 38c16.667 0 31.167-5.33301 43.5-16s21.333-22.334 27-35.001 13.334-24.334 23.001-35.001 20.167-16 31.5-16c16 0 28.833 8 38.5 24s14.5 40 14.5 72h36c0-39.333-8-71.5-24-96.5s-38.667-37.5-68-37.5c-16.667 0-31.167 5.33301-43.5 16s-21.5 22.5-27.5 35.5-13.833 24.833-23.5 35.5-20.167 16-31.5 16c-16 0-29-8-39-24s-15-40.333-15-73h-35z" glyph-name="otilde" unicode="&#xf5;"/><glyph d="M53 242c0 72 21.333 132.167 64 180.5s98.667 72.5 168 72.5c70 0 126.333-24.167 169-72.5s64-108.5 64-180.5-21.333-132.333-64-181-99-73-169-73c-69.333 0-125.333 24.333-168 73s-64 109-64 181zM109 242c0-56.667 15.833-105.332 47.5-145.999s74.5-61 128.5-61c54.667 0 97.834 20.167 129.501 60.5s47.5 89.166 47.5 146.499c0 56.667-15.833 105.167-47.5 145.5s-74.834 60.5-129.501 60.5c-54 0-96.833-20.167-128.5-60.5s-47.5-88.833-47.5-145.5zM147 601.002c0 10 3.66699 18.667 11 26s16 11 26 11 18.667-3.66699 26-11 11-16 11-26-3.66699-18.667-11-26-16-11-26-11-18.667 3.66699-26 11-11 16-11 26zM351 601.002c0 10 3.66699 18.667 11 26s16 11 26 11 18.667-3.66699 26-11 11-16 11-26-3.66699-18.667-11-26-16-11-26-11-18.667 3.66699-26 11-11 16-11 26z" glyph-name="odieresis" unicode="&#xf6;"/><glyph d="M29 316v42h453v-42h-453zM216 138c0 10.667 4 20 12 28s17.333 12 28 12 19.834-4 27.501-12 11.5-17.333 11.5-28-3.83301-19.834-11.5-27.501-16.834-11.5-27.501-11.5-20 3.83301-28 11.5-12 16.834-12 27.501zM216 531c0 10.667 3.83301 19.834 11.5 27.501s17.167 11.5 28.5 11.5c10.667 0 19.834-3.83301 27.501-11.5s11.5-16.834 11.5-27.501-3.83301-20-11.5-28-16.834-12-27.501-12-20 4-28 12-12 17.333-12 28z" glyph-name="divide" horiz-adv-x="511" unicode="&#xf7;"/><glyph d="M53 242c0 72 21.333 132.168 64 180.501s98.667 72.5 168 72.5c52 0 97-14.333 135-43l24 31h44l-41-53c47.333-48.667 71-111.334 71-188.001 0-72-21.333-132.333-64-181s-99-73-169-73c-54 0-101 15.667-141 47l-26-35h-44l45 59c-44 48-66 109-66 183zM109 242.001c0-54.667 14.333-101.333 43-140l237 310c-29.333 24-64 36-104 36-54 0-96.833-20.167-128.5-60.5s-47.5-88.833-47.5-145.5zM176 76.002c29.333-27.333 65.666-40.999 108.999-40.999 54.667 0 97.834 20.167 129.501 60.5s47.5 89.166 47.5 146.499c0 56.667-16 105-48 145z" glyph-name="oslash" unicode="&#xf8;"/><glyph d="M81 143l.00097656 340.001h52v-328c0-44.667 10-75.834 30-93.501s49-26.5 87-26.5c30 0 59.5 7.66699 88.5 23s51.833 34.333 68.5 57v368h52v-483h-52v71c-22-24-48.333-43.833-79-59.5s-62.334-23.5-95.001-23.5c-50.667 0-88.667 12.5-114 37.5s-38 64.167-38 117.5zM108.001 700.001h62l154-144h-44z" glyph-name="ugrave" horiz-adv-x="540" unicode="&#xf9;"/><glyph d="M81 143l.00097656 340.001h52v-328c0-44.667 10-75.834 30-93.501s49-26.5 87-26.5c30 0 59.5 7.66699 88.5 23s51.833 34.333 68.5 57v368h52v-483h-52v71c-22-24-48.333-43.833-79-59.5s-62.334-23.5-95.001-23.5c-50.667 0-88.667 12.5-114 37.5s-38 64.167-38 117.5zM216.001 556.001l154 144h62l-172-144h-44z" glyph-name="uacute" horiz-adv-x="540" unicode="&#xfa;"/><glyph d="M81 143l.00097656 340.001h52v-328c0-44.667 10-75.834 30-93.501s49-26.5 87-26.5c30 0 59.5 7.66699 88.5 23s51.833 34.333 68.5 57v368h52v-483h-52v71c-22-24-48.333-43.833-79-59.5s-62.334-23.5-95.001-23.5c-50.667 0-88.667 12.5-114 37.5s-38 64.167-38 117.5zM145.001 556.001l97 144h54l99-144h-40l-86 113-85-113h-39z" glyph-name="ucircumflex" horiz-adv-x="540" unicode="&#xfb;"/><glyph d="M81 143l.00097656 340.001h52v-328c0-44.667 10-75.834 30-93.501s49-26.5 87-26.5c30 0 59.5 7.66699 88.5 23s51.833 34.333 68.5 57v368h52v-483h-52v71c-22-24-48.333-43.833-79-59.5s-62.334-23.5-95.001-23.5c-50.667 0-88.667 12.5-114 37.5s-38 64.167-38 117.5zM133.001 601.001c0 10 3.66699 18.667 11 26s16 11 26 11 18.667-3.66699 26-11 11-16 11-26-3.66699-18.667-11-26-16-11-26-11-18.667 3.66699-26 11-11 16-11 26zM337.001 601.001c0 10 3.66699 18.667 11 26s16 11 26 11 18.667-3.66699 26-11 11-16 11-26-3.66699-18.667-11-26-16-11-26-11-18.667 3.66699-26 11-11 16-11 26z" glyph-name="udieresis" horiz-adv-x="540" unicode="&#xfc;"/><glyph d="M7 483h57.999l176-422 174 422h59l-250-589c-25.333-60-66.666-90-123.999-90-18.667 0-35.667 2.33301-51 7l9 48c12-5.33301 26-8 42-8 32.667 0 57 19.667 73 59l38 86zM186.999 556l154 144h62l-172-144h-44z" glyph-name="yacute" horiz-adv-x="481" unicode="&#xfd;"/><glyph d="M81-184l-.00097656 851h52v-260c18 26 41.833 47.167 71.5 63.5s61.834 24.5 96.501 24.5c64.667 0 116.834-22.833 156.501-68.5s59.5-107.167 59.5-184.5c0-76.667-19.833-138.167-59.5-184.5s-91.834-69.5-156.501-69.5c-69.333 0-125.333 30-168 90v-262h-52zM132.999 123c14.667-24 36.833-44.668 66.5-62.001s60.5-26 92.5-26c52.667 0 94 19.333 124 58s45 88.334 45 149.001c0 60-15 109.333-45 148s-71.333 58-124 58c-32.667 0-63.667-8.33301-93-25s-51.333-37-66-61v-239z" glyph-name="thorn" horiz-adv-x="567" unicode="&#xfe;"/><glyph d="M7 483h57.999l176-422 174 422h59l-250-589c-25.333-60-66.666-90-123.999-90-18.667 0-35.667 2.33301-51 7l9 48c12-5.33301 26-8 42-8 32.667 0 57 19.667 73 59l38 86zM101.999 601c0 10 3.66699 18.667 11 26s16 11 26 11 18.667-3.66699 26-11 11-16 11-26-3.66699-18.667-11-26-16-11-26-11-18.667 3.66699-26 11-11 16-11 26zM305.999 601c0 10 3.66699 18.667 11 26s16 11 26 11 18.667-3.66699 26-11 11-16 11-26-3.66699-18.667-11-26-16-11-26-11-18.667 3.66699-26 11-11 16-11 26z" glyph-name="ydieresis" horiz-adv-x="481" unicode="&#xff;"/><glyph d="M58 333c0 99.333 29.667 181.501 89 246.501s136.666 97.5 231.999 97.5c52.667 0 101.834-13 147.501-39s80.834-62.667 105.501-110v139h423v-52h-365v-247h358v-52h-358v-264h365v-52h-423v139c-24.667-48.667-59.834-86-105.501-112s-94.834-39-147.501-39c-95.333 0-172.666 32.667-231.999 98s-89 147.666-89 246.999zM118 333.001c0-86 24.168-156.333 72.501-211s112.5-82 192.5-82c57.333 0 107.833 15.5 151.5 46.5s76.167 75.833 97.5 134.5v225c-20.667 58.667-52.834 103.167-96.501 133.5s-94.5 45.5-152.5 45.5c-80.667 0-145-27.167-193-81.5s-72-124.5-72-210.5z" glyph-name="OE" horiz-adv-x="1115" unicode="&#x152;"/><glyph d="M53 242c0 72 21.332 132.168 63.999 180.501s98.667 72.5 168 72.5c30.667 0 58.5-5.16699 83.5-15.5s45.5-23.833 61.5-40.5 28.667-32.667 38-48 16.666-31 21.999-47c12.667 36.667 36.167 71 70.5 103s78.833 48 133.5 48c70.667 0 126.334-24.5 167.001-73.5s61-109.833 61-182.5v-14h-403c2-54.667 20-100.334 54-137.001s78.667-55 134-55c63.333 0 116.333 22.333 159 67l27-34c-50.667-52-113.667-78-189-78-59.333 0-106.666 15.5-141.999 46.5s-59.333 65.833-72 104.5c-6.66699-16.667-14.5-32.5-23.5-47.5s-21.5-31-37.5-48-36.5-30.5-61.5-40.5-52.5-15-82.5-15c-69.333 0-125.333 24.333-168 73s-64 109-64 181zM108.999 242.001c0-57.333 16-106.333 48-147s74.667-61 128-61c54 0 97 20.167 129 60.5s48 89.5 48 147.5c0 57.333-16 106-48 146s-75 60-129 60c-53.333 0-96-20-128-60s-48-88.667-48-146zM517.999 266.001h351c-.666992 46.667-16.167 89-46.5 127s-73.5 57-129.5 57c-52.667 0-94.5-18.833-125.5-56.5s-47.5-80.167-49.5-127.5z" glyph-name="oe" horiz-adv-x="975" unicode="&#x153;"/><glyph d="M15 667h69l225-328 225 328h69l-265-382v-285h-58v285zM173 768c0 10 3.66699 18.667 11 26s16 11 26 11 18.667-3.66699 26-11 11-16 11-26-3.66699-18.667-11-26-16-11-26-11-18.667 3.66699-26 11-11 16-11 26zM377 768c0 10 3.66699 18.667 11 26s16 11 26 11 18.667-3.66699 26-11 11-16 11-26-3.66699-18.667-11-26-16-11-26-11-18.667 3.66699-26 11-11 16-11 26z" glyph-name="Ydieresis" horiz-adv-x="618" unicode="&#x178;"/><glyph d="M0 556l97 144h54l99-144h-40l-86 113-85-113h-39z" glyph-name="circumflex" horiz-adv-x="250" unicode="&#x2c6;"/><glyph d="M0 560c0 38.667 8.16699 70.6689 24.5 96.002s39.166 38 68.499 38c16.667 0 31.167-5.33301 43.5-16s21.333-22.334 27-35.001 13.334-24.334 23.001-35.001 20.167-16 31.5-16c16 0 28.833 8 38.5 24s14.5 40 14.5 72h36c0-39.333-8-71.5-24-96.5s-38.667-37.5-68-37.5c-16.667 0-31.167 5.33301-43.5 16s-21.5 22.5-27.5 35.5-13.833 24.833-23.5 35.5-20.167 16-31.5 16c-16 0-29-8-39-24s-15-40.333-15-73h-35z" glyph-name="tilde" horiz-adv-x="307" unicode="&#x2dc;"/><glyph glyph-name="uni2000" horiz-adv-x="441" unicode="&#x2000;"/><glyph glyph-name="uni2001" horiz-adv-x="883" unicode="&#x2001;"/><glyph glyph-name="uni2002" horiz-adv-x="441" unicode="&#x2002;"/><glyph glyph-name="uni2003" horiz-adv-x="883" unicode="&#x2003;"/><glyph glyph-name="uni2004" horiz-adv-x="294" unicode="&#x2004;"/><glyph glyph-name="uni2005" horiz-adv-x="220" unicode="&#x2005;"/><glyph glyph-name="uni2006" horiz-adv-x="147" unicode="&#x2006;"/><glyph glyph-name="uni2007" horiz-adv-x="147" unicode="&#x2007;"/><glyph glyph-name="uni2008" horiz-adv-x="110" unicode="&#x2008;"/><glyph glyph-name="uni2009" horiz-adv-x="176" unicode="&#x2009;"/><glyph glyph-name="uni200A" horiz-adv-x="49" unicode="&#x200a;"/><glyph d="M30 218v48h240v-48h-240z" glyph-name="uni2010" horiz-adv-x="300" unicode="&#x2010;"/><glyph d="M30 218v48h240v-48h-240z" glyph-name="uni2011" horiz-adv-x="300" unicode="&#x2011;"/><glyph d="M30 218v48h240v-48h-240z" glyph-name="figuredash" horiz-adv-x="300" unicode="&#x2012;"/><glyph d="M30 218v48h533v-48h-533z" glyph-name="endash" horiz-adv-x="593" unicode="&#x2013;"/><glyph d="M30 218v48h773v-48h-773z" glyph-name="emdash" horiz-adv-x="833" unicode="&#x2014;"/><glyph d="M51 541c0 26.667 6.83203 52.333 20.499 77s30.834 44.334 51.501 59.001l29-24c-16-10.667-29.333-24.834-40-42.501s-16.667-34.5-18-50.5c0 1.33301 3.33301 2 10 2 12 0 21.833-4 29.5-12s11.5-18 11.5-30c0-11.333-4.16699-21.333-12.5-30s-18.5-13-30.5-13c-14 0-26 5.66699-36 17s-15 27-15 47z" glyph-name="quoteleft" horiz-adv-x="219" unicode="&#x2018;"/><glyph d="M58 501c16 10.667 29.334 24.833 40.001 42.5s16.667 34.5 18 50.5c0-1.33301-3.33301-2-10-2-12 0-21.833 4-29.5 12s-11.5 18-11.5 30c0 11.333 4.16699 21.333 12.5 30s18.5 13 30.5 13c14 0 26-5.66699 36-17s15-27 15-47c0-26.667-6.83301-52.5-20.5-77.5s-30.834-44.5-51.501-58.5z" glyph-name="quoteright" horiz-adv-x="219" unicode="&#x2019;"/><glyph d="M58-98c16 10.667 29.334 24.833 40.001 42.5s16.667 34.167 18 49.5c-4.66699-.666992-8-1-10-1-12 0-21.833 4-29.5 12s-11.5 18-11.5 30c0 11.333 4.16699 21.333 12.5 30s18.5 13 30.5 13c14 0 26-5.66699 36-17s15-27 15-47c0-26.667-6.83301-52.5-20.5-77.5s-30.834-44.833-51.501-59.5z" glyph-name="quotesinglbase" horiz-adv-x="219" unicode="&#x201a;"/><glyph d="M60 541c0 26.667 6.66699 52.3301 20 76.9971s30.333 44.334 51 59.001l30-24c-16-11.333-29.667-25.666-41-42.999s-17.333-34-18-50c1.33301 1.33301 5 2 11 2 11.333 0 20.833-4.16699 28.5-12.5s11.5-18.166 11.5-29.499c0-12-4.16699-22.167-12.5-30.5s-18.5-12.5-30.5-12.5c-14 0-25.833 5.66699-35.5 17s-14.5 27-14.5 47zM202 540.996c0 26.667 6.66699 52.3301 20 76.9971s30.333 44.334 51 59.001l30-24c-16-11.333-29.667-25.666-41-42.999s-17.333-34-18-50c1.33301 1.33301 5 2 11 2 11.333 0 20.833-4.16699 28.5-12.5s11.5-18.166 11.5-29.499c0-12-4.16699-22.167-12.5-30.5s-18.5-12.5-30.5-12.5c-14 0-25.833 5.66699-35.5 17s-14.5 27-14.5 47z" glyph-name="quotedblleft" horiz-adv-x="360" unicode="&#x201c;"/><glyph d="M58 501c16 10.667 29.334 24.833 40.001 42.5s16.667 34.5 18 50.5c0-1.33301-3.33301-2-10-2-12 0-21.833 4-29.5 12s-11.5 18-11.5 30c0 11.333 4.16699 21.333 12.5 30s18.5 13 30.5 13c14 0 26-5.66699 36-17s15-27 15-47c0-26.667-6.83301-52.5-20.5-77.5s-30.834-44.5-51.501-58.5zM199.001 500.999c16 11.333 29.667 25.667 41 43s17.333 34 18 50c-1.33301-1.33301-5-2-11-2-11.333 0-20.833 4-28.5 12s-11.5 18-11.5 30 4.16699 22.167 12.5 30.5 18.5 12.5 30.5 12.5c14 0 25.833-5.66699 35.5-17s14.5-27 14.5-47c0-27.333-6.66699-53.333-20-78s-30.333-44-51-58z" glyph-name="quotedblright" horiz-adv-x="360" unicode="&#x201d;"/><glyph d="M58-98c16 10.667 29.334 24.833 40.001 42.5s16.667 34.167 18 49.5c-4.66699-.666992-8-1-10-1-12 0-21.833 4-29.5 12s-11.5 18-11.5 30c0 11.333 4.16699 21.333 12.5 30s18.5 13 30.5 13c14 0 26-5.66699 36-17s15-27 15-47c0-26.667-6.83301-52.5-20.5-77.5s-30.834-44.833-51.501-59.5zM199.001-98.001c16 10.667 29.499 24.833 40.499 42.5s17.167 34.167 18.5 49.5h-4c-3.33301-.666992-5.66602-1-6.99902-1-11.333 0-20.833 4-28.5 12s-11.5 18-11.5 30 4.16699 22.167 12.5 30.5 18.5 12.5 30.5 12.5c14 0 25.833-5.66699 35.5-17s14.5-27 14.5-47c0-26.667-6.66699-52.5-20-77.5s-30.333-44.833-51-59.5z" glyph-name="quotedblbase" horiz-adv-x="361" unicode="&#x201e;"/><glyph d="M77 242c0 28.667 10 53 30 73s44.333 30 73 30 53-10 73-30 30-44.333 30-73c0-28-10-52-30-72s-44.333-30-73-30-53 10-73 30-30 44-30 72z" glyph-name="bullet" horiz-adv-x="358" unicode="&#x2022;"/><glyph d="M65 35c0 11.333 4.33301 21.333 13 30s19 13 31 13 22.333-4.33301 31-13 13-18.667 13-30c0-12-4.33301-22.333-13-31s-19-13-31-13-22.333 4.33301-31 13-13 19-13 31zM284 35c0 11.333 4.33301 21.333 13 30s19 13 31 13 22.333-4.33301 31-13 13-18.667 13-30c0-12-4.33301-22.333-13-31s-19-13-31-13-22.333 4.33301-31 13-13 19-13 31zM504 35c0 11.333 4.16699 21.333 12.5 30s18.5 13 30.5 13 22.333-4.33301 31-13 13-18.667 13-30c0-12-4.33301-22.333-13-31s-19-13-31-13-22.167 4.33301-30.5 13-12.5 19-12.5 31z" glyph-name="ellipsis" horiz-adv-x="657" unicode="&#x2026;"/><glyph glyph-name="uni202F" horiz-adv-x="176" unicode="&#x202f;"/><glyph d="M30 243l160 177h57l-160-177 160-180h-57z" glyph-name="guilsinglleft" horiz-adv-x="277" unicode="&#x2039;"/><glyph d="M30 63l160 180-160 177h57l160-177-160-180h-57z" glyph-name="guilsinglright" horiz-adv-x="277" unicode="&#x203a;"/><glyph glyph-name="uni205F" horiz-adv-x="220" unicode="&#x205f;"/><glyph d="M35 242l-.00097656 41h47c-2 16-3 32.667-3 50 0 18 1 35.333 3 52h-47v41h55c18.667 76 57.834 137 117.501 183s129.5 69 209.5 69c98.667 0 179.667-39.333 243-118l-48-31c-21.333 29.333-49.333 52.833-84 70.5s-71.667 26.5-111 26.5c-63.333 0-119.166-18.167-167.499-54.5s-81.166-84.833-98.499-145.5h326v-41h-335c-2-16.667-3-34-3-52 0-17.333 1-34 3-50h335v-41h-326c17.333-61.333 50-110.333 98-147s104-55 168-55c39.333 0 76.333 8.83301 111 26.5s62.667 41.167 84 70.5l48-30c-64-79.333-145-119-243-119-80.667 0-150.834 23-210.501 69s-98.834 107.667-117.501 185h-54z" glyph-name="Euro" horiz-adv-x="690" unicode="&#x20ac;"/><glyph d="M17 641v26h152v-26h-62v-194h-28v194h-62zM205 447v220h43l64-160 64 160h43v-220h-28v182l-75-182h-8l-75 182v-182h-28z" glyph-name="trademark" horiz-adv-x="454" unicode="&#x2122;"/><glyph d="M0 0v485h485v-485h-485z" glyph-name="uniE000" horiz-adv-x="485" unicode="&#xe000;"/><glyph glyph-name="glyph2" horiz-adv-x="333"/></font>
</defs>
</svg>
