<svg><defs><font horiz-adv-x="572"><font-face ascent="790" bbox="-172 -272 1082 906.999" cap-height="667" descent="-210" panose-1="2 0 5 6 3 0 0 2 0 4" underline-position="-113" underline-thickness="20" unicode-range="U+000D-U+FB04" x-height="483"/><missing-glyph d="M429-90h-351v842h351v-842zM397-60v782h-288v-782h288z" horiz-adv-x="507"/><glyph d="M454 0h-75v417h-80v66h80v37c0 49.333 12.667 87.833 38 115.5s59.333 41.5 102 41.5c30.667 0 55-5.66699 73-17l-19-57c-12.667 8-27 12-43 12-24.667 0-43.5-8.16699-56.5-24.5s-19.5-39.833-19.5-70.5v-37h98v-66h-98v-417zM679 552c-13.333 0-25 4.83301-35 14.5s-15 21.5-15 35.5 5 26 15 36 21.667 15 35 15c14 0 26-5 36-15s15-22 15-36-5-25.833-15-35.5-22-14.5-36-14.5zM574-196c-40 0-75.333 12.001-106 36.001l27 57c20.667-20.667 43.667-31 69-31 24 0 43 7.16699 57 21.5s21 36.166 21 65.499v530h75v-530c0-47.333-12.333-84-37-110s-60-39-106-39zM171 .00097656h-75v417h-80v66h80v37c0 49.333 12.5 87.833 37.5 115.5s59.167 41.5 102.5 41.5c41.333 0 75.333-12.333 102-37l-31-49c-18 16-38 24-60 24-24.667 0-43.5-8.16699-56.5-24.5s-19.5-39.833-19.5-70.5v-37h98v-66h-98v-417z" glyph-name="f_f_j" horiz-adv-x="792" unicode="&#x66;&#x66;&#x6a;"/><glyph d="M171 0h-75v417h-80v66h80v37c0 49.333 12.667 87.833 38 115.5s59.333 41.5 102 41.5c30.667 0 55-5.66699 73-17l-19-57c-12.667 8-27 12-43 12-24.667 0-43.5-8.16699-56.5-24.5s-19.5-39.833-19.5-70.5v-37h98v-66h-98v-417zM395 552c-13.333 0-25 4.83301-35 14.5s-15 21.5-15 35.5 5 26 15 36 21.667 15 35 15c14 0 26-5 36-15s15-22 15-36-5-25.833-15-35.5-22-14.5-36-14.5zM290-196c-40 0-75.333 12.001-106 36.001l27 57c20.667-20.667 43.667-31 69-31 24 0 43 7.16699 57 21.5s21 36.166 21 65.499v530h75v-530c0-47.333-12.333-84-37-110s-60-39-106-39z" glyph-name="f_j" horiz-adv-x="509" unicode="&#x66;&#x6a;"/><glyph d="M171 0h-75v417h-80v66h80v37c0 49.333 12.5 87.833 37.5 115.5s59.167 41.5 102.5 41.5c41.333 0 75.333-12.333 102-37l-31-49c-18 16-38 24-60 24-24.667 0-43.5-8.16699-56.5-24.5s-19.5-39.833-19.5-70.5v-37h98v-66h-98v-417zM454 0h-75v417h-80v66h80v37c0 49.333 12.5 87.833 37.5 115.5s59.167 41.5 102.5 41.5c41.333 0 75.333-12.333 102-37l-31-49c-18 16-38 24-60 24-24.667 0-43.5-8.16699-56.5-24.5s-19.5-39.833-19.5-70.5v-37h98v-66h-98v-417z" glyph-name="f_f" horiz-adv-x="567" unicode="&#x66;&#x66;"/><glyph d="M171 0h-75v417h-80v66h80v37c0 49.333 12.667 87.833 38 115.5s59.333 41.5 102 41.5c30.667 0 55-5.66699 73-17l-19-57c-12.667 8-27 12-43 12-24.667 0-43.5-8.16699-56.5-24.5s-19.5-39.833-19.5-70.5v-37h98v-66h-98v-417zM395 552c-13.333 0-25 4.83301-35 14.5s-15 21.5-15 35.5 5 26 15 36 21.667 15 35 15c14 0 26-5 36-15s15-22 15-36-5-25.833-15-35.5-22-14.5-36-14.5zM433 0h-75v483h75v-483z" glyph-name="fi" horiz-adv-x="509" unicode="&#x66;&#x69;"/><glyph d="M171 0h-75v417h-80v66h80v37c0 49.333 12.667 87.833 38 115.5s59.333 41.5 102 41.5c30.667 0 55-5.66699 73-17l-19-57c-12.667 8-27 12-43 12-24.667 0-43.5-8.16699-56.5-24.5s-19.5-39.833-19.5-70.5v-37h98v-66h-98v-417zM433 0h-75v667h75v-667z" glyph-name="fl" horiz-adv-x="509" unicode="&#x66;&#x6c;"/><glyph d="M454 0h-75v417h-80v66h80v37c0 49.333 12.667 87.833 38 115.5s59.333 41.5 102 41.5c30.667 0 55-5.66699 73-17l-19-57c-12.667 8-27 12-43 12-24.667 0-43.5-8.16699-56.5-24.5s-19.5-39.833-19.5-70.5v-37h98v-66h-98v-417zM679 552c-13.333 0-25 4.83301-35 14.5s-15 21.5-15 35.5 5 26 15 36 21.667 15 35 15c14 0 26-5 36-15s15-22 15-36-5-25.833-15-35.5-22-14.5-36-14.5zM717 0h-75v483h75v-483zM171 0h-75v417h-80v66h80v37c0 49.333 12.5 87.833 37.5 115.5s59.167 41.5 102.5 41.5c41.333 0 75.333-12.333 102-37l-31-49c-18 16-38 24-60 24-24.667 0-43.5-8.16699-56.5-24.5s-19.5-39.833-19.5-70.5v-37h98v-66h-98v-417z" glyph-name="f_f_i" horiz-adv-x="792" unicode="&#x66;&#x66;&#x69;"/><glyph d="M454 0h-75v417h-80v66h80v37c0 49.333 12.667 87.833 38 115.5s59.333 41.5 102 41.5c30.667 0 55-5.66699 73-17l-19-57c-12.667 8-27 12-43 12-24.667 0-43.5-8.16699-56.5-24.5s-19.5-39.833-19.5-70.5v-37h98v-66h-98v-417zM717 0h-75v667h75v-667zM171 0h-75v417h-80v66h80v37c0 49.333 12.5 87.833 37.5 115.5s59.167 41.5 102.5 41.5c41.333 0 75.333-12.333 102-37l-31-49c-18 16-38 24-60 24-24.667 0-43.5-8.16699-56.5-24.5s-19.5-39.833-19.5-70.5v-37h98v-66h-98v-417z" glyph-name="f_f_l" horiz-adv-x="792" unicode="&#x66;&#x66;&#x6c;"/><glyph d="M171 0h-75v417h-80v66h80v37c0 49.333 12.667 87.833 38 115.5s59.333 41.5 102 41.5c30.667 0 55-5.66699 73-17l-19-57c-12.667 8-27 12-43 12-24.667 0-43.5-8.16699-56.5-24.5s-19.5-39.833-19.5-70.5v-37h98v-66h-98v-417zM433 131c13.333-21.333 33.5-39.334 60.5-54.001s54.833-22 83.5-22c48 0 86 17.333 114 52s42 79.334 42 134.001-14 99.5-42 134.5-66 52.5-114 52.5c-28.667 0-56.5-7.5-83.5-22.5s-47.167-33.5-60.5-55.5v-219zM433-.00097656h-75.001v667h75v-257c42 56.667 96.333 85 163 85 63.333 0 115-23.167 155-69.5s60-107.833 60-184.5c0-77.333-19.833-138.833-59.5-184.5s-91.5-68.5-155.5-68.5c-67.333 0-121.666 28-162.999 84v-72z" glyph-name="f_b" horiz-adv-x="858" unicode="&#x66;&#x62;"/><glyph d="M171 0h-75v417h-80v66h80v37c0 49.333 12.667 87.833 38 115.5s59.333 41.5 102 41.5c30.667 0 55-5.66699 73-17l-19-57c-12.667 8-27 12-43 12-24.667 0-43.5-8.16699-56.5-24.5s-19.5-39.833-19.5-70.5v-37h98v-66h-98v-417zM760 0l-75.002.00097656v318c0 40-9.33301 68.333-28 85s-45.667 25-81 25c-27.333 0-54.166-7.33301-80.499-22s-47.166-32.334-62.499-53.001v-353h-75v667h75v-254c18.667 22 43.667 41.167 75 57.5s64 24.5 98 24.5c102.667 0 154-51.333 154-154v-341z" glyph-name="f_h" horiz-adv-x="835" unicode="&#x66;&#x68;"/><glyph d="M171 0h-75v417h-80v66h80v37c0 49.333 12.667 87.833 38 115.5s59.333 41.5 102 41.5c30.667 0 55-5.66699 73-17l-19-57c-12.667 8-27 12-43 12-24.667 0-43.5-8.16699-56.5-24.5s-19.5-39.833-19.5-70.5v-37h98v-66h-98v-417zM783 0h-96l-174 217-80-79v-138h-75v667h75v-441l254 257h95l-214-219z" glyph-name="f_k" horiz-adv-x="798" unicode="&#x66;&#x6b;"/><glyph d="M429-90h-351v842h351v-842zM397-60v782h-288v-782h288z" glyph-name=".notdef" horiz-adv-x="507"/><glyph glyph-name=".null" horiz-adv-x="0"/><glyph glyph-name=".null" horiz-adv-x="0"/><glyph glyph-name="CR" horiz-adv-x="0" unicode="&#xd;"/><glyph glyph-name="space" horiz-adv-x="258" unicode="&#x20;"/><glyph d="M146 187h-62l-16 480h94zM115-10c-14.667 0-27.5 5.5-38.5 16.5s-16.5 23.833-16.5 38.5c0 15.333 5.33301 28.333 16 39s23.667 16 39 16 28.333-5.33301 39-16 16-23.667 16-39c0-14.667-5.5-27.5-16.5-38.5s-23.833-16.5-38.5-16.5z" glyph-name="exclam" horiz-adv-x="230" unicode="&#x21;"/><glyph d="M118 412h-37.001c-18 136.667-27 209.667-27 219 0 12.667 4.33301 23.5 13 32.5s19.334 13.5 32.001 13.5 23.5-4.5 32.5-13.5 13.5-19.833 13.5-32.5zM262.999 412h-37.001c-18 136.667-27 209.667-27 219 0 12.667 4.5 23.5 13.5 32.5s19.833 13.5 32.5 13.5 23.334-4.5 32.001-13.5 13-19.833 13-32.5z" glyph-name="quotedbl" horiz-adv-x="343" unicode="&#x22;"/><glyph d="M300 0h-61l61 181h-111l-60-181h-62l61 181h-106l17 53h107l66 199h-108l16 52h110l60 182h62l-60-182h110l60 182h61l-61-182h107l-15-52h-109l-67-199h111l-16-53h-113zM317 234l66 199h-110l-66-199h110z" glyph-name="numbersign" horiz-adv-x="590" unicode="&#x23;"/><glyph d="M271-100v89.001c-96 5.33301-172.333 40.333-229 105l49 63c48.667-54.667 108.667-86 180-94v244c-25.333 6.66699-45.833 12.667-61.5 18s-33.834 13.166-54.501 23.499-37 21.5-49 33.5-22.167 27.333-30.5 46-12.5 40-12.5 64c0 51.333 19.333 94 58 128s88.667 52.667 150 56v92h61v-93c80.667-8 146.334-38.333 197.001-91l-50-61c-39.333 42-88.333 67.333-147 76v-217c31.333-8.66699 57.333-17.167 78-25.5s42.5-20 65.5-35 40.167-34 51.5-57 17-49.833 17-80.5c0-50.667-17.333-94.5-52-131.5s-88-58.167-160-63.5v-89h-61zM458 177.001c0 30-10.8311 53.333-32.498 70s-52.834 31-93.501 43v-227c43.333 4.66699 75.166 18 95.499 40s30.5 46.667 30.5 74zM149.002 497.001c0-25.333 10.333-45.167 31-59.5s51-27.5 91-39.5v204c-36-2.66699-65.333-13.5-88-32.5s-34-43.167-34-72.5z" glyph-name="dollar" horiz-adv-x="593" unicode="&#x24;"/><glyph d="M191 348c-47.333 0-85.833 15.5-115.5 46.5s-44.5 69.833-44.5 116.5c0 47.333 15 86.833 45 118.5s68.333 47.5 115 47.5c47.333 0 86.166-15.833 116.499-47.5s45.5-71.167 45.5-118.5c0-46.667-15.167-85.5-45.5-116.5s-69.166-46.5-116.499-46.5zM182 0h-54l426 667h55zM539-12c-47.333 0-85.833 15.5-115.5 46.5s-44.5 69.833-44.5 116.5c0 47.333 15 86.833 45 118.5s68.333 47.5 115 47.5c47.333 0 86-15.833 116-47.5s45-71.167 45-118.5c0-46.667-15-85.5-45-116.5s-68.667-46.5-116-46.5zM191 398c29.333 0 53.667 10.833 73 32.5s29 48.5 29 80.5c0 33.333-9.5 60.833-28.5 82.5s-43.5 32.5-73.5 32.5c-29.333 0-53.333-10.833-72-32.5s-28-49.167-28-82.5c0-32 9.33301-58.833 28-80.5s42.667-32.5 72-32.5zM539.001 38c29.333 0 53.667 10.833 73 32.5s29 48.5 29 80.5c0 33.333-9.5 60.833-28.5 82.5s-43.5 32.5-73.5 32.5-54.333-10.833-73-32.5-28-49.167-28-82.5c0-32 9.5-58.833 28.5-80.5s43.167-32.5 72.5-32.5z" glyph-name="percent" horiz-adv-x="731" unicode="&#x25;"/><glyph d="M613 0l-103.999.00488281c-20 17.333-44.333 40.666-73 69.999-54.667-54.667-118.667-82-192-82-60.667 0-110.5 16.167-149.5 48.5s-58.5 78.166-58.5 137.499c0 47.333 13 86 39 116s62 57.333 108 82c-34 58-51 108-51 150 0 44 16.167 80.833 48.5 110.5s72.166 44.5 119.499 44.5c44.667 0 81-11.5 109-34.5s42-55.167 42-96.5c0-24-4.33301-45.5-13-64.5s-22.667-36.333-42-52-36.166-27.834-50.499-36.501-35.833-20.334-64.5-35.001c21.333-29.333 47-61 77-95 24-28.667 50.333-58.334 79-89.001 29.333 43.333 53.333 94 72 152l65-28c-32.667-76-63-133.333-91-172 33.333-34.667 76.666-76.667 129.999-126zM251.001 50.0049c49.333 0 96 22 140 66-44 46-74.667 79.667-92 101-30.667 35.333-58.667 70.666-84 105.999-31.333-19.333-55.5-40.166-72.5-62.499s-25.5-49.5-25.5-81.5c0-40 13.167-71.5 39.5-94.5s57.833-34.5 94.5-34.5zM210.001 521.005c0-31.333 13.334-69.667 40.001-115 43.333 21.333 76.166 42 98.499 62s33.5 45 33.5 75c0 24-7.33301 42.5-22 55.5s-33.667 19.5-57 19.5c-26 0-48-9.16699-66-27.5s-27-41.5-27-69.5z" glyph-name="ampersand" horiz-adv-x="641" unicode="&#x26;"/><glyph d="M118 412h-37.001c-18 136.667-27 209.667-27 219 0 12.667 4.33301 23.5 13 32.5s19.334 13.5 32.001 13.5 23.5-4.5 32.5-13.5 13.5-19.833 13.5-32.5z" glyph-name="quotesingle" horiz-adv-x="199" unicode="&#x27;"/><glyph d="M230-164l-45-34.999c-94 128.667-141 276-141 442 0 165.333 47 312.666 141 441.999l45-34c-35.333-70-61.5-136-78.5-198s-25.5-132-25.5-210 8.5-148.167 25.5-210.5 43.167-127.833 78.5-196.5z" glyph-name="parenleft" horiz-adv-x="248" unicode="&#x28;"/><glyph d="M62-199l-45 35c35.333 68.667 61.666 134.167 78.999 196.5s26 132.5 26 210.5c0 78.667-8.66699 149-26 211s-43.666 127.667-78.999 197l45 34c94.667-128.667 142-276 142-442 0-166.667-47.333-314-142-442z" glyph-name="parenright" horiz-adv-x="248" unicode="&#x29;"/><glyph d="M193 389h-46l5 115-96-63-22 40 102 52-102 52 22 39 96-62-5 115h46l-6-115 96 62 23-39-102-52 102-52-23-40-96 63z" glyph-name="asterisk" horiz-adv-x="340" unicode="&#x2a;"/><glyph d="M470 311h-192v-213h-57v213h-192v52h192v207h57v-207h192v-52z" glyph-name="plus" horiz-adv-x="499" unicode="&#x2b;"/><glyph d="M176 24c0-29.333-7.66504-57.5029-22.998-84.5029s-35-49.167-59-66.5l-37 31c16.667 10.667 31.167 24.834 43.5 42.501s19.5 34.5 21.5 50.5c-2.66699-1.33301-7.33398-2-14.001-2-14 0-25.5 4.83301-34.5 14.5s-13.5 21.834-13.5 36.501 5.16699 27.334 15.5 38.001 22.833 16 37.5 16c17.333 0 32.166-6.83301 44.499-20.5s18.5-32.167 18.5-55.5z" glyph-name="comma" horiz-adv-x="230" unicode="&#x2c;"/><glyph d="M270 209h-240v66h240v-66z" glyph-name="hyphen" horiz-adv-x="300" unicode="&#x2d;"/><glyph d="M115-10c-15.333 0-28.333 5.33301-39 16s-16 23.667-16 39 5.33301 28.333 16 39 23.667 16 39 16 28.333-5.33301 39-16 16-23.667 16-39-5.33301-28.333-16-39-23.667-16-39-16z" glyph-name="period" horiz-adv-x="230" unicode="&#x2e;"/><glyph d="M59-20h-59l237 707h59z" glyph-name="slash" horiz-adv-x="296" unicode="&#x2f;"/><glyph d="M306-12c-44 0-82.833 10.167-116.5 30.5s-60.334 47.5-80.001 81.5-34.334 70.667-44.001 110-14.5 80.333-14.5 123 4.83301 83.667 14.5 123 24.334 75.833 44.001 109.5 46.334 60.667 80.001 81 72.5 30.5 116.5 30.5c43.333 0 82-10.167 116-30.5s60.833-47.333 80.5-81 34.334-70.167 44.001-109.5 14.5-80.333 14.5-123-4.83301-83.667-14.5-123-24.334-76-44.001-110-46.5-61.167-80.5-81.5-72.667-30.5-116-30.5zM306 62c40 0 73.333 13.833 100 41.5s45 60.834 55 99.501 15 82 15 130-5 91.333-15 130-28.333 71.667-55 99-60 41-100 41-73.333-13.667-100-41-45-60.333-55-99-15-82-15-130 5-91.333 15-130 28.333-71.834 55-99.501 60-41.5 100-41.5z" glyph-name="zero" horiz-adv-x="612" unicode="&#x30;"/><glyph d="M261 0h-83v557l-107-113-50 51 167 172h73v-667z" glyph-name="one" horiz-adv-x="339" unicode="&#x31;"/><glyph d="M512 0l-458.002.00292969v66l161.5 130.5c38.333 32.333 75.333 66.666 111 102.999s60.834 68.666 75.501 96.999 22 56.5 22 84.5c0 40-13.667 70.333-41 91s-60 31-98 31c-76.667 0-137-28-181-84l-51 53c25.333 33.333 58.5 59.166 99.5 77.499s85.167 27.5 132.5 27.5c60.667 0 113.167-17 157.5-51s66.5-82.333 66.5-145c0-62-26.667-123.833-80-185.5s-134.666-135.5-243.999-221.5h327v-74z" glyph-name="two" horiz-adv-x="588" unicode="&#x32;"/><glyph d="M266-12c-53.333 0-100.67 10.3359-142.003 31.0029s-73 47-95 79l49 52c20-26.667 46.333-48 79-64s68.334-24 107.001-24c48.667 0 86.834 11.167 114.501 33.5s41.5 52.833 41.5 91.5c0 40-14.833 69.667-44.5 89s-70.167 29-121.5 29c-39.333 0-62.333-.333008-69-1v76c7.33301-.666992 30.333-1 69-1 45.333 0 82.5 9.16699 111.5 27.5s43.5 45.833 43.5 82.5c0 35.333-14.167 63.166-42.5 83.499s-63.833 30.5-106.5 30.5c-67.333 0-126-27-176-81l-46 52c56.667 68.667 132.667 103 228 103 66 0 120.167-15.833 162.5-47.5s63.5-75.167 63.5-130.5c0-44-14.667-79.167-44-105.5s-62.666-42.833-99.999-49.5c36.667-3.33301 71.5-19.333 104.5-48s49.5-67.334 49.5-116.001c0-56.667-21.333-102.834-64-138.501s-100-53.5-172-53.5z" glyph-name="three" horiz-adv-x="557" unicode="&#x33;"/><glyph d="M432 0h-83v169h-317v69l286 429h114v-425h94v-73h-94v-169zM349 242v348l-234-348h234z" glyph-name="four" horiz-adv-x="558" unicode="&#x34;"/><glyph d="M301-12c-102.667 0-181 35.667-235 107l51 55c46-58.667 107.333-88 184-88 45.333 0 82.333 13.667 111 41s43 61.333 43 102c0 43.333-14.167 78.166-42.5 104.499s-65.166 39.5-110.499 39.5c-60 0-111.333-21-154-63l-61 21v360h408v-74h-325v-232c40 40 92 60 156 60 58.667 0 108.667-19.167 150-57.5s62-90.166 62-155.499c0-66.667-22.333-120-67-160s-101.334-60-170.001-60z" glyph-name="five" horiz-adv-x="590" unicode="&#x35;"/><glyph d="M308-12c-44.667 0-83.999 9.33301-117.999 28s-60.833 44.167-80.5 76.5-34.334 68.666-44.001 108.999-14.5 83.833-14.5 130.5c0 62.667 9.33301 119.334 28 170.001s48.834 92.5 90.501 125.5 92.5 49.5 152.5 49.5c76.667 0 138.334-26.667 185.001-80l-42-62c-38.667 45.333-86.334 68-143.001 68-41.333 0-76.5-13-105.5-39s-50-58.167-63-96.5-19.5-80.5-19.5-126.5c0-11.333.333008-20 1-26 16.667 26.667 42.5 50.667 77.5 72s72.167 32 111.5 32c63.333 0 115.5-18.5 156.5-55.5s61.5-89.5 61.5-157.5c0-60.667-21.333-112.167-64-154.5s-99.334-63.5-170.001-63.5zM305.001 62c48 0 85.5 14.499 112.5 43.499s40.5 61.5 40.5 97.5c0 46.667-14.333 82.334-43 107.001s-65.667 37-111 37c-32.667 0-64-9.16699-94-27.5s-54.333-42.5-73-72.5c4.66699-49.333 20.667-92.5 48-129.5s67.333-55.5 120-55.5z" glyph-name="six" horiz-adv-x="591" unicode="&#x36;"/><glyph d="M213 0h-92l269 593h-359v74h455v-57z" glyph-name="seven" horiz-adv-x="515" unicode="&#x37;"/><glyph d="M291-12c-68 0-124.83 16.333-170.497 49s-68.5 76.667-68.5 132c0 42 15.167 78.333 45.5 109s68.166 52.667 113.499 66c-42.667 12-78 31.5-106 58.5s-42 60.833-42 101.5c0 56 22.667 98.833 68 128.5s98.666 44.5 159.999 44.5 114.833-14.833 160.5-44.5 68.5-72.5 68.5-128.5c0-40.667-14-74.5-42-101.5s-63.667-46.5-107-58.5c45.333-13.333 83.166-35.333 113.499-66s45.5-67 45.5-109c0-54.667-22.833-98.5-68.5-131.5s-102.5-49.5-170.5-49.5zM291.003 378c13.333 2 26.833 5.33203 40.5 9.99902s29.167 11.167 46.5 19.5 31.333 20 42 35 16 31.833 16 50.5c0 33.333-13.833 60-41.5 80s-62.167 30-103.5 30c-42 0-76.667-10-104-30s-41-46.667-41-80c0-18.667 5.33301-35.5 16-50.5s24.667-26.667 42-35 32.833-14.666 46.5-18.999 27.167-7.83301 40.5-10.5zM291.003 61.999c42.667 0 79.168 10.667 109.501 32s45.5 49.333 45.5 84c0 26.667-10.5 50.167-31.5 70.5s-42.333 34.666-64 42.999-41.5 13.5-59.5 15.5c-18-2-37.833-7.16699-59.5-15.5s-43.167-22.666-64.5-42.999-32-43.833-32-70.5c0-34.667 15.167-62.667 45.5-84s67.166-32 110.499-32z" glyph-name="eight" horiz-adv-x="581" unicode="&#x38;"/><glyph d="M269-11c-76.667 0-138.334 26.668-185.001 80.001l42 62c38.667-45.333 86.334-68 143.001-68 42.667 0 78.667 13.333 108 40s50 59 62 97 18 79.333 18 124c0 12-.333008 21-1 27-16.667-26.667-42.334-50.667-77.001-72s-71.667-32-111-32c-63.333 0-115.666 18.5-156.999 55.5s-62 89.5-62 157.5c0 60 21.333 111.333 64 154s99 64 169 64c45.333 0 85-9.33301 119-28s60.833-44.334 80.5-77.001 34.334-69 44.001-109 14.5-83.667 14.5-131c0-62.667-9.33301-119.167-28-169.5s-48.834-92-90.501-125-92.5-49.5-152.5-49.5zM287 319.001c32.667 0 64.167 9.00098 94.5 27.001s54.166 42 71.499 72c-4 49.333-19.667 92.666-47 129.999s-67.333 56-120 56c-47.333 0-84.666-14.667-111.999-44s-41-61.666-41-96.999c0-46.667 14.333-82.334 43-107.001s65.667-37 111-37z" glyph-name="nine" horiz-adv-x="591" unicode="&#x39;"/><glyph d="M115 380c-15.333 0-28.333 5.33301-39 16s-16 23.667-16 39 5.33301 28.333 16 39 23.667 16 39 16 28.333-5.33301 39-16 16-23.667 16-39-5.33301-28.333-16-39-23.667-16-39-16zM115-10c-15.333 0-28.333 5.33301-39 16s-16 23.667-16 39 5.33301 28.333 16 39 23.667 16 39 16 28.333-5.33301 39-16 16-23.667 16-39-5.33301-28.333-16-39-23.667-16-39-16z" glyph-name="colon" horiz-adv-x="230" unicode="&#x3a;"/><glyph d="M115 380c-14.667 0-27.5 5.5-38.5 16.5s-16.5 23.833-16.5 38.5c0 15.333 5.33301 28.333 16 39s23.667 16 39 16 28.333-5.33301 39-16 16-23.667 16-39c0-14.667-5.5-27.5-16.5-38.5s-23.833-16.5-38.5-16.5zM176 26c0-30-7.66602-58.501-22.999-85.501s-35-48.833-59-65.5l-37 30c16 10.667 30.333 25 43 43s20 35 22 51c-4-2-8.66699-3-14-3-14 0-25.5 4.83301-34.5 14.5s-13.5 21.834-13.5 36.501c0 15.333 5.16699 28.333 15.5 39s22.833 16 37.5 16c17.333 0 32.166-6.83301 44.499-20.5s18.5-32.167 18.5-55.5z" glyph-name="semicolon" horiz-adv-x="230" unicode="&#x3b;"/><glyph d="M470 90l-441 218v53l441 219v-63l-377-183 377-182v-62z" glyph-name="less" horiz-adv-x="499" unicode="&#x3c;"/><glyph d="M470 404h-441v53h441v-53zM470 211h-441v52h441v-52z" glyph-name="equal" horiz-adv-x="499" unicode="&#x3d;"/><glyph d="M470 308l-441-218v62l376 182-376 183v63l441-219v-53z" glyph-name="greater" horiz-adv-x="499" unicode="&#x3e;"/><glyph d="M203 185c-26 22-39 48.9971-39 80.9971 0 20 4.5 38.333 13.5 55s20.167 30.334 33.5 41.001l43.5 33.5 43.5 32.5c13.333 10 24.5 22 33.5 36s13.5 29.333 13.5 46c0 26.667-10.167 48.834-30.5 66.501s-49.5 26.5-87.5 26.5c-64.667 0-117.667-27.333-159-82l-50 54c52.667 68 125 102 217 102 59.333 0 106.833-14.833 142.5-44.5s53.5-66.5 53.5-110.5c0-34-10.167-64.167-30.5-90.5s-42.5-46.5-66.5-60.5-46.167-30.667-66.5-50-30.5-39.666-30.5-60.999c0-18.667 9-35 27-49zM224-10.0029c-14.667 0-27.5 5.33301-38.5 16s-16.5 23.667-16.5 39 5.5 28.333 16.5 39 23.833 16 38.5 16 27.5-5.33301 38.5-16 16.5-23.667 16.5-39-5.5-28.333-16.5-39-23.833-16-38.5-16z" glyph-name="question" horiz-adv-x="462" unicode="&#x3f;"/><glyph d="M352-70c-90.667 0-166.169 30.166-226.502 90.499s-90.5 134.833-90.5 223.5c0 106.667 39.833 199 119.5 277s172.167 117 277.5 117c92.667 0 168.334-30.5 227.001-91.5s88-136.167 88-225.5c0-74-17.333-131.833-52-173.5s-75-62.5-121-62.5c-26.667 0-48.167 7.83301-64.5 23.5s-25.166 34.834-26.499 57.501l-1 6c-18-25.333-41.167-46.166-69.5-62.499s-57.833-24.5-88.5-24.5c-46 0-83 15-111 45s-42 69.333-42 118c0 68 24 126.833 72 176.5s102.333 74.5 163 74.5c30.667 0 57.167-7.33301 79.5-22s38.5-33.334 48.5-56.001l13 62h68l-57-271c-1.33301-8-2-15-2-21 0-16.667 4.5-29.5 13.5-38.5s20.167-13.5 33.5-13.5c25.333 0 49.666 15 72.999 45s35 75.667 35 137c0 82.667-26.167 150.5-78.5 203.5s-120.5 79.5-204.5 79.5c-96 0-179.833-36.167-251.5-108.5s-107.5-155.5-107.5-249.5c0-80.667 27.167-148 81.5-202s122.833-81 205.5-81c64.667 0 126.667 18.667 186 56l18-26c-65.333-42-134.666-63-207.999-63zM343.998 140.999c58 0 107.671 30.001 149.004 90.001l29 138c-6.66699 19.333-18.834 36.5-36.501 51.5s-39.834 22.5-66.501 22.5c-48.667 0-90.334-19.5-125.001-58.5s-52-83.167-52-132.5c0-32.667 9.16699-59.334 27.5-80.001s43.166-31 74.499-31z" glyph-name="at" horiz-adv-x="783" unicode="&#x40;"/><glyph d="M649 0h-95l-59 148h-332l-59-148h-95l268 667h103zM470 222l-141 359-142-359h283z" glyph-name="A" horiz-adv-x="658" unicode="&#x41;"/><glyph d="M382 0l-303.999.00097656v667h297c57.333 0 102.833-15.667 136.5-47s50.5-72.333 50.5-123c0-40-11.333-73.833-34-101.5s-50.334-44.834-83.001-51.501c35.333-5.33301 65.833-24 91.5-56s38.5-68 38.5-108c0-54-17.167-97.5-51.5-130.5s-81.5-49.5-141.5-49.5zM361.001 378.001c36.667 0 65 10.001 85 30.001s30 45.667 30 77-10.167 57.166-30.5 77.499-48.5 30.5-84.5 30.5h-200v-215h200zM365.001 74.002c38.667 0 69 10.333 91 31s33 48.667 33 84c0 32.667-10.833 60-32.5 82s-52.167 33-91.5 33h-204v-230h204z" glyph-name="B" horiz-adv-x="629" unicode="&#x42;"/><glyph d="M394-12c-97.333 0-178.832 32.1689-244.499 96.502s-98.5 147.166-98.5 248.499 32.833 184.166 98.5 248.499 147.167 96.5 244.5 96.5c106.667 0 191-44 253-132l-70-39c-19.333 28.667-45.333 52-78 70s-67.667 27-105 27c-73.333 0-134.5-25.5-183.5-76.5s-73.5-115.833-73.5-194.5 24.5-143.5 73.5-194.5 110.167-76.5 183.5-76.5c37.333 0 72.333 8.83301 105 26.5s58.667 41.167 78 70.5l71-39c-64.667-88-149.334-132-254.001-132z" glyph-name="C" horiz-adv-x="676" unicode="&#x43;"/><glyph d="M306 0l-228 .00097656v667h228c102 0 184.5-31.667 247.5-95s94.5-143 94.5-239c0-96.667-31.5-176.334-94.5-239.001s-145.5-94-247.5-94zM306 74.001c78.667 0 141 24.667 187 74s69 111 69 185c0 74.667-22.667 136.667-68 186s-108 74-188 74h-145v-519h145z" glyph-name="D" horiz-adv-x="700" unicode="&#x44;"/><glyph d="M515 0h-437v667h437v-74h-354v-215h347v-74h-347v-230h354v-74z" glyph-name="E" horiz-adv-x="569" unicode="&#x45;"/><glyph d="M161 0h-83v667h437v-74h-354v-215h347v-74h-347v-304z" glyph-name="F" horiz-adv-x="550" unicode="&#x46;"/><glyph d="M394-13c-96.667 0-178.001 32.168-244.001 96.501s-99 147.5-99 249.5 33 185 99 249 147.333 96 244 96c105.333 0 191.666-41.667 258.999-125l-66-41c-21.333 28-49.166 50.333-83.499 67s-70.833 25-109.5 25c-73.333 0-134.5-25.5-183.5-76.5s-73.5-115.833-73.5-194.5 24.5-143.667 73.5-195 110.167-77 183.5-77c36.667 0 70.834 7.16699 102.501 21.5s57.167 31.166 76.5 50.499v136h-229v74h312v-241c-68.667-76.667-156-115-262-115z" glyph-name="G" horiz-adv-x="713" unicode="&#x47;"/><glyph d="M634 0h-83v306h-390v-306h-83v667h83v-287h390v287h83v-667z" glyph-name="H" horiz-adv-x="712" unicode="&#x48;"/><glyph d="M161 0h-83v667h83v-667z" glyph-name="I" horiz-adv-x="239" unicode="&#x49;"/><glyph d="M185-12c-72 0-130 25.666-174 76.999l43 63c36.667-44 78.667-66 126-66 40.667 0 73.167 12.833 97.5 38.5s36.5 59.5 36.5 101.5v465h83v-466c0-69.333-19.667-122.166-59-158.499s-90.333-54.5-153-54.5z" glyph-name="J" horiz-adv-x="475" unicode="&#x4a;"/><glyph d="M584 0h-103l-253 300-67-76v-224h-83v667h83v-345l295 345h104l-278-317z" glyph-name="K" horiz-adv-x="601" unicode="&#x4b;"/><glyph d="M471 0h-393v667h83v-593h310v-74z" glyph-name="L" horiz-adv-x="510" unicode="&#x4c;"/><glyph d="M731 0h-83v549l-227-549h-34l-226 549v-549h-83v667h119l207-502 208 502h119v-667z" glyph-name="M" horiz-adv-x="809" unicode="&#x4d;"/><glyph d="M630 0h-80l-389 532v-532h-83v667h85l384-521v521h83v-667z" glyph-name="N" horiz-adv-x="708" unicode="&#x4e;"/><glyph d="M382-12c-98 0-177.667 32.667-239 98s-92 147.666-92 246.999 30.667 181.666 92 246.999 141 98 239 98c97.333 0 176.833-32.667 238.5-98s92.5-147.666 92.5-246.999-30.833-181.666-92.5-246.999-141.167-98-238.5-98zM382 62c73.333 0 132.5 25.5 177.5 76.5s67.5 115.833 67.5 194.5c0 79.333-22.5 144.333-67.5 195s-104.167 76-177.5 76c-74 0-133.333-25.333-178-76s-67-115.667-67-195c0-78.667 22.333-143.5 67-194.5s104-76.5 178-76.5z" glyph-name="O" horiz-adv-x="765" unicode="&#x4f;"/><glyph d="M161 0l-83 .00195312v667h268c64.667 0 115.667-19.333 153-58s56-86.334 56-143.001-18.833-104.334-56.5-143.001-88.5-58-152.5-58h-185v-265zM336 339.002c39.333 0 71.333 11.833 96 35.5s37 54.167 37 91.5-12.333 67.833-37 91.5-56.667 35.5-96 35.5h-175v-254h175z" glyph-name="P" horiz-adv-x="587" unicode="&#x50;"/><glyph d="M382-12c-98 0-177.667 32.668-239 98.001s-92 147.666-92 246.999 30.667 181.666 92 246.999 141 98 239 98c97.333 0 176.833-32.667 238.5-98s92.5-147.666 92.5-246.999-30.667-181.333-92-246l64-68-58-50-65 69c-52-33.333-112-50-180-50zM382 62.001c47.333 0 89.667 11.333 127 34l-95 103 58 49 94-102c40.667 50 61 112.333 61 187 0 79.333-22.5 144.333-67.5 195s-104.167 76-177.5 76c-74 0-133.333-25.333-178-76s-67-115.667-67-195c0-78.667 22.333-143.5 67-194.5s104-76.5 178-76.5z" glyph-name="Q" horiz-adv-x="765" unicode="&#x51;"/><glyph d="M562 0l-98 .00097656-170 265h-133v-265h-83v667h268c62 0 112.333-18.333 151-55s58-85.334 58-146.001c0-57.333-16.667-103-50-137s-74.333-53-123-57zM336 338.001c39.333 0 71.333 12 96 36s37 54.667 37 92-12.333 67.833-37 91.5-56.667 35.5-96 35.5h-175v-255h175z" glyph-name="R" horiz-adv-x="608" unicode="&#x52;"/><glyph d="M294-12c-108 0-193.334 35.3301-256.001 105.997l49 63c56.667-63.333 126.667-95 210-95 54 0 93.667 11.5 119 34.5s38 49.833 38 80.5c0 23.333-7.33301 43-22 59s-33.5 28.5-56.5 37.5-48.667 17.167-77 24.5-56.5 15.5-84.5 24.5-53.5 19.833-76.5 32.5-41.833 30.667-56.5 54-22 51-22 83c0 54.667 21.667 99.167 65 133.5s98 51.5 164 51.5c99.333 0 178.333-31 237-93l-50-61c-48.667 53.333-113 80-193 80-40 0-72.833-9.83301-98.5-29.5s-38.5-45.167-38.5-76.5c0-23.333 9.83301-42.666 29.5-57.999s44-26.666 73-33.999 60.667-16.5 95-27.5 66-22.667 95-35 53.333-32.166 73-59.499 29.5-60.333 29.5-99c0-54.667-20.167-101-60.5-139s-102.166-57-185.499-57z" glyph-name="S" horiz-adv-x="586" unicode="&#x53;"/><glyph d="M326 0h-83v593h-211v74h506v-74h-212v-593z" glyph-name="T" horiz-adv-x="570" unicode="&#x54;"/><glyph d="M350-12c-88.667 0-156.169 24.167-202.502 72.5s-69.5 114.5-69.5 198.5v408h83v-406c0-62 16.333-110.667 49-146s79.334-53 140.001-53 107.334 17.667 140.001 53 49 84 49 146v406h83v-407c0-84.667-23.167-151.167-69.5-199.5s-113.833-72.5-202.5-72.5z" glyph-name="U" horiz-adv-x="700" unicode="&#x55;"/><glyph d="M380 0h-103l-268 667h95l225-576 225 576h95z" glyph-name="V" horiz-adv-x="658" unicode="&#x56;"/><glyph d="M678 0h-90l-147 538-147-538h-90l-190 667h92l148-556 153 556h69l153-556 147 556h92z" glyph-name="W" horiz-adv-x="883" unicode="&#x57;"/><glyph d="M639 0h-100l-213 284-213-284h-101l260 342-245 325h101l198-267 197 267h101l-244-324z" glyph-name="X" horiz-adv-x="652" unicode="&#x58;"/><glyph d="M355 0h-83v282l-263 385h97l207-310 207 310h97l-262-385v-282z" glyph-name="Y" horiz-adv-x="626" unicode="&#x59;"/><glyph d="M536 0h-488v69l375 524h-375v74h481v-69l-375-524h382v-74z" glyph-name="Z" horiz-adv-x="585" unicode="&#x5a;"/><glyph d="M226-190h-186v868h186v-55h-128v-758h128v-55z" glyph-name="bracketleft" horiz-adv-x="243" unicode="&#x5b;"/><glyph d="M237-20l-237 707h59l237-707h-59z" glyph-name="backslash" horiz-adv-x="296" unicode="&#x5c;"/><glyph d="M203-190h-186v55h128v758h-128v55h186v-868z" glyph-name="bracketright" horiz-adv-x="243" unicode="&#x5d;"/><glyph d="M413 333h-62l-135 279-135-279h-62l169 334h57z" glyph-name="asciicircum" horiz-adv-x="432" unicode="&#x5e;"/><glyph d="M567-95h-570v55h570v-55z" glyph-name="underscore" horiz-adv-x="564" unicode="&#x5f;"/><glyph d="M226 556h-57l-169 144h78z" glyph-name="grave" horiz-adv-x="226" unicode="&#x60;"/><glyph d="M452 0l-74.999-.00097656v55c-40.667-44.667-94-67-160-67-44.667 0-84 14.333-118 43s-51 67.667-51 117c0 50.667 16.833 89.834 50.5 117.501s73.167 41.5 118.5 41.5c68.667 0 122-22 160-66v87c0 32-11.333 57-34 75s-52 27-88 27c-56.667 0-106-22.333-148-67l-35 52c51.333 53.333 115.666 80 192.999 80 55.333 0 100.333-13.333 135-40s52-67.667 52-123v-332zM244.001 41.999c60 0 104.333 20.001 133 60.001v91c-28.667 40-73 60-133 60-34.667 0-63.167-9.83301-85.5-29.5s-33.5-45.167-33.5-76.5c0-30.667 11.167-55.834 33.5-75.501s50.833-29.5 85.5-29.5z" glyph-name="a" horiz-adv-x="527" unicode="&#x61;"/><glyph d="M150 131c13.333-21.333 33.5-39.334 60.5-54.001s54.833-22 83.5-22c48 0 86 17.333 114 52s42 79.334 42 134.001-14 99.5-42 134.5-66 52.5-114 52.5c-28.667 0-56.5-7.5-83.5-22.5s-47.167-33.5-60.5-55.5v-219zM150-.00097656h-75.001v667h75v-257c42 56.667 96.333 85 163 85 63.333 0 115-23.167 155-69.5s60-107.833 60-184.5c0-77.333-19.833-138.833-59.5-184.5s-91.5-68.5-155.5-68.5c-67.333 0-121.666 28-162.999 84v-72z" glyph-name="b" horiz-adv-x="575" unicode="&#x62;"/><glyph d="M288-12c-71.333 0-129.333 24.168-174 72.501s-67 108.833-67 181.5 22.333 133 67 181 102.667 72 174 72c74.667 0 133.667-28 177-84l-50-46c-30.667 42-71.667 63-123 63-50.667 0-91.167-17.333-121.5-52s-45.5-79.334-45.5-134.001 15.167-99.5 45.5-134.5 70.833-52.5 121.5-52.5 91.667 21 123 63l50-46c-43.333-56-102.333-84-177-84z" glyph-name="c" horiz-adv-x="495" unicode="&#x63;"/><glyph d="M500 0h-75.001v72c-41.333-56-95.666-84-162.999-84-64 0-115.833 22.833-155.5 68.5s-59.5 107.167-59.5 184.5c0 76.667 19.833 138.167 59.5 184.5s91.5 69.5 155.5 69.5c66.667 0 121-28.333 163-85v257h75v-667zM279.999 55c29.333 0 57.333 7.33398 84 22.001s47 32.667 61 54v219c-14 22-34.5 40.5-61.5 55.5s-54.833 22.5-83.5 22.5c-47.333 0-85-17.5-113-52.5s-42-79.833-42-134.5 14-99.334 42-134.001 65.667-52 113-52z" glyph-name="d" horiz-adv-x="575" unicode="&#x64;"/><glyph d="M293-12c-72 0-130.999 23.5-176.999 70.5s-69 108.167-69 183.5c0 70.667 22.667 130.5 68 179.5s102 73.5 170 73.5c71.333 0 127.833-24.5 169.5-73.5s62.5-110.833 62.5-185.5v-19h-391c3.33301-47.333 20.666-87 51.999-119s72-48 122-48c60 0 109.667 20.333 149 61l36-49c-49.333-49.333-113.333-74-192-74zM443.001 272c-.666992 41.333-14.667 78.5-42 111.5s-66.333 49.5-117 49.5c-48 0-85.833-16.333-113.5-49s-42.5-70-44.5-112h317z" glyph-name="e" horiz-adv-x="563" unicode="&#x65;"/><glyph d="M171 0h-75v417h-80v66h80v37c0 49.333 12.5 87.833 37.5 115.5s59.167 41.5 102.5 41.5c41.333 0 75.333-12.333 102-37l-31-49c-18 16-38 24-60 24-24.667 0-43.5-8.16699-56.5-24.5s-19.5-39.833-19.5-70.5v-37h98v-66h-98v-417z" glyph-name="f" horiz-adv-x="283" unicode="&#x66;"/><glyph d="M269-196c-42.667 0-78.999 5.16797-108.999 15.501s-58.667 29.166-86 56.499l38 56c36.667-44 89-66 157-66 44.667 0 81.667 11.833 111 35.5s44 60.167 44 109.5v69c-18-25.333-41.333-46-70-62s-59.334-24-92.001-24c-64 0-115.833 22.5-155.5 67.5s-59.5 105.833-59.5 182.5 19.833 137.667 59.5 183 91.5 68 155.5 68c66 0 120-28.333 162-85v73h75v-469c0-74-21.667-127.5-65-160.5s-98.333-49.5-165-49.5zM280.001 60.001c28.667 0 56.5 7.66699 83.5 23s47.167 34 60.5 56v211c-13.333 22-33.333 40.5-60 55.5s-54.667 22.5-84 22.5c-48 0-85.833-17-113.5-51s-41.5-78.333-41.5-133c0-54 14-98.167 42-132.5s65.667-51.5 113-51.5z" glyph-name="g" horiz-adv-x="574" unicode="&#x67;"/><glyph d="M477 0l-75.002.00097656v318c0 40-9.33301 68.333-28 85s-45.667 25-81 25c-27.333 0-54.166-7.33301-80.499-22s-47.166-32.334-62.499-53.001v-353h-75v667h75v-254c18.667 22 43.667 41.167 75 57.5s64 24.5 98 24.5c102.667 0 154-51.333 154-154v-341z" glyph-name="h" horiz-adv-x="552" unicode="&#x68;"/><glyph d="M112 552c-13.333 0-25 4.83301-35 14.5s-15 21.5-15 35.5 5 26 15 36 21.667 15 35 15c14 0 26-5 36-15s15-22 15-36-5-25.833-15-35.5-22-14.5-36-14.5zM150 0h-75v483h75v-483z" glyph-name="i" horiz-adv-x="225" unicode="&#x69;"/><glyph d="M112 552c-13.333 0-25 4.83301-35 14.5s-15 21.5-15 35.5 5 26 15 36 21.667 15 35 15c14 0 26-5 36-15s15-22 15-36-5-25.833-15-35.5-22-14.5-36-14.5zM7-196c-39.333 0-74.667 12.001-106 36.001l27 57c20.667-20.667 43.667-31 69-31 24 0 43 7.16699 57 21.5s21 36.166 21 65.499v530h75v-530c0-47.333-12.333-84-37-110s-60-39-106-39z" glyph-name="j" horiz-adv-x="225" unicode="&#x6a;"/><glyph d="M500 0h-96l-174 217-80-79v-138h-75v667h75v-441l254 257h95l-214-219z" glyph-name="k" horiz-adv-x="514" unicode="&#x6b;"/><glyph d="M150 0h-75v667h75v-667z" glyph-name="l" horiz-adv-x="225" unicode="&#x6c;"/><glyph d="M733 0l-75 .00195312v328c0 66.667-29.667 100-89 100-24 0-48-7.33301-72-22s-42.667-32-56-52v-354h-75v328c0 66.667-29.667 100-89 100-23.333 0-46.833-7.33301-70.5-22s-42.5-32.334-56.5-53.001v-353h-75v483h75v-70c12 18.667 33 37 63 55s61 27 93 27c35.333 0 64-8.33301 86-25s36.667-38.334 44-65.001c14.667 24 37 45 67 63s61.667 27 95 27c90 0 135-48.667 135-146v-349z" glyph-name="m" horiz-adv-x="808" unicode="&#x6d;"/><glyph d="M476 0l-74.998.00097656v316c0 40.667-9.33301 69.5-28 86.5s-45.334 25.5-80.001 25.5c-28 0-55.167-7.33301-81.5-22s-46.833-32.334-61.5-53.001v-353h-75v483h75v-70c18.667 22 43.667 41.167 75 57.5s63.666 24.5 96.999 24.5c102.667 0 154-52 154-156v-339z" glyph-name="n" horiz-adv-x="551" unicode="&#x6e;"/><glyph d="M286-12c-72 0-129.833 24.333-173.5 73s-65.5 109-65.5 181 21.833 132.167 65.5 180.5 101.5 72.5 173.5 72.5 129.833-24.167 173.5-72.5 65.5-108.5 65.5-180.5-21.833-132.333-65.5-181-101.5-73-173.5-73zM286 55c49.333 0 88.333 18.166 117 54.499s43 80.5 43 132.5-14.333 96-43 132-67.667 54-117 54-88.5-18.167-117.5-54.5-43.5-80.166-43.5-131.499c0-52 14.5-96.167 43.5-132.5s68.167-54.5 117.5-54.5z" glyph-name="o" unicode="&#x6f;"/><glyph d="M313-12c-68 0-122.333 28.334-163 85.001v-257h-75v667h75v-72c18 25.333 41.333 45.666 70 60.999s59.667 23 93 23c64 0 115.833-22.833 155.5-68.5s59.5-107.167 59.5-184.5-19.833-139-59.5-185-91.5-69-155.5-69zM294 55.001c47.333 0 85 17.499 113 52.499s42 79.833 42 134.5-14 99.334-42 134.001-65.667 52-113 52c-28.667 0-56.5-7.5-83.5-22.5s-47.167-33.167-60.5-54.5v-218c13.333-22 33.5-40.5 60.5-55.5s54.833-22.5 83.5-22.5z" glyph-name="p" unicode="&#x70;"/><glyph d="M277 55c29.333 0 57.5 7.50098 84.5 22.501s46.833 33.5 59.5 55.5v218c-12.667 21.333-32.5 39.5-59.5 54.5s-55.167 22.5-84.5 22.5c-47.333 0-84.833-17.333-112.5-52s-41.5-79.334-41.5-134.001 13.833-99.5 41.5-134.5 65.167-52.5 112.5-52.5zM259-11.999c-64 0-115.833 22.999-155.5 68.999s-59.5 107.667-59.5 185 19.833 138.833 59.5 184.5 91.5 68.5 155.5 68.5c33.333 0 64.333-7.66699 93-23s51.667-35.666 69-60.999v72h75v-667h-75v257c-40.667-56.667-94.667-85-162-85z" glyph-name="q" unicode="&#x71;"/><glyph d="M150 0h-75v483h75v-78c44.667 58.667 98.334 88 161.001 88v-77c-9.33301 2-19.333 3-30 3-22.667 0-47.334-8-74.001-24s-45.667-33.667-57-53v-342z" glyph-name="r" horiz-adv-x="330" unicode="&#x72;"/><glyph d="M228-12c-82 0-147 25.3389-195 76.0059l39 54c16.667-19.333 39.5-35.666 68.5-48.999s59.167-20 90.5-20c36 0 64 7.66699 84 23s30 35.333 30 60c0 21.333-10.333 38.166-31 50.499s-45.5 21.666-74.5 27.999-58.167 13.666-87.5 21.999-54.333 22.666-75 42.999-31 47.166-31 80.499c0 39.333 16.167 72.333 48.5 99s76.166 40 131.499 40c72.667 0 132.334-23.333 179.001-70l-35-52c-34 40.667-82 61-144 61-32.667 0-58.667-7.16699-78-21.5s-29-32.5-29-54.5c0-19.333 10.333-34.5 31-45.5s45.5-19.667 74.5-26 58.167-13.833 87.5-22.5 54.333-23.834 75-45.501 31-49.834 31-84.501c0-42.667-16.667-77.667-50-105s-80-41-140-41z" glyph-name="s" horiz-adv-x="465" unicode="&#x73;"/><glyph d="M197-12c-35.333 0-62 9.66699-80 29s-27 47.333-27 84v316h-80v66h80v132h75v-132h98v-66h-98v-300c0-18.667 4.16699-33.667 12.5-45s20.5-17 36.5-17c22 0 39 6.66699 51 20l22-56c-22-20.667-52-31-90-31z" glyph-name="t" horiz-adv-x="294" unicode="&#x74;"/><glyph d="M476 0h-74.999v68c-20-22.667-45.167-41.667-75.5-57s-62.5-23-96.5-23c-102.667 0-154 51.333-154 154v341h75v-318c0-40 9.16699-68.333 27.5-85s45.166-25 80.499-25c28 0 55.167 7 81.5 21s46.833 31.333 61.5 52v355h75v-483z" glyph-name="u" horiz-adv-x="551" unicode="&#x75;"/><glyph d="M286 0h-82l-201 483h81l161-396 160 396h82z" glyph-name="v" horiz-adv-x="490" unicode="&#x76;"/><glyph d="M568 0h-75l-126 388-126-388h-75l-154 483h78l118-385 127 385h64l127-385 118 385h78z" glyph-name="w" horiz-adv-x="734" unicode="&#x77;"/><glyph d="M475 0h-87l-145 198-145-198h-86l185 248-175 235h87l134-184 134 184h87l-175-235z" glyph-name="x" horiz-adv-x="486" unicode="&#x78;"/><glyph d="M48-189l12.001 68.001c12-5.33301 25.667-8 41-8 17.333 0 31.666 3.66699 42.999 11s21 20.666 29 39.999l32 73-202 488h81l161-396 160 396h82l-242-581c-26.667-64-74-96.667-142-98-20 0-38.333 2.33301-55 7z" glyph-name="y" horiz-adv-x="490" unicode="&#x79;"/><glyph d="M420 0h-368v58l266 359h-266v66h364v-57l-268-361h272v-65z" glyph-name="z" horiz-adv-x="472" unicode="&#x7a;"/><glyph d="M243-190l-61-.00195312c-33.333 0-62.5 12.5-87.5 37.5s-37.5 57.167-37.5 96.5v206c0 20-4.5 36.5-13.5 49.5s-21.833 19.5-38.5 19.5v50c16.667 0 29.5 6.5 38.5 19.5s13.5 29.5 13.5 49.5v205c0 40 12.5 72.5 37.5 97.5s54.167 37.5 87.5 37.5h61v-55h-61c-18 0-33.5-7.5-46.5-22.5s-19.5-34.167-19.5-57.5v-211c0-45.333-15.333-74.666-46-87.999 30.667-13.333 46-42.666 46-87.999v-211c0-22.667 6.5-41.667 19.5-57s28.5-23 46.5-23h61v-55z" glyph-name="braceleft" horiz-adv-x="260" unicode="&#x7b;"/><glyph d="M133-20h-55v707h55v-707z" glyph-name="bar" horiz-adv-x="211" unicode="&#x7c;"/><glyph d="M17-190v55.002h61c18 0 33.5 7.66699 46.5 23s19.5 34.333 19.5 57v211c0 45.333 15.333 74.666 46 87.999-30.667 13.333-46 42.666-46 87.999v211c0 23.333-6.5 42.5-19.5 57.5s-28.5 22.5-46.5 22.5h-61v55h61c33.333 0 62.5-12.5 87.5-37.5s37.5-57.5 37.5-97.5v-205c0-20 4.5-36.5 13.5-49.5s21.833-19.5 38.5-19.5v-50c-16.667 0-29.5-6.5-38.5-19.5s-13.5-29.5-13.5-49.5v-206c0-39.333-12.5-71.5-37.5-96.5s-54.167-37.5-87.5-37.5h-61z" glyph-name="braceright" horiz-adv-x="260" unicode="&#x7d;"/><glyph d="M419 667l56-7.00098c-3.33301-34-7.5-63.667-12.5-89s-12.5-50-22.5-74-23.667-42.333-41-55-38-19-62-19c-23.333 0-42.666 6.5-57.999 19.5s-26.833 28.833-34.5 47.5-14.667 37.334-21 56.001-14.166 34.5-23.499 47.5-21 19.5-35 19.5c-42 0-69.333-63.667-82-191l-56 7c3.33301 33.333 7.66602 62.833 12.999 88.5s13 50.5 23 74.5 23.667 42.333 41 55 37.666 19 60.999 19 42.833-6.5 58.5-19.5 27.334-29 35.001-48 14.5-37.833 20.5-56.5 13.667-34.5 23-47.5 21-19.5 35-19.5c43.333 0 70.666 64 81.999 192z" glyph-name="asciitilde" horiz-adv-x="503" unicode="&#x7e;"/><glyph glyph-name="nbspace" horiz-adv-x="258" unicode="&#xa0;"/><glyph d="M69-184l15 480h62l16-480h-93zM60 438c0 14.667 5.5 27.5 16.5 38.5s23.833 16.5 38.5 16.5 27.5-5.5 38.5-16.5 16.5-23.833 16.5-38.5-5.33301-27.5-16-38.5-23.667-16.5-39-16.5-28.333 5.5-39 16.5-16 23.833-16 38.5z" glyph-name="exclamdown" horiz-adv-x="230" unicode="&#xa1;"/><glyph d="M252-100l.00097656 91.001c-61.333 8-110.833 35.167-148.5 81.5s-56.5 102.833-56.5 169.5c0 65.333 18.833 121.166 56.5 167.499s87.167 73.833 148.5 82.5v73h59v-71c62.667-5.33301 114-33 154-83l-50-46c-26.667 36-61.334 56.667-104.001 62v-371c42 4 76.667 24.667 104 62l50-46c-38.667-50-90-77.667-154-83v-89h-59zM125.001 242.001c0-46.667 11.333-86.667 34-120s53.667-54.333 93-63v364c-39.333-8.66699-70.333-29.5-93-62.5s-34-72.5-34-118.5z" glyph-name="cent" horiz-adv-x="495" unicode="&#xa2;"/><glyph d="M19 268l.00097656 53.998h106c-18.667 21.333-31.5 36.5-38.5 45.5s-15.167 24.333-24.5 46-14 43.834-14 66.501c0 54.667 22 101.167 66 139.5s96.667 57.5 158 57.5c45.333 0 85.666-9.83301 120.999-29.5s62.333-47.167 81-82.5l-67-40c-9.33301 22.667-25.5 42-48.5 58s-49.167 24-78.5 24c-39.333 0-73-11.667-101-35s-42-54.333-42-93c0-17.333 3-34 9-50s11.833-28.333 17.5-37 15.167-21.167 28.5-37.5 22-27.166 26-32.499h150v-54h-122c4.66699-15.333 7-29.666 7-42.999 0-52-25.333-96-76-132 16.667 6 34 9 52 9 22 0 47.5-6.83301 76.5-20.5s52.833-20.5 71.5-20.5c20.667 0 39.667 4.16699 57 12.5s30 17.5 38 27.5l36-67c-32.667-31.333-77.667-47-135-47-31.333 0-63 7.66699-95 23s-60 23-84 23c-28 0-67.333-13.333-118-40l-30 62c42.667 19.333 75.5 42.166 98.5 68.499s34.5 54.5 34.5 84.5c0 20-5 40-15 60h-145z" glyph-name="sterling" horiz-adv-x="518" unicode="&#xa3;"/><glyph d="M299 93c-57.333 0-107 15.666-149 46.999l-75-76-47 45 77 77c-30 42.667-45 91.667-45 147 0 57.333 15.333 106.333 46 147l-79 79 47 46 78-79c41.333 30.667 90.333 46 147 46 57.333 0 106-15.333 146-46l78 78 46-46-78-78c31.333-42 47-91 47-147 0-55.333-15.333-104.666-46-147.999l77-76-46-45-77 75c-41.333-30.667-90.333-46-147-46zM299 160.999c50 0 89.5 16.833 118.5 50.5s43.5 74.167 43.5 121.5-14.5 87.5-43.5 120.5-68.5 49.5-118.5 49.5-89.5-16.667-118.5-50-43.5-73.333-43.5-120c0-47.333 14.5-87.833 43.5-121.5s68.5-50.5 118.5-50.5z" glyph-name="currency" horiz-adv-x="598" unicode="&#xa4;"/><glyph d="M355 0h-83v122h-250v53h250v107h-250v52h214l-227 333h97l207-310 207 310h97l-227-333h215v-52h-250v-107h250v-53h-250v-122z" glyph-name="yen" horiz-adv-x="626" unicode="&#xa5;"/><glyph d="M133-20h-55v316h55v-316zM133 371h-55v316h55v-316z" glyph-name="brokenbar" horiz-adv-x="211" unicode="&#xa6;"/><glyph d="M418 315c0-58-30.666-100.666-91.999-127.999 61.333-23.333 92-63.666 92-120.999 0-46-17.333-82-52-108s-80.667-39-138-39c-76 0-140.667 26-194 78l38 49c40-48 92-72 156-72 35.333 0 63.666 7.66699 84.999 23s32 36.666 32 63.999c0 22.667-10.333 40.5-31 53.5s-45.5 23-74.5 30-58.167 14.667-87.5 23-54.333 22.666-75 42.999-31 46.833-31 79.5c0 33.333 10.833 60.833 32.5 82.5s49.167 36.834 82.5 45.501c-76.667 24-115 65-115 123 0 38.667 16.167 71 48.5 97s76.166 39 131.499 39c78 0 137.333-23.667 178-71l-34-45c-33.333 40-80.666 60-141.999 60-32 0-58.167-7.33301-78.5-22s-30.5-34-30.5-58c0-20.667 10.333-36.834 31-48.501s45.5-20.5 74.5-26.5 58.167-13.333 87.5-22 54.333-23.667 75-45 31-49.333 31-84zM344.001 305.001c0 26-10.168 45.665-30.501 58.998s-47.833 24.333-82.5 33c-41.333-10.667-70.333-24-87-40s-25-35.667-25-59c0-17.333 7.33301-32.166 22-44.499s28.5-20.666 41.5-24.999 35.5-10.5 67.5-18.5c4.66699-1.33301 8.33398-2.33301 11.001-3 55.333 24 83 56.667 83 98z" glyph-name="section" horiz-adv-x="468" unicode="&#xa7;"/><glyph d="M286 604c0-12.667-4.66699-23.667-14-33s-20.333-14-33-14-23.667 4.66699-33 14-14 20.333-14 33 4.66699 23.5 14 32.5 20.333 13.5 33 13.5 23.667-4.5 33-13.5 14-19.833 14-32.5zM79 604c0-12.667-4.5-23.667-13.5-33s-19.833-14-32.5-14-23.667 4.5-33 13.5-14 20.167-14 33.5c0 12.667 4.66699 23.5 14 32.5s20.333 13.5 33 13.5 23.5-4.5 32.5-13.5 13.5-19.833 13.5-32.5z" glyph-name="dieresis" horiz-adv-x="272" unicode="&#xa8;"/><glyph d="M734 334c0-95.333-33.667-176.668-101-244.001s-148.666-101-243.999-101-176.666 33.833-243.999 101.5-101 148.834-101 243.501c0 95.333 33.667 176.666 101 243.999s148.666 101 243.999 101 176.666-33.667 243.999-101 101-148.666 101-243.999zM703 333.998c0 86.667-30.667 160.667-92 222s-135.333 92-222 92-160.667-30.667-222-92-92-135.333-92-222 30.667-160.667 92-222 135.333-92 222-92 160.667 30.667 222 92 92 135.333 92 222zM512 211.998l26-24.999c-38-44-87-66-147-66-58 0-107.167 20.5-147.5 61.5s-60.5 91.833-60.5 152.5 20.167 111.334 60.5 152.001 89.5 61 147.5 61c60 0 108.667-22 146-66l-25-24c-12.667 17.333-30.167 31.166-52.5 41.499s-45.166 15.5-68.499 15.5c-46.667 0-86.834-16.833-120.501-50.5s-50.5-76.834-50.5-129.501c0-51.333 17-94.333 51-129s74-52 120-52c24 0 46.833 5.33301 68.5 16s39.167 24.667 52.5 42z" glyph-name="copyright" horiz-adv-x="778" unicode="&#xa9;"/><glyph d="M317 326h-57.001v35c-26.667-28.667-62.334-43-107.001-43-29.333 0-55.333 9.33301-78 28s-34 44-34 76c0 32.667 11.167 58 33.5 76s48.5 27 78.5 27c44.667 0 80.334-14 107.001-42v55c0 20-7.66699 35.833-23 47.5s-34 17.5-56 17.5c-39.333 0-72.333-15.333-99-46l-25 37c34.667 36 78.334 54 131.001 54 38 0 69-9 93-27s36-46 36-84v-211zM174.999 356c37.333 0 65.666 12.666 84.999 37.999v56c-19.333 25.333-47.666 38-84.999 38-22 0-40.167-6.16699-54.5-18.5s-21.5-28.166-21.5-47.499c0-20 7.16699-36 21.5-48s32.5-18 54.5-18z" glyph-name="ordfeminine" horiz-adv-x="378" unicode="&#xaa;"/><glyph d="M409 63h-75l-160 180 160 177h75l-160-177zM265 63h-75l-160 180 160 177h75l-160-177z" glyph-name="guillemotleft" horiz-adv-x="439" unicode="&#xab;"/><glyph d="M470 457v-246h-55v193h-386v53h441z" glyph-name="logicalnot" horiz-adv-x="504" unicode="&#xac;"/><glyph d="M270 209h-240v66h240v-66z" glyph-name="uni00AD" horiz-adv-x="300" unicode="&#xad;"/><glyph d="M459 465c0-58.667-20.667-108.667-62-150s-91.333-62-150-62-108.667 20.667-150 62-62 91.333-62 150 20.667 108.667 62 150 91.333 62 150 62c59.333 0 109.5-20.5 150.5-61.5s61.5-91.167 61.5-150.5zM430 465c0 50.667-17.833 93.834-53.5 129.501s-78.834 53.5-129.501 53.5c-51.333 0-94.833-17.833-130.5-53.5s-53.5-78.834-53.5-129.501 18-94 54-130 79.333-54 130-54 93.834 18 129.501 54 53.5 79.333 53.5 130zM345 343l-40-.00097656-63 96h-44v-96h-32v243h99c21.333 0 39.5-6.83301 54.5-20.5s22.5-31.5 22.5-53.5c0-23.333-7.5-41.166-22.5-53.499s-28.167-18.5-39.5-18.5zM309 511.999c0 12.667-4.5 23.5-13.5 32.5s-19.167 13.5-30.5 13.5h-67v-90h67c10.667 0 20.667 4.33301 30 13s14 19 14 31z" glyph-name="registered" horiz-adv-x="494" unicode="&#xae;"/><glyph d="M363 572h-363v48h363v-48z" glyph-name="macron" horiz-adv-x="363" unicode="&#xaf;"/><glyph d="M267 555c0-34-12-62.833-36-86.5s-53-35.5-87-35.5c-33.333 0-61.833 11.833-85.5 35.5s-35.5 52.5-35.5 86.5c0 33.333 11.833 62 35.5 86s52.167 36 85.5 36c34 0 63-12 87-36s36-52.667 36-86zM219 555c0 20-7.33301 37.333-22 52s-32.334 22-53.001 22c-20 0-37-7.33301-51-22s-21-32-21-52c0-20.667 7-38.167 21-52.5s31-21.5 51-21.5c20.667 0 38.334 7.16699 53.001 21.5s22 31.833 22 52.5z" glyph-name="degree" horiz-adv-x="290" unicode="&#xb0;"/><glyph d="M470 324h-192v-214h-57v214h-192v52h192v207h57v-207h192v-52zM470 0h-441v52h441v-52z" glyph-name="plusminus" horiz-adv-x="499" unicode="&#xb1;"/><glyph d="M341 421h-291.001v45c82.667 58.667 141.5 105.5 176.5 140.5s52.5 67.833 52.5 98.5c0 24-8.33301 42.167-25 54.5s-36.667 18.5-60 18.5c-48.667 0-86-17.333-112-52l-33 38c33.333 42 82.333 63 147 63 40 0 73.833-10.167 101.5-30.5s41.5-49.5 41.5-87.5c0-37.333-16.667-74.5-50-111.5s-83.666-79.5-150.999-127.5h203v-49z" glyph-name="twosuperior" horiz-adv-x="388" unicode="&#xb2;"/><glyph d="M343 530c0-34.667-13.6699-62.666-41.0029-83.999s-64-32-110-32c-68.667 0-118.667 21.667-150 65l32 38c29.333-36 68-54 116-54 28.667 0 51.334 6.33301 68.001 19s25 29.667 25 51c0 46-34.667 69-104 69-22.667 0-36-.333008-40-1v50c4.66699-.666992 17.667-1 39-1 65.333 0 98 21.333 98 64 0 20-8.5 35.667-25.5 47s-38.167 17-63.5 17c-42.667 0-79-16.333-109-49l-31 36c36.667 41.333 85 62 145 62 42.667 0 77.334-9.66699 104.001-29s40-45.333 40-78c0-26.667-9-47.834-27-63.501s-38.667-25.5-62-29.5c22.667-2 44.334-11.333 65.001-28s31-39.667 31-69z" glyph-name="threesuperior" horiz-adv-x="388" unicode="&#xb3;"/><glyph d="M226 700l-169-144h-57l148 144h78z" glyph-name="acute" horiz-adv-x="226" unicode="&#xb4;"/><glyph d="M150 36l.00097656-220.001h-75v667h75v-318c0-74.667 36.667-112 110-112 27.333 0 54 7.33301 80 22s46.333 32.334 61 53.001v355h75v-370c0-38.667 15.667-58 47-58 7.33301 0 13.666.666992 18.999 2l6-65c-14.667-2.66699-28-4-40-4-58.667 0-93.334 28.667-104.001 86-18-24.667-40.667-45.167-68-61.5s-55.666-24.5-84.999-24.5c-50 0-83.667 16-101 48z" glyph-name="mu" horiz-adv-x="565" unicode="&#xb5;"/><glyph d="M378-100h-45v722h-89v-722h-45v423c-47.333 0-87.833 16.833-121.5 50.5s-50.5 74.167-50.5 121.5 16.833 87.833 50.5 121.5 74.167 50.5 121.5 50.5h179v-767z" glyph-name="paragraph" horiz-adv-x="449" unicode="&#xb6;"/><glyph d="M170 244c0-14.667-5.5-27.334-16.5-38.001s-23.833-16-38.5-16-27.5 5.33301-38.5 16-16.5 23.334-16.5 38.001 5.33301 27.5 16 38.5 23.667 16.5 39 16.5 28.333-5.5 39-16.5 16-23.833 16-38.5z" glyph-name="periodcentered" horiz-adv-x="230" unicode="&#xb7;"/><glyph d="M101-191c-42 0-75.666 9.99902-100.999 29.999l19 38c23.333-19.333 50-29 80-29 16.667 0 31 3.83301 43 11.5s18 17.834 18 30.501c0 23.333-12.333 35-37 35-15.333 0-28-5.66699-38-17l-33 19 31 84h45l-26-66c10.667 7.33301 23 11 37 11 19.333 0 35.166-6.16699 47.499-18.5s18.5-28.5 18.5-48.5c0-24-10-43.333-30-58s-44.667-22-74-22z" glyph-name="cedilla" horiz-adv-x="205" unicode="&#xb8;"/><glyph d="M175 421h-60v322l-66-69-35 37 108 110h53v-400z" glyph-name="onesuperior" horiz-adv-x="235" unicode="&#xb9;"/><glyph d="M202 318c-48.667 0-87.834 15.833-117.501 47.5s-44.5 70.834-44.5 117.501 14.833 85.834 44.5 117.501 68.834 47.5 117.501 47.5c49.333 0 88.833-15.833 118.5-47.5s44.5-70.834 44.5-117.501-14.833-85.834-44.5-117.501-69.167-47.5-118.5-47.5zM202 366c32 0 57.333 11 76 33s28 50 28 84c0 33.333-9.33301 60.833-28 82.5s-44 32.5-76 32.5c-31.333 0-56.166-10.833-74.499-32.5s-27.5-49.167-27.5-82.5c0-34 9.16699-62 27.5-84s43.166-33 74.499-33z" glyph-name="ordmasculine" horiz-adv-x="405" unicode="&#xba;"/><glyph d="M265 243l-160-180h-75l160 180-160 177h75zM409 243l-160-180h-75l160 180-160 177h75z" glyph-name="guillemotright" horiz-adv-x="439" unicode="&#xbb;"/><glyph d="M175 267h-60v322l-66-69-35 37 108 110h53v-400zM733 100h-58v-100h-59v100h-196v44l172 256h83v-251h58v-49zM616 149v198l-136-198h136zM590 667l-427-667h-55l426 667h56z" glyph-name="onequarter" horiz-adv-x="770" unicode="&#xbc;"/><glyph d="M175 267h-60v322l-66-69-35 37 108 110h53v-400zM759 0h-291.001v45c82.667 58.667 141.5 105.5 176.5 140.5s52.5 67.833 52.5 98.5c0 24-8.33301 42.167-25 54.5s-36.667 18.5-60 18.5c-48.667 0-86-17.333-112-52l-33 38c32.667 42 81.667 63 147 63 40 0 73.833-10.167 101.5-30.5s41.5-49.5 41.5-87.5c0-37.333-16.667-74.5-50-111.5s-83.666-79.5-150.999-127.5h203v-49zM589.999 667l-427-667h-55l426 667h56z" glyph-name="onehalf" horiz-adv-x="807" unicode="&#xbd;"/><glyph d="M842 100h-58v-100h-59v100h-196v44l172 256h83v-251h58v-49zM725 149v198l-136-198h136zM698 667l-427-667h-55l426 667h56zM343 376c0-34.667-13.6699-62.666-41.0029-83.999s-64-32-110-32c-68.667 0-118.667 21.667-150 65l32 38c29.333-36 68-54 116-54 28.667 0 51.334 6.33301 68.001 19s25 29.667 25 51c0 46-34.667 69-104 69-22.667 0-36-.333008-40-1v50c4.66699-.666992 17.667-1 39-1 65.333 0 98 21.333 98 64 0 20-8.5 35.667-25.5 47s-38.167 17-63.5 17c-42.667 0-79-16.333-109-49l-31 36c36.667 41.333 85 62 145 62 42.667 0 77.334-9.66699 104.001-29s40-45.333 40-78c0-26.667-9-47.834-27-63.501s-38.667-25.5-62-29.5c22.667-2 44.334-11.333 65.001-28s31-39.667 31-69z" glyph-name="threequarters" horiz-adv-x="878" unicode="&#xbe;"/><glyph d="M258 296c26-23.333 39.001-50.668 39.001-82.001 0-23.333-6.16699-44.333-18.5-63s-27.333-34.5-45-47.5l-53-37.5c-17.667-12-32.667-26.167-45-42.5s-18.5-34.166-18.5-53.499c0-26 10.167-47.833 30.5-65.5s49.166-26.5 86.499-26.5c66 0 119.333 27 160 81l49-53c-52-68-124-102-216-102-59.333 0-106.833 14.833-142.5 44.5s-53.5 66.5-53.5 110.5c0 28 6.66699 53.167 20 75.5s29.333 40.5 48 54.5 37.5 27.333 56.5 40 35.167 26.667 48.5 42 20 32 20 50c0 18.667-8.66699 34.667-26 48zM238.001 492.998c14.667 0 27.5-5.5 38.5-16.5s16.5-24.167 16.5-39.5c0-14.667-5.5-27.334-16.5-38.001s-23.833-16-38.5-16-27.5 5.33301-38.5 16-16.5 23.334-16.5 38.001c0 15.333 5.5 28.5 16.5 39.5s23.833 16.5 38.5 16.5z" glyph-name="questiondown" horiz-adv-x="394" unicode="&#xbf;"/><glyph d="M649 0h-95l-59 148h-332l-59-148h-95l268 667h103zM470 222l-141 359-142-359h283zM386 723h-57l-169 144h78z" glyph-name="Agrave" horiz-adv-x="658" unicode="&#xc0;"/><glyph d="M649 0h-95l-59 148h-332l-59-148h-95l268 667h103zM470 222l-141 359-142-359h283zM498 867l-169-144h-57l148 144h78z" glyph-name="Aacute" horiz-adv-x="658" unicode="&#xc1;"/><glyph d="M463 723h-51l-83 106-80-106h-51l95 144h72zM649 0h-95l-59 148h-332l-59-148h-95l268 667h103zM470 222l-141 359-142-359h283z" glyph-name="Acircumflex" horiz-adv-x="658" unicode="&#xc2;"/><glyph d="M649 0h-95l-59 148h-332l-59-148h-95l268 667h103zM470 222l-141 359-142-359h283zM389 721c-16.667 0-31.166 4.83301-43.499 14.5s-21.5 20.167-27.5 31.5-13.5 21.833-22.5 31.5-18.833 14.5-29.5 14.5c-14 0-25.5-7.16699-34.5-21.5s-13.5-35.833-13.5-64.5h-45c0 40 8.5 72.333 25.5 97s40.833 37 71.5 37c16 0 30.167-4.83301 42.5-14.5s21.666-20.167 27.999-31.5 14-21.833 23-31.5 18.833-14.5 29.5-14.5c14 0 25.5 7.16699 34.5 21.5s13.5 35.833 13.5 64.5h45c0-40-8.5-72.333-25.5-97s-40.833-37-71.5-37z" glyph-name="Atilde" horiz-adv-x="658" unicode="&#xc3;"/><glyph d="M480 771c0-12.667-4.66699-23.667-14-33s-20.333-14-33-14-23.667 4.66699-33 14-14 20.333-14 33 4.66699 23.5 14 32.5 20.333 13.5 33 13.5 23.667-4.5 33-13.5 14-19.833 14-32.5zM273 771c0-12.667-4.5-23.667-13.5-33s-19.833-14-32.5-14-23.667 4.66699-33 14-14 20.333-14 33 4.66699 23.5 14 32.5 20.333 13.5 33 13.5 23.5-4.5 32.5-13.5 13.5-19.833 13.5-32.5zM649 0h-95l-59 148h-332l-59-148h-95l268 667h103zM470 222l-141 359-142-359h283z" glyph-name="Adieresis" horiz-adv-x="658" unicode="&#xc4;"/><glyph d="M649 0h-95l-59 148h-332l-59-148h-95l268 667h103zM470 222l-141 359-142-359h283zM329 690c-27.333 0-50.5 9.66699-69.5 29s-28.5 42.333-28.5 69c0 27.333 9.66699 50.666 29 69.999s42.333 29 69 29 49.667-9.66699 69-29 29-42.666 29-69.999c0-26.667-9.5-49.667-28.5-69s-42.167-29-69.5-29zM329 729c16 0 29.667 5.83301 41 17.5s17 25.5 17 41.5c0 16.667-5.5 30.667-16.5 42s-24.833 17-41.5 17c-16 0-29.667-5.66699-41-17s-17-25.333-17-42c0-16 5.66699-29.833 17-41.5s25-17.5 41-17.5z" glyph-name="Aring" horiz-adv-x="658" unicode="&#xc5;"/><glyph d="M893 0h-437v148h-263l-91-148h-95l416 667h470v-74h-354v-215h347v-74h-347v-230h354v-74zM456 222v359l-222-359h222z" glyph-name="AE" horiz-adv-x="947" unicode="&#xc6;"/><glyph d="M388-187c-42.667 0-76.334 10-101.001 30l19 38c23.333-19.333 50-29 80-29 16.667 0 31 3.83301 43 11.5s18 17.834 18 30.501c0 23.333-12.333 35-37 35-15.333 0-28-5.66699-38-17l-33 19 21 59c-89.333 7.33301-163.166 42.5-221.499 105.5s-87.5 142.167-87.5 237.5c0 101.333 32.833 184.166 98.5 248.499s147.167 96.5 244.5 96.5c106.667 0 191-44 253-132l-70-39c-19.333 28.667-45.333 52-78 70s-67.667 27-105 27c-73.333 0-134.5-25.5-183.5-76.5s-73.5-115.833-73.5-194.5 24.5-143.5 73.5-194.5 110.167-76.5 183.5-76.5c37.333 0 72.333 8.83301 105 26.5s58.667 41.167 78 70.5l71-39c-63.333-85.333-144.666-129.333-243.999-132l-15-39c10.667 7.33301 23 11 37 11 19.333 0 35.166-6.16699 47.499-18.5s18.5-28.5 18.5-48.5c0-24-10-43.333-30-58s-44.667-22-74-22z" glyph-name="Ccedilla" horiz-adv-x="676" unicode="&#xc7;"/><glyph d="M515 0h-437v667h437v-74h-354v-215h347v-74h-347v-230h354v-74zM353 723h-57l-169 144h78z" glyph-name="Egrave" horiz-adv-x="569" unicode="&#xc8;"/><glyph d="M465 867l-169-144h-57l148 144h78zM515 0h-437v667h437v-74h-354v-215h347v-74h-347v-230h354v-74z" glyph-name="Eacute" horiz-adv-x="569" unicode="&#xc9;"/><glyph d="M428 723h-51l-83 106-80-106h-51l95 144h72zM515 0h-437v667h437v-74h-354v-215h347v-74h-347v-230h354v-74z" glyph-name="Ecircumflex" horiz-adv-x="569" unicode="&#xca;"/><glyph d="M446 771c0-12.667-4.66699-23.667-14-33s-20.333-14-33-14-23.667 4.66699-33 14-14 20.333-14 33 4.66699 23.5 14 32.5 20.333 13.5 33 13.5 23.667-4.5 33-13.5 14-19.833 14-32.5zM239 771c0-12.667-4.5-23.667-13.5-33s-19.833-14-32.5-14-23.667 4.66699-33 14-14 20.333-14 33 4.66699 23.5 14 32.5 20.333 13.5 33 13.5 23.5-4.5 32.5-13.5 13.5-19.833 13.5-32.5zM515 0h-437v667h437v-74h-354v-215h347v-74h-347v-230h354v-74z" glyph-name="Edieresis" horiz-adv-x="569" unicode="&#xcb;"/><glyph d="M161 0h-83v667h83v-667zM176 723h-57l-169 144h78z" glyph-name="Igrave" horiz-adv-x="239" unicode="&#xcc;"/><glyph d="M161 0h-83v667h83v-667zM289 867l-169-144h-57l148 144h78z" glyph-name="Iacute" horiz-adv-x="239" unicode="&#xcd;"/><glyph d="M253 723h-51l-83 106-80-106h-51l95 144h72zM161 0h-83v667h83v-667z" glyph-name="Icircumflex" horiz-adv-x="239" unicode="&#xce;"/><glyph d="M270 771c0-12.667-4.66699-23.667-14-33s-20.333-14-33-14-23.667 4.66699-33 14-14 20.333-14 33 4.66699 23.5 14 32.5 20.333 13.5 33 13.5 23.667-4.5 33-13.5 14-19.833 14-32.5zM63 771c0-12.667-4.5-23.667-13.5-33s-19.833-14-32.5-14-23.667 4.66699-33 14-14 20.333-14 33 4.66699 23.5 14 32.5 20.333 13.5 33 13.5 23.5-4.5 32.5-13.5 13.5-19.833 13.5-32.5zM161 0h-83v667h83v-667z" glyph-name="Idieresis" horiz-adv-x="239" unicode="&#xcf;"/><glyph d="M334 0l-228 .00097656v299h-96v61h96v307h228c102 0 184.5-31.667 247.5-95s94.5-143 94.5-239c0-96.667-31.5-176.334-94.5-239.001s-145.5-94-247.5-94zM334 74.001c78.667 0 141 24.667 187 74s69 111 69 185c0 74.667-22.667 136.667-68 186s-108 74-188 74h-145v-233h169v-61h-169v-225h145z" glyph-name="Eth" horiz-adv-x="728" unicode="&#xd0;"/><glyph d="M412 721c-16.667 0-31.166 4.83301-43.499 14.5s-21.5 20.167-27.5 31.5-13.5 21.833-22.5 31.5-18.833 14.5-29.5 14.5c-14 0-25.5-7.16699-34.5-21.5s-13.5-35.833-13.5-64.5h-45c0 40 8.5 72.333 25.5 97s40.833 37 71.5 37c16 0 30.167-4.83301 42.5-14.5s21.666-20.167 27.999-31.5 14-21.833 23-31.5 18.833-14.5 29.5-14.5c14 0 25.5 7.16699 34.5 21.5s13.5 35.833 13.5 64.5h45c0-40-8.5-72.333-25.5-97s-40.833-37-71.5-37zM630.001 0h-80l-389 532v-532h-83v667h85l384-521v521h83v-667z" glyph-name="Ntilde" horiz-adv-x="708" unicode="&#xd1;"/><glyph d="M440 723h-57l-169 144h78zM382-12c-98 0-177.667 32.667-239 98s-92 147.666-92 246.999 30.667 181.666 92 246.999 141 98 239 98c97.333 0 176.833-32.667 238.5-98s92.5-147.666 92.5-246.999-30.833-181.666-92.5-246.999-141.167-98-238.5-98zM382 62c73.333 0 132.5 25.5 177.5 76.5s67.5 115.833 67.5 194.5c0 79.333-22.5 144.333-67.5 195s-104.167 76-177.5 76c-74 0-133.333-25.333-178-76s-67-115.667-67-195c0-78.667 22.333-143.5 67-194.5s104-76.5 178-76.5z" glyph-name="Ograve" horiz-adv-x="765" unicode="&#xd2;"/><glyph d="M552 867l-169-144h-57l148 144h78zM382-12c-98 0-177.667 32.667-239 98s-92 147.666-92 246.999 30.667 181.666 92 246.999 141 98 239 98c97.333 0 176.833-32.667 238.5-98s92.5-147.666 92.5-246.999-30.833-181.666-92.5-246.999-141.167-98-238.5-98zM382 62c73.333 0 132.5 25.5 177.5 76.5s67.5 115.833 67.5 194.5c0 79.333-22.5 144.333-67.5 195s-104.167 76-177.5 76c-74 0-133.333-25.333-178-76s-67-115.667-67-195c0-78.667 22.333-143.5 67-194.5s104-76.5 178-76.5z" glyph-name="Oacute" horiz-adv-x="765" unicode="&#xd3;"/><glyph d="M517 723h-51l-83 106-80-106h-51l95 144h72zM382-12c-98 0-177.667 32.667-239 98s-92 147.666-92 246.999 30.667 181.666 92 246.999 141 98 239 98c97.333 0 176.833-32.667 238.5-98s92.5-147.666 92.5-246.999-30.833-181.666-92.5-246.999-141.167-98-238.5-98zM382 62c73.333 0 132.5 25.5 177.5 76.5s67.5 115.833 67.5 194.5c0 79.333-22.5 144.333-67.5 195s-104.167 76-177.5 76c-74 0-133.333-25.333-178-76s-67-115.667-67-195c0-78.667 22.333-143.5 67-194.5s104-76.5 178-76.5z" glyph-name="Ocircumflex" horiz-adv-x="765" unicode="&#xd4;"/><glyph d="M382-12c-98 0-177.667 32.667-239 98s-92 147.666-92 246.999 30.667 181.666 92 246.999 141 98 239 98c97.333 0 176.833-32.667 238.5-98s92.5-147.666 92.5-246.999-30.833-181.666-92.5-246.999-141.167-98-238.5-98zM382 62c73.333 0 132.5 25.5 177.5 76.5s67.5 115.833 67.5 194.5c0 79.333-22.5 144.333-67.5 195s-104.167 76-177.5 76c-74 0-133.333-25.333-178-76s-67-115.667-67-195c0-78.667 22.333-143.5 67-194.5s104-76.5 178-76.5zM442 721c-16.667 0-31.166 4.83301-43.499 14.5s-21.5 20.167-27.5 31.5-13.5 21.833-22.5 31.5-18.833 14.5-29.5 14.5c-14 0-25.5-7.16699-34.5-21.5s-13.5-35.833-13.5-64.5h-45c0 40 8.5 72.333 25.5 97s40.833 37 71.5 37c16 0 30.167-4.83301 42.5-14.5s21.666-20.167 27.999-31.5 14-21.833 23-31.5 18.833-14.5 29.5-14.5c14 0 25.5 7.16699 34.5 21.5s13.5 35.833 13.5 64.5h45c0-40-8.5-72.333-25.5-97s-40.833-37-71.5-37z" glyph-name="Otilde" horiz-adv-x="765" unicode="&#xd5;"/><glyph d="M532 771c0-12.667-4.66699-23.667-14-33s-20.333-14-33-14-23.667 4.66699-33 14-14 20.333-14 33 4.66699 23.5 14 32.5 20.333 13.5 33 13.5 23.667-4.5 33-13.5 14-19.833 14-32.5zM325 771c0-12.667-4.5-23.667-13.5-33s-19.833-14-32.5-14-23.667 4.66699-33 14-14 20.333-14 33 4.66699 23.5 14 32.5 20.333 13.5 33 13.5 23.5-4.5 32.5-13.5 13.5-19.833 13.5-32.5zM382-12c-98 0-177.667 32.667-239 98s-92 147.666-92 246.999 30.667 181.666 92 246.999 141 98 239 98c97.333 0 176.833-32.667 238.5-98s92.5-147.666 92.5-246.999-30.833-181.666-92.5-246.999-141.167-98-238.5-98zM382 62c73.333 0 132.5 25.5 177.5 76.5s67.5 115.833 67.5 194.5c0 79.333-22.5 144.333-67.5 195s-104.167 76-177.5 76c-74 0-133.333-25.333-178-76s-67-115.667-67-195c0-78.667 22.333-143.5 67-194.5s104-76.5 178-76.5z" glyph-name="Odieresis" horiz-adv-x="765" unicode="&#xd6;"/><glyph d="M398 148l-149 149-148-149-37 37 148 149-148 148 37 38 148-149 149 149 37-38-148-148 148-149z" glyph-name="multiply" horiz-adv-x="499" unicode="&#xd7;"/><glyph d="M382-12c-64.667 0-122.333 15.001-173 45.001l-22-33h-66l44 65c-76 65.333-114 154.666-114 267.999 0 99.333 30.667 181.666 92 246.999s141 98 239 98c61.333 0 117-14 167-42l21 31h66l-42-62c38-31.333 67.333-70.5 88-117.5s31-98.5 31-154.5c0-99.333-30.833-181.666-92.5-246.999s-141.167-98-238.5-98zM382.001 62.001c73.333 0 132.5 25.5 177.5 76.5s67.5 115.833 67.5 194.5c0 86.667-26 155-78 205l-297-441c36.667-23.333 80-35 130-35zM137.001 333.001c0-84 24.332-151 72.999-201l296 440c-37.333 21.333-78.666 32-123.999 32-74 0-133.333-25.333-178-76s-67-115.667-67-195z" glyph-name="Oslash" horiz-adv-x="765" unicode="&#xd8;"/><glyph d="M350-12c-88.667 0-156.169 24.167-202.502 72.5s-69.5 114.5-69.5 198.5v408h83v-406c0-62 16.333-110.667 49-146s79.334-53 140.001-53 107.334 17.667 140.001 53 49 84 49 146v406h83v-407c0-84.667-23.167-151.167-69.5-199.5s-113.833-72.5-202.5-72.5zM406.998 723h-57l-169 144h78z" glyph-name="Ugrave" horiz-adv-x="700" unicode="&#xd9;"/><glyph d="M519 867l-169-144h-57l148 144h78zM350-12c-88.667 0-156.169 24.167-202.502 72.5s-69.5 114.5-69.5 198.5v408h83v-406c0-62 16.333-110.667 49-146s79.334-53 140.001-53 107.334 17.667 140.001 53 49 84 49 146v406h83v-407c0-84.667-23.167-151.167-69.5-199.5s-113.833-72.5-202.5-72.5z" glyph-name="Uacute" horiz-adv-x="700" unicode="&#xda;"/><glyph d="M485 723h-51l-83 106-80-106h-51l95 144h72zM350-12c-88.667 0-156.169 24.167-202.502 72.5s-69.5 114.5-69.5 198.5v408h83v-406c0-62 16.333-110.667 49-146s79.334-53 140.001-53 107.334 17.667 140.001 53 49 84 49 146v406h83v-407c0-84.667-23.167-151.167-69.5-199.5s-113.833-72.5-202.5-72.5z" glyph-name="Ucircumflex" horiz-adv-x="700" unicode="&#xdb;"/><glyph d="M501 771c0-12.667-4.66699-23.667-14-33s-20.333-14-33-14-23.667 4.66699-33 14-14 20.333-14 33 4.66699 23.5 14 32.5 20.333 13.5 33 13.5 23.667-4.5 33-13.5 14-19.833 14-32.5zM294 771c0-12.667-4.5-23.667-13.5-33s-19.833-14-32.5-14c-13.333 0-24.5 4.66699-33.5 14s-13.5 20.333-13.5 33 4.66699 23.5 14 32.5 20.333 13.5 33 13.5 23.5-4.5 32.5-13.5 13.5-19.833 13.5-32.5zM350-12c-88.667 0-156.169 24.167-202.502 72.5s-69.5 114.5-69.5 198.5v408h83v-406c0-62 16.333-110.667 49-146s79.334-53 140.001-53 107.334 17.667 140.001 53 49 84 49 146v406h83v-407c0-84.667-23.167-151.167-69.5-199.5s-113.833-72.5-202.5-72.5z" glyph-name="Udieresis" horiz-adv-x="700" unicode="&#xdc;"/><glyph d="M355 0h-83v282l-263 385h97l207-310 207 310h97l-262-385v-282zM482 867l-169-144h-57l148 144h78z" glyph-name="Yacute" horiz-adv-x="626" unicode="&#xdd;"/><glyph d="M161 0h-83v667h83v-119h185c64.667 0 115.667-19.333 153-58s56-86.667 56-144c0-56.667-18.833-104.167-56.5-142.5s-88.5-57.5-152.5-57.5h-185v-146zM336 220c39.333 0 71.333 11.668 96 35.001s37 53.666 37 90.999-12.333 68-37 92-56.667 36-96 36h-175v-254h175z" glyph-name="Thorn" horiz-adv-x="587" unicode="&#xde;"/><glyph d="M578 135c0-41.333-16.165-76.1602-48.498-104.493s-78.166-42.5-137.499-42.5c-44 0-79.833 6.66699-107.5 20s-53.834 32.666-78.501 57.999l38 52c15.333-20 35.833-36.5 61.5-49.5s54.5-19.5 86.5-19.5c36 0 63.833 8.16699 83.5 24.5s29.5 36.166 29.5 59.499c0 21.333-9.83301 38.166-29.5 50.499s-43.5 21.833-71.5 28.5-56.167 14.167-84.5 22.5-52.333 22.666-72 42.999-29.5 46.5-29.5 78.5c0 24.667 7.66699 46.667 23 66s32 34 50 44 34.667 21.667 50 35 23 27 23 41c0 21.333-10 38-30 50s-43 18-69 18c-32.667 0-60-10.167-82-30.5s-33-47.166-33-80.499v-499h-75v499c0 50 17.5 92.167 52.5 126.5s81.167 51.5 138.5 51.5c48 0 89.167-11.5 123.5-34.5s51.5-53.5 51.5-91.5c0-24.667-7.83301-46.334-23.5-65.001s-32.834-32.834-51.501-42.501-35.834-22-51.501-37-23.5-31.5-23.5-49.5c0-18.667 9.83301-33.5 29.5-44.5s43.5-19.5 71.5-25.5 56.167-13.333 84.5-22 52.333-23.834 72-45.501 29.5-49.834 29.5-84.501z" glyph-name="germandbls" horiz-adv-x="597" unicode="&#xdf;"/><glyph d="M452 0l-74.999-.00097656v55c-40.667-44.667-94-67-160-67-44.667 0-84 14.333-118 43s-51 67.667-51 117c0 50.667 16.833 89.834 50.5 117.501s73.167 41.5 118.5 41.5c68.667 0 122-22 160-66v87c0 32-11.333 57-34 75s-52 27-88 27c-56.667 0-106-22.333-148-67l-35 52c51.333 53.333 115.666 80 192.999 80 55.333 0 100.333-13.333 135-40s52-67.667 52-123v-332zM244.001 41.999c60 0 104.333 20.001 133 60.001v91c-28.667 40-73 60-133 60-34.667 0-63.167-9.83301-85.5-29.5s-33.5-45.167-33.5-76.5c0-30.667 11.167-55.834 33.5-75.501s50.833-29.5 85.5-29.5zM322.001 556h-57l-169 144h78z" glyph-name="agrave" horiz-adv-x="527" unicode="&#xe0;"/><glyph d="M452 0l-74.999-.00097656v55c-40.667-44.667-94-67-160-67-44.667 0-84 14.333-118 43s-51 67.667-51 117c0 50.667 16.833 89.834 50.5 117.501s73.167 41.5 118.5 41.5c68.667 0 122-22 160-66v87c0 32-11.333 57-34 75s-52 27-88 27c-56.667 0-106-22.333-148-67l-35 52c51.333 53.333 115.666 80 192.999 80 55.333 0 100.333-13.333 135-40s52-67.667 52-123v-332zM244.001 41.999c60 0 104.333 20.001 133 60.001v91c-28.667 40-73 60-133 60-34.667 0-63.167-9.83301-85.5-29.5s-33.5-45.167-33.5-76.5c0-30.667 11.167-55.834 33.5-75.501s50.833-29.5 85.5-29.5zM434.001 700l-169-144h-57l148 144h78z" glyph-name="aacute" horiz-adv-x="527" unicode="&#xe1;"/><glyph d="M452 0l-74.999-.00097656v55c-40.667-44.667-94-67-160-67-44.667 0-84 14.333-118 43s-51 67.667-51 117c0 50.667 16.833 89.834 50.5 117.501s73.167 41.5 118.5 41.5c68.667 0 122-22 160-66v87c0 32-11.333 57-34 75s-52 27-88 27c-56.667 0-106-22.333-148-67l-35 52c51.333 53.333 115.666 80 192.999 80 55.333 0 100.333-13.333 135-40s52-67.667 52-123v-332zM244.001 41.999c60 0 104.333 20.001 133 60.001v91c-28.667 40-73 60-133 60-34.667 0-63.167-9.83301-85.5-29.5s-33.5-45.167-33.5-76.5c0-30.667 11.167-55.834 33.5-75.501s50.833-29.5 85.5-29.5zM398.001 556h-51l-83 106-80-106h-51l95 144h72z" glyph-name="acircumflex" horiz-adv-x="527" unicode="&#xe2;"/><glyph d="M452 0l-74.999-.00097656v55c-40.667-44.667-94-67-160-67-44.667 0-84 14.333-118 43s-51 67.667-51 117c0 50.667 16.833 89.834 50.5 117.501s73.167 41.5 118.5 41.5c68.667 0 122-22 160-66v87c0 32-11.333 57-34 75s-52 27-88 27c-56.667 0-106-22.333-148-67l-35 52c51.333 53.333 115.666 80 192.999 80 55.333 0 100.333-13.333 135-40s52-67.667 52-123v-332zM244.001 41.999c60 0 104.333 20.001 133 60.001v91c-28.667 40-73 60-133 60-34.667 0-63.167-9.83301-85.5-29.5s-33.5-45.167-33.5-76.5c0-30.667 11.167-55.834 33.5-75.501s50.833-29.5 85.5-29.5zM325.001 554c-16.667 0-31.166 4.83301-43.499 14.5s-21.5 20.167-27.5 31.5-13.5 21.833-22.5 31.5-18.833 14.5-29.5 14.5c-14 0-25.5-7.16699-34.5-21.5s-13.5-35.833-13.5-64.5h-45c0 40 8.5 72.333 25.5 97s40.833 37 71.5 37c16 0 30.167-4.83301 42.5-14.5s21.666-20.167 27.999-31.5 14-21.833 23-31.5 18.833-14.5 29.5-14.5c14 0 25.5 7.16699 34.5 21.5s13.5 35.833 13.5 64.5h45c0-40-8.5-72.333-25.5-97s-40.833-37-71.5-37z" glyph-name="atilde" horiz-adv-x="527" unicode="&#xe3;"/><glyph d="M452 0l-74.999-.00097656v55c-40.667-44.667-94-67-160-67-44.667 0-84 14.333-118 43s-51 67.667-51 117c0 50.667 16.833 89.834 50.5 117.501s73.167 41.5 118.5 41.5c68.667 0 122-22 160-66v87c0 32-11.333 57-34 75s-52 27-88 27c-56.667 0-106-22.333-148-67l-35 52c51.333 53.333 115.666 80 192.999 80 55.333 0 100.333-13.333 135-40s52-67.667 52-123v-332zM244.001 41.999c60 0 104.333 20.001 133 60.001v91c-28.667 40-73 60-133 60-34.667 0-63.167-9.83301-85.5-29.5s-33.5-45.167-33.5-76.5c0-30.667 11.167-55.834 33.5-75.501s50.833-29.5 85.5-29.5zM415.001 604c0-12.667-4.66699-23.667-14-33s-20.333-14-33-14-23.667 4.66699-33 14-14 20.333-14 33 4.66699 23.5 14 32.5 20.333 13.5 33 13.5 23.667-4.5 33-13.5 14-19.833 14-32.5zM208.001 604c0-12.667-4.5-23.667-13.5-33s-19.833-14-32.5-14c-13.333 0-24.5 4.5-33.5 13.5s-13.5 20.167-13.5 33.5c0 12.667 4.66699 23.5 14 32.5s20.333 13.5 33 13.5 23.5-4.5 32.5-13.5 13.5-19.833 13.5-32.5z" glyph-name="adieresis" horiz-adv-x="527" unicode="&#xe4;"/><glyph d="M452 0l-74.999-.00097656v55c-40.667-44.667-94-67-160-67-44.667 0-84 14.333-118 43s-51 67.667-51 117c0 50.667 16.833 89.834 50.5 117.501s73.167 41.5 118.5 41.5c68.667 0 122-22 160-66v87c0 32-11.333 57-34 75s-52 27-88 27c-56.667 0-106-22.333-148-67l-35 52c51.333 53.333 115.666 80 192.999 80 55.333 0 100.333-13.333 135-40s52-67.667 52-123v-332zM244.001 41.999c60 0 104.333 20.001 133 60.001v91c-28.667 40-73 60-133 60-34.667 0-63.167-9.83301-85.5-29.5s-33.5-45.167-33.5-76.5c0-30.667 11.167-55.834 33.5-75.501s50.833-29.5 85.5-29.5zM265.001 543c-27.333 0-50.5 9.5-69.5 28.5s-28.5 42.167-28.5 69.5 9.66699 50.666 29 69.999 42.333 29 69 29 49.667-9.66699 69-29 29-42.666 29-69.999-9.5-50.5-28.5-69.5-42.167-28.5-69.5-28.5zM265.001 582c16 0 29.667 5.83301 41 17.5s17 25.5 17 41.5c0 16.667-5.5 30.667-16.5 42s-24.833 17-41.5 17c-16 0-29.667-5.66699-41-17s-17-25.333-17-42c0-16 5.66699-29.833 17-41.5s25-17.5 41-17.5z" glyph-name="aring" horiz-adv-x="527" unicode="&#xe5;"/><glyph d="M843 217l-366.999-.00195312c3.33301-47.333 19.333-86.666 48-117.999s66.334-47 113.001-47c56 0 102.333 20.333 139 61l36-51c-48-49.333-107.333-74-178-74-90.667 0-155 38.667-193 116-17.333-34.667-43.833-62.667-79.5-84s-75.5-32-119.5-32c-54.667 0-100.667 14.167-138 42.5s-56 67.5-56 117.5 17.167 89 51.5 117 76.5 42 126.5 42c74.667 0 133-21.333 175-64v86c0 31.333-12.167 56-36.5 74s-56.5 27-96.5 27c-62.667 0-116.334-22.333-161.001-67l-35 52c52.667 53.333 121 80 205 80 42.667 0 79.667-8.66699 111-26s51.333-43.666 60-78.999c40 70 99.667 105 179 105 67.333 0 120.166-24.333 158.499-73s57.5-110.667 57.5-186v-19zM476.001 271.998h293.001c-.666992 42-13.334 79.333-38.001 112s-61 49-109 49c-44 0-78.833-16.5-104.5-49.5s-39.5-70.167-41.5-111.5zM401.002 179.998v12c-34.667 40.667-83 61-145 61-39.333 0-71-9.16699-95-27.5s-36-42.833-36-73.5c0-30 12-54.167 36-72.5s55.667-27.5 95-27.5c41.333 0 75.833 13 103.5 39s41.5 55.667 41.5 89z" glyph-name="ae" horiz-adv-x="889" unicode="&#xe6;"/><glyph d="M289-189c-42 0-75.666 9.99902-100.999 29.999l19 38c23.333-19.333 50-29 80-29 16.667 0 31 3.83301 43 11.5s18 17.834 18 30.501c0 23.333-12.333 35-37 35-15.333 0-28-5.66699-38-17l-33 19 22 61c-64 6-115.833 32.333-155.5 79s-59.5 104.334-59.5 173.001c0 72.667 22.333 133 67 181s102.667 72 174 72c74.667 0 133.667-28 177-84l-50-46c-30.667 42-71.667 63-123 63-50.667 0-91.167-17.333-121.5-52s-45.5-79.334-45.5-134.001 15.167-99.5 45.5-134.5 70.833-52.5 121.5-52.5 91.667 21 123 63l50-46c-40-51.333-93-79-159-83l-16-42c10.667 7.33301 23 11 37 11 19.333 0 35.166-6.16699 47.499-18.5s18.5-28.5 18.5-48.5c0-24-10-43.333-30-58s-44.667-22-74-22z" glyph-name="ccedilla" horiz-adv-x="495" unicode="&#xe7;"/><glyph d="M293-12c-72 0-130.999 23.5-176.999 70.5s-69 108.167-69 183.5c0 70.667 22.667 130.5 68 179.5s102 73.5 170 73.5c71.333 0 127.833-24.5 169.5-73.5s62.5-110.833 62.5-185.5v-19h-391c3.33301-47.333 20.666-87 51.999-119s72-48 122-48c60 0 109.667 20.333 149 61l36-49c-49.333-49.333-113.333-74-192-74zM443.001 272c-.666992 41.333-14.667 78.5-42 111.5s-66.333 49.5-117 49.5c-48 0-85.833-16.333-113.5-49s-42.5-70-44.5-112h317zM342.001 556h-57l-169 144h78z" glyph-name="egrave" horiz-adv-x="563" unicode="&#xe8;"/><glyph d="M454 700l-169-144h-57l148 144h78zM293-12c-72 0-130.999 23.5-176.999 70.5s-69 108.167-69 183.5c0 70.667 22.667 130.5 68 179.5s102 73.5 170 73.5c71.333 0 127.833-24.5 169.5-73.5s62.5-110.833 62.5-185.5v-19h-391c3.33301-47.333 20.666-87 51.999-119s72-48 122-48c60 0 109.667 20.333 149 61l36-49c-49.333-49.333-113.333-74-192-74zM443.001 272c-.666992 41.333-14.667 78.5-42 111.5s-66.333 49.5-117 49.5c-48 0-85.833-16.333-113.5-49s-42.5-70-44.5-112h317z" glyph-name="eacute" horiz-adv-x="563" unicode="&#xe9;"/><glyph d="M419 556h-51l-83 106-80-106h-51l95 144h72zM293-12c-72 0-130.999 23.5-176.999 70.5s-69 108.167-69 183.5c0 70.667 22.667 130.5 68 179.5s102 73.5 170 73.5c71.333 0 127.833-24.5 169.5-73.5s62.5-110.833 62.5-185.5v-19h-391c3.33301-47.333 20.666-87 51.999-119s72-48 122-48c60 0 109.667 20.333 149 61l36-49c-49.333-49.333-113.333-74-192-74zM443.001 272c-.666992 41.333-14.667 78.5-42 111.5s-66.333 49.5-117 49.5c-48 0-85.833-16.333-113.5-49s-42.5-70-44.5-112h317z" glyph-name="ecircumflex" horiz-adv-x="563" unicode="&#xea;"/><glyph d="M436 604c0-12.667-4.66699-23.667-14-33s-20.333-14-33-14-23.667 4.66699-33 14-14 20.333-14 33 4.66699 23.5 14 32.5 20.333 13.5 33 13.5 23.667-4.5 33-13.5 14-19.833 14-32.5zM229 604c0-12.667-4.5-23.667-13.5-33s-19.833-14-32.5-14-23.667 4.5-33 13.5-14 20.167-14 33.5c0 12.667 4.66699 23.5 14 32.5s20.333 13.5 33 13.5 23.5-4.5 32.5-13.5 13.5-19.833 13.5-32.5zM293-12c-72 0-130.999 23.5-176.999 70.5s-69 108.167-69 183.5c0 70.667 22.667 130.5 68 179.5s102 73.5 170 73.5c71.333 0 127.833-24.5 169.5-73.5s62.5-110.833 62.5-185.5v-19h-391c3.33301-47.333 20.666-87 51.999-119s72-48 122-48c60 0 109.667 20.333 149 61l36-49c-49.333-49.333-113.333-74-192-74zM443.001 272c-.666992 41.333-14.667 78.5-42 111.5s-66.333 49.5-117 49.5c-48 0-85.833-16.333-113.5-49s-42.5-70-44.5-112h317z" glyph-name="edieresis" horiz-adv-x="563" unicode="&#xeb;"/><glyph d="M150 0h-75v483h75v-483zM169 556h-57l-169 144h78z" glyph-name="igrave" horiz-adv-x="225" unicode="&#xec;"/><glyph d="M282 700l-169-144h-57l148 144h78zM150 0h-75v483h75v-483z" glyph-name="iacute" horiz-adv-x="225" unicode="&#xed;"/><glyph d="M245 556h-51l-83 106-80-106h-51l95 144h72zM150 0h-75v483h75v-483z" glyph-name="icircumflex" horiz-adv-x="225" unicode="&#xee;"/><glyph d="M263 604c0-12.667-4.66699-23.667-14-33s-20.333-14-33-14-23.667 4.66699-33 14-14 20.333-14 33 4.66699 23.5 14 32.5 20.333 13.5 33 13.5 23.667-4.5 33-13.5 14-19.833 14-32.5zM56 604c0-12.667-4.5-23.667-13.5-33s-19.833-14-32.5-14c-13.333 0-24.5 4.5-33.5 13.5s-13.5 20.167-13.5 33.5c0 12.667 4.66699 23.5 14 32.5s20.333 13.5 33 13.5 23.5-4.5 32.5-13.5 13.5-19.833 13.5-32.5zM150 0h-75v483h75v-483z" glyph-name="idieresis" horiz-adv-x="225" unicode="&#xef;"/><glyph d="M122 497l-18 41.9971 118 52-23.5 15-28 18-23.5 15 41 62c44.667-27.333 82-52.666 112-75.999l108 48 17-41-86-38c124-105.333 186-221 186-347 0-76-21.667-138.167-65-186.5s-101.333-72.5-174-72.5c-71.333 0-129 23.333-173 70s-66 105.334-66 176.001 20.667 129.167 62 175.5 94 69.5 158 69.5 116.667-29.667 158-89c-32.667 58.667-86 115.334-160 170.001zM286 54.9971c49.333 0 88.333 17.333 117 52s43 77 43 127c0 49.333-14.333 91.333-43 126s-67.667 52-117 52-88.5-17.333-117.5-52-43.5-76.667-43.5-126c0-50 14.5-92.333 43.5-127s68.167-52 117.5-52z" glyph-name="eth" unicode="&#xf0;"/><glyph d="M476 0l-74.998.00097656v316c0 40.667-9.33301 69.5-28 86.5s-45.334 25.5-80.001 25.5c-28 0-55.167-7.33301-81.5-22s-46.833-32.334-61.5-53.001v-353h-75v483h75v-70c18.667 22 43.667 41.167 75 57.5s63.666 24.5 96.999 24.5c102.667 0 154-52 154-156v-339zM336.002 554.001c-16.667 0-31.166 4.83301-43.499 14.5s-21.5 20.167-27.5 31.5-13.5 21.833-22.5 31.5-18.833 14.5-29.5 14.5c-14 0-25.5-7.16699-34.5-21.5s-13.5-35.833-13.5-64.5h-45c0 40 8.5 72.333 25.5 97s40.833 37 71.5 37c16 0 30.167-4.83301 42.5-14.5s21.666-20.167 27.999-31.5 14-21.833 23-31.5 18.833-14.5 29.5-14.5c14 0 25.5 7.16699 34.5 21.5s13.5 35.833 13.5 64.5h45c0-40-8.5-72.333-25.5-97s-40.833-37-71.5-37z" glyph-name="ntilde" horiz-adv-x="551" unicode="&#xf1;"/><glyph d="M286-12c-72 0-129.833 24.333-173.5 73s-65.5 109-65.5 181 21.833 132.167 65.5 180.5 101.5 72.5 173.5 72.5 129.833-24.167 173.5-72.5 65.5-108.5 65.5-180.5-21.833-132.333-65.5-181-101.5-73-173.5-73zM286 55c49.333 0 88.333 18.166 117 54.499s43 80.5 43 132.5-14.333 96-43 132-67.667 54-117 54-88.5-18.167-117.5-54.5-43.5-80.166-43.5-131.499c0-52 14.5-96.167 43.5-132.5s68.167-54.5 117.5-54.5zM343 555.999h-57l-169 144h78z" glyph-name="ograve" unicode="&#xf2;"/><glyph d="M455 700l-169-144h-57l148 144h78zM286-12c-72 0-129.833 24.333-173.5 73s-65.5 109-65.5 181 21.833 132.167 65.5 180.5 101.5 72.5 173.5 72.5 129.833-24.167 173.5-72.5 65.5-108.5 65.5-180.5-21.833-132.333-65.5-181-101.5-73-173.5-73zM286 55c49.333 0 88.333 18.166 117 54.499s43 80.5 43 132.5-14.333 96-43 132-67.667 54-117 54-88.5-18.167-117.5-54.5-43.5-80.166-43.5-131.499c0-52 14.5-96.167 43.5-132.5s68.167-54.5 117.5-54.5z" glyph-name="oacute" unicode="&#xf3;"/><glyph d="M419 556h-51l-83 106-80-106h-51l95 144h72zM286-12c-72 0-129.833 24.333-173.5 73s-65.5 109-65.5 181 21.833 132.167 65.5 180.5 101.5 72.5 173.5 72.5 129.833-24.167 173.5-72.5 65.5-108.5 65.5-180.5-21.833-132.333-65.5-181-101.5-73-173.5-73zM286 55c49.333 0 88.333 18.166 117 54.499s43 80.5 43 132.5-14.333 96-43 132-67.667 54-117 54-88.5-18.167-117.5-54.5-43.5-80.166-43.5-131.499c0-52 14.5-96.167 43.5-132.5s68.167-54.5 117.5-54.5z" glyph-name="ocircumflex" unicode="&#xf4;"/><glyph d="M286-12c-72 0-129.833 24.333-173.5 73s-65.5 109-65.5 181 21.833 132.167 65.5 180.5 101.5 72.5 173.5 72.5 129.833-24.167 173.5-72.5 65.5-108.5 65.5-180.5-21.833-132.333-65.5-181-101.5-73-173.5-73zM286 55c49.333 0 88.333 18.166 117 54.499s43 80.5 43 132.5-14.333 96-43 132-67.667 54-117 54-88.5-18.167-117.5-54.5-43.5-80.166-43.5-131.499c0-52 14.5-96.167 43.5-132.5s68.167-54.5 117.5-54.5zM346 553.999c-16.667 0-31.166 4.83301-43.499 14.5s-21.5 20.167-27.5 31.5-13.5 21.833-22.5 31.5-18.833 14.5-29.5 14.5c-14 0-25.5-7.16699-34.5-21.5s-13.5-35.833-13.5-64.5h-45c0 40 8.5 72.333 25.5 97s40.833 37 71.5 37c16 0 30.167-4.83301 42.5-14.5s21.666-20.167 27.999-31.5 14-21.833 23-31.5 18.833-14.5 29.5-14.5c14 0 25.5 7.16699 34.5 21.5s13.5 35.833 13.5 64.5h45c0-40-8.5-72.333-25.5-97s-40.833-37-71.5-37z" glyph-name="otilde" unicode="&#xf5;"/><glyph d="M436 604c0-12.667-4.66699-23.667-14-33s-20.333-14-33-14-23.667 4.66699-33 14-14 20.333-14 33 4.66699 23.5 14 32.5 20.333 13.5 33 13.5 23.667-4.5 33-13.5 14-19.833 14-32.5zM229 604c0-12.667-4.5-23.667-13.5-33s-19.833-14-32.5-14-23.667 4.5-33 13.5-14 20.167-14 33.5c0 12.667 4.66699 23.5 14 32.5s20.333 13.5 33 13.5 23.5-4.5 32.5-13.5 13.5-19.833 13.5-32.5zM286-12c-72 0-129.833 24.333-173.5 73s-65.5 109-65.5 181 21.833 132.167 65.5 180.5 101.5 72.5 173.5 72.5 129.833-24.167 173.5-72.5 65.5-108.5 65.5-180.5-21.833-132.333-65.5-181-101.5-73-173.5-73zM286 55c49.333 0 88.333 18.166 117 54.499s43 80.5 43 132.5-14.333 96-43 132-67.667 54-117 54-88.5-18.167-117.5-54.5-43.5-80.166-43.5-131.499c0-52 14.5-96.167 43.5-132.5s68.167-54.5 117.5-54.5z" glyph-name="odieresis" unicode="&#xf6;"/><glyph d="M302 526c0-12.667-4.66699-23.5-14-32.5s-20.333-13.5-33-13.5-23.334 4.5-32.001 13.5-13 19.833-13 32.5 4.33301 23.5 13 32.5 19.334 13.5 32.001 13.5c13.333 0 24.5-4.5 33.5-13.5s13.5-19.833 13.5-32.5zM482 311h-453v52h453v-52zM302 144c0-12.667-4.66699-23.5-14-32.5s-20.333-13.5-33-13.5-23.334 4.5-32.001 13.5-13 19.833-13 32.5 4.33301 23.5 13 32.5 19.334 13.5 32.001 13.5 23.667-4.5 33-13.5 14-19.833 14-32.5z" glyph-name="divide" horiz-adv-x="511" unicode="&#xf7;"/><glyph d="M118 0l-54.002.00097656 48 61c-43.333 47.333-65 107.666-65 180.999 0 72 21.833 132.167 65.5 180.5s101.5 72.5 173.5 72.5c52.667 0 98.334-13.667 137.001-41l23 29h54l-45-57c46.667-48 70-109.333 70-184 0-72-21.833-132.333-65.5-181s-101.5-73-173.5-73c-55.333 0-102.666 15-141.999 45zM285.998 55.001c49.333 0 88.333 18.166 117 54.499s43 80.5 43 132.5c0 48.667-12.667 90.334-38 125.001l-220-278c28-22.667 60.667-34 98-34zM124.998 242c0-46.667 11.333-87.001 34-121.001l219 277c-25.333 20-56 30-92 30-49.333 0-88.5-18.167-117.5-54.5s-43.5-80.166-43.5-131.499z" glyph-name="oslash" unicode="&#xf8;"/><glyph d="M476 0h-74.999v68c-20-22.667-45.167-41.667-75.5-57s-62.5-23-96.5-23c-102.667 0-154 51.333-154 154v341h75v-318c0-40 9.16699-68.333 27.5-85s45.166-25 80.499-25c28 0 55.167 7 81.5 21s46.833 31.333 61.5 52v355h75v-483zM332.001 556h-57l-169 144h78z" glyph-name="ugrave" horiz-adv-x="551" unicode="&#xf9;"/><glyph d="M444 700l-169-144h-57l148 144h78zM476 0h-74.999v68c-20-22.667-45.167-41.667-75.5-57s-62.5-23-96.5-23c-102.667 0-154 51.333-154 154v341h75v-318c0-40 9.16699-68.333 27.5-85s45.166-25 80.499-25c28 0 55.167 7 81.5 21s46.833 31.333 61.5 52v355h75v-483z" glyph-name="uacute" horiz-adv-x="551" unicode="&#xfa;"/><glyph d="M408 556h-51l-83 106-80-106h-51l95 144h72zM476 0h-74.999v68c-20-22.667-45.167-41.667-75.5-57s-62.5-23-96.5-23c-102.667 0-154 51.333-154 154v341h75v-318c0-40 9.16699-68.333 27.5-85s45.166-25 80.499-25c28 0 55.167 7 81.5 21s46.833 31.333 61.5 52v355h75v-483z" glyph-name="ucircumflex" horiz-adv-x="551" unicode="&#xfb;"/><glyph d="M427 604c0-12.667-4.66699-23.667-14-33s-20.333-14-33-14-23.667 4.66699-33 14-14 20.333-14 33 4.66699 23.5 14 32.5 20.333 13.5 33 13.5 23.667-4.5 33-13.5 14-19.833 14-32.5zM220 604c0-12.667-4.5-23.667-13.5-33s-19.833-14-32.5-14c-13.333 0-24.5 4.5-33.5 13.5s-13.5 20.167-13.5 33.5c0 12.667 4.66699 23.5 14 32.5s20.333 13.5 33 13.5 23.5-4.5 32.5-13.5 13.5-19.833 13.5-32.5zM476 0h-74.999v68c-20-22.667-45.167-41.667-75.5-57s-62.5-23-96.5-23c-102.667 0-154 51.333-154 154v341h75v-318c0-40 9.16699-68.333 27.5-85s45.166-25 80.499-25c28 0 55.167 7 81.5 21s46.833 31.333 61.5 52v355h75v-483z" glyph-name="udieresis" horiz-adv-x="551" unicode="&#xfc;"/><glyph d="M48-189l12.001 68.001c12-5.33301 25.667-8 41-8 17.333 0 31.666 3.66699 42.999 11s21 20.666 29 39.999l32 73-202 488h81l161-396 160 396h82l-242-581c-26.667-64-74-96.667-142-98-20 0-38.333 2.33301-55 7zM414.001 700.001l-169-144h-57l148 144h78z" glyph-name="yacute" horiz-adv-x="490" unicode="&#xfd;"/><glyph d="M313-12c-68 0-122.333 28.334-163 85.001v-257h-75v851h75v-256c18 25.333 41.333 45.666 70 60.999s59.667 23 93 23c64 0 115.833-22.833 155.5-68.5s59.5-107.167 59.5-184.5-19.833-139-59.5-185-91.5-69-155.5-69zM294 55.001c47.333 0 85 17.499 113 52.499s42 79.833 42 134.5-14 99.334-42 134.001-65.667 52-113 52c-28.667 0-56.5-7.5-83.5-22.5s-47.167-33.167-60.5-54.5v-218c13.333-22 33.5-40.5 60.5-55.5s54.833-22.5 83.5-22.5z" glyph-name="thorn" unicode="&#xfe;"/><glyph d="M48-189l12.001 68.001c12-5.33301 25.667-8 41-8 17.333 0 31.666 3.66699 42.999 11s21 20.666 29 39.999l32 73-202 488h81l161-396 160 396h82l-242-581c-26.667-64-74-96.667-142-98-20 0-38.333 2.33301-55 7zM395.001 604.001c0-12.667-4.66699-23.667-14-33s-20.333-14-33-14-23.667 4.66699-33 14-14 20.333-14 33 4.66699 23.5 14 32.5 20.333 13.5 33 13.5 23.667-4.5 33-13.5 14-19.833 14-32.5zM188.001 604.001c0-12.667-4.5-23.667-13.5-33s-19.833-14-32.5-14c-13.333 0-24.5 4.5-33.5 13.5s-13.5 20.167-13.5 33.5c0 12.667 4.66699 23.5 14 32.5s20.333 13.5 33 13.5 23.5-4.5 32.5-13.5 13.5-19.833 13.5-32.5z" glyph-name="ydieresis" horiz-adv-x="490" unicode="&#xff;"/><glyph d="M649 0h-95l-59 148h-332l-59-148h-95l268 667h103zM470 222l-141 359-142-359h283zM510 739h-363v48h363v-48z" glyph-name="Amacron" horiz-adv-x="658" unicode="&#x100;"/><glyph d="M452 0l-74.999-.00097656v55c-40.667-44.667-94-67-160-67-44.667 0-84 14.333-118 43s-51 67.667-51 117c0 50.667 16.833 89.834 50.5 117.501s73.167 41.5 118.5 41.5c68.667 0 122-22 160-66v87c0 32-11.333 57-34 75s-52 27-88 27c-56.667 0-106-22.333-148-67l-35 52c51.333 53.333 115.666 80 192.999 80 55.333 0 100.333-13.333 135-40s52-67.667 52-123v-332zM244.001 41.999c60 0 104.333 20.001 133 60.001v91c-28.667 40-73 60-133 60-34.667 0-63.167-9.83301-85.5-29.5s-33.5-45.167-33.5-76.5c0-30.667 11.167-55.834 33.5-75.501s50.833-29.5 85.5-29.5zM445.001 572h-363v48h363v-48z" glyph-name="amacron" horiz-adv-x="527" unicode="&#x101;"/><glyph d="M649 0h-95l-59 148h-332l-59-148h-95l268 667h103zM470 222l-141 359-142-359h283zM504 793c-43.333-58.667-101.666-88-174.999-88-72.667 0-131.334 29.333-176.001 88l37 32c34.667-48 81-72 139-72 58.667 0 104.667 24 138 72z" glyph-name="Abreve" horiz-adv-x="658" unicode="&#x102;"/><glyph d="M452 0l-74.999-.00097656v55c-40.667-44.667-94-67-160-67-44.667 0-84 14.333-118 43s-51 67.667-51 117c0 50.667 16.833 89.834 50.5 117.501s73.167 41.5 118.5 41.5c68.667 0 122-22 160-66v87c0 32-11.333 57-34 75s-52 27-88 27c-56.667 0-106-22.333-148-67l-35 52c51.333 53.333 115.666 80 192.999 80 55.333 0 100.333-13.333 135-40s52-67.667 52-123v-332zM244.001 41.999c60 0 104.333 20.001 133 60.001v91c-28.667 40-73 60-133 60-34.667 0-63.167-9.83301-85.5-29.5s-33.5-45.167-33.5-76.5c0-30.667 11.167-55.834 33.5-75.501s50.833-29.5 85.5-29.5zM439.001 626c-43.333-58.667-101.666-88-174.999-88-72.667 0-131.334 29.333-176.001 88l37 32c34.667-48 81-72 139-72 58.667 0 104.667 24 138 72z" glyph-name="abreve" horiz-adv-x="527" unicode="&#x103;"/><glyph d="M669-105l37.001-21.002c-17.333-40-47-60-89-60-25.333 0-46.5 7.33301-63.5 22s-25.5 36.334-25.5 65.001c0 38 17.667 71 53 99h-27l-59 148h-332l-59-148h-95l268 667h103l269-667c-50.667-25.333-76-57.666-76-96.999 0-33.333 14.667-50 44-50 25.333 0 42.666 14 51.999 42zM470.001 221.998l-141 359-142-359h283z" glyph-name="Aogonek" horiz-adv-x="658" unicode="&#x104;"/><glyph d="M472-105l37.002-21.0029c-17.333-40-47-60-89-60-25.333 0-46.5 7.33301-63.5 22s-25.5 36.334-25.5 65.001c0 38 17.667 71 53 99h-7v55c-40.667-44.667-94-67-160-67-44.667 0-84 14.333-118 43s-51 67.667-51 117c0 50.667 16.833 89.834 50.5 117.501s73.167 41.5 118.5 41.5c68.667 0 122-22 160-66v87c0 32-11.333 57-34 75s-52 27-88 27c-56.667 0-106-22.333-148-67l-35 52c51.333 53.333 115.666 80 192.999 80 55.333 0 100.333-13.333 135-40s52-67.667 52-123v-332c-50.667-25.333-76-57.666-76-96.999 0-33.333 14.667-50 44-50 25.333 0 42.666 14 51.999 42zM244.002 41.9971c60 0 104.333 20.001 133 60.001v91c-28.667 40-73 60-133 60-34.667 0-63.167-9.83301-85.5-29.5s-33.5-45.167-33.5-76.5c0-30.667 11.167-55.834 33.5-75.501s50.833-29.5 85.5-29.5z" glyph-name="aogonek" horiz-adv-x="527" unicode="&#x105;"/><glyph d="M563 867l-169-144h-57l148 144h78zM394-12c-97.333 0-178.832 32.1689-244.499 96.502s-98.5 147.166-98.5 248.499 32.833 184.166 98.5 248.499 147.167 96.5 244.5 96.5c106.667 0 191-44 253-132l-70-39c-19.333 28.667-45.333 52-78 70s-67.667 27-105 27c-73.333 0-134.5-25.5-183.5-76.5s-73.5-115.833-73.5-194.5 24.5-143.5 73.5-194.5 110.167-76.5 183.5-76.5c37.333 0 72.333 8.83301 105 26.5s58.667 41.167 78 70.5l71-39c-64.667-88-149.334-132-254.001-132z" glyph-name="Cacute" horiz-adv-x="676" unicode="&#x106;"/><glyph d="M456 700l-169-144h-57l148 144h78zM288-12c-71.333 0-129.333 24.168-174 72.501s-67 108.833-67 181.5 22.333 133 67 181 102.667 72 174 72c74.667 0 133.667-28 177-84l-50-46c-30.667 42-71.667 63-123 63-50.667 0-91.167-17.333-121.5-52s-45.5-79.334-45.5-134.001 15.167-99.5 45.5-134.5 70.833-52.5 121.5-52.5 91.667 21 123 63l50-46c-43.333-56-102.333-84-177-84z" glyph-name="cacute" horiz-adv-x="495" unicode="&#x107;"/><glyph d="M526 723h-51l-83 106-80-106h-51l95 144h72zM394-12c-97.333 0-178.832 32.1689-244.499 96.502s-98.5 147.166-98.5 248.499 32.833 184.166 98.5 248.499 147.167 96.5 244.5 96.5c106.667 0 191-44 253-132l-70-39c-19.333 28.667-45.333 52-78 70s-67.667 27-105 27c-73.333 0-134.5-25.5-183.5-76.5s-73.5-115.833-73.5-194.5 24.5-143.5 73.5-194.5 110.167-76.5 183.5-76.5c37.333 0 72.333 8.83301 105 26.5s58.667 41.167 78 70.5l71-39c-64.667-88-149.334-132-254.001-132z" glyph-name="Ccircumflex" horiz-adv-x="676" unicode="&#x108;"/><glyph d="M421 556h-51l-83 106-80-106h-51l95 144h72zM288-12c-71.333 0-129.333 24.168-174 72.501s-67 108.833-67 181.5 22.333 133 67 181 102.667 72 174 72c74.667 0 133.667-28 177-84l-50-46c-30.667 42-71.667 63-123 63-50.667 0-91.167-17.333-121.5-52s-45.5-79.334-45.5-134.001 15.167-99.5 45.5-134.5 70.833-52.5 121.5-52.5 91.667 21 123 63l50-46c-43.333-56-102.333-84-177-84z" glyph-name="ccircumflex" horiz-adv-x="495" unicode="&#x109;"/><glyph d="M394-12c-97.333 0-178.832 32.1689-244.499 96.502s-98.5 147.166-98.5 248.499 32.833 184.166 98.5 248.499 147.167 96.5 244.5 96.5c106.667 0 191-44 253-132l-70-39c-19.333 28.667-45.333 52-78 70s-67.667 27-105 27c-73.333 0-134.5-25.5-183.5-76.5s-73.5-115.833-73.5-194.5 24.5-143.5 73.5-194.5 110.167-76.5 183.5-76.5c37.333 0 72.333 8.83301 105 26.5s58.667 41.167 78 70.5l71-39c-64.667-88-149.334-132-254.001-132zM396.001 722.002c-12.667 0-23.667 4.66699-33 14s-14 20.333-14 33 4.66699 23.667 14 33 20.333 14 33 14 23.5-4.5 32.5-13.5 13.5-20.167 13.5-33.5-4.5-24.5-13.5-33.5-19.833-13.5-32.5-13.5z" glyph-name="Cdotaccent" horiz-adv-x="676" unicode="&#x10a;"/><glyph d="M288-12c-71.333 0-129.333 24.168-174 72.501s-67 108.833-67 181.5 22.333 133 67 181 102.667 72 174 72c74.667 0 133.667-28 177-84l-50-46c-30.667 42-71.667 63-123 63-50.667 0-91.167-17.333-121.5-52s-45.5-79.334-45.5-134.001 15.167-99.5 45.5-134.5 70.833-52.5 121.5-52.5 91.667 21 123 63l50-46c-43.333-56-102.333-84-177-84zM290 555.001c-12.667 0-23.667 4.66699-33 14s-14 20.333-14 33 4.66699 23.667 14 33 20.333 14 33 14 23.5-4.5 32.5-13.5 13.5-20.167 13.5-33.5-4.5-24.5-13.5-33.5-19.833-13.5-32.5-13.5z" glyph-name="cdotaccent" horiz-adv-x="495" unicode="&#x10b;"/><glyph d="M431 723h-72l-98 144h51l83-106 80 106h51zM394-12c-97.333 0-178.832 32.1689-244.499 96.502s-98.5 147.166-98.5 248.499 32.833 184.166 98.5 248.499 147.167 96.5 244.5 96.5c106.667 0 191-44 253-132l-70-39c-19.333 28.667-45.333 52-78 70s-67.667 27-105 27c-73.333 0-134.5-25.5-183.5-76.5s-73.5-115.833-73.5-194.5 24.5-143.5 73.5-194.5 110.167-76.5 183.5-76.5c37.333 0 72.333 8.83301 105 26.5s58.667 41.167 78 70.5l71-39c-64.667-88-149.334-132-254.001-132z" glyph-name="Ccaron" horiz-adv-x="676" unicode="&#x10c;"/><glyph d="M326 556h-72l-98 144h51l83-106 80 106h51zM288-12c-71.333 0-129.333 24.168-174 72.501s-67 108.833-67 181.5 22.333 133 67 181 102.667 72 174 72c74.667 0 133.667-28 177-84l-50-46c-30.667 42-71.667 63-123 63-50.667 0-91.167-17.333-121.5-52s-45.5-79.334-45.5-134.001 15.167-99.5 45.5-134.5 70.833-52.5 121.5-52.5 91.667 21 123 63l50-46c-43.333-56-102.333-84-177-84z" glyph-name="ccaron" horiz-adv-x="495" unicode="&#x10d;"/><glyph d="M389 723h-72l-98 144h51l83-106 80 106h51zM306 0l-228 .00097656v667h228c102 0 184.5-31.667 247.5-95s94.5-143 94.5-239c0-96.667-31.5-176.334-94.5-239.001s-145.5-94-247.5-94zM306 74.001c78.667 0 141 24.667 187 74s69 111 69 185c0 74.667-22.667 136.667-68 186s-108 74-188 74h-145v-519h145z" glyph-name="Dcaron" horiz-adv-x="700" unicode="&#x10e;"/><glyph d="M648 613c0-26-6.66699-51-20-75s-30.333-43.667-51-59l-33 26c15.333 10 28.5 23.167 39.5 39.5s17.167 31.833 18.5 46.5c-1.33301-1.33301-5-2-11-2-12 0-22 4.16699-30 12.5s-12 18.833-12 31.5c0 13.333 4.5 24.5 13.5 33.5s19.833 13.5 32.5 13.5c14.667 0 27.167-6 37.5-18s15.5-28.333 15.5-49zM500 0h-75.001v72c-41.333-56-95.666-84-162.999-84-64 0-115.833 22.833-155.5 68.5s-59.5 107.167-59.5 184.5c0 76.667 19.833 138.167 59.5 184.5s91.5 69.5 155.5 69.5c66.667 0 121-28.333 163-85v257h75v-667zM279.999 55c29.333 0 57.333 7.33398 84 22.001s47 32.667 61 54v219c-14 22-34.5 40.5-61.5 55.5s-54.833 22.5-83.5 22.5c-47.333 0-85-17.5-113-52.5s-42-79.833-42-134.5 14-99.334 42-134.001 65.667-52 113-52z" glyph-name="dcaron" horiz-adv-x="644" unicode="&#x10f;"/><glyph d="M334 0l-228 .00097656v299h-96v61h96v307h228c102 0 184.5-31.667 247.5-95s94.5-143 94.5-239c0-96.667-31.5-176.334-94.5-239.001s-145.5-94-247.5-94zM334 74.001c78.667 0 141 24.667 187 74s69 111 69 185c0 74.667-22.667 136.667-68 186s-108 74-188 74h-145v-233h169v-61h-169v-225h145z" glyph-name="Dcroat" horiz-adv-x="728" unicode="&#x110;"/><glyph d="M500 0h-75.001v72c-41.333-56-95.666-84-162.999-84-64 0-115.833 22.833-155.5 68.5s-59.5 107.167-59.5 184.5c0 76.667 19.833 138.167 59.5 184.5s91.5 69.5 155.5 69.5c66.667 0 121-28.333 163-85v125h-157v48h157v84h75v-84h68v-48h-68v-535zM279.999 55c29.333 0 57.333 7.33398 84 22.001s47 32.667 61 54v219c-14 22-34.5 40.5-61.5 55.5s-54.833 22.5-83.5 22.5c-47.333 0-85-17.5-113-52.5s-42-79.833-42-134.5 14-99.334 42-134.001 65.667-52 113-52z" glyph-name="dcroat" horiz-adv-x="577" unicode="&#x111;"/><glyph d="M515 0h-437v667h437v-74h-354v-215h347v-74h-347v-230h354v-74zM477 739h-363v48h363v-48z" glyph-name="Emacron" horiz-adv-x="569" unicode="&#x112;"/><glyph d="M293-12c-72 0-130.999 23.5-176.999 70.5s-69 108.167-69 183.5c0 70.667 22.667 130.5 68 179.5s102 73.5 170 73.5c71.333 0 127.833-24.5 169.5-73.5s62.5-110.833 62.5-185.5v-19h-391c3.33301-47.333 20.666-87 51.999-119s72-48 122-48c60 0 109.667 20.333 149 61l36-49c-49.333-49.333-113.333-74-192-74zM443.001 272c-.666992 41.333-14.667 78.5-42 111.5s-66.333 49.5-117 49.5c-48 0-85.833-16.333-113.5-49s-42.5-70-44.5-112h317zM466.001 572h-363v48h363v-48z" glyph-name="emacron" horiz-adv-x="563" unicode="&#x113;"/><glyph d="M515 0h-437v667h437v-74h-354v-215h347v-74h-347v-230h354v-74zM473 793c-43.333-58.667-101.666-88-174.999-88-72.667 0-131.334 29.333-176.001 88l37 32c34.667-48 81-72 139-72 58.667 0 104.667 24 138 72z" glyph-name="Ebreve" horiz-adv-x="569" unicode="&#x114;"/><glyph d="M293-12c-72 0-130.999 23.5-176.999 70.5s-69 108.167-69 183.5c0 70.667 22.667 130.5 68 179.5s102 73.5 170 73.5c71.333 0 127.833-24.5 169.5-73.5s62.5-110.833 62.5-185.5v-19h-391c3.33301-47.333 20.666-87 51.999-119s72-48 122-48c60 0 109.667 20.333 149 61l36-49c-49.333-49.333-113.333-74-192-74zM443.001 272c-.666992 41.333-14.667 78.5-42 111.5s-66.333 49.5-117 49.5c-48 0-85.833-16.333-113.5-49s-42.5-70-44.5-112h317zM462.001 626c-43.333-58.667-101.666-88-174.999-88-72.667 0-131.334 29.333-176.001 88l37 32c34.667-48 81-72 139-72 58.667 0 104.667 24 138 72z" glyph-name="ebreve" horiz-adv-x="563" unicode="&#x115;"/><glyph d="M515 0h-437v667h437v-74h-354v-215h347v-74h-347v-230h354v-74zM300 722c-12.667 0-23.667 4.66699-33 14s-14 20.333-14 33 4.66699 23.667 14 33 20.333 14 33 14 23.5-4.5 32.5-13.5 13.5-20.167 13.5-33.5-4.5-24.5-13.5-33.5-19.833-13.5-32.5-13.5z" glyph-name="Edotaccent" horiz-adv-x="569" unicode="&#x116;"/><glyph d="M293-12c-72 0-130.999 23.5-176.999 70.5s-69 108.167-69 183.5c0 70.667 22.667 130.5 68 179.5s102 73.5 170 73.5c71.333 0 127.833-24.5 169.5-73.5s62.5-110.833 62.5-185.5v-19h-391c3.33301-47.333 20.666-87 51.999-119s72-48 122-48c60 0 109.667 20.333 149 61l36-49c-49.333-49.333-113.333-74-192-74zM443.001 272c-.666992 41.333-14.667 78.5-42 111.5s-66.333 49.5-117 49.5c-48 0-85.833-16.333-113.5-49s-42.5-70-44.5-112h317zM286.001 555c-12.667 0-23.667 4.66699-33 14s-14 20.333-14 33 4.66699 23.667 14 33 20.333 14 33 14 23.5-4.5 32.5-13.5 13.5-20.167 13.5-33.5-4.5-24.5-13.5-33.5-19.833-13.5-32.5-13.5z" glyph-name="edotaccent" horiz-adv-x="563" unicode="&#x117;"/><glyph d="M515 0c-50.667-25.333-75.999-57.668-75.999-97.001 0-33.333 14.667-50 44-50 25.333 0 42.666 14 51.999 42l37-21c-17.333-40-47-60-89-60-25.333 0-46.5 7.33301-63.5 22s-25.5 36.334-25.5 65.001c0 38 17.667 71 53 99h-369v667h437v-74h-354v-215h347v-74h-347v-230h354v-74z" glyph-name="Eogonek" horiz-adv-x="569" unicode="&#x118;"/><glyph d="M293-12c-72 0-130.998 23.499-176.998 70.499s-69 108.167-69 183.5c0 70.667 22.667 130.5 68 179.5s102 73.5 170 73.5c71.333 0 127.833-24.5 169.5-73.5s62.5-110.833 62.5-185.5v-19h-391c3.33301-47.333 20.666-87 51.999-119s72-48 122-48c60 0 109.667 20.333 149 61l36-49c-30.667-30.667-66-51.334-106-62.001-50-25.333-75-57.666-75-96.999 0-33.333 14.667-50 44-50 25.333 0 42.666 14 51.999 42l37-21c-17.333-40-47-60-89-60-25.333 0-46.5 7.33301-63.5 22s-25.5 36.334-25.5 65.001c0 32 13 61 39 87h-5zM443.002 271.999c-.666992 41.333-14.667 78.5-42 111.5s-66.333 49.5-117 49.5c-48 0-85.833-16.333-113.5-49s-42.5-70-44.5-112h317z" glyph-name="eogonek" horiz-adv-x="563" unicode="&#x119;"/><glyph d="M335 723h-72l-98 144h51l83-106 80 106h51zM515 0h-437v667h437v-74h-354v-215h347v-74h-347v-230h354v-74z" glyph-name="Ecaron" horiz-adv-x="569" unicode="&#x11a;"/><glyph d="M323 556h-72l-98 144h51l83-106 80 106h51zM293-12c-72 0-130.999 23.5-176.999 70.5s-69 108.167-69 183.5c0 70.667 22.667 130.5 68 179.5s102 73.5 170 73.5c71.333 0 127.833-24.5 169.5-73.5s62.5-110.833 62.5-185.5v-19h-391c3.33301-47.333 20.666-87 51.999-119s72-48 122-48c60 0 109.667 20.333 149 61l36-49c-49.333-49.333-113.333-74-192-74zM443.001 272c-.666992 41.333-14.667 78.5-42 111.5s-66.333 49.5-117 49.5c-48 0-85.833-16.333-113.5-49s-42.5-70-44.5-112h317z" glyph-name="ecaron" horiz-adv-x="563" unicode="&#x11b;"/><glyph d="M531 723h-51l-83 106-80-106h-51l95 144h72zM394-13c-96.667 0-178.001 32.168-244.001 96.501s-99 147.5-99 249.5 33 185 99 249 147.333 96 244 96c105.333 0 191.666-41.667 258.999-125l-66-41c-21.333 28-49.166 50.333-83.499 67s-70.833 25-109.5 25c-73.333 0-134.5-25.5-183.5-76.5s-73.5-115.833-73.5-194.5 24.5-143.667 73.5-195 110.167-77 183.5-77c36.667 0 70.834 7.16699 102.501 21.5s57.167 31.166 76.5 50.499v136h-229v74h312v-241c-68.667-76.667-156-115-262-115z" glyph-name="Gcircumflex" horiz-adv-x="713" unicode="&#x11c;"/><glyph d="M423 556h-51l-83 106-80-106h-51l95 144h72zM269-196c-42.667 0-78.999 5.16797-108.999 15.501s-58.667 29.166-86 56.499l38 56c36.667-44 89-66 157-66 44.667 0 81.667 11.833 111 35.5s44 60.167 44 109.5v69c-18-25.333-41.333-46-70-62s-59.334-24-92.001-24c-64 0-115.833 22.5-155.5 67.5s-59.5 105.833-59.5 182.5 19.833 137.667 59.5 183 91.5 68 155.5 68c66 0 120-28.333 162-85v73h75v-469c0-74-21.667-127.5-65-160.5s-98.333-49.5-165-49.5zM280.001 60.001c28.667 0 56.5 7.66699 83.5 23s47.167 34 60.5 56v211c-13.333 22-33.333 40.5-60 55.5s-54.667 22.5-84 22.5c-48 0-85.833-17-113.5-51s-41.5-78.333-41.5-133c0-54 14-98.167 42-132.5s65.667-51.5 113-51.5z" glyph-name="gcircumflex" horiz-adv-x="574" unicode="&#x11d;"/><glyph d="M394-13c-96.667 0-178.001 32.168-244.001 96.501s-99 147.5-99 249.5 33 185 99 249 147.333 96 244 96c105.333 0 191.666-41.667 258.999-125l-66-41c-21.333 28-49.166 50.333-83.499 67s-70.833 25-109.5 25c-73.333 0-134.5-25.5-183.5-76.5s-73.5-115.833-73.5-194.5 24.5-143.667 73.5-195 110.167-77 183.5-77c36.667 0 70.834 7.16699 102.501 21.5s57.167 31.166 76.5 50.499v136h-229v74h312v-241c-68.667-76.667-156-115-262-115zM571.999 793.001c-43.333-58.667-101.666-88-174.999-88-72.667 0-131.334 29.333-176.001 88l37 32c34.667-48 81-72 139-72 58.667 0 104.667 24 138 72z" glyph-name="Gbreve" horiz-adv-x="713" unicode="&#x11e;"/><glyph d="M269-196c-42.667 0-78.999 5.16797-108.999 15.501s-58.667 29.166-86 56.499l38 56c36.667-44 89-66 157-66 44.667 0 81.667 11.833 111 35.5s44 60.167 44 109.5v69c-18-25.333-41.333-46-70-62s-59.334-24-92.001-24c-64 0-115.833 22.5-155.5 67.5s-59.5 105.833-59.5 182.5 19.833 137.667 59.5 183 91.5 68 155.5 68c66 0 120-28.333 162-85v73h75v-469c0-74-21.667-127.5-65-160.5s-98.333-49.5-165-49.5zM280.001 60.001c28.667 0 56.5 7.66699 83.5 23s47.167 34 60.5 56v211c-13.333 22-33.333 40.5-60 55.5s-54.667 22.5-84 22.5c-48 0-85.833-17-113.5-51s-41.5-78.333-41.5-133c0-54 14-98.167 42-132.5s65.667-51.5 113-51.5zM465.001 626.001c-43.333-58.667-101.666-88-174.999-88-72.667 0-131.334 29.333-176.001 88l37 32c34.667-48 81-72 139-72 58.667 0 104.667 24 138 72z" glyph-name="gbreve" horiz-adv-x="574" unicode="&#x11f;"/><glyph d="M394-13c-96.667 0-178.001 32.168-244.001 96.501s-99 147.5-99 249.5 33 185 99 249 147.333 96 244 96c105.333 0 191.666-41.667 258.999-125l-66-41c-21.333 28-49.166 50.333-83.499 67s-70.833 25-109.5 25c-73.333 0-134.5-25.5-183.5-76.5s-73.5-115.833-73.5-194.5 24.5-143.667 73.5-195 110.167-77 183.5-77c36.667 0 70.834 7.16699 102.501 21.5s57.167 31.166 76.5 50.499v136h-229v74h312v-241c-68.667-76.667-156-115-262-115zM395.999 722.001c-12.667 0-23.667 4.66699-33 14s-14 20.333-14 33 4.66699 23.667 14 33 20.333 14 33 14 23.5-4.5 32.5-13.5 13.5-20.167 13.5-33.5-4.5-24.5-13.5-33.5-19.833-13.5-32.5-13.5z" glyph-name="Gdotaccent" horiz-adv-x="713" unicode="&#x120;"/><glyph d="M269-196c-42.667 0-78.999 5.16797-108.999 15.501s-58.667 29.166-86 56.499l38 56c36.667-44 89-66 157-66 44.667 0 81.667 11.833 111 35.5s44 60.167 44 109.5v69c-18-25.333-41.333-46-70-62s-59.334-24-92.001-24c-64 0-115.833 22.5-155.5 67.5s-59.5 105.833-59.5 182.5 19.833 137.667 59.5 183 91.5 68 155.5 68c66 0 120-28.333 162-85v73h75v-469c0-74-21.667-127.5-65-160.5s-98.333-49.5-165-49.5zM280.001 60.001c28.667 0 56.5 7.66699 83.5 23s47.167 34 60.5 56v211c-13.333 22-33.333 40.5-60 55.5s-54.667 22.5-84 22.5c-48 0-85.833-17-113.5-51s-41.5-78.333-41.5-133c0-54 14-98.167 42-132.5s65.667-51.5 113-51.5zM289.001 555.001c-12.667 0-23.667 4.66699-33 14s-14 20.333-14 33 4.66699 23.667 14 33 20.333 14 33 14 23.5-4.5 32.5-13.5 13.5-20.167 13.5-33.5-4.5-24.5-13.5-33.5-19.833-13.5-32.5-13.5z" glyph-name="gdotaccent" horiz-adv-x="574" unicode="&#x121;"/><glyph d="M448-138c0-26-6.66699-51-20-75s-30.333-43.667-51-59l-33 26c15.333 10 28.5 23.167 39.5 39.5s17.167 31.833 18.5 46.5c-1.33301-1.33301-5-2-11-2-12 0-22 4.16699-30 12.5s-12 18.833-12 31.5c0 13.333 4.5 24.5 13.5 33.5s19.833 13.5 32.5 13.5c14.667 0 27.167-6 37.5-18s15.5-28.333 15.5-49zM394-13c-96.667 0-178.001 32.168-244.001 96.501s-99 147.5-99 249.5 33 185 99 249 147.333 96 244 96c105.333 0 191.666-41.667 258.999-125l-66-41c-21.333 28-49.166 50.333-83.499 67s-70.833 25-109.5 25c-73.333 0-134.5-25.5-183.5-76.5s-73.5-115.833-73.5-194.5 24.5-143.667 73.5-195 110.167-77 183.5-77c36.667 0 70.834 7.16699 102.501 21.5s57.167 31.166 76.5 50.499v136h-229v74h312v-241c-68.667-76.667-156-115-262-115z" glyph-name="Gcommaaccent" horiz-adv-x="713" unicode="&#x122;"/></font>
</defs>
</svg>
