<?xml version="1.0" standalone="no"?>
<!DOCTYPE svg PUBLIC "-//W3C//DTD SVG 1.1//EN" "http://www.w3.org/Graphics/SVG/1.1/DTD/svg11.dtd" >
<svg>
<metadata>
Created by FontForge 20090914 at Sat Mar 25 20:40:25 2017
 By www-data
Copyright (c) Mark Simonson, 2005. All rights reserved.
</metadata>
<defs>
<font id="ProximaNovaT-Thin" horiz-adv-x="528" >
  <font-face 
    font-family="Proxima Nova Th"
    font-weight="250"
    font-stretch="normal"
    units-per-em="1000"
    panose-1="2 0 5 6 3 0 0 2 0 4"
    ascent="790"
    descent="-210"
    x-height="483"
    cap-height="667"
    bbox="-171 -258 1059 905.998"
    underline-thickness="20"
    underline-position="-113"
    unicode-range="U+000D-U+FB04"
  />
<missing-glyph horiz-adv-x="527" 
d="M439 -90h-351v842h351v-842zM407 -60v782h-288v-782h288z" />
    <glyph glyph-name="f_f_j" unicode="ffj" horiz-adv-x="694" 
d="M376 0h-30v456h-80v27h80v51c0 44.667 10.667 79.667 32 105s51 38 89 38c23.333 0 42.333 -4.33301 57 -13l-13 -26c-14 8 -28.667 12 -44 12c-60.667 0 -91 -38.667 -91 -116v-51h98v-27h-98v-456zM593 566c-7.33301 0 -14 2.83301 -20 8.5s-9 12.5 -9 20.5
s3 14.833 9 20.5s12.667 8.5 20 8.5c8 0 14.833 -2.83301 20.5 -8.5s8.5 -12.5 8.5 -20.5s-2.83301 -14.833 -8.5 -20.5s-12.5 -8.5 -20.5 -8.5zM489 -196c-34 0 -64.666 12.668 -91.999 38.001l19 25c21.333 -24 45.666 -36 72.999 -36c26.667 0 48.167 7.66699 64.5 23
s24.5 38.666 24.5 69.999v559h30v-559c0 -80 -39.667 -120 -119 -120zM130.001 0.000976562h-30.001v456h-80v27h80v51c0 44.667 10.667 79.667 32 105s51 38 89 38c30 0 57.333 -10 82 -30l-18 -24c-19.333 18 -40.666 27 -63.999 27c-60.667 0 -91 -38.667 -91 -116v-51
h98v-27h-98v-456z" />
    <glyph glyph-name="f_j" unicode="fj" horiz-adv-x="448" 
d="M130 0h-30v456h-80v27h80v51c0 44.667 10.667 79.667 32 105s51 38 89 38c23.333 0 42.333 -4.33301 57 -13l-13 -26c-14 8 -28.667 12 -44 12c-60.667 0 -91 -38.667 -91 -116v-51h98v-27h-98v-456zM347 566c-7.33301 0 -14 2.83301 -20 8.5s-9 12.5 -9 20.5
s3 14.833 9 20.5s12.667 8.5 20 8.5c8 0 14.833 -2.83301 20.5 -8.5s8.5 -12.5 8.5 -20.5s-2.83301 -14.833 -8.5 -20.5s-12.5 -8.5 -20.5 -8.5zM243 -196c-34 0 -64.666 12.668 -91.999 38.001l19 25c21.333 -24 45.666 -36 72.999 -36c26.667 0 48.167 7.66699 64.5 23
s24.5 38.666 24.5 69.999v559h30v-559c0 -80 -39.667 -120 -119 -120z" />
    <glyph glyph-name="f_f" unicode="ff" horiz-adv-x="492" 
d="M130 0h-30.001v456h-80v27h80v51c0 44.667 10.667 79.667 32 105s51 38 89 38c30 0 57.333 -10 82 -30l-18 -24c-19.333 18 -40.666 27 -63.999 27c-60.667 0 -91 -38.667 -91 -116v-51h98v-27h-98v-456zM375.999 0h-30.001v456h-80v27h80v51
c0 44.667 10.667 79.667 32 105s51 38 89 38c30 0 57.333 -10 82 -30l-18 -24c-19.333 18 -40.666 27 -63.999 27c-60.667 0 -91 -38.667 -91 -116v-51h98v-27h-98v-456z" />
    <glyph glyph-name="fi" unicode="fi" horiz-adv-x="448" 
d="M130 0h-30v456h-80v27h80v51c0 44.667 10.667 79.667 32 105s51 38 89 38c23.333 0 42.333 -4.33301 57 -13l-13 -26c-14 8 -28.667 12 -44 12c-60.667 0 -91 -38.667 -91 -116v-51h98v-27h-98v-456zM347 566c-7.33301 0 -14 2.83301 -20 8.5s-9 12.5 -9 20.5
s3 14.833 9 20.5s12.667 8.5 20 8.5c8 0 14.833 -2.83301 20.5 -8.5s8.5 -12.5 8.5 -20.5s-2.83301 -14.833 -8.5 -20.5s-12.5 -8.5 -20.5 -8.5zM362 0h-30v483h30v-483z" />
    <glyph glyph-name="fl" unicode="fl" horiz-adv-x="448" 
d="M130 0h-30v456h-80v27h80v51c0 44.667 10.667 79.667 32 105s51 38 89 38c23.333 0 42.333 -4.33301 57 -13l-13 -26c-14 8 -28.667 12 -44 12c-60.667 0 -91 -38.667 -91 -116v-51h98v-27h-98v-456zM362 0h-30v667h30v-667z" />
    <glyph glyph-name="f_f_i" unicode="ffi" horiz-adv-x="694" 
d="M376 0h-30v456h-80v27h80v51c0 44.667 10.667 79.667 32 105s51 38 89 38c23.333 0 42.333 -4.33301 57 -13l-13 -26c-14 8 -28.667 12 -44 12c-60.667 0 -91 -38.667 -91 -116v-51h98v-27h-98v-456zM593 566c-7.33301 0 -14 2.83301 -20 8.5s-9 12.5 -9 20.5
s3 14.833 9 20.5s12.667 8.5 20 8.5c8 0 14.833 -2.83301 20.5 -8.5s8.5 -12.5 8.5 -20.5s-2.83301 -14.833 -8.5 -20.5s-12.5 -8.5 -20.5 -8.5zM608 0h-30v483h30v-483zM130 0h-30.001v456h-80v27h80v51c0 44.667 10.667 79.667 32 105s51 38 89 38c30 0 57.333 -10 82 -30
l-18 -24c-19.333 18 -40.666 27 -63.999 27c-60.667 0 -91 -38.667 -91 -116v-51h98v-27h-98v-456z" />
    <glyph glyph-name="f_f_l" unicode="ffl" horiz-adv-x="694" 
d="M376 0h-30v456h-80v27h80v51c0 44.667 10.667 79.667 32 105s51 38 89 38c23.333 0 42.333 -4.33301 57 -13l-13 -26c-14 8 -28.667 12 -44 12c-60.667 0 -91 -38.667 -91 -116v-51h98v-27h-98v-456zM608 0h-30v667h30v-667zM130 0h-30.001v456h-80v27h80v51
c0 44.667 10.667 79.667 32 105s51 38 89 38c30 0 57.333 -10 82 -30l-18 -24c-19.333 18 -40.666 27 -63.999 27c-60.667 0 -91 -38.667 -91 -116v-51h98v-27h-98v-456z" />
    <glyph glyph-name="f_b" unicode="fb" horiz-adv-x="812" 
d="M130 0h-30v456h-80v27h80v51c0 44.667 10.667 79.667 32 105s51 38 89 38c23.333 0 42.333 -4.33301 57 -13l-13 -26c-14 8 -28.667 12 -44 12c-60.667 0 -91 -38.667 -91 -116v-51h98v-27h-98v-456zM362 111c16 -26.667 40 -49.333 72 -68s66 -28 102 -28
c57.333 0 102.166 21.167 134.499 63.5s48.5 96.5 48.5 162.5s-16.167 120.333 -48.5 163s-77.166 64 -134.499 64c-36 0 -70 -9.66699 -102 -29s-56 -42.333 -72 -69v-259zM362 0.000976562l-30.002 -0.000976562v667h30v-267c20 29.333 45.167 52.5 75.5 69.5
s63.166 25.5 98.499 25.5c64.667 0 116.834 -23.333 156.501 -70s59.5 -108 59.5 -184c0 -76.667 -19.667 -138 -59 -184s-91.666 -69 -156.999 -69c-36 0 -69.667 8.83301 -101 26.5s-55.666 39.834 -72.999 66.501v-81z" />
    <glyph glyph-name="f_h" unicode="fh" horiz-adv-x="774" 
d="M130 0h-30v456h-80v27h80v51c0 44.667 10.667 79.667 32 105s51 38 89 38c23.333 0 42.333 -4.33301 57 -13l-13 -26c-14 8 -28.667 12 -44 12c-60.667 0 -91 -38.667 -91 -116v-51h98v-27h-98v-456zM688 0l-30 -0.000976562v339c0 48 -10.667 81.5 -32 100.5
s-52.333 28.5 -93 28.5c-32 0 -64 -8.83301 -96 -26.5s-57 -39.167 -75 -64.5v-377h-30v667h30v-260c19.333 23.333 45.333 43.833 78 61.5s65 26.5 97 26.5c50 0 87.667 -12.167 113 -36.5s38 -64.166 38 -119.499v-339z" />
    <glyph glyph-name="f_k" unicode="fk" horiz-adv-x="742" 
d="M130 0h-30v456h-80v27h80v51c0 44.667 10.667 79.667 32 105s51 38 89 38c23.333 0 42.333 -4.33301 57 -13l-13 -26c-14 8 -28.667 12 -44 12c-60.667 0 -91 -38.667 -91 -116v-51h98v-27h-98v-456zM717 0h-43l-212 243l-100 -92v-151h-30v667h30v-478l315 294h43
l-235 -218z" />
    <glyph glyph-name=".notdef" horiz-adv-x="527" 
d="M439 -90h-351v842h351v-842zM407 -60v782h-288v-782h288z" />
    <glyph glyph-name=".null" horiz-adv-x="0" 
 />
    <glyph glyph-name=".null" horiz-adv-x="0" 
 />
    <glyph glyph-name="CR" unicode="&#xd;" horiz-adv-x="0" 
 />
    <glyph glyph-name="space" unicode=" " horiz-adv-x="260" 
 />
    <glyph glyph-name="exclam" unicode="!" horiz-adv-x="208" 
d="M114 161h-20l-11 506h42zM104 -9c-9.33301 0 -17.1699 3.16699 -23.5029 9.5s-9.5 14.166 -9.5 23.499c0 8.66699 3.33301 16.167 10 22.5s14.334 9.5 23.001 9.5s16.334 -3.16699 23.001 -9.5s10 -13.833 10 -22.5c0 -9.33301 -3.16699 -17.166 -9.5 -23.499
s-14.166 -9.5 -23.499 -9.5z" />
    <glyph glyph-name="quotedbl" unicode="&#x22;" horiz-adv-x="290" 
d="M99 443l-22 0.000976562c-10 131.333 -15 200.666 -15 207.999s2.5 13.5 7.5 18.5s11.167 7.5 18.5 7.5s13.5 -2.5 18.5 -7.5s7.5 -11.167 7.5 -18.5zM213 443.001l-22 0.000976562c-10 131.333 -15 200.666 -15 207.999s2.5 13.5 7.5 18.5s11.167 7.5 18.5 7.5
s13.5 -2.5 18.5 -7.5s7.5 -11.167 7.5 -18.5z" />
    <glyph glyph-name="numbersign" unicode="#" horiz-adv-x="567" 
d="M267 0h-33l65 191h-125l-64 -191h-33l64 191h-115l9 29h116l76 227h-117l8 29h119l63 191h33l-63 -191h124l63 191h33l-64 -191h115l-7 -29h-117l-77 -227h120l-9 -29h-120zM307 220l77 227h-124l-76 -227h123z" />
    <glyph glyph-name="dollar" unicode="$" horiz-adv-x="575" 
d="M275 -100l0.000976562 87.999c-47.333 1.33301 -90.166 11.666 -128.499 30.999s-69.5 44.333 -93.5 75l26 23c50.667 -62.667 116 -95.667 196 -99v318c-26 7.33301 -46.333 13.333 -61 18s-32.167 11.834 -52.5 21.501s-36 20 -47 31s-20.5 25.167 -28.5 42.5
s-12 37 -12 59c0 50.667 19.5 91.334 58.5 122.001s86.5 46.667 142.5 48v90h32v-91c81.333 -4.66699 145.333 -35.667 192 -93l-25 -23c-40.667 52 -96.334 80.667 -167.001 86v-285c25.333 -7.33301 46 -13.833 62 -19.5s34.167 -14 54.5 -25s36.333 -22.667 48 -35
s21.667 -28.333 30 -48s12.5 -41.5 12.5 -65.5c0 -20 -3.33301 -39.333 -10 -58s-17.334 -37.167 -32.001 -55.5s-36.167 -33.5 -64.5 -45.5s-61.833 -19 -100.5 -21v-89h-32zM479.001 168.999c0 19.333 -3.33105 36.667 -9.99805 52s-14.834 28.166 -24.501 38.499
s-22.667 20 -39 29s-31.5 16 -45.5 21s-31.667 10.833 -53 17.5v-309c32 2 59.833 8 83.5 18s41.667 22.667 54 38s21.166 30.833 26.499 46.5s8 31.834 8 48.501zM109.003 508c0 -20 4.16699 -37.502 12.5 -52.502s21.333 -27.833 39 -38.5s34.5 -19 50.5 -25
s37.333 -13 64 -21v277c-47.333 -1.33301 -86.833 -15.166 -118.5 -41.499s-47.5 -59.166 -47.5 -98.499z" />
    <glyph glyph-name="percent" unicode="%" horiz-adv-x="709" 
d="M189 351c-44.667 0 -81.334 15.333 -110.001 46s-43 69.334 -43 116.001c0 47.333 14.333 86.5 43 117.5s65.334 46.5 110.001 46.5s81.334 -15.5 110.001 -46.5s43 -70.167 43 -117.5c0 -46.667 -14.333 -85.334 -43 -116.001s-65.334 -46 -110.001 -46zM163 0h-36
l426 667h37zM520 -12c-44.667 0 -81.334 15.333 -110.001 46s-43 69.334 -43 116.001c0 47.333 14.333 86.5 43 117.5s65.334 46.5 110.001 46.5s81.334 -15.5 110.001 -46.5s43 -70.167 43 -117.5c0 -46.667 -14.333 -85.334 -43 -116.001s-65.334 -46 -110.001 -46z
M189 378c35.333 0 64.166 13.1689 86.499 39.502s33.5 58.166 33.5 95.499c0 38 -11.167 70.333 -33.5 97s-51.166 40 -86.499 40c-34.667 0 -63.334 -13.333 -86.001 -40s-34 -59 -34 -97c0 -36.667 11.333 -68.334 34 -95.001s51.334 -40 86.001 -40zM520 15.002
c35.333 0 64.166 13.167 86.499 39.5s33.5 58.166 33.5 95.499c0 38 -11.167 70.333 -33.5 97s-51.166 40 -86.499 40s-64.166 -13.333 -86.499 -40s-33.5 -59 -33.5 -97c0 -37.333 11.167 -69.166 33.5 -95.499s51.166 -39.5 86.499 -39.5z" />
    <glyph glyph-name="ampersand" unicode="&#x26;" horiz-adv-x="637" 
d="M591 0l-52.999 -0.00292969c-22.667 19.333 -54.667 49 -96 89c-53.333 -67.333 -119.666 -101 -198.999 -101c-56 0 -102.667 15.667 -140 47s-56 75.333 -56 132c0 48.667 13.333 88.334 40 119.001s63.667 59.334 111 86.001c-38.667 60 -58 111.667 -58 155
s14.5 79.166 43.5 107.499s64.167 42.5 105.5 42.5c40 0 71.667 -10.667 95 -32s35 -51.333 35 -90c0 -22.667 -4.16699 -43.167 -12.5 -61.5s-21.666 -35.166 -39.999 -50.499s-34.833 -27.833 -49.5 -37.5s-35.334 -21.834 -62.001 -36.501
c-4.66699 -2.66699 -8.33398 -4.66699 -11.001 -6c24.667 -35.333 56 -73.666 94 -114.999c34.667 -38.667 68 -74 100 -106c29.333 44.667 55.666 101.667 78.999 171l32 -12c-33.333 -87.333 -62 -148.666 -86 -183.999c42 -40.667 84.667 -79.667 128 -117z
M243.001 17.9971c65.333 0 123.333 32 174 96c-52.667 54 -87.667 91.333 -105 112c-38 43.333 -70.333 83.333 -97 120c-42 -24 -74.667 -49.667 -98 -77s-35 -61.333 -35 -102c0 -47.333 15.667 -84 47 -110s69.333 -39 114 -39zM175.001 526.997
c0 -38.667 17.3311 -84.668 51.998 -138.001l48 26.5c10 5.66699 23.5 14.334 40.5 26.001s29.333 22.334 37 32.001s14.834 21.667 21.501 36s10 29.5 10 45.5c0 29.333 -8.83301 52 -26.5 68s-40.5 24 -68.5 24c-31.333 0 -58.166 -11.333 -80.499 -34
s-33.5 -51.334 -33.5 -86.001z" />
    <glyph glyph-name="quotesingle" unicode="'" horiz-adv-x="176" 
d="M99 443l-22 0.000976562c-10 131.333 -15 200.666 -15 207.999s2.5 13.5 7.5 18.5s11.167 7.5 18.5 7.5s13.5 -2.5 18.5 -7.5s7.5 -11.167 7.5 -18.5z" />
    <glyph glyph-name="parenleft" unicode="(" horiz-adv-x="206" 
d="M189 -187l-16 -11.9961c-84 137.333 -126 284.666 -126 441.999s42 304.666 126 441.999l16 -11c-36 -76 -62.833 -146 -80.5 -210s-26.5 -137.667 -26.5 -221c0 -82.667 8.83301 -156.334 26.5 -221.001s44.5 -134.334 80.5 -209.001z" />
    <glyph glyph-name="parenright" unicode=")" horiz-adv-x="206" 
d="M33 -199l-16 11.9961c36 74.667 62.833 144.334 80.5 209.001s26.5 138.334 26.5 221.001c0 83.333 -8.83301 157 -26.5 221s-44.5 134 -80.5 210l16 11c84 -137.333 126 -284.666 126 -441.999s-42 -304.666 -126 -441.999z" />
    <glyph glyph-name="asterisk" unicode="*" horiz-adv-x="330" 
d="M180 409h-30l6 119l-100 -65l-15 26l106 54l-106 54l15 26l100 -65l-6 119h30l-6 -119l100 65l15 -26l-106 -54l106 -54l-15 -26l-100 65z" />
    <glyph glyph-name="plus" unicode="+" horiz-adv-x="494" 
d="M465 322h-202v-222h-32v222h-202v30h202v216h32v-216h202v-30z" />
    <glyph glyph-name="comma" unicode="," horiz-adv-x="208" 
d="M142 3c0 -24 -6.00098 -47.166 -18.001 -69.499s-26.667 -39.5 -44 -51.5l-22 18c16 12 28.833 26.5 38.5 43.5s14.5 33.167 14.5 48.5c-4 -0.666992 -6.66699 -1 -8 -1c-9.33301 0 -17 3.16699 -23 9.5s-9 14.166 -9 23.499c0 8.66699 3 16.167 9 22.5
s13.667 9.5 23 9.5c10.667 0 19.834 -4.66699 27.501 -14s11.5 -22.333 11.5 -39z" />
    <glyph glyph-name="hyphen" unicode="-" horiz-adv-x="300" 
d="M270 227h-240v30h240v-30z" />
    <glyph glyph-name="period" unicode="." horiz-adv-x="208" 
d="M104 -9c-9.33301 0 -17.1699 3.16699 -23.5029 9.5s-9.5 14.166 -9.5 23.499c0 8.66699 3.33301 16.167 10 22.5s14.334 9.5 23.001 9.5s16.334 -3.16699 23.001 -9.5s10 -13.833 10 -22.5c0 -9.33301 -3.16699 -17.166 -9.5 -23.499s-14.166 -9.5 -23.499 -9.5z" />
    <glyph glyph-name="slash" unicode="/" horiz-adv-x="268" 
d="M31 -20h-31l237 707h31z" />
    <glyph glyph-name="zero" unicode="0" horiz-adv-x="605" 
d="M303 -12c-42 0 -79 10.5 -111 31.5s-56.833 48.833 -74.5 83.5s-30.834 71.5 -39.501 110.5s-13 78.833 -13 119.5c0 41.333 4.33301 81.333 13 120s21.834 75.167 39.501 109.5s42.5 62 74.5 83s69 31.5 111 31.5s78.833 -10.5 110.5 -31.5s56.334 -48.667 74.001 -83
s30.834 -70.833 39.501 -109.5s13 -78.667 13 -120c0 -40.667 -4.33301 -80.5 -13 -119.5s-21.834 -75.833 -39.501 -110.5s-42.334 -62.5 -74.001 -83.5s-68.5 -31.5 -110.5 -31.5zM303 18c36.667 0 68.667 9.66699 96 29s48.333 44.833 63 76.5s25.5 65 32.5 100
s10.5 71.5 10.5 109.5s-3.5 74.5 -10.5 109.5s-17.833 68.333 -32.5 100s-35.667 57 -63 76s-59.333 28.5 -96 28.5s-68.667 -9.5 -96 -28.5s-48.5 -44.333 -63.5 -76s-26 -65 -33 -100s-10.5 -71.5 -10.5 -109.5s3.5 -74.5 10.5 -109.5s18 -68.5 33 -100.5
s36.167 -57.5 63.5 -76.5s59.333 -28.5 96 -28.5z" />
    <glyph glyph-name="one" unicode="1" horiz-adv-x="277" 
d="M189 0h-32v621l-105 -115l-22 23l129 138h30v-667z" />
    <glyph glyph-name="two" unicode="2" horiz-adv-x="577" 
d="M480 0l-421.002 -0.00195312v28l124 104.5c29.333 25.667 63.5 57.167 102.5 94.5s68.333 69 88 95s36.667 54.5 51 85.5s21.5 60.5 21.5 88.5c0 50 -16.5 87.667 -49.5 113s-71.833 38 -116.5 38c-41.333 0 -78 -8.16699 -110 -24.5s-56.667 -38.166 -74 -65.499l-26 19
c20.667 31.333 49.5 56 86.5 74s78.5 27 124.5 27c50 0 95.333 -15.167 136 -45.5s61 -75.5 61 -135.5c0 -22 -3.83301 -44.5 -11.5 -67.5s-16.5 -44.167 -26.5 -63.5s-25.667 -41.666 -47 -66.999s-40.166 -46.5 -56.499 -63.5s-40.166 -39.667 -71.499 -68l-75 -66
l-84 -70.5h374v-30z" />
    <glyph glyph-name="three" unicode="3" horiz-adv-x="531" 
d="M252 -12c-50 0 -93.8311 10.668 -131.498 32.001s-65.834 48 -84.501 80l28 16c40.667 -65.333 103.334 -98 188.001 -98c55.333 0 99.333 14.167 132 42.5s49 67.166 49 116.499c0 51.333 -18.333 89.666 -55 114.999s-82.667 38 -138 38
c-30.667 0 -49.334 -0.333008 -56.001 -1v32c6.66699 -0.666992 25.334 -1 56.001 -1c51.333 0 94.666 12 129.999 36s53 59.667 53 107c0 44 -16.5 79 -49.5 105s-73.5 39 -121.5 39c-38.667 0 -72.167 -7.33301 -100.5 -22s-55.5 -37.334 -81.5 -68.001l-25 20
c52.667 66.667 121.667 100 207 100c55.333 0 103 -15.5 143 -46.5s60 -73.5 60 -127.5c0 -48 -15 -84.833 -45 -110.5s-62.333 -41.5 -97 -47.5c20.667 -2 42 -8.5 64 -19.5s42.167 -29.667 60.5 -56s27.5 -57.166 27.5 -92.499c0 -55.333 -18.833 -100.666 -56.5 -135.999
s-89.834 -53 -156.501 -53z" />
    <glyph glyph-name="four" unicode="4" horiz-adv-x="524" 
d="M385 0h-32v195h-315v33l305 439h42v-442h101v-30h-101v-195zM353 225v406l-280 -406h280z" />
    <glyph glyph-name="five" unicode="5" horiz-adv-x="574" 
d="M297 -12c-96.667 0 -168.666 37.335 -215.999 112.002l26 19c44.667 -67.333 108 -101 190 -101c51.333 0 94.166 17.167 128.499 51.5s51.5 77.166 51.5 128.499c0 55.333 -17 99.5 -51 132.5s-77 49.5 -129 49.5c-63.333 0 -119.333 -23 -168 -69l-27 16v340h364v-30
h-332v-291c44 42.667 98.333 64 163 64c59.333 0 109.5 -18.667 150.5 -56s61.5 -89.333 61.5 -156c0 -62.667 -20.833 -113.334 -62.5 -152.001s-91.5 -58 -149.5 -58z" />
    <glyph glyph-name="six" unicode="6" horiz-adv-x="577" 
d="M297 -12c-41.333 0 -77.5029 9.5 -108.503 28.5s-55.167 45.167 -72.5 78.5s-30.166 69.833 -38.499 109.5s-12.5 82.5 -12.5 128.5c0 43.333 4.16699 84.333 12.5 123s21.333 75 39 109s42.5 61.167 74.5 81.5s69.333 30.5 112 30.5c74.667 0 133 -30 175 -90l-24 -21
c-37.333 54 -87.666 81 -150.999 81c-37.333 0 -70 -9.5 -98 -28.5s-49.5 -44.667 -64.5 -77s-26 -66.666 -33 -102.999s-10.5 -74.833 -10.5 -115.5c0 -16 0.333008 -28 1 -36c16.667 28 43.834 54.833 81.501 80.5s78.167 38.5 121.5 38.5
c62.667 0 113.5 -17.833 152.5 -53.5s58.5 -87.834 58.5 -156.501c0 -55.333 -19.333 -103.833 -58 -145.5s-91 -62.5 -157 -62.5zM296.997 18c58 0 103.001 18.498 135.001 55.498s48 77.833 48 122.5c0 58.667 -16.333 103.334 -49 134.001s-76.334 46 -131.001 46
c-39.333 0 -77 -12.167 -113 -36.5s-64.333 -55.5 -85 -93.5c2.66699 -26.667 8 -52.667 16 -78s19.333 -49.666 34 -72.999s34.5 -42 59.5 -56s53.5 -21 85.5 -21z" />
    <glyph glyph-name="seven" unicode="7" horiz-adv-x="489" 
d="M158 0h-36l293 637h-379v30h417v-22z" />
    <glyph glyph-name="eight" unicode="8" horiz-adv-x="561" 
d="M281 -12c-63.333 0 -115.003 16.498 -155.003 49.498s-60 75.5 -60 127.5c0 45.333 16.833 83.5 50.5 114.5s74.5 52.5 122.5 64.5c-45.333 10.667 -83.666 29.834 -114.999 57.501s-47 62.5 -47 104.5c0 54.667 20.333 96.834 61 126.501s88.334 44.5 143.001 44.5
c54 0 101.5 -15 142.5 -45s61.5 -72 61.5 -126c0 -42 -15.667 -76.833 -47 -104.5s-69.666 -46.834 -114.999 -57.501c48 -12 88.667 -33.5 122 -64.5s50 -69.167 50 -114.5c0 -51.333 -20.167 -93.666 -60.5 -126.999s-91.5 -50 -153.5 -50zM280.997 358.998
c15.333 2.66699 30.5 6.66699 45.5 12s33.167 13.333 54.5 24s38.666 25.667 51.999 45s20 41.333 20 66c0 43.333 -16.5 77.666 -49.5 102.999s-73.833 38 -122.5 38s-89.5 -12.667 -122.5 -38s-49.5 -59.666 -49.5 -102.999c0 -24.667 6.66699 -46.667 20 -66
s30.833 -34.5 52.5 -45.5s39.834 -18.833 54.501 -23.5s29.667 -8.66699 45 -12zM280.997 17.998c49.333 0 92.002 13.5 128.002 40.5s54 62.5 54 106.5c0 26.667 -7.33301 51 -22 73s-32.834 39.167 -54.501 51.5s-41.5 21.833 -59.5 28.5s-33.333 10.667 -46 12
c-12.667 -1.33301 -28.167 -5.33301 -46.5 -12s-38.333 -16.167 -60 -28.5s-39.834 -29.5 -54.501 -51.5s-22 -46.333 -22 -73c0 -44 18 -79.5 54 -106.5s79 -40.5 129 -40.5z" />
    <glyph glyph-name="nine" unicode="9" horiz-adv-x="577" 
d="M274 -11c-74.667 0 -132.997 30 -174.997 90l24 21c37.333 -54 87.666 -81 150.999 -81c37.333 0 70 9.5 98 28.5s49.5 44.667 64.5 77s26 66.666 33 102.999s10.5 74.833 10.5 115.5c0 16 -0.333008 28 -1 36c-16.667 -28 -43.834 -54.833 -81.501 -80.5
s-78.167 -38.5 -121.5 -38.5c-62.667 0 -113.5 17.833 -152.5 53.5s-58.5 87.834 -58.5 156.501c0 55.333 19.333 103.833 58 145.5s91 62.5 157 62.5c41.333 0 77.5 -9.5 108.5 -28.5s55.167 -45.167 72.5 -78.5s30.166 -69.833 38.499 -109.5s12.5 -82.5 12.5 -128.5
c0 -43.333 -4.16699 -84.333 -12.5 -123s-21.333 -75 -39 -109s-42.5 -61.167 -74.5 -81.5s-69.333 -30.5 -112 -30.5zM277.003 290c39.333 0 76.999 12.1689 112.999 36.502s64.333 55.5 85 93.5c-2.66699 26.667 -8 52.667 -16 78s-19.333 49.666 -34 72.999
s-34.5 42 -59.5 56s-53.5 21 -85.5 21c-58 0 -103 -18.5 -135 -55.5s-48 -77.833 -48 -122.5c0 -58.667 16.333 -103.334 49 -134.001s76.334 -46 131.001 -46z" />
    <glyph glyph-name="colon" unicode=":" horiz-adv-x="208" 
d="M104 425c-8.66699 0 -16.3301 3.16699 -22.9971 9.5s-10 13.833 -10 22.5s3.16699 16.334 9.5 23.001s14.166 10 23.499 10s17.166 -3.33301 23.499 -10s9.5 -14.334 9.5 -23.001s-3.33301 -16.167 -10 -22.5s-14.334 -9.5 -23.001 -9.5zM104.004 -9
c-9.33301 0 -17.1699 3.16699 -23.5029 9.5s-9.5 14.166 -9.5 23.499c0 8.66699 3.33301 16.167 10 22.5s14.334 9.5 23.001 9.5s16.334 -3.16699 23.001 -9.5s10 -13.833 10 -22.5c0 -9.33301 -3.16699 -17.166 -9.5 -23.499s-14.166 -9.5 -23.499 -9.5z" />
    <glyph glyph-name="semicolon" unicode=";" horiz-adv-x="208" 
d="M104 425c-8.66699 0 -16.3301 3.16699 -22.9971 9.5s-10 13.833 -10 22.5s3.16699 16.334 9.5 23.001s14.166 10 23.499 10s17.166 -3.33301 23.499 -10s9.5 -14.334 9.5 -23.001s-3.33301 -16.167 -10 -22.5s-14.334 -9.5 -23.001 -9.5zM142.004 3
c0 -24 -6.00098 -47.166 -18.001 -69.499s-26.667 -39.5 -44 -51.5l-22 18c16 12 28.833 26.5 38.5 43.5s14.5 33.167 14.5 48.5c-4 -0.666992 -6.66699 -1 -8 -1c-9.33301 0 -17 3.16699 -23 9.5s-9 14.166 -9 23.499c0 8.66699 3 16.167 9 22.5s13.667 9.5 23 9.5
c10.667 0 19.834 -4.66699 27.501 -14s11.5 -22.333 11.5 -39z" />
    <glyph glyph-name="less" unicode="&#x3c;" horiz-adv-x="494" 
d="M465 90l-436 234v21l436 235v-36l-395 -210l395 -208v-36z" />
    <glyph glyph-name="equal" unicode="=" horiz-adv-x="494" 
d="M465 418h-436v30h436v-30zM465 220h-436v30h436v-30z" />
    <glyph glyph-name="greater" unicode="&#x3e;" horiz-adv-x="494" 
d="M465 324l-436 -234v36l395 208l-395 210v36l436 -235v-21z" />
    <glyph glyph-name="question" unicode="?" horiz-adv-x="467" 
d="M225 168c-29.333 22 -44 47.335 -44 76.002c0 24.667 7.16699 47 21.5 67s31.833 36.833 52.5 50.5l62 42c20.667 14.333 38.167 31.666 52.5 51.999s21.5 43.166 21.5 68.499c0 34.667 -13.333 63.834 -40 87.501s-63.667 35.5 -111 35.5
c-45.333 0 -82.833 -8.33301 -112.5 -25s-55.834 -41 -78.501 -73l-23 21c50 71.333 121.333 107 214 107c56.667 0 101.834 -14.833 135.501 -44.5s50.5 -65.834 50.5 -108.501c0 -24 -5.33301 -46.167 -16 -66.5s-24 -37 -40 -50s-33.167 -26.167 -51.5 -39.5l-51.5 -36.5
c-16 -11 -29.333 -24 -40 -39s-16 -31.167 -16 -48.5c0 -20 11 -37.667 33 -53zM222 -8.99805c-9.33301 0 -17.1699 3.16699 -23.5029 9.5s-9.5 14.166 -9.5 23.499c0 8.66699 3.33301 16.167 10 22.5s14.334 9.5 23.001 9.5s16.334 -3.16699 23.001 -9.5
s10 -13.833 10 -22.5c0 -9.33301 -3.16699 -17.166 -9.5 -23.499s-14.166 -9.5 -23.499 -9.5z" />
    <glyph glyph-name="at" unicode="@" horiz-adv-x="783" 
d="M352 -70c-90.667 0 -166.169 30.168 -226.502 90.501s-90.5 134.833 -90.5 223.5c0 70.667 18.5 136.5 55.5 197.5s86 109 147 144s125.833 52.5 194.5 52.5c92 0 167.5 -31.333 226.5 -94s88.5 -140.334 88.5 -233.001c0 -70 -14.5 -125.167 -43.5 -165.5
s-64.833 -60.5 -107.5 -60.5c-25.333 0 -46 8.66699 -62 26s-24 38 -24 62v6c-18.667 -26.667 -43.334 -49 -74.001 -67s-63 -27 -97 -27c-45.333 0 -82 14.333 -110 43s-42 67 -42 115c0 70.667 25 131.167 75 181.5s106 75.5 168 75.5
c32.667 0 60.167 -8.16699 82.5 -24.5s38.5 -37.166 48.5 -62.499l14 69h30l-62 -294c-0.666992 -4 -1 -10 -1 -18c0 -17.333 5.16699 -31.333 15.5 -42s23.166 -16 38.499 -16c11.333 0 23.333 3.16699 36 9.5s25.834 16.5 39.501 30.5s24.834 34.833 33.501 62.5
s13 60.167 13 97.5c0 84.667 -27 155.167 -81 211.5s-123.333 84.5 -208 84.5c-97.333 0 -182.333 -36.833 -255 -110.5s-109 -157.834 -109 -252.501c0 -81.333 27.5 -149.333 82.5 -204s124.5 -82 208.5 -82c64.667 0 127.334 19 188.001 57l16 -23
c-65.333 -42 -134.666 -63 -207.999 -63zM338.998 112.001c37.333 0 71.501 10.832 102.501 32.499s56.833 47.834 77.5 78.501l34 157c-7.33301 24 -21.5 45.5 -42.5 64.5s-47.833 28.5 -80.5 28.5c-56.667 0 -105.834 -23.5 -147.501 -70.5s-62.5 -100.167 -62.5 -159.5
c0 -38.667 10.5 -70.167 31.5 -94.5s50.167 -36.5 87.5 -36.5z" />
    <glyph glyph-name="A" unicode="A" horiz-adv-x="636" 
d="M615 0h-37l-74 179h-372l-74 -179h-37l278 667h38zM492 209l-174 421l-174 -421h348z" />
    <glyph glyph-name="B" unicode="B" horiz-adv-x="600" 
d="M343 0l-255 0.00292969v667h251c54.667 0 98.667 -14.833 132 -44.5s50 -71.5 50 -125.5c0 -40 -11.667 -73.833 -35 -101.5s-51 -44.834 -83 -51.501c35.333 -5.33301 66 -24.333 92 -57s39 -68.334 39 -107.001c0 -56.667 -17.167 -100.834 -51.5 -132.501
s-80.833 -47.5 -139.5 -47.5zM339 358.003c47.333 0 83.668 13 109.001 39s38 59.333 38 100c0 40 -12.833 73.333 -38.5 100s-61.834 40 -108.501 40h-219v-279h219zM343.002 30.0029c48.667 0 86.832 13.333 114.499 40s41.5 63 41.5 109c0 40.667 -13.667 75.667 -41 105
s-65.666 44 -114.999 44h-223v-298h223z" />
    <glyph glyph-name="C" unicode="C" horiz-adv-x="667" 
d="M398 -12c-94 0 -172.999 32.332 -236.999 96.999s-96 147.334 -96 248.001s32 183.334 96 248.001s143 97 237 97s171.333 -35 232 -105l-25 -22c-24 30 -54.167 53.667 -90.5 71s-75.166 26 -116.499 26c-84.667 0 -155.5 -29.333 -212.5 -88
s-85.5 -134.334 -85.5 -227.001c0 -92 28.5 -167.5 85.5 -226.5s127.833 -88.5 212.5 -88.5c41.333 0 80.166 8.66699 116.499 26s66.5 41 90.5 71l26 -21c-62.667 -70.667 -140.334 -106 -233.001 -106z" />
    <glyph glyph-name="D" unicode="D" horiz-adv-x="684" 
d="M286 0l-198 -0.000976562v667h198c100 0 180.333 -32.5 241 -97.5s91 -143.833 91 -236.5c0 -93.333 -30.167 -172.166 -90.5 -236.499s-140.833 -96.5 -241.5 -96.5zM286 29.999c92 0 164.499 28.668 217.499 86.001s79.5 129.666 79.5 216.999
c0 86.667 -26.667 159 -80 217s-125.666 87 -216.999 87h-166v-607h166z" />
    <glyph glyph-name="E" unicode="E" horiz-adv-x="558" 
d="M496 0h-408v667h408v-30h-376v-279h369v-30h-369v-298h376v-30z" />
    <glyph glyph-name="F" unicode="F" horiz-adv-x="533" 
d="M120 0h-32v667h408v-30h-376v-279h369v-30h-369v-328z" />
    <glyph glyph-name="G" unicode="G" horiz-adv-x="708" 
d="M398 -13c-94 0 -173.002 32.332 -237.002 96.999s-96 147.667 -96 249c0 100.667 32 183.334 96 248.001s143 97 237 97c96 0 177.333 -34.333 244 -103l-21 -22c-26 30 -58.667 53.333 -98 70s-81 25 -125 25c-84.667 0 -155.5 -29.333 -212.5 -88
s-85.5 -134.334 -85.5 -227.001c0 -92 28.5 -167.667 85.5 -227s127.833 -89 212.5 -89c44.667 0 85.334 8.83301 122.001 26.5s66.667 38.834 90 63.501v183h-275v30h307v-226c-29.333 -32.667 -65.166 -58.667 -107.499 -78s-87.833 -29 -136.5 -29z" />
    <glyph glyph-name="H" unicode="H" horiz-adv-x="695" 
d="M607 0h-32v328h-455v-328h-32v667h32v-309h455v309h32v-667z" />
    <glyph glyph-name="I" unicode="I" horiz-adv-x="208" 
d="M120 0h-32v667h32v-667z" />
    <glyph glyph-name="J" unicode="J" horiz-adv-x="465" 
d="M185 -12c-71.333 0 -127.666 29 -168.999 87l27 24c38 -54 85.333 -81 142 -81c48.667 0 87.5 15.5 116.5 46.5s43.5 71.167 43.5 120.5v482h32v-482c0 -63.333 -18.333 -112 -55 -146s-82.334 -51 -137.001 -51z" />
    <glyph glyph-name="K" unicode="K" horiz-adv-x="571" 
d="M540 0h-43l-297 328l-80 -87v-241h-32v667h32v-385l347 385h43l-290 -319z" />
    <glyph glyph-name="L" unicode="L" horiz-adv-x="499" 
d="M455 0h-367v667h32v-637h335v-30z" />
    <glyph glyph-name="M" unicode="M" horiz-adv-x="770" 
d="M682 0h-32v629l-260 -629h-10l-260 629v-629h-32v667h51l246 -597l246 597h51v-667z" />
    <glyph glyph-name="N" unicode="N" horiz-adv-x="690" 
d="M602 0h-32l-450 615v-615h-32v667h32l450 -609v609h32v-667z" />
    <glyph glyph-name="O" unicode="O" horiz-adv-x="764" 
d="M382 -12c-95.333 0 -172 32.833 -230 98.5s-87 147.834 -87 246.501s29 180.834 87 246.501s134.667 98.5 230 98.5c94.667 0 171.167 -32.833 229.5 -98.5s87.5 -147.834 87.5 -246.501s-29.167 -180.834 -87.5 -246.501s-134.833 -98.5 -229.5 -98.5zM382 18
c84.667 0 152.834 29.5 204.501 88.5s77.5 134.5 77.5 226.5c0 92.667 -25.833 168.334 -77.5 227.001s-119.834 88 -204.501 88c-85.333 0 -153.666 -29.333 -204.999 -88s-77 -134.334 -77 -227.001c0 -92 25.667 -167.5 77 -226.5s119.666 -88.5 204.999 -88.5z" />
    <glyph glyph-name="P" unicode="P" horiz-adv-x="555" 
d="M120 0h-32.001v667h231c60 0 107.5 -18.167 142.5 -54.5s52.5 -81.166 52.5 -134.499c0 -52.667 -17.667 -97.334 -53 -134.001s-82.666 -55 -141.999 -55h-199v-289zM317.999 319c48.667 0 87.667 14.8311 117 44.498s44 67.834 44 114.501s-14.667 84.834 -44 114.501
s-68.333 44.5 -117 44.5h-198v-318h198z" />
    <glyph glyph-name="Q" unicode="Q" horiz-adv-x="764" 
d="M382 -12c-95.333 0 -172.001 32.833 -230.001 98.5s-87 147.834 -87 246.501s29 180.834 87 246.501s134.667 98.5 230 98.5c94.667 0 171.167 -32.833 229.5 -98.5s87.5 -147.834 87.5 -246.501c0 -104.667 -32.667 -190.334 -98 -257.001l77 -76l-22 -23l-78 78
c-55.333 -44.667 -120.666 -67 -195.999 -67zM381.999 18c66.667 0 124.334 19.667 173.001 59l-110 111l23 23l111 -112c56.667 58.667 85 136.667 85 234c0 92.667 -25.833 168.334 -77.5 227.001s-119.834 88 -204.501 88c-85.333 0 -153.666 -29.333 -204.999 -88
s-77 -134.334 -77 -227.001c0 -92 25.667 -167.5 77 -226.5s119.666 -88.5 204.999 -88.5z" />
    <glyph glyph-name="R" unicode="R" horiz-adv-x="579" 
d="M524 0l-41 0.000976562l-203 288h-160v-288h-32v667h230c56.667 0 103.667 -16.833 141 -50.5s56 -79.834 56 -138.501s-18.833 -105 -56.5 -139s-84.5 -51 -140.5 -51zM318 318.001c48.667 0 87.834 14.999 117.501 44.999s44.5 68.333 44.5 115
s-14.833 84.834 -44.5 114.501s-68.834 44.5 -117.501 44.5h-198v-319h198z" />
    <glyph glyph-name="S" unicode="S" horiz-adv-x="575" 
d="M286 -12c-50 0 -95.002 9.66602 -135.002 28.999s-72.667 45 -98 77l26 23c54 -66 123 -99 207 -99c36.667 0 68.334 4.83301 95.001 14.5s46.667 22.334 60 38.001s23 31.667 29 48s9 33.166 9 50.499c0 34 -10 62.5 -30 85.5s-45 39.5 -75 49.5l-97.5 31.5l-97.5 32
c-30 10.333 -55 27.5 -75 51.5s-30 53.667 -30 89c0 52 20.333 93.333 61 124s90 46 148 46c93.333 0 165.333 -31.333 216 -94l-25 -23c-44.667 58 -108.334 87 -191.001 87c-49.333 0 -90.666 -13.167 -123.999 -39.5s-50 -59.833 -50 -100.5c0 -25.333 7.5 -47 22.5 -65
s34.333 -32 58 -42s50 -19.167 79 -27.5s57.833 -17.333 86.5 -27s54.834 -21.167 78.501 -34.5s43 -32.166 58 -56.499s22.5 -53.166 22.5 -86.499c0 -20.667 -3.66699 -40.834 -11 -60.501s-19 -39 -35 -58s-39.667 -34.167 -71 -45.5s-68.333 -17 -111 -17z" />
    <glyph glyph-name="T" unicode="T" horiz-adv-x="559" 
d="M295 0h-32v637h-225v30h483v-30h-226v-637z" />
    <glyph glyph-name="U" unicode="U" horiz-adv-x="672" 
d="M336 -12c-80 0 -141.331 23.333 -183.998 70s-64 111.667 -64 195v414h32v-414c0 -74.667 18.667 -132.5 56 -173.5s90.666 -61.5 159.999 -61.5s122.666 20.5 159.999 61.5s56 98.833 56 173.5v414h32v-414c0 -83.333 -21.333 -148.333 -64 -195s-104 -70 -184 -70z" />
    <glyph glyph-name="V" unicode="V" horiz-adv-x="636" 
d="M337 0h-38l-278 667h37l260 -630l260 630h37z" />
    <glyph glyph-name="W" unicode="W" horiz-adv-x="852" 
d="M637 0h-38l-173 607l-173 -607h-38l-190 667h35l174 -619l175 619h34l175 -619l174 619h35z" />
    <glyph glyph-name="X" unicode="X" horiz-adv-x="638" 
d="M613 0h-42l-252 318l-252 -318h-42l276 342l-261 325h43l236 -299l236 299h43l-261 -324z" />
    <glyph glyph-name="Y" unicode="Y" horiz-adv-x="610" 
d="M321 0h-32v289l-268 378h41l243 -346l243 346h41l-268 -378v-289z" />
    <glyph glyph-name="Z" unicode="Z" horiz-adv-x="578" 
d="M525 0h-472v30l427 607h-427v30h465v-30l-428 -607h435v-30z" />
    <glyph glyph-name="bracketleft" unicode="[" horiz-adv-x="212" 
d="M195 -190h-161v868h161v-30h-131v-808h131v-30z" />
    <glyph glyph-name="backslash" unicode="\" horiz-adv-x="268" 
d="M237 -20l-237 707h31l237 -707h-31z" />
    <glyph glyph-name="bracketright" unicode="]" horiz-adv-x="212" 
d="M178 -190h-161v30h131v808h-131v30h161v-868z" />
    <glyph glyph-name="asciicircum" unicode="^" horiz-adv-x="424" 
d="M405 333h-34l-159 307l-159 -307h-34l180 334h26z" />
    <glyph glyph-name="underscore" unicode="_" horiz-adv-x="564" 
d="M567 -70h-570v30h570v-30z" />
    <glyph glyph-name="grave" unicode="`" horiz-adv-x="205" 
d="M205 556h-30l-175 144h45z" />
    <glyph glyph-name="a" unicode="a" horiz-adv-x="514" 
d="M428 0l-29.999 0.000976562v59c-43.333 -47.333 -99 -71 -167 -71c-45.333 0 -84.833 14.5 -118.5 43.5s-50.5 68.167 -50.5 117.5s16.667 88.5 50 117.5s73 43.5 119 43.5c68 0 123.667 -23.667 167 -71v109c0 37.333 -13 66.666 -39 87.999s-58.333 32 -97 32
c-61.333 0 -113 -25.333 -155 -76l-23 20c24.667 28.667 50.667 49.667 78 63s60.666 20 99.999 20c49.333 0 89.333 -12.5 120 -37.5s46 -61.167 46 -108.5v-349zM239.001 15.001c68.667 0 121.667 24.667 159 74v120c-37.333 49.333 -90.333 74 -159 74
c-43.333 0 -78.166 -12.833 -104.499 -38.5s-39.5 -57.5 -39.5 -95.5s13.167 -69.833 39.5 -95.5s61.166 -38.5 104.499 -38.5z" />
    <glyph glyph-name="b" unicode="b" horiz-adv-x="566" 
d="M116 111c16 -26.667 40 -49.333 72 -68s66 -28 102 -28c57.333 0 102.166 21.167 134.499 63.5s48.5 96.5 48.5 162.5s-16.167 120.333 -48.5 163s-77.166 64 -134.499 64c-36 0 -70 -9.66699 -102 -29s-56 -42.333 -72 -69v-259zM116 0.000976562l-30.002 -0.000976562
v667h30v-267c20 29.333 45.167 52.5 75.5 69.5s63.166 25.5 98.499 25.5c64.667 0 116.834 -23.333 156.501 -70s59.5 -108 59.5 -184c0 -76.667 -19.667 -138 -59 -184s-91.666 -69 -156.999 -69c-36 0 -69.667 8.83301 -101 26.5s-55.666 39.834 -72.999 66.501v-81z" />
    <glyph glyph-name="c" unicode="c" horiz-adv-x="493" 
d="M288 -12c-68 0 -123 24.498 -165 73.498s-63 109.167 -63 180.5s21 131.333 63 180s97 73 165 73c37.333 0 68.666 -6.66699 93.999 -20s49 -33.666 71 -60.999l-22 -18c-35.333 48 -82.333 72 -141 72c-60.667 0 -108.667 -21.5 -144 -64.5s-53 -96.833 -53 -161.5
c0 -65.333 17.833 -119.5 53.5 -162.5s83.5 -64.5 143.5 -64.5c58 0 105 24.333 141 73l22 -19c-22 -27.333 -45.667 -47.666 -71 -60.999s-56.666 -20 -93.999 -20z" />
    <glyph glyph-name="d" unicode="d" horiz-adv-x="566" 
d="M480 0l-30.002 0.000976562v81c-17.333 -26.667 -41.666 -48.834 -72.999 -66.501s-65 -26.5 -101 -26.5c-65.333 0 -117.666 23 -156.999 69s-59 107.333 -59 184c0 76 19.833 137.333 59.5 184s91.834 70 156.501 70c35.333 0 68.166 -8.5 98.499 -25.5
s55.5 -40.167 75.5 -69.5v267h30v-667zM275.998 15.001c36 0 70 9.33203 102 27.999s56 41.334 72 68.001v259c-16 26.667 -40 49.667 -72 69s-66 29 -102 29c-57.333 0 -102.166 -21.333 -134.499 -64s-48.5 -97 -48.5 -163s16.167 -120.167 48.5 -162.5
s77.166 -63.5 134.499 -63.5z" />
    <glyph glyph-name="e" unicode="e" horiz-adv-x="571" 
d="M297 -12c-70 0 -127 23.833 -171 71.5s-66 108.5 -66 182.5c0 70.667 21.667 130.5 65 179.5s97.333 73.5 162 73.5c70.667 0 125.667 -24.333 165 -73s59 -108.667 59 -180v-10h-417c1.33301 -61.333 20.5 -112.833 57.5 -154.5s85.5 -62.5 145.5 -62.5
c66.667 0 122.667 24.333 168 73l18 -19c-52 -54 -114 -81 -186 -81zM479 259c0 32.667 -6.66895 64.5 -20.002 95.5s-35.166 57.667 -65.499 80s-66.166 33.5 -107.499 33.5c-58 0 -104 -21.5 -138 -64.5s-52 -91.167 -54 -144.5h385z" />
    <glyph glyph-name="f" unicode="f" horiz-adv-x="246" 
d="M130 0h-30.001v456h-80v27h80v51c0 44.667 10.667 79.667 32 105s51 38 89 38c30 0 57.333 -10 82 -30l-18 -24c-19.333 18 -40.666 27 -63.999 27c-60.667 0 -91 -38.667 -91 -116v-51h98v-27h-98v-456z" />
    <glyph glyph-name="g" unicode="g" horiz-adv-x="566" 
d="M276 -196c-42 0 -76.5 5 -103.5 15s-54.167 29.333 -81.5 58l22 25c20.667 -26 43.5 -44.333 68.5 -55s56.5 -16 94.5 -16c51.333 0 93.166 13.833 125.499 41.5s48.5 69.167 48.5 124.5v84c-18 -26.667 -42.5 -49.167 -73.5 -67.5s-64.5 -27.5 -100.5 -27.5
c-65.333 0 -117.666 23.167 -156.999 69.5s-59 107.833 -59 184.5c0 76 19.833 137.5 59.5 184.5s91.834 70.5 156.501 70.5c35.333 0 68.166 -8.5 98.499 -25.5s55.5 -40.167 75.5 -69.5v83h30v-486c0 -66 -18.5 -114.667 -55.5 -146s-86.5 -47 -148.5 -47zM276 13
c36 0 70 9.66699 102 29s56 42.333 72 69v259c-16 26.667 -40 49.667 -72 69s-66 29 -102 29c-57.333 0 -102.166 -21.5 -134.499 -64.5s-48.5 -97.5 -48.5 -163.5s16.167 -120.333 48.5 -163s77.166 -64 134.499 -64z" />
    <glyph glyph-name="h" unicode="h" 
d="M442 0l-30 -0.000976562v339c0 48 -10.667 81.5 -32 100.5s-52.333 28.5 -93 28.5c-32 0 -64 -8.83301 -96 -26.5s-57 -39.167 -75 -64.5v-377h-30v667h30v-260c19.333 23.333 45.333 43.833 78 61.5s65 26.5 97 26.5c50 0 87.667 -12.167 113 -36.5
s38 -64.166 38 -119.499v-339z" />
    <glyph glyph-name="i" unicode="i" horiz-adv-x="202" 
d="M101 566c-7.33301 0 -14 2.83301 -20 8.5s-9 12.5 -9 20.5s3 14.833 9 20.5s12.667 8.5 20 8.5c8 0 14.833 -2.83301 20.5 -8.5s8.5 -12.5 8.5 -20.5s-2.83301 -14.833 -8.5 -20.5s-12.5 -8.5 -20.5 -8.5zM116 0h-30v483h30v-483z" />
    <glyph glyph-name="j" unicode="j" horiz-adv-x="202" 
d="M101 566c-7.33301 0 -14 2.83301 -20 8.5s-9 12.5 -9 20.5s3 14.833 9 20.5s12.667 8.5 20 8.5c8 0 14.833 -2.83301 20.5 -8.5s8.5 -12.5 8.5 -20.5s-2.83301 -14.833 -8.5 -20.5s-12.5 -8.5 -20.5 -8.5zM-3 -196c-34 0 -64.666 12.668 -91.999 38.001l19 25
c21.333 -24 45.666 -36 72.999 -36c26.667 0 48.167 7.66699 64.5 23s24.5 38.666 24.5 69.999v559h30v-559c0 -80 -39.667 -120 -119 -120z" />
    <glyph glyph-name="k" unicode="k" horiz-adv-x="496" 
d="M471 0h-43l-212 243l-100 -92v-151h-30v667h30v-478l315 294h43l-235 -218z" />
    <glyph glyph-name="l" unicode="l" horiz-adv-x="202" 
d="M116 0h-30v667h30v-667z" />
    <glyph glyph-name="m" unicode="m" horiz-adv-x="770" 
d="M684 0l-29.999 0.000976562v348c0 80 -34.667 120 -104 120c-26.667 0 -54.5 -8.83301 -83.5 -26.5s-51.167 -38.834 -66.5 -63.501v-378h-30v348c0 80 -34.667 120 -104 120c-26.667 0 -54.167 -8.83301 -82.5 -26.5s-50.833 -39.167 -67.5 -64.5v-377h-30v483h30v-76
c12 19.333 33 38.833 63 58.5s60.667 29.5 92 29.5c35.333 0 63.666 -9 84.999 -27s34.666 -39.667 39.999 -65c14.667 24 36.834 45.333 66.501 64s60.5 28 92.5 28c86 0 129 -49 129 -147v-348z" />
    <glyph glyph-name="n" unicode="n" 
d="M442 0h-30v337c0 48 -10.667 81.833 -32 101.5s-52.333 29.5 -93 29.5c-32 0 -64 -8.83301 -96 -26.5s-57 -39.167 -75 -64.5v-377h-30v483h30v-76c19.333 23.333 45.333 43.833 78 61.5s65 26.5 97 26.5c50 0 87.667 -12.5 113 -37.5s38 -65.167 38 -120.5v-337z" />
    <glyph glyph-name="o" unicode="o" horiz-adv-x="570" 
d="M285 -12c-66.667 0 -120.834 24.167 -162.501 72.5s-62.5 108.833 -62.5 181.5c0 72 20.833 132.167 62.5 180.5s95.834 72.5 162.501 72.5c67.333 0 121.666 -24 162.999 -72s62 -108.333 62 -181s-20.667 -133.167 -62 -181.5s-95.666 -72.5 -162.999 -72.5zM285 15
c59.333 0 106.166 22.167 140.499 66.5s51.5 97.833 51.5 160.5c0 62 -17.167 115.167 -51.5 159.5s-81.166 66.5 -140.499 66.5c-58.667 0 -105.334 -22.167 -140.001 -66.5s-52 -97.5 -52 -159.5c0 -62.667 17.333 -116.167 52 -160.5s81.334 -66.5 140.001 -66.5z" />
    <glyph glyph-name="p" unicode="p" horiz-adv-x="562" 
d="M290 -12c-35.333 0 -68.1641 8.49902 -98.4971 25.499s-55.5 40.167 -75.5 69.5v-267h-30v667h30v-81c17.333 26.667 41.666 48.834 72.999 66.501s65 26.5 101 26.5c65.333 0 117.666 -23 156.999 -69s59 -107.333 59 -184c0 -76 -19.833 -137.333 -59.5 -184
s-91.834 -70 -156.501 -70zM290.002 14.999c57.333 0 102.166 21.334 134.499 64.001s48.5 97 48.5 163s-16.167 120.167 -48.5 162.5s-77.166 63.5 -134.499 63.5c-36 0 -70 -9.33301 -102 -28s-56 -41.334 -72 -68.001v-259c16 -26.667 40 -49.667 72 -69s66 -29 102 -29z
" />
    <glyph glyph-name="q" unicode="q" horiz-adv-x="562" 
d="M272 15c36 0 70 9.66602 102 28.999s56 42.333 72 69v259c-16 26.667 -40 49.334 -72 68.001s-66 28 -102 28c-57.333 0 -102.166 -21.167 -134.499 -63.5s-48.5 -96.5 -48.5 -162.5s16.167 -120.333 48.5 -163s77.166 -64 134.499 -64zM272 -12.001
c-64.667 0 -116.832 23.334 -156.499 70.001s-59.5 108 -59.5 184c0 76.667 19.667 138 59 184s91.666 69 156.999 69c36 0 69.667 -8.83301 101 -26.5s55.666 -39.834 72.999 -66.501v81h30v-667h-30v267c-20 -29.333 -45.167 -52.5 -75.5 -69.5
s-63.166 -25.5 -98.499 -25.5z" />
    <glyph glyph-name="r" unicode="r" horiz-adv-x="304" 
d="M116 0h-30.001v483h30v-88c48.667 64.667 104 97 166 97v-36c-6 0.666992 -14 1 -24 1c-24.667 0 -51.667 -10 -81 -30s-49.666 -41.667 -60.999 -65v-362z" />
    <glyph glyph-name="s" unicode="s" horiz-adv-x="454" 
d="M221 -12c-73.333 0 -132.332 25.666 -176.999 76.999l24 22c36 -48 87 -72 153 -72c43.333 0 78 10.5 104 31.5s39 47.833 39 80.5c0 27.333 -10.667 49 -32 65s-47.166 27.833 -77.499 35.5l-91 24c-30.333 8.33301 -56.166 21.833 -77.499 40.5s-32 43.667 -32 75
c0 36.667 14.667 67.167 44 91.5s69.333 36.5 120 36.5c72.667 0 128 -24.333 166 -73l-22 -20c-30.667 44 -78.667 66 -144 66c-41.333 0 -74 -9.5 -98 -28.5s-36 -43.167 -36 -72.5c0 -24.667 10.667 -44.167 32 -58.5s47.166 -25.166 77.499 -32.499
s60.666 -15.333 90.999 -24s56.166 -23.167 77.499 -43.5s32 -47.5 32 -81.5c0 -40 -14.833 -73.167 -44.5 -99.5s-72.5 -39.5 -128.5 -39.5z" />
    <glyph glyph-name="t" unicode="t" horiz-adv-x="256" 
d="M174 -12c-54.667 0 -82 32.333 -82 97v371h-80v27h80v132h30v-132h98v-27h-98v-371c0 -46.667 17.333 -70 52 -70c23.333 0 42.333 8.66699 57 26l18 -23c-21.333 -20 -46.333 -30 -75 -30z" />
    <glyph glyph-name="u" unicode="u" 
d="M442 0l-29.999 0.000976562v74c-22 -24.667 -48.667 -45.167 -80 -61.5s-63 -24.5 -95 -24.5c-50 0 -87.667 12.167 -113 36.5s-38 64.166 -38 119.499v339h30v-339c0 -48 10.667 -81.5 32 -100.5s52.333 -28.5 93 -28.5c32 0 64.167 8.5 96.5 25.5
s57.166 37.833 74.499 62.5v380h30v-483z" />
    <glyph glyph-name="v" unicode="v" horiz-adv-x="471" 
d="M253 0h-35l-207 483h35l190 -448l189 448h35z" />
    <glyph glyph-name="w" unicode="w" horiz-adv-x="704" 
d="M522 0h-24l-146 438l-146 -438h-24l-160 483h33l140 -436l145 436h24l145 -436l140 436h33z" />
    <glyph glyph-name="x" unicode="x" horiz-adv-x="472" 
d="M450 0h-39l-175 228l-175 -228h-39l197 248l-186 235h39l164 -214l164 214h39l-186 -235z" />
    <glyph glyph-name="y" unicode="y" horiz-adv-x="471" 
d="M50 -189l5.99805 27.999c12 -5.33301 26 -8 42 -8c16.667 0 30.834 4.83301 42.501 14.5s22.834 26.834 33.501 51.501l44 100l-207 486h35l190 -448l189 448h35l-256 -597c-24 -54.667 -59.333 -82 -106 -82c-18 0 -34 2.33301 -48 7z" />
    <glyph glyph-name="z" unicode="z" horiz-adv-x="466" 
d="M406 0h-346v27l307 429h-307v27h342v-27l-309 -429h313v-27z" />
    <glyph glyph-name="braceleft" unicode="{" horiz-adv-x="237" 
d="M220 -190h-62c-26 0 -49 10.667 -69 32s-30 48.333 -30 81v234c0 20 -4.5 37 -13.5 51s-21.833 21 -38.5 21v30c16.667 0 29.5 7 38.5 21s13.5 31 13.5 51v234c0 32.667 10 59.667 30 81s43 32 69 32h62v-30h-62c-18.667 0 -34.834 -8 -48.501 -24
s-20.5 -35.667 -20.5 -59v-234c0 -45.333 -15 -74.333 -45 -87c30 -12.667 45 -41.667 45 -87v-234c0 -23.333 6.83301 -43 20.5 -59s29.834 -24 48.501 -24h62v-30z" />
    <glyph glyph-name="bar" unicode="|" horiz-adv-x="206" 
d="M118 -20h-30v707h30v-707z" />
    <glyph glyph-name="braceright" unicode="}" horiz-adv-x="237" 
d="M17 -190v30h62c18.667 0 34.834 8 48.501 24s20.5 35.667 20.5 59v234c0 45.333 15 74.333 45 87c-30 12.667 -45 41.667 -45 87v234c0 23.333 -6.83301 43 -20.5 59s-29.834 24 -48.501 24h-62v30h62c26 0 49 -10.667 69 -32s30 -48.333 30 -81v-234
c0 -20 4.5 -37 13.5 -51s21.833 -21 38.5 -21v-30c-16.667 0 -29.5 -7 -38.5 -21s-13.5 -31 -13.5 -51v-234c0 -32.667 -10 -59.667 -30 -81s-43 -32 -69 -32h-62z" />
    <glyph glyph-name="asciitilde" unicode="~" horiz-adv-x="496" 
d="M438 667l29.998 -2.99902c-4.66699 -45.333 -11 -83.833 -19 -115.5s-21.333 -58.834 -40 -81.501s-42 -34 -70 -34c-27.333 0 -49.5 10.5 -66.5 31.5s-28.833 44.167 -35.5 69.5s-16.667 48.5 -30 69.5s-30 31.5 -50 31.5c-52.667 0 -85.667 -68 -99 -204l-30 5
c6.66699 70 19.834 125.667 39.501 167s49.5 62 89.5 62c22 0 40.667 -7 56 -21s26.833 -30.833 34.5 -50.5s15 -39.5 22 -59.5s16.167 -37 27.5 -51s25.333 -21 42 -21c28 0 49.833 16.833 65.5 50.5s26.834 85.167 33.501 154.5z" />
    <glyph glyph-name="nbspace" unicode="&#xa0;" horiz-adv-x="260" 
 />
    <glyph glyph-name="exclamdown" unicode="&#xa1;" horiz-adv-x="208" 
d="M83 -184l11 506h20l11 -506h-42zM71 459c0 8.66699 3.1709 16.334 9.50391 23.001s14.166 10 23.499 10s17.166 -3.33301 23.499 -10s9.5 -14.334 9.5 -23.001s-3.33301 -16.167 -10 -22.5s-14.334 -9.5 -23.001 -9.5s-16.334 3.16699 -23.001 9.5s-10 13.833 -10 22.5z
" />
    <glyph glyph-name="cent" unicode="&#xa2;" horiz-adv-x="493" 
d="M262 -100l-0.000976562 90c-61.333 6.66699 -110.333 33.667 -147 81s-55 104.333 -55 171s18.333 123.5 55 170.5s85.667 73.833 147 80.5v72h30v-70c64 -0.666992 117.667 -27.667 161 -81l-22 -18c-35.333 46.667 -81.666 70.667 -138.999 72v-453
c56.667 0 103 24.333 139 73l22 -19c-43.333 -53.333 -97 -80.333 -161 -81v-88h-30zM92.999 242c0 -59.333 15.167 -110.166 45.5 -152.499s71.5 -66.833 123.5 -73.5v450c-52.667 -6.66699 -94 -30.834 -124 -72.501s-45 -92.167 -45 -151.5z" />
    <glyph glyph-name="sterling" unicode="&#xa3;" horiz-adv-x="491" 
d="M17 267l0.000976562 30.001h143c-4.66699 5.33301 -16 17.333 -34 36s-30.833 33.167 -38.5 43.5s-15.667 25.833 -24 46.5s-12.5 42.667 -12.5 66c0 50 19.5 93.833 58.5 131.5s88.833 56.5 149.5 56.5c36.667 0 71.167 -9.5 103.5 -28.5s56.166 -44.167 71.499 -75.5
l-26 -18c-10 24 -28.667 45.333 -56 64s-58.333 28 -93 28c-48.667 0 -90 -14.167 -124 -42.5s-51 -66.833 -51 -115.5c0 -22 4 -43 12 -63s16.667 -35.667 26 -47s21.833 -25.5 37.5 -42.5s27.167 -30.167 34.5 -39.5h152v-30h-133c10.667 -20 16 -41.333 16 -64
c0 -33.333 -7.5 -61.333 -22.5 -84s-36.167 -44.334 -63.5 -65.001c18.667 6.66699 37 10 55 10c23.333 0 51.166 -8 83.499 -24s58.5 -24 78.5 -24c21.333 0 42 4.66699 62 14s34 19 42 29l18 -27c-32 -30.667 -73.333 -46 -124 -46c-30.667 0 -60.667 8 -90 24
s-58.666 24 -87.999 24c-26 0 -65.667 -13.667 -119 -41l-14 33c50.667 21.333 88.667 47.333 114 78s38 63.667 38 99c0 22 -6 43.333 -18 64h-164z" />
    <glyph glyph-name="currency" unicode="&#xa4;" horiz-adv-x="577" 
d="M288 99c-62.667 0 -114.332 19.667 -154.999 59l-80 -80l-21 21l81 81c-33.333 42.667 -50 93.667 -50 153c0 60.667 17 112 51 154l-83 83l21 21l82 -83c42 38.667 93.333 58 154 58c61.333 0 112.666 -19 153.999 -57l81 81l21 -21l-82 -82c34 -42 51 -93.333 51 -154
c0 -59.333 -16.667 -110.333 -50 -153l81 -81l-21 -21l-80 80c-41.333 -39.333 -93 -59 -155 -59zM288.002 129c59.333 0 106.166 20 140.499 60s51.5 88 51.5 144s-17.167 103.833 -51.5 143.5s-81.166 59.5 -140.499 59.5c-58.667 0 -105.334 -20 -140.001 -60
s-52 -87.667 -52 -143c0 -56 17.333 -104 52 -144s81.334 -60 140.001 -60z" />
    <glyph glyph-name="yen" unicode="&#xa5;" horiz-adv-x="610" 
d="M321 0h-32v129h-268v30h268v130h-268v30h246l-246 348h41l243 -346l243 346h41l-247 -348h247v-30h-268v-130h268v-30h-268v-129z" />
    <glyph glyph-name="brokenbar" unicode="&#xa6;" horiz-adv-x="206" 
d="M118 -20h-30v316h30v-316zM118 371h-30v316h30v-316z" />
    <glyph glyph-name="section" unicode="&#xa7;" horiz-adv-x="454" 
d="M394 306c0 -58.667 -33.333 -101.002 -100 -127.002c33.333 -12 58.333 -27.5 75 -46.5s25 -43.833 25 -74.5c0 -43.333 -15.833 -77.333 -47.5 -102s-73.5 -37 -125.5 -37c-43.333 0 -78.166 6.66699 -104.499 20s-50.5 32.333 -72.5 57l24 22c36 -48 87 -72 153 -72
c42 0 76.333 10.167 103 30.5s40 47.5 40 81.5c0 26.667 -10.667 48.167 -32 64.5s-47.166 28.333 -77.499 36l-91 24c-30.333 8.33301 -56.166 21.833 -77.499 40.5s-32 43.667 -32 75c0 34.667 11.833 62.834 35.5 84.501s55.167 36.834 94.5 45.501
c-42.667 12 -75 27 -97 45s-33 43.333 -33 76c0 36 14.333 66.333 43 91s69 37 121 37c72 0 127.333 -24.333 166 -73l-22 -20c-32 44 -80 66 -144 66c-38.667 0 -70.667 -9.5 -96 -28.5s-38 -43.833 -38 -74.5c0 -24.667 10.667 -44.167 32 -58.5s47.166 -25 77.499 -32
s60.666 -14.667 90.999 -23s56.166 -23 77.499 -44s32 -48.833 32 -83.5zM364 308.998c0 16.667 -3.83008 31.168 -11.4971 43.501s-19.334 22.666 -35.001 30.999s-29.5 14.666 -41.5 18.999s-28.667 9.16602 -50 14.499c-52.667 -14 -89.5 -30.667 -110.5 -50
s-31.5 -43 -31.5 -71c0 -15.333 4.16699 -28.666 12.5 -39.999s19.666 -20.5 33.999 -27.5s30.666 -13.167 48.999 -18.5s37.833 -10.666 58.5 -15.999c10 -2 17.333 -3.66699 22 -5c69.333 30 104 70 104 120z" />
    <glyph glyph-name="dieresis" unicode="&#xa8;" horiz-adv-x="252" 
d="M255 598c0 -7.33301 -2.83301 -13.833 -8.5 -19.5s-12.167 -8.5 -19.5 -8.5s-13.833 2.83301 -19.5 8.5s-8.5 12.167 -8.5 19.5s2.83301 13.833 8.5 19.5s12.167 8.5 19.5 8.5s13.833 -2.83301 19.5 -8.5s8.5 -12.167 8.5 -19.5zM53 598
c0 -7.33301 -2.83301 -13.833 -8.5 -19.5s-12.167 -8.5 -19.5 -8.5s-13.833 2.83301 -19.5 8.5s-8.5 12.167 -8.5 19.5s2.83301 13.833 8.5 19.5s12.167 8.5 19.5 8.5s13.833 -2.83301 19.5 -8.5s8.5 -12.167 8.5 -19.5z" />
    <glyph glyph-name="copyright" unicode="&#xa9;" horiz-adv-x="778" 
d="M734 334c0 -95.333 -33.667 -176.668 -101 -244.001s-148.666 -101 -243.999 -101s-176.666 33.833 -243.999 101.5s-101 148.834 -101 243.501c0 95.333 33.667 176.666 101 243.999s148.666 101 243.999 101s176.666 -33.667 243.999 -101s101 -148.666 101 -243.999z
M708 333.998c0 88 -31.167 163.167 -93.5 225.5s-137.5 93.5 -225.5 93.5c-87.333 0 -162.333 -31.167 -225 -93.5s-94 -137.5 -94 -225.5c0 -87.333 31.333 -162.333 94 -225s137.667 -94 225 -94c88 0 163.167 31.333 225.5 94s93.5 137.667 93.5 225zM513 203.998
l20 -19.999c-37.333 -43.333 -85.333 -65 -144 -65c-58 0 -107.167 21 -147.5 63s-60.5 93.333 -60.5 154s20.167 111.5 60.5 152.5s89.5 61.5 147.5 61.5c59.333 0 107.333 -21.333 144 -64l-20 -20c-12.667 17.333 -30.5 31.166 -53.5 41.499s-46.5 15.5 -70.5 15.5
c-48.667 0 -90.667 -17.5 -126 -52.5s-53 -80.167 -53 -135.5c0 -54 17.833 -99 53.5 -135s77.5 -54 125.5 -54c24 0 47.5 5.33301 70.5 16s40.833 24.667 53.5 42z" />
    <glyph glyph-name="ordfeminine" unicode="&#xaa;" horiz-adv-x="372" 
d="M303 326l-27 0.00195312v38c-30 -30.667 -67.667 -46 -113 -46c-30 0 -56.333 9.66699 -79 29s-34 44.666 -34 75.999c0 32 11.167 57.333 33.5 76s48.833 28 79.5 28c45.333 0 83 -15.333 113 -46v68c0 23.333 -9 41.5 -27 54.5s-39 19.5 -63 19.5
c-42.667 0 -77 -16.667 -103 -50l-18 19c32 37.333 72.667 56 122 56c34.667 0 62.667 -8.33301 84 -25s32 -41.334 32 -74.001v-223zM172 340.002c44.667 0 79.333 15.333 104 46v73c-24.667 30.667 -59.334 46 -104.001 46c-27.333 0 -49.666 -7.83301 -66.999 -23.5
s-26 -35.167 -26 -58.5c0 -24 8.5 -43.833 25.5 -59.5s39.5 -23.5 67.5 -23.5z" />
    <glyph glyph-name="guillemotleft" unicode="&#xab;" horiz-adv-x="364" 
d="M334 63h-39l-160 180l160 177h39l-160 -177zM229 63h-39l-160 180l160 177h39l-160 -177z" />
    <glyph glyph-name="logicalnot" unicode="&#xac;" horiz-adv-x="494" 
d="M465 448v-228h-32v198h-404v30h436z" />
    <glyph glyph-name="uni00AD" unicode="&#xad;" horiz-adv-x="300" 
d="M270 227h-240v30h240v-30z" />
    <glyph glyph-name="registered" unicode="&#xae;" horiz-adv-x="494" 
d="M459 465c0 -58.667 -20.667 -108.667 -62 -150s-91.333 -62 -150 -62s-108.667 20.667 -150 62s-62 91.333 -62 150s20.667 108.667 62 150s91.333 62 150 62c59.333 0 109.5 -20.5 150.5 -61.5s61.5 -91.167 61.5 -150.5zM433 465c0 52 -18.167 96 -54.5 132
s-80.166 54 -131.499 54s-95.166 -18 -131.499 -54s-54.5 -80 -54.5 -132c0 -51.333 18.167 -95.166 54.5 -131.499s80.166 -54.5 131.499 -54.5s95.166 18.167 131.499 54.5s54.5 80.166 54.5 131.499zM343 343l-37 -0.000976562l-63 96h-47v-96h-29v243h99
c20.667 0 38.167 -6.83301 52.5 -20.5s21.5 -31.5 21.5 -53.5c0 -23.333 -7.5 -41.166 -22.5 -53.499s-28.167 -18.5 -39.5 -18.5zM310 511.999c0 13.333 -4.66699 24.5 -14 33.5s-19.333 13.5 -30 13.5h-70v-92h70c10.667 0 20.667 4.5 30 13.5s14 19.5 14 31.5z" />
    <glyph glyph-name="macron" unicode="&#xaf;" horiz-adv-x="363" 
d="M363 581h-363v27h363v-27z" />
    <glyph glyph-name="degree" unicode="&#xb0;" horiz-adv-x="273" 
d="M247 566c0 -30.667 -10.833 -56.667 -32.5 -78s-47.834 -32 -78.501 -32s-56.667 10.667 -78 32s-32 47.333 -32 78s10.667 56.834 32 78.501s47.333 32.5 78 32.5s56.834 -10.833 78.501 -32.5s32.5 -47.834 32.5 -78.501zM217 566c0 22 -8 41 -24 57s-35 24 -57 24
s-40.833 -8 -56.5 -24s-23.5 -35 -23.5 -57s7.83301 -40.833 23.5 -56.5s34.5 -23.5 56.5 -23.5s41 7.83301 57 23.5s24 34.5 24 56.5z" />
    <glyph glyph-name="plusminus" unicode="&#xb1;" horiz-adv-x="494" 
d="M465 322h-202v-222h-32v222h-202v30h202v216h32v-216h202v-30zM465 0h-436v30h436v-30z" />
    <glyph glyph-name="twosuperior" unicode="&#xb2;" horiz-adv-x="380" 
d="M325 421h-271v24c79.333 57.333 139.166 107 179.499 149s60.5 82 60.5 120c0 29.333 -9.83301 51.166 -29.5 65.499s-43.167 21.5 -70.5 21.5c-52 0 -90 -17.667 -114 -53l-20 18c28.667 40.667 73.667 61 135 61c33.333 0 63 -9.33301 89 -28s39 -46.667 39 -84
c0 -42.667 -19.167 -84.667 -57.5 -126s-94.166 -88.666 -167.499 -141.999h227v-26z" />
    <glyph glyph-name="threesuperior" unicode="&#xb3;" horiz-adv-x="380" 
d="M326 528c0 -34 -12.3301 -61.498 -36.9971 -82.498s-58.334 -31.5 -101.001 -31.5c-32 0 -60 6.16699 -84 18.5s-42 28.166 -54 47.499l20 17c26.667 -38 66 -57 118 -57c33.333 0 59.666 7.83301 78.999 23.5s29 37.167 29 64.5c0 29.333 -11 51.166 -33 65.499
s-50 21.5 -84 21.5c-20 0 -32 -0.333008 -36 -1v27c4 -0.666992 16 -1 36 -1c32 0 58.5 6.66699 79.5 20s31.5 33.666 31.5 60.999c0 24.667 -10 44.167 -30 58.5s-44.333 21.5 -73 21.5c-44.667 0 -82.334 -17.333 -113.001 -52l-19 18c34 40 78.333 60 133 60
c36.667 0 67.667 -9.5 93 -28.5s38 -44.5 38 -76.5c0 -28.667 -9.33301 -50.667 -28 -66s-39 -24.666 -61 -27.999c22 -2 43.5 -11.5 64.5 -28.5s31.5 -40.833 31.5 -71.5z" />
    <glyph glyph-name="acute" unicode="&#xb4;" horiz-adv-x="205" 
d="M205 700l-175 -144h-30l160 144h45z" />
    <glyph glyph-name="mu" unicode="&#xb5;" horiz-adv-x="542" 
d="M116 53l-0.00195312 -237.001h-30v667h30v-339c0 -87.333 42.333 -131 127 -131c31.333 0 63 8.83301 95 26.5s56.667 38.834 74 63.501v380h30v-398c0 -46.667 17.333 -70 52 -70c8 0 14.667 0.666992 20 2l3 -27c-8 -1.33301 -15.667 -2 -23 -2
c-50 0 -77.333 28.667 -82 86c-21.333 -24.667 -47.166 -45.167 -77.499 -61.5s-60.833 -24.5 -91.5 -24.5c-63.333 0 -105.666 21.667 -126.999 65z" />
    <glyph glyph-name="paragraph" unicode="&#xb6;" horiz-adv-x="449" 
d="M357 -100h-30v737h-98v-737h-30v423c-47.333 0 -87.833 16.833 -121.5 50.5s-50.5 74.167 -50.5 121.5s16.833 87.833 50.5 121.5s74.167 50.5 121.5 50.5h158v-767z" />
    <glyph glyph-name="periodcentered" unicode="&#xb7;" horiz-adv-x="208" 
d="M137 245c0 -8.66699 -3.1709 -16.334 -9.50391 -23.001s-14.166 -10 -23.499 -10s-17.166 3.33301 -23.499 10s-9.5 14.334 -9.5 23.001s3.33301 16.167 10 22.5s14.334 9.5 23.001 9.5s16.334 -3.16699 23.001 -9.5s10 -13.833 10 -22.5z" />
    <glyph glyph-name="cedilla" unicode="&#xb8;" horiz-adv-x="191" 
d="M93 -187c-38.667 0 -69.665 9.33301 -92.998 28l14 27c21.333 -18.667 47.666 -28 78.999 -28c19.333 0 35.666 4.5 48.999 13.5s20 20.833 20 35.5c0 28.667 -14.667 43 -44 43c-18 0 -32.333 -6.33301 -43 -19l-22 13l31 85h30l-26 -69c10 8 22.667 12 38 12
c19.333 0 35 -5.83301 47 -17.5s18 -27.5 18 -47.5c0 -22 -9.33301 -40.167 -28 -54.5s-42 -21.5 -70 -21.5z" />
    <glyph glyph-name="onesuperior" unicode="&#xb9;" horiz-adv-x="192" 
d="M132 421h-30v360l-63 -69l-19 20l85 89h27v-400z" />
    <glyph glyph-name="ordmasculine" unicode="&#xba;" horiz-adv-x="405" 
d="M202 318c-45.333 0 -82.333 15.833 -111 47.5s-43 70.834 -43 117.501c0 47.333 14.333 86.666 43 117.999s65.667 47 111 47c46 0 83.333 -15.667 112 -47s43 -70.666 43 -117.999c0 -46.667 -14.333 -85.834 -43 -117.501s-66 -47.5 -112 -47.5zM202 344
c38.667 0 69.334 13.5 92.001 40.5s34 59.833 34 98.5s-11.333 71.334 -34 98.001s-53.334 40 -92.001 40c-38 0 -68.167 -13.333 -90.5 -40s-33.5 -59.334 -33.5 -98.001s11.167 -71.5 33.5 -98.5s52.5 -40.5 90.5 -40.5z" />
    <glyph glyph-name="guillemotright" unicode="&#xbb;" horiz-adv-x="364" 
d="M229 243l-160 -180h-39l160 180l-160 177h39zM334 243l-160 -180h-39l160 180l-160 177h39z" />
    <glyph glyph-name="onequarter" unicode="&#xbc;" horiz-adv-x="715" 
d="M132 267h-30v360l-63 -69l-19 20l85 89h27v-400zM669 113h-62v-113h-29v113h-196v26l186 261h39v-261h62v-26zM578 139v232l-165 -232h165zM546 667l-427 -667h-36l426 667h37z" />
    <glyph glyph-name="onehalf" unicode="&#xbd;" horiz-adv-x="755" 
d="M132 267h-30v360l-63 -69l-19 20l85 89h27v-400zM700 0h-271v24c79.333 57.333 139.166 107 179.499 149s60.5 82 60.5 120c0 29.333 -9.83301 51.166 -29.5 65.499s-43.167 21.5 -70.5 21.5c-52 0 -90 -17.667 -114 -53l-20 18c28.667 40.667 73.667 61 135 61
c33.333 0 63 -9.33301 89 -28s39 -46.667 39 -84c0 -42.667 -19.167 -84.667 -57.5 -126s-94.166 -88.666 -167.499 -141.999h227v-26zM546 667l-427 -667h-36l426 667h37z" />
    <glyph glyph-name="threequarters" unicode="&#xbe;" horiz-adv-x="841" 
d="M795 113h-62v-113h-29v113h-196v26l186 261h39v-261h62v-26zM704 139v232l-165 -232h165zM672 667l-427 -667h-36l426 667h37zM326 374c0 -34 -12.3301 -61.498 -36.9971 -82.498s-58.334 -31.5 -101.001 -31.5c-32 0 -60 6.16699 -84 18.5s-42 28.166 -54 47.499l20 17
c26.667 -38 66 -57 118 -57c33.333 0 59.666 7.83301 78.999 23.5s29 37.167 29 64.5c0 29.333 -11 51.166 -33 65.499s-50 21.5 -84 21.5c-20 0 -32 -0.333008 -36 -1v27c4 -0.666992 16 -1 36 -1c32 0 58.5 6.66699 79.5 20s31.5 33.666 31.5 60.999
c0 24.667 -10 44.167 -30 58.5s-44.333 21.5 -73 21.5c-44.667 0 -82.334 -17.333 -113.001 -52l-19 18c34 40 78.333 60 133 60c36.667 0 67.667 -9.5 93 -28.5s38 -44.5 38 -76.5c0 -28.667 -9.33301 -50.667 -28 -66s-39 -24.666 -61 -27.999
c22 -2 43.5 -11.5 64.5 -28.5s31.5 -40.833 31.5 -71.5z" />
    <glyph glyph-name="questiondown" unicode="&#xbf;" horiz-adv-x="391" 
d="M242 312c29.333 -22 44 -47.335 44 -76.002c0 -24.667 -7.16699 -47 -21.5 -67s-31.833 -36.833 -52.5 -50.5l-62 -42c-20.667 -14.333 -38.167 -31.666 -52.5 -51.999s-21.5 -43.166 -21.5 -68.499c0 -34.667 13.333 -63.834 40 -87.501s63.667 -35.5 111 -35.5
c45.333 0 82.833 8.33301 112.5 25s55.834 41 78.501 73l23 -21c-50 -71.333 -121.333 -107 -214 -107c-56.667 0 -101.834 14.833 -135.501 44.5s-50.5 65.834 -50.5 108.501c0 24 5.33301 46.167 16 66.5s24 37 40 50s33.167 26.167 51.5 39.5l51.5 36.5
c16 11 29.333 24 40 39s16 31.167 16 48.5c0 20 -11 37.667 -33 53zM245 491.998c8.66699 0 16.334 -3.33301 23.001 -10s10 -14.334 10 -23.001s-3.33301 -16.167 -10 -22.5s-14.334 -9.5 -23.001 -9.5s-16.334 3.16699 -23.001 9.5s-10 13.833 -10 22.5
s3.33301 16.334 10 23.001s14.334 10 23.001 10z" />
    <glyph glyph-name="Agrave" unicode="&#xc0;" horiz-adv-x="636" 
d="M615 0h-37l-74 179h-372l-74 -179h-37l278 667h38zM492 209l-174 421l-174 -421h348zM369 723h-30l-175 144h45z" />
    <glyph glyph-name="Aacute" unicode="&#xc1;" horiz-adv-x="636" 
d="M615 0h-37l-74 179h-372l-74 -179h-37l278 667h38zM492 209l-174 421l-174 -421h348zM472 867l-175 -144h-30l160 144h45z" />
    <glyph glyph-name="Acircumflex" unicode="&#xc2;" horiz-adv-x="636" 
d="M437 723h-28l-91 120l-88 -120h-28l98 144h36zM615 0h-37l-74 179h-372l-74 -179h-37l278 667h38zM492 209l-174 421l-174 -421h348z" />
    <glyph glyph-name="Atilde" unicode="&#xc3;" horiz-adv-x="636" 
d="M615 0h-37l-74 179h-372l-74 -179h-37l278 667h38zM492 209l-174 421l-174 -421h348zM381 721c-17.333 0 -32.166 5.83301 -44.499 17.5s-21.333 24.667 -27 39s-13.334 27.333 -23.001 39s-20.834 17.5 -33.501 17.5c-17.333 0 -31.5 -8.83301 -42.5 -26.5
s-16.5 -44.5 -16.5 -80.5h-26c0 38 7.83301 69.833 23.5 95.5s37.167 38.5 64.5 38.5c17.333 0 32.166 -5.83301 44.499 -17.5s21.333 -24.667 27 -39s13.334 -27.333 23.001 -39s20.834 -17.5 33.501 -17.5c17.333 0 31.5 8.83301 42.5 26.5s16.5 44.5 16.5 80.5h26
c0 -38 -7.83301 -69.833 -23.5 -95.5s-37.167 -38.5 -64.5 -38.5z" />
    <glyph glyph-name="Adieresis" unicode="&#xc4;" horiz-adv-x="636" 
d="M448 765c0 -7.33301 -2.83301 -13.833 -8.5 -19.5s-12.167 -8.5 -19.5 -8.5s-13.833 2.83301 -19.5 8.5s-8.5 12.167 -8.5 19.5s2.83301 13.833 8.5 19.5s12.167 8.5 19.5 8.5s13.833 -2.83301 19.5 -8.5s8.5 -12.167 8.5 -19.5zM246 765
c0 -7.33301 -2.83301 -13.833 -8.5 -19.5s-12.167 -8.5 -19.5 -8.5s-13.833 2.83301 -19.5 8.5s-8.5 12.167 -8.5 19.5s2.83301 13.833 8.5 19.5s12.167 8.5 19.5 8.5s13.833 -2.83301 19.5 -8.5s8.5 -12.167 8.5 -19.5zM615 0h-37l-74 179h-372l-74 -179h-37l278 667h38z
M492 209l-174 421l-174 -421h348z" />
    <glyph glyph-name="Aring" unicode="&#xc5;" horiz-adv-x="636" 
d="M615 0h-37l-74 179h-372l-74 -179h-37l278 667h38zM492 209l-174 421l-174 -421h348zM319 692c-25.333 0 -47.166 9.16699 -65.499 27.5s-27.5 40.166 -27.5 65.499s9.16699 47.166 27.5 65.499s40.166 27.5 65.499 27.5s47 -9.16699 65 -27.5s27 -40.166 27 -65.499
s-9 -47.166 -27 -65.499s-39.667 -27.5 -65 -27.5zM319 716c18.667 0 34.667 6.66699 48 20s20 29.666 20 48.999s-6.66699 35.666 -20 48.999s-29.333 20 -48 20c-19.333 0 -35.666 -6.66699 -48.999 -20s-20 -29.666 -20 -48.999s6.66699 -35.666 20 -48.999
s29.666 -20 48.999 -20z" />
    <glyph glyph-name="AE" unicode="&#xc6;" horiz-adv-x="930" 
d="M865 0h-408v179h-286l-113 -179h-37l425 667h419v-30h-376v-279h369v-30h-369v-298h376v-30zM457 209v421l-269 -421h269z" />
    <glyph glyph-name="Ccedilla" unicode="&#xc7;" horiz-adv-x="667" 
d="M392 -183c-38.667 0 -69.665 9.33301 -92.998 28l14 27c21.333 -18.667 47.666 -28 78.999 -28c19.333 0 35.666 4.5 48.999 13.5s20 20.833 20 35.5c0 28.667 -14.667 43 -44 43c-18 0 -32.333 -6.33301 -43 -19l-22 13l21 59c-88 6 -161.333 40.833 -220 104.5
s-88 143.5 -88 239.5c0 100.667 32 183.334 96 248.001s143 97 237 97s171.333 -35 232 -105l-25 -22c-24 30 -54.167 53.667 -90.5 71s-75.166 26 -116.499 26c-84.667 0 -155.5 -29.333 -212.5 -88s-85.5 -134.334 -85.5 -227.001c0 -92 28.5 -167.5 85.5 -226.5
s127.833 -88.5 212.5 -88.5c41.333 0 80.166 8.66699 116.499 26s66.5 41 90.5 71l26 -21c-62 -70 -138 -105.333 -228 -106l-16 -42c10 8 22.667 12 38 12c19.333 0 35 -5.83301 47 -17.5s18 -27.5 18 -47.5c0 -22 -9.33301 -40.167 -28 -54.5s-42 -21.5 -70 -21.5z" />
    <glyph glyph-name="Egrave" unicode="&#xc8;" horiz-adv-x="558" 
d="M496 0h-408v667h408v-30h-376v-279h369v-30h-369v-298h376v-30zM343 723h-30l-175 144h45z" />
    <glyph glyph-name="Eacute" unicode="&#xc9;" horiz-adv-x="558" 
d="M446 867l-175 -144h-30l160 144h45zM496 0h-408v667h408v-30h-376v-279h369v-30h-369v-298h376v-30z" />
    <glyph glyph-name="Ecircumflex" unicode="&#xca;" horiz-adv-x="558" 
d="M408 723h-28l-91 120l-88 -120h-28l98 144h36zM496 0h-408v667h408v-30h-376v-279h369v-30h-369v-298h376v-30z" />
    <glyph glyph-name="Edieresis" unicode="&#xcb;" horiz-adv-x="558" 
d="M419 765c0 -7.33301 -2.83301 -13.833 -8.5 -19.5s-12.167 -8.5 -19.5 -8.5s-13.833 2.83301 -19.5 8.5s-8.5 12.167 -8.5 19.5s2.83301 13.833 8.5 19.5s12.167 8.5 19.5 8.5s13.833 -2.83301 19.5 -8.5s8.5 -12.167 8.5 -19.5zM217 765
c0 -7.33301 -2.83301 -13.833 -8.5 -19.5s-12.167 -8.5 -19.5 -8.5s-13.833 2.83301 -19.5 8.5s-8.5 12.167 -8.5 19.5s2.83301 13.833 8.5 19.5s12.167 8.5 19.5 8.5s13.833 -2.83301 19.5 -8.5s8.5 -12.167 8.5 -19.5zM496 0h-408v667h408v-30h-376v-279h369v-30h-369
v-298h376v-30z" />
    <glyph glyph-name="Igrave" unicode="&#xcc;" horiz-adv-x="208" 
d="M120 0h-32v667h32v-667zM155 723h-30l-175 144h45z" />
    <glyph glyph-name="Iacute" unicode="&#xcd;" horiz-adv-x="208" 
d="M120 0h-32v667h32v-667zM258 867l-175 -144h-30l160 144h45z" />
    <glyph glyph-name="Icircumflex" unicode="&#xce;" horiz-adv-x="208" 
d="M223 723h-28l-91 120l-88 -120h-28l98 144h36zM120 0h-32v667h32v-667z" />
    <glyph glyph-name="Idieresis" unicode="&#xcf;" horiz-adv-x="208" 
d="M233 765c0 -7.33301 -2.83301 -13.833 -8.5 -19.5s-12.167 -8.5 -19.5 -8.5s-13.833 2.83301 -19.5 8.5s-8.5 12.167 -8.5 19.5s2.83301 13.833 8.5 19.5s12.167 8.5 19.5 8.5s13.833 -2.83301 19.5 -8.5s8.5 -12.167 8.5 -19.5zM31 765
c0 -7.33301 -2.83301 -13.833 -8.5 -19.5s-12.167 -8.5 -19.5 -8.5s-13.833 2.83301 -19.5 8.5s-8.5 12.167 -8.5 19.5s2.83301 13.833 8.5 19.5s12.167 8.5 19.5 8.5s13.833 -2.83301 19.5 -8.5s8.5 -12.167 8.5 -19.5zM120 0h-32v667h32v-667z" />
    <glyph glyph-name="Eth" unicode="&#xd0;" horiz-adv-x="715" 
d="M317 0l-198 -0.000976562v318h-107v30h107v319h198c100 0 180.333 -32.5 241 -97.5s91 -143.833 91 -236.5c0 -93.333 -30.167 -172.166 -90.5 -236.499s-140.833 -96.5 -241.5 -96.5zM317 29.999c92 0 164.499 28.668 217.499 86.001s79.5 129.666 79.5 216.999
c0 86.667 -26.667 159 -80 217s-125.666 87 -216.999 87h-166v-289h188v-30h-188v-288h166z" />
    <glyph glyph-name="Ntilde" unicode="&#xd1;" horiz-adv-x="690" 
d="M406 721c-17.333 0 -32.166 5.83301 -44.499 17.5s-21.333 24.667 -27 39s-13.334 27.333 -23.001 39s-20.834 17.5 -33.501 17.5c-17.333 0 -31.5 -8.83301 -42.5 -26.5s-16.5 -44.5 -16.5 -80.5h-26c0 38 7.83301 69.833 23.5 95.5s37.167 38.5 64.5 38.5
c17.333 0 32.166 -5.83301 44.499 -17.5s21.333 -24.667 27 -39s13.334 -27.333 23.001 -39s20.834 -17.5 33.501 -17.5c17.333 0 31.5 8.83301 42.5 26.5s16.5 44.5 16.5 80.5h26c0 -38 -7.83301 -69.833 -23.5 -95.5s-37.167 -38.5 -64.5 -38.5zM602 0h-32l-450 615v-615
h-32v667h32l450 -609v609h32v-667z" />
    <glyph glyph-name="Ograve" unicode="&#xd2;" horiz-adv-x="764" 
d="M433 723h-30l-175 144h45zM382 -12c-95.333 0 -172 32.833 -230 98.5s-87 147.834 -87 246.501s29 180.834 87 246.501s134.667 98.5 230 98.5c94.667 0 171.167 -32.833 229.5 -98.5s87.5 -147.834 87.5 -246.501s-29.167 -180.834 -87.5 -246.501
s-134.833 -98.5 -229.5 -98.5zM382 18c84.667 0 152.834 29.5 204.501 88.5s77.5 134.5 77.5 226.5c0 92.667 -25.833 168.334 -77.5 227.001s-119.834 88 -204.501 88c-85.333 0 -153.666 -29.333 -204.999 -88s-77 -134.334 -77 -227.001c0 -92 25.667 -167.5 77 -226.5
s119.666 -88.5 204.999 -88.5z" />
    <glyph glyph-name="Oacute" unicode="&#xd3;" horiz-adv-x="764" 
d="M536 867l-175 -144h-30l160 144h45zM382 -12c-95.333 0 -172 32.833 -230 98.5s-87 147.834 -87 246.501s29 180.834 87 246.501s134.667 98.5 230 98.5c94.667 0 171.167 -32.833 229.5 -98.5s87.5 -147.834 87.5 -246.501s-29.167 -180.834 -87.5 -246.501
s-134.833 -98.5 -229.5 -98.5zM382 18c84.667 0 152.834 29.5 204.501 88.5s77.5 134.5 77.5 226.5c0 92.667 -25.833 168.334 -77.5 227.001s-119.834 88 -204.501 88c-85.333 0 -153.666 -29.333 -204.999 -88s-77 -134.334 -77 -227.001c0 -92 25.667 -167.5 77 -226.5
s119.666 -88.5 204.999 -88.5z" />
    <glyph glyph-name="Ocircumflex" unicode="&#xd4;" horiz-adv-x="764" 
d="M501 723h-28l-91 120l-88 -120h-28l98 144h36zM382 -12c-95.333 0 -172 32.833 -230 98.5s-87 147.834 -87 246.501s29 180.834 87 246.501s134.667 98.5 230 98.5c94.667 0 171.167 -32.833 229.5 -98.5s87.5 -147.834 87.5 -246.501s-29.167 -180.834 -87.5 -246.501
s-134.833 -98.5 -229.5 -98.5zM382 18c84.667 0 152.834 29.5 204.501 88.5s77.5 134.5 77.5 226.5c0 92.667 -25.833 168.334 -77.5 227.001s-119.834 88 -204.501 88c-85.333 0 -153.666 -29.333 -204.999 -88s-77 -134.334 -77 -227.001c0 -92 25.667 -167.5 77 -226.5
s119.666 -88.5 204.999 -88.5z" />
    <glyph glyph-name="Otilde" unicode="&#xd5;" horiz-adv-x="764" 
d="M382 -12c-95.333 0 -172 32.833 -230 98.5s-87 147.834 -87 246.501s29 180.834 87 246.501s134.667 98.5 230 98.5c94.667 0 171.167 -32.833 229.5 -98.5s87.5 -147.834 87.5 -246.501s-29.167 -180.834 -87.5 -246.501s-134.833 -98.5 -229.5 -98.5zM382 18
c84.667 0 152.834 29.5 204.501 88.5s77.5 134.5 77.5 226.5c0 92.667 -25.833 168.334 -77.5 227.001s-119.834 88 -204.501 88c-85.333 0 -153.666 -29.333 -204.999 -88s-77 -134.334 -77 -227.001c0 -92 25.667 -167.5 77 -226.5s119.666 -88.5 204.999 -88.5zM445 721
c-17.333 0 -32.166 5.83301 -44.499 17.5s-21.333 24.667 -27 39s-13.334 27.333 -23.001 39s-20.834 17.5 -33.501 17.5c-17.333 0 -31.5 -8.83301 -42.5 -26.5s-16.5 -44.5 -16.5 -80.5h-26c0 38 7.83301 69.833 23.5 95.5s37.167 38.5 64.5 38.5
c17.333 0 32.166 -5.83301 44.499 -17.5s21.333 -24.667 27 -39s13.334 -27.333 23.001 -39s20.834 -17.5 33.501 -17.5c17.333 0 31.5 8.83301 42.5 26.5s16.5 44.5 16.5 80.5h26c0 -38 -7.83301 -69.833 -23.5 -95.5s-37.167 -38.5 -64.5 -38.5z" />
    <glyph glyph-name="Odieresis" unicode="&#xd6;" horiz-adv-x="764" 
d="M509 765c0 -7.33301 -2.83301 -13.833 -8.5 -19.5s-12.167 -8.5 -19.5 -8.5s-13.833 2.83301 -19.5 8.5s-8.5 12.167 -8.5 19.5s2.83301 13.833 8.5 19.5s12.167 8.5 19.5 8.5s13.833 -2.83301 19.5 -8.5s8.5 -12.167 8.5 -19.5zM307 765
c0 -7.33301 -2.83301 -13.833 -8.5 -19.5s-12.167 -8.5 -19.5 -8.5s-13.833 2.83301 -19.5 8.5s-8.5 12.167 -8.5 19.5s2.83301 13.833 8.5 19.5s12.167 8.5 19.5 8.5s13.833 -2.83301 19.5 -8.5s8.5 -12.167 8.5 -19.5zM382 -12c-95.333 0 -172 32.833 -230 98.5
s-87 147.834 -87 246.501s29 180.834 87 246.501s134.667 98.5 230 98.5c94.667 0 171.167 -32.833 229.5 -98.5s87.5 -147.834 87.5 -246.501s-29.167 -180.834 -87.5 -246.501s-134.833 -98.5 -229.5 -98.5zM382 18c84.667 0 152.834 29.5 204.501 88.5
s77.5 134.5 77.5 226.5c0 92.667 -25.833 168.334 -77.5 227.001s-119.834 88 -204.501 88c-85.333 0 -153.666 -29.333 -204.999 -88s-77 -134.334 -77 -227.001c0 -92 25.667 -167.5 77 -226.5s119.666 -88.5 204.999 -88.5z" />
    <glyph glyph-name="multiply" unicode="&#xd7;" horiz-adv-x="494" 
d="M402 158l-155 155l-155 -155l-21 21l155 155l-155 155l21 21l155 -155l155 155l21 -21l-155 -155l155 -155z" />
    <glyph glyph-name="Oslash" unicode="&#xd8;" horiz-adv-x="764" 
d="M382 -12c-61.333 0 -115.668 14.335 -163.001 43.002l-18 -31h-36l29 48c-41.333 31.333 -73.166 71.666 -95.499 120.999s-33.5 104 -33.5 164c0 98.667 29 180.834 87 246.501s134.667 98.5 230 98.5c59.333 0 113.333 -14.333 162 -43l19 32h36l-30 -50
c41.333 -30.667 73.333 -70.834 96 -120.501s34 -104.167 34 -163.5c0 -98.667 -29.167 -180.834 -87.5 -246.501s-134.833 -98.5 -229.5 -98.5zM381.998 18.002c84.667 0 152.833 29.5 204.5 88.5s77.5 134.5 77.5 226.5c0 112.667 -37 198.667 -111 258l-318 -534
c42.667 -26 91.667 -39 147 -39zM99.9971 333.002c0 -113.333 36.667 -199.332 110 -257.999l318 534c-42.667 26 -91.334 39 -146.001 39c-85.333 0 -153.666 -29.333 -204.999 -88s-77 -134.334 -77 -227.001z" />
    <glyph glyph-name="Ugrave" unicode="&#xd9;" horiz-adv-x="672" 
d="M336 -12c-80 0 -141.331 23.333 -183.998 70s-64 111.667 -64 195v414h32v-414c0 -74.667 18.667 -132.5 56 -173.5s90.666 -61.5 159.999 -61.5s122.666 20.5 159.999 61.5s56 98.833 56 173.5v414h32v-414c0 -83.333 -21.333 -148.333 -64 -195s-104 -70 -184 -70z
M387.002 723h-30l-175 144h45z" />
    <glyph glyph-name="Uacute" unicode="&#xda;" horiz-adv-x="672" 
d="M490 867l-175 -144h-30l160 144h45zM336 -12c-80 0 -141.331 23.333 -183.998 70s-64 111.667 -64 195v414h32v-414c0 -74.667 18.667 -132.5 56 -173.5s90.666 -61.5 159.999 -61.5s122.666 20.5 159.999 61.5s56 98.833 56 173.5v414h32v-414
c0 -83.333 -21.333 -148.333 -64 -195s-104 -70 -184 -70z" />
    <glyph glyph-name="Ucircumflex" unicode="&#xdb;" horiz-adv-x="672" 
d="M457 723h-28l-91 120l-88 -120h-28l98 144h36zM336 -12c-80 0 -141.331 23.333 -183.998 70s-64 111.667 -64 195v414h32v-414c0 -74.667 18.667 -132.5 56 -173.5s90.666 -61.5 159.999 -61.5s122.666 20.5 159.999 61.5s56 98.833 56 173.5v414h32v-414
c0 -83.333 -21.333 -148.333 -64 -195s-104 -70 -184 -70z" />
    <glyph glyph-name="Udieresis" unicode="&#xdc;" horiz-adv-x="672" 
d="M465 765c0 -7.33301 -2.83301 -13.833 -8.5 -19.5s-12.167 -8.5 -19.5 -8.5s-13.833 2.83301 -19.5 8.5s-8.5 12.167 -8.5 19.5s2.83301 13.833 8.5 19.5s12.167 8.5 19.5 8.5s13.833 -2.83301 19.5 -8.5s8.5 -12.167 8.5 -19.5zM263 765
c0 -7.33301 -2.83301 -13.833 -8.5 -19.5s-12.167 -8.5 -19.5 -8.5s-13.833 2.83301 -19.5 8.5s-8.5 12.167 -8.5 19.5s2.83301 13.833 8.5 19.5s12.167 8.5 19.5 8.5s13.833 -2.83301 19.5 -8.5s8.5 -12.167 8.5 -19.5zM336 -12c-80 0 -141.331 23.333 -183.998 70
s-64 111.667 -64 195v414h32v-414c0 -74.667 18.667 -132.5 56 -173.5s90.666 -61.5 159.999 -61.5s122.666 20.5 159.999 61.5s56 98.833 56 173.5v414h32v-414c0 -83.333 -21.333 -148.333 -64 -195s-104 -70 -184 -70z" />
    <glyph glyph-name="Yacute" unicode="&#xdd;" horiz-adv-x="610" 
d="M321 0h-32v289l-268 378h41l243 -346l243 346h41l-268 -378v-289zM459 867l-175 -144h-30l160 144h45z" />
    <glyph glyph-name="Thorn" unicode="&#xde;" horiz-adv-x="555" 
d="M120 0h-32.001v667h32v-129h199c60 0 107.5 -18.333 142.5 -55s52.5 -81.667 52.5 -135c0 -52.667 -17.667 -97.167 -53 -133.5s-82.666 -54.5 -141.999 -54.5h-199v-160zM317.999 190c48.667 0 87.667 14.667 117 44s44 67.333 44 114s-14.667 85 -44 115
s-68.333 45 -117 45h-198v-318h198z" />
    <glyph glyph-name="germandbls" unicode="&#xdf;" horiz-adv-x="558" 
d="M536 127c0 -38 -14.333 -70.6641 -43 -97.9971s-72 -41 -130 -41c-43.333 0 -78.166 6.66699 -104.499 20s-50.5 32.333 -72.5 57l24 22c36.667 -48 87.667 -72 153 -72c46 0 81.333 11 106 33s37 48.333 37 79c0 27.333 -10.667 49 -32 65s-47.166 27.833 -77.499 35.5
l-91 24c-30.333 8.33301 -56.166 21.833 -77.499 40.5s-32 43.667 -32 75c0 25.333 8.66699 47.666 26 66.999s36.333 34.166 57 44.499s39.667 23.166 57 38.499s26 32 26 50c0 25.333 -12.167 45.5 -36.5 60.5s-51.5 22.5 -81.5 22.5c-36 0 -66.333 -12 -91 -36
s-37 -55.667 -37 -95v-519h-30v519c0 45.333 14.667 83 44 113s67.333 45 114 45c41.333 0 76.333 -10.167 105 -30.5s43 -46.833 43 -79.5c0 -24 -8.66699 -44.833 -26 -62.5s-36.333 -31.334 -57 -41.001s-39.667 -23 -57 -40s-26 -36.5 -26 -58.5
c0 -24.667 10.667 -44.167 32 -58.5s47.166 -25 77.499 -32s60.666 -14.667 90.999 -23s56.166 -22.666 77.499 -42.999s32 -47.5 32 -81.5z" />
    <glyph glyph-name="agrave" unicode="&#xe0;" horiz-adv-x="514" 
d="M428 0l-29.999 0.000976562v59c-43.333 -47.333 -99 -71 -167 -71c-45.333 0 -84.833 14.5 -118.5 43.5s-50.5 68.167 -50.5 117.5s16.667 88.5 50 117.5s73 43.5 119 43.5c68 0 123.667 -23.667 167 -71v109c0 37.333 -13 66.666 -39 87.999s-58.333 32 -97 32
c-61.333 0 -113 -25.333 -155 -76l-23 20c24.667 28.667 50.667 49.667 78 63s60.666 20 99.999 20c49.333 0 89.333 -12.5 120 -37.5s46 -61.167 46 -108.5v-349zM239.001 15.001c68.667 0 121.667 24.667 159 74v120c-37.333 49.333 -90.333 74 -159 74
c-43.333 0 -78.166 -12.833 -104.499 -38.5s-39.5 -57.5 -39.5 -95.5s13.167 -69.833 39.5 -95.5s61.166 -38.5 104.499 -38.5zM313.001 556.001h-30l-175 144h45z" />
    <glyph glyph-name="aacute" unicode="&#xe1;" horiz-adv-x="514" 
d="M428 0l-29.999 0.000976562v59c-43.333 -47.333 -99 -71 -167 -71c-45.333 0 -84.833 14.5 -118.5 43.5s-50.5 68.167 -50.5 117.5s16.667 88.5 50 117.5s73 43.5 119 43.5c68 0 123.667 -23.667 167 -71v109c0 37.333 -13 66.666 -39 87.999s-58.333 32 -97 32
c-61.333 0 -113 -25.333 -155 -76l-23 20c24.667 28.667 50.667 49.667 78 63s60.666 20 99.999 20c49.333 0 89.333 -12.5 120 -37.5s46 -61.167 46 -108.5v-349zM239.001 15.001c68.667 0 121.667 24.667 159 74v120c-37.333 49.333 -90.333 74 -159 74
c-43.333 0 -78.166 -12.833 -104.499 -38.5s-39.5 -57.5 -39.5 -95.5s13.167 -69.833 39.5 -95.5s61.166 -38.5 104.499 -38.5zM416.001 700.001l-175 -144h-30l160 144h45z" />
    <glyph glyph-name="acircumflex" unicode="&#xe2;" horiz-adv-x="514" 
d="M428 0l-29.999 0.000976562v59c-43.333 -47.333 -99 -71 -167 -71c-45.333 0 -84.833 14.5 -118.5 43.5s-50.5 68.167 -50.5 117.5s16.667 88.5 50 117.5s73 43.5 119 43.5c68 0 123.667 -23.667 167 -71v109c0 37.333 -13 66.666 -39 87.999s-58.333 32 -97 32
c-61.333 0 -113 -25.333 -155 -76l-23 20c24.667 28.667 50.667 49.667 78 63s60.666 20 99.999 20c49.333 0 89.333 -12.5 120 -37.5s46 -61.167 46 -108.5v-349zM239.001 15.001c68.667 0 121.667 24.667 159 74v120c-37.333 49.333 -90.333 74 -159 74
c-43.333 0 -78.166 -12.833 -104.499 -38.5s-39.5 -57.5 -39.5 -95.5s13.167 -69.833 39.5 -95.5s61.166 -38.5 104.499 -38.5zM381.001 556.001h-28l-91 120l-88 -120h-28l98 144h36z" />
    <glyph glyph-name="atilde" unicode="&#xe3;" horiz-adv-x="514" 
d="M428 0l-29.999 0.000976562v59c-43.333 -47.333 -99 -71 -167 -71c-45.333 0 -84.833 14.5 -118.5 43.5s-50.5 68.167 -50.5 117.5s16.667 88.5 50 117.5s73 43.5 119 43.5c68 0 123.667 -23.667 167 -71v109c0 37.333 -13 66.666 -39 87.999s-58.333 32 -97 32
c-61.333 0 -113 -25.333 -155 -76l-23 20c24.667 28.667 50.667 49.667 78 63s60.666 20 99.999 20c49.333 0 89.333 -12.5 120 -37.5s46 -61.167 46 -108.5v-349zM239.001 15.001c68.667 0 121.667 24.667 159 74v120c-37.333 49.333 -90.333 74 -159 74
c-43.333 0 -78.166 -12.833 -104.499 -38.5s-39.5 -57.5 -39.5 -95.5s13.167 -69.833 39.5 -95.5s61.166 -38.5 104.499 -38.5zM324.001 554.001c-17.333 0 -32.166 5.83301 -44.499 17.5s-21.333 24.667 -27 39s-13.334 27.333 -23.001 39s-20.834 17.5 -33.501 17.5
c-17.333 0 -31.5 -8.83301 -42.5 -26.5s-16.5 -44.5 -16.5 -80.5h-26c0 38 7.83301 69.833 23.5 95.5s37.167 38.5 64.5 38.5c17.333 0 32.166 -5.83301 44.499 -17.5s21.333 -24.667 27 -39s13.334 -27.333 23.001 -39s20.834 -17.5 33.501 -17.5
c17.333 0 31.5 8.83301 42.5 26.5s16.5 44.5 16.5 80.5h26c0 -38 -7.83301 -69.833 -23.5 -95.5s-37.167 -38.5 -64.5 -38.5z" />
    <glyph glyph-name="adieresis" unicode="&#xe4;" horiz-adv-x="514" 
d="M428 0l-29.999 0.000976562v59c-43.333 -47.333 -99 -71 -167 -71c-45.333 0 -84.833 14.5 -118.5 43.5s-50.5 68.167 -50.5 117.5s16.667 88.5 50 117.5s73 43.5 119 43.5c68 0 123.667 -23.667 167 -71v109c0 37.333 -13 66.666 -39 87.999s-58.333 32 -97 32
c-61.333 0 -113 -25.333 -155 -76l-23 20c24.667 28.667 50.667 49.667 78 63s60.666 20 99.999 20c49.333 0 89.333 -12.5 120 -37.5s46 -61.167 46 -108.5v-349zM239.001 15.001c68.667 0 121.667 24.667 159 74v120c-37.333 49.333 -90.333 74 -159 74
c-43.333 0 -78.166 -12.833 -104.499 -38.5s-39.5 -57.5 -39.5 -95.5s13.167 -69.833 39.5 -95.5s61.166 -38.5 104.499 -38.5zM389.001 598.001c0 -7.33301 -2.83301 -13.833 -8.5 -19.5s-12.167 -8.5 -19.5 -8.5s-13.833 2.83301 -19.5 8.5s-8.5 12.167 -8.5 19.5
s2.83301 13.833 8.5 19.5s12.167 8.5 19.5 8.5s13.833 -2.83301 19.5 -8.5s8.5 -12.167 8.5 -19.5zM187.001 598.001c0 -7.33301 -2.83301 -13.833 -8.5 -19.5s-12.167 -8.5 -19.5 -8.5s-13.833 2.83301 -19.5 8.5s-8.5 12.167 -8.5 19.5s2.83301 13.833 8.5 19.5
s12.167 8.5 19.5 8.5s13.833 -2.83301 19.5 -8.5s8.5 -12.167 8.5 -19.5z" />
    <glyph glyph-name="aring" unicode="&#xe5;" horiz-adv-x="514" 
d="M428 0l-29.999 0.000976562v59c-43.333 -47.333 -99 -71 -167 -71c-45.333 0 -84.833 14.5 -118.5 43.5s-50.5 68.167 -50.5 117.5s16.667 88.5 50 117.5s73 43.5 119 43.5c68 0 123.667 -23.667 167 -71v109c0 37.333 -13 66.666 -39 87.999s-58.333 32 -97 32
c-61.333 0 -113 -25.333 -155 -76l-23 20c24.667 28.667 50.667 49.667 78 63s60.666 20 99.999 20c49.333 0 89.333 -12.5 120 -37.5s46 -61.167 46 -108.5v-349zM239.001 15.001c68.667 0 121.667 24.667 159 74v120c-37.333 49.333 -90.333 74 -159 74
c-43.333 0 -78.166 -12.833 -104.499 -38.5s-39.5 -57.5 -39.5 -95.5s13.167 -69.833 39.5 -95.5s61.166 -38.5 104.499 -38.5zM261.001 553.001c-25.333 0 -47.166 9.16699 -65.499 27.5s-27.5 40.166 -27.5 65.499s9.16699 47.166 27.5 65.499s40.166 27.5 65.499 27.5
s47 -9.16699 65 -27.5s27 -40.166 27 -65.499s-9 -47.166 -27 -65.499s-39.667 -27.5 -65 -27.5zM261.001 577.001c18.667 0 34.667 6.6709 48 20.0039s20 29.666 20 48.999s-6.66699 35.666 -20 48.999s-29.333 20 -48 20c-19.333 0 -35.666 -6.83301 -48.999 -20.5
s-20 -29.834 -20 -48.501s6.66699 -34.834 20 -48.501s29.666 -20.5 48.999 -20.5z" />
    <glyph glyph-name="ae" unicode="&#xe6;" horiz-adv-x="905" 
d="M845 232h-391.002c2 -61.333 20 -112.833 54 -154.5s78.667 -62.5 134 -62.5c62 0 114.333 24.333 157 73l18 -19c-47.333 -54 -105.333 -81 -174 -81c-45.333 0 -85.5 12.333 -120.5 37s-60.833 59.667 -77.5 105c-14 -43.333 -38.167 -77.833 -72.5 -103.5
s-74.166 -38.5 -119.499 -38.5c-56 0 -101.833 14.5 -137.5 43.5s-53.5 68.5 -53.5 118.5c0 49.333 17.5 88.333 52.5 117s77.5 43 127.5 43c74.667 0 135.334 -23 182.001 -69v107c0 38 -13.333 67.5 -40 88.5s-62.667 31.5 -108 31.5c-66.667 0 -123 -25.333 -169 -76
l-23 20c47.333 55.333 114 83 200 83c40.667 0 77.667 -9.83301 111 -29.5s52.333 -51.167 57 -94.5c15.333 36 39.5 65.667 72.5 89s69.167 35 108.5 35c67.333 0 119.5 -24.333 156.5 -73s55.5 -108.667 55.5 -180v-10zM453.998 259h359.001c0 54 -15.333 102.333 -46 145
s-75.334 64 -134.001 64c-53.333 0 -96 -21.5 -128 -64.5s-49 -91.167 -51 -144.5zM423.999 188v19c-40.667 50.667 -98 76 -172 76c-47.333 0 -85.333 -12.833 -114 -38.5s-43 -57.5 -43 -95.5s14.333 -69.833 43 -95.5s66.667 -38.5 114 -38.5c52 0 93.667 17 125 51
s47 74.667 47 122z" />
    <glyph glyph-name="ccedilla" unicode="&#xe7;" horiz-adv-x="493" 
d="M288 -185c-38.667 0 -69.665 9.33203 -92.998 27.999l14 27c21.333 -18.667 47.666 -28 78.999 -28c19.333 0 35.666 4.5 48.999 13.5s20 20.833 20 35.5c0 28.667 -14.667 43 -44 43c-18 0 -32.333 -6.33301 -43 -19l-22 13l22 61
c-63.333 4.66699 -114.166 31 -152.499 79s-57.5 106 -57.5 174c0 71.333 21 131.333 63 180s97 73 165 73c37.333 0 68.666 -6.66699 93.999 -20s49 -33.666 71 -60.999l-22 -18c-35.333 48 -82.333 72 -141 72c-60.667 0 -108.667 -21.5 -144 -64.5
s-53 -96.833 -53 -161.5c0 -65.333 17.833 -119.5 53.5 -162.5s83.5 -64.5 143.5 -64.5c58 0 105 24.333 141 73l22 -19c-40.667 -51.333 -92 -78.333 -154 -81l-16 -44c10 8 22.667 12 38 12c19.333 0 35 -5.83301 47 -17.5s18 -27.5 18 -47.5
c0 -22 -9.33301 -40.167 -28 -54.5s-42 -21.5 -70 -21.5z" />
    <glyph glyph-name="egrave" unicode="&#xe8;" horiz-adv-x="571" 
d="M297 -12c-70 0 -127 23.833 -171 71.5s-66 108.5 -66 182.5c0 70.667 21.667 130.5 65 179.5s97.333 73.5 162 73.5c70.667 0 125.667 -24.333 165 -73s59 -108.667 59 -180v-10h-417c1.33301 -61.333 20.5 -112.833 57.5 -154.5s85.5 -62.5 145.5 -62.5
c66.667 0 122.667 24.333 168 73l18 -19c-52 -54 -114 -81 -186 -81zM479 259c0 32.667 -6.66895 64.5 -20.002 95.5s-35.166 57.667 -65.499 80s-66.166 33.5 -107.499 33.5c-58 0 -104 -21.5 -138 -64.5s-52 -91.167 -54 -144.5h385zM337.998 556h-30l-175 144h45z" />
    <glyph glyph-name="eacute" unicode="&#xe9;" horiz-adv-x="571" 
d="M441 700l-175 -144h-30l160 144h45zM297 -12c-70 0 -127 23.833 -171 71.5s-66 108.5 -66 182.5c0 70.667 21.667 130.5 65 179.5s97.333 73.5 162 73.5c70.667 0 125.667 -24.333 165 -73s59 -108.667 59 -180v-10h-417c1.33301 -61.333 20.5 -112.833 57.5 -154.5
s85.5 -62.5 145.5 -62.5c66.667 0 122.667 24.333 168 73l18 -19c-52 -54 -114 -81 -186 -81zM479 259c0 32.667 -6.66895 64.5 -20.002 95.5s-35.166 57.667 -65.499 80s-66.166 33.5 -107.499 33.5c-58 0 -104 -21.5 -138 -64.5s-52 -91.167 -54 -144.5h385z" />
    <glyph glyph-name="ecircumflex" unicode="&#xea;" horiz-adv-x="571" 
d="M407 556h-28l-91 120l-88 -120h-28l98 144h36zM297 -12c-70 0 -127 23.833 -171 71.5s-66 108.5 -66 182.5c0 70.667 21.667 130.5 65 179.5s97.333 73.5 162 73.5c70.667 0 125.667 -24.333 165 -73s59 -108.667 59 -180v-10h-417
c1.33301 -61.333 20.5 -112.833 57.5 -154.5s85.5 -62.5 145.5 -62.5c66.667 0 122.667 24.333 168 73l18 -19c-52 -54 -114 -81 -186 -81zM479 259c0 32.667 -6.66895 64.5 -20.002 95.5s-35.166 57.667 -65.499 80s-66.166 33.5 -107.499 33.5
c-58 0 -104 -21.5 -138 -64.5s-52 -91.167 -54 -144.5h385z" />
    <glyph glyph-name="edieresis" unicode="&#xeb;" horiz-adv-x="571" 
d="M417 598c0 -7.33301 -2.83301 -13.833 -8.5 -19.5s-12.167 -8.5 -19.5 -8.5s-13.833 2.83301 -19.5 8.5s-8.5 12.167 -8.5 19.5s2.83301 13.833 8.5 19.5s12.167 8.5 19.5 8.5s13.833 -2.83301 19.5 -8.5s8.5 -12.167 8.5 -19.5zM215 598
c0 -7.33301 -2.83301 -13.833 -8.5 -19.5s-12.167 -8.5 -19.5 -8.5s-13.833 2.83301 -19.5 8.5s-8.5 12.167 -8.5 19.5s2.83301 13.833 8.5 19.5s12.167 8.5 19.5 8.5s13.833 -2.83301 19.5 -8.5s8.5 -12.167 8.5 -19.5zM297 -12c-70 0 -127 23.833 -171 71.5
s-66 108.5 -66 182.5c0 70.667 21.667 130.5 65 179.5s97.333 73.5 162 73.5c70.667 0 125.667 -24.333 165 -73s59 -108.667 59 -180v-10h-417c1.33301 -61.333 20.5 -112.833 57.5 -154.5s85.5 -62.5 145.5 -62.5c66.667 0 122.667 24.333 168 73l18 -19
c-52 -54 -114 -81 -186 -81zM479 259c0 32.667 -6.66895 64.5 -20.002 95.5s-35.166 57.667 -65.499 80s-66.166 33.5 -107.499 33.5c-58 0 -104 -21.5 -138 -64.5s-52 -91.167 -54 -144.5h385z" />
    <glyph glyph-name="igrave" unicode="&#xec;" horiz-adv-x="202" 
d="M116 0h-30v483h30v-483zM152 556h-30l-175 144h45z" />
    <glyph glyph-name="iacute" unicode="&#xed;" horiz-adv-x="202" 
d="M255 700l-175 -144h-30l160 144h45zM116 0h-30v483h30v-483z" />
    <glyph glyph-name="icircumflex" unicode="&#xee;" horiz-adv-x="202" 
d="M219 556h-28l-91 120l-88 -120h-28l98 144h36zM116 0h-30v483h30v-483z" />
    <glyph glyph-name="idieresis" unicode="&#xef;" horiz-adv-x="202" 
d="M230 598c0 -7.33301 -2.83301 -13.833 -8.5 -19.5s-12.167 -8.5 -19.5 -8.5s-13.833 2.83301 -19.5 8.5s-8.5 12.167 -8.5 19.5s2.83301 13.833 8.5 19.5s12.167 8.5 19.5 8.5s13.833 -2.83301 19.5 -8.5s8.5 -12.167 8.5 -19.5zM28 598
c0 -7.33301 -2.83301 -13.833 -8.5 -19.5s-12.167 -8.5 -19.5 -8.5s-13.833 2.83301 -19.5 8.5s-8.5 12.167 -8.5 19.5s2.83301 13.833 8.5 19.5s12.167 8.5 19.5 8.5s13.833 -2.83301 19.5 -8.5s8.5 -12.167 8.5 -19.5zM116 0h-30v483h30v-483z" />
    <glyph glyph-name="eth" unicode="&#xf0;" horiz-adv-x="570" 
d="M138 522l-11.001 26l126 56l-87 57l18 27c44 -27.333 78.333 -50.333 103 -69l111 49l11 -26l-97 -43c132 -108.667 198 -227.667 198 -357c0 -72.667 -20.667 -133.167 -62 -181.5s-95.666 -72.5 -162.999 -72.5c-66.667 0 -120.834 24.167 -162.501 72.5
s-62.5 108.833 -62.5 181.5c0 72 20.833 132.167 62.5 180.5s95.834 72.5 162.501 72.5c63.333 0 115.333 -28.333 156 -85c-42 66 -96 124 -162 174zM284.999 15c59.333 0 106.166 22.167 140.499 66.5s51.5 97.833 51.5 160.5c0 62 -17.167 115.167 -51.5 159.5
s-81.166 66.5 -140.499 66.5c-58.667 0 -105.334 -22.167 -140.001 -66.5s-52 -97.5 -52 -159.5c0 -62.667 17.333 -116.167 52 -160.5s81.334 -66.5 140.001 -66.5z" />
    <glyph glyph-name="ntilde" unicode="&#xf1;" 
d="M442 0h-30v337c0 48 -10.667 81.833 -32 101.5s-52.333 29.5 -93 29.5c-32 0 -64 -8.83301 -96 -26.5s-57 -39.167 -75 -64.5v-377h-30v483h30v-76c19.333 23.333 45.333 43.833 78 61.5s65 26.5 97 26.5c50 0 87.667 -12.5 113 -37.5s38 -65.167 38 -120.5v-337z
M327 554c-17.333 0 -32.166 5.83301 -44.499 17.5s-21.333 24.667 -27 39s-13.334 27.333 -23.001 39s-20.834 17.5 -33.501 17.5c-17.333 0 -31.5 -8.83301 -42.5 -26.5s-16.5 -44.5 -16.5 -80.5h-26c0 38 7.83301 69.833 23.5 95.5s37.167 38.5 64.5 38.5
c17.333 0 32.166 -5.83301 44.499 -17.5s21.333 -24.667 27 -39s13.334 -27.333 23.001 -39s20.834 -17.5 33.501 -17.5c17.333 0 31.5 8.83301 42.5 26.5s16.5 44.5 16.5 80.5h26c0 -38 -7.83301 -69.833 -23.5 -95.5s-37.167 -38.5 -64.5 -38.5z" />
    <glyph glyph-name="ograve" unicode="&#xf2;" horiz-adv-x="570" 
d="M285 -12c-66.667 0 -120.834 24.167 -162.501 72.5s-62.5 108.833 -62.5 181.5c0 72 20.833 132.167 62.5 180.5s95.834 72.5 162.501 72.5c67.333 0 121.666 -24 162.999 -72s62 -108.333 62 -181s-20.667 -133.167 -62 -181.5s-95.666 -72.5 -162.999 -72.5zM285 15
c59.333 0 106.166 22.167 140.499 66.5s51.5 97.833 51.5 160.5c0 62 -17.167 115.167 -51.5 159.5s-81.166 66.5 -140.499 66.5c-58.667 0 -105.334 -22.167 -140.001 -66.5s-52 -97.5 -52 -159.5c0 -62.667 17.333 -116.167 52 -160.5s81.334 -66.5 140.001 -66.5z
M336 556h-30l-175 144h45z" />
    <glyph glyph-name="oacute" unicode="&#xf3;" horiz-adv-x="570" 
d="M439 700l-175 -144h-30l160 144h45zM285 -12c-66.667 0 -120.834 24.167 -162.501 72.5s-62.5 108.833 -62.5 181.5c0 72 20.833 132.167 62.5 180.5s95.834 72.5 162.501 72.5c67.333 0 121.666 -24 162.999 -72s62 -108.333 62 -181s-20.667 -133.167 -62 -181.5
s-95.666 -72.5 -162.999 -72.5zM285 15c59.333 0 106.166 22.167 140.499 66.5s51.5 97.833 51.5 160.5c0 62 -17.167 115.167 -51.5 159.5s-81.166 66.5 -140.499 66.5c-58.667 0 -105.334 -22.167 -140.001 -66.5s-52 -97.5 -52 -159.5
c0 -62.667 17.333 -116.167 52 -160.5s81.334 -66.5 140.001 -66.5z" />
    <glyph glyph-name="ocircumflex" unicode="&#xf4;" horiz-adv-x="570" 
d="M404 556h-28l-91 120l-88 -120h-28l98 144h36zM285 -12c-66.667 0 -120.834 24.167 -162.501 72.5s-62.5 108.833 -62.5 181.5c0 72 20.833 132.167 62.5 180.5s95.834 72.5 162.501 72.5c67.333 0 121.666 -24 162.999 -72s62 -108.333 62 -181
s-20.667 -133.167 -62 -181.5s-95.666 -72.5 -162.999 -72.5zM285 15c59.333 0 106.166 22.167 140.499 66.5s51.5 97.833 51.5 160.5c0 62 -17.167 115.167 -51.5 159.5s-81.166 66.5 -140.499 66.5c-58.667 0 -105.334 -22.167 -140.001 -66.5s-52 -97.5 -52 -159.5
c0 -62.667 17.333 -116.167 52 -160.5s81.334 -66.5 140.001 -66.5z" />
    <glyph glyph-name="otilde" unicode="&#xf5;" horiz-adv-x="570" 
d="M285 -12c-66.667 0 -120.834 24.167 -162.501 72.5s-62.5 108.833 -62.5 181.5c0 72 20.833 132.167 62.5 180.5s95.834 72.5 162.501 72.5c67.333 0 121.666 -24 162.999 -72s62 -108.333 62 -181s-20.667 -133.167 -62 -181.5s-95.666 -72.5 -162.999 -72.5zM285 15
c59.333 0 106.166 22.167 140.499 66.5s51.5 97.833 51.5 160.5c0 62 -17.167 115.167 -51.5 159.5s-81.166 66.5 -140.499 66.5c-58.667 0 -105.334 -22.167 -140.001 -66.5s-52 -97.5 -52 -159.5c0 -62.667 17.333 -116.167 52 -160.5s81.334 -66.5 140.001 -66.5z
M348 554c-17.333 0 -32.166 5.83301 -44.499 17.5s-21.333 24.667 -27 39s-13.334 27.333 -23.001 39s-20.834 17.5 -33.501 17.5c-17.333 0 -31.5 -8.83301 -42.5 -26.5s-16.5 -44.5 -16.5 -80.5h-26c0 38 7.83301 69.833 23.5 95.5s37.167 38.5 64.5 38.5
c17.333 0 32.166 -5.83301 44.499 -17.5s21.333 -24.667 27 -39s13.334 -27.333 23.001 -39s20.834 -17.5 33.501 -17.5c17.333 0 31.5 8.83301 42.5 26.5s16.5 44.5 16.5 80.5h26c0 -38 -7.83301 -69.833 -23.5 -95.5s-37.167 -38.5 -64.5 -38.5z" />
    <glyph glyph-name="odieresis" unicode="&#xf6;" horiz-adv-x="570" 
d="M414 598c0 -7.33301 -2.83301 -13.833 -8.5 -19.5s-12.167 -8.5 -19.5 -8.5s-13.833 2.83301 -19.5 8.5s-8.5 12.167 -8.5 19.5s2.83301 13.833 8.5 19.5s12.167 8.5 19.5 8.5s13.833 -2.83301 19.5 -8.5s8.5 -12.167 8.5 -19.5zM212 598
c0 -7.33301 -2.83301 -13.833 -8.5 -19.5s-12.167 -8.5 -19.5 -8.5s-13.833 2.83301 -19.5 8.5s-8.5 12.167 -8.5 19.5s2.83301 13.833 8.5 19.5s12.167 8.5 19.5 8.5s13.833 -2.83301 19.5 -8.5s8.5 -12.167 8.5 -19.5zM285 -12c-66.667 0 -120.834 24.167 -162.501 72.5
s-62.5 108.833 -62.5 181.5c0 72 20.833 132.167 62.5 180.5s95.834 72.5 162.501 72.5c67.333 0 121.666 -24 162.999 -72s62 -108.333 62 -181s-20.667 -133.167 -62 -181.5s-95.666 -72.5 -162.999 -72.5zM285 15c59.333 0 106.166 22.167 140.499 66.5
s51.5 97.833 51.5 160.5c0 62 -17.167 115.167 -51.5 159.5s-81.166 66.5 -140.499 66.5c-58.667 0 -105.334 -22.167 -140.001 -66.5s-52 -97.5 -52 -159.5c0 -62.667 17.333 -116.167 52 -160.5s81.334 -66.5 140.001 -66.5z" />
    <glyph glyph-name="divide" unicode="&#xf7;" horiz-adv-x="511" 
d="M289 536c0 -9.33301 -3.3291 -17.333 -9.99609 -24s-14.334 -10 -23.001 -10s-16.334 3.33301 -23.001 10s-10 14.667 -10 24c0 8.66699 3.16699 16.167 9.5 22.5s14.166 9.5 23.499 9.5s17.166 -3.16699 23.499 -9.5s9.5 -13.833 9.5 -22.5zM482.004 322h-453v30h453
v-30zM289.004 133c0 -8.66699 -3.16699 -16.334 -9.5 -23.001s-14.166 -10 -23.499 -10s-17.166 3.33301 -23.499 10s-9.5 14.334 -9.5 23.001s3.16699 16.334 9.5 23.001s14.166 10 23.499 10s17.166 -3.33301 23.499 -10s9.5 -14.334 9.5 -23.001z" />
    <glyph glyph-name="oslash" unicode="&#xf8;" horiz-adv-x="570" 
d="M118 0h-34.002l42 56c-44 48 -66 110 -66 186c0 72 20.833 132.167 62.5 180.5s95.834 72.5 162.501 72.5c50.667 0 95 -14.667 133 -44l24 32h33l-37 -50c48 -48 72 -111.667 72 -191c0 -72.667 -20.667 -133.167 -62 -181.5s-95.666 -72.5 -162.999 -72.5
c-54 0 -100.333 16.333 -139 49zM284.998 15c59.333 0 106.166 22.168 140.499 66.501s51.5 97.833 51.5 160.5c0 67.333 -19 122.666 -57 165.999l-257 -347c32.667 -30.667 73.334 -46 122.001 -46zM92.998 242.001c0 -64 17.334 -117.333 52.001 -160l255 345
c-32.667 27.333 -71 41 -115 41c-58.667 0 -105.334 -22.167 -140.001 -66.5s-52 -97.5 -52 -159.5z" />
    <glyph glyph-name="ugrave" unicode="&#xf9;" 
d="M442 0l-29.999 0.000976562v74c-22 -24.667 -48.667 -45.167 -80 -61.5s-63 -24.5 -95 -24.5c-50 0 -87.667 12.167 -113 36.5s-38 64.166 -38 119.499v339h30v-339c0 -48 10.667 -81.5 32 -100.5s52.333 -28.5 93 -28.5c32 0 64.167 8.5 96.5 25.5
s57.166 37.833 74.499 62.5v380h30v-483zM315.001 556.001h-30l-175 144h45z" />
    <glyph glyph-name="uacute" unicode="&#xfa;" 
d="M418 700l-175 -144h-30l160 144h45zM442 0l-29.999 0.000976562v74c-22 -24.667 -48.667 -45.167 -80 -61.5s-63 -24.5 -95 -24.5c-50 0 -87.667 12.167 -113 36.5s-38 64.166 -38 119.499v339h30v-339c0 -48 10.667 -81.5 32 -100.5s52.333 -28.5 93 -28.5
c32 0 64.167 8.5 96.5 25.5s57.166 37.833 74.499 62.5v380h30v-483z" />
    <glyph glyph-name="ucircumflex" unicode="&#xfb;" 
d="M381 556h-28l-91 120l-88 -120h-28l98 144h36zM442 0l-29.999 0.000976562v74c-22 -24.667 -48.667 -45.167 -80 -61.5s-63 -24.5 -95 -24.5c-50 0 -87.667 12.167 -113 36.5s-38 64.166 -38 119.499v339h30v-339c0 -48 10.667 -81.5 32 -100.5s52.333 -28.5 93 -28.5
c32 0 64.167 8.5 96.5 25.5s57.166 37.833 74.499 62.5v380h30v-483z" />
    <glyph glyph-name="udieresis" unicode="&#xfc;" 
d="M397 598c0 -7.33301 -2.83301 -13.833 -8.5 -19.5s-12.167 -8.5 -19.5 -8.5s-13.833 2.83301 -19.5 8.5s-8.5 12.167 -8.5 19.5s2.83301 13.833 8.5 19.5s12.167 8.5 19.5 8.5s13.833 -2.83301 19.5 -8.5s8.5 -12.167 8.5 -19.5zM195 598
c0 -7.33301 -2.83301 -13.833 -8.5 -19.5s-12.167 -8.5 -19.5 -8.5s-13.833 2.83301 -19.5 8.5s-8.5 12.167 -8.5 19.5s2.83301 13.833 8.5 19.5s12.167 8.5 19.5 8.5s13.833 -2.83301 19.5 -8.5s8.5 -12.167 8.5 -19.5zM442 0l-29.999 0.000976562v74
c-22 -24.667 -48.667 -45.167 -80 -61.5s-63 -24.5 -95 -24.5c-50 0 -87.667 12.167 -113 36.5s-38 64.166 -38 119.499v339h30v-339c0 -48 10.667 -81.5 32 -100.5s52.333 -28.5 93 -28.5c32 0 64.167 8.5 96.5 25.5s57.166 37.833 74.499 62.5v380h30v-483z" />
    <glyph glyph-name="yacute" unicode="&#xfd;" horiz-adv-x="471" 
d="M50 -189l5.99805 27.999c12 -5.33301 26 -8 42 -8c16.667 0 30.834 4.83301 42.501 14.5s22.834 26.834 33.501 51.501l44 100l-207 486h35l190 -448l189 448h35l-256 -597c-24 -54.667 -59.333 -82 -106 -82c-18 0 -34 2.33301 -48 7zM389.998 699.999l-175 -144h-30
l160 144h45z" />
    <glyph glyph-name="thorn" unicode="&#xfe;" horiz-adv-x="562" 
d="M290 -12c-35.333 0 -68.1641 8.49902 -98.4971 25.499s-55.5 40.167 -75.5 69.5v-267h-30v851h30v-265c17.333 26.667 41.666 48.834 72.999 66.501s65 26.5 101 26.5c65.333 0 117.666 -23 156.999 -69s59 -107.333 59 -184c0 -76 -19.833 -137.333 -59.5 -184
s-91.834 -70 -156.501 -70zM290.002 14.999c57.333 0 102.166 21.334 134.499 64.001s48.5 97 48.5 163s-16.167 120.167 -48.5 162.5s-77.166 63.5 -134.499 63.5c-36 0 -70 -9.33301 -102 -28s-56 -41.334 -72 -68.001v-259c16 -26.667 40 -49.667 72 -69s66 -29 102 -29z
" />
    <glyph glyph-name="ydieresis" unicode="&#xff;" horiz-adv-x="471" 
d="M50 -189l5.99805 27.999c12 -5.33301 26 -8 42 -8c16.667 0 30.834 4.83301 42.501 14.5s22.834 26.834 33.501 51.501l44 100l-207 486h35l190 -448l189 448h35l-256 -597c-24 -54.667 -59.333 -82 -106 -82c-18 0 -34 2.33301 -48 7zM364.998 597.999
c0 -7.33301 -2.83301 -13.833 -8.5 -19.5s-12.167 -8.5 -19.5 -8.5s-13.833 2.83301 -19.5 8.5s-8.5 12.167 -8.5 19.5s2.83301 13.833 8.5 19.5s12.167 8.5 19.5 8.5s13.833 -2.83301 19.5 -8.5s8.5 -12.167 8.5 -19.5zM162.998 597.999
c0 -7.33301 -2.83301 -13.833 -8.5 -19.5s-12.167 -8.5 -19.5 -8.5s-13.833 2.83301 -19.5 8.5s-8.5 12.167 -8.5 19.5s2.83301 13.833 8.5 19.5s12.167 8.5 19.5 8.5s13.833 -2.83301 19.5 -8.5s8.5 -12.167 8.5 -19.5z" />
    <glyph glyph-name="Amacron" unicode="&#x100;" horiz-adv-x="636" 
d="M615 0h-37l-74 179h-372l-74 -179h-37l278 667h38zM492 209l-174 421l-174 -421h348zM499 748h-363v27h363v-27z" />
    <glyph glyph-name="amacron" unicode="&#x101;" horiz-adv-x="514" 
d="M428 0l-29.999 0.000976562v59c-43.333 -47.333 -99 -71 -167 -71c-45.333 0 -84.833 14.5 -118.5 43.5s-50.5 68.167 -50.5 117.5s16.667 88.5 50 117.5s73 43.5 119 43.5c68 0 123.667 -23.667 167 -71v109c0 37.333 -13 66.666 -39 87.999s-58.333 32 -97 32
c-61.333 0 -113 -25.333 -155 -76l-23 20c24.667 28.667 50.667 49.667 78 63s60.666 20 99.999 20c49.333 0 89.333 -12.5 120 -37.5s46 -61.167 46 -108.5v-349zM239.001 15.001c68.667 0 121.667 24.667 159 74v120c-37.333 49.333 -90.333 74 -159 74
c-43.333 0 -78.166 -12.833 -104.499 -38.5s-39.5 -57.5 -39.5 -95.5s13.167 -69.833 39.5 -95.5s61.166 -38.5 104.499 -38.5zM438.001 581.001h-363v27h363v-27z" />
    <glyph glyph-name="Abreve" unicode="&#x102;" horiz-adv-x="636" 
d="M615 0h-37l-74 179h-372l-74 -179h-37l278 667h38zM492 209l-174 421l-174 -421h348zM493 799c-43.333 -58.667 -101.666 -88 -174.999 -88c-72.667 0 -131.334 29.333 -176.001 88l21 19c38 -53.333 89.667 -80 155 -80s117 26.667 155 80z" />
    <glyph glyph-name="abreve" unicode="&#x103;" horiz-adv-x="514" 
d="M428 0l-29.999 0.000976562v59c-43.333 -47.333 -99 -71 -167 -71c-45.333 0 -84.833 14.5 -118.5 43.5s-50.5 68.167 -50.5 117.5s16.667 88.5 50 117.5s73 43.5 119 43.5c68 0 123.667 -23.667 167 -71v109c0 37.333 -13 66.666 -39 87.999s-58.333 32 -97 32
c-61.333 0 -113 -25.333 -155 -76l-23 20c24.667 28.667 50.667 49.667 78 63s60.666 20 99.999 20c49.333 0 89.333 -12.5 120 -37.5s46 -61.167 46 -108.5v-349zM239.001 15.001c68.667 0 121.667 24.667 159 74v120c-37.333 49.333 -90.333 74 -159 74
c-43.333 0 -78.166 -12.833 -104.499 -38.5s-39.5 -57.5 -39.5 -95.5s13.167 -69.833 39.5 -95.5s61.166 -38.5 104.499 -38.5zM432.001 632.001c-43.333 -58.667 -101.666 -88 -174.999 -88c-72.667 0 -131.334 29.333 -176.001 88l21 19c38 -53.333 89.667 -80 155 -80
s117 26.667 155 80z" />
    <glyph glyph-name="Aogonek" unicode="&#x104;" horiz-adv-x="636" 
d="M643 -112l25 -10.999c-14.667 -42 -42.334 -63 -83.001 -63c-23.333 0 -42.666 7 -57.999 21s-23 35 -23 63c0 21.333 6.5 41.666 19.5 60.999s30.167 35.333 51.5 48l-71 172h-372l-74 -179h-37l278 667h38l278 -667c-54.667 -26 -82 -60 -82 -102
c0 -38 17.333 -57 52 -57c28.667 0 48 15.667 58 47zM492 209.001l-174 421l-174 -421h348z" />
    <glyph glyph-name="aogonek" unicode="&#x105;" horiz-adv-x="514" 
d="M456 -112l25.001 -11.001c-14.667 -42 -42.334 -63 -83.001 -63c-23.333 0 -42.666 7 -57.999 21s-23 35 -23 63c0 22.667 7.5 44.334 22.5 65.001s34.5 37.334 58.5 50.001v46c-43.333 -47.333 -99 -71 -167 -71c-45.333 0 -84.833 14.5 -118.5 43.5
s-50.5 68.167 -50.5 117.5s16.667 88.5 50 117.5s73 43.5 119 43.5c68 0 123.667 -23.667 167 -71v109c0 37.333 -13 66.666 -39 87.999s-58.333 32 -97 32c-61.333 0 -113 -25.333 -155 -76l-23 20c24.667 28.667 50.667 49.667 78 63s60.666 20 99.999 20
c49.333 0 89.333 -12.5 120 -37.5s46 -61.167 46 -108.5v-349c-54.667 -26 -82 -60 -82 -102c0 -38 17.333 -57 52 -57c28.667 0 48 15.667 58 47zM239.001 14.999c68.667 0 121.667 24.667 159 74v120c-37.333 49.333 -90.333 74 -159 74
c-43.333 0 -78.166 -12.833 -104.499 -38.5s-39.5 -57.5 -39.5 -95.5s13.167 -69.833 39.5 -95.5s61.166 -38.5 104.499 -38.5z" />
    <glyph glyph-name="Cacute" unicode="&#x106;" horiz-adv-x="667" 
d="M552 867l-175 -144h-30l160 144h45zM398 -12c-94 0 -172.999 32.332 -236.999 96.999s-96 147.334 -96 248.001s32 183.334 96 248.001s143 97 237 97s171.333 -35 232 -105l-25 -22c-24 30 -54.167 53.667 -90.5 71s-75.166 26 -116.499 26
c-84.667 0 -155.5 -29.333 -212.5 -88s-85.5 -134.334 -85.5 -227.001c0 -92 28.5 -167.5 85.5 -226.5s127.833 -88.5 212.5 -88.5c41.333 0 80.166 8.66699 116.499 26s66.5 41 90.5 71l26 -21c-62.667 -70.667 -140.334 -106 -233.001 -106z" />
    <glyph glyph-name="cacute" unicode="&#x107;" horiz-adv-x="493" 
d="M442 700l-175 -144h-30l160 144h45zM288 -12c-68 0 -123 24.498 -165 73.498s-63 109.167 -63 180.5s21 131.333 63 180s97 73 165 73c37.333 0 68.666 -6.66699 93.999 -20s49 -33.666 71 -60.999l-22 -18c-35.333 48 -82.333 72 -141 72
c-60.667 0 -108.667 -21.5 -144 -64.5s-53 -96.833 -53 -161.5c0 -65.333 17.833 -119.5 53.5 -162.5s83.5 -64.5 143.5 -64.5c58 0 105 24.333 141 73l22 -19c-22 -27.333 -45.667 -47.666 -71 -60.999s-56.666 -20 -93.999 -20z" />
    <glyph glyph-name="Ccircumflex" unicode="&#x108;" horiz-adv-x="667" 
d="M516 723h-28l-91 120l-88 -120h-28l98 144h36zM398 -12c-94 0 -172.999 32.332 -236.999 96.999s-96 147.334 -96 248.001s32 183.334 96 248.001s143 97 237 97s171.333 -35 232 -105l-25 -22c-24 30 -54.167 53.667 -90.5 71s-75.166 26 -116.499 26
c-84.667 0 -155.5 -29.333 -212.5 -88s-85.5 -134.334 -85.5 -227.001c0 -92 28.5 -167.5 85.5 -226.5s127.833 -88.5 212.5 -88.5c41.333 0 80.166 8.66699 116.499 26s66.5 41 90.5 71l26 -21c-62.667 -70.667 -140.334 -106 -233.001 -106z" />
    <glyph glyph-name="ccircumflex" unicode="&#x109;" horiz-adv-x="493" 
d="M407 556h-28l-91 120l-88 -120h-28l98 144h36zM288 -12c-68 0 -123 24.498 -165 73.498s-63 109.167 -63 180.5s21 131.333 63 180s97 73 165 73c37.333 0 68.666 -6.66699 93.999 -20s49 -33.666 71 -60.999l-22 -18c-35.333 48 -82.333 72 -141 72
c-60.667 0 -108.667 -21.5 -144 -64.5s-53 -96.833 -53 -161.5c0 -65.333 17.833 -119.5 53.5 -162.5s83.5 -64.5 143.5 -64.5c58 0 105 24.333 141 73l22 -19c-22 -27.333 -45.667 -47.666 -71 -60.999s-56.666 -20 -93.999 -20z" />
    <glyph glyph-name="Cdotaccent" unicode="&#x10a;" horiz-adv-x="667" 
d="M398 -12c-94 0 -172.999 32.332 -236.999 96.999s-96 147.334 -96 248.001s32 183.334 96 248.001s143 97 237 97s171.333 -35 232 -105l-25 -22c-24 30 -54.167 53.667 -90.5 71s-75.166 26 -116.499 26c-84.667 0 -155.5 -29.333 -212.5 -88
s-85.5 -134.334 -85.5 -227.001c0 -92 28.5 -167.5 85.5 -226.5s127.833 -88.5 212.5 -88.5c41.333 0 80.166 8.66699 116.499 26s66.5 41 90.5 71l26 -21c-62.667 -70.667 -140.334 -106 -233.001 -106zM400.001 732.999c-7.33301 0 -14 2.83301 -20 8.5s-9 12.5 -9 20.5
s3 14.833 9 20.5s12.667 8.5 20 8.5c8 0 14.833 -2.83301 20.5 -8.5s8.5 -12.5 8.5 -20.5s-2.83301 -14.833 -8.5 -20.5s-12.5 -8.5 -20.5 -8.5z" />
    <glyph glyph-name="cdotaccent" unicode="&#x10b;" horiz-adv-x="493" 
d="M288 -12c-68 0 -123 24.498 -165 73.498s-63 109.167 -63 180.5s21 131.333 63 180s97 73 165 73c37.333 0 68.666 -6.66699 93.999 -20s49 -33.666 71 -60.999l-22 -18c-35.333 48 -82.333 72 -141 72c-60.667 0 -108.667 -21.5 -144 -64.5s-53 -96.833 -53 -161.5
c0 -65.333 17.833 -119.5 53.5 -162.5s83.5 -64.5 143.5 -64.5c58 0 105 24.333 141 73l22 -19c-22 -27.333 -45.667 -47.666 -71 -60.999s-56.666 -20 -93.999 -20zM291 565.998c-7.33301 0 -14 2.83301 -20 8.5s-9 12.5 -9 20.5s3 14.833 9 20.5s12.667 8.5 20 8.5
c8 0 14.833 -2.83301 20.5 -8.5s8.5 -12.5 8.5 -20.5s-2.83301 -14.833 -8.5 -20.5s-12.5 -8.5 -20.5 -8.5z" />
    <glyph glyph-name="Ccaron" unicode="&#x10c;" horiz-adv-x="667" 
d="M418 723h-36l-101 144h28l91 -120l88 120h28zM398 -12c-94 0 -172.999 32.332 -236.999 96.999s-96 147.334 -96 248.001s32 183.334 96 248.001s143 97 237 97s171.333 -35 232 -105l-25 -22c-24 30 -54.167 53.667 -90.5 71s-75.166 26 -116.499 26
c-84.667 0 -155.5 -29.333 -212.5 -88s-85.5 -134.334 -85.5 -227.001c0 -92 28.5 -167.5 85.5 -226.5s127.833 -88.5 212.5 -88.5c41.333 0 80.166 8.66699 116.499 26s66.5 41 90.5 71l26 -21c-62.667 -70.667 -140.334 -106 -233.001 -106z" />
    <glyph glyph-name="ccaron" unicode="&#x10d;" horiz-adv-x="493" 
d="M309 556h-36l-101 144h28l91 -120l88 120h28zM288 -12c-68 0 -123 24.498 -165 73.498s-63 109.167 -63 180.5s21 131.333 63 180s97 73 165 73c37.333 0 68.666 -6.66699 93.999 -20s49 -33.666 71 -60.999l-22 -18c-35.333 48 -82.333 72 -141 72
c-60.667 0 -108.667 -21.5 -144 -64.5s-53 -96.833 -53 -161.5c0 -65.333 17.833 -119.5 53.5 -162.5s83.5 -64.5 143.5 -64.5c58 0 105 24.333 141 73l22 -19c-22 -27.333 -45.667 -47.666 -71 -60.999s-56.666 -20 -93.999 -20z" />
    <glyph glyph-name="Dcaron" unicode="&#x10e;" horiz-adv-x="684" 
d="M361 723h-36l-101 144h28l91 -120l88 120h28zM286 0l-198 -0.000976562v667h198c100 0 180.333 -32.5 241 -97.5s91 -143.833 91 -236.5c0 -93.333 -30.167 -172.166 -90.5 -236.499s-140.833 -96.5 -241.5 -96.5zM286 29.999c92 0 164.499 28.668 217.499 86.001
s79.5 129.666 79.5 216.999c0 86.667 -26.667 159 -80 217s-125.666 87 -216.999 87h-166v-607h166z" />
    <glyph glyph-name="dcaron" unicode="&#x10f;" horiz-adv-x="605" 
d="M608 627c0 -24 -6.00098 -47.166 -18.001 -69.499s-26.667 -39.5 -44 -51.5l-22 18c16 12 28.833 26.5 38.5 43.5s14.5 33.167 14.5 48.5c-4 -0.666992 -6.66699 -1 -8 -1c-9.33301 0 -17 3.16699 -23 9.5s-9 14.166 -9 23.499c0 8.66699 3 16.167 9 22.5
s13.667 9.5 23 9.5c10.667 0 19.834 -4.66699 27.501 -14s11.5 -22.333 11.5 -39zM479.999 0.000976562l-30.002 0.000976562v81c-17.333 -26.667 -41.666 -48.834 -72.999 -66.501s-65 -26.5 -101 -26.5c-65.333 0 -117.666 23 -156.999 69s-59 107.333 -59 184
c0 76 19.833 137.333 59.5 184s91.834 70 156.501 70c35.333 0 68.166 -8.5 98.499 -25.5s55.5 -40.167 75.5 -69.5v267h30v-667zM275.997 15.002c36 0 70 9.33203 102 27.999s56 41.334 72 68.001v259c-16 26.667 -40 49.667 -72 69s-66 29 -102 29
c-57.333 0 -102.166 -21.333 -134.499 -64s-48.5 -97 -48.5 -163s16.167 -120.167 48.5 -162.5s77.166 -63.5 134.499 -63.5z" />
    <glyph glyph-name="Dcroat" unicode="&#x110;" horiz-adv-x="715" 
d="M317 0l-198 -0.000976562v318h-107v30h107v319h198c100 0 180.333 -32.5 241 -97.5s91 -143.833 91 -236.5c0 -93.333 -30.167 -172.166 -90.5 -236.499s-140.833 -96.5 -241.5 -96.5zM317 29.999c92 0 164.499 28.668 217.499 86.001s79.5 129.666 79.5 216.999
c0 86.667 -26.667 159 -80 217s-125.666 87 -216.999 87h-166v-289h188v-30h-188v-288h166z" />
    <glyph glyph-name="dcroat" unicode="&#x111;" horiz-adv-x="566" 
d="M480 0l-30.002 0.000976562v81c-17.333 -26.667 -41.666 -48.834 -72.999 -66.501s-65 -26.5 -101 -26.5c-65.333 0 -117.666 23 -156.999 69s-59 107.333 -59 184c0 76 19.833 137.333 59.5 184s91.834 70 156.501 70c35.333 0 68.166 -8.5 98.499 -25.5
s55.5 -40.167 75.5 -69.5v141h-166v27h166v99h30v-99h77v-27h-77v-541zM275.998 15.001c36 0 70 9.33203 102 27.999s56 41.334 72 68.001v259c-16 26.667 -40 49.667 -72 69s-66 29 -102 29c-57.333 0 -102.166 -21.333 -134.499 -64s-48.5 -97 -48.5 -163
s16.167 -120.167 48.5 -162.5s77.166 -63.5 134.499 -63.5z" />
    <glyph glyph-name="Emacron" unicode="&#x112;" horiz-adv-x="558" 
d="M496 0h-408v667h408v-30h-376v-279h369v-30h-369v-298h376v-30zM471 748h-363v27h363v-27z" />
    <glyph glyph-name="emacron" unicode="&#x113;" horiz-adv-x="571" 
d="M297 -12c-70 0 -127 23.833 -171 71.5s-66 108.5 -66 182.5c0 70.667 21.667 130.5 65 179.5s97.333 73.5 162 73.5c70.667 0 125.667 -24.333 165 -73s59 -108.667 59 -180v-10h-417c1.33301 -61.333 20.5 -112.833 57.5 -154.5s85.5 -62.5 145.5 -62.5
c66.667 0 122.667 24.333 168 73l18 -19c-52 -54 -114 -81 -186 -81zM479 259c0 32.667 -6.66895 64.5 -20.002 95.5s-35.166 57.667 -65.499 80s-66.166 33.5 -107.499 33.5c-58 0 -104 -21.5 -138 -64.5s-52 -91.167 -54 -144.5h385zM466.998 581h-363v27h363v-27z" />
    <glyph glyph-name="Ebreve" unicode="&#x114;" horiz-adv-x="558" 
d="M496 0h-408v667h408v-30h-376v-279h369v-30h-369v-298h376v-30zM468 799c-43.333 -58.667 -101.666 -88 -174.999 -88c-72.667 0 -131.334 29.333 -176.001 88l21 19c38 -53.333 89.667 -80 155 -80s117 26.667 155 80z" />
    <glyph glyph-name="ebreve" unicode="&#x115;" horiz-adv-x="571" 
d="M297 -12c-70 0 -127 23.833 -171 71.5s-66 108.5 -66 182.5c0 70.667 21.667 130.5 65 179.5s97.333 73.5 162 73.5c70.667 0 125.667 -24.333 165 -73s59 -108.667 59 -180v-10h-417c1.33301 -61.333 20.5 -112.833 57.5 -154.5s85.5 -62.5 145.5 -62.5
c66.667 0 122.667 24.333 168 73l18 -19c-52 -54 -114 -81 -186 -81zM479 259c0 32.667 -6.66895 64.5 -20.002 95.5s-35.166 57.667 -65.499 80s-66.166 33.5 -107.499 33.5c-58 0 -104 -21.5 -138 -64.5s-52 -91.167 -54 -144.5h385zM464.998 632
c-43.333 -58.667 -101.666 -88 -174.999 -88c-72.667 0 -131.334 29.333 -176.001 88l21 19c38 -53.333 89.667 -80 155 -80s117 26.667 155 80z" />
    <glyph glyph-name="Edotaccent" unicode="&#x116;" horiz-adv-x="558" 
d="M496 0h-408v667h408v-30h-376v-279h369v-30h-369v-298h376v-30zM299 733c-7.33301 0 -14 2.83301 -20 8.5s-9 12.5 -9 20.5s3 14.833 9 20.5s12.667 8.5 20 8.5c8 0 14.833 -2.83301 20.5 -8.5s8.5 -12.5 8.5 -20.5s-2.83301 -14.833 -8.5 -20.5s-12.5 -8.5 -20.5 -8.5z
" />
    <glyph glyph-name="edotaccent" unicode="&#x117;" horiz-adv-x="571" 
d="M297 -12c-70 0 -127 23.833 -171 71.5s-66 108.5 -66 182.5c0 70.667 21.667 130.5 65 179.5s97.333 73.5 162 73.5c70.667 0 125.667 -24.333 165 -73s59 -108.667 59 -180v-10h-417c1.33301 -61.333 20.5 -112.833 57.5 -154.5s85.5 -62.5 145.5 -62.5
c66.667 0 122.667 24.333 168 73l18 -19c-52 -54 -114 -81 -186 -81zM479 259c0 32.667 -6.66895 64.5 -20.002 95.5s-35.166 57.667 -65.499 80s-66.166 33.5 -107.499 33.5c-58 0 -104 -21.5 -138 -64.5s-52 -91.167 -54 -144.5h385zM287.998 566
c-7.33301 0 -14 2.83301 -20 8.5s-9 12.5 -9 20.5s3 14.833 9 20.5s12.667 8.5 20 8.5c8 0 14.833 -2.83301 20.5 -8.5s8.5 -12.5 8.5 -20.5s-2.83301 -14.833 -8.5 -20.5s-12.5 -8.5 -20.5 -8.5z" />
    <glyph glyph-name="Eogonek" unicode="&#x118;" horiz-adv-x="558" 
d="M496 0c-54.667 -26 -82 -60 -82 -102c0 -38 17.333 -57 52 -57c28.667 0 48 15.667 58 47l25 -11c-14.667 -42 -42.334 -63 -83.001 -63c-23.333 0 -42.666 7 -57.999 21s-23 35 -23 63c0 39.333 20 73.333 60 102h-357v667h408v-30h-376v-279h369v-30h-369v-298h376v-30
z" />
    <glyph glyph-name="eogonek" unicode="&#x119;" horiz-adv-x="571" 
d="M297 -12c-70 0 -127.001 23.833 -171.001 71.5s-66 108.5 -66 182.5c0 70.667 21.667 130.5 65 179.5s97.333 73.5 162 73.5c70.667 0 125.667 -24.333 165 -73s59 -108.667 59 -180v-10h-417c1.33301 -61.333 20.5 -112.833 57.5 -154.5s85.5 -62.5 145.5 -62.5
c66.667 0 122.667 24.333 168 73l18 -19c-32.667 -34 -67.667 -57 -105 -69c-54.667 -26 -82 -60 -82 -102c0 -38 17.333 -57 52 -57c28.667 0 48 15.667 58 47l25 -11c-14.667 -42 -42.334 -63 -83.001 -63c-23.333 0 -42.666 7 -57.999 21s-23 35 -23 63
c0 32.667 15 63 45 91c-1.33301 0 -3.66602 -0.166992 -6.99902 -0.5s-6 -0.5 -8 -0.5zM478.999 259c0 32.667 -6.66895 64.5 -20.002 95.5s-35.166 57.667 -65.499 80s-66.166 33.5 -107.499 33.5c-58 0 -104 -21.5 -138 -64.5s-52 -91.167 -54 -144.5h385z" />
    <glyph glyph-name="Ecaron" unicode="&#x11a;" horiz-adv-x="558" 
d="M313 723h-36l-101 144h28l91 -120l88 120h28zM496 0h-408v667h408v-30h-376v-279h369v-30h-369v-298h376v-30z" />
    <glyph glyph-name="ecaron" unicode="&#x11b;" horiz-adv-x="571" 
d="M308 556h-36l-101 144h28l91 -120l88 120h28zM297 -12c-70 0 -127 23.833 -171 71.5s-66 108.5 -66 182.5c0 70.667 21.667 130.5 65 179.5s97.333 73.5 162 73.5c70.667 0 125.667 -24.333 165 -73s59 -108.667 59 -180v-10h-417
c1.33301 -61.333 20.5 -112.833 57.5 -154.5s85.5 -62.5 145.5 -62.5c66.667 0 122.667 24.333 168 73l18 -19c-52 -54 -114 -81 -186 -81zM479 259c0 32.667 -6.66895 64.5 -20.002 95.5s-35.166 57.667 -65.499 80s-66.166 33.5 -107.499 33.5
c-58 0 -104 -21.5 -138 -64.5s-52 -91.167 -54 -144.5h385z" />
    <glyph glyph-name="Gcircumflex" unicode="&#x11c;" horiz-adv-x="708" 
d="M521 723h-28l-91 120l-88 -120h-28l98 144h36zM398 -13c-94 0 -173.002 32.332 -237.002 96.999s-96 147.667 -96 249c0 100.667 32 183.334 96 248.001s143 97 237 97c96 0 177.333 -34.333 244 -103l-21 -22c-26 30 -58.667 53.333 -98 70s-81 25 -125 25
c-84.667 0 -155.5 -29.333 -212.5 -88s-85.5 -134.334 -85.5 -227.001c0 -92 28.5 -167.667 85.5 -227s127.833 -89 212.5 -89c44.667 0 85.334 8.83301 122.001 26.5s66.667 38.834 90 63.501v183h-275v30h307v-226c-29.333 -32.667 -65.166 -58.667 -107.499 -78
s-87.833 -29 -136.5 -29z" />
    <glyph glyph-name="gcircumflex" unicode="&#x11d;" horiz-adv-x="566" 
d="M402 556h-28l-91 120l-88 -120h-28l98 144h36zM276 -196c-42 0 -76.5 5 -103.5 15s-54.167 29.333 -81.5 58l22 25c20.667 -26 43.5 -44.333 68.5 -55s56.5 -16 94.5 -16c51.333 0 93.166 13.833 125.499 41.5s48.5 69.167 48.5 124.5v84
c-18 -26.667 -42.5 -49.167 -73.5 -67.5s-64.5 -27.5 -100.5 -27.5c-65.333 0 -117.666 23.167 -156.999 69.5s-59 107.833 -59 184.5c0 76 19.833 137.5 59.5 184.5s91.834 70.5 156.501 70.5c35.333 0 68.166 -8.5 98.499 -25.5s55.5 -40.167 75.5 -69.5v83h30v-486
c0 -66 -18.5 -114.667 -55.5 -146s-86.5 -47 -148.5 -47zM276 13c36 0 70 9.66699 102 29s56 42.333 72 69v259c-16 26.667 -40 49.667 -72 69s-66 29 -102 29c-57.333 0 -102.166 -21.5 -134.499 -64.5s-48.5 -97.5 -48.5 -163.5s16.167 -120.333 48.5 -163
s77.166 -64 134.499 -64z" />
    <glyph glyph-name="Gbreve" unicode="&#x11e;" horiz-adv-x="708" 
d="M398 -13c-94 0 -173.002 32.332 -237.002 96.999s-96 147.667 -96 249c0 100.667 32 183.334 96 248.001s143 97 237 97c96 0 177.333 -34.333 244 -103l-21 -22c-26 30 -58.667 53.333 -98 70s-81 25 -125 25c-84.667 0 -155.5 -29.333 -212.5 -88
s-85.5 -134.334 -85.5 -227.001c0 -92 28.5 -167.667 85.5 -227s127.833 -89 212.5 -89c44.667 0 85.334 8.83301 122.001 26.5s66.667 38.834 90 63.501v183h-275v30h307v-226c-29.333 -32.667 -65.166 -58.667 -107.499 -78s-87.833 -29 -136.5 -29zM576.998 798.999
c-43.333 -58.667 -101.666 -88 -174.999 -88c-72.667 0 -131.334 29.333 -176.001 88l21 19c38 -53.333 89.667 -80 155 -80s117 26.667 155 80z" />
    <glyph glyph-name="gbreve" unicode="&#x11f;" horiz-adv-x="566" 
d="M276 -196c-42 0 -76.5 5 -103.5 15s-54.167 29.333 -81.5 58l22 25c20.667 -26 43.5 -44.333 68.5 -55s56.5 -16 94.5 -16c51.333 0 93.166 13.833 125.499 41.5s48.5 69.167 48.5 124.5v84c-18 -26.667 -42.5 -49.167 -73.5 -67.5s-64.5 -27.5 -100.5 -27.5
c-65.333 0 -117.666 23.167 -156.999 69.5s-59 107.833 -59 184.5c0 76 19.833 137.5 59.5 184.5s91.834 70.5 156.501 70.5c35.333 0 68.166 -8.5 98.499 -25.5s55.5 -40.167 75.5 -69.5v83h30v-486c0 -66 -18.5 -114.667 -55.5 -146s-86.5 -47 -148.5 -47zM276 13
c36 0 70 9.66699 102 29s56 42.333 72 69v259c-16 26.667 -40 49.667 -72 69s-66 29 -102 29c-57.333 0 -102.166 -21.5 -134.499 -64.5s-48.5 -97.5 -48.5 -163.5s16.167 -120.333 48.5 -163s77.166 -64 134.499 -64zM458 632c-43.333 -58.667 -101.666 -88 -174.999 -88
c-72.667 0 -131.334 29.333 -176.001 88l21 19c38 -53.333 89.667 -80 155 -80s117 26.667 155 80z" />
    <glyph glyph-name="Gdotaccent" unicode="&#x120;" horiz-adv-x="708" 
d="M398 -13c-94 0 -173.002 32.332 -237.002 96.999s-96 147.667 -96 249c0 100.667 32 183.334 96 248.001s143 97 237 97c96 0 177.333 -34.333 244 -103l-21 -22c-26 30 -58.667 53.333 -98 70s-81 25 -125 25c-84.667 0 -155.5 -29.333 -212.5 -88
s-85.5 -134.334 -85.5 -227.001c0 -92 28.5 -167.667 85.5 -227s127.833 -89 212.5 -89c44.667 0 85.334 8.83301 122.001 26.5s66.667 38.834 90 63.501v183h-275v30h307v-226c-29.333 -32.667 -65.166 -58.667 -107.499 -78s-87.833 -29 -136.5 -29zM400.998 732.999
c-7.33301 0 -14 2.83301 -20 8.5s-9 12.5 -9 20.5s3 14.833 9 20.5s12.667 8.5 20 8.5c8 0 14.833 -2.83301 20.5 -8.5s8.5 -12.5 8.5 -20.5s-2.83301 -14.833 -8.5 -20.5s-12.5 -8.5 -20.5 -8.5z" />
    <glyph glyph-name="gdotaccent" unicode="&#x121;" horiz-adv-x="566" 
d="M276 -196c-42 0 -76.5 5 -103.5 15s-54.167 29.333 -81.5 58l22 25c20.667 -26 43.5 -44.333 68.5 -55s56.5 -16 94.5 -16c51.333 0 93.166 13.833 125.499 41.5s48.5 69.167 48.5 124.5v84c-18 -26.667 -42.5 -49.167 -73.5 -67.5s-64.5 -27.5 -100.5 -27.5
c-65.333 0 -117.666 23.167 -156.999 69.5s-59 107.833 -59 184.5c0 76 19.833 137.5 59.5 184.5s91.834 70.5 156.501 70.5c35.333 0 68.166 -8.5 98.499 -25.5s55.5 -40.167 75.5 -69.5v83h30v-486c0 -66 -18.5 -114.667 -55.5 -146s-86.5 -47 -148.5 -47zM276 13
c36 0 70 9.66699 102 29s56 42.333 72 69v259c-16 26.667 -40 49.667 -72 69s-66 29 -102 29c-57.333 0 -102.166 -21.5 -134.499 -64.5s-48.5 -97.5 -48.5 -163.5s16.167 -120.333 48.5 -163s77.166 -64 134.499 -64zM281 566c-7.33301 0 -14 2.83301 -20 8.5
s-9 12.5 -9 20.5s3 14.833 9 20.5s12.667 8.5 20 8.5c8 0 14.833 -2.83301 20.5 -8.5s8.5 -12.5 8.5 -20.5s-2.83301 -14.833 -8.5 -20.5s-12.5 -8.5 -20.5 -8.5z" />
    <glyph glyph-name="Gcommaaccent" unicode="&#x122;" horiz-adv-x="708" 
d="M439 -137c0 -24 -6.00098 -47.166 -18.001 -69.499s-26.667 -39.5 -44 -51.5l-22 18c16 12 28.833 26.5 38.5 43.5s14.5 33.167 14.5 48.5c-4 -0.666992 -6.66699 -1 -8 -1c-9.33301 0 -17 3.16699 -23 9.5s-9 14.166 -9 23.499c0 8.66699 3 16.167 9 22.5
s13.667 9.5 23 9.5c10.667 0 19.834 -4.66699 27.501 -14s11.5 -22.333 11.5 -39zM397.999 -12.999c-94 0 -173.002 32.332 -237.002 96.999s-96 147.667 -96 249c0 100.667 32 183.334 96 248.001s143 97 237 97c96 0 177.333 -34.333 244 -103l-21 -22
c-26 30 -58.667 53.333 -98 70s-81 25 -125 25c-84.667 0 -155.5 -29.333 -212.5 -88s-85.5 -134.334 -85.5 -227.001c0 -92 28.5 -167.667 85.5 -227s127.833 -89 212.5 -89c44.667 0 85.334 8.83301 122.001 26.5s66.667 38.834 90 63.501v183h-275v30h307v-226
c-29.333 -32.667 -65.166 -58.667 -107.499 -78s-87.833 -29 -136.5 -29z" />
    <glyph glyph-name="gcommaaccent" unicode="&#x123;" horiz-adv-x="566" 
d="M241 610c0 26.667 6.16797 52.168 18.501 76.501s26.166 41.833 41.499 52.5l24 -19c-16 -12 -28.833 -26.5 -38.5 -43.5s-14.5 -33.167 -14.5 -48.5c1.33301 0.666992 2.66602 1 3.99902 1c8 0 15.5 -3.33301 22.5 -10s10.5 -14.334 10.5 -23.001
c0 -8 -3.16699 -15.333 -9.5 -22s-14.166 -10 -23.499 -10c-10.667 0 -19.167 4.33301 -25.5 13s-9.5 19.667 -9.5 33zM276.001 -195.999c-42 0 -76.5 5 -103.5 15s-54.167 29.333 -81.5 58l22 25c20.667 -26 43.5 -44.333 68.5 -55s56.5 -16 94.5 -16
c51.333 0 93.166 13.833 125.499 41.5s48.5 69.167 48.5 124.5v84c-18 -26.667 -42.5 -49.167 -73.5 -67.5s-64.5 -27.5 -100.5 -27.5c-65.333 0 -117.666 23.167 -156.999 69.5s-59 107.833 -59 184.5c0 76 19.833 137.5 59.5 184.5s91.834 70.5 156.501 70.5
c35.333 0 68.166 -8.5 98.499 -25.5s55.5 -40.167 75.5 -69.5v83h30v-486c0 -66 -18.5 -114.667 -55.5 -146s-86.5 -47 -148.5 -47zM276.001 13.001c36 0 70 9.66699 102 29s56 42.333 72 69v259c-16 26.667 -40 49.667 -72 69s-66 29 -102 29
c-57.333 0 -102.166 -21.5 -134.499 -64.5s-48.5 -97.5 -48.5 -163.5s16.167 -120.333 48.5 -163s77.166 -64 134.499 -64z" />
    <glyph glyph-name="Hcircumflex" unicode="&#x124;" horiz-adv-x="695" 
d="M462 723h-28l-91 120l-88 -120h-28l98 144h36zM607 0h-32v328h-455v-328h-32v667h32v-309h455v309h32v-667z" />
    <glyph glyph-name="hcircumflex" unicode="&#x125;" 
d="M385 723h-28l-91 120l-88 -120h-28l98 144h36zM442 0l-30 -0.000976562v339c0 48 -10.667 81.5 -32 100.5s-52.333 28.5 -93 28.5c-32 0 -64 -8.83301 -96 -26.5s-57 -39.167 -75 -64.5v-377h-30v667h30v-260c19.333 23.333 45.333 43.833 78 61.5s65 26.5 97 26.5
c50 0 87.667 -12.167 113 -36.5s38 -64.166 38 -119.499v-339z" />
    <glyph glyph-name="Hbar" unicode="&#x126;" horiz-adv-x="717" 
d="M619 0h-32v328h-455v-328h-32v501h-88v27h88v139h32v-139h455v139h32v-139h86v-27h-86v-501zM132 358h455v143h-455v-143z" />
    <glyph glyph-name="hbar" unicode="&#x127;" 
d="M282 541l-166 -0.000976562v-134c19.333 23.333 45.333 43.833 78 61.5s65 26.5 97 26.5c50 0 87.667 -12.167 113 -36.5s38 -64.166 38 -119.499v-339h-30v339c0 48 -10.667 81.5 -32 100.5s-52.333 28.5 -93 28.5c-32 0 -64 -8.83301 -96 -26.5s-57 -39.167 -75 -64.5
v-377h-30v541h-76v27h76v99h30v-99h166v-27z" />
    <glyph glyph-name="Itilde" unicode="&#x128;" horiz-adv-x="208" 
d="M120 0h-32v667h32v-667zM166 721c-17.333 0 -32.166 5.83301 -44.499 17.5s-21.333 24.667 -27 39s-13.334 27.333 -23.001 39s-20.834 17.5 -33.501 17.5c-17.333 0 -31.5 -8.83301 -42.5 -26.5s-16.5 -44.5 -16.5 -80.5h-26c0 38 7.83301 69.833 23.5 95.5
s37.167 38.5 64.5 38.5c17.333 0 32.166 -5.83301 44.499 -17.5s21.333 -24.667 27 -39s13.334 -27.333 23.001 -39s20.834 -17.5 33.501 -17.5c17.333 0 31.5 8.83301 42.5 26.5s16.5 44.5 16.5 80.5h26c0 -38 -7.83301 -69.833 -23.5 -95.5s-37.167 -38.5 -64.5 -38.5z
" />
    <glyph glyph-name="itilde" unicode="&#x129;" horiz-adv-x="202" 
d="M116 0h-30v483h30v-483zM163 554c-17.333 0 -32.166 5.83301 -44.499 17.5s-21.333 24.667 -27 39s-13.334 27.333 -23.001 39s-20.834 17.5 -33.501 17.5c-17.333 0 -31.5 -8.83301 -42.5 -26.5s-16.5 -44.5 -16.5 -80.5h-26c0 38 7.83301 69.833 23.5 95.5
s37.167 38.5 64.5 38.5c17.333 0 32.166 -5.83301 44.499 -17.5s21.333 -24.667 27 -39s13.334 -27.333 23.001 -39s20.834 -17.5 33.501 -17.5c17.333 0 31.5 8.83301 42.5 26.5s16.5 44.5 16.5 80.5h26c0 -38 -7.83301 -69.833 -23.5 -95.5s-37.167 -38.5 -64.5 -38.5z
" />
    <glyph glyph-name="Imacron" unicode="&#x12a;" horiz-adv-x="208" 
d="M120 0h-32v667h32v-667zM286 748h-363v27h363v-27z" />
    <glyph glyph-name="imacron" unicode="&#x12b;" horiz-adv-x="202" 
d="M116 0h-30v483h30v-483zM283 581h-363v27h363v-27z" />
    <glyph glyph-name="Ibreve" unicode="&#x12c;" horiz-adv-x="208" 
d="M120 0h-32v667h32v-667zM280 799c-43.333 -58.667 -101.666 -88 -174.999 -88c-72.667 0 -131.334 29.333 -176.001 88l21 19c38 -53.333 89.667 -80 155 -80s117 26.667 155 80z" />
    <glyph glyph-name="ibreve" unicode="&#x12d;" horiz-adv-x="202" 
d="M116 0h-30v483h30v-483zM277 632c-43.333 -58.667 -101.666 -88 -174.999 -88c-72.667 0 -131.334 29.333 -176.001 88l21 19c38 -53.333 89.667 -80 155 -80s117 26.667 155 80z" />
    <glyph glyph-name="Iogonek" unicode="&#x12e;" horiz-adv-x="208" 
d="M148 -112l25 -10.999c-14.667 -42 -42.334 -63 -83.001 -63c-23.333 0 -42.666 7 -57.999 21s-23 35 -23 63c0 22 7.33301 43.167 22 63.5s33.667 37.166 57 50.499v655h32v-667c-54.667 -26 -82 -60 -82 -102c0 -38 17.333 -57 52 -57c28.667 0 48 15.667 58 47z" />
    <glyph glyph-name="iogonek" unicode="&#x12f;" horiz-adv-x="202" 
d="M144 -112l25 -11.002c-14.667 -42 -42.334 -63 -83.001 -63c-23.333 0 -42.666 7 -57.999 21s-23 35 -23 63c0 22.667 7.5 44.334 22.5 65.001s34.5 37.334 58.5 50.001v470h30v-483c-54.667 -26 -82 -60 -82 -102c0 -38 17.333 -57 52 -57c28.667 0 48 15.667 58 47z
M101 565.998c-7.33301 0 -14 2.83301 -20 8.5s-9 12.5 -9 20.5s3 14.833 9 20.5s12.667 8.5 20 8.5c8 0 14.833 -2.83301 20.5 -8.5s8.5 -12.5 8.5 -20.5s-2.83301 -14.833 -8.5 -20.5s-12.5 -8.5 -20.5 -8.5z" />
    <glyph glyph-name="Idotaccent" unicode="&#x130;" horiz-adv-x="208" 
d="M120 0h-32v667h32v-667zM104 733c-7.33301 0 -14 2.83301 -20 8.5s-9 12.5 -9 20.5s3 14.833 9 20.5s12.667 8.5 20 8.5c8 0 14.833 -2.83301 20.5 -8.5s8.5 -12.5 8.5 -20.5s-2.83301 -14.833 -8.5 -20.5s-12.5 -8.5 -20.5 -8.5z" />
    <glyph glyph-name="dotlessi" unicode="&#x131;" horiz-adv-x="202" 
d="M116 0h-30v483h30v-483z" />
    <glyph glyph-name="IJ" unicode="&#x132;" horiz-adv-x="673" 
d="M120 0h-32v667h32v-667zM393 -12c-71.333 0 -127.666 29 -168.999 87l27 24c38 -54 85.333 -81 142 -81c48.667 0 87.5 15.5 116.5 46.5s43.5 71.167 43.5 120.5v482h32v-482c0 -63.333 -18.333 -112 -55 -146s-82.334 -51 -137.001 -51z" />
    <glyph glyph-name="ij" unicode="&#x133;" horiz-adv-x="404" 
d="M101 566c-7.33301 0 -14 2.83301 -20 8.5s-9 12.5 -9 20.5s3 14.833 9 20.5s12.667 8.5 20 8.5c8 0 14.833 -2.83301 20.5 -8.5s8.5 -12.5 8.5 -20.5s-2.83301 -14.833 -8.5 -20.5s-12.5 -8.5 -20.5 -8.5zM116 0h-30v483h30v-483zM303 566
c-7.33301 0 -14 2.83301 -20 8.5s-9 12.5 -9 20.5s3 14.833 9 20.5s12.667 8.5 20 8.5c8 0 14.833 -2.83301 20.5 -8.5s8.5 -12.5 8.5 -20.5s-2.83301 -14.833 -8.5 -20.5s-12.5 -8.5 -20.5 -8.5zM199 -196c-34 0 -64.666 12.668 -91.999 38.001l19 25
c21.333 -24 45.666 -36 72.999 -36c26.667 0 48.167 7.66699 64.5 23s24.5 38.666 24.5 69.999v559h30v-559c0 -80 -39.667 -120 -119 -120z" />
    <glyph glyph-name="Jcircumflex" unicode="&#x134;" horiz-adv-x="465" 
d="M478 723h-28l-91 120l-88 -120h-28l98 144h36zM185 -12c-71.333 0 -127.666 29 -168.999 87l27 24c38 -54 85.333 -81 142 -81c48.667 0 87.5 15.5 116.5 46.5s43.5 71.167 43.5 120.5v482h32v-482c0 -63.333 -18.333 -112 -55 -146s-82.334 -51 -137.001 -51z" />
    <glyph glyph-name="jcircumflex" unicode="&#x135;" horiz-adv-x="202" 
d="M220 556h-28l-91 120l-88 -120h-28l98 144h36zM-3 -196c-34 0 -64.666 12.668 -91.999 38.001l19 25c21.333 -24 45.666 -36 72.999 -36c26.667 0 48.167 7.66699 64.5 23s24.5 38.666 24.5 69.999v559h30v-559c0 -80 -39.667 -120 -119 -120z" />
    <glyph glyph-name="Kcommaaccent" unicode="&#x136;" horiz-adv-x="571" 
d="M330 -137c0 -24 -6.00098 -47.166 -18.001 -69.499s-26.667 -39.5 -44 -51.5l-22 18c16 12 28.833 26.5 38.5 43.5s14.5 33.167 14.5 48.5c-4 -0.666992 -6.66699 -1 -8 -1c-9.33301 0 -17 3.16699 -23 9.5s-9 14.166 -9 23.499c0 8.66699 3 16.167 9 22.5
s13.667 9.5 23 9.5c10.667 0 19.834 -4.66699 27.501 -14s11.5 -22.333 11.5 -39zM539.999 0.000976562h-43l-297 328l-80 -87v-241h-32v667h32v-385l347 385h43l-290 -319z" />
    <glyph glyph-name="kcommaaccent" unicode="&#x137;" horiz-adv-x="496" 
d="M293 -137c0 -24 -6.00098 -47.166 -18.001 -69.499s-26.667 -39.5 -44 -51.5l-22 18c16 12 28.833 26.5 38.5 43.5s14.5 33.167 14.5 48.5c-4 -0.666992 -6.66699 -1 -8 -1c-9.33301 0 -17 3.16699 -23 9.5s-9 14.166 -9 23.499c0 8.66699 3 16.167 9 22.5
s13.667 9.5 23 9.5c10.667 0 19.834 -4.66699 27.501 -14s11.5 -22.333 11.5 -39zM470.999 0.000976562h-43l-212 243l-100 -92v-151h-30v667h30v-478l315 294h43l-235 -218z" />
    <glyph glyph-name="kgreenlandic" unicode="&#x138;" horiz-adv-x="496" 
d="M471 0h-43l-212 243l-100 -92v-151h-30v483h30v-294l315 294h43l-235 -218z" />
    <glyph glyph-name="Lacute" unicode="&#x139;" horiz-adv-x="499" 
d="M425 867l-175 -144h-30l160 144h45zM455 0h-367v667h32v-637h335v-30z" />
    <glyph glyph-name="lacute" unicode="&#x13a;" horiz-adv-x="202" 
d="M255 867l-175 -144h-30l160 144h45zM116 0h-30v667h30v-667z" />
    <glyph glyph-name="Lcommaaccent" unicode="&#x13b;" horiz-adv-x="499" 
d="M313 -137c0 -24 -6.00098 -47.166 -18.001 -69.499s-26.667 -39.5 -44 -51.5l-22 18c16 12 28.833 26.5 38.5 43.5s14.5 33.167 14.5 48.5c-4 -0.666992 -6.66699 -1 -8 -1c-9.33301 0 -17 3.16699 -23 9.5s-9 14.166 -9 23.499c0 8.66699 3 16.167 9 22.5
s13.667 9.5 23 9.5c10.667 0 19.834 -4.66699 27.501 -14s11.5 -22.333 11.5 -39zM454.999 0.000976562h-367v667h32v-637h335v-30z" />
    <glyph glyph-name="lcommaaccent" unicode="&#x13c;" horiz-adv-x="202" 
d="M146 -137c0 -24 -6.00098 -47.166 -18.001 -69.499s-26.667 -39.5 -44 -51.5l-22 18c16 12 28.833 26.5 38.5 43.5s14.5 33.167 14.5 48.5c-4 -0.666992 -6.66699 -1 -8 -1c-9.33301 0 -17 3.16699 -23 9.5s-9 14.166 -9 23.499c0 8.66699 3 16.167 9 22.5
s13.667 9.5 23 9.5c10.667 0 19.834 -4.66699 27.501 -14s11.5 -22.333 11.5 -39zM115.999 0.000976562h-30v667h30v-667z" />
    <glyph glyph-name="Lcaron" unicode="&#x13d;" horiz-adv-x="499" 
d="M298 626c0 -24 -6.00098 -47.166 -18.001 -69.499s-26.667 -39.5 -44 -51.5l-22 18c16 12 28.833 26.5 38.5 43.5s14.5 33.167 14.5 48.5c-4 -0.666992 -6.66699 -1 -8 -1c-9.33301 0 -17 3.16699 -23 9.5s-9 14.166 -9 23.499c0 8.66699 3 16.167 9 22.5
s13.667 9.5 23 9.5c10.667 0 19.834 -4.66699 27.501 -14s11.5 -22.333 11.5 -39zM454.999 0.000976562h-367v667h32v-637h335v-30z" />
    <glyph glyph-name="lcaron" unicode="&#x13e;" horiz-adv-x="237" 
d="M259 626c0 -24 -6.00098 -47.166 -18.001 -69.499s-26.667 -39.5 -44 -51.5l-22 18c16 12 28.833 26.5 38.5 43.5s14.5 33.167 14.5 48.5c-4 -0.666992 -6.66699 -1 -8 -1c-9.33301 0 -17 3.16699 -23 9.5s-9 14.166 -9 23.499c0 8.66699 3 16.167 9 22.5
s13.667 9.5 23 9.5c10.667 0 19.834 -4.66699 27.501 -14s11.5 -22.333 11.5 -39zM115.999 0.000976562h-30v667h30v-667z" />
    <glyph glyph-name="Ldot" unicode="&#x13f;" horiz-adv-x="499" 
d="M455 0h-367v667h32v-637h335v-30zM378 342c0 -9.33301 -3.33301 -17.166 -10 -23.499s-14.334 -9.5 -23.001 -9.5s-16.334 3.16699 -23.001 9.5s-10 14.166 -10 23.499c0 8.66699 3.33301 16.167 10 22.5s14.334 9.5 23.001 9.5s16.334 -3.16699 23.001 -9.5
s10 -13.833 10 -22.5z" />
    <glyph glyph-name="ldot" unicode="&#x140;" horiz-adv-x="240" 
d="M116 0h-30v667h30v-667zM254 245c0 -8.66699 -3.33301 -16.334 -10 -23.001s-14.334 -10 -23.001 -10s-16.334 3.33301 -23.001 10s-10 14.334 -10 23.001s3.33301 16.167 10 22.5s14.334 9.5 23.001 9.5s16.334 -3.16699 23.001 -9.5s10 -13.833 10 -22.5z" />
    <glyph glyph-name="Lslash" unicode="&#x141;" horiz-adv-x="523" 
d="M12 246v34l100 58v329h32v-311l114 67v-34l-114 -67v-292h335v-30h-367v304z" />
    <glyph glyph-name="lslash" unicode="&#x142;" horiz-adv-x="268" 
d="M12 248v32l107 61v326h30v-309l107 62v-32l-107 -62v-326h-30v309z" />
    <glyph glyph-name="Nacute" unicode="&#x143;" horiz-adv-x="690" 
d="M520 867l-175 -144h-30l160 144h45zM602 0h-32l-450 615v-615h-32v667h32l450 -609v609h32v-667z" />
    <glyph glyph-name="nacute" unicode="&#x144;" 
d="M418 700l-175 -144h-30l160 144h45zM442 0h-30v337c0 48 -10.667 81.833 -32 101.5s-52.333 29.5 -93 29.5c-32 0 -64 -8.83301 -96 -26.5s-57 -39.167 -75 -64.5v-377h-30v483h30v-76c19.333 23.333 45.333 43.833 78 61.5s65 26.5 97 26.5c50 0 87.667 -12.5 113 -37.5
s38 -65.167 38 -120.5v-337z" />
    <glyph glyph-name="Ncommaaccent" unicode="&#x145;" horiz-adv-x="690" 
d="M390 -137c0 -24 -6.00098 -47.166 -18.001 -69.499s-26.667 -39.5 -44 -51.5l-22 18c16 12 28.833 26.5 38.5 43.5s14.5 33.167 14.5 48.5c-4 -0.666992 -6.66699 -1 -8 -1c-9.33301 0 -17 3.16699 -23 9.5s-9 14.166 -9 23.499c0 8.66699 3 16.167 9 22.5
s13.667 9.5 23 9.5c10.667 0 19.834 -4.66699 27.501 -14s11.5 -22.333 11.5 -39zM601.999 0.000976562h-32l-450 615v-615h-32v667h32l450 -609v609h32v-667z" />
    <glyph glyph-name="ncommaaccent" unicode="&#x146;" 
d="M309 -137c0 -24 -6.00098 -47.166 -18.001 -69.499s-26.667 -39.5 -44 -51.5l-22 18c16 12 28.833 26.5 38.5 43.5s14.5 33.167 14.5 48.5c-4 -0.666992 -6.66699 -1 -8 -1c-9.33301 0 -17 3.16699 -23 9.5s-9 14.166 -9 23.499c0 8.66699 3 16.167 9 22.5
s13.667 9.5 23 9.5c10.667 0 19.834 -4.66699 27.501 -14s11.5 -22.333 11.5 -39zM441.999 0.000976562h-30v337c0 48 -10.667 81.833 -32 101.5s-52.333 29.5 -93 29.5c-32 0 -64 -8.83301 -96 -26.5s-57 -39.167 -75 -64.5v-377h-30v483h30v-76
c19.333 23.333 45.333 43.833 78 61.5s65 26.5 97 26.5c50 0 87.667 -12.5 113 -37.5s38 -65.167 38 -120.5v-337z" />
    <glyph glyph-name="Ncaron" unicode="&#x147;" horiz-adv-x="690" 
d="M364 723h-36l-101 144h28l91 -120l88 120h28zM602 0h-32l-450 615v-615h-32v667h32l450 -609v609h32v-667z" />
    <glyph glyph-name="ncaron" unicode="&#x148;" 
d="M283 556h-36l-101 144h28l91 -120l88 120h28zM442 0h-30v337c0 48 -10.667 81.833 -32 101.5s-52.333 29.5 -93 29.5c-32 0 -64 -8.83301 -96 -26.5s-57 -39.167 -75 -64.5v-377h-30v483h30v-76c19.333 23.333 45.333 43.833 78 61.5s65 26.5 97 26.5
c50 0 87.667 -12.5 113 -37.5s38 -65.167 38 -120.5v-337z" />
    <glyph glyph-name="napostrophe" unicode="&#x149;" 
d="M149 672c0 -24 -6.00098 -47.166 -18.001 -69.499s-26.667 -39.5 -44 -51.5l-22 18c16 12 28.833 26.5 38.5 43.5s14.5 33.167 14.5 48.5c-4 -0.666992 -6.66699 -1 -8 -1c-9.33301 0 -17 3.16699 -23 9.5s-9 14.166 -9 23.499c0 8.66699 3 16.167 9 22.5
s13.667 9.5 23 9.5c10.667 0 19.834 -4.66699 27.501 -14s11.5 -22.333 11.5 -39zM441.999 0.000976562h-30v337c0 48 -10.667 81.833 -32 101.5s-52.333 29.5 -93 29.5c-32 0 -64 -8.83301 -96 -26.5s-57 -39.167 -75 -64.5v-377h-30v483h30v-76
c19.333 23.333 45.333 43.833 78 61.5s65 26.5 97 26.5c50 0 87.667 -12.5 113 -37.5s38 -65.167 38 -120.5v-337z" />
    <glyph glyph-name="Eng" unicode="&#x14a;" horiz-adv-x="690" 
d="M410 -196c-71.333 0 -127.668 29 -169.001 87l27 24c38 -54 85.333 -81 142 -81c49.333 0 88.333 15 117 45s43 69.667 43 119v2l-450 615v-615h-32v667h32l450 -609v609h32v-669c0 -63.333 -18.167 -111.5 -54.5 -144.5s-82.166 -49.5 -137.499 -49.5z" />
    <glyph glyph-name="eng" unicode="&#x14b;" 
d="M442 337l0.000976562 -412.999c0 -80 -39.667 -120 -119 -120c-34 0 -64.667 12.667 -92 38l19 25c21.333 -24 45.666 -36 72.999 -36c26.667 0 48.167 7.66699 64.5 23s24.5 38.666 24.5 69.999v413c0 48 -10.667 81.833 -32 101.5s-52.333 29.5 -93 29.5
c-32 0 -64 -8.83301 -96 -26.5s-57 -39.167 -75 -64.5v-377h-30v483h30v-76c19.333 23.333 45.333 43.833 78 61.5s65 26.5 97 26.5c50 0 87.667 -12.5 113 -37.5s38 -65.167 38 -120.5z" />
    <glyph glyph-name="Omacron" unicode="&#x14c;" horiz-adv-x="764" 
d="M563 748h-363v27h363v-27zM382 -12c-95.333 0 -172 32.833 -230 98.5s-87 147.834 -87 246.501s29 180.834 87 246.501s134.667 98.5 230 98.5c94.667 0 171.167 -32.833 229.5 -98.5s87.5 -147.834 87.5 -246.501s-29.167 -180.834 -87.5 -246.501
s-134.833 -98.5 -229.5 -98.5zM382 18c84.667 0 152.834 29.5 204.501 88.5s77.5 134.5 77.5 226.5c0 92.667 -25.833 168.334 -77.5 227.001s-119.834 88 -204.501 88c-85.333 0 -153.666 -29.333 -204.999 -88s-77 -134.334 -77 -227.001c0 -92 25.667 -167.5 77 -226.5
s119.666 -88.5 204.999 -88.5z" />
    <glyph glyph-name="omacron" unicode="&#x14d;" horiz-adv-x="570" 
d="M466 581h-363v27h363v-27zM285 -12c-66.667 0 -120.834 24.167 -162.501 72.5s-62.5 108.833 -62.5 181.5c0 72 20.833 132.167 62.5 180.5s95.834 72.5 162.501 72.5c67.333 0 121.666 -24 162.999 -72s62 -108.333 62 -181s-20.667 -133.167 -62 -181.5
s-95.666 -72.5 -162.999 -72.5zM285 15c59.333 0 106.166 22.167 140.499 66.5s51.5 97.833 51.5 160.5c0 62 -17.167 115.167 -51.5 159.5s-81.166 66.5 -140.499 66.5c-58.667 0 -105.334 -22.167 -140.001 -66.5s-52 -97.5 -52 -159.5
c0 -62.667 17.333 -116.167 52 -160.5s81.334 -66.5 140.001 -66.5z" />
    <glyph glyph-name="Obreve" unicode="&#x14e;" horiz-adv-x="764" 
d="M382 -12c-95.333 0 -172 32.833 -230 98.5s-87 147.834 -87 246.501s29 180.834 87 246.501s134.667 98.5 230 98.5c94.667 0 171.167 -32.833 229.5 -98.5s87.5 -147.834 87.5 -246.501s-29.167 -180.834 -87.5 -246.501s-134.833 -98.5 -229.5 -98.5zM382 18
c84.667 0 152.834 29.5 204.501 88.5s77.5 134.5 77.5 226.5c0 92.667 -25.833 168.334 -77.5 227.001s-119.834 88 -204.501 88c-85.333 0 -153.666 -29.333 -204.999 -88s-77 -134.334 -77 -227.001c0 -92 25.667 -167.5 77 -226.5s119.666 -88.5 204.999 -88.5zM556 799
c-43.333 -58.667 -101.666 -88 -174.999 -88c-72.667 0 -131.334 29.333 -176.001 88l21 19c38 -53.333 89.667 -80 155 -80s117 26.667 155 80z" />
    <glyph glyph-name="obreve" unicode="&#x14f;" horiz-adv-x="570" 
d="M285 -12c-66.667 0 -120.834 24.167 -162.501 72.5s-62.5 108.833 -62.5 181.5c0 72 20.833 132.167 62.5 180.5s95.834 72.5 162.501 72.5c67.333 0 121.666 -24 162.999 -72s62 -108.333 62 -181s-20.667 -133.167 -62 -181.5s-95.666 -72.5 -162.999 -72.5zM285 15
c59.333 0 106.166 22.167 140.499 66.5s51.5 97.833 51.5 160.5c0 62 -17.167 115.167 -51.5 159.5s-81.166 66.5 -140.499 66.5c-58.667 0 -105.334 -22.167 -140.001 -66.5s-52 -97.5 -52 -159.5c0 -62.667 17.333 -116.167 52 -160.5s81.334 -66.5 140.001 -66.5z
M462 632c-43.333 -58.667 -101.666 -88 -174.999 -88c-72.667 0 -131.334 29.333 -176.001 88l21 19c38 -53.333 89.667 -80 155 -80s117 26.667 155 80z" />
    <glyph glyph-name="Ohungarumlaut" unicode="&#x150;" horiz-adv-x="764" 
d="M424 867l-115 -144h-26l100 144h41zM560 867l-115 -144h-26l100 144h41zM382 -12c-95.333 0 -172 32.833 -230 98.5s-87 147.834 -87 246.501s29 180.834 87 246.501s134.667 98.5 230 98.5c94.667 0 171.167 -32.833 229.5 -98.5s87.5 -147.834 87.5 -246.501
s-29.167 -180.834 -87.5 -246.501s-134.833 -98.5 -229.5 -98.5zM382 18c84.667 0 152.834 29.5 204.501 88.5s77.5 134.5 77.5 226.5c0 92.667 -25.833 168.334 -77.5 227.001s-119.834 88 -204.501 88c-85.333 0 -153.666 -29.333 -204.999 -88s-77 -134.334 -77 -227.001
c0 -92 25.667 -167.5 77 -226.5s119.666 -88.5 204.999 -88.5z" />
    <glyph glyph-name="ohungarumlaut" unicode="&#x151;" horiz-adv-x="570" 
d="M327 700l-115 -144h-26l100 144h41zM463 700l-115 -144h-26l100 144h41zM285 -12c-66.667 0 -120.834 24.167 -162.501 72.5s-62.5 108.833 -62.5 181.5c0 72 20.833 132.167 62.5 180.5s95.834 72.5 162.501 72.5c67.333 0 121.666 -24 162.999 -72s62 -108.333 62 -181
s-20.667 -133.167 -62 -181.5s-95.666 -72.5 -162.999 -72.5zM285 15c59.333 0 106.166 22.167 140.499 66.5s51.5 97.833 51.5 160.5c0 62 -17.167 115.167 -51.5 159.5s-81.166 66.5 -140.499 66.5c-58.667 0 -105.334 -22.167 -140.001 -66.5s-52 -97.5 -52 -159.5
c0 -62.667 17.333 -116.167 52 -160.5s81.334 -66.5 140.001 -66.5z" />
    <glyph glyph-name="OE" unicode="&#x152;" horiz-adv-x="1124" 
d="M1059 0l-408 -0.000976562v157c-26 -54 -63 -95.667 -111 -125s-100.667 -44 -158 -44c-95.333 0 -172 32.833 -230 98.5s-87 147.834 -87 246.501s29 180.667 87 246s134.667 98 230 98c57.333 0 110 -14.5 158 -43.5s85 -70.167 111 -123.5v157h408v-30h-376v-279h369
v-30h-369v-298h376v-30zM651 217.999v231.002c-22.667 65.333 -57.5 114.666 -104.5 147.999s-101.833 50 -164.5 50c-85.333 0 -153.666 -29.167 -204.999 -87.5s-77 -133.833 -77 -226.5s25.667 -168.334 77 -227.001s119.666 -88 204.999 -88c62 0 116.667 17 164 51
s82.333 83.667 105 149z" />
    <glyph glyph-name="oe" unicode="&#x153;" horiz-adv-x="988" 
d="M928 232l-417 -0.000976562c1.33301 -61.333 20.5 -112.833 57.5 -154.5s85.5 -62.5 145.5 -62.5c66.667 0 122.667 24.333 168 73l18 -19c-52 -54 -114 -81 -186 -81c-33.333 0 -63.5 5.5 -90.5 16.5s-49 25.167 -66 42.5s-30.667 34.833 -41 52.5
s-17.833 35.167 -22.5 52.5c-5.33301 -17.333 -12.5 -34.333 -21.5 -51s-21.5 -34 -37.5 -52s-37 -32.667 -63 -44s-55 -17 -87 -17c-66.667 0 -120.834 24.167 -162.501 72.5s-62.5 108.833 -62.5 181.5c0 72 20.833 132.167 62.5 180.5s95.834 72.5 162.501 72.5
c32 0 61.333 -5.66699 88 -17s48 -26.166 64 -44.499s28.5 -36 37.5 -53s15.5 -33.5 19.5 -49.5c4.66699 16.667 12 33.667 22 51s23.167 34.833 39.5 52.5s37.5 32.167 63.5 43.5s54.333 17 85 17c70.667 0 125.667 -24.333 165 -73s59 -108.667 59 -180v-10zM511 258.999
h384.998c0 32.667 -6.66699 64.5 -20 95.5s-35.166 57.667 -65.499 80s-66.166 33.5 -107.499 33.5c-58 0 -104 -21.5 -138 -64.5s-52 -91.167 -54 -144.5zM476.998 241.999c0 62 -17.167 115.167 -51.5 159.5s-81.166 66.5 -140.499 66.5
c-58.667 0 -105.334 -22.167 -140.001 -66.5s-52 -97.5 -52 -159.5c0 -62.667 17.333 -116.334 52 -161.001s81.334 -67 140.001 -67c59.333 0 106.166 22.333 140.499 67s51.5 98.334 51.5 161.001z" />
    <glyph glyph-name="Racute" unicode="&#x154;" horiz-adv-x="579" 
d="M450 867l-175 -144h-30l160 144h45zM524 0l-41 0.000976562l-203 288h-160v-288h-32v667h230c56.667 0 103.667 -16.833 141 -50.5s56 -79.834 56 -138.501s-18.833 -105 -56.5 -139s-84.5 -51 -140.5 -51zM318 318.001c48.667 0 87.834 14.999 117.501 44.999
s44.5 68.333 44.5 115s-14.833 84.834 -44.5 114.501s-68.834 44.5 -117.501 44.5h-198v-319h198z" />
    <glyph glyph-name="racute" unicode="&#x155;" horiz-adv-x="304" 
d="M338 700l-175 -144h-30l160 144h45zM116 0h-30.001v483h30v-88c48.667 64.667 104 97 166 97v-36c-6 0.666992 -14 1 -24 1c-24.667 0 -51.667 -10 -81 -30s-49.666 -41.667 -60.999 -65v-362z" />
    <glyph glyph-name="Rcommaaccent" unicode="&#x156;" horiz-adv-x="579" 
d="M334 -137c0 -24 -6.00098 -47.166 -18.001 -69.499s-26.667 -39.5 -44 -51.5l-22 18c16 12 28.833 26.5 38.5 43.5s14.5 33.167 14.5 48.5c-4 -0.666992 -6.66699 -1 -8 -1c-9.33301 0 -17 3.16699 -23 9.5s-9 14.166 -9 23.499c0 8.66699 3 16.167 9 22.5
s13.667 9.5 23 9.5c10.667 0 19.834 -4.66699 27.501 -14s11.5 -22.333 11.5 -39zM523.999 0.000976562l-41 0.000976562l-203 288h-160v-288h-32v667h230c56.667 0 103.667 -16.833 141 -50.5s56 -79.834 56 -138.501s-18.833 -105 -56.5 -139s-84.5 -51 -140.5 -51z
M317.999 318.002c48.667 0 87.834 14.999 117.501 44.999s44.5 68.333 44.5 115s-14.833 84.834 -44.5 114.501s-68.834 44.5 -117.501 44.5h-198v-319h198z" />
    <glyph glyph-name="rcommaaccent" unicode="&#x157;" horiz-adv-x="304" 
d="M197 -137c0 -24 -6.00098 -47.166 -18.001 -69.499s-26.667 -39.5 -44 -51.5l-22 18c16 12 28.833 26.5 38.5 43.5s14.5 33.167 14.5 48.5c-4 -0.666992 -6.66699 -1 -8 -1c-9.33301 0 -17 3.16699 -23 9.5s-9 14.166 -9 23.499c0 8.66699 3 16.167 9 22.5
s13.667 9.5 23 9.5c10.667 0 19.834 -4.66699 27.501 -14s11.5 -22.333 11.5 -39zM115.999 0.000976562h-30.001v483h30v-88c48.667 64.667 104 97 166 97v-36c-6 0.666992 -14 1 -24 1c-24.667 0 -51.667 -10 -81 -30s-49.666 -41.667 -60.999 -65v-362z" />
    <glyph glyph-name="Rcaron" unicode="&#x158;" horiz-adv-x="579" 
d="M309 723h-36l-101 144h28l91 -120l88 120h28zM524 0l-41 0.000976562l-203 288h-160v-288h-32v667h230c56.667 0 103.667 -16.833 141 -50.5s56 -79.834 56 -138.501s-18.833 -105 -56.5 -139s-84.5 -51 -140.5 -51zM318 318.001c48.667 0 87.834 14.999 117.501 44.999
s44.5 68.333 44.5 115s-14.833 84.834 -44.5 114.501s-68.834 44.5 -117.501 44.5h-198v-319h198z" />
    <glyph glyph-name="rcaron" unicode="&#x159;" horiz-adv-x="304" 
d="M201 556h-36l-101 144h28l91 -120l88 120h28zM116 0h-30.001v483h30v-88c48.667 64.667 104 97 166 97v-36c-6 0.666992 -14 1 -24 1c-24.667 0 -51.667 -10 -81 -30s-49.666 -41.667 -60.999 -65v-362z" />
    <glyph glyph-name="Sacute" unicode="&#x15a;" horiz-adv-x="575" 
d="M438 867l-175 -144h-30l160 144h45zM286 -12c-50 0 -95.002 9.66602 -135.002 28.999s-72.667 45 -98 77l26 23c54 -66 123 -99 207 -99c36.667 0 68.334 4.83301 95.001 14.5s46.667 22.334 60 38.001s23 31.667 29 48s9 33.166 9 50.499c0 34 -10 62.5 -30 85.5
s-45 39.5 -75 49.5l-97.5 31.5l-97.5 32c-30 10.333 -55 27.5 -75 51.5s-30 53.667 -30 89c0 52 20.333 93.333 61 124s90 46 148 46c93.333 0 165.333 -31.333 216 -94l-25 -23c-44.667 58 -108.334 87 -191.001 87c-49.333 0 -90.666 -13.167 -123.999 -39.5
s-50 -59.833 -50 -100.5c0 -25.333 7.5 -47 22.5 -65s34.333 -32 58 -42s50 -19.167 79 -27.5s57.833 -17.333 86.5 -27s54.834 -21.167 78.501 -34.5s43 -32.166 58 -56.499s22.5 -53.166 22.5 -86.499c0 -20.667 -3.66699 -40.834 -11 -60.501s-19 -39 -35 -58
s-39.667 -34.167 -71 -45.5s-68.333 -17 -111 -17z" />
    <glyph glyph-name="sacute" unicode="&#x15b;" horiz-adv-x="454" 
d="M373 700l-175 -144h-30l160 144h45zM221 -12c-73.333 0 -132.332 25.666 -176.999 76.999l24 22c36 -48 87 -72 153 -72c43.333 0 78 10.5 104 31.5s39 47.833 39 80.5c0 27.333 -10.667 49 -32 65s-47.166 27.833 -77.499 35.5l-91 24
c-30.333 8.33301 -56.166 21.833 -77.499 40.5s-32 43.667 -32 75c0 36.667 14.667 67.167 44 91.5s69.333 36.5 120 36.5c72.667 0 128 -24.333 166 -73l-22 -20c-30.667 44 -78.667 66 -144 66c-41.333 0 -74 -9.5 -98 -28.5s-36 -43.167 -36 -72.5
c0 -24.667 10.667 -44.167 32 -58.5s47.166 -25.166 77.499 -32.499s60.666 -15.333 90.999 -24s56.166 -23.167 77.499 -43.5s32 -47.5 32 -81.5c0 -40 -14.833 -73.167 -44.5 -99.5s-72.5 -39.5 -128.5 -39.5z" />
    <glyph glyph-name="Scircumflex" unicode="&#x15c;" horiz-adv-x="575" 
d="M397 723h-28l-91 120l-88 -120h-28l98 144h36zM286 -12c-50 0 -95.002 9.66602 -135.002 28.999s-72.667 45 -98 77l26 23c54 -66 123 -99 207 -99c36.667 0 68.334 4.83301 95.001 14.5s46.667 22.334 60 38.001s23 31.667 29 48s9 33.166 9 50.499
c0 34 -10 62.5 -30 85.5s-45 39.5 -75 49.5l-97.5 31.5l-97.5 32c-30 10.333 -55 27.5 -75 51.5s-30 53.667 -30 89c0 52 20.333 93.333 61 124s90 46 148 46c93.333 0 165.333 -31.333 216 -94l-25 -23c-44.667 58 -108.334 87 -191.001 87
c-49.333 0 -90.666 -13.167 -123.999 -39.5s-50 -59.833 -50 -100.5c0 -25.333 7.5 -47 22.5 -65s34.333 -32 58 -42s50 -19.167 79 -27.5s57.833 -17.333 86.5 -27s54.834 -21.167 78.501 -34.5s43 -32.166 58 -56.499s22.5 -53.166 22.5 -86.499
c0 -20.667 -3.66699 -40.834 -11 -60.501s-19 -39 -35 -58s-39.667 -34.167 -71 -45.5s-68.333 -17 -111 -17z" />
    <glyph glyph-name="scircumflex" unicode="&#x15d;" horiz-adv-x="454" 
d="M339 556h-28l-91 120l-88 -120h-28l98 144h36zM221 -12c-73.333 0 -132.332 25.666 -176.999 76.999l24 22c36 -48 87 -72 153 -72c43.333 0 78 10.5 104 31.5s39 47.833 39 80.5c0 27.333 -10.667 49 -32 65s-47.166 27.833 -77.499 35.5l-91 24
c-30.333 8.33301 -56.166 21.833 -77.499 40.5s-32 43.667 -32 75c0 36.667 14.667 67.167 44 91.5s69.333 36.5 120 36.5c72.667 0 128 -24.333 166 -73l-22 -20c-30.667 44 -78.667 66 -144 66c-41.333 0 -74 -9.5 -98 -28.5s-36 -43.167 -36 -72.5
c0 -24.667 10.667 -44.167 32 -58.5s47.166 -25.166 77.499 -32.499s60.666 -15.333 90.999 -24s56.166 -23.167 77.499 -43.5s32 -47.5 32 -81.5c0 -40 -14.833 -73.167 -44.5 -99.5s-72.5 -39.5 -128.5 -39.5z" />
    <glyph glyph-name="Scedilla" unicode="&#x15e;" horiz-adv-x="575" 
d="M284 -187c-38.667 0 -69.667 9.33105 -93 27.998l14 27c21.333 -18.667 47.666 -28 78.999 -28c19.333 0 35.666 4.5 48.999 13.5s20 20.833 20 35.5c0 28.667 -14.667 43 -44 43c-18 0 -32.333 -6.33301 -43 -19l-22 13l22 63c-90.667 4.66699 -161.667 39.667 -213 105
l26 23c54 -66 123 -99 207 -99c36.667 0 68.334 4.83301 95.001 14.5s46.667 22.334 60 38.001s23 31.667 29 48s9 33.166 9 50.499c0 34 -10 62.5 -30 85.5s-45 39.5 -75 49.5l-97.5 31.5l-97.5 32c-30 10.333 -55 27.5 -75 51.5s-30 53.667 -30 89
c0 52 20.333 93.333 61 124s90 46 148 46c93.333 0 165.333 -31.333 216 -94l-25 -23c-44.667 58 -108.334 87 -191.001 87c-49.333 0 -90.666 -13.167 -123.999 -39.5s-50 -59.833 -50 -100.5c0 -25.333 7.5 -47 22.5 -65s34.333 -32 58 -42s50 -19.167 79 -27.5
s57.833 -17.333 86.5 -27s54.834 -21.167 78.501 -34.5s43 -32.166 58 -56.499s22.5 -53.166 22.5 -86.499c0 -46 -17 -87.167 -51 -123.5s-89.667 -55.5 -167 -57.5l-17 -46c10 8 22.667 12 38 12c19.333 0 35 -5.83301 47 -17.5s18 -27.5 18 -47.5
c0 -22 -9.33301 -40.167 -28 -54.5s-42 -21.5 -70 -21.5z" />
    <glyph glyph-name="scedilla" unicode="&#x15f;" horiz-adv-x="454" 
d="M220 -187c-38.667 0 -69.6641 9.33203 -92.9971 27.999l14 27c21.333 -18.667 47.666 -28 78.999 -28c19.333 0 35.666 4.5 48.999 13.5s20 20.833 20 35.5c0 28.667 -14.667 43 -44 43c-18 0 -32.333 -6.33301 -43 -19l-22 13l22 63c-64 2.66699 -116.667 28 -158 76
l24 22c36 -48 87 -72 153 -72c43.333 0 78 10.5 104 31.5s39 47.833 39 80.5c0 27.333 -10.667 49 -32 65s-47.166 27.833 -77.499 35.5l-91 24c-30.333 8.33301 -56.166 21.833 -77.499 40.5s-32 43.667 -32 75c0 36.667 14.667 67.167 44 91.5s69.333 36.5 120 36.5
c72.667 0 128 -24.333 166 -73l-22 -20c-30.667 44 -78.667 66 -144 66c-41.333 0 -74 -9.5 -98 -28.5s-36 -43.167 -36 -72.5c0 -24.667 10.667 -44.167 32 -58.5s47.166 -25.166 77.499 -32.499s60.666 -15.333 90.999 -24s56.166 -23.167 77.499 -43.5s32 -47.5 32 -81.5
c0 -38.667 -14 -71 -42 -97s-68 -40 -120 -42l-17 -46c10 8 22.667 12 38 12c19.333 0 35 -5.83301 47 -17.5s18 -27.5 18 -47.5c0 -22 -9.33301 -40.167 -28 -54.5s-42 -21.5 -70 -21.5z" />
    <glyph glyph-name="Scaron" unicode="&#x160;" horiz-adv-x="575" 
d="M299 723h-36l-101 144h28l91 -120l88 120h28zM286 -12c-50 0 -95.002 9.66602 -135.002 28.999s-72.667 45 -98 77l26 23c54 -66 123 -99 207 -99c36.667 0 68.334 4.83301 95.001 14.5s46.667 22.334 60 38.001s23 31.667 29 48s9 33.166 9 50.499
c0 34 -10 62.5 -30 85.5s-45 39.5 -75 49.5l-97.5 31.5l-97.5 32c-30 10.333 -55 27.5 -75 51.5s-30 53.667 -30 89c0 52 20.333 93.333 61 124s90 46 148 46c93.333 0 165.333 -31.333 216 -94l-25 -23c-44.667 58 -108.334 87 -191.001 87
c-49.333 0 -90.666 -13.167 -123.999 -39.5s-50 -59.833 -50 -100.5c0 -25.333 7.5 -47 22.5 -65s34.333 -32 58 -42s50 -19.167 79 -27.5s57.833 -17.333 86.5 -27s54.834 -21.167 78.501 -34.5s43 -32.166 58 -56.499s22.5 -53.166 22.5 -86.499
c0 -20.667 -3.66699 -40.834 -11 -60.501s-19 -39 -35 -58s-39.667 -34.167 -71 -45.5s-68.333 -17 -111 -17z" />
    <glyph glyph-name="scaron" unicode="&#x161;" horiz-adv-x="454" 
d="M241 556h-36l-101 144h28l91 -120l88 120h28zM221 -12c-73.333 0 -132.332 25.666 -176.999 76.999l24 22c36 -48 87 -72 153 -72c43.333 0 78 10.5 104 31.5s39 47.833 39 80.5c0 27.333 -10.667 49 -32 65s-47.166 27.833 -77.499 35.5l-91 24
c-30.333 8.33301 -56.166 21.833 -77.499 40.5s-32 43.667 -32 75c0 36.667 14.667 67.167 44 91.5s69.333 36.5 120 36.5c72.667 0 128 -24.333 166 -73l-22 -20c-30.667 44 -78.667 66 -144 66c-41.333 0 -74 -9.5 -98 -28.5s-36 -43.167 -36 -72.5
c0 -24.667 10.667 -44.167 32 -58.5s47.166 -25.166 77.499 -32.499s60.666 -15.333 90.999 -24s56.166 -23.167 77.499 -43.5s32 -47.5 32 -81.5c0 -40 -14.833 -73.167 -44.5 -99.5s-72.5 -39.5 -128.5 -39.5z" />
    <glyph glyph-name="Tcommaaccent" unicode="&#x162;" horiz-adv-x="559" 
d="M324 -137c0 -24 -6.00098 -47.166 -18.001 -69.499s-26.667 -39.5 -44 -51.5l-22 18c16 12 28.833 26.5 38.5 43.5s14.5 33.167 14.5 48.5c-4 -0.666992 -6.66699 -1 -8 -1c-9.33301 0 -17 3.16699 -23 9.5s-9 14.166 -9 23.499c0 8.66699 3 16.167 9 22.5
s13.667 9.5 23 9.5c10.667 0 19.834 -4.66699 27.501 -14s11.5 -22.333 11.5 -39zM294.999 0.000976562h-32v637h-225v30h483v-30h-226v-637z" />
    <glyph glyph-name="tcommaaccent" unicode="&#x163;" horiz-adv-x="256" 
d="M173 -137c0 -24 -6.00098 -47.166 -18.001 -69.499s-26.667 -39.5 -44 -51.5l-22 18c16 12 28.833 26.5 38.5 43.5s14.5 33.167 14.5 48.5c-4 -0.666992 -6.66699 -1 -8 -1c-9.33301 0 -17 3.16699 -23 9.5s-9 14.166 -9 23.499c0 8.66699 3 16.167 9 22.5
s13.667 9.5 23 9.5c10.667 0 19.834 -4.66699 27.501 -14s11.5 -22.333 11.5 -39zM173.999 -11.999c-54.667 0 -82 32.333 -82 97v371h-80v27h80v132h30v-132h98v-27h-98v-371c0 -46.667 17.333 -70 52 -70c23.333 0 42.333 8.66699 57 26l18 -23
c-21.333 -20 -46.333 -30 -75 -30z" />
    <glyph glyph-name="Tcaron" unicode="&#x164;" horiz-adv-x="559" 
d="M299 723h-36l-101 144h28l91 -120l88 120h28zM295 0h-32v637h-225v30h483v-30h-226v-637z" />
    <glyph glyph-name="tcaron" unicode="&#x165;" horiz-adv-x="256" 
d="M260 672c0 -24 -6.00098 -47.166 -18.001 -69.499s-26.667 -39.5 -44 -51.5l-22 18c16 12 28.833 26.5 38.5 43.5s14.5 33.167 14.5 48.5c-4 -0.666992 -6.66699 -1 -8 -1c-9.33301 0 -17 3.16699 -23 9.5s-9 14.166 -9 23.499c0 8.66699 3 16.167 9 22.5
s13.667 9.5 23 9.5c10.667 0 19.834 -4.66699 27.501 -14s11.5 -22.333 11.5 -39zM173.999 -11.999c-54.667 0 -82 32.333 -82 97v371h-80v27h80v132h30v-132h98v-27h-98v-371c0 -46.667 17.333 -70 52 -70c23.333 0 42.333 8.66699 57 26l18 -23
c-21.333 -20 -46.333 -30 -75 -30z" />
    <glyph glyph-name="Tbar" unicode="&#x166;" horiz-adv-x="559" 
d="M295 0h-32v321h-165v27h165v289h-225v30h483v-30h-226v-289h166v-27h-166v-321z" />
    <glyph glyph-name="tbar" unicode="&#x167;" horiz-adv-x="256" 
d="M174 -12c-54.667 0 -82 32.333 -82 97v157h-80v27h80v187h-80v27h80v132h30v-132h98v-27h-98v-187h71v-27h-71v-157c0 -46.667 17.333 -70 52 -70c23.333 0 42.333 8.66699 57 26l18 -23c-21.333 -20 -46.333 -30 -75 -30z" />
    <glyph glyph-name="Utilde" unicode="&#x168;" horiz-adv-x="672" 
d="M336 -12c-80 0 -141.331 23.333 -183.998 70s-64 111.667 -64 195v414h32v-414c0 -74.667 18.667 -132.5 56 -173.5s90.666 -61.5 159.999 -61.5s122.666 20.5 159.999 61.5s56 98.833 56 173.5v414h32v-414c0 -83.333 -21.333 -148.333 -64 -195s-104 -70 -184 -70z
M401.002 721c-17.333 0 -32.166 5.83301 -44.499 17.5s-21.333 24.667 -27 39s-13.334 27.333 -23.001 39s-20.834 17.5 -33.501 17.5c-17.333 0 -31.5 -8.83301 -42.5 -26.5s-16.5 -44.5 -16.5 -80.5h-26c0 38 7.83301 69.833 23.5 95.5s37.167 38.5 64.5 38.5
c17.333 0 32.166 -5.83301 44.499 -17.5s21.333 -24.667 27 -39s13.334 -27.333 23.001 -39s20.834 -17.5 33.501 -17.5c17.333 0 31.5 8.83301 42.5 26.5s16.5 44.5 16.5 80.5h26c0 -38 -7.83301 -69.833 -23.5 -95.5s-37.167 -38.5 -64.5 -38.5z" />
    <glyph glyph-name="utilde" unicode="&#x169;" 
d="M442 0l-29.999 0.000976562v74c-22 -24.667 -48.667 -45.167 -80 -61.5s-63 -24.5 -95 -24.5c-50 0 -87.667 12.167 -113 36.5s-38 64.166 -38 119.499v339h30v-339c0 -48 10.667 -81.5 32 -100.5s52.333 -28.5 93 -28.5c32 0 64.167 8.5 96.5 25.5
s57.166 37.833 74.499 62.5v380h30v-483zM326.001 554.001c-17.333 0 -32.166 5.83301 -44.499 17.5s-21.333 24.667 -27 39s-13.334 27.333 -23.001 39s-20.834 17.5 -33.501 17.5c-17.333 0 -31.5 -8.83301 -42.5 -26.5s-16.5 -44.5 -16.5 -80.5h-26
c0 38 7.83301 69.833 23.5 95.5s37.167 38.5 64.5 38.5c17.333 0 32.166 -5.83301 44.499 -17.5s21.333 -24.667 27 -39s13.334 -27.333 23.001 -39s20.834 -17.5 33.501 -17.5c17.333 0 31.5 8.83301 42.5 26.5s16.5 44.5 16.5 80.5h26c0 -38 -7.83301 -69.833 -23.5 -95.5
s-37.167 -38.5 -64.5 -38.5z" />
    <glyph glyph-name="Umacron" unicode="&#x16a;" horiz-adv-x="672" 
d="M336 -12c-80 0 -141.331 23.333 -183.998 70s-64 111.667 -64 195v414h32v-414c0 -74.667 18.667 -132.5 56 -173.5s90.666 -61.5 159.999 -61.5s122.666 20.5 159.999 61.5s56 98.833 56 173.5v414h32v-414c0 -83.333 -21.333 -148.333 -64 -195s-104 -70 -184 -70z
M517.002 748h-363v27h363v-27z" />
    <glyph glyph-name="umacron" unicode="&#x16b;" 
d="M442 0l-29.999 0.000976562v74c-22 -24.667 -48.667 -45.167 -80 -61.5s-63 -24.5 -95 -24.5c-50 0 -87.667 12.167 -113 36.5s-38 64.166 -38 119.499v339h30v-339c0 -48 10.667 -81.5 32 -100.5s52.333 -28.5 93 -28.5c32 0 64.167 8.5 96.5 25.5
s57.166 37.833 74.499 62.5v380h30v-483zM445.001 581.001h-363v27h363v-27z" />
    <glyph glyph-name="Ubreve" unicode="&#x16c;" horiz-adv-x="672" 
d="M336 -12c-80 0 -141.331 23.333 -183.998 70s-64 111.667 -64 195v414h32v-414c0 -74.667 18.667 -132.5 56 -173.5s90.666 -61.5 159.999 -61.5s122.666 20.5 159.999 61.5s56 98.833 56 173.5v414h32v-414c0 -83.333 -21.333 -148.333 -64 -195s-104 -70 -184 -70z
M515.002 799c-43.333 -58.667 -101.666 -88 -174.999 -88c-72.667 0 -131.334 29.333 -176.001 88l21 19c38 -53.333 89.667 -80 155 -80s117 26.667 155 80z" />
    <glyph glyph-name="ubreve" unicode="&#x16d;" 
d="M442 0l-29.999 0.000976562v74c-22 -24.667 -48.667 -45.167 -80 -61.5s-63 -24.5 -95 -24.5c-50 0 -87.667 12.167 -113 36.5s-38 64.166 -38 119.499v339h30v-339c0 -48 10.667 -81.5 32 -100.5s52.333 -28.5 93 -28.5c32 0 64.167 8.5 96.5 25.5
s57.166 37.833 74.499 62.5v380h30v-483zM441.001 632.001c-43.333 -58.667 -101.666 -88 -174.999 -88c-72.667 0 -131.334 29.333 -176.001 88l21 19c38 -53.333 89.667 -80 155 -80s117 26.667 155 80z" />
    <glyph glyph-name="Uring" unicode="&#x16e;" horiz-adv-x="672" 
d="M336 720c-25.333 0 -47.166 9.16699 -65.499 27.5s-27.5 40.166 -27.5 65.499s9.16699 47.166 27.5 65.499s40.166 27.5 65.499 27.5s47 -9.16699 65 -27.5s27 -40.166 27 -65.499s-9 -47.166 -27 -65.499s-39.667 -27.5 -65 -27.5zM336 744
c18.667 0 34.667 6.66699 48 20s20 29.666 20 48.999s-6.66699 35.666 -20 48.999s-29.333 20 -48 20s-34.834 -6.66699 -48.501 -20s-20.5 -29.666 -20.5 -48.999s6.83301 -35.666 20.5 -48.999s29.834 -20 48.501 -20zM336 -12c-80 0 -141.331 23.333 -183.998 70
s-64 111.667 -64 195v414h32v-414c0 -74.667 18.667 -132.5 56 -173.5s90.666 -61.5 159.999 -61.5s122.666 20.5 159.999 61.5s56 98.833 56 173.5v414h32v-414c0 -83.333 -21.333 -148.333 -64 -195s-104 -70 -184 -70z" />
    <glyph glyph-name="uring" unicode="&#x16f;" 
d="M264 553c-25.333 0 -47.166 9.16699 -65.499 27.5s-27.5 40.166 -27.5 65.499s9.16699 47.166 27.5 65.499s40.166 27.5 65.499 27.5s47 -9.16699 65 -27.5s27 -40.166 27 -65.499s-9 -47.166 -27 -65.499s-39.667 -27.5 -65 -27.5zM264 577
c18.667 0 34.667 6.6709 48 20.0039s20 29.666 20 48.999s-6.66699 35.666 -20 48.999s-29.333 20 -48 20s-34.834 -6.83301 -48.501 -20.5s-20.5 -29.834 -20.5 -48.501s6.83301 -34.834 20.5 -48.501s29.834 -20.5 48.501 -20.5zM442 0.00390625l-29.999 0.000976562v74
c-22 -24.667 -48.667 -45.167 -80 -61.5s-63 -24.5 -95 -24.5c-50 0 -87.667 12.167 -113 36.5s-38 64.166 -38 119.499v339h30v-339c0 -48 10.667 -81.5 32 -100.5s52.333 -28.5 93 -28.5c32 0 64.167 8.5 96.5 25.5s57.166 37.833 74.499 62.5v380h30v-483z" />
    <glyph glyph-name="Uhungarumlaut" unicode="&#x170;" horiz-adv-x="672" 
d="M336 -12c-80 0 -141.331 23.333 -183.998 70s-64 111.667 -64 195v414h32v-414c0 -74.667 18.667 -132.5 56 -173.5s90.666 -61.5 159.999 -61.5s122.666 20.5 159.999 61.5s56 98.833 56 173.5v414h32v-414c0 -83.333 -21.333 -148.333 -64 -195s-104 -70 -184 -70z
M378.002 867l-115 -144h-26l100 144h41zM514.002 867l-115 -144h-26l100 144h41z" />
    <glyph glyph-name="uhungarumlaut" unicode="&#x171;" 
d="M442 0l-29.999 0.000976562v74c-22 -24.667 -48.667 -45.167 -80 -61.5s-63 -24.5 -95 -24.5c-50 0 -87.667 12.167 -113 36.5s-38 64.166 -38 119.499v339h30v-339c0 -48 10.667 -81.5 32 -100.5s52.333 -28.5 93 -28.5c32 0 64.167 8.5 96.5 25.5
s57.166 37.833 74.499 62.5v380h30v-483zM306.001 700.001l-115 -144h-26l100 144h41zM442.001 700.001l-115 -144h-26l100 144h41z" />
    <glyph glyph-name="Uogonek" unicode="&#x172;" horiz-adv-x="672" 
d="M336 -12c-80 0 -141.331 23.3359 -183.998 70.0029s-64 111.667 -64 195v414h32v-414c0 -74.667 18.667 -132.5 56 -173.5s90.666 -61.5 159.999 -61.5s122.666 20.5 159.999 61.5s56 98.833 56 173.5v414h32v-414c0 -66.667 -13.667 -121.834 -41 -165.501
s-67.333 -72.834 -120 -87.501c-53.333 -26 -80 -60 -80 -102c0 -38 17.333 -57 52 -57c28.667 0 48 15.667 58 47l25 -11c-14.667 -42 -42.334 -63 -83.001 -63c-23.333 0 -42.666 7 -57.999 21s-23 35 -23 63c0 33.333 15.333 63.666 46 90.999
c-5.33301 -0.666992 -13.333 -1 -24 -1z" />
    <glyph glyph-name="uogonek" unicode="&#x173;" 
d="M442 0c-54.667 -26 -81.999 -60.001 -81.999 -102.001c0 -38 17.333 -57 52 -57c28.667 0 48 15.667 58 47l25 -11c-14.667 -42 -42.334 -63 -83.001 -63c-23.333 0 -42.666 7 -57.999 21s-23 35 -23 63c0 22.667 7.5 44.334 22.5 65.001s34.5 37.334 58.5 50.001v61
c-22 -24.667 -48.667 -45.167 -80 -61.5s-63 -24.5 -95 -24.5c-50 0 -87.667 12.167 -113 36.5s-38 64.166 -38 119.499v339h30v-339c0 -48 10.667 -81.5 32 -100.5s52.333 -28.5 93 -28.5c32 0 64.167 8.5 96.5 25.5s57.166 37.833 74.499 62.5v380h30v-483z" />
    <glyph glyph-name="Wcircumflex" unicode="&#x174;" horiz-adv-x="852" 
d="M544 723h-28l-91 120l-88 -120h-28l98 144h36zM637 0h-38l-173 607l-173 -607h-38l-190 667h35l174 -619l175 619h34l175 -619l174 619h35z" />
    <glyph glyph-name="wcircumflex" unicode="&#x175;" horiz-adv-x="704" 
d="M470 556h-28l-91 120l-88 -120h-28l98 144h36zM522 0h-24l-146 438l-146 -438h-24l-160 483h33l140 -436l145 436h24l145 -436l140 436h33z" />
    <glyph glyph-name="Ycircumflex" unicode="&#x176;" horiz-adv-x="610" 
d="M424 723h-28l-91 120l-88 -120h-28l98 144h36zM321 0h-32v289l-268 378h41l243 -346l243 346h41l-268 -378v-289z" />
    <glyph glyph-name="ycircumflex" unicode="&#x177;" horiz-adv-x="471" 
d="M50 -189l5.99805 27.999c12 -5.33301 26 -8 42 -8c16.667 0 30.834 4.83301 42.501 14.5s22.834 26.834 33.501 51.501l44 100l-207 486h35l190 -448l189 448h35l-256 -597c-24 -54.667 -59.333 -82 -106 -82c-18 0 -34 2.33301 -48 7zM353.998 555.999h-28l-91 120
l-88 -120h-28l98 144h36z" />
    <glyph glyph-name="Ydieresis" unicode="&#x178;" horiz-adv-x="610" 
d="M438 765c0 -7.33301 -2.83301 -13.833 -8.5 -19.5s-12.167 -8.5 -19.5 -8.5s-13.833 2.83301 -19.5 8.5s-8.5 12.167 -8.5 19.5s2.83301 13.833 8.5 19.5s12.167 8.5 19.5 8.5s13.833 -2.83301 19.5 -8.5s8.5 -12.167 8.5 -19.5zM236 765
c0 -7.33301 -2.83301 -13.833 -8.5 -19.5s-12.167 -8.5 -19.5 -8.5s-13.833 2.83301 -19.5 8.5s-8.5 12.167 -8.5 19.5s2.83301 13.833 8.5 19.5s12.167 8.5 19.5 8.5s13.833 -2.83301 19.5 -8.5s8.5 -12.167 8.5 -19.5zM321 0h-32v289l-268 378h41l243 -346l243 346h41
l-268 -378v-289z" />
    <glyph glyph-name="Zacute" unicode="&#x179;" horiz-adv-x="578" 
d="M443 867l-175 -144h-30l160 144h45zM525 0h-472v30l427 607h-427v30h465v-30l-428 -607h435v-30z" />
    <glyph glyph-name="zacute" unicode="&#x17a;" horiz-adv-x="466" 
d="M387 700l-175 -144h-30l160 144h45zM406 0h-346v27l307 429h-307v27h342v-27l-309 -429h313v-27z" />
    <glyph glyph-name="Zdotaccent" unicode="&#x17b;" horiz-adv-x="578" 
d="M525 0h-472v30l427 607h-427v30h465v-30l-428 -607h435v-30zM289 733c-7.33301 0 -14 2.83301 -20 8.5s-9 12.5 -9 20.5s3 14.833 9 20.5s12.667 8.5 20 8.5c8 0 14.833 -2.83301 20.5 -8.5s8.5 -12.5 8.5 -20.5s-2.83301 -14.833 -8.5 -20.5s-12.5 -8.5 -20.5 -8.5z" />
    <glyph glyph-name="zdotaccent" unicode="&#x17c;" horiz-adv-x="466" 
d="M406 0h-346v27l307 429h-307v27h342v-27l-309 -429h313v-27zM233 566c-7.33301 0 -14 2.83301 -20 8.5s-9 12.5 -9 20.5s3 14.833 9 20.5s12.667 8.5 20 8.5c8 0 14.833 -2.83301 20.5 -8.5s8.5 -12.5 8.5 -20.5s-2.83301 -14.833 -8.5 -20.5s-12.5 -8.5 -20.5 -8.5z" />
    <glyph glyph-name="Zcaron" unicode="&#x17d;" horiz-adv-x="578" 
d="M308 723h-36l-101 144h28l91 -120l88 120h28zM525 0h-472v30l427 607h-427v30h465v-30l-428 -607h435v-30z" />
    <glyph glyph-name="zcaron" unicode="&#x17e;" horiz-adv-x="466" 
d="M245 556h-36l-101 144h28l91 -120l88 120h28zM406 0h-346v27l307 429h-307v27h342v-27l-309 -429h313v-27z" />
    <glyph glyph-name="longs" unicode="&#x17f;" horiz-adv-x="246" 
d="M130 0h-30.001v456h-80v27h80v51c0 44.667 10.667 79.667 32 105s51 38 89 38c30 0 57.333 -10 82 -30l-18 -24c-19.333 18 -40.666 27 -63.999 27c-60.667 0 -91 -38.667 -91 -116v-534z" />
    <glyph glyph-name="florin" unicode="&#x192;" horiz-adv-x="412" 
d="M72 -161h-32l95 428h-80v30h86l53 237c10 44.667 28.5 79.667 55.5 105s59.5 38 97.5 38c30.667 0 55.667 -10 75 -30l-23 -24c-12.667 16 -30 24 -52 24c-30 0 -55.833 -10 -77.5 -30s-36.167 -47.667 -43.5 -83l-53 -237h162v-30h-168z" />
    <glyph glyph-name="Ohorn" unicode="&#x1a0;" horiz-adv-x="764" 
d="M382 -12c-95.333 0 -172.001 32.833 -230.001 98.5s-87 147.834 -87 246.501s29 180.834 87 246.501s134.667 98.5 230 98.5c100.667 0 181 -37.667 241 -113c30.667 26 46 55 46 87c-4 -0.666992 -6.66699 -1 -8 -1c-9.33301 0 -17 3.16699 -23 9.5s-9 14.166 -9 23.499
c0 8.66699 3 16.167 9 22.5s13.667 9.5 23 9.5c10.667 0 19.834 -4.66699 27.501 -14s11.5 -22.333 11.5 -39c0 -24 -6 -47 -18 -69s-26.333 -39 -43 -51c40 -59.333 60 -129.333 60 -210c0 -98.667 -29.167 -180.834 -87.5 -246.501s-134.833 -98.5 -229.5 -98.5z
M381.999 18c84.667 0 152.834 29.5 204.501 88.5s77.5 134.5 77.5 226.5c0 92.667 -25.833 168.334 -77.5 227.001s-119.834 88 -204.501 88c-85.333 0 -153.666 -29.333 -204.999 -88s-77 -134.334 -77 -227.001c0 -92 25.667 -167.5 77 -226.5
s119.666 -88.5 204.999 -88.5z" />
    <glyph glyph-name="ohorn" unicode="&#x1a1;" horiz-adv-x="570" 
d="M506 529c0 -44.667 -17.3359 -82.332 -52.0029 -112.999c37.333 -46.667 56 -104.667 56 -174c0 -72.667 -20.667 -133.167 -62 -181.5s-95.666 -72.5 -162.999 -72.5c-66.667 0 -120.834 24.167 -162.501 72.5s-62.5 108.833 -62.5 181.5
c0 72 20.833 132.167 62.5 180.5s95.834 72.5 162.501 72.5c58.667 0 108.334 -19.667 149.001 -59c27.333 26 41 53.333 41 82c-4 -0.666992 -6.66699 -1 -8 -1c-9.33301 0 -17 3.16699 -23 9.5s-9 14.166 -9 23.499c0 8.66699 3 16.167 9 22.5s13.667 9.5 23 9.5
c10.667 0 19.834 -4.66699 27.501 -14s11.5 -22.333 11.5 -39zM284.997 15.002c59.333 0 106.166 22.167 140.499 66.5s51.5 97.833 51.5 160.5c0 62 -17.167 115.167 -51.5 159.5s-81.166 66.5 -140.499 66.5c-58.667 0 -105.334 -22.167 -140.001 -66.5
s-52 -97.5 -52 -159.5c0 -62.667 17.333 -116.167 52 -160.5s81.334 -66.5 140.001 -66.5z" />
    <glyph glyph-name="Uhorn" unicode="&#x1af;" horiz-adv-x="672" 
d="M704 730c0 -34 -10.999 -64.832 -32.999 -92.499s-51 -47.5 -87 -59.5v-325c0 -83.333 -21.333 -148.333 -64 -195s-104 -70 -184 -70s-141.333 23.333 -184 70s-64 111.667 -64 195v414h32v-414c0 -74.667 18.667 -132.5 56 -173.5s90.666 -61.5 159.999 -61.5
s122.666 20.5 159.999 61.5s56 98.833 56 173.5v414h32v-61c25.333 10.667 46.5 26.5 63.5 47.5s25.5 42.833 25.5 65.5c-4 -0.666992 -6.66699 -1 -8 -1c-9.33301 0 -17 3.16699 -23 9.5s-9 14.166 -9 23.499c0 8.66699 3 16.167 9 22.5s13.667 9.5 23 9.5
c10.667 0 19.834 -4.66699 27.501 -14s11.5 -22.333 11.5 -39z" />
    <glyph glyph-name="uhorn" unicode="&#x1b0;" 
d="M442 0l-29.999 0.00195312v74c-22 -24.667 -48.667 -45.167 -80 -61.5s-63 -24.5 -95 -24.5c-50 0 -87.667 12.167 -113 36.5s-38 64.166 -38 119.499v339h30v-339c0 -48 10.667 -81.5 32 -100.5s52.333 -28.5 93 -28.5c32 0 64.167 8.5 96.5 25.5
s57.166 37.833 74.499 62.5v380h30v-69c21.333 12 38.666 27.5 51.999 46.5s20 38.167 20 57.5c-4 -0.666992 -6.66699 -1 -8 -1c-9.33301 0 -17 3.16699 -23 9.5s-9 14.166 -9 23.499c0 8.66699 3 16.167 9 22.5s13.667 9.5 23 9.5c10.667 0 19.834 -4.66699 27.501 -14
s11.5 -22.333 11.5 -39c0 -30.667 -9.33301 -59.167 -28 -85.5s-43.667 -46.5 -75 -60.5v-383z" />
    <glyph glyph-name="AEacute" unicode="&#x1fc;" horiz-adv-x="930" 
d="M627 867l-175 -144h-30l160 144h45zM865 0h-408v179h-286l-113 -179h-37l425 667h419v-30h-376v-279h369v-30h-369v-298h376v-30zM457 209v421l-269 -421h269z" />
    <glyph glyph-name="aeacute" unicode="&#x1fd;" horiz-adv-x="905" 
d="M567 700l-175 -144h-30l160 144h45zM845 232h-391.002c2 -61.333 20 -112.833 54 -154.5s78.667 -62.5 134 -62.5c62 0 114.333 24.333 157 73l18 -19c-47.333 -54 -105.333 -81 -174 -81c-45.333 0 -85.5 12.333 -120.5 37s-60.833 59.667 -77.5 105
c-14 -43.333 -38.167 -77.833 -72.5 -103.5s-74.166 -38.5 -119.499 -38.5c-56 0 -101.833 14.5 -137.5 43.5s-53.5 68.5 -53.5 118.5c0 49.333 17.5 88.333 52.5 117s77.5 43 127.5 43c74.667 0 135.334 -23 182.001 -69v107c0 38 -13.333 67.5 -40 88.5
s-62.667 31.5 -108 31.5c-66.667 0 -123 -25.333 -169 -76l-23 20c47.333 55.333 114 83 200 83c40.667 0 77.667 -9.83301 111 -29.5s52.333 -51.167 57 -94.5c15.333 36 39.5 65.667 72.5 89s69.167 35 108.5 35c67.333 0 119.5 -24.333 156.5 -73
s55.5 -108.667 55.5 -180v-10zM453.998 259h359.001c0 54 -15.333 102.333 -46 145s-75.334 64 -134.001 64c-53.333 0 -96 -21.5 -128 -64.5s-49 -91.167 -51 -144.5zM423.999 188v19c-40.667 50.667 -98 76 -172 76c-47.333 0 -85.333 -12.833 -114 -38.5
s-43 -57.5 -43 -95.5s14.333 -69.833 43 -95.5s66.667 -38.5 114 -38.5c52 0 93.667 17 125 51s47 74.667 47 122z" />
    <glyph glyph-name="Oslashacute" unicode="&#x1fe;" horiz-adv-x="764" 
d="M536 867l-175 -144h-30l160 144h45zM382 -12c-61.333 0 -115.668 14.335 -163.001 43.002l-18 -31h-36l29 48c-41.333 31.333 -73.166 71.666 -95.499 120.999s-33.5 104 -33.5 164c0 98.667 29 180.834 87 246.501s134.667 98.5 230 98.5
c59.333 0 113.333 -14.333 162 -43l19 32h36l-30 -50c41.333 -30.667 73.333 -70.834 96 -120.501s34 -104.167 34 -163.5c0 -98.667 -29.167 -180.834 -87.5 -246.501s-134.833 -98.5 -229.5 -98.5zM381.998 18.002c84.667 0 152.833 29.5 204.5 88.5
s77.5 134.5 77.5 226.5c0 112.667 -37 198.667 -111 258l-318 -534c42.667 -26 91.667 -39 147 -39zM99.9971 333.002c0 -113.333 36.667 -199.332 110 -257.999l318 534c-42.667 26 -91.334 39 -146.001 39c-85.333 0 -153.666 -29.333 -204.999 -88
s-77 -134.334 -77 -227.001z" />
    <glyph glyph-name="oslashacute" unicode="&#x1ff;" horiz-adv-x="570" 
d="M439 700l-175 -144h-30l160 144h45zM118 0h-34.002l42 56c-44 48 -66 110 -66 186c0 72 20.833 132.167 62.5 180.5s95.834 72.5 162.501 72.5c50.667 0 95 -14.667 133 -44l24 32h33l-37 -50c48 -48 72 -111.667 72 -191c0 -72.667 -20.667 -133.167 -62 -181.5
s-95.666 -72.5 -162.999 -72.5c-54 0 -100.333 16.333 -139 49zM284.998 15c59.333 0 106.166 22.168 140.499 66.501s51.5 97.833 51.5 160.5c0 67.333 -19 122.666 -57 165.999l-257 -347c32.667 -30.667 73.334 -46 122.001 -46zM92.998 242.001
c0 -64 17.334 -117.333 52.001 -160l255 345c-32.667 27.333 -71 41 -115 41c-58.667 0 -105.334 -22.167 -140.001 -66.5s-52 -97.5 -52 -159.5z" />
    <glyph glyph-name="Scommaaccent" unicode="&#x218;" horiz-adv-x="575" 
d="M327 -137c0 -24 -6.00098 -47.166 -18.001 -69.499s-26.667 -39.5 -44 -51.5l-22 18c16 12 28.833 26.5 38.5 43.5s14.5 33.167 14.5 48.5c-4 -0.666992 -6.66699 -1 -8 -1c-9.33301 0 -17 3.16699 -23 9.5s-9 14.166 -9 23.499c0 8.66699 3 16.167 9 22.5
s13.667 9.5 23 9.5c10.667 0 19.834 -4.66699 27.501 -14s11.5 -22.333 11.5 -39zM285.999 -11.999c-50 0 -95.002 9.66602 -135.002 28.999s-72.667 45 -98 77l26 23c54 -66 123 -99 207 -99c36.667 0 68.334 4.83301 95.001 14.5s46.667 22.334 60 38.001s23 31.667 29 48
s9 33.166 9 50.499c0 34 -10 62.5 -30 85.5s-45 39.5 -75 49.5l-97.5 31.5l-97.5 32c-30 10.333 -55 27.5 -75 51.5s-30 53.667 -30 89c0 52 20.333 93.333 61 124s90 46 148 46c93.333 0 165.333 -31.333 216 -94l-25 -23c-44.667 58 -108.334 87 -191.001 87
c-49.333 0 -90.666 -13.167 -123.999 -39.5s-50 -59.833 -50 -100.5c0 -25.333 7.5 -47 22.5 -65s34.333 -32 58 -42s50 -19.167 79 -27.5s57.833 -17.333 86.5 -27s54.834 -21.167 78.501 -34.5s43 -32.166 58 -56.499s22.5 -53.166 22.5 -86.499
c0 -20.667 -3.66699 -40.834 -11 -60.501s-19 -39 -35 -58s-39.667 -34.167 -71 -45.5s-68.333 -17 -111 -17z" />
    <glyph glyph-name="scommaaccent" unicode="&#x219;" horiz-adv-x="454" 
d="M272 -137c0 -24 -6.00098 -47.166 -18.001 -69.499s-26.667 -39.5 -44 -51.5l-22 18c16 12 28.833 26.5 38.5 43.5s14.5 33.167 14.5 48.5c-4 -0.666992 -6.66699 -1 -8 -1c-9.33301 0 -17 3.16699 -23 9.5s-9 14.166 -9 23.499c0 8.66699 3 16.167 9 22.5
s13.667 9.5 23 9.5c10.667 0 19.834 -4.66699 27.501 -14s11.5 -22.333 11.5 -39zM220.999 -11.999c-73.333 0 -132.332 25.666 -176.999 76.999l24 22c36 -48 87 -72 153 -72c43.333 0 78 10.5 104 31.5s39 47.833 39 80.5c0 27.333 -10.667 49 -32 65
s-47.166 27.833 -77.499 35.5l-91 24c-30.333 8.33301 -56.166 21.833 -77.499 40.5s-32 43.667 -32 75c0 36.667 14.667 67.167 44 91.5s69.333 36.5 120 36.5c72.667 0 128 -24.333 166 -73l-22 -20c-30.667 44 -78.667 66 -144 66c-41.333 0 -74 -9.5 -98 -28.5
s-36 -43.167 -36 -72.5c0 -24.667 10.667 -44.167 32 -58.5s47.166 -25.166 77.499 -32.499s60.666 -15.333 90.999 -24s56.166 -23.167 77.499 -43.5s32 -47.5 32 -81.5c0 -40 -14.833 -73.167 -44.5 -99.5s-72.5 -39.5 -128.5 -39.5z" />
    <glyph glyph-name="uni021A" unicode="&#x21a;" horiz-adv-x="559" 
d="M324 -137c0 -24 -6.00098 -47.166 -18.001 -69.499s-26.667 -39.5 -44 -51.5l-22 18c16 12 28.833 26.5 38.5 43.5s14.5 33.167 14.5 48.5c-4 -0.666992 -6.66699 -1 -8 -1c-9.33301 0 -17 3.16699 -23 9.5s-9 14.166 -9 23.499c0 8.66699 3 16.167 9 22.5
s13.667 9.5 23 9.5c10.667 0 19.834 -4.66699 27.501 -14s11.5 -22.333 11.5 -39zM294.999 0.000976562h-32v637h-225v30h483v-30h-226v-637z" />
    <glyph glyph-name="uni021B" unicode="&#x21b;" horiz-adv-x="256" 
d="M173 -137c0 -24 -6.00098 -47.166 -18.001 -69.499s-26.667 -39.5 -44 -51.5l-22 18c16 12 28.833 26.5 38.5 43.5s14.5 33.167 14.5 48.5c-4 -0.666992 -6.66699 -1 -8 -1c-9.33301 0 -17 3.16699 -23 9.5s-9 14.166 -9 23.499c0 8.66699 3 16.167 9 22.5
s13.667 9.5 23 9.5c10.667 0 19.834 -4.66699 27.501 -14s11.5 -22.333 11.5 -39zM173.999 -11.999c-54.667 0 -82 32.333 -82 97v371h-80v27h80v132h30v-132h98v-27h-98v-371c0 -46.667 17.333 -70 52 -70c23.333 0 42.333 8.66699 57 26l18 -23
c-21.333 -20 -46.333 -30 -75 -30z" />
    <glyph glyph-name="uni0237" unicode="&#x237;" horiz-adv-x="202" 
d="M-3 -196c-34 0 -64.666 12.668 -91.999 38.001l19 25c21.333 -24 45.666 -36 72.999 -36c26.667 0 48.167 7.66699 64.5 23s24.5 38.666 24.5 69.999v559h30v-559c0 -80 -39.667 -120 -119 -120z" />
    <glyph glyph-name="hsuperior" unicode="&#x2b0;" horiz-adv-x="387" 
d="M318 326h-27.999v214c0 31.333 -7 53.333 -21 66s-34.333 19 -61 19c-20.667 0 -41.334 -5.66699 -62.001 -17s-37 -24.666 -49 -39.999v-242h-28v434h28v-169c13.333 15.333 30.833 28.666 52.5 39.999s43.5 17 65.5 17c34 0 59.667 -8.5 77 -25.5s26 -44.833 26 -83.5
v-213z" />
    <glyph glyph-name="uni02BC" unicode="&#x2bc;" horiz-adv-x="208" 
d="M142 624c0 -24 -6.00098 -47.166 -18.001 -69.499s-26.667 -39.5 -44 -51.5l-22 18c16 12 28.833 26.5 38.5 43.5s14.5 33.167 14.5 48.5c-4 -0.666992 -6.66699 -1 -8 -1c-9.33301 0 -17 3.16699 -23 9.5s-9 14.166 -9 23.499c0 8.66699 3 16.167 9 22.5
s13.667 9.5 23 9.5c10.667 0 19.834 -4.66699 27.501 -14s11.5 -22.333 11.5 -39z" />
    <glyph glyph-name="circumflex" unicode="&#x2c6;" horiz-adv-x="235" 
d="M235 556h-28l-91 120l-88 -120h-28l98 144h36z" />
    <glyph glyph-name="caron" unicode="&#x2c7;" horiz-adv-x="235" 
d="M137 556h-36l-101 144h28l91 -120l88 120h28z" />
    <glyph glyph-name="uni02C9" unicode="&#x2c9;" horiz-adv-x="363" 
d="M363 591h-363v27h363v-27z" />
    <glyph glyph-name="uni02CB" unicode="&#x2cb;" horiz-adv-x="205" 
d="M205 556h-30l-175 144h45z" />
    <glyph glyph-name="breve" unicode="&#x2d8;" horiz-adv-x="351" 
d="M351 632c-43.333 -58.667 -101.666 -88 -174.999 -88c-72.667 0 -131.334 29.333 -176.001 88l21 19c38 -53.333 89.667 -80 155 -80s117 26.667 155 80z" />
    <glyph glyph-name="dotaccent" unicode="&#x2d9;" horiz-adv-x="58" 
d="M29 566c-7.33301 0 -14 2.83301 -20 8.5s-9 12.5 -9 20.5s3 14.833 9 20.5s12.667 8.5 20 8.5c8 0 14.833 -2.83301 20.5 -8.5s8.5 -12.5 8.5 -20.5s-2.83301 -14.833 -8.5 -20.5s-12.5 -8.5 -20.5 -8.5z" />
    <glyph glyph-name="ring" unicode="&#x2da;" horiz-adv-x="185" 
d="M93 553c-25.333 0 -47.166 9.16699 -65.499 27.5s-27.5 40.166 -27.5 65.499s9.16699 47.166 27.5 65.499s40.166 27.5 65.499 27.5s47 -9.16699 65 -27.5s27 -40.166 27 -65.499s-9 -47.166 -27 -65.499s-39.667 -27.5 -65 -27.5zM93 577
c18.667 0 34.667 6.6709 48 20.0039s20 29.666 20 48.999s-6.66699 35.666 -20 48.999s-29.333 20 -48 20c-19.333 0 -35.666 -6.83301 -48.999 -20.5s-20 -29.834 -20 -48.501s6.66699 -34.834 20 -48.501s29.666 -20.5 48.999 -20.5z" />
    <glyph glyph-name="ogonek" unicode="&#x2db;" horiz-adv-x="164" 
d="M139 -112l25 -11.001c-14.667 -42 -42.334 -63 -83.001 -63c-23.333 0 -42.666 7 -57.999 21s-23 35 -23 63c0 23.333 8.16699 45.833 24.5 67.5s37.5 38.834 63.5 51.501l23 -17c-54.667 -26 -82 -60 -82 -102c0 -38 17.333 -57 52 -57c28.667 0 48 15.667 58 47z" />
    <glyph glyph-name="tilde" unicode="&#x2dc;" horiz-adv-x="301" 
d="M213 554c-17.333 0 -32.166 5.83301 -44.499 17.5s-21.333 24.667 -27 39s-13.334 27.333 -23.001 39s-20.834 17.5 -33.501 17.5c-17.333 0 -31.5 -8.83301 -42.5 -26.5s-16.5 -44.5 -16.5 -80.5h-26c0 38 7.83301 69.833 23.5 95.5s37.167 38.5 64.5 38.5
c17.333 0 32.166 -5.83301 44.499 -17.5s21.333 -24.667 27 -39s13.334 -27.333 23.001 -39s20.834 -17.5 33.501 -17.5c17.333 0 31.5 8.83301 42.5 26.5s16.5 44.5 16.5 80.5h26c0 -38 -7.83301 -69.833 -23.5 -95.5s-37.167 -38.5 -64.5 -38.5z" />
    <glyph glyph-name="hungarumlaut" unicode="&#x2dd;" horiz-adv-x="277" 
d="M141 700l-115 -144h-26l100 144h41zM277 700l-115 -144h-26l100 144h41z" />
    <glyph glyph-name="hookabovecomb" unicode="&#x309;" horiz-adv-x="164" 
d="M37 731l-21 6.00098c10.667 35.333 33 53 67 53c18.667 0 34.167 -5.66699 46.5 -17s18.5 -28 18.5 -50c0 -18.667 -7.33301 -37.334 -22 -56.001h-27c17.333 17.333 26 36 26 56c0 30 -14 45 -42 45c-22.667 0 -38 -12.333 -46 -37z" />
    <glyph glyph-name="uni037E" unicode="&#x37e;" horiz-adv-x="208" 
d="M104 425c-8.66699 0 -16.3301 3.16699 -22.9971 9.5s-10 13.833 -10 22.5s3.16699 16.334 9.5 23.001s14.166 10 23.499 10s17.166 -3.33301 23.499 -10s9.5 -14.334 9.5 -23.001s-3.33301 -16.167 -10 -22.5s-14.334 -9.5 -23.001 -9.5zM142.004 3
c0 -24 -6.00098 -47.166 -18.001 -69.499s-26.667 -39.5 -44 -51.5l-22 18c16 12 28.833 26.5 38.5 43.5s14.5 33.167 14.5 48.5c-4 -0.666992 -6.66699 -1 -8 -1c-9.33301 0 -17 3.16699 -23 9.5s-9 14.166 -9 23.499c0 8.66699 3 16.167 9 22.5s13.667 9.5 23 9.5
c10.667 0 19.834 -4.66699 27.501 -14s11.5 -22.333 11.5 -39z" />
    <glyph glyph-name="tonos" unicode="&#x384;" horiz-adv-x="176" 
d="M114 575h-22l17 190h52z" />
    <glyph glyph-name="dieresistonos" unicode="&#x385;" 
d="M265 575h-22l17 190h52zM413 598c0 -7.33301 -2.83301 -13.833 -8.5 -19.5s-12.167 -8.5 -19.5 -8.5s-13.833 2.83301 -19.5 8.5s-8.5 12.167 -8.5 19.5s2.83301 13.833 8.5 19.5s12.167 8.5 19.5 8.5s13.833 -2.83301 19.5 -8.5s8.5 -12.167 8.5 -19.5zM171 598
c0 -7.33301 -2.83301 -13.833 -8.5 -19.5s-12.167 -8.5 -19.5 -8.5s-13.833 2.83301 -19.5 8.5s-8.5 12.167 -8.5 19.5s2.83301 13.833 8.5 19.5s12.167 8.5 19.5 8.5s13.833 -2.83301 19.5 -8.5s8.5 -12.167 8.5 -19.5z" />
    <glyph glyph-name="Alphatonos" unicode="&#x386;" horiz-adv-x="636" 
d="M197 575h-22l17 190h52zM615 0h-37l-74 179h-372l-74 -179h-37l278 667h38zM492 209l-174 421l-174 -421h348z" />
    <glyph glyph-name="Epsilontonos" unicode="&#x388;" horiz-adv-x="558" 
d="M13 575h-22l17 190h52zM496 0h-408v667h408v-30h-376v-279h369v-30h-369v-298h376v-30z" />
    <glyph glyph-name="Etatonos" unicode="&#x389;" horiz-adv-x="695" 
d="M13 575h-22l17 190h52zM607 0h-32v328h-455v-328h-32v667h32v-309h455v309h32v-667z" />
    <glyph glyph-name="Iotatonos" unicode="&#x38a;" horiz-adv-x="208" 
d="M13 575h-22l17 190h52zM120 0h-32v667h32v-667z" />
    <glyph glyph-name="Omicrontonos" unicode="&#x38c;" horiz-adv-x="764" 
d="M63 575h-22l17 190h52zM382 -12c-95.333 0 -172 32.833 -230 98.5s-87 147.834 -87 246.501s29 180.834 87 246.501s134.667 98.5 230 98.5c94.667 0 171.167 -32.833 229.5 -98.5s87.5 -147.834 87.5 -246.501s-29.167 -180.834 -87.5 -246.501
s-134.833 -98.5 -229.5 -98.5zM382 18c84.667 0 152.834 29.5 204.501 88.5s77.5 134.5 77.5 226.5c0 92.667 -25.833 168.334 -77.5 227.001s-119.834 88 -204.501 88c-85.333 0 -153.666 -29.333 -204.999 -88s-77 -134.334 -77 -227.001c0 -92 25.667 -167.5 77 -226.5
s119.666 -88.5 204.999 -88.5z" />
    <glyph glyph-name="Upsilontonos" unicode="&#x38e;" horiz-adv-x="645" 
d="M13 575h-22l17 190h52zM356 0h-32v289l-268 378h41l243 -346l243 346h41l-268 -378v-289z" />
    <glyph glyph-name="Omegatonos" unicode="&#x38f;" horiz-adv-x="764" 
d="M63 575h-22l17 190h52zM84 30h147.998c-111.333 63.333 -167 164.333 -167 303c0 98.667 29 180.834 87 246.501s134.667 98.5 230 98.5s172 -32.833 230 -98.5s87 -147.834 87 -246.501c0 -139.333 -55.333 -240.333 -166 -303h148v-30h-215v30
c52 12.667 98 45.334 138 98.001s60 121 60 205c0 92.667 -25.667 168.167 -77 226.5s-119.666 87.5 -204.999 87.5s-153.666 -29.167 -204.999 -87.5s-77 -133.833 -77 -226.5c0 -84 20.167 -152.333 60.5 -205s86.5 -85.334 138.5 -98.001v-30h-215v30z" />
    <glyph glyph-name="iotadieresistonos" unicode="&#x390;" horiz-adv-x="216" 
d="M109 575h-22l17 190h52zM257 598c0 -7.33301 -2.83301 -13.833 -8.5 -19.5s-12.167 -8.5 -19.5 -8.5s-13.833 2.83301 -19.5 8.5s-8.5 12.167 -8.5 19.5s2.83301 13.833 8.5 19.5s12.167 8.5 19.5 8.5s13.833 -2.83301 19.5 -8.5s8.5 -12.167 8.5 -19.5zM15 598
c0 -7.33301 -2.83301 -13.833 -8.5 -19.5s-12.167 -8.5 -19.5 -8.5s-13.833 2.83301 -19.5 8.5s-8.5 12.167 -8.5 19.5s2.83301 13.833 8.5 19.5s12.167 8.5 19.5 8.5s13.833 -2.83301 19.5 -8.5s8.5 -12.167 8.5 -19.5zM168 -12c-54.667 0 -82 32.333 -82 97v398h30v-398
c0 -46.667 17.333 -70 52 -70c8 0 14.667 0.666992 20 2l3 -27c-8 -1.33301 -15.667 -2 -23 -2z" />
    <glyph glyph-name="Alpha" unicode="&#x391;" horiz-adv-x="636" 
d="M615 0h-37l-74 179h-372l-74 -179h-37l278 667h38zM492 209l-174 421l-174 -421h348z" />
    <glyph glyph-name="Beta" unicode="&#x392;" horiz-adv-x="600" 
d="M343 0l-255 0.00292969v667h251c54.667 0 98.667 -14.833 132 -44.5s50 -71.5 50 -125.5c0 -40 -11.667 -73.833 -35 -101.5s-51 -44.834 -83 -51.501c35.333 -5.33301 66 -24.333 92 -57s39 -68.334 39 -107.001c0 -56.667 -17.167 -100.834 -51.5 -132.501
s-80.833 -47.5 -139.5 -47.5zM339 358.003c47.333 0 83.668 13 109.001 39s38 59.333 38 100c0 40 -12.833 73.333 -38.5 100s-61.834 40 -108.501 40h-219v-279h219zM343.002 30.0029c48.667 0 86.832 13.333 114.499 40s41.5 63 41.5 109c0 40.667 -13.667 75.667 -41 105
s-65.666 44 -114.999 44h-223v-298h223z" />
    <glyph glyph-name="Gamma" unicode="&#x393;" horiz-adv-x="533" 
d="M120 0h-32v667h408v-30h-376v-637z" />
    <glyph glyph-name="uni0394" unicode="&#x394;" horiz-adv-x="636" 
d="M615 0h-594l278 667h38zM567 30l-249 600l-249 -600h498z" />
    <glyph glyph-name="Epsilon" unicode="&#x395;" horiz-adv-x="558" 
d="M496 0h-408v667h408v-30h-376v-279h369v-30h-369v-298h376v-30z" />
    <glyph glyph-name="Zeta" unicode="&#x396;" horiz-adv-x="578" 
d="M525 0h-472v30l427 607h-427v30h465v-30l-428 -607h435v-30z" />
    <glyph glyph-name="Eta" unicode="&#x397;" horiz-adv-x="695" 
d="M607 0h-32v328h-455v-328h-32v667h32v-309h455v309h32v-667z" />
    <glyph glyph-name="Theta" unicode="&#x398;" horiz-adv-x="764" 
d="M597 328h-430v30h430v-30zM382 -12c-95.333 0 -172 32.833 -230 98.5s-87 147.834 -87 246.501s29 180.834 87 246.501s134.667 98.5 230 98.5c94.667 0 171.167 -32.833 229.5 -98.5s87.5 -147.834 87.5 -246.501s-29.167 -180.834 -87.5 -246.501
s-134.833 -98.5 -229.5 -98.5zM382 18c84.667 0 152.834 29.5 204.501 88.5s77.5 134.5 77.5 226.5c0 92.667 -25.833 168.334 -77.5 227.001s-119.834 88 -204.501 88c-85.333 0 -153.666 -29.333 -204.999 -88s-77 -134.334 -77 -227.001c0 -92 25.667 -167.5 77 -226.5
s119.666 -88.5 204.999 -88.5z" />
    <glyph glyph-name="Iota" unicode="&#x399;" horiz-adv-x="208" 
d="M120 0h-32v667h32v-667z" />
    <glyph glyph-name="Kappa" unicode="&#x39a;" horiz-adv-x="571" 
d="M540 0h-43l-297 328l-80 -87v-241h-32v667h32v-385l347 385h43l-290 -319z" />
    <glyph glyph-name="Lambda" unicode="&#x39b;" horiz-adv-x="636" 
d="M615 0h-37l-260 630l-260 -630h-37l278 667h38z" />
    <glyph glyph-name="Mu" unicode="&#x39c;" horiz-adv-x="770" 
d="M682 0h-32v629l-260 -629h-10l-260 629v-629h-32v667h51l246 -597l246 597h51v-667z" />
    <glyph glyph-name="Nu" unicode="&#x39d;" horiz-adv-x="690" 
d="M602 0h-32l-450 615v-615h-32v667h32l450 -609v609h32v-667z" />
    <glyph glyph-name="Xi" unicode="&#x39e;" horiz-adv-x="608" 
d="M546 637h-483v30h483v-30zM545 0h-483v30h483v-30zM539 328h-469v30h469v-30z" />
    <glyph glyph-name="Omicron" unicode="&#x39f;" horiz-adv-x="764" 
d="M382 -12c-95.333 0 -172 32.833 -230 98.5s-87 147.834 -87 246.501s29 180.834 87 246.501s134.667 98.5 230 98.5c94.667 0 171.167 -32.833 229.5 -98.5s87.5 -147.834 87.5 -246.501s-29.167 -180.834 -87.5 -246.501s-134.833 -98.5 -229.5 -98.5zM382 18
c84.667 0 152.834 29.5 204.501 88.5s77.5 134.5 77.5 226.5c0 92.667 -25.833 168.334 -77.5 227.001s-119.834 88 -204.501 88c-85.333 0 -153.666 -29.333 -204.999 -88s-77 -134.334 -77 -227.001c0 -92 25.667 -167.5 77 -226.5s119.666 -88.5 204.999 -88.5z" />
    <glyph glyph-name="Pi" unicode="&#x3a0;" horiz-adv-x="695" 
d="M607 0h-32v637h-455v-637h-32v667h519v-667z" />
    <glyph glyph-name="Rho" unicode="&#x3a1;" horiz-adv-x="555" 
d="M120 0h-32.001v667h231c60 0 107.5 -18.167 142.5 -54.5s52.5 -81.166 52.5 -134.499c0 -52.667 -17.667 -97.334 -53 -134.001s-82.666 -55 -141.999 -55h-199v-289zM317.999 319c48.667 0 87.667 14.8311 117 44.498s44 67.834 44 114.501s-14.667 84.834 -44 114.501
s-68.333 44.5 -117 44.5h-198v-318h198z" />
    <glyph glyph-name="Sigma" unicode="&#x3a3;" horiz-adv-x="567" 
d="M101 637l254 -292l-256 -315h406v-30h-443v30l255 314l-254 293v30h442v-30h-404z" />
    <glyph glyph-name="Tau" unicode="&#x3a4;" horiz-adv-x="559" 
d="M295 0h-32v637h-225v30h483v-30h-226v-637z" />
    <glyph glyph-name="Upsilon" unicode="&#x3a5;" horiz-adv-x="610" 
d="M321 0h-32v289l-268 378h41l243 -346l243 346h41l-268 -378v-289z" />
    <glyph glyph-name="Phi" unicode="&#x3a6;" horiz-adv-x="764" 
d="M398 0h-32v64c-90.667 2.66699 -163.5 29.5 -218.5 80.5s-82.5 113.833 -82.5 188.5s27.5 137.334 82.5 188.001s127.833 77.667 218.5 81v65h32v-65c90.667 -3.33301 163.5 -30.333 218.5 -81s82.5 -113.334 82.5 -188.001s-27.5 -137.5 -82.5 -188.5
s-127.833 -77.833 -218.5 -80.5v-64zM100 333c0 -68 24.167 -124.167 72.5 -168.5s112.833 -67.833 193.5 -70.5v478c-80.667 -2.66699 -145.167 -26.167 -193.5 -70.5s-72.5 -100.5 -72.5 -168.5zM664 333c0 67.333 -24.333 123.331 -73 167.998s-113 68.334 -193 71.001
v-478c80 2.66699 144.333 26.334 193 71.001s73 100.667 73 168z" />
    <glyph glyph-name="Chi" unicode="&#x3a7;" horiz-adv-x="638" 
d="M613 0h-42l-252 318l-252 -318h-42l276 342l-261 325h43l236 -299l236 299h43l-261 -324z" />
    <glyph glyph-name="Psi" unicode="&#x3a8;" horiz-adv-x="736" 
d="M384 0h-32.002v124c-85.333 2.66699 -150.666 27.334 -195.999 74.001s-68 110.334 -68 191.001v278h32v-278c0 -72 20 -128.5 60 -169.5s97.333 -62.833 172 -65.5v513h32v-513c74.667 2.66699 132 24.5 172 65.5s60 97.5 60 169.5v278h32v-278
c0 -80.667 -22.667 -144.334 -68 -191.001s-110.666 -71.334 -195.999 -74.001v-124z" />
    <glyph glyph-name="uni03A9" unicode="&#x3a9;" horiz-adv-x="764" 
d="M84 30h147.998c-111.333 63.333 -167 164.333 -167 303c0 98.667 29 180.834 87 246.501s134.667 98.5 230 98.5s172 -32.833 230 -98.5s87 -147.834 87 -246.501c0 -139.333 -55.333 -240.333 -166 -303h148v-30h-215v30c52 12.667 98 45.334 138 98.001s60 121 60 205
c0 92.667 -25.667 168.167 -77 226.5s-119.666 87.5 -204.999 87.5s-153.666 -29.167 -204.999 -87.5s-77 -133.833 -77 -226.5c0 -84 20.167 -152.333 60.5 -205s86.5 -85.334 138.5 -98.001v-30h-215v30z" />
    <glyph glyph-name="Iotadieresis" unicode="&#x3aa;" horiz-adv-x="208" 
d="M120 0h-32v667h32v-667zM233 782c0 -7.33301 -2.83301 -13.833 -8.5 -19.5s-12.167 -8.5 -19.5 -8.5s-13.833 2.83301 -19.5 8.5s-8.5 12.167 -8.5 19.5s2.83301 13.833 8.5 19.5s12.167 8.5 19.5 8.5s13.833 -2.83301 19.5 -8.5s8.5 -12.167 8.5 -19.5zM31 782
c0 -7.33301 -2.83301 -13.833 -8.5 -19.5s-12.167 -8.5 -19.5 -8.5s-13.833 2.83301 -19.5 8.5s-8.5 12.167 -8.5 19.5s2.83301 13.833 8.5 19.5s12.167 8.5 19.5 8.5s13.833 -2.83301 19.5 -8.5s8.5 -12.167 8.5 -19.5z" />
    <glyph glyph-name="Upsilondieresis" unicode="&#x3ab;" horiz-adv-x="610" 
d="M321 0h-32v289l-268 378h41l243 -346l243 346h41l-268 -378v-289zM434 782c0 -7.33301 -2.83301 -13.833 -8.5 -19.5s-12.167 -8.5 -19.5 -8.5s-13.833 2.83301 -19.5 8.5s-8.5 12.167 -8.5 19.5s2.83301 13.833 8.5 19.5s12.167 8.5 19.5 8.5s13.833 -2.83301 19.5 -8.5
s8.5 -12.167 8.5 -19.5zM232 782c0 -7.33301 -2.83301 -13.833 -8.5 -19.5s-12.167 -8.5 -19.5 -8.5s-13.833 2.83301 -19.5 8.5s-8.5 12.167 -8.5 19.5s2.83301 13.833 8.5 19.5s12.167 8.5 19.5 8.5s13.833 -2.83301 19.5 -8.5s8.5 -12.167 8.5 -19.5z" />
    <glyph glyph-name="alphatonos" unicode="&#x3ac;" horiz-adv-x="580" 
d="M292 575h-22l17 190h52zM552 17l2.99707 -26.999c-8 -1.33301 -15.667 -2 -23 -2c-53.333 0 -80.666 31 -81.999 93c-17.333 -26.667 -41.666 -48.834 -72.999 -66.501s-65 -26.5 -101 -26.5c-65.333 0 -117.666 23 -156.999 69s-59 107.333 -59 184
c0 76 19.833 137.333 59.5 184s91.834 70 156.501 70c35.333 0 68.166 -8.5 98.499 -25.5s55.5 -40.167 75.5 -69.5v83h30v-398c0 -21.333 4.5 -38.333 13.5 -51s21.833 -19 38.5 -19c8 0 14.667 0.666992 20 2zM275.997 15.001c36 0 70 9.33203 102 27.999
s56 41.334 72 68.001v259c-16 26.667 -40 49.667 -72 69s-66 29 -102 29c-57.333 0 -102.166 -21.333 -134.499 -64s-48.5 -97 -48.5 -163s16.167 -120.167 48.5 -162.5s77.166 -63.5 134.499 -63.5z" />
    <glyph glyph-name="epsilontonos" unicode="&#x3ad;" horiz-adv-x="523" 
d="M264 575h-22l17 190h52zM271 -12c-66 0 -117.668 13 -155.001 39s-56 59.333 -56 100c0 37.333 15.333 65.833 46 85.5s63.334 30.834 98.001 33.501c-32.667 4 -63.167 16.167 -91.5 36.5s-42.5 48.5 -42.5 84.5c0 40 20.333 71.333 61 94s90.667 34 150 34
c78.667 0 142.667 -25.333 192 -76l-20 -18c-42 44.667 -99.333 67 -172 67c-50.667 0 -93.167 -9.33301 -127.5 -28s-51.5 -43 -51.5 -73c0 -34.667 17.5 -61.334 52.5 -80.001s77.5 -28 127.5 -28h116v-27h-116c-126 0 -189 -35 -189 -105c0 -34 16.5 -61.167 49.5 -81.5
s75.833 -30.5 128.5 -30.5c84 0 148.667 24.333 194 73l18 -19c-52 -54 -122.667 -81 -212 -81z" />
    <glyph glyph-name="etatonos" unicode="&#x3ae;" 
d="M266 575h-22l17 190h52zM442 -184h-30v521c0 48 -10.667 81.833 -32 101.5s-52.333 29.5 -93 29.5c-32 0 -64 -8.83301 -96 -26.5s-57 -39.167 -75 -64.5v-377h-30v483h30v-76c19.333 23.333 45.333 43.833 78 61.5s65 26.5 97 26.5c50 0 87.667 -12.5 113 -37.5
s38 -65.167 38 -120.5v-521z" />
    <glyph glyph-name="iotatonos" unicode="&#x3af;" horiz-adv-x="216" 
d="M111 575h-22l17 190h52zM168 -12c-54.667 0 -82 32.333 -82 97v398h30v-398c0 -46.667 17.333 -70 52 -70c8 0 14.667 0.666992 20 2l3 -27c-8 -1.33301 -15.667 -2 -23 -2z" />
    <glyph glyph-name="upsilondieresistonos" unicode="&#x3b0;" horiz-adv-x="549" 
d="M275 575h-22l17 190h52zM423 598c0 -7.33301 -2.83301 -13.833 -8.5 -19.5s-12.167 -8.5 -19.5 -8.5s-13.833 2.83301 -19.5 8.5s-8.5 12.167 -8.5 19.5s2.83301 13.833 8.5 19.5s12.167 8.5 19.5 8.5s13.833 -2.83301 19.5 -8.5s8.5 -12.167 8.5 -19.5zM181 598
c0 -7.33301 -2.83301 -13.833 -8.5 -19.5s-12.167 -8.5 -19.5 -8.5s-13.833 2.83301 -19.5 8.5s-8.5 12.167 -8.5 19.5s2.83301 13.833 8.5 19.5s12.167 8.5 19.5 8.5s13.833 -2.83301 19.5 -8.5s8.5 -12.167 8.5 -19.5zM264 -12c-57.333 0 -101.333 19.3311 -132 57.998
s-46 92.334 -46 161.001v276h30v-276c0 -60 12.833 -107 38.5 -141s62.167 -51 109.5 -51c59.333 0 106.166 22.167 140.499 66.5s51.5 97.833 51.5 160.5c0 96 -28.333 173.667 -85 233l24 20c62.667 -71.333 94 -155.666 94 -252.999
c0 -72.667 -20.667 -133.167 -62 -181.5s-95.666 -72.5 -162.999 -72.5z" />
    <glyph glyph-name="alpha" unicode="&#x3b1;" horiz-adv-x="580" 
d="M552 17l2.99707 -26.999c-8 -1.33301 -15.667 -2 -23 -2c-53.333 0 -80.666 31 -81.999 93c-17.333 -26.667 -41.666 -48.834 -72.999 -66.501s-65 -26.5 -101 -26.5c-65.333 0 -117.666 23 -156.999 69s-59 107.333 -59 184c0 76 19.833 137.333 59.5 184
s91.834 70 156.501 70c35.333 0 68.166 -8.5 98.499 -25.5s55.5 -40.167 75.5 -69.5v83h30v-398c0 -21.333 4.5 -38.333 13.5 -51s21.833 -19 38.5 -19c8 0 14.667 0.666992 20 2zM275.997 15.001c36 0 70 9.33203 102 27.999s56 41.334 72 68.001v259
c-16 26.667 -40 49.667 -72 69s-66 29 -102 29c-57.333 0 -102.166 -21.333 -134.499 -64s-48.5 -97 -48.5 -163s16.167 -120.167 48.5 -162.5s77.166 -63.5 134.499 -63.5z" />
    <glyph glyph-name="beta" unicode="&#x3b2;" horiz-adv-x="566" 
d="M116 461l-0.00195312 -350.001c16 -26.667 40 -49.334 72 -68.001s66 -28 102 -28c58 0 103 14.5 135 43.5s48 68.5 48 118.5c0 51.333 -18.167 89.833 -54.5 115.5s-82.166 38.5 -137.499 38.5h-31v27h31c50.667 0 92.834 12.167 126.501 36.5s50.5 60.5 50.5 108.5
c0 44.667 -15.5 80.334 -46.5 107.001s-68.833 40 -113.5 40c-50.667 0 -93.667 -16.167 -129 -48.5s-53 -79.166 -53 -140.499zM115.998 80.999v-265.003h-30v645c0 70 20.333 123.5 61 160.5s91 55.5 151 55.5c52.667 0 98 -15.5 136 -46.5s57 -73.5 57 -127.5
c0 -48 -14.333 -84.833 -43 -110.5s-60 -41.5 -94 -47.5c20.667 -2 42 -8.5 64 -19.5s42.167 -29.667 60.5 -56s27.5 -57.166 27.5 -92.499c0 -57.333 -19.5 -103.166 -58.5 -137.499s-90.5 -51.5 -154.5 -51.5c-37.333 0 -71.833 8.83301 -103.5 26.5
s-56.167 39.834 -73.5 66.501z" />
    <glyph glyph-name="gamma" unicode="&#x3b3;" horiz-adv-x="471" 
d="M251 -184l-30 -0.00195312v159c0 96.667 -20.667 190.834 -62 282.501s-94 166.834 -158 225.501h40c50.667 -47.333 96 -113 136 -197s63.667 -163.667 71 -239c46.667 62 84.667 131.667 114 209s44 153 44 227h30c0 -76.667 -16.5 -157.167 -49.5 -241.5
s-78.167 -163.5 -135.5 -237.5v-188z" />
    <glyph glyph-name="delta" unicode="&#x3b4;" horiz-adv-x="570" 
d="M285 -12c-66 0 -120.001 21.998 -162.001 65.998s-63 96 -63 156c0 54 15 101 45 141s70.333 69 121 87c-34.667 12.667 -61 27.334 -79 44.001s-27 39.667 -27 69c0 36.667 14.667 67.167 44 91.5s69.333 36.5 120 36.5c72.667 0 128 -24.333 166 -73l-22 -20
c-30.667 44 -78.667 66 -144 66c-41.333 0 -74 -9.5 -98 -28.5s-36 -43.167 -36 -72.5c0 -18.667 6.66699 -34.667 20 -48s30.5 -24.166 51.5 -32.499s44.333 -16.333 70 -24s51.334 -17.167 77.001 -28.5s49 -25 70 -41s38.167 -38.167 51.5 -66.5s20 -61.833 20 -100.5
c0 -60 -21 -112 -63 -156s-96 -66 -162 -66zM479.999 209.998c0 27.333 -4.50098 52.167 -13.501 74.5s-19.167 40 -30.5 53s-28.166 25.5 -50.499 37.5s-40.333 20.667 -54 26s-33.834 12.333 -60.501 21c-57.333 -14.667 -101.333 -40.667 -132 -78s-46 -82 -46 -134
c0 -49.333 17.5 -94.166 52.5 -134.499s81.5 -60.5 139.5 -60.5c58.667 0 105.834 20.167 141.501 60.5s53.5 85.166 53.5 134.499z" />
    <glyph glyph-name="epsilon" unicode="&#x3b5;" horiz-adv-x="523" 
d="M271 -12c-66 0 -117.668 13 -155.001 39s-56 59.333 -56 100c0 37.333 15.333 65.833 46 85.5s63.334 30.834 98.001 33.501c-32.667 4 -63.167 16.167 -91.5 36.5s-42.5 48.5 -42.5 84.5c0 40 20.333 71.333 61 94s90.667 34 150 34c78.667 0 142.667 -25.333 192 -76
l-20 -18c-42 44.667 -99.333 67 -172 67c-50.667 0 -93.167 -9.33301 -127.5 -28s-51.5 -43 -51.5 -73c0 -34.667 17.5 -61.334 52.5 -80.001s77.5 -28 127.5 -28h116v-27h-116c-126 0 -189 -35 -189 -105c0 -34 16.5 -61.167 49.5 -81.5s75.833 -30.5 128.5 -30.5
c84 0 148.667 24.333 194 73l18 -19c-52 -54 -122.667 -81 -212 -81z" />
    <glyph glyph-name="zeta" unicode="&#x3b6;" horiz-adv-x="493" 
d="M410 -59c0 18 -6.00098 30.333 -18.001 37s-31.667 10 -59 10c-81.333 0 -147.166 20.167 -197.499 60.5s-75.5 94.833 -75.5 163.5c0 158 114 300.667 342 428h-326v27h367v-27c-118.667 -70 -206.667 -138.833 -264 -206.5s-86 -141.5 -86 -221.5
c0 -60.667 22.167 -108.667 66.5 -144s102.833 -53 175.5 -53c38 0 65.5 -5.5 82.5 -16.5s25.5 -30.167 25.5 -57.5c0 -24.667 -11.667 -57.334 -35 -98.001h-35c24.667 42.667 37 75.334 37 98.001z" />
    <glyph glyph-name="eta" unicode="&#x3b7;" 
d="M442 -184h-30v521c0 48 -10.667 81.833 -32 101.5s-52.333 29.5 -93 29.5c-32 0 -64 -8.83301 -96 -26.5s-57 -39.167 -75 -64.5v-377h-30v483h30v-76c19.333 23.333 45.333 43.833 78 61.5s65 26.5 97 26.5c50 0 87.667 -12.5 113 -37.5s38 -65.167 38 -120.5v-521z" />
    <glyph glyph-name="theta" unicode="&#x3b8;" horiz-adv-x="570" 
d="M285 -12c-50 0 -92.334 15.666 -127.001 46.999s-59.667 72.333 -75 123s-23 109.334 -23 176.001c0 102.667 18.833 185.834 56.5 249.501s93.834 95.5 168.501 95.5s130.834 -31.833 168.501 -95.5s56.5 -146.834 56.5 -249.501s-18.833 -186 -56.5 -250
s-93.834 -96 -168.501 -96zM284.999 14.999c33.333 0 62.6699 8.16797 88.0029 24.501s45.166 39.166 59.499 68.499s25.166 61.666 32.499 96.999s11.333 74.333 12 117h-384c0.666992 -42 4.5 -80.833 11.5 -116.5s17.833 -68.167 32.5 -97.5s34.667 -52.166 60 -68.499
s54.666 -24.5 87.999 -24.5zM285.003 652c-44 0 -80.666 -14.667 -109.999 -44s-50 -65.833 -62 -109.5s-18.667 -93.5 -20 -149.5h384c-2 88 -18.333 160.5 -49 217.5s-78.334 85.5 -143.001 85.5z" />
    <glyph glyph-name="iota" unicode="&#x3b9;" horiz-adv-x="216" 
d="M168 -12c-54.667 0 -82 32.333 -82 97v398h30v-398c0 -46.667 17.333 -70 52 -70c8 0 14.667 0.666992 20 2l3 -27c-8 -1.33301 -15.667 -2 -23 -2z" />
    <glyph glyph-name="kappa" unicode="&#x3ba;" horiz-adv-x="496" 
d="M471 0h-43l-212 243l-100 -92v-151h-30v483h30v-294l315 294h43l-235 -218z" />
    <glyph glyph-name="lambda" unicode="&#x3bb;" horiz-adv-x="471" 
d="M56 644l-5.99805 27.999c14 4.66699 30 7 48 7c46.667 0 82 -27.333 106 -82l256 -597h-35l-189 448l-190 -448h-35l207 486l-44 100c-10.667 24.667 -21.834 41.834 -33.501 51.501s-25.834 14.5 -42.501 14.5c-16 0 -30 -2.66699 -42 -8z" />
    <glyph glyph-name="uni03BC" unicode="&#x3bc;" horiz-adv-x="542" 
d="M116 53l-0.00195312 -237.001h-30v667h30v-339c0 -87.333 42.333 -131 127 -131c31.333 0 63 8.83301 95 26.5s56.667 38.834 74 63.501v380h30v-398c0 -46.667 17.333 -70 52 -70c8 0 14.667 0.666992 20 2l3 -27c-8 -1.33301 -15.667 -2 -23 -2
c-50 0 -77.333 28.667 -82 86c-21.333 -24.667 -47.166 -45.167 -77.499 -61.5s-60.833 -24.5 -91.5 -24.5c-63.333 0 -105.666 21.667 -126.999 65z" />
    <glyph glyph-name="nu" unicode="&#x3bd;" horiz-adv-x="471" 
d="M248 0l-30 0.000976562l-207 483h35l191 -451c52 69.333 93.167 143.166 123.5 221.499s45.5 154.833 45.5 229.5h30c0 -77.333 -16.833 -158.5 -50.5 -243.5s-79.5 -164.833 -137.5 -239.5z" />
    <glyph glyph-name="xi" unicode="&#x3be;" horiz-adv-x="493" 
d="M333 -12c-86.667 0 -153.834 16.3311 -201.501 48.998s-71.5 79.334 -71.5 140.001c0 51.333 16.667 91.5 50 120.5s67.333 45.167 102 48.5c-34.667 6 -67 21 -97 45s-45 57.333 -45 100c0 31.333 11.333 61 34 89s50.667 48 84 60h-112v27h355v-27h-186
c-39.333 -8.66699 -72.833 -27.667 -100.5 -57s-41.5 -60 -41.5 -92c0 -42 17.833 -74.5 53.5 -97.5s78.5 -34.5 128.5 -34.5h139v-27h-139c-55.333 0 -101.166 -13 -137.499 -39s-54.5 -64.667 -54.5 -116s21.167 -91.166 63.5 -119.499s101.833 -42.5 178.5 -42.5
c38 0 65.5 -5.5 82.5 -16.5s25.5 -30.167 25.5 -57.5c0 -24.667 -11.667 -57.334 -35 -98.001h-35c24.667 42.667 37 75.334 37 98.001c0 18 -6 30.333 -18 37s-31.667 10 -59 10z" />
    <glyph glyph-name="omicron" unicode="&#x3bf;" horiz-adv-x="570" 
d="M285 -12c-66.667 0 -120.834 24.167 -162.501 72.5s-62.5 108.833 -62.5 181.5c0 72 20.833 132.167 62.5 180.5s95.834 72.5 162.501 72.5c67.333 0 121.666 -24 162.999 -72s62 -108.333 62 -181s-20.667 -133.167 -62 -181.5s-95.666 -72.5 -162.999 -72.5zM285 15
c59.333 0 106.166 22.167 140.499 66.5s51.5 97.833 51.5 160.5c0 62 -17.167 115.167 -51.5 159.5s-81.166 66.5 -140.499 66.5c-58.667 0 -105.334 -22.167 -140.001 -66.5s-52 -97.5 -52 -159.5c0 -62.667 17.333 -116.167 52 -160.5s81.334 -66.5 140.001 -66.5z" />
    <glyph glyph-name="pi" unicode="&#x3c0;" horiz-adv-x="540" 
d="M448 0h-30v456h-296v-456h-30v456h-80v27h516v-27h-80v-456z" />
    <glyph glyph-name="rho" unicode="&#x3c1;" horiz-adv-x="562" 
d="M290 -12c-35.333 0 -68.166 8.5 -98.499 25.5s-55.5 40.167 -75.5 69.5v-267h-30v426c0 72.667 19.167 133 57.5 181s88.833 72 151.5 72c63.333 0 114.333 -24 153 -72s58 -108.333 58 -181c0 -76 -19.833 -137.333 -59.5 -184s-91.834 -70 -156.501 -70zM290 15
c57.333 0 102.167 21.333 134.5 64s48.5 97 48.5 163c0 62 -16 115.167 -48 159.5s-75.667 66.5 -131 66.5c-54.667 0 -98 -22.167 -130 -66.5s-48 -97.5 -48 -159.5v-129c16 -26.667 40 -49.667 72 -69s66 -29 102 -29z" />
    <glyph glyph-name="sigma1" unicode="&#x3c2;" horiz-adv-x="475" 
d="M328 -12c-83.333 0 -148.833 22.332 -196.5 66.999s-71.5 107 -71.5 187c0 71.333 21 131.333 63 180s97 73 165 73c37.333 0 68.666 -6.66699 93.999 -20s49 -33.666 71 -60.999l-22 -18c-35.333 48 -82.333 72 -141 72c-60.667 0 -108.667 -21.5 -144 -64.5
s-53 -96.833 -53 -161.5c0 -74 21.333 -130.333 64 -169s100.334 -58 173.001 -58c38 0 65.5 -5.5 82.5 -16.5s25.5 -30.167 25.5 -57.5c0 -24.667 -11.667 -57.334 -35 -98.001h-30c24.667 42.667 37 75.334 37 98.001c0 18 -6.66699 30.333 -20 37s-34 10 -62 10z" />
    <glyph glyph-name="sigma" unicode="&#x3c3;" horiz-adv-x="570" 
d="M510 234c0 -68.667 -20.8311 -126.833 -62.498 -174.5s-95.834 -71.5 -162.501 -71.5s-120.834 24.167 -162.501 72.5s-62.5 108.833 -62.5 181.5c0 68.667 21.833 126 65.5 172s103.167 69 178.5 69h236v-27h-136c70.667 -53.333 106 -127.333 106 -222z
M477.002 234.001c0 52 -11.6699 97.499 -35.0029 136.499s-53.666 67.5 -90.999 85.5h-47c-66.667 0 -118.5 -21.167 -155.5 -63.5s-55.5 -92.5 -55.5 -150.5c0 -62.667 17.333 -116.167 52 -160.5s81.334 -66.5 140.001 -66.5s105.334 21.833 140.001 65.5
s52 94.834 52 153.501z" />
    <glyph glyph-name="tau" unicode="&#x3c4;" horiz-adv-x="457" 
d="M295 -12c-54.667 0 -82 32.333 -82 97v371h-182v27h395v-27h-183v-371c0 -46.667 17.333 -70 52 -70c23.333 0 42.333 8.66699 57 26l18 -23c-21.333 -20 -46.333 -30 -75 -30z" />
    <glyph glyph-name="upsilon" unicode="&#x3c5;" horiz-adv-x="549" 
d="M264 -12c-57.333 0 -101.333 19.3311 -132 57.998s-46 92.334 -46 161.001v276h30v-276c0 -60 12.833 -107 38.5 -141s62.167 -51 109.5 -51c59.333 0 106.166 22.167 140.499 66.5s51.5 97.833 51.5 160.5c0 96 -28.333 173.667 -85 233l24 20
c62.667 -71.333 94 -155.666 94 -252.999c0 -72.667 -20.667 -133.167 -62 -181.5s-95.666 -72.5 -162.999 -72.5z" />
    <glyph glyph-name="phi" unicode="&#x3c6;" horiz-adv-x="700" 
d="M640 242c0 -73.333 -23.333 -133.331 -70 -179.998s-115 -71.334 -205 -74.001v-172h-30v172c-90 2.66699 -158.333 28.167 -205 76.5s-70 111.166 -70 188.499c0 54 16.167 101.667 48.5 143s73.833 74.333 124.5 99l14 -23c-102.667 -53.333 -154 -126.333 -154 -219
c0 -68 19.667 -124 59 -168s100.333 -67.333 183 -70v480h15c94.667 0 166.667 -23.5 216 -70.5s74 -107.833 74 -182.5zM607 242.002c0 63.333 -19.833 115.999 -59.5 157.999s-100.5 64.667 -182.5 68v-453c82.667 2.66699 143.667 25.334 183 68.001s59 95.667 59 159z
" />
    <glyph glyph-name="chi" unicode="&#x3c7;" horiz-adv-x="472" 
d="M450 -184h-35l-179 315l-179 -315h-35l197 343l-186 324h35l168 -296l168 296h35l-186 -324z" />
    <glyph glyph-name="psi" unicode="&#x3c8;" horiz-adv-x="700" 
d="M365 -184h-29.998v172c-80.667 2.66699 -142.334 23.167 -185.001 61.5s-64 90.833 -64 157.5v276h30v-276c0 -58 18.833 -103.833 56.5 -137.5s91.834 -51.834 162.501 -54.501v652h30v-652c69.333 2.66699 123.166 20.834 161.499 54.501s57.5 79.5 57.5 137.5v276h30
v-276c0 -66.667 -21.333 -119.167 -64 -157.5s-104.334 -58.833 -185.001 -61.5v-172z" />
    <glyph glyph-name="omega" unicode="&#x3c9;" horiz-adv-x="770" 
d="M710 242c0 -72.667 -15.6689 -133.167 -47.002 -181.5s-72.333 -72.5 -123 -72.5c-42.667 0 -77.167 15.833 -103.5 47.5s-43.5 67.5 -51.5 107.5c-8 -40 -25.167 -75.833 -51.5 -107.5s-60.833 -47.5 -103.5 -47.5c-50.667 0 -91.667 24.167 -123 72.5
s-47 108.833 -47 181.5c0 121.333 30.667 205.666 92 252.999l19 -23c-52 -44 -78 -120.667 -78 -230c0 -62.667 12.5 -116.167 37.5 -160.5s58.833 -66.5 101.5 -66.5s76.334 22.167 101.001 66.5s37 97.833 37 160.5v124h30v-124c0 -62.667 12.333 -116.167 37 -160.5
s58.334 -66.5 101.001 -66.5s76.5 22.167 101.5 66.5s37.5 97.833 37.5 160.5c0 109.333 -26 186 -78 230l19 23c61.333 -47.333 92 -131.666 92 -252.999z" />
    <glyph glyph-name="iotadieresis" unicode="&#x3ca;" horiz-adv-x="216" 
d="M237 598c0 -7.33301 -2.83301 -13.833 -8.5 -19.5s-12.167 -8.5 -19.5 -8.5s-13.833 2.83301 -19.5 8.5s-8.5 12.167 -8.5 19.5s2.83301 13.833 8.5 19.5s12.167 8.5 19.5 8.5s13.833 -2.83301 19.5 -8.5s8.5 -12.167 8.5 -19.5zM35 598
c0 -7.33301 -2.83301 -13.833 -8.5 -19.5s-12.167 -8.5 -19.5 -8.5s-13.833 2.83301 -19.5 8.5s-8.5 12.167 -8.5 19.5s2.83301 13.833 8.5 19.5s12.167 8.5 19.5 8.5s13.833 -2.83301 19.5 -8.5s8.5 -12.167 8.5 -19.5zM168 -12c-54.667 0 -82 32.333 -82 97v398h30v-398
c0 -46.667 17.333 -70 52 -70c8 0 14.667 0.666992 20 2l3 -27c-8 -1.33301 -15.667 -2 -23 -2z" />
    <glyph glyph-name="upsilondieresis" unicode="&#x3cb;" horiz-adv-x="549" 
d="M403 598c0 -7.33301 -2.83301 -13.833 -8.5 -19.5s-12.167 -8.5 -19.5 -8.5s-13.833 2.83301 -19.5 8.5s-8.5 12.167 -8.5 19.5s2.83301 13.833 8.5 19.5s12.167 8.5 19.5 8.5s13.833 -2.83301 19.5 -8.5s8.5 -12.167 8.5 -19.5zM201 598
c0 -7.33301 -2.83301 -13.833 -8.5 -19.5s-12.167 -8.5 -19.5 -8.5s-13.833 2.83301 -19.5 8.5s-8.5 12.167 -8.5 19.5s2.83301 13.833 8.5 19.5s12.167 8.5 19.5 8.5s13.833 -2.83301 19.5 -8.5s8.5 -12.167 8.5 -19.5zM264 -12c-57.333 0 -101.333 19.3311 -132 57.998
s-46 92.334 -46 161.001v276h30v-276c0 -60 12.833 -107 38.5 -141s62.167 -51 109.5 -51c59.333 0 106.166 22.167 140.499 66.5s51.5 97.833 51.5 160.5c0 96 -28.333 173.667 -85 233l24 20c62.667 -71.333 94 -155.666 94 -252.999
c0 -72.667 -20.667 -133.167 -62 -181.5s-95.666 -72.5 -162.999 -72.5z" />
    <glyph glyph-name="omicrontonos" unicode="&#x3cc;" horiz-adv-x="570" 
d="M287 575h-22l17 190h52zM285 -12c-66.667 0 -120.834 24.167 -162.501 72.5s-62.5 108.833 -62.5 181.5c0 72 20.833 132.167 62.5 180.5s95.834 72.5 162.501 72.5c67.333 0 121.666 -24 162.999 -72s62 -108.333 62 -181s-20.667 -133.167 -62 -181.5
s-95.666 -72.5 -162.999 -72.5zM285 15c59.333 0 106.166 22.167 140.499 66.5s51.5 97.833 51.5 160.5c0 62 -17.167 115.167 -51.5 159.5s-81.166 66.5 -140.499 66.5c-58.667 0 -105.334 -22.167 -140.001 -66.5s-52 -97.5 -52 -159.5
c0 -62.667 17.333 -116.167 52 -160.5s81.334 -66.5 140.001 -66.5z" />
    <glyph glyph-name="upsilontonos" unicode="&#x3cd;" horiz-adv-x="549" 
d="M277 575h-22l17 190h52zM264 -12c-57.333 0 -101.333 19.3311 -132 57.998s-46 92.334 -46 161.001v276h30v-276c0 -60 12.833 -107 38.5 -141s62.167 -51 109.5 -51c59.333 0 106.166 22.167 140.499 66.5s51.5 97.833 51.5 160.5c0 96 -28.333 173.667 -85 233l24 20
c62.667 -71.333 94 -155.666 94 -252.999c0 -72.667 -20.667 -133.167 -62 -181.5s-95.666 -72.5 -162.999 -72.5z" />
    <glyph glyph-name="omegatonos" unicode="&#x3ce;" horiz-adv-x="770" 
d="M387 575h-22l17 190h52zM710 242c0 -72.667 -15.6689 -133.167 -47.002 -181.5s-72.333 -72.5 -123 -72.5c-42.667 0 -77.167 15.833 -103.5 47.5s-43.5 67.5 -51.5 107.5c-8 -40 -25.167 -75.833 -51.5 -107.5s-60.833 -47.5 -103.5 -47.5
c-50.667 0 -91.667 24.167 -123 72.5s-47 108.833 -47 181.5c0 121.333 30.667 205.666 92 252.999l19 -23c-52 -44 -78 -120.667 -78 -230c0 -62.667 12.5 -116.167 37.5 -160.5s58.833 -66.5 101.5 -66.5s76.334 22.167 101.001 66.5s37 97.833 37 160.5v124h30v-124
c0 -62.667 12.333 -116.167 37 -160.5s58.334 -66.5 101.001 -66.5s76.5 22.167 101.5 66.5s37.5 97.833 37.5 160.5c0 109.333 -26 186 -78 230l19 23c61.333 -47.333 92 -131.666 92 -252.999z" />
    <glyph glyph-name="afii10023" unicode="&#x401;" horiz-adv-x="558" 
d="M422 765c0 -7.33301 -2.83301 -13.833 -8.5 -19.5s-12.167 -8.5 -19.5 -8.5s-13.833 2.83301 -19.5 8.5s-8.5 12.167 -8.5 19.5s2.83301 13.833 8.5 19.5s12.167 8.5 19.5 8.5s13.833 -2.83301 19.5 -8.5s8.5 -12.167 8.5 -19.5zM220 765
c0 -7.33301 -2.83301 -13.833 -8.5 -19.5s-12.167 -8.5 -19.5 -8.5s-13.833 2.83301 -19.5 8.5s-8.5 12.167 -8.5 19.5s2.83301 13.833 8.5 19.5s12.167 8.5 19.5 8.5s13.833 -2.83301 19.5 -8.5s8.5 -12.167 8.5 -19.5zM496 0h-408v667h408v-30h-376v-279h369v-30h-369
v-298h376v-30z" />
    <glyph glyph-name="afii10051" unicode="&#x402;" horiz-adv-x="777" 
d="M497 -12l-0.000976562 29.998c50 0 89.167 16.833 117.5 50.5s42.5 80.5 42.5 140.5v5c0 66.667 -16 116.834 -48 150.501s-78.333 50.5 -139 50.5c-60 0 -118.333 -6.66699 -175 -20v-395h-32v637h-225v30h483v-30h-226v-212c68 13.333 126.333 20 175 20
c72 0 126.5 -20.167 163.5 -60.5s55.5 -97.166 55.5 -170.499v-5c0 -73.333 -18.167 -128.5 -54.5 -165.5s-82.166 -55.5 -137.499 -55.5z" />
    <glyph glyph-name="afii10052" unicode="&#x403;" horiz-adv-x="533" 
d="M446 867l-175 -144h-30l160 144h45zM120 0h-32v667h408v-30h-376v-637z" />
    <glyph glyph-name="afii10053" unicode="&#x404;" horiz-adv-x="667" 
d="M398 -12c-94 0 -172.999 32.3311 -236.999 96.998s-96 147.334 -96 248.001s32 183.334 96 248.001s143 97 237 97s171.333 -35 232 -105l-25 -22c-24 30 -54.167 53.667 -90.5 71s-75.166 26 -116.499 26c-80.667 0 -149 -26.833 -205 -80.5s-86.667 -123.5 -92 -209.5
h381v-30h-382c0.666992 -90.667 29.5 -165 86.5 -223s127.5 -87 211.5 -87c41.333 0 80.166 8.66699 116.499 26s66.5 41 90.5 71l26 -21c-62.667 -70.667 -140.334 -106 -233.001 -106z" />
    <glyph glyph-name="afii10054" unicode="&#x405;" horiz-adv-x="575" 
d="M286 -12c-50 0 -95.002 9.66602 -135.002 28.999s-72.667 45 -98 77l26 23c54 -66 123 -99 207 -99c36.667 0 68.334 4.83301 95.001 14.5s46.667 22.334 60 38.001s23 31.667 29 48s9 33.166 9 50.499c0 34 -10 62.5 -30 85.5s-45 39.5 -75 49.5l-97.5 31.5l-97.5 32
c-30 10.333 -55 27.5 -75 51.5s-30 53.667 -30 89c0 52 20.333 93.333 61 124s90 46 148 46c93.333 0 165.333 -31.333 216 -94l-25 -23c-44.667 58 -108.334 87 -191.001 87c-49.333 0 -90.666 -13.167 -123.999 -39.5s-50 -59.833 -50 -100.5c0 -25.333 7.5 -47 22.5 -65
s34.333 -32 58 -42s50 -19.167 79 -27.5s57.833 -17.333 86.5 -27s54.834 -21.167 78.501 -34.5s43 -32.166 58 -56.499s22.5 -53.166 22.5 -86.499c0 -20.667 -3.66699 -40.834 -11 -60.501s-19 -39 -35 -58s-39.667 -34.167 -71 -45.5s-68.333 -17 -111 -17z" />
    <glyph glyph-name="afii10055" unicode="&#x406;" horiz-adv-x="208" 
d="M120 0h-32v667h32v-667z" />
    <glyph glyph-name="afii10056" unicode="&#x407;" horiz-adv-x="208" 
d="M120 0h-32v667h32v-667zM233 765c0 -7.33301 -2.83301 -13.833 -8.5 -19.5s-12.167 -8.5 -19.5 -8.5s-13.833 2.83301 -19.5 8.5s-8.5 12.167 -8.5 19.5s2.83301 13.833 8.5 19.5s12.167 8.5 19.5 8.5s13.833 -2.83301 19.5 -8.5s8.5 -12.167 8.5 -19.5zM31 765
c0 -7.33301 -2.83301 -13.833 -8.5 -19.5s-12.167 -8.5 -19.5 -8.5s-13.833 2.83301 -19.5 8.5s-8.5 12.167 -8.5 19.5s2.83301 13.833 8.5 19.5s12.167 8.5 19.5 8.5s13.833 -2.83301 19.5 -8.5s8.5 -12.167 8.5 -19.5z" />
    <glyph glyph-name="afii10057" unicode="&#x408;" horiz-adv-x="465" 
d="M185 -12c-71.333 0 -127.666 29 -168.999 87l27 24c38 -54 85.333 -81 142 -81c48.667 0 87.5 15.5 116.5 46.5s43.5 71.167 43.5 120.5v482h32v-482c0 -63.333 -18.333 -112 -55 -146s-82.334 -51 -137.001 -51z" />
    <glyph glyph-name="afii10058" unicode="&#x409;" horiz-adv-x="1042" 
d="M38 -12v30.001c32.667 0 59.667 8.16699 81 24.5s40.833 48.833 58.5 97.5s32.5 116.667 44.5 204l44 323h341v-289h199c59.333 0 106.666 -18.333 141.999 -55s53 -81.334 53 -134.001c0 -53.333 -17.5 -98.166 -52.5 -134.499s-82.5 -54.5 -142.5 -54.5h-231v637h-281
l-40 -297c-8 -60 -17.667 -111.333 -29 -154s-23.166 -76.667 -35.499 -102s-26.833 -45.333 -43.5 -60s-33.167 -24.334 -49.5 -29.001s-35.833 -7 -58.5 -7zM805 348.001l-198 -0.00195312v-318h198c48.667 0 87.667 14.833 117 44.5s44 67.834 44 114.501
s-14.667 84.834 -44 114.501s-68.333 44.5 -117 44.5z" />
    <glyph glyph-name="afii10059" unicode="&#x40a;" horiz-adv-x="1042" 
d="M88 0v667h32v-309h455v309h32v-309h209c56 0 100.833 -17.167 134.5 -51.5s50.5 -76.833 50.5 -127.5s-16.667 -93.167 -50 -127.5s-78.333 -51.5 -135 -51.5h-241v328h-455v-328h-32zM607 30h209c44.667 0 80.834 14 108.501 42s41.5 63.667 41.5 107
s-13.833 79 -41.5 107s-63.834 42 -108.501 42h-209v-298z" />
    </font>
</defs>
</svg>
