<svg><defs><font horiz-adv-x="567"><font-face ascent="790" bbox="-172 -281.003 1119 908" cap-height="667" descent="-210" panose-1="2 0 5 6 3 0 0 2 0 4" underline-position="-113" underline-thickness="20" unicode-range="U+000D-U+FB04" x-height="482.999"/><missing-glyph d="M422-90h-351v842h351v-842zM390-60v782h-288v-782h288z" horiz-adv-x="493"/><glyph d="M506 0l-105 .00097656v391h-80v92h80v27c0 52.667 14 93.667 42 123s65 44 111 44c34 0 62-6.33301 84-19l-23-78c-10.667 7.33301-24.667 11-42 11-20.667 0-37-6.83301-49-20.5s-18-33.834-18-60.501v-27h98v-92h-98v-391zM737 542.001c-17.333 0-32.5 6.33301-45.5 19s-19.5 28-19.5 46 6.5 33.333 19.5 46 28.167 19 45.5 19c18 0 33.333-6.33301 46-19s19-28 19-46-6.33301-33.333-19-46-28-19-46-19zM630-195.999c-26.667 0-48 2.66797-64 8.00098s-32.667 14.333-50 27l31 78c20-18 42.333-27 67-27 21.333 0 38.5 6.83301 51.5 20.5s19.5 34.167 19.5 61.5v511h105v-511c0-52.667-13.667-93.834-41-123.501s-67-44.5-119-44.5zM198 .00195312l-105.001.00097656v391h-80v92h80v27c0 52 13.833 92.833 41.5 122.5s64.834 44.5 111.501 44.5c50 0 88.667-14 116-42l-41-65c-15.333 14-34 21-56 21-20.667 0-37-6.83301-49-20.5s-18-33.834-18-60.501v-27h98v-92h-98v-391z" glyph-name="f_f_j" horiz-adv-x="858" unicode="&#x66;&#x66;&#x6a;"/><glyph d="M198 0l-105 .00097656v391h-80v92h80v27c0 52.667 14 93.667 42 123s65 44 111 44c34 0 62-6.33301 84-19l-23-78c-10.667 7.33301-24.667 11-42 11-20.667 0-37-6.83301-49-20.5s-18-33.834-18-60.501v-27h98v-92h-98v-391zM428 542.001c-17.333 0-32.5 6.33301-45.5 19s-19.5 28-19.5 46 6.5 33.333 19.5 46 28.167 19 45.5 19c18 0 33.333-6.33301 46-19s19-28 19-46-6.33301-33.333-19-46-28-19-46-19zM321-195.999c-26.667 0-48 2.66797-64 8.00098s-32.667 14.333-50 27l31 78c20-18 42.333-27 67-27 21.333 0 38.5 6.83301 51.5 20.5s19.5 34.167 19.5 61.5v511h105v-511c0-52.667-13.667-93.834-41-123.501s-67-44.5-119-44.5z" glyph-name="f_j" horiz-adv-x="549" unicode="&#x66;&#x6a;"/><glyph d="M198 0l-105.001.00097656v391h-80v92h80v27c0 52 13.833 92.833 41.5 122.5s64.834 44.5 111.501 44.5c50 0 88.667-14 116-42l-41-65c-15.333 14-34 21-56 21-20.667 0-37-6.83301-49-20.5s-18-33.834-18-60.501v-27h98v-92h-98v-391zM505.999.00097656l-105.001.00097656v391h-80v92h80v27c0 52 13.833 92.833 41.5 122.5s64.834 44.5 111.501 44.5c50 0 88.667-14 116-42l-41-65c-15.333 14-34 21-56 21-20.667 0-37-6.83301-49-20.5s-18-33.834-18-60.501v-27h98v-92h-98v-391z" glyph-name="f_f" horiz-adv-x="617" unicode="&#x66;&#x66;"/><glyph d="M198 0l-105 .00097656v391h-80v92h80v27c0 52.667 14 93.667 42 123s65 44 111 44c34 0 62-6.33301 84-19l-23-78c-10.667 7.33301-24.667 11-42 11-20.667 0-37-6.83301-49-20.5s-18-33.834-18-60.501v-27h98v-92h-98v-391zM428 542.001c-17.333 0-32.5 6.33301-45.5 19s-19.5 28-19.5 46 6.5 33.333 19.5 46 28.167 19 45.5 19c18 0 33.333-6.33301 46-19s19-28 19-46-6.33301-33.333-19-46-28-19-46-19zM481 .00097656h-105v483h105v-483z" glyph-name="fi" horiz-adv-x="549" unicode="&#x66;&#x69;"/><glyph d="M198 0l-105 .00097656v391h-80v92h80v27c0 52.667 14 93.667 42 123s65 44 111 44c34 0 62-6.33301 84-19l-23-78c-10.667 7.33301-24.667 11-42 11-20.667 0-37-6.83301-49-20.5s-18-33.834-18-60.501v-27h98v-92h-98v-391zM481 .00097656h-105v667h105v-667z" glyph-name="fl" horiz-adv-x="549" unicode="&#x66;&#x6c;"/><glyph d="M506 0l-105 .00097656v391h-80v92h80v27c0 52.667 14 93.667 42 123s65 44 111 44c34 0 62-6.33301 84-19l-23-78c-10.667 7.33301-24.667 11-42 11-20.667 0-37-6.83301-49-20.5s-18-33.834-18-60.501v-27h98v-92h-98v-391zM737 542.001c-17.333 0-32.5 6.33301-45.5 19s-19.5 28-19.5 46 6.5 33.333 19.5 46 28.167 19 45.5 19c18 0 33.333-6.33301 46-19s19-28 19-46-6.33301-33.333-19-46-28-19-46-19zM790 .00097656h-105v483h105v-483zM198 .00097656l-105.001.00097656v391h-80v92h80v27c0 52 13.833 92.833 41.5 122.5s64.834 44.5 111.501 44.5c50 0 88.667-14 116-42l-41-65c-15.333 14-34 21-56 21-20.667 0-37-6.83301-49-20.5s-18-33.834-18-60.501v-27h98v-92h-98v-391z" glyph-name="f_f_i" horiz-adv-x="858" unicode="&#x66;&#x66;&#x69;"/><glyph d="M506 0l-105 .00097656v391h-80v92h80v27c0 52.667 14 93.667 42 123s65 44 111 44c34 0 62-6.33301 84-19l-23-78c-10.667 7.33301-24.667 11-42 11-20.667 0-37-6.83301-49-20.5s-18-33.834-18-60.501v-27h98v-92h-98v-391zM790 .00097656h-105v667h105v-667zM198 .00097656l-105.001.00097656v391h-80v92h80v27c0 52 13.833 92.833 41.5 122.5s64.834 44.5 111.501 44.5c50 0 88.667-14 116-42l-41-65c-15.333 14-34 21-56 21-20.667 0-37-6.83301-49-20.5s-18-33.834-18-60.501v-27h98v-92h-98v-391z" glyph-name="f_f_l" horiz-adv-x="858" unicode="&#x66;&#x66;&#x6c;"/><glyph d="M198 0l-105 .00097656v391h-80v92h80v27c0 52.667 14 93.667 42 123s65 44 111 44c34 0 62-6.33301 84-19l-23-78c-10.667 7.33301-24.667 11-42 11-20.667 0-37-6.83301-49-20.5s-18-33.834-18-60.501v-27h98v-92h-98v-391zM481 145.001c11.333-18 28.833-33.166 52.5-45.499s47.5-18.5 71.5-18.5c41.333 0 74.5 14.833 99.5 44.5s37.5 68.167 37.5 115.5-12.5 86-37.5 116-58.167 45-99.5 45c-24 0-47.667-6.33301-71-19s-41-28.334-53-47.001v-191zM481 .00195312h-105v667h105v-251c39.333 52.667 91 79 155 79 62.667 0 114-23.167 154-69.5s60-107.833 60-184.5c0-78-20-139.667-60-185s-91.333-68-154-68c-63.333 0-115 26-155 78v-66z" glyph-name="f_b" horiz-adv-x="889" unicode="&#x66;&#x62;"/><glyph d="M198 0l-105 .00097656v391h-80v92h80v27c0 52.667 14 93.667 42 123s65 44 111 44c34 0 62-6.33301 84-19l-23-78c-10.667 7.33301-24.667 11-42 11-20.667 0-37-6.83301-49-20.5s-18-33.834-18-60.501v-27h98v-92h-98v-391zM808 .00097656l-104.999.00097656v304c0 35.333-8.5 60.5-25.5 75.5s-41.167 22.5-72.5 22.5c-24.667 0-48-6.33301-70-19s-40-28-54-46v-337h-105v667h105v-250c18 21.333 42.167 39.666 72.5 54.999s63.166 23 98.499 23c104 0 156-51 156-153v-342z" glyph-name="f_h" horiz-adv-x="876" unicode="&#x66;&#x68;"/><glyph d="M198 0l-105 .00097656v391h-80v92h80v27c0 52.667 14 93.667 42 123s65 44 111 44c34 0 62-6.33301 84-19l-23-78c-10.667 7.33301-24.667 11-42 11-20.667 0-37-6.83301-49-20.5s-18-33.834-18-60.501v-27h98v-92h-98v-391zM828 .00097656h-132l-148 199-67-69v-130h-105v667h105v-417l213 233h130l-201-219z" glyph-name="f_k" horiz-adv-x="835" unicode="&#x66;&#x6b;"/><glyph d="M422-90h-351v842h351v-842zM390-60v782h-288v-782h288z" glyph-name=".notdef" horiz-adv-x="493"/><glyph glyph-name=".null" horiz-adv-x="0"/><glyph glyph-name=".null" horiz-adv-x="0"/><glyph glyph-name="CR" horiz-adv-x="0" unicode="&#xd;"/><glyph glyph-name="space" horiz-adv-x="257" unicode="&#x20;"/><glyph d="M168 204h-91l-19 463h128zM122-10c-18.667 0-34.834 6.83301-48.501 20.5s-20.5 29.834-20.5 48.501c0 19.333 6.83301 35.833 20.5 49.5s29.834 20.5 48.501 20.5 35-6.83301 49-20.5 21-30.167 21-49.5c0-18.667-7-34.834-21-48.501s-30.333-20.5-49-20.5z" glyph-name="exclam" horiz-adv-x="245" unicode="&#x21;"/><glyph d="M131 391h-48c-23.333 140-35 215.667-35 227 0 16 5.66699 29.833 17 41.5s25.333 17.5 42 17.5c16 0 29.833-5.83301 41.5-17.5s17.5-25.5 17.5-41.5zM296 391h-47c-23.333 140-35 215.667-35 227 0 16 5.66699 29.833 17 41.5s25.333 17.5 42 17.5c16 0 29.667-5.83301 41-17.5s17-25.5 17-41.5z" glyph-name="quotedbl" horiz-adv-x="379" unicode="&#x22;"/><glyph d="M322 0h-80l59 174h-102l-58-174h-80l58 174h-100l22 69h102l59 180h-102l21 68h105l58 176h80l-58-176h101l58 176h80l-59-176h101l-20-68h-104l-60-180h105l-21-69h-107zM323 243l60 180h-101l-59-180h100z" glyph-name="numbersign" horiz-adv-x="606" unicode="&#x23;"/><glyph d="M268-100l.00097656 90.001c-99.333 7.33301-177 42-233 104l65 90c46-49.333 102-79 168-89v193c-31.333 8-57.333 15.833-78 23.5s-42.334 18.667-65.001 33-39.834 33-51.501 56-17.5 50.167-17.5 81.5c0 51.333 19.333 95 58 131s90 56.667 154 62v93h80v-94c80.667-8.66699 147.667-38.667 201-90l-67-87c-36.667 36-81.334 59.333-134.001 70v-172c24.667-6.66699 45.667-13 63-19s36.5-14.5 57.5-25.5 37.833-23 50.5-36 23.334-29.833 32.001-50.5 13-44 13-70c0-54.667-18.167-100.834-54.5-138.501s-90.166-59.5-161.499-65.5v-90h-80zM445.001 183.001c0 20.667-8.33301 37.499-25 50.499s-40.667 24.167-72 33.5v-173c32.667 5.33301 57 16.333 73 33s24 35.334 24 56.001zM176.001 490c0-32 30.667-56.667 92-74v156c-28.667-2.66699-51.167-11.5-67.5-26.5s-24.5-33.5-24.5-55.5z" glyph-name="dollar" horiz-adv-x="605" unicode="&#x24;"/><glyph d="M193 346c-48.667 0-88.334 15.5-119.001 46.5s-46 70.167-46 117.5c0 48 15.333 87.833 46 119.5s70.334 47.5 119.001 47.5c49.333 0 89.5-15.833 120.5-47.5s46.5-71.5 46.5-119.5c0-47.333-15.5-86.5-46.5-117.5s-71.167-46.5-120.5-46.5zM195 0h-66l426 667h67zM552-12c-48.667 0-88.334 15.5-119.001 46.5s-46 70.167-46 117.5c0 48 15.333 87.833 46 119.5s70.334 47.5 119.001 47.5 88.5-16 119.5-48 46.5-71.667 46.5-119-15.5-86.5-46.5-117.5-70.833-46.5-119.5-46.5zM193 412c26 0 47.333 9.16699 64 27.5s25 41.833 25 70.5c0 30-8.33301 54.167-25 72.5s-38 27.5-64 27.5-47.167-9.16699-63.5-27.5-24.5-42.5-24.5-72.5c0-28.667 8.33301-52.167 25-70.5s37.667-27.5 63-27.5zM552 54c26 0 47.333 9.16699 64 27.5s25 41.833 25 70.5c0 30-8.33301 54.167-25 72.5s-38 27.5-64 27.5-47.167-9.16699-63.5-27.5-24.5-42.5-24.5-72.5c0-28.667 8.16699-52.167 24.5-70.5s37.5-27.5 63.5-27.5z" glyph-name="percent" horiz-adv-x="746" unicode="&#x25;"/><glyph d="M627 0l-136.999-.00097656c-14.667 12.667-34.334 32-59.001 58-55.333-46.667-117.666-70-186.999-70-62.667 0-114.167 16.5-154.5 49.5s-60.5 79.833-60.5 140.5c0 46.667 12.833 84.834 38.5 114.501s61.167 56.5 106.5 80.5c-31.333 56-47 104.667-47 146 0 45.333 17.167 83 51.5 113s77.5 45 129.5 45c47.333 0 86.666-12.333 117.999-37s47-58 47-100c0-24-4.33301-45.667-13-65s-22.167-36.5-40.5-51.5-35.333-27-51-36-36.5-19.833-62.5-32.5c19.333-26.667 41.333-54 66-82 24.667-30 46.667-55.667 66-77 29.333 46 51.333 92.333 66 139l86-39c-31.333-68.667-62.333-123.667-93-165 36.667-39.333 80-83 130-131zM257.001 71.999c40 0 78.333 15.667 115 47-42 45.333-69.333 76-82 92-28 34-52.667 66-74 96-50-32.667-75-72.667-75-120 0-35.333 11.333-63.333 34-84s50-31 82-31zM233.001 516.999c0-28.667 11.001-62.333 33.001-101 37.333 17.333 65.666 35 84.999 53s29 40 29 66c0 20-6.33301 35.667-19 47s-28.667 17-48 17c-22.667 0-41.667-7.66699-57-23s-23-35-23-59z" glyph-name="ampersand" horiz-adv-x="644" unicode="&#x26;"/><glyph d="M131 391h-48c-23.333 140-35 215.667-35 227 0 16 5.66699 29.833 17 41.5s25.333 17.5 42 17.5c16 0 29.833-5.83301 41.5-17.5s17.5-25.5 17.5-41.5z" glyph-name="quotesingle" horiz-adv-x="214" unicode="&#x27;"/><glyph d="M258-149l-65-49.998c-47.333 57.333-84.333 125.166-111 203.499s-40 157.833-40 238.5c0 80 13.333 159.167 40 237.5s63.667 146.5 111 204.5l65-49c-34.667-65.333-60.334-128.333-77.001-189s-25-128.667-25-204 8.33301-143.333 25-204 42.334-123.334 77.001-188.001z" glyph-name="parenleft" horiz-adv-x="276" unicode="&#x28;"/><glyph d="M82-199l-65 49.998c35.333 64.667 61.333 127.334 78 188.001s25 128.667 25 204-8.33301 143.333-25 204-42.667 123.667-78 189l65 49c47.333-58 84.5-126 111.5-204s40.5-157.333 40.5-238-13.5-160.167-40.5-238.5-64.167-146.166-111.5-203.499z" glyph-name="parenright" horiz-adv-x="276" unicode="&#x29;"/><glyph d="M201 376h-56l5 112-94-61-27 48 99 51-99 51 27 48 94-60-5 112h56l-6-112 94 60 28-48-99-51 99-51-28-48-94 61z" glyph-name="asterisk" horiz-adv-x="346" unicode="&#x2a;"/><glyph d="M473 303h-185v-207h-74v207h-185v68h185v200h74v-200h185v-68z" glyph-name="plus" horiz-adv-x="502" unicode="&#x2b;"/><glyph d="M198 38c0-33.333-8.5-65.1689-25.5-95.502s-39.833-55.5-68.5-75.5l-47 39c16.667 10 32 24 46 42s22.667 35.333 26 52c-6-2-11.667-3-17-3-17.333 0-31.666 5.83301-42.999 17.5s-17 26.834-17 45.501 6.66699 34.834 20 48.501 29.333 20.5 48 20.5c21.333 0 39.666-8.16699 54.999-24.5s23-38.5 23-66.5z" glyph-name="comma" horiz-adv-x="245" unicode="&#x2c;"/><glyph d="M270 197h-240v90h240v-90z" glyph-name="hyphen" horiz-adv-x="300" unicode="&#x2d;"/><glyph d="M122-11c-18.667 0-35 6.83301-49 20.5s-21 30.167-21 49.5 7 35.833 21 49.5 30.333 20.5 49 20.5 35-6.83301 49-20.5 21-30.167 21-49.5-7-35.833-21-49.5-30.333-20.5-49-20.5z" glyph-name="period" horiz-adv-x="245" unicode="&#x2e;"/><glyph d="M78-20h-78l237 707h78z" glyph-name="slash" horiz-adv-x="315" unicode="&#x2f;"/><glyph d="M308-12c-44.667 0-84.667 10-120 30s-63.333 46.667-84 80-36.334 70-47.001 110-16 81.667-16 125 5.33301 85 16 125 26.334 76.5 47.001 109.5 48.667 59.5 84 79.5 75.333 30 120 30 84.667-10 120-30 63.333-46.5 84-79.5 36.334-69.5 47.001-109.5 16-81.667 16-125-5.33301-85-16-125-26.334-76.667-47.001-110-48.667-60-84-80-75.333-30-120-30zM308 92c50.667 0 88 22.667 112 68s36 103 36 173c0 44.667-4.5 84.334-13.5 119.001s-25 63.5-48 86.5-51.833 34.5-86.5 34.5-63.5-11.5-86.5-34.5-39-51.833-48-86.5-13.5-74.334-13.5-119.001c0-70 12-127.667 36-173s61.333-68 112-68z" glyph-name="zero" horiz-adv-x="616" unicode="&#x30;"/><glyph d="M309 0h-117v515l-109-113-68 71 192 194h102v-667z" glyph-name="one" horiz-adv-x="380" unicode="&#x31;"/><glyph d="M533 0h-483v92c139.333 105.333 234.166 183.5 284.499 234.5s75.5 99.167 75.5 144.5c0 32.667-11.833 57.834-35.5 75.501s-52.167 26.5-85.5 26.5c-73.333 0-133.333-26.667-180-80l-68 77c28.667 34.667 64.834 61.167 108.501 79.5s89.5 27.5 137.5 27.5c68 0 125.333-18.333 172-55s70-87 70-151c0-57.333-24-114.333-72-171s-121.333-122.334-220-197.001h296v-103z" glyph-name="two" horiz-adv-x="595" unicode="&#x32;"/><glyph d="M276-12c-56.667 0-106.832 10.001-150.499 30.001s-77.5 46-101.5 78l63 77c21.333-24.667 48.666-44.334 81.999-59.001s67.666-22 102.999-22c43.333 0 77.333 9.16699 102 27.5s37 43.166 37 74.499c0 62.667-49.333 94-148 94-44.667 0-70.334-.333008-77.001-1v105c8-.666992 33.667-1 77-1 41.333 0 74.5 7.33301 99.5 22s37.5 36.667 37.5 66c0 30-12.667 53.167-38 69.5s-57.666 24.5-96.999 24.5c-65.333 0-122.666-24.667-171.999-74l-60 73c59.333 70 140.333 105 243 105 72.667 0 131-16.167 175-48.5s66-76.166 66-131.499c0-41.333-14.5-75.5-43.5-102.5s-62.833-43.833-101.5-50.5c38-3.33301 73.333-19.333 106-48s49-66.667 49-114c0-57.333-22.833-104-68.5-140s-106.5-54-182.5-54z" glyph-name="three" horiz-adv-x="574" unicode="&#x33;"/><glyph d="M463 0h-117v151h-318v94l274 422h161v-413h89v-103h-89v-151zM346 254v308l-203-308h203z" glyph-name="four" horiz-adv-x="580" unicode="&#x34;"/><glyph d="M304-12c-107.333 0-190 34.334-248 103.001l67 80c46.667-52.667 106.667-79 180-79 41.333 0 74.5 11.167 99.5 33.5s37.5 50.166 37.5 83.499c0 36-12.167 64.833-36.5 86.5s-56.833 32.5-97.5 32.5c-56.667 0-105.334-19.333-146.001-58l-83 24v373h437v-103h-320v-193c38.667 38.667 89 58 151 58 58.667 0 108.834-19.5 150.501-58.5s62.5-91.167 62.5-156.5c0-68.667-23.5-123.5-70.5-164.5s-108.167-61.5-183.5-61.5z" glyph-name="five" horiz-adv-x="600" unicode="&#x35;"/><glyph d="M316-12c-47.333 0-89.001 9.16504-125.001 27.498s-64.667 43.5-86 75.5-37.333 68.167-48 108.5-16 84.5-16 132.5c0 100.667 25.667 183.334 77 248.001s123.666 97 216.999 97c77.333 0 141.333-24.667 192-74l-55-89c-37.333 39.333-83 59-137 59-53.333 0-96-21.333-128-64s-48-94.667-48-156c0-8.66699.333008-15 1-19 16.667 24.667 41.334 46.334 74.001 65.001s67.667 28 105 28c63.333 0 116.333-18.833 159-56.5s64-90.5 64-158.5c0-63.333-22.667-116.5-68-159.5s-104.666-64.5-177.999-64.5zM309.999 91.998c41.333 0 74 11.834 98 35.501s36 50.5 36 80.5c0 38.667-13 68.167-39 88.5s-58.667 30.5-98 30.5c-28 0-55-7.16699-81-21.5s-47.667-33.5-65-57.5c4-42.667 18-79.334 42-110.001s59.667-46 107-46z" glyph-name="six" horiz-adv-x="601" unicode="&#x36;"/><glyph d="M249 0h-128l252 564h-346v103h481v-81z" glyph-name="seven" horiz-adv-x="532" unicode="&#x37;"/><glyph d="M298-12c-72 0-132.665 16.167-181.998 48.5s-74 77.166-74 134.499c0 40.667 14.167 76 42.5 106s64.166 52.333 107.499 67c-41.333 13.333-74.833 33-100.5 59s-38.5 59-38.5 99c0 29.333 7.16699 55.666 21.5 78.999s33.333 41.666 57 54.999 49.667 23.5 78 30.5 57.833 10.5 88.5 10.5 60-3.5 88-10.5 54-17.167 78-30.5 43.167-31.666 57.5-54.999 21.5-49.666 21.5-78.999c0-75.333-46.667-128-140-158 43.333-14.667 79.166-37 107.499-67s42.5-65.333 42.5-106c0-57.333-24.5-102.166-73.5-134.499s-109.5-48.5-181.5-48.5zM298.002 390c18 3.33301 35.333 7.83301 52 13.5s33.167 15.667 49.5 30 24.5 31.166 24.5 50.499c0 27.333-11.833 49-35.5 65s-53.834 24-90.501 24c-37.333 0-67.833-8-91.5-24s-35.5-37.667-35.5-65c0-19.333 8.33301-36.166 25-50.499s33.334-24.333 50.001-30 34-10.167 52-13.5zM298.002 92c38 0 70.333 8.66699 97 26s40 40 40 68c0 30-15.5 54.167-46.5 72.5s-61.167 29.166-90.5 32.499c-17.333-2-35.666-6.5-54.999-13.5s-38-18.667-56-35-27-35.166-27-56.499c0-28 13.167-50.667 39.5-68s59.166-26 98.499-26z" glyph-name="eight" horiz-adv-x="595" unicode="&#x38;"/><glyph d="M265-11c-78 0-141.668 24.666-191.001 73.999l54 88c37.333-38.667 83-58 137-58 56.667 0 100.167 21.5 130.5 64.5s45.5 94.5 45.5 154.5v20c-17.333-24.667-42.333-46.5-75-65.5s-67.334-28.5-104.001-28.5c-63.333 0-116.5 19-159.5 57s-64.5 91-64.5 159c0 63.333 22.833 116.5 68.5 159.5s104.834 64.5 177.501 64.5c62.667 0 115.167-16.167 157.5-48.5s72.5-73.666 90.5-123.999 27-107.833 27-172.5c0-100-25.667-182.333-77-247s-123.666-97-216.999-97zM292.999 338.999c28.667 0 55.998 7 81.998 21s47.333 33 64 57c-3.33301 42-17.166 78.667-41.499 110s-60.166 47-107.499 47c-40.667 0-73-12-97-36s-36-50.667-36-80c0-38.667 13-68.167 39-88.5s58.333-30.5 97-30.5z" glyph-name="nine" horiz-adv-x="601" unicode="&#x39;"/><glyph d="M122 350c-18.667 0-35 7-49 21s-21 30.333-21 49 7 35 21 49 30.333 21 49 21 35-7 49-21 21-30.333 21-49-7-35-21-49-30.333-21-49-21zM122-11c-18.667 0-35 6.83301-49 20.5s-21 30.167-21 49.5 7 35.833 21 49.5 30.333 20.5 49 20.5 35-6.83301 49-20.5 21-30.167 21-49.5-7-35.833-21-49.5-30.333-20.5-49-20.5z" glyph-name="colon" horiz-adv-x="245" unicode="&#x3a;"/><glyph d="M122 350c-18.667 0-35 7-49 21s-21 30.333-21 49 7 35 21 49 30.333 21 49 21 35-7 49-21 21-30.333 21-49-7-35-21-49-30.333-21-49-21zM198 41c0-33.333-8.5-65.1689-25.5-95.502s-39.833-55.5-68.5-75.5l-47 39c16.667 10 32 24 46 42s22.667 35.333 26 52c-6-2-11.667-3-17-3-17.333 0-31.666 5.83301-42.999 17.5s-17 26.834-17 45.501 6.66699 34.834 20 48.501 29.333 20.5 48 20.5c21.333 0 39.666-8.16699 54.999-24.5s23-38.5 23-66.5z" glyph-name="semicolon" horiz-adv-x="245" unicode="&#x3b;"/><glyph d="M473 90l-444 207v75l444 208v-81l-365-165 365-164v-80z" glyph-name="less" horiz-adv-x="502" unicode="&#x3c;"/><glyph d="M473 395h-444v68h444v-68zM473 205h-444v67h444v-67z" glyph-name="equal" horiz-adv-x="502" unicode="&#x3d;"/><glyph d="M473 297l-444-207v80l364 164-364 165v81l444-208v-75z" glyph-name="greater" horiz-adv-x="502" unicode="&#x3e;"/><glyph d="M189 196c-24 22.667-36.001 50.999-36.001 84.999 0 27.333 8.33301 51.833 25 73.5s35.167 38.5 55.5 50.5 38.833 26.333 55.5 43 25 34.334 25 53.001c0 20.667-8.16699 37.834-24.5 51.501s-39.833 20.5-70.5 20.5c-54.667 0-101-23.333-139-70l-67 75c54 66 126.667 99 218 99 62 0 111.333-14.667 148-44s55-67 55-113c0-27.333-6.16699-51.833-18.5-73.5s-27.333-39.334-45-53.001-35.167-26.5-52.5-38.5-32.166-25.167-44.499-39.5-18.5-29.5-18.5-45.5c0-17.333 7.33301-32.333 22-45zM224.999-11.001c-19.333 0-35.833 6.83301-49.5 20.5s-20.5 30.167-20.5 49.5 6.83301 35.833 20.5 49.5 30.167 20.5 49.5 20.5 35.833-6.83301 49.5-20.5 20.5-30.167 20.5-49.5-6.83301-35.833-20.5-49.5-30.167-20.5-49.5-20.5z" glyph-name="question" horiz-adv-x="458" unicode="&#x3f;"/><glyph d="M352-70c-90.667 0-166.168 30.166-226.501 90.499s-90.5 134.833-90.5 223.5c0 106 40 198.167 120 276.5s172.333 117.5 277 117.5c92.667 0 168.334-30 227.001-90s88-133.667 88-221c0-76-19.333-135.333-58-178s-81.667-64-129-64c-28 0-50.167 7.33301-66.5 22s-25.833 33-28.5 55l-1 6c-18-24.667-40.333-44.667-67-60s-54.334-23-83.001-23c-46.667 0-84 15.333-112 46s-42 70.667-42 120c0 66.667 23.5 124.5 70.5 173.5s100.167 73.5 159.5 73.5c60 0 102-23.667 126-71l12 56h94l-54-255c-1.33301-8-2-15.667-2-23 0-15.333 3.83301-27.166 11.5-35.499s17.5-12.5 29.5-12.5c24 0 46.667 14.333 68 43s32 71 32 127c0 81.333-25.5 147.333-76.5 198s-118.5 76-202.5 76c-95.333 0-178.5-35.667-249.5-107s-106.5-154-106.5-248c0-80 26.833-146.667 80.5-200s121.5-80 203.5-80c64.667 0 126 18.333 184 55l20-28c-65.333-42-134.666-63-207.999-63zM347.999 159.999c48.667 0 90.999 25.334 126.999 76.001l27 126c-6.66699 16-17.667 30.167-33 42.5s-34.666 18.5-57.999 18.5c-42.667 0-79-16.833-109-50.5s-45-71.834-45-114.501c0-29.333 8.16699-53 24.5-71s38.5-27 66.5-27z" glyph-name="at" horiz-adv-x="783" unicode="&#x40;"/><glyph d="M671 0h-133l-49 128h-306l-49-128h-133l262 667h146zM456 231l-120 318-120-318h240z" glyph-name="A" horiz-adv-x="673" unicode="&#x41;"/><glyph d="M408 0l-337 .00097656v667h328c59.333 0 105.833-16.167 139.5-48.5s50.5-72.833 50.5-121.5c0-40-11.167-73.833-33.5-101.5s-49.833-44.834-82.5-51.501c36-5.33301 66.5-23.833 91.5-55.5s37.5-67.834 37.5-108.501c0-53.333-17.167-96.666-51.5-129.999s-81.833-50-142.5-50zM375 391.001c29.333 0 52.333 8 69 24s25 36.667 25 62c0 26-8.33301 47-25 63s-39.667 24-69 24h-187v-173h187zM380 103.001c32 0 57 8.16797 75 24.501s27 39.166 27 68.499c0 26-9 47.833-27 65.5s-43 26.5-75 26.5h-192v-185h192z" glyph-name="B" horiz-adv-x="648" unicode="&#x42;"/><glyph d="M391-12c-100 0-183.333 32.1689-250 96.502s-100 147.166-100 248.499 33.333 184.166 100 248.499 150 96.5 250 96.5c116 0 205.333-50 268-150l-100-51c-16.667 28.667-40.167 52-70.5 70s-62.833 27-97.5 27c-66 0-120.833-22.667-164.5-68s-65.5-103-65.5-173 21.833-127.667 65.5-173 98.5-68 164.5-68c35.333 0 68 9 98 27s53.333 41.333 70 70l100-51c-64-100-153.333-150-268-150z" glyph-name="C" horiz-adv-x="682" unicode="&#x43;"/><glyph d="M319 0h-248v667h248c103.333 0 187.333-31 252-93s97-142.333 97-241c0-98-32.167-178-96.5-240s-148.5-93-252.5-93zM319 103c70 0 125.667 22.001 167 66.001s62 98.667 62 164c0 67.333-20.167 122.666-60.5 165.999s-96.5 65-168.5 65h-131v-461h131z" glyph-name="D" horiz-adv-x="710" unicode="&#x44;"/><glyph d="M528 0h-457v667h457v-103h-340v-173h333v-103h-333v-185h340v-103z" glyph-name="E" horiz-adv-x="577" unicode="&#x45;"/><glyph d="M188 0h-117v667h457v-103h-340v-173h333v-103h-333v-288z" glyph-name="F" horiz-adv-x="562" unicode="&#x46;"/><glyph d="M391-13c-98.667 0-181.665 31.999-248.998 95.999s-101 147.333-101 250 33.667 185.834 101 249.501 150.333 95.5 249 95.5c114.667 0 204.334-46.333 269.001-139l-96-54c-18.667 26-43.167 47.333-73.5 64s-63.5 25-99.5 25c-66 0-120.833-22.667-164.5-68s-65.5-103-65.5-173 21.833-127.833 65.5-173.5 98.5-68.5 164.5-68.5c31.333 0 61.166 6 89.499 18s51.166 26 68.499 42v104h-199v103h316v-250c-72.667-80.667-164.334-121-275.001-121z" glyph-name="G" horiz-adv-x="717" unicode="&#x47;"/><glyph d="M652 0h-117v291h-347v-291h-117v667h117v-273h347v273h117v-667z" glyph-name="H" horiz-adv-x="723" unicode="&#x48;"/><glyph d="M188 0h-117v667h117v-667z" glyph-name="I" horiz-adv-x="259" unicode="&#x49;"/><glyph d="M185-12c-74 0-133.001 23.333-177.001 70l54 89c34-36.667 72-55 114-55 36 0 64.5 11 85.5 33s31.5 51.333 31.5 88v454h117v-456c0-73.333-20.667-128.833-62-166.5s-95.666-56.5-162.999-56.5z" glyph-name="J" horiz-adv-x="481" unicode="&#x4a;"/><glyph d="M614 0h-144l-224 281-58-68v-213h-117v667h117v-318l261 318h145l-271-315z" glyph-name="K" horiz-adv-x="621" unicode="&#x4b;"/><glyph d="M482 0h-411v667h117v-564h294v-103z" glyph-name="L" horiz-adv-x="517" unicode="&#x4c;"/><glyph d="M764 0h-117v495l-205-495h-50l-204 495v-495h-117v667h165l181-439 182 439h165v-667z" glyph-name="M" horiz-adv-x="835" unicode="&#x4d;"/><glyph d="M649 0h-113l-348 476v-476h-117v667h120l341-463v463h117v-667z" glyph-name="N" horiz-adv-x="720" unicode="&#x4e;"/><glyph d="M382-12c-99.333 0-181 32.5-245 97.5s-96 147.5-96 247.5 32 182.5 96 247.5 145.667 97.5 245 97.5 181-32.5 245-97.5 96-147.5 96-247.5-32-182.5-96-247.5-145.667-97.5-245-97.5zM382 92c66 0 119.333 22.833 160 68.5s61 103.167 61 172.5c0 70-20.333 127.667-61 173s-94 68-160 68c-66.667 0-120.167-22.667-160.5-68s-60.5-103-60.5-173 20.167-127.667 60.5-173 93.833-68 160.5-68z" glyph-name="O" horiz-adv-x="765" unicode="&#x4f;"/><glyph d="M188 0h-117v667h293c67.333 0 120.5-20 159.5-60s58.5-89.667 58.5-149c0-58.667-19.5-108.167-58.5-148.5s-92.167-60.5-159.5-60.5h-176v-249zM348 352c33.333 0 60.666 9.66699 81.999 29s32 45 32 77-10.667 57.667-32 77-48.666 29-81.999 29h-160v-212h160z" glyph-name="P" horiz-adv-x="608" unicode="&#x50;"/><glyph d="M382-12c-99.333 0-181 32.5-245 97.5s-96 147.5-96 247.5 32 182.5 96 247.5 145.667 97.5 245 97.5 181-32.5 245-97.5 96-147.5 96-247.5c0-95.333-29.667-175.333-89-240l55-62-81-68-58 65c-49.333-26.667-105.333-40-168-40zM382 92c34 0 65.333 6.66699 94 20l-82 94 81 67 82-94c30.667 42 46 93.333 46 154 0 70-20.333 127.667-61 173s-94 68-160 68c-66.667 0-120.167-22.667-160.5-68s-60.5-103-60.5-173 20.167-127.667 60.5-173 93.833-68 160.5-68z" glyph-name="Q" horiz-adv-x="765" unicode="&#x51;"/><glyph d="M587 0h-135l-148 249h-116v-249h-117v667h293c65.333 0 118-19.333 158-58s60-89 60-151c0-56-15.333-100.833-46-134.5s-68-54.167-112-61.5zM348 352c33.333 0 60.666 9.66699 81.999 29s32 45 32 77-10.667 57.667-32 77-48.666 29-81.999 29h-160v-212h160z" glyph-name="R" horiz-adv-x="628" unicode="&#x52;"/><glyph d="M299-12c-114.667 0-205.003 35.334-271.003 106.001l65 90c57.333-61.333 127.666-92 210.999-92 44.667 0 78.167 9 100.5 27s33.5 39.333 33.5 64c0 25.333-13.333 45.5-40 60.5s-59 26.833-97 35.5-76.167 19-114.5 31-70.833 32.333-97.5 61-40 65.667-40 111c0 56 22.5 102.5 67.5 139.5s103.5 55.5 175.5 55.5c102.667 0 186-31 250-93l-67-87c-50.667 50.667-115 76-193 76-34.667 0-62.167-7.5-82.5-22.5s-30.5-35.167-30.5-60.5c0-16.667 7.16699-30.667 21.5-42s32.833-20.5 55.5-27.5 47.834-13.833 75.501-20.5 55.334-14.834 83.001-24.501 52.834-21.5 75.501-35.5 41.167-33.333 55.5-58 21.5-54 21.5-88c0-60-21.667-109.333-65-148s-107.666-58-192.999-58z" glyph-name="S" horiz-adv-x="594" unicode="&#x53;"/><glyph d="M347 0h-117v564h-202v103h521v-103h-202v-564z" glyph-name="T" horiz-adv-x="577" unicode="&#x54;"/><glyph d="M360-12c-94.667 0-166.501 24.666-215.501 73.999s-73.5 116.333-73.5 201v404h118v-400c0-54 14.833-96.667 44.5-128s71.834-47 126.501-47 96.667 15.667 126 47 44 74 44 128v400h118v-403c0-85.333-24.5-152.666-73.5-201.999s-120.5-74-214.5-74z" glyph-name="U" horiz-adv-x="719" unicode="&#x55;"/><glyph d="M409 0h-146l-262 667h133l202-540 202 540h133z" glyph-name="V" horiz-adv-x="673" unicode="&#x56;"/><glyph d="M706 0h-125l-130 492-129-492h-125l-191 667h131l130-514 138 514h93l138-514 129 514h131z" glyph-name="W" horiz-adv-x="903" unicode="&#x57;"/><glyph d="M657 0h-140l-187 261-187-261h-140l250 342-235 325h140l172-245 171 245h141l-234-324z" glyph-name="X" horiz-adv-x="661" unicode="&#x58;"/><glyph d="M377 0h-117v277l-259 390h134l184-286 182 286h134l-258-390v-277z" glyph-name="Y" horiz-adv-x="637" unicode="&#x59;"/><glyph d="M544 0h-500v95l341 469h-341v103h493v-95l-341-469h348v-103z" glyph-name="Z" horiz-adv-x="589" unicode="&#x5a;"/><glyph d="M247-190h-203v868h203v-72h-126v-724h126v-72z" glyph-name="bracketleft" horiz-adv-x="264" unicode="&#x5b;"/><glyph d="M237-20l-237 707h78l237-707h-78z" glyph-name="backslash" horiz-adv-x="315" unicode="&#x5c;"/><glyph d="M220-190h-203v72h126v724h-126v72h203v-868z" glyph-name="bracketright" horiz-adv-x="264" unicode="&#x5d;"/><glyph d="M418 333h-80l-120 261-119-261h-80l161 334h78z" glyph-name="asciicircum" horiz-adv-x="437" unicode="&#x5e;"/><glyph d="M567-112h-570v72h570v-72z" glyph-name="underscore" horiz-adv-x="564" unicode="&#x5f;"/><glyph d="M240 556h-75l-165 144h100z" glyph-name="grave" horiz-adv-x="240" unicode="&#x60;"/><glyph d="M468 0h-105.001v52c-37.333-42.667-89.333-64-156-64-44 0-83 14.167-117 42.5s-51 67.5-51 117.5c0 51.333 16.833 90.333 50.5 117s72.834 40 117.501 40c68.667 0 120.667-20.667 156-62v72c0 28-10.333 50-31 66s-48 24-82 24c-54 0-101.667-20.333-143-61l-43 73c54.667 52 122.334 78 203.001 78 59.333 0 107.666-14 144.999-42s56-72.333 56-133v-320zM247.999 60c52.667 0 91 16.667 115 50v73c-24 33.333-62.333 50-115 50-30 0-54.667-8-74-24s-29-37-29-63 9.66699-46.833 29-62.5 44-23.5 74-23.5z" glyph-name="a" horiz-adv-x="536" unicode="&#x61;"/><glyph d="M173 145c11.333-18 28.833-33.166 52.5-45.499s47.5-18.5 71.5-18.5c41.333 0 74.5 14.833 99.5 44.5s37.5 68.167 37.5 115.5-12.5 86-37.5 116-58.167 45-99.5 45c-24 0-47.667-6.33301-71-19s-41-28.334-53-47.001v-191zM173 .00097656h-105v667h105v-251c39.333 52.667 91 79 155 79 62.667 0 114-23.167 154-69.5s60-107.833 60-184.5c0-78-20-139.667-60-185s-91.333-68-154-68c-63.333 0-115 26-155 78v-66z" glyph-name="b" horiz-adv-x="581" unicode="&#x62;"/><glyph d="M288-12c-73.333 0-133.333 23.833-180 71.5s-70 108.5-70 182.5c0 73.333 23.333 133.833 70 181.5s106.667 71.5 180 71.5c80.667 0 142.334-28.667 185.001-86l-69-64c-26.667 38-63.667 57-111 57-44 0-79.333-14.833-106-44.5s-40-68.167-40-115.5 13.333-86 40-116 62-45 106-45c46 0 83 19 111 57l69-64c-42.667-57.333-104.334-86-185.001-86z" glyph-name="c" horiz-adv-x="497" unicode="&#x63;"/><glyph d="M513 0h-105v66c-40-52-91.667-78-155-78s-115 22.667-155 68-60 107-60 185c0 77.333 20 139 60 185s91.667 69 155 69 115-26.333 155-79v251h105v-667zM283 81c24.667 0 48.667 6 72 18s41 27.333 53 46v192c-12 18.667-29.667 34.167-53 46.5s-47.333 18.5-72 18.5c-41.333 0-74.333-15-99-45s-37-68.667-37-116 12.333-85.833 37-115.5 57.667-44.5 99-44.5z" glyph-name="d" horiz-adv-x="581" unicode="&#x64;"/><glyph d="M291-12c-73.333 0-133.833 23.5-181.5 70.5s-71.5 108.167-71.5 183.5c0 70.667 23.167 130.5 69.5 179.5s104.833 73.5 175.5 73.5c71.333 0 128.833-24.667 172.5-74s65.5-112.333 65.5-189v-25h-373c4-38 19.667-69.667 47-95s63-38 107-38c24.667 0 49.5 4.66699 74.5 14s45.833 22.333 62.5 39l48-69c-48.667-46.667-114-70-196-70zM419 281c-1.33301 33.333-13.501 63-36.501 89s-56.167 39-99.5 39c-41.333 0-73.666-12.833-96.999-38.5s-36.333-55.5-39-89.5h272z" glyph-name="e" horiz-adv-x="557" unicode="&#x65;"/><glyph d="M198 0l-105.001.00097656v391h-80v92h80v27c0 52 13.833 92.833 41.5 122.5s64.834 44.5 111.501 44.5c50 0 88.667-14 116-42l-41-65c-15.333 14-34 21-56 21-20.667 0-37-6.83301-49-20.5s-18-33.834-18-60.501v-27h98v-92h-98v-391z" glyph-name="f" horiz-adv-x="308" unicode="&#x66;"/><glyph d="M264-196c-82 0-149.332 23.999-201.999 71.999l49 76c36-41.333 87-62 153-62 40 0 73.833 10.5 101.5 31.5s41.5 54.167 41.5 99.5v58c-41.333-53.333-93-80-155-80-63.333 0-114.833 22-154.5 66s-59.5 104.667-59.5 182c0 76.667 19.833 137.167 59.5 181.5s91.167 66.5 154.5 66.5 115-26.333 155-79v67h105v-458c0-41.333-7.16699-77.166-21.5-107.499s-33.833-53.333-58.5-69-50.834-27-78.501-34-57.5-10.5-89.5-10.5zM283.001 91.999c24 0 47.667 6.33301 71 19s41 28 53 46v180c-12 18-29.667 33.333-53 46s-47 19-71 19c-41.333 0-74.333-14.167-99-42.5s-37-65.833-37-112.5 12.333-84.167 37-112.5 57.667-42.5 99-42.5z" glyph-name="g" horiz-adv-x="580" unicode="&#x67;"/><glyph d="M500 0l-104.999.00097656v304c0 35.333-8.5 60.5-25.5 75.5s-41.167 22.5-72.5 22.5c-24.667 0-48-6.33301-70-19s-40-28-54-46v-337h-105v667h105v-250c18 21.333 42.167 39.666 72.5 54.999s63.166 23 98.499 23c104 0 156-51 156-153v-342z" glyph-name="h" horiz-adv-x="568" unicode="&#x68;"/><glyph d="M120 542c-17.333 0-32.5 6.33301-45.5 19s-19.5 28-19.5 46 6.5 33.333 19.5 46 28.167 19 45.5 19c18 0 33.333-6.33301 46-19s19-28 19-46-6.33301-33.333-19-46-28-19-46-19zM173 0h-105v483h105v-483z" glyph-name="i" horiz-adv-x="241" unicode="&#x69;"/><glyph d="M120 542c-17.333 0-32.5 6.33301-45.5 19s-19.5 28-19.5 46 6.5 33.333 19.5 46 28.167 19 45.5 19c18 0 33.333-6.33301 46-19s19-28 19-46-6.33301-33.333-19-46-28-19-46-19zM13-196c-26.667 0-48 2.66797-64 8.00098s-32.667 14.333-50 27l31 78c20-18 42.333-27 67-27 21.333 0 38.5 6.83301 51.5 20.5s19.5 34.167 19.5 61.5v511h105v-511c0-52.667-13.667-93.834-41-123.501s-67-44.5-119-44.5z" glyph-name="j" horiz-adv-x="241" unicode="&#x6a;"/><glyph d="M520 0h-132l-148 199-67-69v-130h-105v667h105v-417l213 233h130l-201-219z" glyph-name="k" horiz-adv-x="526" unicode="&#x6b;"/><glyph d="M173 0h-105v667h105v-667z" glyph-name="l" horiz-adv-x="241" unicode="&#x6c;"/><glyph d="M765 0h-105.001v315c0 58-26.333 87-79 87-22 0-43.333-6.33301-64-19s-36.667-27.667-48-45v-338h-105v315c0 58-26.667 87-80 87-21.333 0-42.166-6.33301-62.499-19s-36.5-28-48.5-46v-337h-105v483h105v-66c12 18 32.833 35.5 62.5 52.5s61.167 25.5 94.5 25.5c70 0 114-29.667 132-89 15.333 24 38 44.833 68 62.5s62 26.5 96 26.5c92.667 0 139-48.667 139-146v-349z" glyph-name="m" horiz-adv-x="833" unicode="&#x6d;"/><glyph d="M499 0l-104.999.00097656v302c0 66.667-32.333 100-97 100-25.333 0-49-6.33301-71-19s-39.667-28-53-46v-337h-105v483h105v-66c18 21.333 42 39.666 72 54.999s62.667 23 98 23c51.333 0 90.166-13.333 116.499-40s39.5-65 39.5-115v-340z" glyph-name="n" unicode="&#x6e;"/><glyph d="M286-12c-74.667 0-134.667 24.5-180 73.5s-68 109.167-68 180.5 22.667 131.333 68 180 105.333 73 180 73c75.333 0 135.666-24.333 180.999-73s68-108.667 68-180c0-72-22.667-132.333-68-181s-105.666-73-180.999-73zM286 81c43.333 0 77.5 15.5 102.5 46.5s37.5 69.167 37.5 114.5c0 44.667-12.5 82.5-37.5 113.5s-59.167 46.5-102.5 46.5c-42.667 0-76.5-15.5-101.5-46.5s-37.5-68.833-37.5-113.5c0-45.333 12.5-83.5 37.5-114.5s58.833-46.5 101.5-46.5z" glyph-name="o" horiz-adv-x="573" unicode="&#x6f;"/><glyph d="M328-12c-64 0-115.668 26.333-155.001 79v-251h-105v667h105v-66c38.667 52 90.334 78 155.001 78 63.333 0 114.833-22.667 154.5-68s59.5-107 59.5-185-19.833-139.833-59.5-185.5-91.167-68.5-154.5-68.5zM296.999 81c41.333 0 74.333 15 99 45s37 68.667 37 116-12.333 85.833-37 115.5-57.667 44.5-99 44.5c-24 0-47.667-6.33301-71-19s-41-28-53-46v-191c12-18 29.667-33.333 53-46s47-19 71-19z" glyph-name="p" horiz-adv-x="578" unicode="&#x70;"/><glyph d="M281 81c24 0 47.667 6.33301 71 19s41 28 53 46v191c-12 18-29.667 33.333-53 46s-47 19-71 19c-41.333 0-74.333-14.833-99-44.5s-37-68.167-37-115.5 12.333-86 37-116 57.667-45 99-45zM250-12c-63.333 0-114.833 22.833-154.5 68.5s-59.5 107.5-59.5 185.5 19.833 139.667 59.5 185 91.167 68 154.5 68c64 0 115.667-26 155-78v66h105v-667h-105v251c-39.333-52.667-91-79-155-79z" glyph-name="q" horiz-adv-x="578" unicode="&#x71;"/><glyph d="M173 0h-105v483h105v-71c18.667 24 42 43.667 70 59s57 23 87 23v-104c-9.33301 2-20.333 3-33 3-22 0-45.5-6.5-70.5-19.5s-42.833-27.833-53.5-44.5v-329z" glyph-name="r" horiz-adv-x="347" unicode="&#x72;"/><glyph d="M233-12c-86.667 0-155.67 25-207.003 75l48 76c18-18.667 42.333-34.667 73-48s61-20 91-20c30.667 0 54.167 6 70.5 18s24.5 27.667 24.5 47c0 17.333-10 30.833-30 40.5s-44.333 17.334-73 23.001-57.334 12.667-86.001 21-53 23.166-73 44.499-30 49-30 83c0 41.333 17 76.166 51 104.499s80.333 42.5 139 42.5c74 0 136.667-22.667 188-68l-44-74c-15.333 17.333-35.666 31.333-60.999 42s-52.666 16-81.999 16c-27.333 0-49.166-5.5-65.499-16.5s-24.5-25.167-24.5-42.5c0-13.333 7.16699-24.166 21.5-32.499s32.333-14.5 54-18.5 45.167-9.5 70.5-16.5 48.833-15.167 70.5-24.5 39.667-24.5 54-45.5 21.5-46.5 21.5-76.5c0-44-17.667-80-53-108s-84.666-42-147.999-42z" glyph-name="s" horiz-adv-x="472" unicode="&#x73;"/><glyph d="M213-12c-40.667 0-71.5 10.666-92.5 31.999s-31.5 52-31.5 92v279h-80v92h80v132h105v-132h98v-92h-98v-253c0-17.333 4-31.166 12-41.499s19.333-15.5 34-15.5c21.333 0 37 5.66699 47 17l25-79c-22-20.667-55-31-99-31z" glyph-name="t" horiz-adv-x="319" unicode="&#x74;"/><glyph d="M499 0h-105v64c-45.333-50.667-102.333-76-171-76-103.333 0-155 51-155 153v342h105v-304c0-35.333 8.33301-60.5 25-75.5s40.667-22.5 72-22.5c25.333 0 49 6 71 18s39.667 27 53 45v339h105v-483z" glyph-name="u" unicode="&#x75;"/><glyph d="M308 0h-113l-197 483h112l141-362 141 362h113z" glyph-name="v" horiz-adv-x="503" unicode="&#x76;"/><glyph d="M599 0h-110l-112 354-112-354h-110l-150 483h109l102-351 115 351h92l115-351 102 351h109z" glyph-name="w" horiz-adv-x="754" unicode="&#x77;"/><glyph d="M491 0h-118l-125 178-126-178h-117l177 248-167 235h118l115-164 114 164h118l-167-235z" glyph-name="x" horiz-adv-x="496" unicode="&#x78;"/><glyph d="M47-189l16 93.999c12-5.33301 25.333-8 40-8 34 0 57 14 69 42l24 55-198 489h112l141-362 141 362h113l-233-570c-28.667-71.333-84-107.666-166-108.999-22 0-41.667 2.33301-59 7z" glyph-name="y" horiz-adv-x="503" unicode="&#x79;"/><glyph d="M429 0h-383v79l239 312h-239v92h379v-77l-241-315h245v-91z" glyph-name="z" horiz-adv-x="476" unicode="&#x7a;"/><glyph d="M259-190h-61c-38.667 0-72 13.667-100 41s-42 63-42 107v187c0 19.333-4.5 35.5-13.5 48.5s-21.833 19.5-38.5 19.5v62c16.667 0 29.5 6.5 38.5 19.5s13.5 29.167 13.5 48.5v186c0 44 14.167 79.833 42.5 107.5s61.5 41.5 99.5 41.5h61v-72h-61c-18 0-33.167-7.16699-45.5-21.5s-18.5-32.833-18.5-55.5v-196c0-46-15.333-75.667-46-89 30.667-13.333 46-43 46-89v-196c0-22 6.16699-40.333 18.5-55s27.5-22 45.5-22h61v-72z" glyph-name="braceleft" horiz-adv-x="276" unicode="&#x7b;"/><glyph d="M143-20h-72v707h72v-707z" glyph-name="bar" horiz-adv-x="214" unicode="&#x7c;"/><glyph d="M17-190v72h61c18 0 33.167 7.33301 45.5 22s18.5 33 18.5 55v196c0 46 15.333 75.667 46 89-30.667 13.333-46 43-46 89v196c0 22.667-6.16699 41.167-18.5 55.5s-27.5 21.5-45.5 21.5h-61v72h61c38 0 71.167-13.833 99.5-41.5s42.5-63.5 42.5-107.5v-186c0-19.333 4.5-35.5 13.5-48.5s21.833-19.5 38.5-19.5v-62c-16.667 0-29.5-6.5-38.5-19.5s-13.5-29.167-13.5-48.5v-187c0-44-14-79.667-42-107s-61.333-41-100-41h-61z" glyph-name="braceright" horiz-adv-x="276" unicode="&#x7d;"/><glyph d="M407 667l73.001-9c-2.66699-34-6.66699-63.833-12-89.5s-13.166-50.667-23.499-75-24.666-43.166-42.999-56.499-40.166-20-65.499-20c-28.667 0-52 9.5-70 28.5s-29.833 39.833-35.5 62.5-13.334 43.5-23.001 62.5-21.834 28.5-36.501 28.5c-36 0-59.667-61-71-183l-74 9c3.33301 34 7.66602 63.833 12.999 89.5s13.166 50.667 23.499 75 24.666 43.166 42.999 56.499 40.166 20 65.499 20c28.667 0 52-9.5 70-28.5s29.833-40 35.5-63 13.334-44 23.001-63 21.834-28.5 36.501-28.5c37.333 0 61 61.333 71 184z" glyph-name="asciitilde" horiz-adv-x="507" unicode="&#x7e;"/><glyph glyph-name="nbspace" horiz-adv-x="257" unicode="&#xa0;"/><glyph d="M59-184l18 462h91l19-462h-128zM53 424c0 18.667 6.83301 34.834 20.5 48.501s29.834 20.5 48.501 20.5 35-6.83301 49-20.5 21-29.834 21-48.501-7-35-21-49-30.333-21-49-21-34.834 6.83301-48.501 20.5-20.5 30.167-20.5 49.5z" glyph-name="exclamdown" horiz-adv-x="245" unicode="&#xa1;"/><glyph d="M246-100v90.999c-62 9.33301-112.167 36.833-150.5 82.5s-57.5 101.834-57.5 168.501c0 65.333 19.167 121 57.5 167s88.5 73.667 150.5 83v73h78v-72c63.333-8 113-36 149-84l-69-64c-20.667 28.667-47.334 46.667-80.001 54v-315c32.667 7.33301 59.334 25.333 80.001 54l69-64c-36-48-85.667-76-149-84v-90h-78zM147 241.999c0-38 8.83301-70.833 26.5-98.5s41.834-46.167 72.501-55.5v307c-30.667-10-54.834-28.5-72.501-55.5s-26.5-59.5-26.5-97.5z" glyph-name="cent" horiz-adv-x="497" unicode="&#xa2;"/><glyph d="M21 268v69.9951h83c-12 15.333-21.5 28.333-28.5 39s-13.667 24.834-20 42.501-9.5 35.834-9.5 54.501c0 58 23.667 106.333 71 145s102 58 164 58c105.333 0 178.333-39 219-117l-93-55c-8.66699 22-23.334 40.167-44.001 54.5s-43.667 21.5-69 21.5c-34 0-62.667-10-86-30s-35-46.333-35-79c0-11.333 1-22 3-32s5.66699-20.167 11-30.5 9.83301-18.166 13.5-23.499l18-25c8.33301-11.333 13.833-19 16.5-23h147v-70h-116c2-9.33301 3-19 3-29 0-50-23.333-90-70-120 16 5.33301 33 8 51 8 21.333 0 45.333-6 72-18s48.667-18 66-18c40 0 70 12.667 90 38l47-93c-31.333-32.667-78.666-49-141.999-49-31.333 0-64 7.5-98 22.5s-61.333 22.5-82 22.5c-29.333 0-68.333-13-117-39l-40 82c79.333 36.667 119 82.334 119 137.001 0 18.667-4.33301 37.334-13 56.001h-131z" glyph-name="sterling" horiz-adv-x="536" unicode="&#xa3;"/><glyph d="M306 89c-54 0-101.667 13.332-143 39.999l-74-75-63 62 74 74c-28 42.667-42 90.334-42 143.001 0 53.333 14.333 101 43 143l-76 76 63 62 76-77c40.667 26 88 39 142 39 53.333 0 100.333-13 141-39l76 77 63-63-75-75c28.667-42 43-89.667 43-143 0-54-14.333-102-43-144l75-73-63-62-76 74c-39.333-26-86.333-39-141-39zM306 182.999c44 0 78.667 14.5 104 43.5s38 64.5 38 106.5c0 41.333-12.667 76.333-38 105s-60 43-104 43-78.667-14.333-104-43-38-63.667-38-105c0-42 12.667-77.5 38-106.5s60-43.5 104-43.5z" glyph-name="currency" horiz-adv-x="612" unicode="&#xa4;"/><glyph d="M377 0h-117v118h-237v67h237v92h-237v67h192l-214 323h134l184-286 182 286h134l-214-323h194v-67h-238v-92h238v-67h-238v-118z" glyph-name="yen" horiz-adv-x="637" unicode="&#xa5;"/><glyph d="M143-20h-72v316h72v-316zM143 371h-72v316h72v-316z" glyph-name="brokenbar" horiz-adv-x="214" unicode="&#xa6;"/><glyph d="M434 321c0-58-28.998-100.667-86.998-128 58-24 87-64.667 87-122 0-47.333-18.5-84.5-55.5-111.5s-85.5-40.5-145.5-40.5c-80.667 0-149 26-205 78l46 67c18-19.333 41.167-36 69.5-50s58.166-21 89.499-21c30 0 54.167 6.16699 72.5 18.5s27.5 29.5 27.5 51.5c0 16.667-7.16699 30.334-21.5 41.001s-32.333 18.5-54 23.5-45.167 11.167-70.5 18.5-48.833 15.333-70.5 24-39.667 22.834-54 42.501-21.5 43.834-21.5 72.501c0 32 10.167 58.667 30.5 80s45.166 36.666 74.499 45.999c-70 24.667-105 66.334-105 125.001 0 40 17.5 73.5 52.5 100.5s80.833 40.5 137.5 40.5c80 0 142.333-23 187-69l-43-63c-34.667 38-81.334 57-140.001 57-28 0-50.5-5.83301-67.5-17.5s-25.5-27.5-25.5-47.5c0-17.333 10-31 30-41s44.333-17.833 73-23.5 57.334-12.834 86.001-21.501 53-23.834 73-45.501 30-49.834 30-84.501zM331.002 303c0 22.667-8.66797 40.0029-26.001 52.0029s-40.666 21.667-69.999 29c-34-8.66699-58-19.834-72-33.501s-21-30.834-21-51.501c0-12.667 3-23.334 9-32.001s15.833-16.167 29.5-22.5 25.667-11 36-14 25.5-6.83301 45.5-11.5c46 19.333 69 47.333 69 84z" glyph-name="section" horiz-adv-x="477" unicode="&#xa7;"/><glyph d="M306 608c0-16.667-5.83301-30.667-17.5-42s-25.5-17-41.5-17-29.833 5.66699-41.5 17-17.5 25.333-17.5 42c0 16 5.83301 29.667 17.5 41s25.5 17 41.5 17 29.833-5.66699 41.5-17 17.5-25 17.5-41zM96 608c0-16.667-5.66699-30.667-17-42s-25-17-41-17c-16.667 0-30.667 5.66699-42 17s-17 25.333-17 42c0 16 5.66699 29.667 17 41s25.333 17 42 17c16 0 29.667-5.66699 41-17s17-25 17-41z" glyph-name="dieresis" horiz-adv-x="285" unicode="&#xa8;"/><glyph d="M734 334c0-95.333-33.667-176.668-101-244.001s-148.666-101-243.999-101-176.666 33.833-243.999 101.5-101 148.834-101 243.501c0 95.333 33.667 176.666 101 243.999s148.666 101 243.999 101 176.666-33.667 243.999-101 101-148.666 101-243.999zM700 333.998c0 85.333-30.5 158.5-91.5 219.5s-134.167 91.5-219.5 91.5-158.5-30.5-219.5-91.5-91.5-134.167-91.5-219.5 30.5-158.5 91.5-219.5 134.167-91.5 219.5-91.5 158.5 30.5 219.5 91.5 91.5 134.167 91.5 219.5zM512 216.998l28.999-28c-38-44.667-87.333-67-148-67-58 0-107.167 20.333-147.5 61s-60.5 91.334-60.5 152.001 20.167 111 60.5 151 89.5 60 147.5 60c60.667 0 109.667-22 147-66l-29-28c-28 38-67.333 57-118 57-46 0-85.167-16.333-117.5-49s-48.5-74.334-48.5-125.001c0-50 16.333-91.833 49-125.5s71.667-50.5 117-50.5c50.667 0 90.334 19.333 119.001 58z" glyph-name="copyright" horiz-adv-x="778" unicode="&#xa9;"/><glyph d="M327 326l-76.999-.00097656v33c-24.667-27.333-59.334-41-104.001-41-29.333 0-55.166 9.16699-77.499 27.5s-33.5 43.833-33.5 76.5 11.167 57.834 33.5 75.501 48.166 26.5 77.499 26.5c45.333 0 80-13.333 104-40v46c0 18-6.83301 32.333-20.5 43s-31.167 16-52.5 16c-36.667 0-68.334-14.333-95.001-43l-31 50c37.333 34.667 83.333 52 138 52 40.667 0 73.834-9.33301 99.501-28s38.5-49 38.5-91v-203zM177.001 366.999c32.667 0 57 11 73 33v44c-16 21.333-40.333 32-73 32-18.667 0-34.167-5-46.5-15s-18.5-23-18.5-39c0-16.667 6.16699-30 18.5-40s27.833-15 46.5-15z" glyph-name="ordfeminine" horiz-adv-x="382" unicode="&#xaa;"/><glyph d="M459 63h-99l-160 180 160 177h99l-160-177zM289 63h-99l-160 180 160 177h99l-160-177z" glyph-name="guillemotleft" horiz-adv-x="489" unicode="&#xab;"/><glyph d="M473 463v-258h-70v190h-374v68h444z" glyph-name="logicalnot" horiz-adv-x="510" unicode="&#xac;"/><glyph d="M270 197h-240v90h240v-90z" glyph-name="uni00AD" horiz-adv-x="300" unicode="&#xad;"/><glyph d="M459 465c0-58.667-20.667-108.667-62-150s-91.333-62-150-62-108.667 20.667-150 62-62 91.333-62 150 20.667 108.667 62 150 91.333 62 150 62c59.333 0 109.5-20.5 150.5-61.5s61.5-91.167 61.5-150.5zM428 465c0 50.667-17.667 93.5-53 128.5s-78 52.5-128 52.5c-50.667 0-93.667-17.5-129-52.5s-53-77.833-53-128.5c0-50 17.667-92.833 53-128.5s78.333-53.5 129-53.5c50 0 92.667 17.833 128 53.5s53 78.5 53 128.5zM346 343l-40.999-.00097656-63 96h-43v-96h-33v243h99c21.333 0 39.666-6.83301 54.999-20.5s23-31.5 23-53.5c0-23.333-7.5-41.166-22.5-53.499s-28.167-18.5-39.5-18.5zM309.001 511.999c0 12.667-4.5 23.333-13.5 32s-19.167 13-30.5 13h-66v-88h66c11.333 0 21.5 4.16699 30.5 12.5s13.5 18.5 13.5 30.5z" glyph-name="registered" horiz-adv-x="494" unicode="&#xae;"/><glyph d="M363 566h-363v62h363v-62z" glyph-name="macron" horiz-adv-x="363" unicode="&#xaf;"/><glyph d="M280 547c0-36-12.667-66.5-38-91.5s-56-37.5-92-37.5c-35.333 0-65.666 12.5-90.999 37.5s-38 55.5-38 91.5c0 35.333 12.667 65.833 38 91.5s55.666 38.5 90.999 38.5c36 0 66.667-12.833 92-38.5s38-56.167 38-91.5zM220 547c0 19.333-7 35.8311-21 49.498s-30.333 20.5-49 20.5-34.667-6.83301-48-20.5-20-30.167-20-49.5 6.66699-35.666 20-48.999 29.333-20 48-20c19.333 0 35.833 6.83301 49.5 20.5s20.5 29.834 20.5 48.501z" glyph-name="degree" horiz-adv-x="302" unicode="&#xb0;"/><glyph d="M473 325h-185v-208h-74v208h-185v67h185v201h74v-201h185v-67zM473 0h-444v67h444v-67z" glyph-name="plusminus" horiz-adv-x="502" unicode="&#xb1;"/><glyph d="M352 421h-304.002v59c85.333 60.667 143.5 106 174.5 136s46.5 57.667 46.5 83c0 20.667-7.16699 36.334-21.5 47.001s-32.166 16-53.499 16c-22.667 0-44-5-64-15s-35.333-22-46-36l-43 51c36.667 43.333 88.334 65 155.001 65 44 0 80.5-10.667 109.5-32s43.5-51.333 43.5-90c0-34-14.833-67.833-44.5-101.5s-76.167-72.834-139.5-117.501h187v-65z" glyph-name="twosuperior" horiz-adv-x="393" unicode="&#xb2;"/><glyph d="M354 531c0-34.667-14.499-62.8301-43.499-84.4971s-67.5-32.5-115.5-32.5c-71.333 0-124.333 21.333-159 64l41 52c30-34 68.333-51 115-51 26 0 46.167 5.16699 60.5 15.5s21.5 24.166 21.5 41.499c0 38-31.667 57-95 57-24.667 0-39-.333008-43-1v65c5.33301-.666992 19.333-1 42-1 59.333 0 89 17.667 89 53 0 16.667-7.5 29.667-22.5 39s-34.167 14-57.5 14c-41.333 0-77-15.333-107-46l-39 48c38.667 42 90 63 154 63 46.667 0 83.667-9.83301 111-29.5s41-45.834 41-78.501c0-24.667-8.83301-45.167-26.5-61.5s-38.5-26.5-62.5-30.5c23.333-2 45.166-11.333 65.499-28s30.5-39.334 30.5-68.001z" glyph-name="threesuperior" horiz-adv-x="393" unicode="&#xb3;"/><glyph d="M240 700l-165-144h-75l140 144h100z" glyph-name="acute" horiz-adv-x="240" unicode="&#xb4;"/><glyph d="M173 24l.00097656-208h-105v667h105v-304c0-66 32.667-99 98-99 24.667 0 48 6.16699 70 18.5s39.667 27.5 53 45.5v339h105v-352c0-15.333 3.83301-27.5 11.5-36.5s18.167-13.5 31.5-13.5c6 0 12.333.666992 19 2l7-89c-13.333-4-30-6-50-6-64.667 0-104.334 28.667-119.001 86-16.667-25.333-37.5-46-62.5-62s-51.833-24-80.5-24c-40 0-67.667 12-83 36z" glyph-name="mu" horiz-adv-x="581" unicode="&#xb5;"/><glyph d="M392-100h-55v712h-83v-712h-55v423c-47.333 0-87.833 16.833-121.5 50.5s-50.5 74.167-50.5 121.5 16.833 87.833 50.5 121.5 74.167 50.5 121.5 50.5h193v-767z" glyph-name="paragraph" horiz-adv-x="449" unicode="&#xb6;"/><glyph d="M192 244c0-18.667-7-34.834-21-48.501s-30.333-20.5-49-20.5-35 6.83301-49 20.5-21 29.834-21 48.501 7 35 21 49 30.333 21 49 21 35-7 49-21 21-30.333 21-49z" glyph-name="periodcentered" horiz-adv-x="245" unicode="&#xb7;"/><glyph d="M106-194c-44.667 0-79.999 10.334-105.999 31.001l22 46c24-19.333 51-29 81-29 15.333 0 28.5 3.16699 39.5 9.5s16.5 15.166 16.5 26.499c0 20-11 30-33 30-14 0-25.333-5-34-15l-41 23 31 83h55l-26-64c10.667 7.33301 22.667 11 36 11 19.333 0 35.333-6.5 48-19.5s19-29.5 19-49.5c0-24.667-10.333-44.667-31-60s-46.334-23-77.001-23z" glyph-name="cedilla" horiz-adv-x="214" unicode="&#xb8;"/><glyph d="M204 421h-81v296l-67-69-46 49 124 124h70v-400z" glyph-name="onesuperior" horiz-adv-x="264" unicode="&#xb9;"/><glyph d="M202 318c-50 0-90.5 15.833-121.5 47.5s-46.5 70.834-46.5 117.501 15.5 85.834 46.5 117.501 71.5 47.5 121.5 47.5c51.333 0 92.333-15.833 123-47.5s46-70.834 46-117.501-15.333-85.834-46-117.501-71.667-47.5-123-47.5zM202 381c27.333 0 49 9.33301 65 28s24 43.334 24 74.001c0 30-8 54.167-24 72.5s-37.667 27.5-65 27.5-48.833-9.16699-64.5-27.5-23.5-42.5-23.5-72.5c0-30.667 7.83301-55.334 23.5-74.001s37.167-28 64.5-28z" glyph-name="ordmasculine" horiz-adv-x="405" unicode="&#xba;"/><glyph d="M289 243l-160-180h-99l160 180-160 177h99zM459 243l-160-180h-99l160 180-160 177h99z" glyph-name="guillemotright" horiz-adv-x="489" unicode="&#xbb;"/><glyph d="M204 267h-81v296l-67-69-46 49 124 124h70v-400zM776 92h-55v-92h-80v92h-196v56l164 252h112v-244h55v-64zM641 156v175l-116-175h116zM619 667l-427-667h-67l426 667h68z" glyph-name="onequarter" horiz-adv-x="806" unicode="&#xbc;"/><glyph d="M204 267h-81v296l-67-69-46 49 124 124h70v-400zM799 0h-304.002v59c85.333 60.667 143.5 106 174.5 136s46.5 57.667 46.5 83c0 20.667-7.16699 36.334-21.5 47.001s-32.166 16-53.499 16c-22.667 0-44-5-64-15s-35.333-22-46-36l-43 51c36.667 43.333 88.334 65 155.001 65 44 0 80.5-10.667 109.5-32s43.5-51.333 43.5-90c0-34-14.833-67.833-44.5-101.5s-76.167-72.834-139.5-117.501h187v-65zM618.998 667l-427-667h-67l426 667h68z" glyph-name="onehalf" horiz-adv-x="841" unicode="&#xbd;"/><glyph d="M873 92h-55v-92h-80v92h-196v56l164 252h112v-244h55v-64zM738 156v175l-116-175h116zM715 667l-427-667h-67l426 667h68zM354 377c0-34.667-14.499-62.8301-43.499-84.4971s-67.5-32.5-115.5-32.5c-71.333 0-124.333 21.333-159 64l41 52c30-34 68.333-51 115-51 26 0 46.167 5.16699 60.5 15.5s21.5 24.166 21.5 41.499c0 38-31.667 57-95 57-24.667 0-39-.333008-43-1v65c5.33301-.666992 19.333-1 42-1 59.333 0 89 17.667 89 53 0 16.667-7.5 29.667-22.5 39s-34.167 14-57.5 14c-41.333 0-77-15.333-107-46l-39 48c38.667 42 90 63 154 63 46.667 0 83.667-9.83301 111-29.5s41-45.834 41-78.501c0-24.667-8.83301-45.167-26.5-61.5s-38.5-26.5-62.5-30.5c23.333-2 45.166-11.333 65.499-28s30.5-39.334 30.5-68.001z" glyph-name="threequarters" horiz-adv-x="902" unicode="&#xbe;"/><glyph d="M269 285c24-23.333 36.001-51.666 36.001-84.999 0-27.333-8.33301-51.833-25-73.5s-35.167-38.5-55.5-50.5-38.833-26.333-55.5-43-25-34.334-25-53.001c0-20.667 8.16699-37.834 24.5-51.501s39.833-20.5 70.5-20.5c54.667 0 101 23.333 139 70l67-75c-54-66-126.667-99-218-99-62 0-111.333 14.667-148 44s-55 67-55 113c0 27.333 6.16699 51.833 18.5 73.5s27.333 39.334 45 53.001 35.167 26.5 52.5 38.5 32.166 25.167 44.499 39.5 18.5 29.5 18.5 45.5c0 17.333-7.33301 32.333-22 45zM233.001 493c19.333 0 35.833-6.83301 49.5-20.5s20.5-30.167 20.5-49.5c0-18.667-7-34.834-21-48.501s-30.333-20.5-49-20.5-35 6.83301-49 20.5-21 29.834-21 48.501c0 19.333 6.83301 35.833 20.5 49.5s30.167 20.5 49.5 20.5z" glyph-name="questiondown" horiz-adv-x="396" unicode="&#xbf;"/><glyph d="M671 0h-133l-49 128h-306l-49-128h-133l262 667h146zM456 231l-120 318-120-318h240zM398 723h-75l-165 144h100z" glyph-name="Agrave" horiz-adv-x="673" unicode="&#xc0;"/><glyph d="M671 0h-133l-49 128h-306l-49-128h-133l262 667h146zM456 231l-120 318-120-318h240zM516 867l-165-144h-75l140 144h100z" glyph-name="Aacute" horiz-adv-x="673" unicode="&#xc1;"/><glyph d="M480 723h-67l-77 96-75-96h-66l93 144h96zM671 0h-133l-49 128h-306l-49-128h-133l262 667h146zM456 231l-120 318-120-318h240z" glyph-name="Acircumflex" horiz-adv-x="673" unicode="&#xc2;"/><glyph d="M671 0h-133l-49 128h-306l-49-128h-133l262 667h146zM456 231l-120 318-120-318h240zM394 721c-12.667 0-24.165 2.66602-34.498 7.99902s-18.833 11.833-25.5 19.5-12.834 15.334-18.501 23.001-12 14.167-19 19.5-14.167 8-21.5 8c-12 0-22-6-30-18s-12-30-12-54h-57c0 41.333 8.83301 74 26.5 98s43.167 36 76.5 36c20 0 36.833-6.5 50.5-19.5s25.667-26 36-39 21.166-19.5 32.499-19.5c27.333 0 41 24 41 72h58c0-41.333-8.83301-74-26.5-98s-43.167-36-76.5-36z" glyph-name="Atilde" horiz-adv-x="673" unicode="&#xc3;"/><glyph d="M500 775c0-16.667-5.83301-30.667-17.5-42s-25.5-17-41.5-17-29.833 5.66699-41.5 17-17.5 25.333-17.5 42c0 16 5.83301 29.667 17.5 41s25.5 17 41.5 17 29.833-5.66699 41.5-17 17.5-25 17.5-41zM290 775c0-16.667-5.66699-30.667-17-42s-25-17-41-17c-16.667 0-30.667 5.66699-42 17s-17 25.333-17 42c0 16 5.66699 29.667 17 41s25.333 17 42 17c16 0 29.667-5.66699 41-17s17-25 17-41zM671 0h-133l-49 128h-306l-49-128h-133l262 667h146zM456 231l-120 318-120-318h240z" glyph-name="Adieresis" horiz-adv-x="673" unicode="&#xc4;"/><glyph d="M671 0h-133l-49 128h-306l-49-128h-133l262 667h146zM456 231l-120 318-120-318h240zM337 689c-28 0-52 10-72 30s-30 44-30 72 10 52.167 30 72.5 44 30.5 72 30.5 51.833-10.167 71.5-30.5 29.5-44.5 29.5-72.5-9.83301-52-29.5-72-43.5-30-71.5-30zM337 739c14 0 26.001 5.16699 36.001 15.5s15 22.5 15 36.5c0 14.667-4.83301 27-14.5 37s-21.834 15-36.501 15c-14 0-26.167-5-36.5-15s-15.5-22.333-15.5-37c0-14 5.16699-26.167 15.5-36.5s22.5-15.5 36.5-15.5z" glyph-name="Aring" horiz-adv-x="673" unicode="&#xc5;"/><glyph d="M912 0h-457v128h-247l-77-128h-133l410 667h504v-103h-340v-173h333v-103h-333v-185h340v-103zM455 231v318l-191-318h191z" glyph-name="AE" horiz-adv-x="959" unicode="&#xc6;"/><glyph d="M385-190c-44.667 0-79.998 10.335-105.998 31.002l22 46c24-19.333 51-29 81-29 15.333 0 28.5 3.16699 39.5 9.5s16.5 15.166 16.5 26.499c0 20-11 30-33 30-14 0-25.333-5-34-15l-41 23 21 58c-90 8.66699-164.167 44.5-222.5 107.5s-87.5 141.5-87.5 235.5c0 101.333 33.333 184.166 100 248.499s150 96.5 250 96.5c116 0 205.333-50 268-150l-100-51c-16.667 28.667-40.167 52-70.5 70s-62.833 27-97.5 27c-66 0-120.833-22.667-164.5-68s-65.5-103-65.5-173 21.833-127.667 65.5-173 98.5-68 164.5-68c35.333 0 68 9 98 27s53.333 41.333 70 70l100-51c-60.667-96-145.334-146-254.001-150l-15-37c10.667 7.33301 22.667 11 36 11 19.333 0 35.333-6.5 48-19.5s19-29.5 19-49.5c0-24.667-10.333-44.667-31-60s-46.334-23-77.001-23z" glyph-name="Ccedilla" horiz-adv-x="682" unicode="&#xc7;"/><glyph d="M528 0h-457v667h457v-103h-340v-173h333v-103h-333v-185h340v-103zM360 723h-75l-165 144h100z" glyph-name="Egrave" horiz-adv-x="577" unicode="&#xc8;"/><glyph d="M478 867l-165-144h-75l140 144h100zM528 0h-457v667h457v-103h-340v-173h333v-103h-333v-185h340v-103z" glyph-name="Eacute" horiz-adv-x="577" unicode="&#xc9;"/><glyph d="M442 723h-67l-77 96-75-96h-66l93 144h96zM528 0h-457v667h457v-103h-340v-173h333v-103h-333v-185h340v-103z" glyph-name="Ecircumflex" horiz-adv-x="577" unicode="&#xca;"/><glyph d="M463 775c0-16.667-5.83301-30.667-17.5-42s-25.5-17-41.5-17-29.833 5.66699-41.5 17-17.5 25.333-17.5 42c0 16 5.83301 29.667 17.5 41s25.5 17 41.5 17 29.833-5.66699 41.5-17 17.5-25 17.5-41zM253 775c0-16.667-5.66699-30.667-17-42s-25-17-41-17c-16.667 0-30.667 5.66699-42 17s-17 25.333-17 42c0 16 5.66699 29.667 17 41s25.333 17 42 17c16 0 29.667-5.66699 41-17s17-25 17-41zM528 0h-457v667h457v-103h-340v-173h333v-103h-333v-185h340v-103z" glyph-name="Edieresis" horiz-adv-x="577" unicode="&#xcb;"/><glyph d="M188 0h-117v667h117v-667zM190 723h-75l-165 144h100z" glyph-name="Igrave" horiz-adv-x="259" unicode="&#xcc;"/><glyph d="M188 0h-117v667h117v-667zM310 867l-165-144h-75l140 144h100z" glyph-name="Iacute" horiz-adv-x="259" unicode="&#xcd;"/><glyph d="M273 723h-67l-77 96-75-96h-66l93 144h96zM188 0h-117v667h117v-667z" glyph-name="Icircumflex" horiz-adv-x="259" unicode="&#xce;"/><glyph d="M294 775c0-16.667-5.83301-30.667-17.5-42s-25.5-17-41.5-17-29.833 5.66699-41.5 17-17.5 25.333-17.5 42c0 16 5.83301 29.667 17.5 41s25.5 17 41.5 17 29.833-5.66699 41.5-17 17.5-25 17.5-41zM84 775c0-16.667-5.66699-30.667-17-42s-25-17-41-17c-16.667 0-30.667 5.66699-42 17s-17 25.333-17 42c0 16 5.66699 29.667 17 41s25.333 17 42 17c16 0 29.667-5.66699 41-17s17-25 17-41zM188 0h-117v667h117v-667z" glyph-name="Idieresis" horiz-adv-x="259" unicode="&#xcf;"/><glyph d="M345 0h-248v285h-88v86h88v296h248c103.333 0 187.333-31 252-93s97-142.333 97-241c0-98-32.167-178-96.5-240s-148.5-93-252.5-93zM345 103c70 0 125.667 22.001 167 66.001s62 98.667 62 164c0 67.333-20.167 122.666-60.5 165.999s-96.5 65-168.5 65h-131v-193h158v-86h-158v-182h131z" glyph-name="Eth" horiz-adv-x="736" unicode="&#xd0;"/><glyph d="M416 721c-12.667 0-24.165 2.66602-34.498 7.99902s-18.833 11.833-25.5 19.5-12.834 15.334-18.501 23.001-12 14.167-19 19.5-14.167 8-21.5 8c-12 0-22-6-30-18s-12-30-12-54h-57c0 41.333 8.83301 74 26.5 98s43.167 36 76.5 36c20 0 36.833-6.5 50.5-19.5s25.667-26 36-39 21.166-19.5 32.499-19.5c27.333 0 41 24 41 72h58c0-41.333-8.83301-74-26.5-98s-43.167-36-76.5-36zM649.002-.00097656h-113l-348 476v-476h-117v667h120l341-463v463h117v-667z" glyph-name="Ntilde" horiz-adv-x="720" unicode="&#xd1;"/><glyph d="M444 723h-75l-165 144h100zM382-12c-99.333 0-181 32.5-245 97.5s-96 147.5-96 247.5 32 182.5 96 247.5 145.667 97.5 245 97.5 181-32.5 245-97.5 96-147.5 96-247.5-32-182.5-96-247.5-145.667-97.5-245-97.5zM382 92c66 0 119.333 22.833 160 68.5s61 103.167 61 172.5c0 70-20.333 127.667-61 173s-94 68-160 68c-66.667 0-120.167-22.667-160.5-68s-60.5-103-60.5-173 20.167-127.667 60.5-173 93.833-68 160.5-68z" glyph-name="Ograve" horiz-adv-x="765" unicode="&#xd2;"/><glyph d="M562 867l-165-144h-75l140 144h100zM382-12c-99.333 0-181 32.5-245 97.5s-96 147.5-96 247.5 32 182.5 96 247.5 145.667 97.5 245 97.5 181-32.5 245-97.5 96-147.5 96-247.5-32-182.5-96-247.5-145.667-97.5-245-97.5zM382 92c66 0 119.333 22.833 160 68.5s61 103.167 61 172.5c0 70-20.333 127.667-61 173s-94 68-160 68c-66.667 0-120.167-22.667-160.5-68s-60.5-103-60.5-173 20.167-127.667 60.5-173 93.833-68 160.5-68z" glyph-name="Oacute" horiz-adv-x="765" unicode="&#xd3;"/><glyph d="M527 723h-67l-77 96-75-96h-66l93 144h96zM382-12c-99.333 0-181 32.5-245 97.5s-96 147.5-96 247.5 32 182.5 96 247.5 145.667 97.5 245 97.5 181-32.5 245-97.5 96-147.5 96-247.5-32-182.5-96-247.5-145.667-97.5-245-97.5zM382 92c66 0 119.333 22.833 160 68.5s61 103.167 61 172.5c0 70-20.333 127.667-61 173s-94 68-160 68c-66.667 0-120.167-22.667-160.5-68s-60.5-103-60.5-173 20.167-127.667 60.5-173 93.833-68 160.5-68z" glyph-name="Ocircumflex" horiz-adv-x="765" unicode="&#xd4;"/><glyph d="M382-12c-99.333 0-181 32.5-245 97.5s-96 147.5-96 247.5 32 182.5 96 247.5 145.667 97.5 245 97.5 181-32.5 245-97.5 96-147.5 96-247.5-32-182.5-96-247.5-145.667-97.5-245-97.5zM382 92c66 0 119.333 22.833 160 68.5s61 103.167 61 172.5c0 70-20.333 127.667-61 173s-94 68-160 68c-66.667 0-120.167-22.667-160.5-68s-60.5-103-60.5-173 20.167-127.667 60.5-173 93.833-68 160.5-68zM440 721c-12.667 0-24.165 2.66602-34.498 7.99902s-18.833 11.833-25.5 19.5-12.834 15.334-18.501 23.001-12 14.167-19 19.5-14.167 8-21.5 8c-12 0-22-6-30-18s-12-30-12-54h-57c0 41.333 8.83301 74 26.5 98s43.167 36 76.5 36c19.333 0 36-6.5 50-19.5s26.167-26 36.5-39 21.166-19.5 32.499-19.5c27.333 0 41 24 41 72h58c0-41.333-8.83301-74-26.5-98s-43.167-36-76.5-36z" glyph-name="Otilde" horiz-adv-x="765" unicode="&#xd5;"/><glyph d="M546 775c0-16.667-5.83301-30.667-17.5-42s-25.5-17-41.5-17-29.833 5.66699-41.5 17-17.5 25.333-17.5 42c0 16 5.83301 29.667 17.5 41s25.5 17 41.5 17 29.833-5.66699 41.5-17 17.5-25 17.5-41zM336 775c0-16.667-5.66699-30.667-17-42s-25-17-41-17c-16.667 0-30.667 5.66699-42 17s-17 25.333-17 42c0 16 5.66699 29.667 17 41s25.333 17 42 17c16 0 29.667-5.66699 41-17s17-25 17-41zM382-12c-99.333 0-181 32.5-245 97.5s-96 147.5-96 247.5 32 182.5 96 247.5 145.667 97.5 245 97.5 181-32.5 245-97.5 96-147.5 96-247.5-32-182.5-96-247.5-145.667-97.5-245-97.5zM382 92c66 0 119.333 22.833 160 68.5s61 103.167 61 172.5c0 70-20.333 127.667-61 173s-94 68-160 68c-66.667 0-120.167-22.667-160.5-68s-60.5-103-60.5-173 20.167-127.667 60.5-173 93.833-68 160.5-68z" glyph-name="Odieresis" horiz-adv-x="765" unicode="&#xd6;"/><glyph d="M395 142l-144 144-144-144-48 47 144 145-144 144 48 48 144-145 144 145 48-48-144-144 144-145z" glyph-name="multiply" horiz-adv-x="502" unicode="&#xd7;"/><glyph d="M382-12c-67.333 0-127 15.334-179 46.001l-25-34h-87l55 76c-70 66-105 151.667-105 257 0 100 32 182.5 96 247.5s145.667 97.5 245 97.5c62 0 118.667-13.667 170-41l22 30h87l-51-71c75.333-66.667 113-154.334 113-263.001 0-100-32-182.5-96-247.5s-145.667-97.5-245-97.5zM382 92.001c66 0 119.333 22.834 160 68.501s61 103.167 61 172.5-20 126.666-60 171.999l-276-383c34-20 72.333-30 115-30zM161 333.002c0-65.333 17.332-120 51.999-164l275 379c-31.333 17.333-66.666 26-105.999 26-66.667 0-120.167-22.667-160.5-68s-60.5-103-60.5-173z" glyph-name="Oslash" horiz-adv-x="765" unicode="&#xd8;"/><glyph d="M360-12c-94.667 0-166.501 24.666-215.501 73.999s-73.5 116.333-73.5 201v404h118v-400c0-54 14.833-96.667 44.5-128s71.834-47 126.501-47 96.667 15.667 126 47 44 74 44 128v400h118v-403c0-85.333-24.5-152.666-73.5-201.999s-120.5-74-214.5-74zM420.999 722.999h-75l-165 144h100z" glyph-name="Ugrave" horiz-adv-x="719" unicode="&#xd9;"/><glyph d="M539 867l-165-144h-75l140 144h100zM360-12c-94.667 0-166.501 24.666-215.501 73.999s-73.5 116.333-73.5 201v404h118v-400c0-54 14.833-96.667 44.5-128s71.834-47 126.501-47 96.667 15.667 126 47 44 74 44 128v400h118v-403c0-85.333-24.5-152.666-73.5-201.999s-120.5-74-214.5-74z" glyph-name="Uacute" horiz-adv-x="719" unicode="&#xda;"/><glyph d="M504 723h-67l-77 96-75-96h-66l93 144h96zM360-12c-94.667 0-166.501 24.666-215.501 73.999s-73.5 116.333-73.5 201v404h118v-400c0-54 14.833-96.667 44.5-128s71.834-47 126.501-47 96.667 15.667 126 47 44 74 44 128v400h118v-403c0-85.333-24.5-152.666-73.5-201.999s-120.5-74-214.5-74z" glyph-name="Ucircumflex" horiz-adv-x="719" unicode="&#xdb;"/><glyph d="M525 775c0-16.667-5.83301-30.667-17.5-42s-25.5-17-41.5-17-29.833 5.66699-41.5 17-17.5 25.333-17.5 42c0 16 5.83301 29.667 17.5 41s25.5 17 41.5 17 29.833-5.66699 41.5-17 17.5-25 17.5-41zM315 775c0-16.667-5.66699-30.667-17-42s-25-17-41-17c-16.667 0-30.667 5.66699-42 17s-17 25.333-17 42c0 16 5.66699 29.667 17 41s25.333 17 42 17c16 0 29.667-5.66699 41-17s17-25 17-41zM360-12c-94.667 0-166.501 24.666-215.501 73.999s-73.5 116.333-73.5 201v404h118v-400c0-54 14.833-96.667 44.5-128s71.834-47 126.501-47 96.667 15.667 126 47 44 74 44 128v400h118v-403c0-85.333-24.5-152.666-73.5-201.999s-120.5-74-214.5-74z" glyph-name="Udieresis" horiz-adv-x="719" unicode="&#xdc;"/><glyph d="M377 0h-117v277l-259 390h134l184-286 182 286h134l-258-390v-277zM497 867l-165-144h-75l140 144h100z" glyph-name="Yacute" horiz-adv-x="637" unicode="&#xdd;"/><glyph d="M188 0h-117v667h117v-113h176c67.333 0 120.5-20.167 159.5-60.5s58.5-90.166 58.5-149.499c0-58.667-19.5-107.834-58.5-147.501s-92.167-59.5-159.5-59.5h-176v-137zM348 240c33.333 0 60.666 9.66797 81.999 29.001s32 44.666 32 75.999-10.667 56.833-32 76.5-48.666 29.5-81.999 29.5h-160v-211h160z" glyph-name="Thorn" horiz-adv-x="608" unicode="&#xde;"/><glyph d="M606 140c0-44-17.499-80.3311-52.499-108.998s-82.5-43-142.5-43c-44.667 0-81.167 6.66699-109.5 20s-55.833 32.666-82.5 57.999l47 73c14.667-19.333 35.167-35.333 61.5-48s54.166-19 83.499-19c30 0 53.167 6.33301 69.5 19s24.5 28 24.5 46c0 14.667-6.66699 26.667-20 36s-30.166 16.166-50.499 20.499-42.166 10.166-65.499 17.499-45.166 15.5-65.499 24.5-37.166 23.167-50.499 42.5-20 43-20 71c0 24 7 45.667 21 65s29.167 34 45.5 44 31.5 21 45.5 33 21 23.667 21 35c0 18-8.83301 32.167-26.5 42.5s-37.834 15.5-60.501 15.5c-30.667 0-56-9-76-27s-30-42-30-72v-485h-105v485c0 54 19.333 99.5 58 136.5s90.334 55.5 155.001 55.5c52 0 97-12.667 135-38s57-58.333 57-99c0-24.667-7.16699-46.667-21.5-66s-30.333-34-48-44-33.667-21.667-48-35-21.5-27.666-21.5-42.999c0-13.333 6.66699-24 20-32s30.166-13.833 50.499-17.5 42.166-9.16699 65.499-16.5 45.166-15.5 65.499-24.5 37.166-24 50.499-45 20-46.5 20-76.5z" glyph-name="germandbls" horiz-adv-x="623" unicode="&#xdf;"/><glyph d="M468 0h-105.001v52c-37.333-42.667-89.333-64-156-64-44 0-83 14.167-117 42.5s-51 67.5-51 117.5c0 51.333 16.833 90.333 50.5 117s72.834 40 117.501 40c68.667 0 120.667-20.667 156-62v72c0 28-10.333 50-31 66s-48 24-82 24c-54 0-101.667-20.333-143-61l-43 73c54.667 52 122.334 78 203.001 78 59.333 0 107.666-14 144.999-42s56-72.333 56-133v-320zM247.999 60c52.667 0 91 16.667 115 50v73c-24 33.333-62.333 50-115 50-30 0-54.667-8-74-24s-29-37-29-63 9.66699-46.833 29-62.5 44-23.5 74-23.5zM327.999 556h-75l-165 144h100z" glyph-name="agrave" horiz-adv-x="536" unicode="&#xe0;"/><glyph d="M468 0h-105.001v52c-37.333-42.667-89.333-64-156-64-44 0-83 14.167-117 42.5s-51 67.5-51 117.5c0 51.333 16.833 90.333 50.5 117s72.834 40 117.501 40c68.667 0 120.667-20.667 156-62v72c0 28-10.333 50-31 66s-48 24-82 24c-54 0-101.667-20.333-143-61l-43 73c54.667 52 122.334 78 203.001 78 59.333 0 107.666-14 144.999-42s56-72.333 56-133v-320zM247.999 60c52.667 0 91 16.667 115 50v73c-24 33.333-62.333 50-115 50-30 0-54.667-8-74-24s-29-37-29-63 9.66699-46.833 29-62.5 44-23.5 74-23.5zM445.999 700l-165-144h-75l140 144h100z" glyph-name="aacute" horiz-adv-x="536" unicode="&#xe1;"/><glyph d="M468 0h-105.001v52c-37.333-42.667-89.333-64-156-64-44 0-83 14.167-117 42.5s-51 67.5-51 117.5c0 51.333 16.833 90.333 50.5 117s72.834 40 117.501 40c68.667 0 120.667-20.667 156-62v72c0 28-10.333 50-31 66s-48 24-82 24c-54 0-101.667-20.333-143-61l-43 73c54.667 52 122.334 78 203.001 78 59.333 0 107.666-14 144.999-42s56-72.333 56-133v-320zM247.999 60c52.667 0 91 16.667 115 50v73c-24 33.333-62.333 50-115 50-30 0-54.667-8-74-24s-29-37-29-63 9.66699-46.833 29-62.5 44-23.5 74-23.5zM409.999 556h-67l-77 96-75-96h-66l93 144h96z" glyph-name="acircumflex" horiz-adv-x="536" unicode="&#xe2;"/><glyph d="M468 0h-105.001v52c-37.333-42.667-89.333-64-156-64-44 0-83 14.167-117 42.5s-51 67.5-51 117.5c0 51.333 16.833 90.333 50.5 117s72.834 40 117.501 40c68.667 0 120.667-20.667 156-62v72c0 28-10.333 50-31 66s-48 24-82 24c-54 0-101.667-20.333-143-61l-43 73c54.667 52 122.334 78 203.001 78 59.333 0 107.666-14 144.999-42s56-72.333 56-133v-320zM247.999 60c52.667 0 91 16.667 115 50v73c-24 33.333-62.333 50-115 50-30 0-54.667-8-74-24s-29-37-29-63 9.66699-46.833 29-62.5 44-23.5 74-23.5zM324.999 554c-12.667 0-24.165 2.66602-34.498 7.99902s-18.833 11.833-25.5 19.5-12.834 15.334-18.501 23.001-12 14.167-19 19.5-14.167 8-21.5 8c-12 0-22-6-30-18s-12-30-12-54h-57c0 41.333 8.83301 74 26.5 98s43.167 36 76.5 36c20 0 36.833-6.5 50.5-19.5s25.667-26 36-39 21.166-19.5 32.499-19.5c27.333 0 41 24 41 72h58c0-41.333-8.83301-74-26.5-98s-43.167-36-76.5-36z" glyph-name="atilde" horiz-adv-x="536" unicode="&#xe3;"/><glyph d="M468 0h-105.001v52c-37.333-42.667-89.333-64-156-64-44 0-83 14.167-117 42.5s-51 67.5-51 117.5c0 51.333 16.833 90.333 50.5 117s72.834 40 117.501 40c68.667 0 120.667-20.667 156-62v72c0 28-10.333 50-31 66s-48 24-82 24c-54 0-101.667-20.333-143-61l-43 73c54.667 52 122.334 78 203.001 78 59.333 0 107.666-14 144.999-42s56-72.333 56-133v-320zM247.999 60c52.667 0 91 16.667 115 50v73c-24 33.333-62.333 50-115 50-30 0-54.667-8-74-24s-29-37-29-63 9.66699-46.833 29-62.5 44-23.5 74-23.5zM430.999 608c0-16.667-5.83301-30.667-17.5-42s-25.5-17-41.5-17-29.833 5.66699-41.5 17-17.5 25.333-17.5 42c0 16 5.83301 29.667 17.5 41s25.5 17 41.5 17 29.833-5.66699 41.5-17 17.5-25 17.5-41zM220.999 608c0-16.667-5.66699-30.667-17-42s-25-17-41-17c-16.667 0-30.667 5.66699-42 17s-17 25.333-17 42c0 16 5.66699 29.667 17 41s25.333 17 42 17c16 0 29.667-5.66699 41-17s17-25 17-41z" glyph-name="adieresis" horiz-adv-x="536" unicode="&#xe4;"/><glyph d="M468 0h-105.001v52c-37.333-42.667-89.333-64-156-64-44 0-83 14.167-117 42.5s-51 67.5-51 117.5c0 51.333 16.833 90.333 50.5 117s72.834 40 117.501 40c68.667 0 120.667-20.667 156-62v72c0 28-10.333 50-31 66s-48 24-82 24c-54 0-101.667-20.333-143-61l-43 73c54.667 52 122.334 78 203.001 78 59.333 0 107.666-14 144.999-42s56-72.333 56-133v-320zM247.999 60c52.667 0 91 16.667 115 50v73c-24 33.333-62.333 50-115 50-30 0-54.667-8-74-24s-29-37-29-63 9.66699-46.833 29-62.5 44-23.5 74-23.5zM267.999 536c-28 0-52 10-72 30s-30 44-30 72 10 52.167 30 72.5 44 30.5 72 30.5 51.833-10.167 71.5-30.5 29.5-44.5 29.5-72.5-9.83301-52-29.5-72-43.5-30-71.5-30zM267.999 586c14 0 26.001 5.16699 36.001 15.5s15 22.5 15 36.5c0 14.667-4.83301 27-14.5 37s-21.834 15-36.501 15c-14 0-26.167-5-36.5-15s-15.5-22.333-15.5-37c0-14 5.16699-26.167 15.5-36.5s22.5-15.5 36.5-15.5z" glyph-name="aring" horiz-adv-x="536" unicode="&#xe5;"/><glyph d="M842 207l-351.001-.00097656c4-38 18.5-69.333 43.5-94s57.833-37 98.5-37c22.667 0 45.667 4.66699 69 14s42.666 22.333 57.999 39l48-71c-23.333-22-51.333-39.167-84-51.5s-64.667-18.5-96-18.5c-88 0-151.333 32.667-190 98-19.333-29.333-47.166-53-83.499-71s-76.166-27-119.499-27c-54.667 0-101 13.833-139 41.5s-57 66.834-57 117.501c0 50 17 88.833 51 116.5s76 41.5 126 41.5c73.333 0 130-20 170-60v71c0 27.333-11.333 49-34 65s-52.334 24-89.001 24c-59.333 0-111.333-20.333-156-61l-43 73c56 52 125.333 78 208 78 91.333 0 149.333-31 174-93 42.667 62 101.667 93 177 93 66.667 0 119.834-24.5 159.501-73.5s59.5-112.167 59.5-189.5v-25zM489.999 280.999h250c-1.33301 33.333-12.5 63-33.5 89s-51.5 39-91.5 39c-38 0-67.833-13-89.5-39s-33.5-55.667-35.5-89zM385.999 174.999v6.99902c-30 34-72.667 51-128 51-33.333 0-60.5-6.83301-81.5-20.5s-31.5-33.167-31.5-58.5 10.333-44.666 31-57.999 48-20 82-20 63.833 10.5 89.5 31.5 38.5 43.5 38.5 67.5z" glyph-name="ae" horiz-adv-x="878" unicode="&#xe6;"/><glyph d="M290-192c-44.667 0-80.001 10.333-106.001 31l22 46c24-19.333 51-29 81-29 15.333 0 28.5 3.16699 39.5 9.5s16.5 15.166 16.5 26.499c0 20-11 30-33 30-14 0-25.333-5-34-15l-41 23 22 60c-65.333 6.66699-118.166 33.167-158.499 79.5s-60.5 103.833-60.5 172.5c0 73.333 23.333 133.833 70 181.5s106.667 71.5 180 71.5c80.667 0 142.334-28.667 185.001-86l-69-64c-26.667 38-63.667 57-111 57-44 0-79.333-14.833-106-44.5s-40-68.167-40-115.5 13.333-86 40-116 62-45 106-45c46 0 83 19 111 57l69-64c-38-51.333-92-79.666-162-84.999l-16-40c10.667 7.33301 22.667 11 36 11 19.333 0 35.333-6.5 48-19.5s19-29.5 19-49.5c0-24.667-10.333-44.667-31-60s-46.334-23-77.001-23z" glyph-name="ccedilla" horiz-adv-x="497" unicode="&#xe7;"/><glyph d="M291-12c-73.333 0-133.833 23.5-181.5 70.5s-71.5 108.167-71.5 183.5c0 70.667 23.167 130.5 69.5 179.5s104.833 73.5 175.5 73.5c71.333 0 128.833-24.667 172.5-74s65.5-112.333 65.5-189v-25h-373c4-38 19.667-69.667 47-95s63-38 107-38c24.667 0 49.5 4.66699 74.5 14s45.833 22.333 62.5 39l48-69c-48.667-46.667-114-70-196-70zM419 281c-1.33301 33.333-13.501 63-36.501 89s-56.167 39-99.5 39c-41.333 0-73.666-12.833-96.999-38.5s-36.333-55.5-39-89.5h272zM344.999 556h-75l-165 144h100z" glyph-name="egrave" horiz-adv-x="557" unicode="&#xe8;"/><glyph d="M463 700l-165-144h-75l140 144h100zM291-12c-73.333 0-133.833 23.5-181.5 70.5s-71.5 108.167-71.5 183.5c0 70.667 23.167 130.5 69.5 179.5s104.833 73.5 175.5 73.5c71.333 0 128.833-24.667 172.5-74s65.5-112.333 65.5-189v-25h-373c4-38 19.667-69.667 47-95s63-38 107-38c24.667 0 49.5 4.66699 74.5 14s45.833 22.333 62.5 39l48-69c-48.667-46.667-114-70-196-70zM419 281c-1.33301 33.333-13.501 63-36.501 89s-56.167 39-99.5 39c-41.333 0-73.666-12.833-96.999-38.5s-36.333-55.5-39-89.5h272z" glyph-name="eacute" horiz-adv-x="557" unicode="&#xe9;"/><glyph d="M427 556h-67l-77 96-75-96h-66l93 144h96zM291-12c-73.333 0-133.833 23.5-181.5 70.5s-71.5 108.167-71.5 183.5c0 70.667 23.167 130.5 69.5 179.5s104.833 73.5 175.5 73.5c71.333 0 128.833-24.667 172.5-74s65.5-112.333 65.5-189v-25h-373c4-38 19.667-69.667 47-95s63-38 107-38c24.667 0 49.5 4.66699 74.5 14s45.833 22.333 62.5 39l48-69c-48.667-46.667-114-70-196-70zM419 281c-1.33301 33.333-13.501 63-36.501 89s-56.167 39-99.5 39c-41.333 0-73.666-12.833-96.999-38.5s-36.333-55.5-39-89.5h272z" glyph-name="ecircumflex" horiz-adv-x="557" unicode="&#xea;"/><glyph d="M448 608c0-16.667-5.83301-30.667-17.5-42s-25.5-17-41.5-17-29.833 5.66699-41.5 17-17.5 25.333-17.5 42c0 16 5.83301 29.667 17.5 41s25.5 17 41.5 17 29.833-5.66699 41.5-17 17.5-25 17.5-41zM238 608c0-16.667-5.66699-30.667-17-42s-25-17-41-17c-16.667 0-30.667 5.66699-42 17s-17 25.333-17 42c0 16 5.66699 29.667 17 41s25.333 17 42 17c16 0 29.667-5.66699 41-17s17-25 17-41zM291-12c-73.333 0-133.833 23.5-181.5 70.5s-71.5 108.167-71.5 183.5c0 70.667 23.167 130.5 69.5 179.5s104.833 73.5 175.5 73.5c71.333 0 128.833-24.667 172.5-74s65.5-112.333 65.5-189v-25h-373c4-38 19.667-69.667 47-95s63-38 107-38c24.667 0 49.5 4.66699 74.5 14s45.833 22.333 62.5 39l48-69c-48.667-46.667-114-70-196-70zM419 281c-1.33301 33.333-13.501 63-36.501 89s-56.167 39-99.5 39c-41.333 0-73.666-12.833-96.999-38.5s-36.333-55.5-39-89.5h272z" glyph-name="edieresis" horiz-adv-x="557" unicode="&#xeb;"/><glyph d="M173 0h-105v483h105v-483zM181 556h-75l-165 144h100z" glyph-name="igrave" horiz-adv-x="241" unicode="&#xec;"/><glyph d="M300 700l-165-144h-75l140 144h100zM173 0h-105v483h105v-483z" glyph-name="iacute" horiz-adv-x="241" unicode="&#xed;"/><glyph d="M263 556h-67l-77 96-75-96h-66l93 144h96zM173 0h-105v483h105v-483z" glyph-name="icircumflex" horiz-adv-x="241" unicode="&#xee;"/><glyph d="M284 608c0-16.667-5.83301-30.667-17.5-42s-25.5-17-41.5-17-29.833 5.66699-41.5 17-17.5 25.333-17.5 42c0 16 5.83301 29.667 17.5 41s25.5 17 41.5 17 29.833-5.66699 41.5-17 17.5-25 17.5-41zM74 608c0-16.667-5.66699-30.667-17-42s-25-17-41-17c-16.667 0-30.667 5.66699-42 17s-17 25.333-17 42c0 16 5.66699 29.667 17 41s25.333 17 42 17c16 0 29.667-5.66699 41-17s17-25 17-41zM173 0h-105v483h105v-483z" glyph-name="idieresis" horiz-adv-x="241" unicode="&#xef;"/><glyph d="M111 481l-21.998 51.998 112 49c-8.66699 6-21 13.833-37 23.5s-26 15.834-30 18.501l57 85c42.667-25.333 82-51.666 118-78.999l105 46 22-51-78-35c118-103.333 177-216.666 177-339.999 0-78-22.333-141.167-67-189.5s-105.334-72.5-182.001-72.5c-74 0-133.833 22.5-179.5 67.5s-68.5 102.5-68.5 172.5c0 69.333 20.5 126.666 61.5 171.999s92.833 68 155.5 68c66 0 119-30.333 159-91-26.667 54-79.334 110-158.001 168zM286.002 80.998c43.333 0 77.5 14.167 102.5 42.5s37.5 63.166 37.5 104.499-12.5 76.166-37.5 104.499-59.167 42.5-102.5 42.5c-42.667 0-76.5-14.167-101.5-42.5s-37.5-63.166-37.5-104.499 12.5-76.166 37.5-104.499 58.833-42.5 101.5-42.5z" glyph-name="eth" horiz-adv-x="573" unicode="&#xf0;"/><glyph d="M499 0l-104.999.00097656v302c0 66.667-32.333 100-97 100-25.333 0-49-6.33301-71-19s-39.667-28-53-46v-337h-105v483h105v-66c18 21.333 42 39.666 72 54.999s62.667 23 98 23c51.333 0 90.166-13.333 116.499-40s39.5-65 39.5-115v-340zM342.001 554.001c-12.667 0-24.165 2.66602-34.498 7.99902s-18.833 11.833-25.5 19.5-12.834 15.334-18.501 23.001-12 14.167-19 19.5-14.167 8-21.5 8c-12 0-22-6-30-18s-12-30-12-54h-57c0 41.333 8.83301 74 26.5 98s43.167 36 76.5 36c19.333 0 36-6.5 50-19.5s26.167-26 36.5-39 21.166-19.5 32.499-19.5c27.333 0 41 24 41 72h58c0-41.333-8.83301-74-26.5-98s-43.167-36-76.5-36z" glyph-name="ntilde" unicode="&#xf1;"/><glyph d="M286-12c-74.667 0-134.667 24.5-180 73.5s-68 109.167-68 180.5 22.667 131.333 68 180 105.333 73 180 73c75.333 0 135.666-24.333 180.999-73s68-108.667 68-180c0-72-22.667-132.333-68-181s-105.666-73-180.999-73zM286 81c43.333 0 77.5 15.5 102.5 46.5s37.5 69.167 37.5 114.5c0 44.667-12.5 82.5-37.5 113.5s-59.167 46.5-102.5 46.5c-42.667 0-76.5-15.5-101.5-46.5s-37.5-68.833-37.5-113.5c0-45.333 12.5-83.5 37.5-114.5s58.833-46.5 101.5-46.5zM348 556h-75l-165 144h100z" glyph-name="ograve" horiz-adv-x="573" unicode="&#xf2;"/><glyph d="M466 700l-165-144h-75l140 144h100zM286-12c-74.667 0-134.667 24.5-180 73.5s-68 109.167-68 180.5 22.667 131.333 68 180 105.333 73 180 73c75.333 0 135.666-24.333 180.999-73s68-108.667 68-180c0-72-22.667-132.333-68-181s-105.666-73-180.999-73zM286 81c43.333 0 77.5 15.5 102.5 46.5s37.5 69.167 37.5 114.5c0 44.667-12.5 82.5-37.5 113.5s-59.167 46.5-102.5 46.5c-42.667 0-76.5-15.5-101.5-46.5s-37.5-68.833-37.5-113.5c0-45.333 12.5-83.5 37.5-114.5s58.833-46.5 101.5-46.5z" glyph-name="oacute" horiz-adv-x="573" unicode="&#xf3;"/><glyph d="M429 556h-67l-77 96-75-96h-66l93 144h96zM286-12c-74.667 0-134.667 24.5-180 73.5s-68 109.167-68 180.5 22.667 131.333 68 180 105.333 73 180 73c75.333 0 135.666-24.333 180.999-73s68-108.667 68-180c0-72-22.667-132.333-68-181s-105.666-73-180.999-73zM286 81c43.333 0 77.5 15.5 102.5 46.5s37.5 69.167 37.5 114.5c0 44.667-12.5 82.5-37.5 113.5s-59.167 46.5-102.5 46.5c-42.667 0-76.5-15.5-101.5-46.5s-37.5-68.833-37.5-113.5c0-45.333 12.5-83.5 37.5-114.5s58.833-46.5 101.5-46.5z" glyph-name="ocircumflex" horiz-adv-x="573" unicode="&#xf4;"/><glyph d="M286-12c-74.667 0-134.667 24.5-180 73.5s-68 109.167-68 180.5 22.667 131.333 68 180 105.333 73 180 73c75.333 0 135.666-24.333 180.999-73s68-108.667 68-180c0-72-22.667-132.333-68-181s-105.666-73-180.999-73zM286 81c43.333 0 77.5 15.5 102.5 46.5s37.5 69.167 37.5 114.5c0 44.667-12.5 82.5-37.5 113.5s-59.167 46.5-102.5 46.5c-42.667 0-76.5-15.5-101.5-46.5s-37.5-68.833-37.5-113.5c0-45.333 12.5-83.5 37.5-114.5s58.833-46.5 101.5-46.5zM344 554c-12.667 0-24.165 2.66602-34.498 7.99902s-18.833 11.833-25.5 19.5-12.834 15.334-18.501 23.001-12 14.167-19 19.5-14.167 8-21.5 8c-12 0-22-6-30-18s-12-30-12-54h-57c0 41.333 8.83301 74 26.5 98s43.167 36 76.5 36c20 0 36.833-6.5 50.5-19.5s25.667-26 36-39 21.166-19.5 32.499-19.5c27.333 0 41 24 41 72h58c0-41.333-8.83301-74-26.5-98s-43.167-36-76.5-36z" glyph-name="otilde" horiz-adv-x="573" unicode="&#xf5;"/><glyph d="M450 608c0-16.667-5.83301-30.667-17.5-42s-25.5-17-41.5-17-29.833 5.66699-41.5 17-17.5 25.333-17.5 42c0 16 5.83301 29.667 17.5 41s25.5 17 41.5 17 29.833-5.66699 41.5-17 17.5-25 17.5-41zM240 608c0-16.667-5.66699-30.667-17-42s-25-17-41-17c-16.667 0-30.667 5.66699-42 17s-17 25.333-17 42c0 16 5.66699 29.667 17 41s25.333 17 42 17c16 0 29.667-5.66699 41-17s17-25 17-41zM286-12c-74.667 0-134.667 24.5-180 73.5s-68 109.167-68 180.5 22.667 131.333 68 180 105.333 73 180 73c75.333 0 135.666-24.333 180.999-73s68-108.667 68-180c0-72-22.667-132.333-68-181s-105.666-73-180.999-73zM286 81c43.333 0 77.5 15.5 102.5 46.5s37.5 69.167 37.5 114.5c0 44.667-12.5 82.5-37.5 113.5s-59.167 46.5-102.5 46.5c-42.667 0-76.5-15.5-101.5-46.5s-37.5-68.833-37.5-113.5c0-45.333 12.5-83.5 37.5-114.5s58.833-46.5 101.5-46.5z" glyph-name="odieresis" horiz-adv-x="573" unicode="&#xf6;"/><glyph d="M310 520c0-14.667-5.33105-27.5-15.998-38.5s-23.667-16.5-39-16.5c-14.667 0-27.334 5.33301-38.001 16s-16 23.667-16 39c0 14.667 5.16699 27.334 15.5 38.001s23.166 16 38.499 16 28.333-5.33301 39-16 16-23.334 16-38.001zM482.002 303h-453v68h453v-68zM310.002 151c0-14.667-5.33496-27.332-16.002-37.999s-23.667-16-39-16-28.166 5.16699-38.499 15.5-15.5 23.166-15.5 38.499 5.33301 28.333 16 39 23.334 16 38.001 16c15.333 0 28.333-5.33301 39-16s16-23.667 16-39z" glyph-name="divide" horiz-adv-x="511" unicode="&#xf7;"/><glyph d="M118 0l-68.001.00097656 53 64c-43.333 47.333-65 106.666-65 177.999s22.667 131.333 68 180 105.333 73 180 73c52 0 98.667-13 140-39l22 27h69l-50-61c45.333-47.333 68-107.333 68-180 0-72-22.667-132.333-68-181s-105.666-73-180.999-73c-56 0-103.667 14-143 42zM285.999 81.001c43.333 0 77.5 15.499 102.5 46.499s37.5 69.167 37.5 114.5c0 38.667-9 71.334-27 98.001l-193-233c24-17.333 50.667-26 80-26zM146.999 242c0-36 7.99902-67.667 23.999-95l191 232c-23.333 15.333-48.666 23-75.999 23-42.667 0-76.5-15.5-101.5-46.5s-37.5-68.833-37.5-113.5z" glyph-name="oslash" horiz-adv-x="573" unicode="&#xf8;"/><glyph d="M499 0h-105v64c-45.333-50.667-102.333-76-171-76-103.333 0-155 51-155 153v342h105v-304c0-35.333 8.33301-60.5 25-75.5s40.667-22.5 72-22.5c25.333 0 49 6 71 18s39.667 27 53 45v339h105v-483zM344 556h-75l-165 144h100z" glyph-name="ugrave" unicode="&#xf9;"/><glyph d="M462 700l-165-144h-75l140 144h100zM499 0h-105v64c-45.333-50.667-102.333-76-171-76-103.333 0-155 51-155 153v342h105v-304c0-35.333 8.33301-60.5 25-75.5s40.667-22.5 72-22.5c25.333 0 49 6 71 18s39.667 27 53 45v339h105v-483z" glyph-name="uacute" unicode="&#xfa;"/><glyph d="M426 556h-67l-77 96-75-96h-66l93 144h96zM499 0h-105v64c-45.333-50.667-102.333-76-171-76-103.333 0-155 51-155 153v342h105v-304c0-35.333 8.33301-60.5 25-75.5s40.667-22.5 72-22.5c25.333 0 49 6 71 18s39.667 27 53 45v339h105v-483z" glyph-name="ucircumflex" unicode="&#xfb;"/><glyph d="M446 608c0-16.667-5.83301-30.667-17.5-42s-25.5-17-41.5-17-29.833 5.66699-41.5 17-17.5 25.333-17.5 42c0 16 5.83301 29.667 17.5 41s25.5 17 41.5 17 29.833-5.66699 41.5-17 17.5-25 17.5-41zM236 608c0-16.667-5.66699-30.667-17-42s-25-17-41-17c-16.667 0-30.667 5.66699-42 17s-17 25.333-17 42c0 16 5.66699 29.667 17 41s25.333 17 42 17c16 0 29.667-5.66699 41-17s17-25 17-41zM499 0h-105v64c-45.333-50.667-102.333-76-171-76-103.333 0-155 51-155 153v342h105v-304c0-35.333 8.33301-60.5 25-75.5s40.667-22.5 72-22.5c25.333 0 49 6 71 18s39.667 27 53 45v339h105v-483z" glyph-name="udieresis" unicode="&#xfc;"/><glyph d="M47-189l16 93.999c12-5.33301 25.333-8 40-8 34 0 57 14 69 42l24 55-198 489h112l141-362 141 362h113l-233-570c-28.667-71.333-84-107.666-166-108.999-22 0-41.667 2.33301-59 7zM430 699.999l-165-144h-75l140 144h100z" glyph-name="yacute" horiz-adv-x="503" unicode="&#xfd;"/><glyph d="M328-12c-64 0-115.668 26.333-155.001 79v-251h-105v851h105v-250c38.667 52 90.334 78 155.001 78 63.333 0 114.833-22.667 154.5-68s59.5-107 59.5-185-19.833-139.833-59.5-185.5-91.167-68.5-154.5-68.5zM296.999 81c41.333 0 74.333 15 99 45s37 68.667 37 116-12.333 85.833-37 115.5-57.667 44.5-99 44.5c-24 0-47.667-6.33301-71-19s-41-28-53-46v-191c12-18 29.667-33.333 53-46s47-19 71-19z" glyph-name="thorn" horiz-adv-x="578" unicode="&#xfe;"/><glyph d="M47-189l16 93.999c12-5.33301 25.333-8 40-8 34 0 57 14 69 42l24 55-198 489h112l141-362 141 362h113l-233-570c-28.667-71.333-84-107.666-166-108.999-22 0-41.667 2.33301-59 7zM415 607.999c0-16.667-5.83301-30.667-17.5-42s-25.5-17-41.5-17-29.833 5.66699-41.5 17-17.5 25.333-17.5 42c0 16 5.83301 29.667 17.5 41s25.5 17 41.5 17 29.833-5.66699 41.5-17 17.5-25 17.5-41zM205 607.999c0-16.667-5.66699-30.667-17-42s-25-17-41-17c-16.667 0-30.667 5.66699-42 17s-17 25.333-17 42c0 16 5.66699 29.667 17 41s25.333 17 42 17c16 0 29.667-5.66699 41-17s17-25 17-41z" glyph-name="ydieresis" horiz-adv-x="503" unicode="&#xff;"/><glyph d="M671 0h-133l-49 128h-306l-49-128h-133l262 667h146zM456 231l-120 318-120-318h240zM517 733h-363v62h363v-62z" glyph-name="Amacron" horiz-adv-x="673" unicode="&#x100;"/><glyph d="M468 0h-105.001v52c-37.333-42.667-89.333-64-156-64-44 0-83 14.167-117 42.5s-51 67.5-51 117.5c0 51.333 16.833 90.333 50.5 117s72.834 40 117.501 40c68.667 0 120.667-20.667 156-62v72c0 28-10.333 50-31 66s-48 24-82 24c-54 0-101.667-20.333-143-61l-43 73c54.667 52 122.334 78 203.001 78 59.333 0 107.666-14 144.999-42s56-72.333 56-133v-320zM247.999 60c52.667 0 91 16.667 115 50v73c-24 33.333-62.333 50-115 50-30 0-54.667-8-74-24s-29-37-29-63 9.66699-46.833 29-62.5 44-23.5 74-23.5zM448.999 566h-363v62h363v-62z" glyph-name="amacron" horiz-adv-x="536" unicode="&#x101;"/><glyph d="M671 0h-133l-49 128h-306l-49-128h-133l262 667h146zM456 231l-120 318-120-318h240zM511 789c-43.333-58.667-101.665-88-174.998-88-72.667 0-131.334 29.333-176.001 88l48 40c32-44 74.667-66 128-66s95.666 22 126.999 66z" glyph-name="Abreve" horiz-adv-x="673" unicode="&#x102;"/><glyph d="M468 0h-105.001v52c-37.333-42.667-89.333-64-156-64-44 0-83 14.167-117 42.5s-51 67.5-51 117.5c0 51.333 16.833 90.333 50.5 117s72.834 40 117.501 40c68.667 0 120.667-20.667 156-62v72c0 28-10.333 50-31 66s-48 24-82 24c-54 0-101.667-20.333-143-61l-43 73c54.667 52 122.334 78 203.001 78 59.333 0 107.666-14 144.999-42s56-72.333 56-133v-320zM247.999 60c52.667 0 91 16.667 115 50v73c-24 33.333-62.333 50-115 50-30 0-54.667-8-74-24s-29-37-29-63 9.66699-46.833 29-62.5 44-23.5 74-23.5zM442.999 622c-43.333-58.667-101.665-88-174.998-88-72.667 0-131.334 29.333-176.001 88l48 40c32-44 74.667-66 128-66s95.666 22 126.999 66z" glyph-name="abreve" horiz-adv-x="536" unicode="&#x103;"/><glyph d="M685-101l44.999-27c-19.333-38.667-50-58-92-58-27.333 0-50 7.33301-68 22s-27 37-27 67c0 36.667 16 69 48 97h-53l-49 128h-306l-49-128h-133l262 667h146l262-667c-48.667-24-73-55-73-93 0-15.333 3.66699-26.833 11-34.5s17-11.5 29-11.5c22.667 0 38.334 12.667 47.001 38zM455.999 231l-120 318-120-318h240z" glyph-name="Aogonek" horiz-adv-x="673" unicode="&#x104;"/><glyph d="M482-101l44.998-27c-19.333-38.667-50-58-92-58-27.333 0-50 7.33301-68 22s-27 37-27 67c0 36.667 16 69 48 97h-25v52c-37.333-42.667-89.333-64-156-64-44 0-83 14.167-117 42.5s-51 67.5-51 117.5c0 51.333 16.833 90.333 50.5 117s72.834 40 117.501 40c68.667 0 120.667-20.667 156-62v72c0 28-10.333 50-31 66s-48 24-82 24c-54 0-101.667-20.333-143-61l-43 73c54.667 52 122.334 78 203.001 78 59.333 0 107.666-14 144.999-42s56-72.333 56-133v-320c-48.667-24-73-55-73-93 0-15.333 3.66699-26.833 11-34.5s17-11.5 29-11.5c22.667 0 38.334 12.667 47.001 38zM247.998 60c52.667 0 91 16.667 115 50v73c-24 33.333-62.333 50-115 50-30 0-54.667-8-74-24s-29-37-29-63 9.66699-46.833 29-62.5 44-23.5 74-23.5z" glyph-name="aogonek" horiz-adv-x="536" unicode="&#x105;"/><glyph d="M570 867l-165-144h-75l140 144h100zM391-12c-100 0-183.333 32.1689-250 96.502s-100 147.166-100 248.499 33.333 184.166 100 248.499 150 96.5 250 96.5c116 0 205.333-50 268-150l-100-51c-16.667 28.667-40.167 52-70.5 70s-62.833 27-97.5 27c-66 0-120.833-22.667-164.5-68s-65.5-103-65.5-173 21.833-127.667 65.5-173 98.5-68 164.5-68c35.333 0 68 9 98 27s53.333 41.333 70 70l100-51c-64-100-153.333-150-268-150z" glyph-name="Cacute" horiz-adv-x="682" unicode="&#x106;"/><glyph d="M466 700l-165-144h-75l140 144h100zM288-12c-73.333 0-133.333 23.833-180 71.5s-70 108.5-70 182.5c0 73.333 23.333 133.833 70 181.5s106.667 71.5 180 71.5c80.667 0 142.334-28.667 185.001-86l-69-64c-26.667 38-63.667 57-111 57-44 0-79.333-14.833-106-44.5s-40-68.167-40-115.5 13.333-86 40-116 62-45 106-45c46 0 83 19 111 57l69-64c-42.667-57.333-104.334-86-185.001-86z" glyph-name="cacute" horiz-adv-x="497" unicode="&#x107;"/><glyph d="M533 723h-67l-77 96-75-96h-66l93 144h96zM391-12c-100 0-183.333 32.1689-250 96.502s-100 147.166-100 248.499 33.333 184.166 100 248.499 150 96.5 250 96.5c116 0 205.333-50 268-150l-100-51c-16.667 28.667-40.167 52-70.5 70s-62.833 27-97.5 27c-66 0-120.833-22.667-164.5-68s-65.5-103-65.5-173 21.833-127.667 65.5-173 98.5-68 164.5-68c35.333 0 68 9 98 27s53.333 41.333 70 70l100-51c-64-100-153.333-150-268-150z" glyph-name="Ccircumflex" horiz-adv-x="682" unicode="&#x108;"/><glyph d="M431 556h-67l-77 96-75-96h-66l93 144h96zM288-12c-73.333 0-133.333 23.833-180 71.5s-70 108.5-70 182.5c0 73.333 23.333 133.833 70 181.5s106.667 71.5 180 71.5c80.667 0 142.334-28.667 185.001-86l-69-64c-26.667 38-63.667 57-111 57-44 0-79.333-14.833-106-44.5s-40-68.167-40-115.5 13.333-86 40-116 62-45 106-45c46 0 83 19 111 57l69-64c-42.667-57.333-104.334-86-185.001-86z" glyph-name="ccircumflex" horiz-adv-x="497" unicode="&#x109;"/><glyph d="M391-12c-100 0-183.333 32.1689-250 96.502s-100 147.166-100 248.499 33.333 184.166 100 248.499 150 96.5 250 96.5c116 0 205.333-50 268-150l-100-51c-16.667 28.667-40.167 52-70.5 70s-62.833 27-97.5 27c-66 0-120.833-22.667-164.5-68s-65.5-103-65.5-173 21.833-127.667 65.5-173 98.5-68 164.5-68c35.333 0 68 9 98 27s53.333 41.333 70 70l100-51c-64-100-153.333-150-268-150zM393 715.002c-16 0-29.833 5.66699-41.5 17s-17.5 25.333-17.5 42c0 16 5.83301 29.833 17.5 41.5s25.5 17.5 41.5 17.5 29.667-5.83301 41-17.5 17-25.5 17-41.5c0-16.667-5.66699-30.667-17-42s-25-17-41-17z" glyph-name="Cdotaccent" horiz-adv-x="682" unicode="&#x10a;"/><glyph d="M288-12c-73.333 0-133.333 23.833-180 71.5s-70 108.5-70 182.5c0 73.333 23.333 133.833 70 181.5s106.667 71.5 180 71.5c80.667 0 142.334-28.667 185.001-86l-69-64c-26.667 38-63.667 57-111 57-44 0-79.333-14.833-106-44.5s-40-68.167-40-115.5 13.333-86 40-116 62-45 106-45c46 0 83 19 111 57l69-64c-42.667-57.333-104.334-86-185.001-86zM289 548c-16 0-29.833 5.66699-41.5 17s-17.5 25.333-17.5 42c0 16 5.83301 29.833 17.5 41.5s25.5 17.5 41.5 17.5 29.667-5.83301 41-17.5 17-25.5 17-41.5c0-16.667-5.66699-30.667-17-42s-25-17-41-17z" glyph-name="cdotaccent" horiz-adv-x="497" unicode="&#x10b;"/><glyph d="M440 723h-96l-96 144h66l78-97 74 97h67zM391-12c-100 0-183.333 32.1689-250 96.502s-100 147.166-100 248.499 33.333 184.166 100 248.499 150 96.5 250 96.5c116 0 205.333-50 268-150l-100-51c-16.667 28.667-40.167 52-70.5 70s-62.833 27-97.5 27c-66 0-120.833-22.667-164.5-68s-65.5-103-65.5-173 21.833-127.667 65.5-173 98.5-68 164.5-68c35.333 0 68 9 98 27s53.333 41.333 70 70l100-51c-64-100-153.333-150-268-150z" glyph-name="Ccaron" horiz-adv-x="682" unicode="&#x10c;"/><glyph d="M338 556h-96l-96 144h66l78-97 74 97h67zM288-12c-73.333 0-133.333 23.833-180 71.5s-70 108.5-70 182.5c0 73.333 23.333 133.833 70 181.5s106.667 71.5 180 71.5c80.667 0 142.334-28.667 185.001-86l-69-64c-26.667 38-63.667 57-111 57-44 0-79.333-14.833-106-44.5s-40-68.167-40-115.5 13.333-86 40-116 62-45 106-45c46 0 83 19 111 57l69-64c-42.667-57.333-104.334-86-185.001-86z" glyph-name="ccaron" horiz-adv-x="497" unicode="&#x10d;"/><glyph d="M407 723h-96l-96 144h66l78-97 74 97h67zM319 0h-248v667h248c103.333 0 187.333-31 252-93s97-142.333 97-241c0-98-32.167-178-96.5-240s-148.5-93-252.5-93zM319 103c70 0 125.667 22.001 167 66.001s62 98.667 62 164c0 67.333-20.167 122.666-60.5 165.999s-96.5 65-168.5 65h-131v-461h131z" glyph-name="Dcaron" horiz-adv-x="710" unicode="&#x10e;"/><glyph d="M675 604c0-28-7.16699-54.6689-21.5-80.002s-33.166-46.333-56.499-63l-39 31c14 8.66699 27 21 39 37s19.333 31 22 45c-2.66699-1.33301-7.33398-2-14.001-2-13.333 0-24.666 4.83301-33.999 14.5s-14 21.834-14 36.501c0 15.333 5.33301 28.5 16 39.5s23.667 16.5 39 16.5c17.333 0 32.166-6.66699 44.499-20s18.5-31.666 18.5-54.999zM513-.00195312h-105v66c-40-52-91.667-78-155-78s-115 22.667-155 68-60 107-60 185c0 77.333 20 139 60 185s91.667 69 155 69 115-26.333 155-79v251h105v-667zM283 80.998c24.667 0 48.667 6 72 18s41 27.333 53 46v192c-12 18.667-29.667 34.167-53 46.5s-47.333 18.5-72 18.5c-41.333 0-74.333-15-99-45s-37-68.667-37-116 12.333-85.833 37-115.5 57.667-44.5 99-44.5z" glyph-name="dcaron" horiz-adv-x="670" unicode="&#x10f;"/><glyph d="M345 0h-248v285h-88v86h88v296h248c103.333 0 187.333-31 252-93s97-142.333 97-241c0-98-32.167-178-96.5-240s-148.5-93-252.5-93zM345 103c70 0 125.667 22.001 167 66.001s62 98.667 62 164c0 67.333-20.167 122.666-60.5 165.999s-96.5 65-168.5 65h-131v-193h158v-86h-158v-182h131z" glyph-name="Dcroat" horiz-adv-x="736" unicode="&#x110;"/><glyph d="M513 0h-105v66c-40-52-91.667-78-155-78s-115 22.667-155 68-60 107-60 185c0 77.333 20 139 60 185s91.667 69 155 69 115-26.333 155-79v115h-150v62h150v74h105v-74h63v-62h-63v-531zM283 81c24.667 0 48.667 6 72 18s41 27.333 53 46v192c-12 18.667-29.667 34.167-53 46.5s-47.333 18.5-72 18.5c-41.333 0-74.333-15-99-45s-37-68.667-37-116 12.333-85.833 37-115.5 57.667-44.5 99-44.5z" glyph-name="dcroat" horiz-adv-x="585" unicode="&#x111;"/><glyph d="M528 0h-457v667h457v-103h-340v-173h333v-103h-333v-185h340v-103zM481 733h-363v62h363v-62z" glyph-name="Emacron" horiz-adv-x="577" unicode="&#x112;"/><glyph d="M291-12c-73.333 0-133.833 23.5-181.5 70.5s-71.5 108.167-71.5 183.5c0 70.667 23.167 130.5 69.5 179.5s104.833 73.5 175.5 73.5c71.333 0 128.833-24.667 172.5-74s65.5-112.333 65.5-189v-25h-373c4-38 19.667-69.667 47-95s63-38 107-38c24.667 0 49.5 4.66699 74.5 14s45.833 22.333 62.5 39l48-69c-48.667-46.667-114-70-196-70zM419 281c-1.33301 33.333-13.501 63-36.501 89s-56.167 39-99.5 39c-41.333 0-73.666-12.833-96.999-38.5s-36.333-55.5-39-89.5h272zM465.999 566h-363v62h363v-62z" glyph-name="emacron" horiz-adv-x="557" unicode="&#x113;"/><glyph d="M528 0h-457v667h457v-103h-340v-173h333v-103h-333v-185h340v-103zM476 789c-43.333-58.667-101.665-88-174.998-88-72.667 0-131.334 29.333-176.001 88l48 40c32-44 74.667-66 128-66s95.666 22 126.999 66z" glyph-name="Ebreve" horiz-adv-x="577" unicode="&#x114;"/><glyph d="M291-12c-73.333 0-133.833 23.5-181.5 70.5s-71.5 108.167-71.5 183.5c0 70.667 23.167 130.5 69.5 179.5s104.833 73.5 175.5 73.5c71.333 0 128.833-24.667 172.5-74s65.5-112.333 65.5-189v-25h-373c4-38 19.667-69.667 47-95s63-38 107-38c24.667 0 49.5 4.66699 74.5 14s45.833 22.333 62.5 39l48-69c-48.667-46.667-114-70-196-70zM419 281c-1.33301 33.333-13.501 63-36.501 89s-56.167 39-99.5 39c-41.333 0-73.666-12.833-96.999-38.5s-36.333-55.5-39-89.5h272zM459.999 622c-43.333-58.667-101.665-88-174.998-88-72.667 0-131.334 29.333-176.001 88l48 40c32-44 74.667-66 128-66s95.666 22 126.999 66z" glyph-name="ebreve" horiz-adv-x="557" unicode="&#x115;"/><glyph d="M528 0h-457v667h457v-103h-340v-173h333v-103h-333v-185h340v-103zM301 715c-16 0-29.833 5.66699-41.5 17s-17.5 25.333-17.5 42c0 16 5.83301 29.833 17.5 41.5s25.5 17.5 41.5 17.5 29.667-5.83301 41-17.5 17-25.5 17-41.5c0-16.667-5.66699-30.667-17-42s-25-17-41-17z" glyph-name="Edotaccent" horiz-adv-x="577" unicode="&#x116;"/><glyph d="M291-12c-73.333 0-133.833 23.5-181.5 70.5s-71.5 108.167-71.5 183.5c0 70.667 23.167 130.5 69.5 179.5s104.833 73.5 175.5 73.5c71.333 0 128.833-24.667 172.5-74s65.5-112.333 65.5-189v-25h-373c4-38 19.667-69.667 47-95s63-38 107-38c24.667 0 49.5 4.66699 74.5 14s45.833 22.333 62.5 39l48-69c-48.667-46.667-114-70-196-70zM419 281c-1.33301 33.333-13.501 63-36.501 89s-56.167 39-99.5 39c-41.333 0-73.666-12.833-96.999-38.5s-36.333-55.5-39-89.5h272zM284.999 548c-16 0-29.833 5.66699-41.5 17s-17.5 25.333-17.5 42c0 16 5.83301 29.833 17.5 41.5s25.5 17.5 41.5 17.5 29.667-5.83301 41-17.5 17-25.5 17-41.5c0-16.667-5.66699-30.667-17-42s-25-17-41-17z" glyph-name="edotaccent" horiz-adv-x="557" unicode="&#x117;"/><glyph d="M528 0c-48.667-24-73.001-55-73.001-93 0-15.333 3.66699-26.833 11-34.5s17-11.5 29-11.5c22.667 0 38.334 12.667 47.001 38l45-27c-19.333-38.667-50-58-92-58-27.333 0-50 7.33301-68 22s-27 37-27 67c0 36.667 16 69 48 97h-377v667h457v-103h-340v-173h333v-103h-333v-185h340v-103z" glyph-name="Eogonek" horiz-adv-x="577" unicode="&#x118;"/><glyph d="M395-101l44.999-27.001c-19.333-38.667-50-58-92-58-27.333 0-50 7.33301-68 22s-27 37-27 67c0 31.333 12 59.666 36 84.999-72.667.666992-132.667 24.334-180 71.001s-71 107.667-71 183c0 70.667 23.167 130.5 69.5 179.5s104.833 73.5 175.5 73.5c71.333 0 128.833-24.667 172.5-74s65.5-112.333 65.5-189v-25h-373c4-38 19.667-69.667 47-95s63-38 107-38c24.667 0 49.5 4.66699 74.5 14s45.833 22.333 62.5 39l48-69c-28-27.333-63.333-46.666-106-57.999-48.667-24-73-55-73-93 0-15.333 3.66699-26.833 11-34.5s17-11.5 29-11.5c22.667 0 38.334 12.667 47.001 38zM418.999 280.999c-1.33301 33.333-13.501 63-36.501 89s-56.167 39-99.5 39c-41.333 0-73.666-12.833-96.999-38.5s-36.333-55.5-39-89.5h272z" glyph-name="eogonek" horiz-adv-x="557" unicode="&#x119;"/><glyph d="M350 723h-96l-96 144h66l78-97 74 97h67zM528 0h-457v667h457v-103h-340v-173h333v-103h-333v-185h340v-103z" glyph-name="Ecaron" horiz-adv-x="577" unicode="&#x11a;"/><glyph d="M333 556h-96l-96 144h66l78-97 74 97h67zM291-12c-73.333 0-133.833 23.5-181.5 70.5s-71.5 108.167-71.5 183.5c0 70.667 23.167 130.5 69.5 179.5s104.833 73.5 175.5 73.5c71.333 0 128.833-24.667 172.5-74s65.5-112.333 65.5-189v-25h-373c4-38 19.667-69.667 47-95s63-38 107-38c24.667 0 49.5 4.66699 74.5 14s45.833 22.333 62.5 39l48-69c-48.667-46.667-114-70-196-70zM419 281c-1.33301 33.333-13.501 63-36.501 89s-56.167 39-99.5 39c-41.333 0-73.666-12.833-96.999-38.5s-36.333-55.5-39-89.5h272z" glyph-name="ecaron" horiz-adv-x="557" unicode="&#x11b;"/><glyph d="M537 723h-67l-77 96-75-96h-66l93 144h96zM391-13c-98.667 0-181.665 31.999-248.998 95.999s-101 147.333-101 250 33.667 185.834 101 249.501 150.333 95.5 249 95.5c114.667 0 204.334-46.333 269.001-139l-96-54c-18.667 26-43.167 47.333-73.5 64s-63.5 25-99.5 25c-66 0-120.833-22.667-164.5-68s-65.5-103-65.5-173 21.833-127.833 65.5-173.5 98.5-68.5 164.5-68.5c31.333 0 61.166 6 89.499 18s51.166 26 68.499 42v104h-199v103h316v-250c-72.667-80.667-164.334-121-275.001-121z" glyph-name="Gcircumflex" horiz-adv-x="717" unicode="&#x11c;"/><glyph d="M437 556h-67l-77 96-75-96h-66l93 144h96zM264-196c-82 0-149.332 23.999-201.999 71.999l49 76c36-41.333 87-62 153-62 40 0 73.833 10.5 101.5 31.5s41.5 54.167 41.5 99.5v58c-41.333-53.333-93-80-155-80-63.333 0-114.833 22-154.5 66s-59.5 104.667-59.5 182c0 76.667 19.833 137.167 59.5 181.5s91.167 66.5 154.5 66.5 115-26.333 155-79v67h105v-458c0-41.333-7.16699-77.166-21.5-107.499s-33.833-53.333-58.5-69-50.834-27-78.501-34-57.5-10.5-89.5-10.5zM283.001 91.999c24 0 47.667 6.33301 71 19s41 28 53 46v180c-12 18-29.667 33.333-53 46s-47 19-71 19c-41.333 0-74.333-14.167-99-42.5s-37-65.833-37-112.5 12.333-84.167 37-112.5 57.667-42.5 99-42.5z" glyph-name="gcircumflex" horiz-adv-x="580" unicode="&#x11d;"/><glyph d="M391-13c-98.667 0-181.665 31.999-248.998 95.999s-101 147.333-101 250 33.667 185.834 101 249.501 150.333 95.5 249 95.5c114.667 0 204.334-46.333 269.001-139l-96-54c-18.667 26-43.167 47.333-73.5 64s-63.5 25-99.5 25c-66 0-120.833-22.667-164.5-68s-65.5-103-65.5-173 21.833-127.833 65.5-173.5 98.5-68.5 164.5-68.5c31.333 0 61.166 6 89.499 18s51.166 26 68.499 42v104h-199v103h316v-250c-72.667-80.667-164.334-121-275.001-121zM568.002 788.999c-43.333-58.667-101.665-88-174.998-88-72.667 0-131.334 29.333-176.001 88l48 40c32-44 74.667-66 128-66s95.666 22 126.999 66z" glyph-name="Gbreve" horiz-adv-x="717" unicode="&#x11e;"/><glyph d="M264-196c-82 0-149.332 23.999-201.999 71.999l49 76c36-41.333 87-62 153-62 40 0 73.833 10.5 101.5 31.5s41.5 54.167 41.5 99.5v58c-41.333-53.333-93-80-155-80-63.333 0-114.833 22-154.5 66s-59.5 104.667-59.5 182c0 76.667 19.833 137.167 59.5 181.5s91.167 66.5 154.5 66.5 115-26.333 155-79v67h105v-458c0-41.333-7.16699-77.166-21.5-107.499s-33.833-53.333-58.5-69-50.834-27-78.501-34-57.5-10.5-89.5-10.5zM283.001 91.999c24 0 47.667 6.33301 71 19s41 28 53 46v180c-12 18-29.667 33.333-53 46s-47 19-71 19c-41.333 0-74.333-14.167-99-42.5s-37-65.833-37-112.5 12.333-84.167 37-112.5 57.667-42.5 99-42.5zM469.001 621.999c-43.333-58.667-101.665-88-174.998-88-72.667 0-131.334 29.333-176.001 88l48 40c32-44 74.667-66 128-66s95.666 22 126.999 66z" glyph-name="gbreve" horiz-adv-x="580" unicode="&#x11f;"/><glyph d="M391-13c-98.667 0-181.665 31.999-248.998 95.999s-101 147.333-101 250 33.667 185.834 101 249.501 150.333 95.5 249 95.5c114.667 0 204.334-46.333 269.001-139l-96-54c-18.667 26-43.167 47.333-73.5 64s-63.5 25-99.5 25c-66 0-120.833-22.667-164.5-68s-65.5-103-65.5-173 21.833-127.833 65.5-173.5 98.5-68.5 164.5-68.5c31.333 0 61.166 6 89.499 18s51.166 26 68.499 42v104h-199v103h316v-250c-72.667-80.667-164.334-121-275.001-121zM393.002 714.999c-16 0-29.833 5.66699-41.5 17s-17.5 25.333-17.5 42c0 16 5.83301 29.833 17.5 41.5s25.5 17.5 41.5 17.5 29.667-5.83301 41-17.5 17-25.5 17-41.5c0-16.667-5.66699-30.667-17-42s-25-17-41-17z" glyph-name="Gdotaccent" horiz-adv-x="717" unicode="&#x120;"/><glyph d="M264-196c-82 0-149.332 23.999-201.999 71.999l49 76c36-41.333 87-62 153-62 40 0 73.833 10.5 101.5 31.5s41.5 54.167 41.5 99.5v58c-41.333-53.333-93-80-155-80-63.333 0-114.833 22-154.5 66s-59.5 104.667-59.5 182c0 76.667 19.833 137.167 59.5 181.5s91.167 66.5 154.5 66.5 115-26.333 155-79v67h105v-458c0-41.333-7.16699-77.166-21.5-107.499s-33.833-53.333-58.5-69-50.834-27-78.501-34-57.5-10.5-89.5-10.5zM283.001 91.999c24 0 47.667 6.33301 71 19s41 28 53 46v180c-12 18-29.667 33.333-53 46s-47 19-71 19c-41.333 0-74.333-14.167-99-42.5s-37-65.833-37-112.5 12.333-84.167 37-112.5 57.667-42.5 99-42.5zM294.001 547.999c-16 0-29.833 5.66699-41.5 17s-17.5 25.333-17.5 42c0 16 5.83301 29.833 17.5 41.5s25.5 17.5 41.5 17.5 29.667-5.83301 41-17.5 17-25.5 17-41.5c0-16.667-5.66699-30.667-17-42s-25-17-41-17z" glyph-name="gdotaccent" horiz-adv-x="580" unicode="&#x121;"/><glyph d="M455-138c0-28-7.16699-54.6689-21.5-80.002s-33.166-46.333-56.499-63l-39 31c14 8.66699 27 21 39 37s19.333 31 22 45c-2.66699-1.33301-7.33398-2-14.001-2-13.333 0-24.666 4.83301-33.999 14.5s-14 21.834-14 36.501c0 15.333 5.33301 28.5 16 39.5s23.667 16.5 39 16.5c17.333 0 32.166-6.66699 44.499-20s18.5-31.666 18.5-54.999zM391-13.002c-98.667 0-181.665 31.999-248.998 95.999s-101 147.333-101 250 33.667 185.834 101 249.501 150.333 95.5 249 95.5c114.667 0 204.334-46.333 269.001-139l-96-54c-18.667 26-43.167 47.333-73.5 64s-63.5 25-99.5 25c-66 0-120.833-22.667-164.5-68s-65.5-103-65.5-173 21.833-127.833 65.5-173.5 98.5-68.5 164.5-68.5c31.333 0 61.166 6 89.499 18s51.166 26 68.499 42v104h-199v103h316v-250c-72.667-80.667-164.334-121-275.001-121z" glyph-name="Gcommaaccent" horiz-adv-x="717" unicode="&#x122;"/><glyph d="M236 611c0 30.667 6.83398 59.167 20.501 85.5s31.834 47.5 54.501 63.5l39-31c-14-8.66699-27.167-20.667-39.5-36s-19.166-29.666-20.499-42.999h2c1.33301.666992 2.66602 1 3.99902 1 13.333 0 25.666-5.16699 36.999-15.5s17-22.833 17-37.5c0-15.333-5.5-28.5-16.5-39.5s-24.5-16.5-40.5-16.5c-14.667 0-27.834 5.66699-39.501 17s-17.5 28.666-17.5 51.999zM264.001-196c-82 0-149.332 23.999-201.999 71.999l49 76c36-41.333 87-62 153-62 40 0 73.833 10.5 101.5 31.5s41.5 54.167 41.5 99.5v58c-41.333-53.333-93-80-155-80-63.333 0-114.833 22-154.5 66s-59.5 104.667-59.5 182c0 76.667 19.833 137.167 59.5 181.5s91.167 66.5 154.5 66.5 115-26.333 155-79v67h105v-458c0-41.333-7.16699-77.166-21.5-107.499s-33.833-53.333-58.5-69-50.834-27-78.501-34-57.5-10.5-89.5-10.5zM283.002 91.999c24 0 47.667 6.33301 71 19s41 28 53 46v180c-12 18-29.667 33.333-53 46s-47 19-71 19c-41.333 0-74.333-14.167-99-42.5s-37-65.833-37-112.5 12.333-84.167 37-112.5 57.667-42.5 99-42.5z" glyph-name="gcommaaccent" horiz-adv-x="580" unicode="&#x123;"/><glyph d="M502 723h-67l-77 96-75-96h-66l93 144h96zM652 0h-117v291h-347v-291h-117v667h117v-273h347v273h117v-667z" glyph-name="Hcircumflex" horiz-adv-x="723" unicode="&#x124;"/><glyph d="M427 723h-67l-77 96-75-96h-66l93 144h96zM500 0l-104.999.00097656v304c0 35.333-8.5 60.5-25.5 75.5s-41.167 22.5-72.5 22.5c-24.667 0-48-6.33301-70-19s-40-28-54-46v-337h-105v667h105v-250c18 21.333 42.167 39.666 72.5 54.999s63.166 23 98.499 23c104 0 156-51 156-153v-342z" glyph-name="hcircumflex" horiz-adv-x="568" unicode="&#x125;"/><glyph d="M661 0h-117v291h-347v-291h-117v496h-71v62h71v109h117v-109h347v109h117v-109h70v-62h-70v-496zM197 394h347v102h-347v-102z" glyph-name="Hbar" horiz-adv-x="741" unicode="&#x126;"/></font>
</defs>
</svg>
