<?xml version="1.0" encoding="iso-8859-1"?>
<!-- Generator: Adobe Illustrator 16.0.0, SVG Export Plug-In . SVG Version: 6.00 Build 0)  -->
<!DOCTYPE svg PUBLIC "-//W3C//DTD SVG 1.1//EN" "http://www.w3.org/Graphics/SVG/1.1/DTD/svg11.dtd">
<svg version="1.1" id="Layer_1" xmlns="http://www.w3.org/2000/svg" xmlns:xlink="http://www.w3.org/1999/xlink" x="0px" y="0px"
	 width="253px" height="67px" viewBox="0 0 253 67" style="enable-background:new 0 0 253 67;" xml:space="preserve">
<path style="fill:#FFFFFF;" d="M31.617,37.166h-9V21.792H9.328v15.375h-9V2.268h9v12.773h13.289V2.268h9V37.166z"/>
<path style="fill:#FFFFFF;" d="M53.072,34.377c-0.453,0.344-1.016,0.758-1.688,1.242s-1.305,0.867-1.898,1.148
	c-0.828,0.375-1.688,0.652-2.578,0.832s-1.867,0.27-2.93,0.27c-2.5,0-4.594-0.773-6.281-2.32s-2.531-3.523-2.531-5.929
	c0-1.922,0.43-3.492,1.289-4.711s2.078-2.18,3.656-2.883c1.563-0.703,3.5-1.203,5.813-1.5s4.711-0.516,7.195-0.656v-0.141
	c0-1.453-0.594-2.457-1.781-3.012s-2.938-0.832-5.25-0.832c-1.391,0-2.875,0.246-4.453,0.738s-2.711,0.871-3.398,1.137h-0.773
	v-6.352c0.891-0.234,2.34-0.512,4.348-0.832s4.02-0.48,6.035-0.48c4.797,0,8.262,0.738,10.395,2.215s3.199,3.793,3.199,6.949v17.906
	h-8.367V34.377z M53.072,30.282v-5.467c-1.141,0.094-2.375,0.222-3.703,0.386c-1.328,0.163-2.336,0.354-3.023,0.572
	c-0.844,0.265-1.488,0.65-1.934,1.156c-0.445,0.506-0.668,1.172-0.668,1.998c0,0.545,0.047,0.989,0.141,1.332
	s0.328,0.669,0.703,0.981c0.359,0.312,0.789,0.541,1.289,0.689c0.5,0.147,1.281,0.222,2.344,0.222c0.844,0,1.699-0.171,2.566-0.514
	S52.416,30.843,53.072,30.282z"/>
<path style="fill:#FFFFFF;" d="M85.436,18.885h-0.748c-0.359-0.125-0.936-0.219-1.731-0.281s-1.458-0.094-1.988-0.094
	c-1.2,0-2.261,0.078-3.181,0.234s-1.91,0.422-2.97,0.797v17.625h-8.461v-26.32h8.461v3.867c1.855-1.594,3.469-2.652,4.841-3.176
	c1.372-0.523,2.635-0.785,3.789-0.785c0.296,0,0.631,0.008,1.005,0.023c0.375,0.016,0.702,0.039,0.982,0.07V18.885z"/>
<path style="fill:#FFFFFF;" d="M114.25,37.166h-8.251v-2.742c-1.416,1.188-2.739,2.063-3.972,2.625s-2.656,0.844-4.27,0.844
	c-3.12,0-5.616-1.234-7.487-3.703c-1.873-2.468-2.808-5.796-2.808-9.984c0-2.234,0.316-4.215,0.947-5.941s1.495-3.207,2.591-4.441
	c1.035-1.172,2.29-2.082,3.767-2.73c1.476-0.648,2.953-0.973,4.429-0.973c1.537,0,2.797,0.168,3.778,0.504
	c0.981,0.336,1.99,0.762,3.025,1.277V0.698h8.251V37.166z M105.999,29.922V16.988c-0.578-0.25-1.186-0.43-1.824-0.54
	c-0.638-0.11-1.224-0.165-1.756-0.165c-2.159,0-3.779,0.692-4.857,2.078c-1.08,1.385-1.619,3.306-1.619,5.763
	c0,2.582,0.434,4.456,1.3,5.622c0.867,1.166,2.258,1.749,4.173,1.749c0.745,0,1.535-0.145,2.372-0.435
	C104.623,30.771,105.36,30.391,105.999,29.922z"/>
<path style="fill:#FFFFFF;" d="M162.916,10.846l-8.156,26.32h-8.957l-5.363-17.742l-5.298,17.742h-9.046l-8.086-26.32h8.851
	l4.519,18.141l5.615-18.141h7.477l5.339,18.141l4.444-18.141H162.916z"/>
<path style="fill:#FFFFFF;" d="M180.933,34.377c-0.453,0.344-1.016,0.758-1.688,1.242s-1.305,0.867-1.898,1.148
	c-0.828,0.375-1.688,0.652-2.578,0.832s-1.867,0.27-2.93,0.27c-2.5,0-4.594-0.773-6.281-2.32s-2.531-3.523-2.531-5.929
	c0-1.922,0.43-3.492,1.289-4.711s2.078-2.18,3.656-2.883c1.563-0.703,3.5-1.203,5.813-1.5s4.711-0.516,7.195-0.656v-0.141
	c0-1.453-0.594-2.457-1.781-3.012s-2.938-0.832-5.25-0.832c-1.391,0-2.875,0.246-4.453,0.738s-2.711,0.871-3.398,1.137h-0.773
	v-6.352c0.891-0.234,2.34-0.512,4.348-0.832s4.02-0.48,6.035-0.48c4.797,0,8.262,0.738,10.395,2.215s3.199,3.793,3.199,6.949v17.906
	h-8.367V34.377z M180.933,30.282v-5.467c-1.141,0.094-2.375,0.222-3.703,0.386c-1.328,0.163-2.336,0.354-3.023,0.572
	c-0.844,0.265-1.488,0.65-1.934,1.156c-0.445,0.506-0.668,1.172-0.668,1.998c0,0.545,0.047,0.989,0.141,1.332
	s0.328,0.669,0.703,0.981c0.359,0.312,0.789,0.541,1.289,0.689c0.5,0.147,1.281,0.222,2.344,0.222c0.844,0,1.699-0.171,2.566-0.514
	S180.276,30.843,180.933,30.282z"/>
<path style="fill:#FFFFFF;" d="M214.176,18.885h-0.748c-0.359-0.125-0.936-0.219-1.73-0.281c-0.796-0.063-1.458-0.094-1.988-0.094
	c-1.2,0-2.261,0.078-3.181,0.234s-1.91,0.422-2.97,0.797v17.625h-8.461v-26.32h8.461v3.867c1.855-1.594,3.469-2.652,4.841-3.176
	s2.635-0.785,3.788-0.785c0.297,0,0.632,0.008,1.006,0.023c0.375,0.016,0.702,0.039,0.982,0.07V18.885z"/>
<path style="fill:#FFFFFF;" d="M242.918,25.565h-19.313c0.125,2.063,0.91,3.641,2.355,4.734s3.574,1.641,6.387,1.641
	c1.781,0,3.508-0.32,5.18-0.961s2.992-1.328,3.961-2.063h0.938v6.773c-1.906,0.766-3.703,1.32-5.391,1.664s-3.555,0.516-5.602,0.516
	c-5.281,0-9.328-1.188-12.141-3.563c-2.813-2.375-4.219-5.757-4.219-10.148c0-4.344,1.332-7.785,3.996-10.324
	s6.316-3.809,10.957-3.809c4.281,0,7.5,1.082,9.656,3.246s3.234,5.277,3.234,9.34V25.565z M234.527,20.62
	c-0.047-1.766-0.484-3.094-1.313-3.984s-2.117-1.336-3.867-1.336c-1.625,0-2.961,0.422-4.008,1.266s-1.633,2.195-1.758,4.055
	H234.527z"/>
<path style="fill:#FFFFFF;" d="M143.5,66.412h-3.667L129.27,47.811v18.602h-2.769V45.619h4.594l9.637,16.98v-16.98h2.769V66.412z"/>
<path style="fill:#FFFFFF;" d="M168.119,66.412h-3.151l-2.182-5.795h-9.62l-2.182,5.795h-3.002l8.096-20.793h3.945L168.119,66.412z
	 M161.875,58.242l-3.898-10.208l-3.914,10.208H161.875z"/>
<path style="fill:#FFFFFF;" d="M186.51,48.076h-7.873v18.336h-2.93V48.076h-7.873v-2.457h18.676V48.076z"/>
<path style="fill:#FFFFFF;" d="M193.825,66.412H191.2V45.619h2.625V66.412z"/>
<path style="fill:#FFFFFF;" d="M217.836,48.006c0.913,0.932,1.613,2.072,2.102,3.422c0.486,1.35,0.729,2.882,0.729,4.595
	s-0.249,3.247-0.745,4.601c-0.497,1.355-1.192,2.484-2.086,3.387c-0.924,0.941-2.017,1.648-3.277,2.123
	c-1.26,0.475-2.698,0.713-4.315,0.713c-1.576,0-3.01-0.242-4.3-0.727c-1.291-0.484-2.388-1.188-3.291-2.109
	c-0.904-0.922-1.601-2.053-2.088-3.393c-0.486-1.342-0.73-2.873-0.73-4.595c0-1.694,0.241-3.214,0.724-4.56
	c0.481-1.346,1.186-2.498,2.108-3.457c0.885-0.912,1.98-1.609,3.292-2.094c1.311-0.484,2.739-0.727,4.285-0.727
	c1.606,0,3.052,0.244,4.331,0.732C215.855,46.408,216.94,47.104,217.836,48.006z M217.564,56.022c0-2.7-0.652-4.783-1.958-6.249
	c-1.306-1.467-3.088-2.199-5.348-2.199c-2.28,0-4.069,0.732-5.37,2.199c-1.302,1.466-1.951,3.549-1.951,6.249
	c0,2.728,0.663,4.815,1.988,6.263c1.325,1.448,3.104,2.172,5.333,2.172c2.229,0,4.003-0.724,5.324-2.172
	C216.904,60.838,217.564,58.75,217.564,56.022z"/>
<path style="fill:#FFFFFF;" d="M242.201,66.412h-3.611l-10.404-18.602v18.602h-2.727V45.619h4.524l9.491,16.98v-16.98h2.727V66.412z
	"/>
<g>
	<path style="fill:#FFFFFF;" d="M250.244,8.665h-1.429l-1.233-1.933h-0.541v1.933h-1.164V3.393h1.962
		c0.267,0,0.498,0.018,0.691,0.053c0.192,0.036,0.373,0.112,0.541,0.23c0.171,0.119,0.307,0.271,0.407,0.458
		c0.101,0.188,0.15,0.423,0.15,0.707c0,0.389-0.077,0.707-0.232,0.952c-0.155,0.246-0.377,0.45-0.666,0.613L250.244,8.665z
		 M248.42,5.008c0-0.132-0.023-0.246-0.07-0.34c-0.046-0.095-0.127-0.169-0.24-0.223c-0.079-0.038-0.172-0.061-0.277-0.069
		c-0.105-0.009-0.228-0.013-0.368-0.013h-0.423v1.42h0.359c0.187,0,0.343-0.011,0.469-0.032c0.126-0.021,0.23-0.069,0.316-0.145
		c0.082-0.073,0.141-0.154,0.179-0.242C248.401,5.275,248.42,5.156,248.42,5.008z"/>
</g>
<g>
	<path style="fill:#FFFFFF;" d="M247.739,2.346c2.033,0,3.687,1.653,3.687,3.685c0,2.033-1.653,3.686-3.687,3.686
		c-2.032,0-3.686-1.653-3.686-3.686C244.054,3.999,245.707,2.346,247.739,2.346 M247.739,1.646c-2.422,0-4.386,1.963-4.386,4.385
		c0,2.423,1.964,4.386,4.386,4.386c2.423,0,4.387-1.963,4.387-4.386C252.126,3.609,250.162,1.646,247.739,1.646L247.739,1.646z"/>
</g>
</svg>
