<svg enable-background="new 0 0 216 216" height="216" viewBox="0 0 216 216" width="216" xmlns="http://www.w3.org/2000/svg"><path d="m171.497 67.498h-36.247v-8.624c0-3.033-2.468-5.5-5.5-5.5h-43.5c-3.033 0-5.5 2.467-5.5 5.5v8.624h-36.247c-1.93 0-3.5 1.57-3.5 3.5v82.497c0 1.93 1.57 3.5 3.5 3.5h126.994c1.93 0 3.5-1.57 3.5-3.5v-82.497c0-1.93-1.57-3.5-3.5-3.5zm-87.747-8.624c0-1.378 1.122-2.5 2.5-2.5h43.5c1.379 0 2.5 1.122 2.5 2.5v8.624h-48.5zm88.247 94.62c0 .275-.225.5-.5.5h-126.994c-.276 0-.5-.225-.5-.5v-40.801c.165.023.329.052.5.052h50.623v2.756c0 1.931 1.57 3.501 3.5 3.501h17.75c1.931 0 3.5-1.57 3.5-3.501v-2.756h51.621c.171 0 .335-.026.5-.052zm-73.871-37.993v-9.75c0-.275.224-.5.5-.5h17.75c.274 0 .5.224.5.5v9.75c0 .276-.226.501-.5.501h-17.75c-.276 0-.5-.225-.5-.501zm73.871-6.256c0 .274-.225.5-.5.5h-51.621v-3.994c0-1.93-1.569-3.5-3.5-3.5h-17.75c-1.93 0-3.5 1.57-3.5 3.5v3.994h-50.623c-.276 0-.5-.226-.5-.5v-38.247c0-.276.224-.5.5-.5h126.994c.275 0 .5.224.5.5z" fill="#01363d"/></svg>