<svg enable-background="new 0 0 216 216" height="216" viewBox="0 0 216 216" width="216" xmlns="http://www.w3.org/2000/svg"><g fill="#01363d"><path d="m108 42.75c-35.979 0-65.25 29.271-65.25 65.25s29.271 65.249 65.25 65.249 65.249-29.271 65.249-65.249-29.27-65.25-65.249-65.25zm0 127.499c-34.325 0-62.25-27.925-62.25-62.249 0-34.325 27.925-62.25 62.25-62.25 34.324 0 62.249 27.925 62.249 62.25 0 34.324-27.925 62.249-62.249 62.249z"/><path d="m92.021 67.191c.176 0 .355-.031.53-.097 4.93-1.863 10.128-2.808 15.45-2.809 3.782 0 7.536.484 11.156 1.437.805.21 1.622-.268 1.831-1.069.212-.801-.268-1.622-1.067-1.833-3.869-1.019-7.88-1.535-11.92-1.536-5.685 0-11.24 1.011-16.51 3.002-.775.293-1.166 1.159-.873 1.934.226.601.797.971 1.403.971z"/><path d="m85.6 70.453c.711-.425.942-1.346.518-2.058-.426-.711-1.347-.942-2.058-.518-8.277 4.95-14.969 12.527-18.843 21.337-.333.758.011 1.643.77 1.977.196.086.401.127.603.127.577 0 1.127-.335 1.374-.897 3.624-8.244 9.888-15.336 17.636-19.968z"/><path d="m130.794 67.258-1.724-.961c-.455-.231-.918-.456-1.385-.673-.752-.349-1.644-.024-1.992.727-.352.751-.023 1.643.728 1.993.437.203.868.413 1.241.601l.357.2-20.899 37.355h-35.628c-.829 0-1.5.671-1.5 1.5s.671 1.5 1.5 1.5h36.508c.543 0 1.044-.294 1.309-.768l22.061-39.432c.405-.723.148-1.637-.576-2.042z"/></g></svg>