<svg enable-background="new 0 0 216 216" height="216" viewBox="0 0 216 216" width="216" xmlns="http://www.w3.org/2000/svg"><g fill="#01363d"><path d="m188.925 126.032-10.71-52.85c-.331-1.625-1.771-2.803-3.429-2.803-.233 0-.468.023-.697.07l-17.641 3.575c-.917.186-1.706.717-2.225 1.497-.401.608-.596 1.312-.573 2.026l-11.84 1.554-24.47-7.022c-.698-.332-2.729-.998-6.86-.271l-22.535 3.958c-.355.063-.677.251-.904.532l-1.152 1.418-22.108 1.621c-.025-.632-.211-1.249-.57-1.79-.517-.779-1.306-1.311-2.223-1.497l-17.64-3.575c-1.864-.377-3.749.88-4.126 2.735l-10.71 52.849c-.186.916-.003 1.852.514 2.631.517.778 1.306 1.312 2.222 1.494l17.639 3.574c.23.047.466.071.701.071 1.655 0 3.096-1.181 3.427-2.806l1.013-5 8.991 3.705-.491 1.078c-1.853 4.063-.055 8.875 4.009 10.729 1.064.483 2.194.729 3.356.729 1.46 0 2.858-.402 4.074-1.113.692 2.252 2.364 4.181 4.726 5.095.922.354 1.887.537 2.868.537 1.362 0 2.669-.367 3.82-1.009.301 3.272 2.583 6.178 5.938 7.086.695.188 1.41.285 2.124.285 1.708 0 3.319-.541 4.649-1.479.78 2.43 2.721 4.438 5.356 5.178.695.195 1.411.295 2.128.295 3.103 0 5.887-1.852 7.146-4.615l4.685 3.188c1.36.911 2.905 1.347 4.435 1.347 2.585 0 5.122-1.246 6.663-3.549.979-1.465 1.433-3.173 1.329-4.902 1.116.549 2.313.82 3.502.82 2.584 0 5.122-1.246 6.663-3.551 1.06-1.584 1.508-3.451 1.298-5.322.807.26 1.635.399 2.458.399 2.584 0 5.122-1.247 6.663-3.55 1.188-1.776 1.612-3.909 1.196-6.006-.043-.213-.101-.424-.157-.631.188.014.377.041.564.041 2.583 0 5.121-1.246 6.662-3.552 1.016-1.517 1.47-3.293 1.32-5.086l2.854-.892 1.563 7.711c.331 1.626 1.773 2.806 3.43 2.806.232 0 .469-.022.696-.069l17.641-3.574c.918-.188 1.705-.717 2.225-1.496.517-.774.699-1.708.513-2.624zm-138.848 6.395c-.063.308-.336.441-.591.392l-17.642-3.573c-.176-.035-.274-.147-.317-.213s-.109-.199-.073-.378l10.709-52.845c.054-.265.287-.403.489-.403.034 0 .068.003.102.01l17.64 3.575c.177.036.276.149.318.214.043.064.109.199.073.375zm24.069 5.535c-.202.521-.343 1.052-.43 1.583-.955 1.076-2.34 1.725-3.821 1.725-.73 0-1.441-.153-2.111-.461-2.559-1.168-3.691-4.199-2.524-6.757l2.199-4.821c.828-1.813 2.651-2.984 4.645-2.984.73 0 1.441.154 2.112.461 1.797.818 2.868 2.563 2.956 4.411-.475.604-.87 1.276-1.154 2.015zm14.037-.651c-.521.746-.924 1.588-1.172 2.502l-.606 2.233-.222.573c-.733 1.895-2.59 3.167-4.621 3.167-.609 0-1.21-.113-1.785-.335-2.547-.986-3.818-3.86-2.833-6.407l1.87-4.831c.733-1.895 2.59-3.168 4.621-3.168.609 0 1.21.113 1.784.335 2.388.927 3.629 3.511 2.964 5.931zm11.568 5.959-.003.01c-.135.313-.266.632-.36.968l-1.379 4.912c-.021.075-.033.153-.053.229-.863 1.662-2.586 2.762-4.512 2.762-.449 0-.9-.061-1.338-.18-2.715-.736-4.324-3.545-3.588-6.26l1.388-5.113c.602-2.218 2.624-3.767 4.918-3.767.45 0 .9.062 1.34.18 1.315.357 2.412 1.204 3.089 2.386.679 1.182.855 2.557.498 3.873zm11.882 4.414-1.381 4.914c-.586 2.088-2.508 3.547-4.674 3.547-.442 0-.886-.063-1.317-.184-2.58-.725-4.089-3.413-3.364-5.992l1.379-4.912c.586-2.089 2.508-3.547 4.673-3.547.442 0 .886.063 1.318.184 1.25.352 2.288 1.166 2.922 2.299.638 1.128.793 2.441.444 3.691zm44.558-20.086c-1.532 2.291-4.646 2.909-6.895 1.406l-25.939-18.693c-.672-.482-1.608-.332-2.094.34-.484.674-.332 1.609.34 2.096l24.582 17.715c.101.131.218.251.359.35 1.11.74 1.865 1.871 2.125 3.183.26 1.31-.006 2.644-.748 3.753-1.533 2.29-4.645 2.91-6.893 1.406l-2.528-1.827c-.226-.188-.459-.37-.707-.536-.041-.027-.086-.045-.128-.068l-20.473-14.793c-.672-.484-1.608-.332-2.096.338-.484.672-.334 1.608.338 2.094l20.961 15.146c.953.737 1.617 1.768 1.854 2.96.26 1.312-.006 2.644-.749 3.753-1.531 2.29-4.645 2.909-6.884 1.414l-3.457-2.535c-.271-.24-.556-.471-.861-.676-.067-.045-.14-.078-.212-.111l-13.885-10.186c-.665-.486-1.604-.348-2.098.322-.488.669-.347 1.607.322 2.098l14.721 10.796c.818.722 1.393 1.671 1.606 2.759.261 1.311-.006 2.644-.749 3.752-1.531 2.291-4.646 2.908-6.938 1.377l-5.409-3.681.856-3.051c.566-2.021.313-4.144-.716-5.974-1.026-1.83-2.707-3.149-4.728-3.717-.696-.195-1.413-.293-2.129-.293-1.573 0-3.053.493-4.308 1.323-.178-.666-.433-1.313-.785-1.93-1.076-1.879-2.819-3.226-4.907-3.789-.696-.188-1.411-.285-2.126-.285-1.273 0-2.491.308-3.581.849-.456-2.67-2.238-5.049-4.941-6.097-.922-.356-1.886-.538-2.868-.538-1.287 0-2.524.328-3.63.9-.661-2.124-2.167-3.977-4.345-4.971-1.065-.484-2.194-.73-3.357-.73-3.166 0-6.061 1.859-7.375 4.741l-.455 1.012-9.628-3.975 8.643-42.647c.029 0 .057-.001.086-.003l19.926-1.461-9.418 11.596c-.515.633-.429 1.563.194 2.09 3.45 2.923 11.667 6.987 18.041 1.465l5.441-4.435 13.211-.676 14.613 7.001 29.362 22.646c.024.021.054.039.082.06 1.108.741 1.862 1.873 2.125 3.183.261 1.31-.004 2.642-.748 3.754zm3.017-6.313c-.604-1.232-1.515-2.297-2.681-3.088l-29.449-22.713c-.083-.064-.174-.119-.268-.165l-15.102-7.234c-.229-.108-.477-.162-.727-.146l-14.081.72c-.318.016-.624.134-.871.335l-5.856 4.774c-4.737 4.104-10.53 1.068-12.988-.584l11.832-14.562 21.983-3.859c3.588-.63 4.988-.005 5.001-.005.116.072.242.127.373.165l24.908 7.149c.198.057.403.072.608.045l12.299-1.614 8.07 39.83zm26.704 5.719c-.043.064-.144.178-.318.214l-17.64 3.575c-.246.048-.529-.085-.592-.393l-10.71-52.847c-.035-.176.029-.311.071-.375.043-.065.144-.179.318-.214l17.641-3.575c.034-.007.068-.01.104-.01.202 0 .436.138.489.401l10.71 52.849c.036.176-.031.31-.073.375z"/><path d="m168.673 82.38c-.344 0-.689.035-1.03.104-1.353.274-2.518 1.059-3.278 2.209-.765 1.15-1.031 2.528-.757 3.88.484 2.4 2.612 4.142 5.06 4.142.344 0 .69-.035 1.03-.104 2.792-.566 4.604-3.298 4.037-6.09-.488-2.399-2.616-4.141-5.062-4.141zm.427 7.292c-1.161.238-2.32-.545-2.555-1.694-.114-.567-.002-1.145.317-1.627.318-.482.809-.812 1.376-.926.145-.029.29-.044.435-.044 1.024 0 1.916.73 2.12 1.737.237 1.171-.522 2.317-1.693 2.554z"/><path d="m49.792 82.38c-.345 0-.691.035-1.031.104-1.353.274-2.518 1.059-3.28 2.209-.763 1.15-1.031 2.528-.757 3.88.486 2.4 2.614 4.142 5.06 4.142.344 0 .69-.035 1.03-.104 2.792-.566 4.604-3.298 4.038-6.09-.486-2.399-2.614-4.141-5.06-4.141zm.427 7.292c-1.167.238-2.321-.545-2.555-1.694-.115-.567-.002-1.145.317-1.627s.808-.812 1.376-.926c.144-.029.29-.044.435-.044 1.024 0 1.916.73 2.119 1.737.237 1.171-.522 2.317-1.692 2.554z"/></g></svg>