<svg enable-background="new 0 0 216 216" height="216" viewBox="0 0 216 216" width="216" xmlns="http://www.w3.org/2000/svg"><g fill="#01363d"><path d="m109.68 105.883c.756.754 1.76 1.169 2.825 1.169 1.054 0 2.084-.428 2.824-1.171l45.473-45.473c.755-.753 1.171-1.755 1.171-2.822.001-1.068-.415-2.072-1.17-2.827l-7.938-7.938c-.727-.725-1.755-1.141-2.824-1.141s-2.1.416-2.826 1.141l-34.71 34.708-17.747-17.75c-1.504-1.506-4.137-1.511-5.65-.001l-7.938 7.937c-.755.755-1.171 1.758-1.171 2.826 0 1.067.416 2.071 1.17 2.825zm-26.389-32.047 7.937-7.936c.186-.185.442-.291.705-.291.267 0 .517.103.704.29l18.808 18.813c.281.281.662.439 1.062.439.397 0 .779-.158 1.062-.439l35.771-35.769c.336-.333 1.075-.334 1.409-.001l7.938 7.938c.188.188.292.438.291.705 0 .265-.103.514-.291.702l-45.476 45.476c-.371.373-1.034.37-1.407-.002l-28.514-28.517c-.188-.188-.292-.438-.292-.704.001-.266.104-.516.293-.704z"/><path d="m174.504 110.232c-.757-.758-1.63-1.328-2.56-1.726-.213-1.803-1.015-3.472-2.316-4.774-2.667-2.667-6.74-3.08-9.821-1.284-3.187-2.872-8.108-2.786-11.158.261-.106.103-.22.209-.326.314-3.161-2.163-7.518-1.854-10.268.896l-20.789 18.512c-1.016.057-1.988.057-2.888-.021-4.26-.353-7.839-2.404-11.628-4.579-2.574-1.479-5.236-3.005-8.292-4.122-9.082-3.328-16.752 1.505-19.455 3.796l-5.934-1.279.666-3.285c.383-1.892-.843-3.74-2.736-4.127l-17.641-3.572c-1.863-.376-3.749.88-4.126 2.735l-10.71 52.845c-.186.917-.003 1.851.514 2.631.517.779 1.306 1.311 2.222 1.495l17.639 3.573c.23.047.466.07.701.07 1.655 0 3.096-1.18 3.427-2.806l3.789-18.697c1.847.931 3.902 1.75 6.205 2.386 4.898 1.352 10.12 2.58 15.52 3.653 5.857 1.164 11.911 1.636 17.813 1.636 19.015 0 36.427-4.882 40.386-7.125 8.386-4.76 30.764-25.007 31.766-25.916 1.534-1.533 2.38-3.574 2.38-5.744s-.845-4.21-2.38-5.746zm-14.245-4.376c1.998-1.998 5.25-1.998 7.248 0 .568.568.962 1.255 1.208 1.997-2.055.006-4.098.78-5.638 2.321-.149.133-13.553 12.057-18.847 16.229-.023-.178-.044-.354-.076-.532-.264-1.373-.84-2.604-1.629-3.655 5.413-5.099 12.479-11.589 17.734-16.36zm-9.512-1.003c1.821-1.818 4.669-1.961 6.674-.47-7.854 7.133-13.3 12.165-17.094 15.751-1.201-.797-2.595-1.303-4.065-1.444 3.308-3.101 7.935-7.528 14.485-13.837zm-10.638 1.251c1.613-1.61 4.025-1.896 5.951-.909-5.177 4.964-11.535 11.002-15.443 14.587-2.075.614-5.027 1.411-8.086 1.978zm-84.024 59.087c-.063.308-.338.439-.591.392l-17.642-3.575c-.176-.035-.274-.148-.317-.213s-.109-.199-.073-.376l10.709-52.844c.054-.265.287-.403.489-.403.034 0 .068.003.102.01l17.639 3.573c.271.056.448.319.393.591zm116.352-45.639c-.229.208-23.077 20.882-31.179 25.478-4.367 2.479-32.104 9.938-56.134 5.158-5.329-1.061-10.479-2.271-15.308-3.604-2.405-.663-4.514-1.557-6.378-2.57l5.035-24.847 6.569 1.419c.542.121 1.093-.076 1.445-.479.434-.401 7.758-6.941 16.939-3.578 2.815 1.029 5.364 2.492 7.829 3.908 3.908 2.242 7.949 4.562 12.876 4.967 7.487.623 18.938-3.213 20.273-3.672 3.156-.549 6.195 1.541 6.802 4.701.618 3.224-1.347 6.336-4.569 7.241-.057.019-.115.036-.17.062-.105.043-10.82 4.394-30.369 4.51-.829.005-1.496.681-1.491 1.509.005.825.676 1.491 1.5 1.491h.009c19.493-.116 30.278-4.246 31.418-4.705 3.153-.918 5.465-3.292 6.366-6.188.238-.16.465-.313.668-.453 3.86-2.683 19.822-16.881 20.563-17.545 1.998-1.996 5.25-1.996 7.248 0 .968.969 1.501 2.256 1.501 3.625s-.529 2.655-1.443 3.572z"/></g></svg>