<svg enable-background="new 0 0 216 216" height="216" viewBox="0 0 216 216" width="216" xmlns="http://www.w3.org/2000/svg"><g fill="#01363d"><path d="m109.193 88.368c.281.281.662.439 1.061.439s.779-.158 1.061-.439l23.75-23.752c.586-.586.586-1.536 0-2.121-.586-.586-1.535-.586-2.121 0l-22.688 22.691-14.787-14.787c-.586-.586-1.535-.586-2.121 0-.586.585-.586 1.535 0 2.121z"/><path d="m140.723 58.958 6.13-6.131c.237-.236.795-.238 1.03-.001l7.085 7.087c.188.185.213.4.213.513 0 .112-.025.328-.214.514l-21.445 21.448c-.586.586-.586 1.536 0 2.121.293.293.679.439 1.063.439s.77-.146 1.063-.439l21.442-21.446c.705-.704 1.094-1.64 1.094-2.636 0-.997-.389-1.933-1.093-2.635l-7.085-7.086c-.678-.677-1.638-1.065-2.634-1.065-.998 0-1.958.388-2.637 1.066l-6.133 6.132c-.586.586-.586 1.536 0 2.121.586.584 1.535.584 2.121-.002z"/><path d="m107.618 107.266c.706.703 1.642 1.09 2.636 1.09.995 0 1.932-.388 2.635-1.092l17.098-17.099c.587-.586.587-1.536 0-2.121-.586-.586-1.534-.586-2.12 0l-17.099 17.099c-.273.275-.76.27-1.029 0l-28.244-28.247c-.185-.186-.213-.402-.213-.514 0-.113.027-.329.213-.515l7.084-7.083c.061-.061.131-.109.209-.146.752-.347 1.08-1.238.733-1.991-.347-.752-1.238-1.081-1.991-.733-.399.184-.759.435-1.071.747l-7.085 7.083c-.705.704-1.093 1.64-1.093 2.637 0 .996.388 1.931 1.092 2.635z"/><path d="m188.654 127.486c-.252-.67-.597-1.287-1.016-1.844.889-1.857 1.011-4.067.126-6.101-.783-1.808-2.227-3.196-4.059-3.92-1.675-.661-3.49-.681-5.17-.078-.111-.782-.336-1.563-.718-2.308-.9-1.752-2.431-3.049-4.305-3.649-1.85-.593-3.813-.442-5.546.425l-3.811 1.454c-.144-.698-.376-1.393-.736-2.053-1.953-3.567-6.44-4.881-9.938-2.963l-14.74 7.133-3.7.894c-.193-.088-.391-.182-.593-.259-2.466-.932-5.142-.864-7.548.188l-16.854 4.543c-1.822-.01-2.854-.352-8.577-2.729-1.701-.707-3.453-1.602-5.307-2.549-4.559-2.328-9.725-4.968-15.454-5.296-5.992-.345-10.306 1.927-13.28 4.625l-9.779.238v-4.282c0-1.929-1.57-3.499-3.5-3.499h-18.18c-1.93 0-3.5 1.57-3.5 3.499v53.984c0 1.931 1.57 3.5 3.5 3.5h18.182c1.93 0 3.5-1.569 3.5-3.5v-14.099c3.829-.038 7.211-.067 8.348-.067 2.61 0 3.498.285 5.111.804l.533.171c5.246 1.656 16.916 4.705 31.75 4.705 5.377 0 11.17-.4 17.224-1.414l41.563-8.697c.058-.012.111-.025.166-.045l22.002-7.322c3.806-1.427 5.735-5.686 4.306-9.489zm-134 35.459c0 .275-.224.5-.5.5h-18.182c-.276 0-.5-.225-.5-.5v-53.984c0-.275.224-.499.5-.499h18.182c.276 0 .5.224.5.499zm124.41-44.4c.066-.02.136-.043.198-.07 1.071-.468 2.261-.486 3.346-.06 1.086.428 1.939 1.254 2.404 2.323.405.936.45 1.932.203 2.845-.139-.073-.272-.149-.419-.215-1.764-.8-3.729-.875-5.542-.222l-20.146 4.75-20.354 1.902c.553-.697.996-1.482 1.352-2.322l16.894-2.854c.05-.009.1-.021.148-.033zm-9.949-5.758c.052-.02.103-.042.149-.066 1.037-.535 2.223-.634 3.333-.275 1.112.356 2.021 1.128 2.555 2.166.293.57.426 1.177.446 1.777l-19.174 5.288-15.528 2.624c.058-.771.015-1.545-.11-2.31l9.271-1.945c.078-.017.153-.038.229-.065zm-29.51 3.676c.104-.025.205-.063.302-.107l14.952-7.235c2.107-1.158 4.773-.378 5.934 1.735.298.545.457 1.125.508 1.707l-11.973 4.572-9.471 1.986c-.428-.86-.967-1.643-1.604-2.332zm43.746 17.689-21.863 7.277-41.421 8.668c-22.05 3.688-40.574-1.015-47.516-3.205l-.52-.166c-1.712-.551-2.949-.947-6.028-.947-1.141 0-4.521.029-8.348.068v-29.604l7.009-.179c-1.909 2.564-2.732 4.791-2.746 4.848-.197.805.295 1.615 1.1 1.813.763.188 1.536-.248 1.78-.981.159-.417 4.325-11.023 15.743-10.371 5.099.293 9.756 2.672 14.261 4.973 1.909.978 3.711 1.896 5.521 2.648 5.978 2.481 7.321 2.956 9.811 2.956.169 0 .343-.01.507-.053l17.158-4.625c.077-.021.153-.049.227-.082 1.709-.771 3.613-.83 5.365-.168 1.752.664 3.142 1.971 3.91 3.68.771 1.707.829 3.611.166 5.363-.662 1.752-1.968 3.144-3.658 3.904-.115.051-11.664 5.084-14.479 5.913-2.01.593-16.829 1.328-25.698 1.653-.828.029-1.474.727-1.444 1.554.03.81.695 1.445 1.498 1.445.019 0 .037 0 .056-.001 2.386-.088 23.402-.881 26.436-1.773 2.43-.717 10.352-4.104 13.521-5.475l25.795-2.416c.067-.006.137-.018.204-.033l20.336-4.793c.063-.016.124-.033.185-.057 1.096-.411 2.281-.371 3.343.108 1.063.481 1.875 1.351 2.285 2.44.846 2.263-.297 4.789-2.496 5.618z"/></g></svg>