<svg enable-background="new 0 0 216 216" height="216" viewBox="0 0 216 216" width="216" xmlns="http://www.w3.org/2000/svg"><g fill="#01363d"><path d="m78.164 110.157c-2.895 0-5.25-2.356-5.25-5.251s2.355-5.25 5.25-5.25 5.25 2.355 5.25 5.25-2.355 5.251-5.25 5.251zm0-7.501c-1.241 0-2.25 1.009-2.25 2.25s1.009 2.25 2.25 2.25 2.25-1.01 2.25-2.25-1.01-2.25-2.25-2.25z"/><path d="m79.05 122.813h-11.882c-.276 0-.5-.226-.5-.5 0-.828-.671-1.5-1.5-1.5s-1.5.672-1.5 1.5c0 1.931 1.57 3.5 3.5 3.5h11.882c.829 0 1.5-.672 1.5-1.5s-.671-1.5-1.5-1.5z"/><path d="m179.519 160.627-14.534-14.538c-1.086-1.085-2.529-1.683-4.065-1.683-1.01 0-1.97.281-2.824.769l-2.61-2.714c12.336-13.523 11.972-34.565-1.103-47.641-.279-.279-.565-.545-.854-.814v-36.943c0-1.93-1.57-3.5-3.5-3.5h-111.732c-1.93 0-3.5 1.57-3.5 3.5v81.501c0 1.93 1.57 3.5 3.5 3.5h65.831c.468.525.941 1.052 1.444 1.555 6.518 6.516 15.185 10.104 24.405 10.104 8.75 0 16.996-3.236 23.388-9.137l2.598 2.699c-1.271 2.199-.988 5.058.891 6.938l14.535 14.534c1.086 1.086 2.53 1.685 4.066 1.685 1.535 0 2.979-.599 4.063-1.685 1.088-1.086 1.687-2.53 1.687-4.065-.002-1.535-.601-2.979-1.686-4.065zm-35.792-104.064h6.301c.273 0 .5.224.5.5v34.426c-2.121-1.578-4.402-2.888-6.801-3.929zm-45.263 62.658c0-8.418 3.277-16.33 9.229-22.28 3.98-3.979 8.839-6.755 14.138-8.162v42.649h-20.92c-1.603-3.815-2.447-7.948-2.447-12.207zm27.367-31.23c1.364-.178 2.746-.277 4.146-.277 3.823 0 7.541.683 11.021 1.979v41.734h-15.166zm-78.235-31.428h93.13v29.86c-3.428-1.119-7.043-1.709-10.752-1.709-7.396 0-14.435 2.314-20.295 6.593h-38.635c-.397 0-.779.158-1.061.439l-7.936 7.932h-14.451zm-3 82.501h-6.299c-.276 0-.5-.227-.5-.5v-81.501c0-.276.224-.5.5-.5h6.299zm3 0v-36.389h15.073c.397 0 .779-.158 1.061-.439l7.936-7.932h34.444c-.179.171-.362.336-.538.512-6.518 6.517-10.107 15.183-10.107 24.401 0 1.208.065 2.406.187 3.593h-4.602c-.829 0-1.5.672-1.5 1.5s.671 1.5 1.5 1.5h5.043c.92 4.776 2.853 9.271 5.664 13.254zm104.663 2.434c-5.951 5.949-13.864 9.227-22.282 9.227s-16.33-3.275-22.283-9.227c-1.849-1.85-3.439-3.887-4.753-6.07h40.057c1.104 0 2-.896 2-2v-41.916c2.636 1.433 5.081 3.25 7.262 5.429 12.28 12.286 12.28 32.274-.001 44.557zm25.138 25.139c-1.041 1.039-2.854 1.038-3.892 0l-14.535-14.535c-1.07-1.072-1.07-2.815-.001-3.89.521-.521 1.211-.806 1.945-.806.735 0 1.426.285 1.945.805l14.534 14.537c.521.52.807 1.21.807 1.943.002.735-.283 1.426-.803 1.946z"/></g></svg>