<svg enable-background="new 0 0 216 216" height="216" viewBox="0 0 216 216" width="216" xmlns="http://www.w3.org/2000/svg"><g fill="#01363d"><path d="m116.4 52.085h20c.828 0 1.5-.671 1.5-1.5s-.672-1.5-1.5-1.5h-20c-.828 0-1.5.671-1.5 1.5s.672 1.5 1.5 1.5z"/><path d="m151.4 52.085h15.765c.275 0 .5.224.5.5v1.093c0 .829.672 1.5 1.5 1.5s1.5-.671 1.5-1.5v-1.093c0-1.93-1.57-3.5-3.5-3.5h-15.765c-.828 0-1.5.671-1.5 1.5s.672 1.5 1.5 1.5z"/><path d="m91.499 149.918h-34.5c-.829 0-1.5.672-1.5 1.5s.671 1.5 1.5 1.5h34.5c.829 0 1.5-.672 1.5-1.5s-.671-1.5-1.5-1.5z"/><path d="m91.499 136.422h-5.5c-.829 0-1.5.672-1.5 1.5s.671 1.5 1.5 1.5h5.5c.829 0 1.5-.672 1.5-1.5s-.671-1.5-1.5-1.5z"/><path d="m56.999 139.422h18c.829 0 1.5-.672 1.5-1.5s-.671-1.5-1.5-1.5h-18c-.829 0-1.5.672-1.5 1.5s.671 1.5 1.5 1.5z"/><path d="m178.561 58.272c-.586-.586-1.533-.586-2.119 0l-3.167 3.167c-.588.585-.588 1.536 0 2.121.293.293.677.439 1.061.439s.768-.146 1.062-.439l3.168-3.167c.58-.585.58-1.535-.005-2.121z"/><path d="m117.402 55.085c-.827 0-1.5.671-1.5 1.5s.673 1.5 1.5 1.5h20c.828 0 1.5-.671 1.5-1.5s-.672-1.5-1.5-1.5z"/><path d="m145.403 58.085h15.762c.275 0 .5.224.5.5v1.096c0 .829.672 1.5 1.5 1.5s1.5-.671 1.5-1.5v-1.096c0-1.93-1.57-3.5-3.5-3.5h-15.762c-.828 0-1.501.671-1.501 1.5s.673 1.5 1.501 1.5z"/><path d="m152.902 62.585c0-.829-.672-1.5-1.5-1.5h-24c-.828 0-1.5.671-1.5 1.5s.672 1.5 1.5 1.5h24c.828 0 1.5-.671 1.5-1.5z"/><path d="m107.404 67.085c-.829 0-1.5.671-1.5 1.5s.671 1.5 1.5 1.5h32c.828 0 1.5-.671 1.5-1.5s-.672-1.5-1.5-1.5z"/><path d="m168.106 66.605-3.441 3.441v-2.365c0-.829-.672-1.5-1.5-1.5s-1.5.671-1.5 1.5v5.365l-3 3v-10.365c0-.829-.672-1.5-1.5-1.5s-1.5.671-1.5 1.5v13.366l-3 3v-11.462c0-1.93-1.57-3.5-3.5-3.5h-3.761c-.828 0-1.5.671-1.5 1.5s.672 1.5 1.5 1.5h3.761c.275 0 .5.224.5.5v14.461l-3 3v-11.461c0-1.93-1.57-3.5-3.5-3.5h-48.166v-2.5c0-.276.224-.5.5-.5h5.905c.829 0 1.5-.671 1.5-1.5s-.671-1.5-1.5-1.5h-.406v-2.5c0-.276.224-.5.5-.5h17.904c.828 0 1.5-.671 1.5-1.5s-.672-1.5-1.5-1.5h-12.404v-2.5c0-.276.224-.5.5-.5h1.904c.828 0 1.5-.671 1.5-1.5s-.672-1.5-1.5-1.5h-1.904c-1.93 0-3.5 1.57-3.5 3.5v2.5h-2.5c-1.93 0-3.5 1.57-3.5 3.5v2.5h-2.499c-1.93 0-3.5 1.57-3.5 3.5v2.5h-2.5c-1.93 0-3.5 1.57-3.5 3.5v2.5h-2.501c-1.93 0-3.5 1.57-3.5 3.5v2.5h-2.499c-1.93 0-3.5 1.57-3.5 3.5v2.5h-2.501c-1.93 0-3.5 1.57-3.5 3.5v2.5h-2.499c-1.93 0-3.5 1.57-3.5 3.5v2.5h-2.5c-1.93 0-3.5 1.57-3.5 3.5v4.5h-2.501c-1.93 0-3.5 1.569-3.5 3.5v4.996h-12.331c-1.93 0-3.5 1.569-3.5 3.5v40.332c0 1.93 1.57 3.5 3.5 3.5h73c1.931 0 3.5-1.57 3.5-3.5v-3.757c2.851-2.666 8.328-8.086 19.351-19.15 12.076-12.124 26.102-26.346 33.387-33.744.581-.59.571-1.54-.019-2.121-.592-.582-1.54-.574-2.122.017-24.652 25.039-42.744 43.212-50.597 50.845v-30.716l56.061-56.061c.588-.585.588-1.536 0-2.121-.586-.585-1.536-.585-2.122 0zm-115.108 47.981c0-.275.224-.5.5-.5h53.669c.275 0 .499.225.499.5v4.996h-54.668zm58.169 48.828c0 .275-.226.5-.5.5h-73c-.276 0-.5-.225-.5-.5v-40.332c0-.275.224-.5.5-.5h73c.274 0 .5.225.5.5zm2.497-42.366-.09.091c-.629-.938-1.696-1.557-2.907-1.557h-.001v-4.996c0-1.93-1.568-3.5-3.499-3.5h-48.168v-4.5c0-.276.224-.5.5-.5h53.665c.275 0 .5.224.5.5zm6-6-3 3v-11.462c0-1.93-1.57-3.5-3.5-3.5h-48.165v-2.5c0-.276.224-.5.5-.5h53.665c.275 0 .5.224.5.5zm6.001-6.001-3.001 3.001v-11.462c0-1.93-1.57-3.5-3.5-3.5h-48.166v-2.5c0-.276.224-.5.5-.5h53.667c.274 0 .5.224.5.5zm5.999-5.999-2.999 2.999v-11.462c0-1.93-1.569-3.5-3.5-3.5h-48.166v-2.5c0-.276.224-.5.5-.5h53.665c.275 0 .5.224.5.5zm6-6-3 3v-11.463c0-1.93-1.57-3.5-3.5-3.5h-48.166v-2.5c0-.276.224-.5.5-.5h53.666c.275 0 .5.224.5.5zm6.001-6.001-3.001 3.001v-11.462c0-1.93-1.57-3.5-3.5-3.5h-48.165v-2.5c0-.276.224-.5.5-.5h53.666c.274 0 .5.224.5.5z"/></g></svg>