<svg enable-background="new 0 0 216 216" height="216" viewBox="0 0 216 216" width="216" xmlns="http://www.w3.org/2000/svg"><g fill="#01363d"><path d="m163.743 135.223c-.828 0-1.5.672-1.5 1.5v7.396c0 .275-.227.5-.5.5h-7.462c-.828 0-1.5.672-1.5 1.5s.672 1.5 1.5 1.5h7.462c1.93 0 3.5-1.57 3.5-3.5v-7.396c0-.828-.672-1.5-1.5-1.5z"/><path d="m163.743 111.223c-.828 0-1.5.672-1.5 1.5v18c0 .828.672 1.5 1.5 1.5s1.5-.672 1.5-1.5v-18c0-.828-.672-1.5-1.5-1.5z"/><path d="m161.743 92.379h-4.5v-4.5c0-1.93-1.57-3.5-3.5-3.5h-4.5v-4.5c0-1.93-1.57-3.5-3.5-3.5h-4.5v-4.5c0-1.93-1.57-3.5-3.5-3.5h-87.492c-1.93 0-3.5 1.57-3.5 3.5v48.239c0 1.93 1.57 3.5 3.5 3.5h4.5v4.5c0 1.93 1.57 3.5 3.5 3.5h4.5v4.5c0 1.93 1.57 3.5 3.5 3.5h4.5v4.5c0 1.93 1.57 3.5 3.5 3.5h5.997c.829 0 1.5-.673 1.5-1.5 0-.828-.671-1.5-1.5-1.5h-5.997c-.276 0-.5-.226-.5-.5v-4.5h79.992c1.93 0 3.5-1.57 3.5-3.5v-40.739h4.5c.273 0 .5.224.5.5v10.844c0 .829.672 1.5 1.5 1.5s1.5-.671 1.5-1.5v-10.844c0-1.93-1.57-3.5-3.5-3.5zm-111.492 28.239c-.276 0-.5-.226-.5-.5v-48.239c0-.276.224-.5.5-.5h87.492c.274 0 .5.224.5.5v48.239c0 .274-.226.5-.5.5zm8 8c-.276 0-.5-.226-.5-.5v-4.5h79.992c1.93 0 3.5-1.57 3.5-3.5v-40.739h4.5c.273 0 .5.224.5.5v48.239c0 .274-.227.5-.5.5zm95.992 7.5c0 .274-.227.5-.5.5h-87.492c-.276 0-.5-.226-.5-.5v-4.5h79.992c1.93 0 3.5-1.57 3.5-3.5v-40.739h4.5c.273 0 .5.224.5.5z"/><path d="m98.501 82.369h19c.828 0 1.5-.671 1.5-1.5s-.672-1.5-1.5-1.5h-19c-.829 0-1.5.671-1.5 1.5s.672 1.5 1.5 1.5z"/><path d="m129.744 79.369h-6.242c-.828 0-1.5.671-1.5 1.5s.672 1.5 1.5 1.5h6.242c.828 0 1.5-.671 1.5-1.5s-.672-1.5-1.5-1.5z"/><path d="m113.002 89.368c0 .829.672 1.5 1.5 1.5h7.318c.828 0 1.5-.671 1.5-1.5s-.672-1.5-1.5-1.5h-7.318c-.828 0-1.5.672-1.5 1.5z"/><path d="m98.501 90.868h8c.829 0 1.5-.671 1.5-1.5s-.671-1.5-1.5-1.5h-8c-.829 0-1.5.671-1.5 1.5s.672 1.5 1.5 1.5z"/><path d="m126.743 100.369h-26.992c-1.93 0-3.5 1.57-3.5 3.5v6.999c0 1.93 1.57 3.5 3.5 3.5h26.992c1.93 0 3.5-1.57 3.5-3.5v-6.999c0-1.93-1.57-3.5-3.5-3.5zm.5 10.499c0 .274-.226.5-.5.5h-26.992c-.276 0-.5-.226-.5-.5v-6.999c0-.276.224-.5.5-.5h26.992c.274 0 .5.224.5.5z"/><path d="m86.5 78.869h-28.5c-1.93 0-3.5 1.57-3.5 3.5v28.499c0 1.93 1.57 3.5 3.5 3.5h28.5c1.93 0 3.5-1.57 3.5-3.5v-28.499c0-1.93-1.57-3.5-3.5-3.5zm.5 31.999c0 .274-.224.5-.5.5h-28.5c-.276 0-.5-.226-.5-.5v-28.499c0-.276.224-.5.5-.5h28.5c.276 0 .5.224.5.5z"/></g></svg>