<svg enable-background="new 0 0 216 216" height="216" viewBox="0 0 216 216" width="216" xmlns="http://www.w3.org/2000/svg"><g fill="#01363d"><path d="m165.557 65.726c-.279-.396-.735-.631-1.223-.631h-101.235c-.743-2.996-1.356-5.411-1.775-6.967-.176-.655-.77-1.11-1.448-1.11h-22.22c-.829 0-1.5.671-1.5 1.5s.671 1.5 1.5 1.5h21.065c3.02 11.563 12.689 52.567 14.857 61.779h-3.837c-4.736 0-8.589 3.854-8.589 8.59 0 4.735 3.853 8.588 8.589 8.588h84.735c.828 0 1.5-.672 1.5-1.5s-.672-1.5-1.5-1.5h-84.735c-3.082 0-5.589-2.507-5.589-5.588 0-3.082 2.507-5.59 5.589-5.59h74.859c.641 0 1.207-.404 1.417-1.007l19.732-56.702c.161-.459.089-.966-.192-1.362zm-22.022 56.071h-66.874c-1.475-6.27-8.609-36.547-12.821-53.702h98.384z"/><path d="m76.941 145.434c-6.219 0-11.278 5.061-11.278 11.277 0 6.219 5.06 11.277 11.278 11.277s11.276-5.059 11.276-11.277-5.058-11.277-11.276-11.277zm0 19.554c-4.564 0-8.278-3.713-8.278-8.277s3.714-8.277 8.278-8.277c4.563 0 8.276 3.713 8.276 8.277s-3.713 8.277-8.276 8.277z"/><path d="m147.247 145.434c-6.22 0-11.276 5.061-11.276 11.277 0 6.219 5.059 11.277 11.276 11.277s11.277-5.059 11.277-11.277-5.058-11.277-11.277-11.277zm0 19.554c-4.563 0-8.276-3.713-8.276-8.277s3.713-8.277 8.276-8.277 8.277 3.713 8.277 8.277-3.712 8.277-8.277 8.277z"/></g></svg>