<svg enable-background="new 0 0 216 216" height="216" viewBox="0 0 216 216" width="216" xmlns="http://www.w3.org/2000/svg"><g fill="#01363d"><path d="m131.659 101.886c-3.31 0-6 2.691-6 6s2.69 6 6 6c3.309 0 6-2.691 6-6s-2.691-6-6-6zm0 9.001c-1.654 0-3-1.347-3-3 0-1.654 1.346-3 3-3 1.653 0 3 1.346 3 3 0 1.653-1.346 3-3 3z"/><path d="m149.825 101.886c-3.31 0-5.999 2.691-5.999 6s2.689 6 5.999 6c3.309 0 6.001-2.691 6.001-6s-2.692-6-6.001-6zm0 9.001c-1.653 0-2.999-1.347-2.999-3 0-1.654 1.346-3 2.999-3 1.652 0 3.001 1.346 3.001 3 0 1.653-1.347 3-3.001 3z"/><path d="m89.659 106.386h-14c-.829 0-1.5.671-1.5 1.5s.671 1.5 1.5 1.5h14c.829 0 1.5-.673 1.5-1.5 0-.829-.671-1.5-1.5-1.5z"/><path d="m111.659 106.386h-14c-.829 0-1.5.671-1.5 1.5s.671 1.5 1.5 1.5h14c.827 0 1.5-.673 1.5-1.5 0-.829-.673-1.5-1.5-1.5z"/><path d="m67.659 106.386h-5.985c-.829 0-1.5.671-1.5 1.5s.671 1.5 1.5 1.5h5.985c.829 0 1.5-.673 1.5-1.5 0-.829-.671-1.5-1.5-1.5z"/><path d="m131.659 72.225c-3.31 0-6 2.691-6 6s2.69 6 6 6c3.309 0 6-2.691 6-6s-2.691-6-6-6zm0 9c-1.654 0-3-1.346-3-3s1.346-3 3-3c1.653 0 3 1.346 3 3s-1.346 3-3 3z"/><path d="m149.825 72.225c-3.31 0-5.999 2.691-5.999 6s2.689 6 5.999 6c3.309 0 6.001-2.691 6.001-6s-2.692-6-6.001-6zm0 9c-1.653 0-2.999-1.346-2.999-3s1.346-3 2.999-3c1.652 0 3.001 1.346 3.001 3s-1.347 3-3.001 3z"/><path d="m111.659 76.725h-25c-.829 0-1.5.671-1.5 1.5s.671 1.5 1.5 1.5h25c.827 0 1.5-.671 1.5-1.5s-.673-1.5-1.5-1.5z"/><path d="m73.659 76.725h-11.985c-.829 0-1.5.671-1.5 1.5s.671 1.5 1.5 1.5h11.985c.829 0 1.5-.671 1.5-1.5s-.671-1.5-1.5-1.5z"/><path d="m166.429 53.292c-.828 0-1.5.671-1.5 1.5v7.268c-.191-.033-.389-.06-.591-.06h-112.678c-.202 0-.398.026-.591.06v-7.268c0-.829-.671-1.5-1.5-1.5s-1.5.671-1.5 1.5v106.417c0 .828.671 1.5 1.5 1.5s1.5-.672 1.5-1.5v-7.27c.193.033.389.061.591.061h112.678c.202 0 .397-.025.591-.061v7.27c0 .828.672 1.5 1.5 1.5s1.5-.672 1.5-1.5v-106.417c0-.829-.672-1.5-1.5-1.5zm-1.5 96.728c-.052.151-.086.313-.086.48 0 .275-.227.5-.505.5h-112.678c-.278 0-.505-.225-.505-.5 0-.169-.034-.329-.086-.48v-25.953c.193.033.389.061.591.061h112.678c.202 0 .397-.025.591-.061zm0-29.875c-.052.151-.086.313-.086.48 0 .275-.227.5-.505.5h-112.678c-.278 0-.505-.225-.505-.5 0-.169-.034-.329-.086-.48v-25.455c.193.033.389.06.591.06h112.678c.202 0 .397-.026.591-.06zm0-29.376c-.052.152-.086.312-.086.481 0 .276-.227.5-.505.5h-112.678c-.278 0-.505-.224-.505-.5 0-.169-.034-.329-.086-.481v-24.788c.052-.152.086-.312.086-.481 0-.276.227-.5.505-.5h112.678c.278 0 .505.224.505.5 0 .169.034.329.086.481z"/><path d="m131.659 131.67c-3.31 0-6 2.691-6 6s2.69 6 6 6c3.309 0 6-2.691 6-6s-2.691-6-6-6zm0 9c-1.654 0-3-1.346-3-3s1.346-3 3-3c1.653 0 3 1.346 3 3s-1.346 3-3 3z"/><path d="m149.825 131.67c-3.31 0-5.999 2.691-5.999 6s2.689 6 5.999 6c3.309 0 6.001-2.691 6.001-6s-2.692-6-6.001-6zm0 9c-1.653 0-2.999-1.346-2.999-3s1.346-3 2.999-3c1.652 0 3.001 1.346 3.001 3s-1.347 3-3.001 3z"/><path d="m111.659 136.17h-25c-.829 0-1.5.672-1.5 1.5s.671 1.5 1.5 1.5h25c.827 0 1.5-.672 1.5-1.5s-.673-1.5-1.5-1.5z"/><path d="m73.659 136.17h-11.985c-.829 0-1.5.672-1.5 1.5s.671 1.5 1.5 1.5h11.985c.829 0 1.5-.672 1.5-1.5s-.671-1.5-1.5-1.5z"/></g></svg>