<svg enable-background="new 0 0 216 216" height="216" viewBox="0 0 216 216" width="216" xmlns="http://www.w3.org/2000/svg"><g fill="#01363d"><path d="m103.165 61.625c-31.706 0-57.5 25.794-57.5 57.499 0 31.706 25.794 57.5 57.5 57.5 31.705 0 57.498-25.794 57.498-57.5-.001-31.705-25.794-57.499-57.498-57.499zm0 3c15.478 0 29.457 6.496 39.387 16.892.05.083.08.174.147.249 3.706 4.106 5.567 9.962 6.93 14.238.222.697.432 1.36.638 1.977.579 1.738.367 3.748.145 5.875-.304 2.872-.647 6.126.956 9.333 1.671 3.338.036 8.174-1.273 10.612-.062-.292-.12-.586-.174-.853-.539-2.688-1.21-6.032-3.071-7.727-1.354-1.23-3.372-1.436-5.532-.559-3.422 1.389-7.279 5.658-7.662 11.755-.135 2.173-.596 2.696-.574 2.724-.635-.012-2.805-1.936-4.744-5.619-1.773-3.373-5.354-3.703-8.814-4.023-2.479-.229-5.043-.468-6.891-1.829-3.426-2.522-7.123-2.883-8.861-1.94-.746.404-1.166 1.097-1.122 1.848.028.482.282 1.378 1.667 1.932 1.235.494 3.577 2.359 3.652 4.166.064 1.543-1.736 2.773-3.257 3.534-2.94 1.47-4.448 2.81-4.89 4.345-.448 1.555.331 2.834.9 3.771.48.788.769 1.299.653 1.799-.036.155-.28.647-1.76 1.819-.561.443-1.191.906-1.852 1.393-3.723 2.73-8.821 6.477-7.854 11.893.507 2.842-.48 5.877-2.709 8.322-2.1 2.309-4.936 3.617-7.396 3.406-4.747-.396-14.533-16.189-17.821-24.264-1.086-2.668-2.871-4.756-4.76-6.969-3.26-3.813-6.63-7.761-7.092-15.461-.37-6.17 2.566-9.377 5.094-10.982 2.955-1.876 6.136-2.046 6.941-1.604 2.17 1.184 7.296 5.595 9.088 7.193.618.55 1.566.498 2.118-.12s.498-1.566-.12-2.118c-.274-.243-6.732-5.997-9.649-7.589-.281-.153-.625-.267-.997-.359 4.551-1.3 5.265-.524 5.269-.514 1.277 2.87 5.283 3.766 7.816 3.206.345.494.789 1.843.98 3.037.118.738.755 1.264 1.479 1.264.079 0 .158-.006.237-.019.817-.131 1.375-.897 1.246-1.714-.151-.958-.775-4.169-2.445-5.235-.607-.387-1.314-.493-1.993-.3-1.225.351-3.938-.016-4.58-1.457-1.569-3.529-7.731-1.564-10.563-.622-.523-.354-1.489-2.057-1.269-3.541.101-.682.441-1.482 2.183-1.622 5.418-.433 6.27-.886 7.936-2.132.26-.194.551-.413.92-.659 1.556-1.037 4.701-2.558 8.281-1.128 2.24.897 4.401-.041 5.786-2.504 1.018-1.812 1.802-5.034.251-6.197-1.209-.905-2.628-.05-4.423 1.032-.811.49-3.28 1.98-3.783 1.703-.029-.103.016-.701.766-1.741 1.466-2.034 4.55-4.268 7.376-4.403 1.991-.095 3.516-.458 4.741-.75 2.208-.527 3.425-.818 5.911.563.726.402 1.637.14 2.04-.583.402-.725.141-1.638-.583-2.04-3.505-1.945-5.618-1.442-8.063-.858-1.161.277-2.477.59-4.188.672-4.544.217-9.383 4.111-10.673 7.449-.786 2.033-.01 3.23.523 3.764.135.135.275.253.419.356-2.781.237-4.98 1.461-6.043 2.169-.423.282-.756.531-1.054.753-1.126.843-1.547 1.158-6.377 1.544-3.102.248-4.234 2.045-4.632 3.094-.901 2.371.107 5.399 1.603 6.958.21.22.432.403.658.561-1.531.338-3.171.964-4.739 1.959-1.057.671-2.389 1.728-3.574 3.265 5.518-24.241 27.232-42.39 53.12-42.39zm-25.495 22.344c1.252-.41 2.516-1.173 3.592-1.822.186-.112.391-.236.596-.357-.226.851-.677 1.875-1.333 2.441-.424.368-.804.435-1.312.231-.522-.21-1.037-.372-1.543-.493zm25.495 86.655c-27.682 0-50.593-20.75-54.037-47.511 1.555 3.566 3.761 6.162 5.809 8.56 1.728 2.022 3.36 3.933 4.263 6.149 2.181 5.354 12.813 25.494 20.35 26.123.256.021.514.031.773.031 3.195 0 6.542-1.609 9.089-4.408 2.861-3.144 4.117-7.104 3.444-10.871-.639-3.576 3.248-6.43 6.676-8.945.692-.508 1.353-.993 1.939-1.458 1.281-1.015 2.509-2.14 2.821-3.498.396-1.716-.419-3.055-1.014-4.032-.4-.658-.657-1.109-.58-1.381.064-.224.496-1.063 3.349-2.488 4.191-2.098 4.984-4.605 4.912-6.344-.076-1.826-1.168-3.512-2.491-4.781.731.279 1.54.701 2.38 1.318 2.519 1.855 5.639 2.146 8.394 2.4 3.358.313 5.47.597 6.438 2.437.7 1.331 4.383 7.944 8.016 7.157 2.646-.566 2.877-4.26 2.953-5.473.287-4.588 3.133-8.082 5.795-9.162 1.035-.422 1.928-.42 2.388-.002 1.132 1.029 1.744 4.078 2.146 6.097.49 2.44.785 3.915 2.005 4.419.575.236 1.217.165 1.761-.197 1.979-1.32 6.26-10.018 3.309-15.916-1.211-2.422-.939-4.975-.655-7.677.22-2.071.44-4.205-.045-6.294 2.775 6.532 4.313 13.713 4.313 21.247-.004 30.052-24.451 54.5-54.501 54.5z"/><path d="m95.416 88.799c.291.776 1.155 1.169 1.931.877.641-.24 1.353-.392 2.088-.45-.273.569-.552 1.134-.821 1.705-.353.75-.031 1.643.719 1.996.207.097.424.143.638.143.563 0 1.103-.319 1.358-.862.413-.878.839-1.75 1.263-2.623 1.671.548 2.86 1.612 2.86 2.775 0 1.685-2.496 3.164-5.34 3.164-3.057 0-5.227-1.569-5.335-3.035-.061-.826-.776-1.44-1.607-1.385-.826.062-1.446.781-1.385 1.607.246 3.314 3.826 5.813 8.327 5.813 4.677 0 8.34-2.708 8.34-6.164 0-2.432-1.817-4.488-4.521-5.496.449-.898.896-1.8 1.351-2.681.379-.736.09-1.641-.646-2.021-.738-.379-1.641-.089-2.021.646-.579 1.123-1.152 2.268-1.722 3.417-.257-.017-.518-.028-.782-.028-1.329 0-2.649.232-3.818.67-.775.292-1.168 1.156-.877 1.932z"/><path d="m106.165 79.292c.229.126.478.186.722.186.529 0 1.042-.281 1.316-.777 1.463-2.66 2.968-5.263 4.471-7.736.43-.708.205-1.63-.503-2.061-.709-.43-1.631-.206-2.062.503-1.525 2.51-3.051 5.15-4.535 7.848-.4.725-.135 1.637.591 2.037z"/><path d="m151.364 56.087c-.824-.086-1.565.503-1.655 1.328-.497 4.536-1.429 9.628-2.767 15.135-.195.805.299 1.616 1.104 1.812.119.029.238.043.355.043.676 0 1.29-.46 1.457-1.146 1.366-5.631 2.319-10.852 2.833-15.516.09-.824-.503-1.565-1.327-1.656z"/><path d="m144.53 37.047c.431.058.842.173 1.222.344 2.823 1.266 4.379 5.864 4.379 12.948l-.001.239c-.01.829.654 1.508 1.483 1.517h.017c.82 0 1.49-.66 1.5-1.483l.001-.273c0-8.578-2.07-13.855-6.148-15.685-.645-.289-1.334-.484-2.056-.581-.819-.11-1.575.467-1.685 1.288-.11.822.467 1.576 1.288 1.686z"/><path d="m119.507 58.542c.289 0 .599-.046.92-.137 1.236-.351 6.31-1.766 8.474-2.37.882-.245 1.82-.857 2.451-1.596l1.34-1.563c.197-.037.392-.1.565-.219l10.959-7.458c.525-.358.771-1.008.606-1.623-.163-.615-.693-1.061-1.327-1.113l-5.47-.45c-.004 0-.006 0-.01 0-.22-.334-.47-.649-.781-.916l-.984-.838c.88-.644 1.732-1.208 2.547-1.661.725-.403.984-1.316.581-2.04-.403-.725-1.315-.984-2.04-.582-1.109.618-2.26 1.38-3.443 2.277l-.11-.095-.67-6.682c-.066-.678-.584-1.226-1.259-1.332-.67-.106-1.334.254-1.605.878l-1.818 4.145c-1.135.072-2.193.577-2.929 1.439l-6.438 7.442c-.642.741-1.072 1.99-1.152 2.233-.039.117-.063.237-.072.36l-.67 9.037c-.036.323-.082 1.328.583 2.095.425.496 1.05.769 1.752.769zm1.306-11.481c.148-.401.375-.885.52-1.051l4.743-5.481-2.286 5.208c-.333.758.012 1.644.771 1.977.194.086.399.127.603.127.577 0 1.128-.335 1.374-.897l3.521-8.017 1.273 1.086c.04.037.08.072.124.104l3.835 3.265c.244.208.395.499.419.818s-.073.628-.278.869l-6.356 7.422c-.241.283-.671.571-.976.656-1.912.533-6.086 1.697-7.897 2.207z"/></g></svg>