<svg enable-background="new 0 0 216 216" height="216" viewBox="0 0 216 216" width="216" xmlns="http://www.w3.org/2000/svg"><g fill="#01363d"><path d="m158.318 51.491h-100.636c-2.03 0-3.682 1.652-3.682 3.682v101.039c0 2.03 1.651 3.683 3.682 3.683h100.637c2.028 0 3.682-1.65 3.682-3.683v-101.039c-.001-2.03-1.652-3.682-3.683-3.682zm-101.318 104.721v-101.039c0-.376.306-.682.682-.682h22.912v102.401h-22.912c-.376.003-.682-.304-.682-.68zm102 0c0 .376-.306.683-.682.683h-4.228v-80.313c0-2.03-1.649-3.682-3.681-3.682h-10.631c-2.029 0-3.684 1.651-3.684 3.682v59.018c0 .828.672 1.5 1.5 1.5s1.5-.672 1.5-1.5v-59.018c0-.376.307-.682.684-.682h10.631c.375 0 .681.306.681.682v80.313h-19.846v-80.313c0-2.03-1.649-3.682-3.681-3.682h-10.631c-2.031 0-3.683 1.651-3.683 3.682v36.021c0 .828.672 1.5 1.5 1.5s1.5-.672 1.5-1.5v-36.021c0-.376.306-.682.683-.682h10.631c.375 0 .681.306.681.682v80.313h-19.844v-80.313c0-2.03-1.651-3.682-3.68-3.682h-10.63c-2.03 0-3.681 1.651-3.681 3.682v13.328c0 .829.671 1.5 1.5 1.5s1.5-.671 1.5-1.5v-13.328c0-.376.306-.682.681-.682h10.63c.375 0 .68.306.68.682v80.313h-21.807v-102.404h74.727c.376 0 .682.306.682.682z"/><path d="m69.271 129.545c3.535 0 6.41-2.875 6.41-6.408 0-3.535-2.875-6.41-6.41-6.41-3.533 0-6.408 2.875-6.408 6.41 0 3.533 2.874 6.408 6.408 6.408zm0-9.818c1.88 0 3.41 1.529 3.41 3.409s-1.53 3.409-3.41 3.409c-1.879 0-3.408-1.529-3.408-3.409s1.529-3.409 3.408-3.409z"/><path d="m69.271 136.242c-3.533 0-6.408 2.875-6.408 6.408 0 3.535 2.875 6.41 6.408 6.41 3.535 0 6.41-2.875 6.41-6.41 0-3.533-2.876-6.408-6.41-6.408zm0 9.819c-1.879 0-3.408-1.527-3.408-3.408s1.529-3.408 3.408-3.408c1.88 0 3.41 1.527 3.41 3.408 0 1.879-1.53 3.408-3.41 3.408z"/><path d="m77.11 162.51h-9.375c-.829 0-1.5.672-1.5 1.5s.671 1.5 1.5 1.5h9.375c.829 0 1.5-.672 1.5-1.5s-.671-1.5-1.5-1.5z"/><path d="m148.265 162.51h-9.374c-.828 0-1.5.672-1.5 1.5s.672 1.5 1.5 1.5h9.374c.828 0 1.5-.672 1.5-1.5s-.672-1.5-1.5-1.5z"/><path d="m69.293 78.167h.007c.825 0 1.496-.667 1.5-1.493l.062-13c.004-.829-.665-1.503-1.493-1.507-.002 0-.005 0-.007 0-.825 0-1.496.667-1.5 1.493l-.062 13c-.003.828.665 1.503 1.493 1.507z"/><path d="m69.15 108.666h.007c.825 0 1.496-.667 1.5-1.493l.026-5.5c.004-.828-.665-1.503-1.493-1.507-.002 0-.004 0-.007 0-.825 0-1.496.667-1.5 1.493l-.026 5.5c-.004.828.665 1.503 1.493 1.507z"/><path d="m69.204 97.166h.007c.825 0 1.496-.667 1.5-1.493l.062-13c.004-.829-.665-1.503-1.493-1.507-.002 0-.005 0-.007 0-.825 0-1.496.667-1.5 1.493l-.062 13c-.003.828.665 1.503 1.493 1.507z"/></g></svg>