<svg enable-background="new 0 0 216 216" height="216" viewBox="0 0 216 216" width="216" xmlns="http://www.w3.org/2000/svg"><g fill="#01363d"><path d="m132.07 131.771-8.289 8.289-4.188-4.188c-.586-.586-1.534-.586-2.12 0s-.586 1.535 0 2.121l5.248 5.249c.28.28.662.438 1.061.438s.779-.158 1.061-.438l9.35-9.351c.586-.586.586-1.535 0-2.121s-1.537-.582-2.123.001z"/><path d="m84 134.004h-9.332c-.829 0-1.5.672-1.5 1.5s.671 1.5 1.5 1.5h9.332c.829 0 1.5-.672 1.5-1.5s-.671-1.5-1.5-1.5z"/><path d="m92.668 97.836h-18c-.829 0-1.5.671-1.5 1.5s.671 1.5 1.5 1.5h18c.829 0 1.5-.671 1.5-1.5s-.671-1.5-1.5-1.5z"/><path d="m116.668 97.836h-18c-.829 0-1.5.671-1.5 1.5s.671 1.5 1.5 1.5h18c.828 0 1.5-.671 1.5-1.5s-.672-1.5-1.5-1.5z"/><path d="m121.168 99.336c0 .829.672 1.5 1.5 1.5h18c.828 0 1.5-.671 1.5-1.5s-.672-1.5-1.5-1.5h-18c-.828 0-1.5.672-1.5 1.5z"/><path d="m92.668 110.506h-18c-.829 0-1.5.672-1.5 1.5s.671 1.5 1.5 1.5h18c.829 0 1.5-.672 1.5-1.5s-.671-1.5-1.5-1.5z"/><path d="m105.333 110.506h-6.666c-.829 0-1.5.672-1.5 1.5s.671 1.5 1.5 1.5h6.666c.829 0 1.5-.672 1.5-1.5s-.671-1.5-1.5-1.5z"/><path d="m155.31 81.188-28.72-28.719c-.167-.167-1.691-1.635-3.715-1.635h-60.375c-1.93 0-3.5 1.57-3.5 3.5v106.332c0 1.93 1.57 3.5 3.5 3.5h53.243v16.459l10.089-9.787 10.089 9.787v-16.459h17.579c1.93 0 3.5-1.57 3.5-3.5v-75.666c0-2.229-1.568-3.706-1.69-3.812zm-29.476-25.233 26.047 26.044h-24.979c-.59 0-1.068-.479-1.068-1.069zm7.087 117.579-7.089-6.877-7.089 6.877v-18.704c2.202.855 4.586 1.343 7.087 1.343 2.502 0 4.888-.487 7.091-1.344zm-7.091-20.361c-9.189 0-16.665-7.478-16.665-16.666s7.476-16.666 16.665-16.666 16.666 7.478 16.666 16.666-7.476 16.666-16.666 16.666zm28.17-68.173v75.666c0 .275-.225.5-.5.5h-17.579v-7.811c5.726-3.441 9.575-9.695 9.575-16.849 0-10.844-8.822-19.666-19.666-19.666s-19.665 8.822-19.665 19.666c0 7.153 3.853 13.409 9.578 16.851v7.809h-53.243c-.276 0-.5-.225-.5-.5v-106.333c0-.276.224-.5.5-.5h60.334v27.097c0 2.244 1.825 4.069 4.068 4.069z"/></g></svg>