<svg enable-background="new 0 0 713.964 895.455" height="895.455" viewBox="0 0 713.964 895.455" width="713.964" xmlns="http://www.w3.org/2000/svg"><g fill="#01363d"><path d="m707.05 371.527-26.604-15.979c-.025-.019-.047-.041-.074-.058-2.266-1.418-5.242-1.428-8.561-.125l-19.516-11.721c-.021-.014-.047-.021-.07-.032-.02-.011-.035-.024-.055-.034-.021-.01-.047-.016-.068-.025-.053-.021-.104-.041-.158-.057-2.818-1.205-6.574-.202-10.625 2.878-.006.004-.01.009-.016.014-.004.004-.012.006-.016.012l-89.564 71.973c-.045.027-.092.049-.135.081-4.441 3.347-8.436 8.639-10.684 14.158-.002.005-.004.011-.006.017 0 .002-.004.005-.004.007l-16.242 41.939c-.002.008-.004.017-.008.024-.02.057-.031.113-.047.171-.01.04-.021.08-.027.121-.01.052-.01.103-.012.154-.002.047-.008.094-.006.141.004.045.014.09.02.135.006.051.012.103.023.151.01.042.025.083.041.124.018.049.031.1.053.146.02.04.043.077.064.114.025.046.049.093.08.136.025.034.055.063.082.096.037.042.072.085.113.124.027.027.061.049.092.074.047.038.094.075.146.106.008.004.014.012.021.016l.871.514-17.697 8.173c-.426.197-.736.582-.836 1.041l-3.715 16.972c-.178.809.336 1.608 1.145 1.785.107.023.217.035.322.035.689 0 1.311-.479 1.463-1.18l3.557-16.243 18.904-8.73 3.645 2.149-4.113 20.667-14.959 7.255c-.746.361-1.057 1.259-.695 2.004.26.534.795.847 1.352.847.221 0 .441-.05.652-.151l15.631-7.58c.424-.205.727-.596.816-1.057l4.053-20.37 2.348 1.384s0 0 .002.001.002.002.004.003c.02.011.041.016.061.025.076.04.154.072.234.098.008.002.016.007.021.009.018.005.033.017.051.021.014.003.025.002.039.006.105.025.213.04.32.042.01 0 .02.003.027.003.158 0 .313-.034.463-.083.043-.014.082-.032.123-.049.02-.009.041-.016.061-.025.029-.014.061-.02.088-.035.061-.033.113-.083.17-.126.006-.005.012-.009.02-.014.021-.016.045-.021.064-.039l32.979-28.813c.084-.063.168-.117.254-.183.035-.025.066-.055.102-.081.018-.012.037-.016.055-.027l65.229-49.125-45.453 92.809c-.004.005-.004.011-.006.017-.008.013-.016.022-.021.035-1.74 3.933-2.697 7.882-2.697 11.123 0 3.884 1.348 6.789 3.789 8.209.021.015.039.032.063.045l9.074 5.382-9.434 6.819c-.037.028-.064.064-.102.095-.055.044-.104.09-.15.142-.012.014-.023.028-.035.043-.223.262-.361.596-.361.967v10.952l-.334.164c-14.193 8.015-30.041 24.292-24.939 56.316 0 .001.002.001.002.002v.004c1.475 9.06 7.682 17.291 17.479 23.177 9.939 5.972 22.4 8.898 34.926 8.898 15.037 0 30.164-4.224 41.104-12.468 8.205-6.182 13.115-13.804 14.201-22.042 0-.001 0-.001 0-.002.002-.007.002-.015.004-.022 0-.002 0-.003 0-.005 0 0 0 0 0-.001 2.164-14.526 1.357-41.285-28.262-57.504-.727-.396-1.639-.132-2.037.597-.398.727-.131 1.638.596 2.035 28.041 15.354 28.785 40.709 26.732 54.457v.014c0 .005-.002.009-.004.014-.973 7.433-5.479 14.371-13.037 20.065-19.154 14.438-51.76 15.961-72.678 3.393-9.025-5.423-14.73-12.911-16.063-21.084-4.832-30.324 10.086-45.685 23.373-53.191l1.096-.536c.516-.253.842-.774.842-1.348v-9.282l25.361 15.231v10.662c0 .829.672 1.5 1.5 1.5s1.5-.671 1.5-1.5v-10.671l7.762-5.668c.67-.489.814-1.428.326-2.097-.486-.669-1.428-.813-2.096-.326l-7.516 5.487-25.59-15.368 8.646-6.251 14.951 8.869c1.148.773 2.551 1.197 4.166 1.197 3.008 0 6.514-1.444 10.141-4.176 5.162-3.891 9.748-9.843 12.666-15.894.041-.06.09-.112.123-.181l59.643-122c.014-.03.02-.061.031-.09 2.182-4.399 3.494-8.873 3.494-12.667-.001-4.063-1.52-7.012-4.124-8.35zm-168.795 109.048-10.344-6.104 15.467-39.94 3.199 1.896c.24.144.504.21.764.21.514 0 1.012-.262 1.291-.734.424-.712.189-1.634-.523-2.056l-3.439-2.041c-.027-.016-.057-.024-.086-.04 2.027-4.073 5.084-7.938 8.35-10.536.027-.02.059-.025.082-.046l90.129-72.426c3.104-2.358 5.977-3.284 7.707-2.48l16.623 9.983-95.768 72.122c-.166.119-.33.229-.498.354-.139.104-.273.222-.41.33l-.141.105c-.021.017-.039.037-.059.054-3.643 2.916-6.832 6.994-8.973 11.222l-.613 1.055-.863-.512c-.711-.423-1.633-.188-2.057.524-.422.713-.188 1.634.525 2.056l.885.523zm6.436-5.086 14.121-24.248c.189 4.08 2.389 6.634 5.855 6.792zm26.517-23.118c-2.293 1.727-4.496 2.678-6.203 2.678-2.656 0-3.213-2.388-3.213-4.391 0-2.619.93-5.727 2.477-8.789l.141-.24c.043-.075.076-.152.104-.229 1.975-3.747 4.852-7.376 8.074-9.926l.986-.741c2.088-1.469 4.074-2.278 5.643-2.278 2.652 0 3.211 2.389 3.211 4.393-.001 6.102-5.034 14.86-11.22 19.523zm10.715-8.063c2.176-3.893 3.504-7.989 3.504-11.461 0-4.053-1.883-6.735-4.99-7.283l77.516-58.375c-1.959 2.688-3.676 5.626-5.004 8.633-.002.002-.002.005-.004.008l-11.635 23.755zm24.881 77.529c-.102-.078-.209-.143-.322-.192l-10.881-6.452c-.006-.003-.012-.006-.018-.009-.006-.004-.012-.009-.018-.013-1.939-1.082-2.348-3.672-2.348-5.654 0-2.825.863-6.336 2.432-9.886l60.018-122.545c.006-.013.01-.026.016-.039.002-.005.008-.009.01-.014 1.49-3.375 3.504-6.642 5.797-9.529.004.002.006.005.01.008l3.4 2.106c.246.151.52.225.789.225.502 0 .992-.252 1.275-.71.438-.705.219-1.629-.484-2.064l-3.018-1.869c1.461-1.59 2.994-3.029 4.568-4.215 4.26-3.21 8.316-4.351 10.639-3.01.016.011.027.023.043.032l21.889 13.146c-2.26.608-4.695 1.862-7.191 3.744-4.408 3.32-8.404 8.144-11.295 13.247-.113.113-.215.242-.289.395l-59.789 122.344c-.049.101-.084.203-.107.309-2.768 4.982-4.479 10.203-4.479 14.537 0 .913.084 1.765.23 2.561zm38.904-9.331-.398.814c-.021.042-.031.086-.049.129-2.691 5.622-6.994 11.207-11.852 14.865-3.059 2.304-6.02 3.572-8.334 3.572-.803 0-1.465-.153-2.021-.413l-.668-.396c-1.541-1.164-1.938-3.387-1.938-5.35 0-8.061 6.625-19.608 14.766-25.742 3.061-2.305 6.02-3.573 8.336-3.573 3.822 0 4.625 3.35 4.625 6.16 0 2.985-.912 6.447-2.467 9.934zm5.42-11.089c-.377-4.967-3.205-8.003-7.578-8.003-3.008 0-6.514 1.444-10.141 4.176-.895.673-1.766 1.422-2.617 2.209l46.705-95.57c.387 4.944 3.213 7.966 7.574 7.966 3.008 0 6.516-1.444 10.141-4.177.916-.689 1.811-1.458 2.684-2.268zm53.989-110.36c-.064.08-.119.168-.166.264l-.563 1.15c-2.705 5.024-6.617 9.865-10.979 13.15-3.059 2.304-6.02 3.573-8.336 3.573-4.025 0-4.627-3.859-4.627-6.159 0-2.9.869-6.252 2.346-9.642l1.451-2.97c2.705-5.017 6.615-9.85 10.971-13.131 3.059-2.304 6.02-3.573 8.334-3.573.791 0 1.445.149 1.998.402l.492.295c.029.018.063.024.094.041 1.625 1.141 2.041 3.416 2.041 5.422 0 3.34-1.148 7.276-3.056 11.178z"/><path d="m676.8 376.991 3.4 2.105c.246.152.52.226.789.226.502 0 .992-.252 1.275-.71.438-.705.221-1.629-.484-2.065l-3.4-2.105c-.703-.436-1.627-.221-2.064.484-.436.704-.219 1.628.484 2.065z"/><path d="m177.508 117.811 34.301 20.6c.242.145.509.214.771.214.509 0 1.006-.259 1.287-.728.427-.71.195-1.632-.515-2.059l-34.301-20.6c-.71-.425-1.632-.198-2.059.514-.424.71-.194 1.632.516 2.059z"/><path d="m96.682 504.942c-.829 0-1.5.671-1.5 1.5v3.845c0 .829.671 1.5 1.5 1.5s1.5-.671 1.5-1.5v-3.845c0-.828-.671-1.5-1.5-1.5z"/><path d="m395.167 657.31-3.994 3.009c-.662.498-.795 1.438-.297 2.101.295.392.744.598 1.199.598.314 0 .631-.099.9-.302l3.994-3.008c.662-.498.795-1.438.297-2.101s-1.438-.794-2.099-.297z"/><path d="m421.529 637.46-3.994 3.008c-.662.499-.793 1.439-.295 2.102.295.392.744.598 1.199.598.313 0 .631-.099.9-.302l3.994-3.008c.662-.499.793-1.439.295-2.102s-1.437-.795-2.099-.296z"/><path d="m412.742 644.076-3.994 3.008c-.662.498-.795 1.438-.297 2.101.295.393.744.599 1.199.599.314 0 .631-.1.9-.302l3.996-3.009c.662-.498.793-1.438.295-2.101s-1.437-.793-2.099-.296z"/><path d="m403.955 650.693-3.994 3.008c-.662.498-.795 1.438-.297 2.101.295.393.744.599 1.199.599.314 0 .631-.1.9-.303l3.994-3.008c.662-.498.795-1.438.297-2.101-.5-.663-1.439-.794-2.099-.296z"/><path d="m395.167 615.874-3.994 3.007c-.662.498-.795 1.438-.297 2.102.295.392.744.598 1.199.598.314 0 .631-.098.9-.302l3.994-3.007c.662-.498.795-1.438.297-2.102s-1.438-.795-2.099-.296z"/><path d="m421.529 596.023-3.994 3.008c-.662.499-.793 1.438-.295 2.101.295.393.744.599 1.199.599.313 0 .631-.099.9-.303l3.994-3.008c.662-.499.793-1.438.295-2.101s-1.437-.795-2.099-.296z"/><path d="m403.955 609.257-3.994 3.007c-.662.498-.795 1.438-.297 2.102.295.392.744.598 1.199.598.314 0 .631-.098.9-.302l3.994-3.007c.662-.498.795-1.438.297-2.102-.5-.662-1.439-.795-2.099-.296z"/><path d="m412.742 602.64-3.994 3.009c-.662.499-.793 1.438-.295 2.101.295.392.744.598 1.199.598.313 0 .631-.098.9-.302l3.994-3.008c.662-.499.793-1.439.295-2.102s-1.437-.796-2.099-.296z"/><path d="m400.863 695.833c.314 0 .631-.099.9-.302l3.994-3.008c.662-.498.795-1.438.297-2.102-.5-.662-1.439-.794-2.102-.296l-3.994 3.008c-.662.498-.793 1.438-.295 2.102.295.392.745.598 1.2.598z"/><path d="m392.076 702.45c.314 0 .631-.1.9-.302l3.994-3.009c.662-.498.795-1.438.297-2.101s-1.439-.794-2.102-.296l-3.994 3.008c-.662.498-.793 1.438-.295 2.101.295.393.745.599 1.2.599z"/><path d="m409.652 689.216c.313 0 .631-.099.9-.302l3.994-3.007c.662-.498.793-1.438.295-2.102s-1.438-.794-2.1-.296l-3.994 3.007c-.662.498-.795 1.438-.297 2.102.298.392.747.598 1.202.598z"/><path d="m418.437 682.6c.314 0 .633-.099.902-.302l3.994-3.008c.662-.498.793-1.438.295-2.101s-1.438-.794-2.1-.297l-3.994 3.009c-.662.497-.795 1.438-.297 2.101.298.392.747.598 1.2.598z"/><path d="m214.688 467.639 13.717 8.238c.242.146.508.214.771.214.509 0 1.006-.259 1.287-.728.427-.71.196-1.632-.514-2.06l-13.717-8.237c-.71-.427-1.633-.198-2.06.514-.424.711-.194 1.632.516 2.059z"/><path d="m204.316 461.16c.509 0 1.006-.259 1.286-.729.428-.71.196-1.632-.514-2.059l-13.717-8.238c-.71-.426-1.632-.197-2.06.515-.427.71-.195 1.632.515 2.059l13.717 8.238c.244.145.509.214.773.214z"/><path d="m292.533 408.395 13.716 8.238c.242.146.508.214.771.214.51 0 1.007-.259 1.287-.728.428-.71.196-1.632-.514-2.06l-13.716-8.237c-.71-.425-1.633-.198-2.06.514-.425.711-.194 1.632.516 2.059z"/><path d="m267.671 393.463 13.717 8.238c.242.145.509.214.771.214.509 0 1.006-.259 1.287-.728.427-.711.195-1.633-.515-2.06l-13.717-8.238c-.711-.425-1.632-.196-2.059.515-.424.711-.194 1.633.516 2.059z"/><path d="m341.739 337.369 13.717 8.237c.242.145.508.214.771.214.51 0 1.007-.26 1.287-.729.428-.71.197-1.632-.513-2.059l-13.717-8.237c-.711-.425-1.632-.198-2.06.514-.426.712-.195 1.633.515 2.06z"/><path d="m366.599 352.299 13.719 8.237c.24.145.508.214.77.214.51 0 1.006-.259 1.287-.728.428-.71.197-1.633-.514-2.06l-13.717-8.237c-.711-.425-1.633-.197-2.059.515-.425.711-.195 1.632.514 2.059z"/><path d="m540.316 815.273-10.385 7.819c-.662.498-.795 1.438-.297 2.102.295.392.744.598 1.199.598.314 0 .631-.099.902-.302l10.385-7.82c.662-.498.793-1.438.295-2.101-.498-.662-1.439-.794-2.099-.296z"/><path d="m583.451 782.787-10.383 7.821c-.662.497-.795 1.438-.297 2.101.295.392.744.598 1.199.598.314 0 .631-.099.9-.302l10.385-7.821c.662-.498.793-1.438.295-2.101s-1.437-.794-2.099-.296z"/><path d="m561.882 799.03-10.385 7.819c-.662.498-.793 1.438-.295 2.102.295.392.744.598 1.199.598.313 0 .631-.099.9-.302l10.385-7.82c.662-.498.793-1.438.297-2.101-.499-.662-1.439-.793-2.101-.296z"/><path d="m476.32 738.758-10.385 7.82c-.662.498-.795 1.438-.297 2.101.295.393.744.599 1.199.599.314 0 .631-.1.902-.303l10.383-7.819c.662-.498.795-1.438.297-2.102-.5-.662-1.437-.794-2.099-.296z"/><path d="m497.886 722.516-10.385 7.82c-.662.498-.793 1.438-.295 2.102.295.392.744.598 1.199.598.313 0 .631-.1.9-.302l10.385-7.82c.662-.498.795-1.438.297-2.101-.497-.665-1.439-.795-2.101-.297z"/><path d="m454.751 755.001-10.385 7.82c-.662.498-.795 1.438-.297 2.101.295.393.744.598 1.199.598.314 0 .631-.099.9-.302l10.385-7.819c.662-.498.795-1.438.297-2.102s-1.436-.793-2.099-.296z"/><path d="m273.215 645.327-10.385 7.82c-.662.497-.794 1.438-.296 2.101.295.392.744.598 1.199.598.313 0 .631-.099.9-.302l10.385-7.82c.662-.497.795-1.438.297-2.101-.498-.662-1.438-.793-2.1-.296z"/><path d="m294.783 629.084-10.385 7.821c-.662.499-.795 1.438-.297 2.101.296.393.744.598 1.199.598.314 0 .631-.098.901-.302l10.385-7.82c.662-.499.794-1.439.296-2.102s-1.438-.795-2.099-.296z"/><path d="m225.581 557.063-10.385 7.819c-.662.499-.794 1.439-.296 2.102.295.392.743.598 1.198.598.314 0 .632-.098.901-.302l10.385-7.82c.662-.499.794-1.439.296-2.101-.498-.664-1.438-.796-2.099-.296z"/><path d="m204.012 573.305-10.384 7.82c-.662.499-.794 1.439-.296 2.101.295.393.744.599 1.199.599.313 0 .631-.099.9-.302l10.385-7.82c.661-.499.794-1.439.296-2.102s-1.439-.795-2.1-.296z"/><path d="m182.445 589.547-10.386 7.82c-.661.499-.794 1.438-.296 2.101.295.393.744.599 1.199.599.314 0 .631-.099.901-.303l10.385-7.819c.662-.499.794-1.439.296-2.102-.498-.662-1.438-.794-2.099-.296z"/><path d="m326.411 157.915-14.379 10.827c-.662.498-.794 1.439-.296 2.101.295.392.744.598 1.198.598.314 0 .632-.098.901-.302l14.379-10.827c.662-.498.794-1.439.296-2.101-.498-.663-1.438-.795-2.099-.296z"/><path d="m300.847 177.163-14.379 10.828c-.662.499-.794 1.439-.296 2.101.295.392.744.598 1.199.598.313 0 .631-.098.901-.302l14.379-10.828c.661-.499.794-1.439.296-2.101-.499-.662-1.439-.794-2.1-.296z"/><path d="m141.096 46.821-14.379 10.828c-.662.499-.794 1.439-.296 2.101.295.392.744.598 1.199.598.314 0 .631-.098.901-.302l14.379-10.829c.662-.499.794-1.439.296-2.101s-1.441-.794-2.1-.295z"/><path d="m115.534 66.071-14.379 10.828c-.662.499-.794 1.439-.296 2.101.295.392.744.598 1.199.598.314 0 .631-.098.901-.302l14.379-10.828c.662-.499.794-1.439.296-2.101-.499-.662-1.44-.794-2.1-.296z"/><path d="m521.771 329.276c0 6.158 3.176 9.983 8.287 9.983 3.295 0 7.146-1.588 11.135-4.594 9.713-7.318 17.615-21.243 17.615-31.041 0-6.159-3.176-9.986-8.285-9.986-3.297 0-7.146 1.589-11.135 4.596-9.715 7.319-17.617 21.245-17.617 31.042zm28.752-32.636c4.6 0 5.285 4.377 5.285 6.986 0 8.973-7.365 21.823-16.42 28.646-3.416 2.572-6.729 3.989-9.33 3.989-4.6 0-5.287-4.376-5.287-6.983 0-8.974 7.367-21.823 16.422-28.646 3.416-2.574 6.728-3.992 9.33-3.992z"/><path d="m44.728 570.591c-3.535-2.125-7.004-3.249-10.033-3.249-5.71 0-9.257 3.851-9.257 10.046 0 9.146 7.96 21.369 17.745 27.25 3.535 2.124 7.004 3.246 10.032 3.246 5.711 0 9.259-3.849 9.259-10.044 0-9.146-7.961-21.37-17.746-27.249zm8.487 34.293c-2.484 0-5.419-.975-8.487-2.816-8.983-5.399-16.291-16.471-16.291-24.679 0-4.544 2.222-7.046 6.257-7.046 2.484 0 5.419.976 8.488 2.82 8.983 5.396 16.291 16.468 16.291 24.678.001 4.542-2.222 7.043-6.258 7.043z"/><path d="m44.728 92.546c-3.535-2.124-7.003-3.247-10.032-3.247-5.71 0-9.258 3.849-9.258 10.044 0 9.146 7.96 21.37 17.745 27.249 3.535 2.125 7.004 3.248 10.033 3.248 5.711 0 9.258-3.849 9.258-10.045 0-9.147-7.961-21.371-17.746-27.249zm8.487 34.294c-2.484 0-5.419-.975-8.488-2.819-8.982-5.396-16.29-16.467-16.29-24.677 0-4.542 2.223-7.044 6.258-7.044 2.484 0 5.418.975 8.487 2.818 8.983 5.397 16.291 16.467 16.291 24.677.001 4.542-2.222 7.045-6.258 7.045z"/><path d="m485.408 836.029c-3.535-2.124-7.004-3.247-10.033-3.247-5.711 0-9.258 3.85-9.258 10.045 0 9.146 7.961 21.369 17.746 27.25 3.535 2.123 7.004 3.246 10.031 3.246 5.711 0 9.258-3.85 9.258-10.044 0-9.146-7.959-21.371-17.744-27.25zm8.486 34.294c-2.482 0-5.42-.976-8.486-2.818-8.982-5.396-16.291-16.469-16.291-24.678 0-4.543 2.223-7.045 6.258-7.045 2.484 0 5.42.975 8.488 2.818 8.98 5.396 16.289 16.468 16.289 24.679 0 4.542-2.223 7.044-6.258 7.044z"/><path d="m567.917 752.082-132.861-79.793v-105.337c0-.012-.006-.023-.006-.036 0-.014.004-.028.004-.042-.006-.084-.025-.164-.043-.245-.008-.034-.01-.07-.02-.104-.037-.125-.09-.243-.156-.354-.018-.028-.041-.05-.059-.076-.057-.08-.115-.155-.188-.224-.035-.034-.076-.06-.115-.091-.049-.039-.094-.082-.146-.115l-62.166-37.359c-.521-.314-1.186-.28-1.674.087l-57.275 43.11c-.029.022-.051.052-.078.076-.044.038-.085.077-.124.119-.048.053-.09.108-.13.168-.03.045-.061.09-.086.138-.034.065-.06.132-.084.201-.018.05-.037.099-.05.151-.019.073-.024.149-.03.227-.003.04-.016.078-.016.118v26.052l-54.296-32.607 284.29-214.08c.17-.129.305-.286.402-.46 19.047-15.315 33.945-42.357 33.945-61.658 0-8.611-3.145-14.848-8.848-17.585l-51.539-30.954v-25.063c0-.012-.006-.022-.006-.036s.006-.027.004-.042c-.006-.084-.025-.164-.043-.244-.008-.034-.01-.07-.02-.104-.037-.125-.09-.243-.156-.353-.018-.028-.041-.05-.059-.076-.057-.08-.115-.156-.188-.224-.033-.034-.076-.06-.115-.091-.049-.039-.094-.082-.146-.115l-62.168-37.358c-.521-.315-1.186-.281-1.674.087l-18.354 13.815-148.377-89.115v-19.01c0-.012-.005-.023-.005-.035 0-.015.004-.028.003-.043-.005-.084-.024-.164-.043-.245-.008-.034-.009-.07-.019-.104-.037-.125-.09-.243-.156-.353-.018-.028-.041-.05-.06-.076-.057-.08-.115-.156-.187-.224-.035-.034-.077-.06-.116-.091-.049-.038-.093-.082-.146-.115l-62.167-37.357c-.522-.315-1.187-.28-1.675.087l-13.875 10.448-73.17-43.945c-.049-.029-.1-.056-.152-.08l-.851-.386-.407-.261c-.462-.297-.977-.626-1.374-.865-16.597-9.973-30.268-6.949-36.866-1.381l-82.036 61.777c-.166.125-.297.277-.395.445-4.242 3.431-6.499 9.084-6.5 16.434 0 19.532 17.098 45.695 38.066 58.292l.41.267 280.278 168.329-174.173 131.149-13.245-8.126c-.526-.323-1.195-.291-1.687.079l-57.263 43.11c-.03.022-.051.052-.079.076-.042.037-.082.074-.12.115-.049.054-.092.109-.132.169-.031.045-.061.089-.086.138-.034.063-.06.131-.084.2-.018.051-.038.1-.05.151-.018.074-.024.149-.03.227-.004.041-.017.08-.017.122v18.551l-65.108 49.025c-.006.005-.011.011-.018.016-.012.01-.025.018-.038.028-4.334 3.594-6.625 9.167-6.624 16.119 0 19.533 17.098 45.697 38.071 58.297l.494.318 439.967 264.225c.002.002.008.002.01.004.006.003.01.008.016.011 7.172 4.123 14.072 6.227 20.045 6.227 3.705 0 7.053-.81 9.887-2.448.752-.436 1.453-.929 2.111-1.47.012-.009.023-.011.035-.019l84.01-63.267c.01-.008.016-.016.023-.021.006-.004.012-.005.016-.009 4.283-3.452 6.547-9.163 6.547-16.517-.001-19.484-17.219-45.68-38.384-58.396zm-190.099-59.566v-38.328l54.238-40.841v38.328zm54.238-37.086v33.085l-54.238 40.842v-33.085zm-54.238-4.998v-39.631l30.988-23.335 23.25-17.507v39.632zm-6.334-119.033 59.393 35.691-54.654 41.155-59.425-35.685zm-55.868 43.955 59.202 35.549v40.097l-59.202-35.546zm0 43.6 59.202 35.546v38.584l-59.202-35.548zm0 42.082 59.202 35.548v33.128l-59.202-35.552zm251.098-386.019c4.67 2.186 7.242 7.487 7.242 14.933 0 18.233-14.789 44.897-32.969 59.439-.146.116-.26.256-.35.407l-285.092 214.684-49.351-29.64 336.417-253.33c.094-.071.176-.153.248-.242 9.449-6.674 18.074-8.958 23.855-6.251zm-60.006-32.796c-.514-.649-1.457-.761-2.107-.249l-12.785 10.084c-.361.284-.57.719-.57 1.179v36.557c0 .216.047.42.129.605l-19.662 14.807v-34.224l12.215-9.635c.65-.513.762-1.456.248-2.105-.512-.651-1.455-.764-2.105-.249l-12.785 10.084c-.361.284-.572.718-.572 1.178v36.557c0 .201.041.393.113.567l-9.492 7.148v-54.33l54.24-40.84v54.326l-19.328 14.555v-34.274l12.215-9.634c.647-.514.758-1.457.246-2.107zm-53.71-61.425 59.395 35.691-54.654 41.152-59.418-35.683zm3.334 79.499v54.585l-59.193-35.553v-54.58zm-234.637-212.365 59.396 35.69-54.656 41.153-59.42-35.683zm60.577 38.557v33.518l-54.241 40.843v-33.52zm-57.241 40.942v33.775l-59.195-35.553v-33.77zm-179.893 15.698-.41-.267c-20.214-12.145-36.659-37.154-36.659-55.75 0-6.605 1.971-11.578 5.698-14.38 6.488-4.877 17.539-3.477 29.563 3.747.001 0 .002.001.003.002l331.43 199.163-48.353 36.41zm90.57 296.985 25.862 15.868-10.534 7.931-44.132 33.229-25.884-15.859zm27.023 18.748v54.327l-54.241 40.843v-54.33zm-82.874 25.226 25.633 15.707v54.566l-25.633-15.711zm432.197 405.097c-6.445 3.731-16.266 2.354-26.934-3.781l-439.899-264.183-.494-.317c-20.213-12.146-36.658-37.155-36.658-55.752 0-6.025 1.913-10.798 5.532-13.804l.078-.059c6.402-5.235 17.433-4.029 29.531 3.24l439.676 264.1c20.043 12.142 36.35 37.011 36.35 55.438 0 7.172-2.485 12.401-7.182 15.118zm85.821-64.529-76.994 57.981c.889-2.53 1.355-5.408 1.355-8.573 0-19.358-16.955-45.379-37.795-58.004 0-.001-.002-.001-.002-.001-.002-.001-.002-.002-.002-.002l-439.46-263.966-.215-.13c-8.346-5.015-16.325-7.308-22.945-6.799l55.041-41.444v35.772c0 .521.271 1.006.716 1.278l28.633 17.551c.019.012.041.016.06.025s.034.027.054.037c.058.029.12.044.18.065.039.013.076.03.115.042.123.031.249.051.375.051.145 0 .289-.027.429-.069.044-.014.084-.034.127-.051.059-.024.12-.04.177-.071.035-.02.062-.049.095-.07.023-.017.051-.022.074-.039l57.241-43.102c.376-.283.599-.727.599-1.198v-58.082c0-.012-.005-.021-.005-.032 0-.014.004-.026.004-.04-.005-.093-.026-.184-.048-.271-.006-.025-.006-.054-.014-.08-.037-.125-.09-.244-.157-.354-.018-.029-.043-.053-.063-.082-.056-.078-.112-.153-.183-.219-.033-.033-.073-.061-.111-.09-.047-.036-.089-.079-.142-.111l-12.616-7.742 12.374-9.317c.115.161.265.303.444.411l13.466 8.087c.242.146.509.214.771.214.509 0 1.006-.259 1.287-.728.427-.71.195-1.632-.515-2.059l-12.976-7.793 75.733-57.025c.026.02.051.042.08.06l13.462 8.085c.241.146.508.215.771.215.509 0 1.006-.26 1.287-.729.427-.71.196-1.632-.514-2.059l-12.512-7.515 71.721-54.003 13.313 7.995c.242.146.508.214.771.214.509 0 1.006-.259 1.287-.728.427-.71.195-1.632-.515-2.06l-12.271-7.369 58.479-44.033c.029-.022.053-.05.08-.074.029-.026.059-.051.086-.079.074-.076.141-.157.195-.244.006-.011.016-.018.021-.027.002-.004.002-.007.004-.01.035-.059.061-.122.088-.184.012-.03.029-.058.039-.088.012-.034.018-.07.025-.105.066-.248.072-.503.014-.746-.008-.031-.021-.063-.033-.095-.02-.062-.037-.125-.064-.184-.012-.024-.029-.046-.041-.07-.035-.064-.07-.127-.113-.186-.002-.004-.004-.007-.006-.01-.021-.029-.051-.053-.072-.081-.039-.044-.076-.089-.121-.129-.053-.047-.109-.086-.168-.125-.021-.015-.039-.034-.063-.048l-.014-.008c-.004-.002-.008-.004-.012-.007l-333.305-200.287c-.001 0-.002-.001-.003-.002-8.602-5.168-16.847-7.501-23.625-6.915l73.884-55.64.731-.553c5.907-4.981 18.213-7.55 33.453 1.606.375.226.861.538 1.298.818l.506.324c.059.038.121.071.185.1l.871.396 29.174 17.522-9.074 6.833c-.662.499-.794 1.439-.296 2.101.295.392.743.598 1.198.598.314 0 .632-.098.901-.302l9.384-7.067c.217-.164.371-.377.472-.61l40.295 24.201-40.802 30.714c-.029.022-.052.052-.08.077-.043.038-.082.076-.121.118-.049.053-.091.109-.131.168-.03.045-.061.09-.086.139-.033.064-.06.131-.083.199-.018.051-.038.1-.05.153-.017.073-.022.148-.03.225-.003.041-.016.079-.016.12v37.267c0 .527.276 1.015.729 1.286l62.194 37.355c.019.01.037.014.057.024.017.009.028.023.047.032.059.029.122.045.183.066.039.014.076.032.116.042.122.031.246.05.371.05.146 0 .289-.027.43-.069.045-.013.085-.034.128-.052.062-.024.123-.041.182-.073.033-.019.06-.048.092-.07.022-.015.05-.021.071-.038l57.241-43.102c.376-.283.599-.727.599-1.198v-14.762l61.244 36.784-8.922 6.718c-.662.499-.794 1.439-.296 2.101.295.392.744.598 1.199.598.314 0 .631-.098.901-.302l9.39-7.071c.164-.124.296-.275.394-.443l81.88 49.177-36.326 27.346c-.029.021-.051.052-.078.075-.045.038-.086.077-.125.119-.047.054-.09.109-.129.168-.031.045-.063.09-.086.139-.035.064-.061.132-.084.2-.02.051-.037.1-.051.151-.018.074-.023.15-.029.228-.004.039-.018.077-.018.117v58.079c0 .527.277 1.016.729 1.286l62.191 37.355c.018.01.037.014.055.022.018.01.031.024.049.034.061.03.123.045.186.067.039.013.074.03.113.041.123.03.246.05.371.05.146 0 .289-.027.43-.069.045-.013.084-.034.127-.051.063-.024.125-.041.184-.074.033-.02.059-.048.092-.07.023-.015.049-.021.072-.037l57.24-43.103c.377-.283.598-.727.598-1.198v-29.52l43.344 26.032c-6.01.409-13.037 3.499-20.525 9.142-.129.096-.23.212-.318.336l-336.288 253.232c-.429.322-.631.832-.588 1.33-.039.546.217 1.094.718 1.395l109.696 65.88v13.398l-6.649 5.008c-.662.499-.794 1.438-.296 2.101.295.393.744.599 1.199.599.313 0 .631-.099.901-.302l4.845-3.649v75.6c0 .526.275 1.016.728 1.286l62.201 37.354c.02.011.039.015.057.023s.029.022.047.031c.059.029.119.044.18.064.041.015.078.032.119.044.123.03.246.05.371.05.146 0 .291-.027.432-.069.043-.013.082-.033.123-.05.063-.024.127-.042.186-.075.033-.02.061-.049.094-.07.021-.016.049-.021.068-.036l57.24-43.101c.375-.283.598-.728.598-1.197v-13.474l131.316 78.864c20.361 12.232 36.928 37.274 36.928 55.823-.004 6.414-1.881 11.315-5.429 14.177z"/></g></svg>