<svg height="38" viewBox="0 0 109 38" width="109" xmlns="http://www.w3.org/2000/svg"><g fill="#04363e"><path d="m13.5 18.2h-3.8v-6.6h-5.6v6.6h-3.8v-14.9h3.8v5.5h5.6v-5.5h3.8z"/><path d="m22.9 17c-.2.1-.4.3-.7.5s-.5.4-.8.5c-.3.2-.7.3-1.1.4s-.8.1-1.2.1c-1 0-1.9-.3-2.6-1s-1.1-1.5-1.1-2.5c0-.8.2-1.5.5-2s.9-.9 1.5-1.2c.7-.3 1.5-.5 2.4-.6l3-.3v-.1c0-.6-.2-1-.7-1.3-.5-.2-1.2-.4-2.2-.4-.6 0-1.2.1-1.9.3s-1.1.4-1.4.5h-.3v-2.7c.4-.1 1-.2 1.8-.4.8-.1 1.7-.2 2.5-.2 2 0 3.5.3 4.4.9s1.3 1.6 1.3 3v7.6h-3.5v-1.1zm0-1.8v-2.3c-.5 0-1 .1-1.6.2s-1 .2-1.3.2c-.4.1-.6.3-.8.5-.1.2-.2.5-.2.9 0 .2 0 .4.1.6 0 .1.1.3.3.4s.3.2.5.3.5.1 1 .1c.4 0 .7-.1 1.1-.2.3-.2.6-.4.9-.7z"/><path d="m36.9 10.4h-.3c-.2-.1-.4-.1-.7-.1s-.6 0-.8 0c-.5 0-.9 0-1.3.1s-.8.2-1.2.3v7.5h-3.5v-11.3h3.5v1.7c.8-.7 1.5-1.1 2-1.4s1.1-.3 1.6-.3h.4.4v3.5z"/><path d="m49.2 18.2h-3.5v-1.2c-.6.5-1.2.9-1.7 1.1s-1.1.4-1.8.4c-1.3 0-2.4-.5-3.2-1.6s-1.2-2.5-1.2-4.3c0-1 .1-1.8.4-2.5s.6-1.4 1.1-1.9c.4-.5 1-.9 1.6-1.2s1.3-.4 1.9-.4c.7 0 1.2.1 1.6.2s.9.3 1.3.5v-4.8h3.5zm-3.6-3.1v-5.5c-.2-.1-.5-.2-.8-.2s-.5-.1-.8-.1c-.9 0-1.6.3-2.1.9s-.7 1.4-.7 2.5.2 1.9.6 2.4 1 .7 1.8.7c.3 0 .7-.1 1-.2s.7-.3 1-.5z"/><path d="m69.7 6.9-3.4 11.2h-3.8l-2.2-7.6-2.3 7.7h-3.8l-3.4-11.2h3.7l1.9 7.8 2.4-7.8h3.2l2.2 7.8 1.9-7.8h3.6z"/><path d="m77.7 17c-.2.1-.4.3-.7.5s-.5.4-.8.5c-.3.2-.7.3-1.1.4s-.8.1-1.2.1c-1 0-1.9-.3-2.6-1s-1.1-1.5-1.1-2.5c0-.8.2-1.5.5-2 .4-.5.9-.9 1.5-1.2.7-.3 1.5-.5 2.4-.6s2-.2 3-.3v-.1c0-.6-.2-1-.7-1.3-.5-.2-1.2-.4-2.2-.4-.6 0-1.2.1-1.9.3s-1.1.4-1.4.5h-.3v-2.7c.4-.1 1-.2 1.8-.4.8-.1 1.7-.2 2.5-.2 2 0 3.5.3 4.4.9s1.3 1.6 1.3 3v7.6h-3.5v-1.1zm0-1.8v-2.3c-.5 0-1 .1-1.5.2-.6.1-1 .2-1.3.2-.4.1-.6.3-.8.5s-.3.5-.3.9c0 .2 0 .4.1.6s.1.3.3.4.3.2.5.3.5.1 1 .1c.4 0 .7-.1 1.1-.2s.6-.4.9-.7z"/><path d="m91.6 10.4h-.3c-.2-.1-.4-.1-.7-.1s-.6 0-.8 0c-.5 0-.9 0-1.3.1s-.8.2-1.2.3v7.5h-3.5v-11.3h3.5v1.7c.8-.7 1.5-1.1 2-1.4.6-.2 1.1-.3 1.6-.3h.4.4v3.5z"/><path d="m104 13.2h-8c.1.9.4 1.6 1 2 .6.5 1.5.7 2.7.7.7 0 1.5-.1 2.2-.4s1.3-.6 1.7-.9h.4v2.9c-.8.3-1.6.6-2.3.7s-1.5.2-2.3.2c-2.2 0-3.9-.5-5.1-1.5s-1.8-2.5-1.8-4.3c0-1.9.6-3.3 1.7-4.4s2.6-1.6 4.6-1.6c1.8 0 3.1.5 4 1.4s1.4 2.3 1.4 4v1.2zm-3.5-2.1c0-.8-.2-1.3-.5-1.7s-.9-.6-1.6-.6-1.2.2-1.7.5-.7.9-.7 1.7h4.5z"/><path d="m50.8 36.9h-1.1l-6.9-10v10h-.8v-10.9h1.1l6.9 10v-10h.8z"/><path d="m63.2 36.9h-1l-1.4-3.5h-5.6c-.2.6-.4 1.1-.7 1.7-.2.6-.5 1.2-.7 1.8h-.8c.4-.9.7-1.9 1.1-2.8s.7-1.8 1.1-2.7.7-1.8 1.1-2.7.7-1.8 1.1-2.8h1.2zm-2.6-4.1-2.6-6.1-2.5 6.1z"/><path d="m72.6 26.8h-4v10.1h-.8v-10.1h-3.9v-.8h8.7z"/><path d="m76.8 36.9h-.8v-10.9h.8z"/><path d="m86.3 25.8c.8 0 1.5.1 2.1.4.7.3 1.2.6 1.7 1.1s.8 1.1 1.1 1.8.4 1.5.4 2.3-.1 1.6-.4 2.3-.6 1.3-1.1 1.8-1 .9-1.7 1.2-1.4.4-2.2.4-1.5-.1-2.2-.4-1.2-.7-1.7-1.2-.8-1.1-1.1-1.8-.4-1.5-.4-2.3c0-.9.1-1.6.4-2.3s.6-1.3 1.1-1.8 1-.9 1.7-1.1c.8-.2 1.5-.4 2.3-.4zm0 10.6c.6 0 1.2-.1 1.8-.3.5-.2 1-.5 1.4-1s.7-.9.9-1.5.3-1.3.3-2.1-.1-1.5-.3-2.1-.5-1.1-.9-1.5-.9-.7-1.4-.9-1.1-.3-1.8-.3-1.3.1-1.8.3c-.6.2-1 .5-1.4.9s-.7.9-.9 1.5-.3 1.3-.3 2.1.1 1.5.3 2.1.5 1.1.9 1.5.9.7 1.4 1c.5.1 1.1.3 1.8.3z"/><path d="m104.4 36.9h-1.1l-6.9-10v10h-.8v-10.9h1.1l6.9 9.9v-9.9h.8z"/><path d="m105.9 5.6c-.8 0-1.4-.2-1.9-.7s-.7-1.1-.7-1.9c0-.7.3-1.4.8-1.9s1.2-.7 1.9-.7c.8 0 1.4.2 1.9.7s.8 1.1.8 1.9c0 .7-.3 1.4-.8 1.8s-1.3.8-2 .8zm0-4.8c-.6 0-1.2.2-1.6.6s-.6.9-.6 1.6c0 .6.2 1.2.6 1.6s.9.6 1.6.6c.6 0 1.1-.2 1.6-.6s.6-.9.6-1.6c0-.6-.2-1.2-.6-1.6s-1-.6-1.6-.6zm1.4 3.7h-.9l-.3-.8c-.1-.3-.2-.4-.4-.4h-.3v1.2h-.7v-3.2h1.1c.9 0 1.3.3 1.3.9 0 .4-.3.7-.8.9.2 0 .4.2.5.5zm-1.8-2.6v.8h.4c.3 0 .5-.1.5-.4s-.2-.4-.6-.4z"/></g></svg>