<svg enable-background="new 0 0 253 67" height="67" viewBox="0 0 253 67" width="253" xmlns="http://www.w3.org/2000/svg"><g fill="#fff"><path d="m31.617 37.166h-9v-15.374h-13.289v15.375h-9v-34.899h9v12.773h13.289v-12.773h9z"/><path d="m53.072 34.377c-.453.344-1.016.758-1.688 1.242s-1.305.867-1.898 1.148c-.828.375-1.688.652-2.578.832s-1.867.27-2.93.27c-2.5 0-4.594-.773-6.281-2.32s-2.531-3.523-2.531-5.929c0-1.922.43-3.492 1.289-4.711s2.078-2.18 3.656-2.883c1.563-.703 3.5-1.203 5.813-1.5s4.711-.516 7.195-.656v-.141c0-1.453-.594-2.457-1.781-3.012s-2.938-.832-5.25-.832c-1.391 0-2.875.246-4.453.738s-2.711.871-3.398 1.137h-.773v-6.352c.891-.234 2.34-.512 4.348-.832s4.02-.48 6.035-.48c4.797 0 8.262.738 10.395 2.215s3.199 3.793 3.199 6.949v17.906h-8.367v-2.789zm0-4.095v-5.467c-1.141.094-2.375.222-3.703.386-1.328.163-2.336.354-3.023.572-.844.265-1.488.65-1.934 1.156-.445.506-.668 1.172-.668 1.998 0 .545.047.989.141 1.332s.328.669.703.981c.359.312.789.541 1.289.689.5.147 1.281.222 2.344.222.844 0 1.699-.171 2.566-.514s1.629-.794 2.285-1.355z"/><path d="m85.436 18.885h-.748c-.359-.125-.936-.219-1.731-.281s-1.458-.094-1.988-.094c-1.2 0-2.261.078-3.181.234s-1.91.422-2.97.797v17.625h-8.461v-26.32h8.461v3.867c1.855-1.594 3.469-2.652 4.841-3.176 1.372-.523 2.635-.785 3.789-.785.296 0 .631.008 1.005.023.375.016.702.039.982.07v8.04z"/><path d="m114.25 37.166h-8.251v-2.742c-1.416 1.188-2.739 2.063-3.972 2.625s-2.656.844-4.27.844c-3.12 0-5.616-1.234-7.487-3.703-1.873-2.468-2.808-5.796-2.808-9.984 0-2.234.316-4.215.947-5.941s1.495-3.207 2.591-4.441c1.035-1.172 2.29-2.082 3.767-2.73 1.476-.648 2.953-.973 4.429-.973 1.537 0 2.797.168 3.778.504s1.99.762 3.025 1.277v-11.204h8.251zm-8.251-7.244v-12.934c-.578-.25-1.186-.43-1.824-.54s-1.224-.165-1.756-.165c-2.159 0-3.779.692-4.857 2.078-1.08 1.385-1.619 3.306-1.619 5.763 0 2.582.434 4.456 1.3 5.622.867 1.166 2.258 1.749 4.173 1.749.745 0 1.535-.145 2.372-.435.835-.289 1.572-.669 2.211-1.138z"/><path d="m162.916 10.846-8.156 26.32h-8.957l-5.363-17.742-5.298 17.742h-9.046l-8.086-26.32h8.851l4.519 18.141 5.615-18.141h7.477l5.339 18.141 4.444-18.141z"/><path d="m180.933 34.377c-.453.344-1.016.758-1.688 1.242s-1.305.867-1.898 1.148c-.828.375-1.688.652-2.578.832s-1.867.27-2.93.27c-2.5 0-4.594-.773-6.281-2.32s-2.531-3.523-2.531-5.929c0-1.922.43-3.492 1.289-4.711s2.078-2.18 3.656-2.883c1.563-.703 3.5-1.203 5.813-1.5s4.711-.516 7.195-.656v-.141c0-1.453-.594-2.457-1.781-3.012s-2.938-.832-5.25-.832c-1.391 0-2.875.246-4.453.738s-2.711.871-3.398 1.137h-.773v-6.352c.891-.234 2.34-.512 4.348-.832s4.02-.48 6.035-.48c4.797 0 8.262.738 10.395 2.215s3.199 3.793 3.199 6.949v17.906h-8.367v-2.789zm0-4.095v-5.467c-1.141.094-2.375.222-3.703.386-1.328.163-2.336.354-3.023.572-.844.265-1.488.65-1.934 1.156-.445.506-.668 1.172-.668 1.998 0 .545.047.989.141 1.332s.328.669.703.981c.359.312.789.541 1.289.689.5.147 1.281.222 2.344.222.844 0 1.699-.171 2.566-.514s1.628-.794 2.285-1.355z"/><path d="m214.176 18.885h-.748c-.359-.125-.936-.219-1.73-.281-.796-.063-1.458-.094-1.988-.094-1.2 0-2.261.078-3.181.234s-1.91.422-2.97.797v17.625h-8.461v-26.32h8.461v3.867c1.855-1.594 3.469-2.652 4.841-3.176s2.635-.785 3.788-.785c.297 0 .632.008 1.006.023.375.016.702.039.982.07z"/><path d="m242.918 25.565h-19.313c.125 2.063.91 3.641 2.355 4.734s3.574 1.641 6.387 1.641c1.781 0 3.508-.32 5.18-.961s2.992-1.328 3.961-2.063h.938v6.773c-1.906.766-3.703 1.32-5.391 1.664s-3.555.516-5.602.516c-5.281 0-9.328-1.188-12.141-3.563s-4.219-5.757-4.219-10.148c0-4.344 1.332-7.785 3.996-10.324s6.316-3.809 10.957-3.809c4.281 0 7.5 1.082 9.656 3.246s3.234 5.277 3.234 9.34v2.954zm-8.391-4.945c-.047-1.766-.484-3.094-1.313-3.984s-2.117-1.336-3.867-1.336c-1.625 0-2.961.422-4.008 1.266s-1.633 2.195-1.758 4.055h10.946z"/><path d="m143.5 66.412h-3.667l-10.563-18.601v18.602h-2.769v-20.794h4.594l9.637 16.98v-16.98h2.769v20.793z"/><path d="m168.119 66.412h-3.151l-2.182-5.795h-9.62l-2.182 5.795h-3.002l8.096-20.793h3.945zm-6.244-8.17-3.898-10.208-3.914 10.208z"/><path d="m186.51 48.076h-7.873v18.336h-2.93v-18.336h-7.873v-2.457h18.676z"/><path d="m193.825 66.412h-2.625v-20.793h2.625z"/><path d="m217.836 48.006c.913.932 1.613 2.072 2.102 3.422.486 1.35.729 2.882.729 4.595s-.249 3.247-.745 4.601c-.497 1.355-1.192 2.484-2.086 3.387-.924.941-2.017 1.648-3.277 2.123s-2.698.713-4.315.713c-1.576 0-3.01-.242-4.3-.727-1.291-.484-2.388-1.188-3.291-2.109-.904-.922-1.601-2.053-2.088-3.393-.486-1.342-.73-2.873-.73-4.595 0-1.694.241-3.214.724-4.56.481-1.346 1.186-2.498 2.108-3.457.885-.912 1.98-1.609 3.292-2.094 1.311-.484 2.739-.727 4.285-.727 1.606 0 3.052.244 4.331.732 1.28.491 2.365 1.187 3.261 2.089zm-.272 8.016c0-2.7-.652-4.783-1.958-6.249-1.306-1.467-3.088-2.199-5.348-2.199-2.28 0-4.069.732-5.37 2.199-1.302 1.466-1.951 3.549-1.951 6.249 0 2.728.663 4.815 1.988 6.263s3.104 2.172 5.333 2.172 4.003-.724 5.324-2.172c1.322-1.447 1.982-3.535 1.982-6.263z"/><path d="m242.201 66.412h-3.611l-10.404-18.602v18.602h-2.727v-20.793h4.524l9.491 16.98v-16.98h2.727z"/><path d="m250.244 8.665h-1.429l-1.233-1.933h-.541v1.933h-1.164v-5.272h1.962c.267 0 .498.018.691.053.192.036.373.112.541.23.171.119.307.271.407.458.101.188.15.423.15.707 0 .389-.077.707-.232.952-.155.246-.377.45-.666.613zm-1.824-3.657c0-.132-.023-.246-.07-.34-.046-.095-.127-.169-.24-.223-.079-.038-.172-.061-.277-.069-.105-.009-.228-.013-.368-.013h-.423v1.42h.359c.187 0 .343-.011.469-.032s.23-.069.316-.145c.082-.073.141-.154.179-.242.036-.089.055-.208.055-.356z"/><path d="m247.739 2.346c2.033 0 3.687 1.653 3.687 3.685 0 2.033-1.653 3.686-3.687 3.686-2.032 0-3.686-1.653-3.686-3.686.001-2.032 1.654-3.685 3.686-3.685m0-.7c-2.422 0-4.386 1.963-4.386 4.385 0 2.423 1.964 4.386 4.386 4.386 2.423 0 4.387-1.963 4.387-4.386 0-2.422-1.964-4.385-4.387-4.385z"/></g></svg>